<?xml version="1.0" encoding="utf-8"?>
<!-- Generator: Adobe Illustrator 25.4.1, SVG Export Plug-In . SVG Version: 6.00 Build 0)  -->
<svg width="126" height="43" version="1.0" id="katman_1" xmlns="http://www.w3.org/2000/svg" xmlns:xlink="http://www.w3.org/1999/xlink" x="0px" y="0px"
     viewBox="0 250 1700 600" style="enable-background:new 0 0 1700 1200;" xml:space="preserve">
<style type="text/css">
	.st0{fill:#1D1D1B;}
	.st1{clip-path:url(#SVGID_00000146498461892040246790000011067983962950605992_);fill:#4BAF74;}
	.st2{clip-path:url(#SVGID_00000146498461892040246790000011067983962950605992_);fill:#32DA6D;}
	.st3{clip-path:url(#SVGID_00000146498461892040246790000011067983962950605992_);fill:#F1F1E8;}
	.st4{clip-path:url(#SVGID_00000146498461892040246790000011067983962950605992_);fill:#0D0D0D;}
</style>
  <path class="st0" d="M756.4,651.4h81.8v39.5H706.6V442.7h49.8V651.4z"/>
  <path class="st0" d="M1052.9,588.1c0,7.1-0.5,13.5-1.4,19.2h-144c1.2,14.2,6.2,25.4,14.9,33.4s19.6,12.1,32.4,12.1
	c18.5,0,31.6-7.9,39.5-23.8h53.7c-5.7,19-16.6,34.6-32.7,46.9c-16.1,12.1-35.9,18.1-59.4,18.1c-19,0-36-4.1-51.2-12.4
	c-14.9-8.5-26.7-20.5-35.2-35.9c-8.3-15.4-12.4-33.2-12.4-53.3c0-20.4,4.1-38.3,12.4-53.7c8.3-15.4,19.9-27.3,34.8-35.6
	s32.1-12.4,51.6-12.4c18.7,0,35.4,4,50.1,12.1c14.9,8.1,26.4,19.6,34.5,34.5C1048.7,552,1052.9,568.9,1052.9,588.1z M1001.3,573.9
	c-0.2-12.8-4.9-23-13.9-30.6c-9-7.8-20-11.7-33.1-11.7c-12.3,0-22.8,3.8-31.3,11.4c-8.3,7.3-13.4,17.7-15.3,30.9H1001.3z"/>
  <path class="st0" d="M1076.4,591.7c0-19.9,3.9-37.6,11.7-53c8.1-15.4,18.8-27.3,32.4-35.6c13.7-8.3,29-12.4,45.9-12.4
	c14.7,0,27.5,3,38.4,8.9c11.1,5.9,20,13.4,26.7,22.4v-28.1h50.1v197h-50.1v-28.8c-6.4,9.2-15.3,16.9-26.7,23.1
	c-11.1,5.9-24.1,8.9-38.8,8.9c-16.6,0-31.8-4.3-45.5-12.8c-13.5-8.5-24.3-20.5-32.4-35.9C1080.3,629.7,1076.4,611.8,1076.4,591.7z
	 M1231.4,592.4c0-12.1-2.4-22.4-7.1-30.9c-4.7-8.8-11.1-15.4-19.2-19.9c-8.1-4.7-16.7-7.1-26-7.1c-9.2,0-17.8,2.3-25.6,6.8
	c-7.8,4.5-14.2,11.1-19.2,19.9c-4.7,8.5-7.1,18.7-7.1,30.6c0,11.9,2.4,22.3,7.1,31.3c5,8.8,11.4,15.5,19.2,20.3
	c8.1,4.7,16.6,7.1,25.6,7.1c9.2,0,17.9-2.3,26-6.8c8.1-4.7,14.5-11.4,19.2-19.9C1229,614.9,1231.4,604.5,1231.4,592.4z"/>
  <path class="st0" d="M1379.9,522.3c6.4-9,15.2-16.5,26.3-22.4c11.4-6.2,24.3-9.2,38.8-9.2c16.8,0,32,4.1,45.5,12.4
	c13.7,8.3,24.5,20.1,32.4,35.6c8.1,15.2,12.1,32.8,12.1,53c0,20.1-4,38-12.1,53.7c-7.8,15.4-18.6,27.4-32.4,35.9
	c-13.5,8.5-28.7,12.8-45.5,12.8c-14.5,0-27.3-3-38.4-8.9c-10.9-5.9-19.8-13.4-26.7-22.4v121.9h-49.8V493.9h49.8V522.3z
	 M1484.1,591.7c0-11.9-2.5-22-7.5-30.6c-4.7-8.8-11.1-15.4-19.2-19.9c-7.8-4.5-16.4-6.8-25.6-6.8c-9,0-17.5,2.4-25.6,7.1
	c-7.8,4.5-14.2,11.1-19.2,19.9c-4.7,8.8-7.1,19.1-7.1,30.9c0,11.9,2.4,22.2,7.1,30.9c5,8.8,11.4,15.5,19.2,20.3
	c8.1,4.5,16.6,6.8,25.6,6.8c9.2,0,17.8-2.4,25.6-7.1c8.1-4.7,14.5-11.5,19.2-20.3C1481.6,614.2,1484.1,603.8,1484.1,591.7z"/>
  <g>
	<defs>
		<rect id="SVGID_1_" x="180.7" y="415.5" width="437" height="283.9"/>
	</defs>
    <clipPath id="SVGID_00000177471387616359904400000016996464189052144548_">
		<use xlink:href="#SVGID_1_"  style="overflow:visible;"/>
	</clipPath>
    <path style="clip-path:url(#SVGID_00000177471387616359904400000016996464189052144548_);fill:#4BAF74;" d="M574.4,611.5
		c0,62.5-76.3,87.9-171.1,87.9c-94.8,0-172.2-25.4-172.2-87.9c0-62.5,76.9-113.1,171.6-113.1C497.5,498.4,574.4,549.1,574.4,611.5z"
    />
    <path style="clip-path:url(#SVGID_00000177471387616359904400000016996464189052144548_);fill:#32DA6D;" d="M556.9,475.2
		c0-32.9-26.9-59.7-60-59.7c-18.7,0-35.3,8.5-46.3,21.8c-15-3.3-31-5.2-47.5-5.2c-16.6,0-32.5,1.8-47.5,5.2
		c-11.1-13.3-27.8-21.8-46.3-21.8c-33.1,0-60,26.7-60,59.7c0,10.8,2.9,20.9,7.9,29.6c-4.8,10.2-7.3,21-7.3,32.3
		c0,58,68.7,105,153.3,105c84.6,0,153.3-47,153.3-105c0-11.3-2.6-22.1-7.3-32.3C554,496.1,556.9,486,556.9,475.2z"/>
    <path style="clip-path:url(#SVGID_00000177471387616359904400000016996464189052144548_);fill:#F1F1E8;" d="M304.4,508.3
		c20.2,0,36.7-16.3,36.7-36.5c0-20.1-16.4-36.5-36.7-36.5c-20.2,0-36.7,16.3-36.7,36.5C267.8,492,284.2,508.3,304.4,508.3z"/>
    <path style="clip-path:url(#SVGID_00000177471387616359904400000016996464189052144548_);fill:#F1F1E8;" d="M500,508.3
		c20.2,0,36.7-16.3,36.7-36.5c0-20.1-16.4-36.5-36.7-36.5s-36.7,16.3-36.7,36.5C463.3,492,479.7,508.3,500,508.3z"/>
    <path style="clip-path:url(#SVGID_00000177471387616359904400000016996464189052144548_);fill:#32DA6D;" d="M284.9,695.1
		c7.9,0,14.1-6.8,13.2-14.6c-3.2-27.4-16.9-86.7-77-122.4c-80-47.5-16.7,116-16.7,116l-16.6,9.5c-5.6,3.2-3.2,11.5,3.1,11.5H284.9z"
    />
    <path style="clip-path:url(#SVGID_00000177471387616359904400000016996464189052144548_);fill:#32DA6D;" d="M523.6,695.1
		c-7.1,0-12.7-6.8-11.9-14.6c2.8-27.3,15.2-86.7,69.4-122.4c72.3-47.5,15.1,116,15.1,116l15,9.5c5,3.2,2.9,11.5-2.8,11.5H523.6z"/>
    <path style="clip-path:url(#SVGID_00000177471387616359904400000016996464189052144548_);fill:#0D0D0D;" d="M304.4,478.5
		c3.7,0,6.7-3,6.7-6.6c0-3.7-3-6.6-6.7-6.6s-6.7,3-6.7,6.6C297.8,475.5,300.8,478.5,304.4,478.5z"/>
    <path style="clip-path:url(#SVGID_00000177471387616359904400000016996464189052144548_);fill:#0D0D0D;" d="M500,478.5
		c3.7,0,6.7-3,6.7-6.6c0-3.7-3-6.6-6.7-6.6s-6.7,3-6.7,6.6C493.3,475.5,496.3,478.5,500,478.5z"/>
</g>
</svg>
