<svg xmlns="http://www.w3.org/2000/svg" viewBox="0 0 24 22"><path fill-rule="evenodd" d="M0 3.999A3.997 3.997 0 013.997 0h12a4 4 0 014 4v1a4 4 0 013.999 4v6c0 2.278-1.9 4-4.125 4a4.002 4.002 0 01-3.874 3H4a4 4 0 01-4-4V3.998zM19.997 7a2 2 0 010 4V7zm-1.993 4.124a4.002 4.002 0 00-.185 7.7A2 2 0 0115.997 20H4a2 2 0 01-2-2V7.467c.588.34 1.27.533 1.997.533h12a2 2 0 012 2c0 .37.007 1.124.007 1.124zM2 3.999A1.997 1.997 0 013.997 2h12a2 2 0 012 2v2.535a3.982 3.982 0 00-2-.535h-12A1.997 1.997 0 012 4.006V4zM19.996 13c.729 0 1.412-.195 2-.535V15a2 2 0 01-2 2h-1a2 2 0 110-4h1zm-10-2a1 1 0 10-2 0v2h-2a1 1 0 100 2h2v2a1 1 0 102 0v-2h2a1 1 0 000-2h-2v-2z" clip-rule="evenodd"/></svg>