<svg xmlns="http://www.w3.org/2000/svg" fill="none" viewBox="0 0 16 16"><path fill="#55B6E2" fill-rule="evenodd" d="M8 .005A7.993 7.993 0 00.005 8 7.993 7.993 0 008 15.995 7.993 7.993 0 0015.995 8 7.993 7.993 0 008 .005zM10.998 7H8.999V5c0-.549-.45-.999-1-.999-.549 0-.998.45-.998 1V7H5c-.549 0-.999.45-.999.999 0 .55.45 1 1 1H7v1.998c0 .55.45 1 .999 1 .55 0 1-.45 1-1V8.999h1.998c.55 0 1-.45 1-1 0-.549-.45-.998-1-.998zM2.004 8A6.001 6.001 0 008 13.996 5.995 5.995 0 0013.996 8 6.001 6.001 0 008 2.004 6.001 6.001 0 002.004 8z" clip-rule="evenodd"/></svg>