<svg xmlns="http://www.w3.org/2000/svg" width="45" height="45" fill="none"><path fill="#B5BFC7" d="M45 11.25C45 5.037 39.963 0 33.75 0h-22.5C5.037 0 0 5.037 0 11.25v22.5C0 39.963 5.037 45 11.25 45h22.5C39.963 45 45 39.963 45 33.75v-22.5z"/><path stroke="#fff" stroke-linecap="round" stroke-linejoin="round" stroke-width="2" d="M29.823 15.542c3.549.947 6.319 4.06 6.704 7.995.494 5.04-3.115 9.52-8.06 10.004-4.611.451-8.756-2.73-9.695-7.25m9.27 2.903c2.59-.253 4.48-2.6 4.221-5.24a4.845 4.845 0 00-1.098-2.637"/><path stroke="#fff" stroke-linecap="round" stroke-linejoin="round" stroke-width="2" d="M25.469 16.559c-1.065-3.66-4.32-6.39-8.272-6.543-4.965-.193-9.15 3.754-9.346 8.815-.197 5.06 3.669 9.32 8.634 9.512.303.012.604.009.901-.01"/><path fill="#B5BFC7" stroke="#fff" stroke-linecap="round" stroke-linejoin="round" stroke-width="2" d="M18.727 29.73c-1.349-2.702-3.127-5.947-5.078-8.675-.837-1.172-.66-2.827.486-3.698 1.016-.773 2.45-.657 3.282.31a109.04 109.04 0 013.436 4.237s4.037-7.501 13.305-14.538c-4.679 7.025-8.569 16.274-10.808 22.16-.744 1.955-3.689 2.074-4.623.203z"/></svg>