<svg xmlns="http://www.w3.org/2000/svg" width="24" height="24" fill="none"><mask id="a" width="14" height="12" x="5" y="6" maskUnits="userSpaceOnUse"><path fill="#fff" fill-rule="evenodd" d="M14.932 11l-3.577-3.161c-.473-.419-.461-1.106 0-1.525a1.325 1.325 0 011.713 0l5.577 4.929a.984.984 0 010 1.514l-5.577 4.929a1.325 1.325 0 01-1.713 0 1.01 1.01 0 01-.355-.757c0-.284.128-.557.355-.757L14.944 13H6a1 1 0 110-2h8.932z" clip-rule="evenodd"/></mask><g mask="url(#a)"><path fill="#1EB8E7" d="M0 0h24v24H0z"/></g></svg>