<svg xmlns="http://www.w3.org/2000/svg" width="14" height="15" fill="none"><path fill="#A086F7" d="M8.457 2.835l3.757 3.959.62-.602a.47.47 0 01.515-.106.51.51 0 01.324.422l.324 2.83a.5.5 0 01-.147.42c-.118.106-.265.166-.413.136l-2.784-.436a.5.5 0 01-.398-.346.474.474 0 01.132-.512l.62-.602-3.183-3.356L6.01 6.448a.83.83 0 01-.545.24.864.864 0 01-.663-.255L.663 2.068A.92.92 0 01.693.834.839.839 0 011 .638c.045-.015.104-.03.163-.045.044 0 .088-.015.132-.015.221 0 .427.09.59.256l3.55 3.762 1.813-1.79a.846.846 0 011.208.03zm1.71 8.738h2.49a.47.47 0 01.472.481v2.258a.47.47 0 01-.472.482h-2.49a.47.47 0 01-.471-.482v-2.258a.48.48 0 01.471-.481zM5.32 9.556h2.49a.47.47 0 01.471.481v4.275a.47.47 0 01-.471.482H5.32a.47.47 0 01-.472-.482v-4.29c0-.255.206-.466.472-.466zM.471 7.524h2.49a.47.47 0 01.472.482v6.306a.47.47 0 01-.472.482H.471A.47.47 0 010 14.312V8.006a.47.47 0 01.471-.482z"/></svg>