<svg xmlns="http://www.w3.org/2000/svg" fill="none" viewBox="0 0 9 15"><path fill="#fff" fill-rule="evenodd" d="M3.503 3.847v2.737c.02.003.037.007.053.007.37-.01.74-.006 1.108-.032.312-.022.618-.102.905-.265.59-.336.787-1.166.418-1.778-.173-.288-.426-.432-.7-.526-.584-.2-1.181-.153-1.784-.143zm-.001 4.141v3.015c.02.003.037.008.053.007.495-.016.992-.019 1.486-.056.33-.024.652-.117.955-.283.3-.163.552-.392.652-.79.13-.519.023-1.119-.46-1.469-.355-.257-.75-.365-1.155-.393-.477-.034-.957-.027-1.435-.037-.031 0-.062.004-.096.006zm-3.48 4.653v-.083c.006-.012.014-.023.016-.035l.124-.898.087-.622H.36c.241 0 .482.005.723-.003.276-.01.424-.2.424-.535V4.432c0-.313-.16-.567-.413-.646a.766.766 0 00-.212-.037c-.286-.006-.573-.005-.86-.006V2.27h2.304v-.14L2.33.009h1.137l.002 2.083v.118h.91V.009H5.53c-.001.02-.003.041-.003.062v2.125c0 .023.004.046.006.072l.183.025c.439.06.872.152 1.286.348.438.207.812.511 1.055 1.012.173.358.24.75.253 1.16.027.9-.246 1.607-.915 2.06-.018.012-.035.028-.058.047.116.044.223.08.327.124.64.27 1.09.76 1.247 1.582.025.134.042.27.062.406v.643c-.017.139-.033.279-.052.418-.132.963-.557 1.66-1.3 2.063-.525.284-1.082.396-1.648.462-.148.017-.295.03-.446.046v.446l.003 1.833H4.378v-2.25h-.91v.125l-.002 2.125H2.329v-2.285h-.107l-2.088-.01c-.038 0-.075-.005-.112-.007z" clip-rule="evenodd"/></svg>