<svg xmlns="http://www.w3.org/2000/svg" fill="none" viewBox="0 0 24 21"><path fill="#163150" fill-rule="evenodd" d="M20.967.414a1 1 0 00-1.62 1.172c1.727 2.388 2.668 5.359 2.652 8.426-.015 3.066-.985 6.026-2.736 8.392a1 1 0 101.608 1.19c2.013-2.72 3.111-6.096 3.128-9.572.018-3.476-1.047-6.865-3.032-9.608zm-2.6 3.25a1 1 0 00-1.62 1.173c1.052 1.454 1.628 3.27 1.619 5.146-.01 1.877-.604 3.685-1.67 5.126a1 1 0 101.608 1.19c1.328-1.795 2.05-4.02 2.062-6.306.011-2.286-.689-4.519-1.999-6.329zM1 0a1 1 0 00-1 1v19a1 1 0 001.448.894L3 20.117l1.552.777a1 1 0 00.91-.007l1.48-.77 1.623.784a1 1 0 00.883-.007L11 20.117l1.552.777a1 1 0 00.896 0l1-.5A1 1 0 0015 19.5V15a1 1 0 10-2 0v3.882l-1.552-.777a1 1 0 00-.895 0l-1.561.78-1.63-.787a1 1 0 00-.897.014l-1.473.766-1.544-.773a1 1 0 00-.895 0L2 18.38V2.001h11.2v2.941a1 1 0 102 0V1a1 1 0 00-1-1H1zm13.091 10.241h-.004l-.002.001v-.001l.001-.002v-.002l.005.004zm-2.004-.004c0-1.108.902-1.996 2.002-1.996 1.1 0 2.001.888 2.001 1.996a1.999 1.999 0 01-2.001 1.995c-1.1 0-2.002-.887-2.002-1.995zM5 5a1 1 0 000 2h5a1 1 0 100-2H5zm0 4.5a1 1 0 000 2h.5a1 1 0 100-2H5zM5 14a1 1 0 100 2h3a1 1 0 100-2H5z" clip-rule="evenodd"/></svg>