<svg xmlns="http://www.w3.org/2000/svg" width="14" height="15" fill="none"><path fill="#A086F7" d="M8.018 7.237l3.757-4.054.619.617a.461.461 0 00.515.108c.177-.062.295-.231.324-.432l.325-2.898a.52.52 0 00-.148-.431c-.117-.108-.265-.17-.412-.14l-2.785.448a.504.504 0 00-.398.354.493.493 0 00.133.525l.619.616-3.183 3.437-1.812-1.85a.82.82 0 00-.545-.246.853.853 0 00-.664.262l-4.14 4.47a.96.96 0 00.03 1.264.836.836 0 00.309.2c.044.016.103.031.162.047.044 0 .089.015.133.015a.809.809 0 00.59-.262l3.55-3.853L6.81 7.268a.832.832 0 001.209-.03zM3.833 11.26h-2.49a.477.477 0 00-.472.494v2.312c0 .277.206.493.472.493h2.49a.477.477 0 00.471-.493v-2.313c0-.261-.206-.493-.471-.493zM8.68 9.195H6.19a.477.477 0 00-.471.493v4.377c0 .278.206.494.471.494h2.49a.477.477 0 00.472-.493V9.671a.473.473 0 00-.472-.477zm4.849-2.081h-2.49a.477.477 0 00-.472.493v6.459c0 .277.207.493.472.493h2.49a.477.477 0 00.472-.493V7.607a.477.477 0 00-.472-.493z"/></svg>