<svg xmlns="http://www.w3.org/2000/svg" viewBox="0 0 24 24"><path fill-rule="evenodd" d="M18.62 10.97a5.832 5.832 0 00-.696-3.468l5.783-5.793c.39-.391.39-1.025 0-1.416a.998.998 0 00-1.413 0l-5.623 5.633a5.498 5.498 0 00-3.192-1.379l2.15-2.155a1 1 0 000-1.415.998.998 0 00-1.412 0L9.168 6.035C7.842 7.28 7.123 9.134 7.337 10.97H5.699L3.62 5.596a1 1 0 00-.933-.64H1a1 1 0 000 2h1.003C3.47 10.75 4.91 14.54 6.355 18.34a1 1 0 00.935.645h11.434a1 1 0 00.935-.645l2.287-6.014a1.01 1.01 0 00-.935-1.356h-2.39zm-9.262 0c-.403-2.16 1.265-4.445 3.62-4.445 2.356 0 4.025 2.286 3.622 4.445H9.358zm-1.379 6.014L6.453 12.97H19.56l-1.526 4.014H7.979zm1.486 3.007c-1.115 0-1.979.92-1.979 2.003 0 1.083.864 2.002 1.979 2.002 1.115 0 1.979-.919 1.979-2.002 0-1.084-.864-2.003-1.98-2.003zm7.084 0c-1.115 0-1.979.92-1.979 2.003 0 1.083.864 2.002 1.98 2.002 1.114 0 1.978-.919 1.978-2.002 0-1.084-.864-2.003-1.979-2.003z" clip-rule="evenodd"/></svg>