<svg xmlns="http://www.w3.org/2000/svg" viewBox="0 0 1200 120"><path fill="#fff" d="M0 0h1200v120H0z"/><mask id="a" width="1200" height="120" x="0" y="0" maskUnits="userSpaceOnUse"><path fill="#fff" d="M0 0h1200v120H0z"/></mask><g filter="url(#filter0_d)" mask="url(#a)"><ellipse cx="792.5" cy="60" fill="url(#paint0_linear)" rx="434.5" ry="252"/></g><path fill="#fff" d="M462.285 77V44.465h11.228c2.13 0 3.945.202 5.445.607 1.515.405 2.752.983 3.712 1.733.975.75 1.688 1.657 2.138 2.723.45 1.065.675 2.264.675 3.6 0 .764-.113 1.5-.338 2.205a6.391 6.391 0 01-1.057 1.957c-.465.6-1.065 1.148-1.8 1.642-.72.495-1.583.915-2.588 1.26 4.47 1.005 6.705 3.42 6.705 7.245 0 1.38-.262 2.656-.787 3.826a8.54 8.54 0 01-2.295 3.037c-1.005.84-2.243 1.5-3.713 1.98-1.47.48-3.15.72-5.04.72h-12.285zm6.053-14.265v9.54h6.142c1.125 0 2.063-.135 2.813-.405.765-.27 1.372-.63 1.822-1.08.465-.45.795-.975.99-1.575.21-.6.315-1.237.315-1.913 0-.705-.112-1.335-.337-1.89a3.469 3.469 0 00-1.058-1.44c-.48-.404-1.095-.712-1.845-.922-.75-.21-1.657-.315-2.722-.315h-6.12zm0-4.185h4.837c2.055 0 3.615-.375 4.68-1.125 1.065-.75 1.598-1.942 1.598-3.578 0-1.694-.48-2.902-1.44-3.622-.96-.72-2.46-1.08-4.5-1.08h-5.175v9.405zm28.029-4.635v14.67c0 1.41.322 2.505.967 3.285.66.765 1.643 1.147 2.948 1.147.96 0 1.86-.21 2.7-.63.84-.434 1.635-1.027 2.385-1.777V53.915h5.557V77h-3.397c-.72 0-1.193-.338-1.418-1.013l-.382-1.844c-.48.48-.975.922-1.485 1.327a9.67 9.67 0 01-1.643 1.013 8.81 8.81 0 01-1.867.63 8.8 8.8 0 01-2.138.247c-1.26 0-2.377-.21-3.352-.63a6.83 6.83 0 01-2.43-1.823c-.66-.78-1.163-1.702-1.508-2.767-.33-1.08-.495-2.265-.495-3.555v-14.67h5.558zm28.681 29.43c-.165.39-.383.683-.653.877-.255.21-.652.316-1.192.316h-4.14l4.32-9.248-9.338-21.375h4.86c.45 0 .795.105 1.035.315.24.21.42.45.54.72l4.928 11.97c.165.39.307.795.427 1.215.12.42.225.84.315 1.26.12-.435.248-.855.383-1.26.15-.405.307-.818.472-1.238l4.635-11.947c.12-.3.315-.547.585-.742.285-.195.6-.293.945-.293h4.455l-12.577 29.43zm45.34-38.88v4.815h-14.422v9.023h11.362v4.657h-11.362v9.202h14.422V77h-20.52V44.465h20.52zm28.159 0v4.972h-9.787V77h-6.053V49.437h-9.832v-4.972h25.672zM629.833 77h-6.098V62.78H608.48V77h-6.097V44.465h6.097V58.46h15.255V44.465h6.098V77zm22.532.36c-1.995 0-3.532-.563-4.613-1.688-1.079-1.14-1.619-2.707-1.619-4.702V58.078h-2.34c-.3 0-.563-.098-.788-.293-.21-.195-.315-.487-.315-.877v-2.206l3.713-.607 1.17-6.3c.06-.3.195-.532.405-.698.225-.165.502-.247.832-.247h2.88v7.267h6.075v3.96h-6.075v12.51c0 .72.18 1.283.54 1.688.36.405.84.607 1.44.607.345 0 .63-.037.855-.112.24-.09.443-.18.608-.27.18-.09.337-.172.472-.248a.726.726 0 01.405-.134.6.6 0 01.405.135c.105.075.218.195.338.36l1.665 2.7a8.413 8.413 0 01-2.79 1.53c-1.05.344-2.138.517-3.263.517zm19.675-23.805c1.725 0 3.285.278 4.68.833 1.41.555 2.61 1.342 3.6 2.362.99 1.02 1.755 2.265 2.295 3.735.54 1.47.81 3.112.81 4.927 0 1.83-.27 3.48-.81 4.95-.54 1.47-1.305 2.723-2.295 3.758-.99 1.035-2.19 1.83-3.6 2.385-1.395.555-2.955.833-4.68.833-1.725 0-3.293-.278-4.703-.833-1.41-.555-2.617-1.35-3.622-2.385-.99-1.035-1.763-2.288-2.318-3.758-.54-1.47-.81-3.12-.81-4.95 0-1.815.27-3.457.81-4.927.555-1.47 1.328-2.715 2.318-3.735 1.005-1.02 2.212-1.807 3.622-2.362 1.41-.555 2.978-.833 4.703-.833zm0 19.508c1.92 0 3.337-.645 4.252-1.936.93-1.29 1.395-3.18 1.395-5.67 0-2.49-.465-4.387-1.395-5.692-.915-1.305-2.332-1.958-4.252-1.958-1.95 0-3.39.66-4.32 1.98-.93 1.306-1.395 3.196-1.395 5.67 0 2.476.465 4.366 1.395 5.67.93 1.29 2.37 1.936 4.32 1.936zM704.006 77c-.72 0-1.192-.338-1.417-1.013l-.45-2.227c-.48.54-.983 1.027-1.508 1.462a9.356 9.356 0 01-1.71 1.126c-.6.314-1.252.555-1.957.72-.69.18-1.44.27-2.25.27-1.26 0-2.415-.263-3.465-.788-1.05-.525-1.958-1.282-2.723-2.272-.75-1.006-1.335-2.243-1.755-3.713-.405-1.47-.607-3.15-.607-5.04 0-1.71.232-3.3.697-4.77.465-1.47 1.133-2.745 2.003-3.825a9.219 9.219 0 013.127-2.52c1.215-.615 2.58-.922 4.095-.922 1.29 0 2.393.21 3.308.63a8.473 8.473 0 012.452 1.642V43.565h5.558V77h-3.398zm-7.402-4.073c1.155 0 2.137-.24 2.947-.72s1.575-1.162 2.295-2.047V59.81c-.63-.765-1.32-1.305-2.07-1.62a5.99 5.99 0 00-2.385-.472c-.84 0-1.605.157-2.295.472-.675.315-1.252.795-1.732 1.44-.465.63-.825 1.44-1.08 2.43-.255.975-.383 2.13-.383 3.465 0 1.35.105 2.497.315 3.442.225.93.54 1.695.945 2.296.405.584.9 1.012 1.485 1.282.585.255 1.238.382 1.958.382zM731.515 77h-2.497c-.525 0-.938-.075-1.238-.225-.3-.165-.525-.488-.675-.968l-.495-1.642c-.585.525-1.162.99-1.732 1.395-.555.39-1.133.72-1.733.99a8.89 8.89 0 01-1.912.608c-.675.135-1.425.202-2.25.202-.975 0-1.875-.127-2.7-.382a6.071 6.071 0 01-2.138-1.193 5.427 5.427 0 01-1.372-1.957c-.33-.78-.495-1.688-.495-2.723 0-.87.225-1.725.675-2.565.465-.855 1.23-1.62 2.295-2.295 1.065-.69 2.482-1.26 4.252-1.71 1.77-.45 3.968-.705 6.593-.765v-1.35c0-1.545-.33-2.685-.99-3.42-.645-.75-1.59-1.125-2.835-1.125-.9 0-1.65.105-2.25.315-.6.21-1.125.45-1.575.72-.435.255-.84.488-1.215.698-.375.21-.788.315-1.238.315-.375 0-.697-.098-.967-.293a2.304 2.304 0 01-.653-.72l-1.012-1.777c2.655-2.43 5.857-3.646 9.607-3.646 1.35 0 2.55.225 3.6.675 1.065.435 1.965 1.05 2.7 1.846.735.78 1.29 1.717 1.665 2.812.39 1.095.585 2.295.585 3.6V77zm-10.8-3.465c.57 0 1.095-.052 1.575-.157.48-.106.93-.263 1.35-.473.435-.21.848-.465 1.238-.765.405-.315.81-.683 1.215-1.103v-3.892c-1.62.075-2.978.218-4.073.428-1.08.195-1.95.45-2.61.765-.66.315-1.132.682-1.417 1.102-.27.42-.405.877-.405 1.373 0 .974.285 1.672.855 2.092.585.42 1.342.63 2.272.63zm23.664 9.81c-.165.39-.383.683-.653.877-.255.21-.652.316-1.192.316h-4.14l4.32-9.248-9.338-21.375h4.86c.45 0 .795.105 1.035.315.24.21.42.45.54.72l4.928 11.97c.165.39.307.795.427 1.215.12.42.225.84.315 1.26.12-.435.248-.855.383-1.26.15-.405.307-.818.472-1.238l4.635-11.947c.12-.3.315-.547.585-.742.285-.195.6-.293.945-.293h4.455l-12.577 29.43z"/><path fill="#1652F0" fill-rule="evenodd" d="M80.734 77.918c1.876 0 3.61-.341 5.252-.983.014.032 3.358 5.228 3.406 5.264-3.027 1.627-6.19 2.343-9.649 2.343C69.463 84.542 62 77.767 62 66.953c0-10.893 7.844-17.667 17.743-17.667 3.525 0 6.303.764 9.102 2.26-.31.514-3.19 5.405-3.2 5.425a13.868 13.868 0 00-5.218-.983c-6.092 0-10.812 3.884-10.812 10.965 0 6.7 4.568 10.965 11.12 10.965zm25.93-28.632c10.129 0 17.439 7.16 17.439 17.667 0 10.431-7.31 17.589-17.439 17.589-10.05 0-17.36-7.156-17.36-17.589 0-10.508 7.31-17.667 17.36-17.667zm0 6.473c-5.633 0-9.747 4.341-9.747 11.194 0 6.778 4.112 11.117 9.749 11.117 5.788 0 9.824-4.339 9.824-11.117 0-6.853-4.036-11.194-9.826-11.194zm22.237 28.023V50.046h7.537v33.736h-7.537zm-.991-44.093c0-2.588 2.211-4.642 4.722-4.642 2.514 0 4.72 2.054 4.72 4.644 0 2.666-2.206 4.798-4.72 4.798-2.511 0-4.722-2.132-4.722-4.798v-.002zm15.105 12.492c4.721-1.828 10.512-2.895 15.459-2.895 8.606 0 14.088 3.274 14.088 12.792v21.704H165.1V62.764c0-4.872-3.045-6.626-7.236-6.626-2.666 0-5.328.382-7.31.992v26.652h-7.539V52.18zM178.875 32h7.537v18.963c1.599-.839 4.72-1.677 7.689-1.677 9.749 0 17.057 6.243 17.057 17.057 0 10.889-7.232 18.199-19.719 18.199a37.465 37.465 0 01-12.564-2.207V32zm7.537 45.386c1.446.456 3.35.682 5.254.682 6.928 0 11.879-3.805 11.879-11.574 0-6.548-4.644-10.432-10.355-10.432-2.969 0-5.256.763-6.78 1.601l.002 19.723zm46.524-16.222c0-3.655-2.743-5.328-6.474-5.328-3.884 0-6.929 1.141-9.745 2.74v-6.55c2.969-1.673 6.774-2.74 10.965-2.74 7.384 0 12.638 3.045 12.638 11.496v22.314c-3.198.836-7.764 1.372-11.571 1.372-8.758 0-15.156-2.666-15.156-10.281 0-6.853 5.862-10.203 15.609-10.203h3.732l.002-2.82zm0 7.843h-3.198c-5.256 0-8.682 1.525-8.682 4.951 0 3.503 3.2 4.873 7.767 4.873 1.144 0 2.742-.153 4.113-.381v-9.443zm12.866 5.637c3.124 2.36 6.853 3.806 10.279 3.806 3.352 0 5.561-1.142 5.561-3.806 0-2.744-1.98-3.733-6.319-4.875-7.007-1.598-9.978-4.415-9.978-10.278 0-6.855 5.179-10.205 12.032-10.205 3.807 0 6.853.838 9.669 2.588v6.93c-2.969-2.13-5.862-3.426-9.44-3.426-3.274 0-5.025 1.599-5.025 3.808 0 2.206 1.444 3.35 5.33 4.413 7.693 1.677 11.041 4.574 11.041 10.664 0 7.081-5.406 10.279-12.716 10.279-3.96 0-7.92-1.063-10.432-2.74l-.002-7.158zm33.469-6.016v.153c.457 6.014 5.633 9.287 10.887 9.287 4.645 0 7.998-1.065 11.346-3.273v6.627c-3.046 2.13-7.539 3.12-11.876 3.12-10.51 0-17.667-6.7-17.667-17.36 0-10.737 7.003-17.894 16.295-17.894 9.821 0 14.467 6.319 14.467 15.53v3.812l-23.452-.002zm16.369-4.875c-.15-5.255-2.738-8.146-7.613-8.146-4.341 0-7.539 3.047-8.528 8.148l16.141-.002z" clip-rule="evenodd"/><defs><linearGradient id="paint0_linear" x1="-26.5" x2="1348.5" y1="60" y2="60" gradientUnits="userSpaceOnUse"><stop stop-color="#1652F0"/><stop offset=".628" stop-color="#5B85F4"/><stop offset="1" stop-color="#fff"/></linearGradient><filter id="filter0_d" width="889" height="524" x="342" y="-199" color-interpolation-filters="sRGB" filterUnits="userSpaceOnUse"><feFlood flood-opacity="0" result="BackgroundImageFix"/><feColorMatrix in="SourceAlpha" values="0 0 0 0 0 0 0 0 0 0 0 0 0 0 0 0 0 0 127 0"/><feOffset dx="-6" dy="3"/><feGaussianBlur stdDeviation="5"/><feColorMatrix values="0 0 0 0 0.733333 0 0 0 0 0.733333 0 0 0 0 0.733333 0 0 0 0.5 0"/><feBlend in2="BackgroundImageFix" result="effect1_dropShadow"/><feBlend in="SourceGraphic" in2="effect1_dropShadow" result="shape"/></filter></defs></svg>