<svg xmlns="http://www.w3.org/2000/svg" viewBox="0 0 345 150"><rect width="345" height="150" fill="#fff" rx="3"/><path fill="#163150" d="M30.752 72V54.648h5.988c1.136 0 2.104.108 2.904.324.808.216 1.468.524 1.98.924.52.4.9.884 1.14 1.452.24.568.36 1.208.36 1.92 0 .408-.06.8-.18 1.176a3.41 3.41 0 01-.564 1.044c-.248.32-.568.612-.96.876a5.683 5.683 0 01-1.38.672c2.384.536 3.576 1.824 3.576 3.864 0 .736-.14 1.416-.42 2.04a4.555 4.555 0 01-1.224 1.62c-.536.448-1.196.8-1.98 1.056s-1.68.384-2.688.384h-6.552zm3.228-7.608v5.088h3.276c.6 0 1.1-.072 1.5-.216.408-.144.732-.336.972-.576.248-.24.424-.52.528-.84.112-.32.168-.66.168-1.02 0-.376-.06-.712-.18-1.008a1.85 1.85 0 00-.564-.768c-.256-.216-.584-.38-.984-.492-.4-.112-.884-.168-1.452-.168H33.98zm0-2.232h2.58c1.096 0 1.928-.2 2.496-.6.568-.4.852-1.036.852-1.908 0-.904-.256-1.548-.768-1.932-.512-.384-1.312-.576-2.4-.576h-2.76v5.016zm14.949-2.472v7.824c0 .752.172 1.336.516 1.752.352.408.876.612 1.572.612.512 0 .992-.112 1.44-.336a5.16 5.16 0 001.272-.948v-8.904h2.964V72H54.88c-.384 0-.636-.18-.756-.54l-.204-.984c-.256.256-.52.492-.792.708a5.154 5.154 0 01-.876.54 4.701 4.701 0 01-.996.336 4.69 4.69 0 01-1.14.132c-.672 0-1.268-.112-1.788-.336a3.642 3.642 0 01-1.296-.972 4.315 4.315 0 01-.804-1.476 6.465 6.465 0 01-.264-1.896v-7.824h2.964zm15.296 15.696a1.075 1.075 0 01-.348.468c-.136.112-.348.168-.636.168h-2.208l2.304-4.932-4.98-11.4h2.592c.24 0 .424.056.552.168.128.112.224.24.288.384l2.628 6.384c.088.208.164.424.228.648.064.224.12.448.168.672.064-.232.132-.456.204-.672.08-.216.164-.436.252-.66l2.472-6.372a.873.873 0 01.816-.552h2.376l-6.708 15.696zm24.182-20.736v2.568h-7.692v4.812h6.06v2.484h-6.06v4.908h7.692V72H77.463V54.648h10.944zm15.018 0V57.3h-5.22V72h-3.228V57.3h-5.244v-2.652h13.692zM120.111 72h-3.252v-7.584h-8.136V72h-3.252V54.648h3.252v7.464h8.136v-7.464h3.252V72z"/><path fill="#282D32" d="M41.304 90.896L38.68 99h-1.128c-.139 0-.235-.09-.288-.272l-1.792-5.496a3.169 3.169 0 01-.104-.368 44.656 44.656 0 00-.08-.376l-.08.376a3.623 3.623 0 01-.104.376l-1.824 5.488c-.048.181-.155.272-.32.272h-1.072l-2.624-8.104h1.12a.44.44 0 01.28.088c.08.059.133.128.16.208l1.552 5.216c.09.384.163.747.216 1.088l.144-.536c.053-.181.11-.365.168-.552l1.712-5.248a.434.434 0 01.136-.2.395.395 0 01.248-.08h.624a.42.42 0 01.264.08c.07.053.117.12.144.2l1.672 5.248c.059.187.112.37.16.552.048.181.093.36.136.536a9.76 9.76 0 01.096-.528c.043-.181.088-.368.136-.56l1.584-5.216a.395.395 0 01.152-.208.415.415 0 01.264-.088h1.072zm2.89 0V99H42.77v-8.104h1.424zm.304-2.544c0 .139-.029.27-.087.392a1.086 1.086 0 01-.224.32c-.091.09-.2.163-.328.216a.973.973 0 01-.392.08.973.973 0 01-.704-.296 1.166 1.166 0 01-.216-.32.973.973 0 01-.08-.392c0-.139.026-.27.08-.392a.996.996 0 01.216-.328.989.989 0 01.312-.224.973.973 0 01.392-.08c.138 0 .269.027.392.08a.944.944 0 01.328.224c.096.09.17.2.224.328a.897.897 0 01.087.392zm4.524 10.776c-.64 0-1.133-.179-1.48-.536-.341-.357-.512-.872-.512-1.544v-4.96h-.976a.33.33 0 01-.216-.072c-.058-.053-.088-.133-.088-.24v-.568l1.328-.168.328-2.504a.34.34 0 01.104-.192.32.32 0 01.224-.08h.72v2.792h2.344v1.032h-2.344v4.864c0 .341.083.595.248.76a.866.866 0 00.64.248c.15 0 .278-.019.384-.056.112-.043.208-.088.288-.136.08-.048.147-.09.2-.128.059-.043.11-.064.152-.064.075 0 .142.045.2.136l.416.68c-.245.23-.541.41-.888.544a3.071 3.071 0 01-1.072.192zm4.679-7.152c.346-.368.73-.661 1.152-.88.421-.219.906-.328 1.456-.328.442 0 .832.075 1.168.224.341.144.624.352.848.624.229.267.402.59.52.968.117.379.176.797.176 1.256V99h-1.432v-5.16c0-.613-.142-1.088-.424-1.424-.278-.341-.702-.512-1.272-.512a2.41 2.41 0 00-1.184.304 3.916 3.916 0 00-1.008.824V99h-1.432V87.216H53.7v4.76z"/><path fill="#1652F0" fill-rule="evenodd" d="M158.386 89.809c1.34 0 2.578-.244 3.752-.702.01.023 2.4 3.735 2.434 3.76-2.163 1.163-4.423 1.675-6.894 1.675-7.346 0-12.678-4.84-12.678-12.568 0-7.783 5.604-12.623 12.678-12.623 2.518 0 4.503.546 6.503 1.615-.221.367-2.279 3.862-2.286 3.876a9.916 9.916 0 00-3.728-.702c-4.353 0-7.726 2.775-7.726 7.834 0 4.788 3.264 7.835 7.945 7.835zm18.527-20.458c7.237 0 12.46 5.116 12.46 12.623 0 7.454-5.223 12.568-12.46 12.568-7.181 0-12.404-5.113-12.404-12.568 0-7.507 5.223-12.623 12.404-12.623zm0 4.625c-4.025 0-6.964 3.102-6.964 7.998 0 4.844 2.938 7.944 6.966 7.944 4.135 0 7.019-3.1 7.019-7.944 0-4.896-2.884-7.998-7.021-7.998zM192.802 94V69.894h5.385V94h-5.385zm-.708-31.505c0-1.849 1.579-3.317 3.374-3.317 1.796 0 3.372 1.468 3.372 3.318 0 1.905-1.576 3.429-3.372 3.429-1.795 0-3.374-1.524-3.374-3.429v-.001zm10.793 8.925c3.372-1.305 7.51-2.068 11.045-2.068 6.149 0 10.066 2.34 10.066 9.14V94h-5.332V78.982c0-3.482-2.176-4.735-5.17-4.735-1.905 0-3.807.273-5.223.708V94h-5.386V71.42zM228.509 57h5.385v13.55c1.142-.6 3.373-1.199 5.494-1.199 6.966 0 12.188 4.46 12.188 12.188 0 7.78-5.168 13.003-14.09 13.003a26.767 26.767 0 01-8.977-1.577V57zm5.385 32.43c1.033.324 2.394.486 3.754.486 4.951 0 8.488-2.718 8.488-8.27 0-4.678-3.318-7.453-7.399-7.453-2.121 0-3.755.544-4.845 1.144l.002 14.092zm33.242-11.592c0-2.612-1.96-3.807-4.626-3.807-2.775 0-4.95.815-6.963 1.958v-4.68c2.122-1.195 4.841-1.958 7.835-1.958 5.276 0 9.03 2.176 9.03 8.215v15.942c-2.285.598-5.547.98-8.268.98-6.258 0-10.828-1.904-10.828-7.345 0-4.896 4.188-7.29 11.152-7.29h2.666l.002-2.015zm0 5.604h-2.285c-3.755 0-6.203 1.09-6.203 3.538 0 2.502 2.286 3.481 5.549 3.481.817 0 1.96-.109 2.939-.272v-6.747zm9.193 4.028c2.232 1.685 4.896 2.719 7.345 2.719 2.395 0 3.973-.816 3.973-2.72 0-1.96-1.415-2.667-4.515-3.482-5.007-1.143-7.13-3.155-7.13-7.345 0-4.897 3.701-7.291 8.597-7.291 2.721 0 4.897.6 6.909 1.849v4.952c-2.121-1.522-4.188-2.448-6.745-2.448-2.339 0-3.591 1.142-3.591 2.72 0 1.577 1.032 2.394 3.809 3.154 5.497 1.198 7.889 3.268 7.889 7.62 0 5.06-3.863 7.344-9.086 7.344-2.829 0-5.659-.76-7.453-1.958l-.002-5.114zm23.914-4.299v.11c.327 4.296 4.025 6.635 7.779 6.635 3.319 0 5.714-.76 8.107-2.339v4.736c-2.176 1.522-5.387 2.229-8.486 2.229-7.509 0-12.623-4.788-12.623-12.404 0-7.671 5.004-12.785 11.643-12.785 7.017 0 10.337 4.515 10.337 11.096v2.724l-16.757-.002zm11.696-3.483c-.108-3.755-1.957-5.82-5.44-5.82-3.101 0-5.386 2.177-6.093 5.822l11.533-.002z" clip-rule="evenodd"/></svg>