<svg xmlns="http://www.w3.org/2000/svg" fill="none" viewBox="0 0 24 24"><path fill="#424242" fill-rule="evenodd" d="M5 6.5a4.5 4.5 0 109 0 4.5 4.5 0 00-9 0zM9.5 13a6.497 6.497 0 01-5.59-3.18 4.5 4.5 0 107.041 3.017A6.52 6.52 0 019.5 13zM3 6.5c0 .49.054.967.157 1.426a6.5 6.5 0 109.685 4.15A6.5 6.5 0 103 6.5zm16.372 2.01a1 1 0 00-1.744 0l-4.5 8a1 1 0 00.072 1.09l4.5 6a1 1 0 001.6 0l4.5-6a1 1 0 00.072-1.09l-4.5-8zM18.5 21.333l-1.78-2.372 1.464.488a1 1 0 00.632 0l1.463-.488-1.779 2.372zm0-3.887l3.035-1.012L18.5 11.04l-3.034 5.394 3.034 1.012z" clip-rule="evenodd"/></svg>