<svg xmlns="http://www.w3.org/2000/svg" width="45" height="45" fill="none"><path fill="#B5BFC7" d="M0 11.25C0 5.037 5.037 0 11.25 0h22.5C39.963 0 45 5.037 45 11.25v22.5C45 39.963 39.963 45 33.75 45h-22.5C5.037 45 0 39.963 0 33.75v-22.5z"/><path fill="#B5BFC7" d="M16 12l-6 6h6v-6z"/><path stroke="#fff" stroke-linecap="round" stroke-linejoin="round" stroke-width="2" d="M10 18v16h18v-9.71M10 18l6-6m-6 6h6v-6m0 0h12v7.405M21.097 16h.951m.106 14H23m-7.614-8h5.71m-5.71 4h5.71m-5.71 4h3.807"/><path stroke="#fff" stroke-linecap="round" stroke-linejoin="round" stroke-width="2" d="M25.264 19.647h6.627v-4.222l8.23 6.395-8.23 6.875v-3.317"/></svg>