<svg xmlns="http://www.w3.org/2000/svg" width="45" height="45" fill="none"><path fill="#B5BFC7" d="M0 11.25C0 5.037 5.037 0 11.25 0h22.5C39.963 0 45 5.037 45 11.25v22.5C45 39.963 39.963 45 33.75 45h-22.5C5.037 45 0 39.963 0 33.75v-22.5z"/><path fill="#B5BFC7" d="M14 32.831h16.763V12H20.1L14 18v14.831z"/><path stroke="#fff" stroke-linecap="round" stroke-linejoin="round" stroke-width="2" d="M20.1 12h10.663v20.831H14V18m6.1-6L14 18m6.1-6v6H14m10.436-2h2.451m-1.363 12.89h1m-7-6.735h5m-5 3.367h3m-3 3.368h3"/><path stroke="#fff" stroke-linecap="round" stroke-linejoin="round" stroke-width="2" d="M26.223 8.223h4.51V3.966l8.296 6.447-8.296 6.93V14m-12.59 22.786h-4.171v4.256l-8.295-6.446 8.295-6.93v3.344"/></svg>