<svg xmlns="http://www.w3.org/2000/svg" viewBox="0 0 652 652"><path d="M88.7 365.1l23-23.8-28.6-38.6-36.4-51.5c-13.3 22.7-20.3 48.5-20.2 74.8 0 45.2 20.2 85.6 52.1 112.8l46.2-32.7c-15.7-9.8-28.3-24-36.1-41zm46.8-125l23.8 23 38.6-28.6 51.5-36.4c-22.7-13.3-48.5-20.3-74.8-20.2-45.2 0-85.6 20.2-112.8 52.1l32.7 46.2c9.8-15.8 24.1-28.4 41-36.1zm102.1 70.6l28.6 38.6 36.4 51.5c13.3-22.7 20.3-48.5 20.2-74.8 0-45.2-20.2-85.6-52.1-112.8l-46.2 32.7c15.8 9.8 28.4 24.1 36.1 41l-23 23.8zM287.5 422l-32.7-46.2c-9.8 15.8-24.1 28.4-41 36.1l-23.8-23-38.6 28.6-51.5 36.4c22.7 13.3 48.5 20.3 74.8 20.2 45.1 0 85.6-20.2 112.8-52.1zm122.2-98.3c0-47.9 20-71.8 51.2-71.8 31 0 51.5 24.2 51.5 71.8 0 47.5-20.4 71.6-51.5 71.6s-51.2-24.1-51.2-71.6zm51-56.2c-22.5 0-33.7 20.9-33.7 56.3 0 16.7 2.5 29.7 7.2 39.1l44.3-89.5c-5.1-4-11-5.9-17.8-5.9zm-17.4 106.8c5 3.8 10.7 5.7 17.5 5.7 22.5 0 33.9-21 33.9-56.2 0-16.3-2.4-29.2-7.2-38.9l-44.2 89.4zm180.6-80.9l-28.5 47.9 31.2 51.6h-19.1l-25-41.7h-7.1l-25.5 41.7h-18.6l31.3-50.9-28.1-48.6h18.1l23 39.5h7.2l23.6-39.5h17.5z"/></svg>