<svg xmlns="http://www.w3.org/2000/svg" width="520" height="250" fill="none"><path fill="#ADE1FB" d="M469.662 230.746H50.292c-12.162 0-20.505-12.317-15.982-23.628l39.303-98.13c3.72-9.35 12.766-15.433 22.819-15.433h330.107c8.896 0 16.938 4.775 21.31 12.316 1.508 2.564-1.357-4.625 37.946 101.699 4.172 11.261-4.121 23.176-16.133 23.176z"/><path fill="#1EB8E7" d="M470.516 230.394H50.444c.753-16.64 0-32.073 14.424-44.138 14.425-12.065 11.66-25.035 13.168-34.687 3.217-20.511 17.742-26.644 35.584-24.935 63.127 6.234 48.652-16.389 106.652-3.117 19.3 4.424 35.232 6.133 52.622 0 77.401-27.247 68.806 21.114 114.191 3.117 14.877-5.882 30.558-6.385 39.504 6.837 11.811 17.494-2.513 18.198 23.723 47.004 18.445 17.544 22.215 34.235 20.204 49.919z"/><path stroke="#008FDA" stroke-linecap="round" stroke-linejoin="round" stroke-width="2.649" d="M77.282 198.773c6.786 3.922 1.76 10.507-7.538 10.507-8.344 0-13.621-5.479-8.796-9.602m24.024 7.943c2.212-3.72 1.005-8.647-5.126-11.764m-21.26 15.585c6.081 3.669 15.53 3.82 21.813.301l-21.813-.301z"/><path stroke="#008FDA" stroke-linecap="round" stroke-linejoin="round" stroke-width="2.522" d="M87.335 166.498c4.07 3.469.603 7.792-5.429 8.898"/><path fill="#DAEBED" fill-rule="evenodd" d="M53.46 121.656v4.273c0 5.932-8.947 5.932-8.947 0v-4.273c0-11.16 9.047-20.209 20.154-20.209 11.158 0 20.154 9.049 20.154 20.209v46.099c0 5.932-8.946 5.932-8.946 0v-46.099c0-14.88-22.416-14.88-22.416 0z" clip-rule="evenodd"/><path fill="#163050" fill-rule="evenodd" d="M76.026 122.914c0-9.551-9.6-15.835-17.29-10.808-5.83 3.67-5.377 9.35-5.478 13.724l-3.87.151v-3.519c0-9.15 6.886-16.489 15.33-16.489 8.493 0 15.329 7.39 15.329 16.539v4.223c-5.278.05-4.021 12.266-4.021-3.821zm-.05 25.639c-1.307 21.516 1.508 6.887 2.814 9.853v-8.044c3.97-12.668 3.418-9.451 3.569-20.309l-6.383 18.5zm4.02 23.879c2.966 0 2.212-5.731 2.212-10.96 0 0-4.523 10.96-2.212 10.96z" clip-rule="evenodd" opacity=".1"/><path stroke="#163050" stroke-linecap="round" stroke-linejoin="round" stroke-width="2.329" d="M53.46 121.656v4.273c0 5.932-8.947 5.932-8.947 0v-4.273c0-11.16 9.047-20.209 20.154-20.209 11.158 0 20.154 9.049 20.154 20.209v46.099c0 5.932-8.946 5.932-8.946 0v-46.099c0-14.88-22.416-14.88-22.416 0z"/><path fill="#DAEBED" fill-rule="evenodd" d="M82.359 163.28L71.15 196.359c-1.558 4.776-7.74 1.81-6.233-2.916l11.208-33.078c1.558-4.776 7.79-1.81 6.233 2.915zm-.151-31.318L71 165.041c-1.558 4.776-7.74 1.81-6.232-2.916l11.208-33.078c1.558-4.726 7.79-1.76 6.232 2.915z" clip-rule="evenodd"/><path stroke="#163050" stroke-linecap="round" stroke-linejoin="round" stroke-width="2.329" d="M82.057 162.426L70.85 195.505c-1.558 4.775-6.936 2.413-5.428-2.263l11.208-33.078c1.458-3.972 6.835-1.408 5.428 2.262zm0-30.865L70.85 164.639c-1.558 4.776-7.288 2.564-5.73-2.161l11.209-33.079c1.507-4.776 7.237-2.564 5.73 2.162z"/><path fill="#DBEBED" fill-rule="evenodd" d="M74.77 147.898v55.348c-2.212 2.715-8.143 2.413-9.852 0v-55.348c0-8.144-7.69-13.574-14.776-12.015-1.508.301-3.267 1.106-3.418 1.256-11.86 6.284-1.507 20.411-11.358 20.411-5.73 0-4.926-6.284-4.926-9.602 0-12.216 9.901-22.12 22.115-22.12 12.313-.05 22.214 9.854 22.214 22.07z" clip-rule="evenodd"/><path fill="#163050" fill-rule="evenodd" d="M69.19 147.747v57.41c-1.809-.1-3.518-.804-4.272-1.91V148.2c0-9.552-10.353-15.836-18.646-10.809-10.906 6.435-1.457 18.751-10.102 20.059v-9.703c0-9.149 7.388-16.489 16.535-16.489 9.097-.05 16.486 7.39 16.486 16.489z" clip-rule="evenodd" opacity=".1"/><path stroke="#163050" stroke-linecap="round" stroke-linejoin="round" stroke-width="2.329" d="M74.77 147.898v55.348c-2.212 2.715-8.143 2.413-9.852 0v-55.348c0-8.144-7.69-13.574-14.776-12.015-1.508.301-3.267 1.106-3.418 1.256-11.86 6.284-1.507 20.411-11.358 20.411-5.73 0-4.926-6.284-4.926-9.602 0-12.216 9.901-22.12 22.115-22.12 12.313-.05 22.214 9.854 22.214 22.07z"/><path fill="#8BD8FF" d="M451.619 115.071l-1.257 65.453c-14.073-12.367-43.877-60.929-43.877-60.929l28.649-38.76c16.284 32.074 13.268 25.589 16.485 34.236z"/><path fill="#0DA3E0" d="M450.362 180.525c-8.594-3.67-14.022-22.019-34.528-22.019-18.395 0-26.789 21.265-61.016 11.009-29.854-8.948-25.18-20.762-25.18-28.654 0-5.731 4.674-12.769 12.213-19.154 22.215 11.462 28.648 11.562 45.284 4.977 42.922-17.042 45.184 23.678 46.742 29.157 2.764 9.703 9.7 17.243 16.485 24.684zm-82.376 31.118c0-8.144 5.378-19.756 8.092-19.756 8.594 0 10.203 31.922 3.92 31.922-1.005-.05-12.012-2.162-12.012-12.166z"/><path fill="#82D5EA" d="M375.776 222.502c-5.176-32.626 1.86-58.415 14.274-65.956 4.222-4.072 16.184-2.463 16.184-2.463-10.454-.804-29.653 25.035-19.501 72.441l-10.957-4.022z"/><path fill="#0DA3E0" d="M126.236 227.027c-8.293-2.011-14.425-6.937-16.285-14.528-4.171 2.865-10.454 3.921-15.982 3.921 2.965-2.564 6.132-4.726 8.242-8.094 3.167-5.077 4.021-11.16 9.751-14.076 2.563 3.971.854 11.16 12.565 24.583 2.513 2.865 4.272 4.675 1.709 8.194z"/><path fill="#82D5EA" d="M280.584 135.532s-8.996-14.177 9.801-36.648c18.797-22.471 31.06-12.065 34.729-9.4 3.468 2.11-14.374 23.979-23.773 27.447-9.398 3.469-15.128 23.025-15.128 23.025l-5.629-4.424z"/><path fill="#A8E5EF" d="M181.974 103.559l4.775-6.938c21.461-18.198 61.719 7.088 55.386 30.565.05 0-62.775 3.72-60.161-23.627z"/><path fill="#82D5EA" d="M184.889 131.812c-16.385-24.885 3.971-41.776 25.683-35.04 23.773 7.39 33.925 24.634 27.643 39.665-10.102 1.106-15.329-1.659-24.075-6.284-8.745-4.625-14.776 4.926-29.251 1.659z"/><path fill="#FFC858" d="M403.922 52.986c13.57-7.088 15.329-7.038 25.13-7.038 10.655 0 18.144-12.266 26.889-12.266 2.161 0 4.523 1.357 4.523 3.317 0 6.134-15.078 9.15-15.078 15.685 0 4.374 10.706-.301 16.335-3.971 15.229-9.904 19.048-3.268 23.069-3.268 3.066 0 6.434-5.63 10.907-5.63 2.613 0 4.473 2.312 4.473 4.977 0 7.49-6.685 6.384-8.042 18.349-.553 4.625-2.513 8.948-6.132 11.562-13.771 10.004-5.076 19.254-5.076 19.254-93.785 62.286-89.664 62.437-105.747 64.348-18.797.854-31.915-8.999-38.599-15.685-4.775-4.776-7.439-15.584-7.992-25.437-1.105-19.807 5.127-23.276 14.927-29.158 50.562-30.263 56.191-32.827 60.413-35.04z"/><path fill="#FFDA7F" d="M497.405 70.63c-6.734 5.681 2.111 10.658-8.242 17.797 0 0-3.87 2.715-10.002 6.837-82.778 55.5-84.135 58.516-94.69 60.778 10.907-9.3 2.664-22.924 18.697-34.436 7.589-5.429 84.839-56.053 89.664-59.773 4.875-3.72 11.258 3.067 4.573 8.798z"/><path fill="#FFC858" d="M489.163 88.426c-12.364 8.446-6.433 4.123-37.494 24.935-58.804 39.413-59.458 40.77-66.393 42.429 19.852-26.845-32.519 10.306 112.129-85.21-6.734 5.731 2.111 10.708-8.242 17.846z" opacity=".4"/><path fill="#82D5EA" d="M165.237 150.664c-9.951 5.228-19.199 19.153-30.708 18.5-1.156-8.194-9.449-23.98-23.019-26.443-.151-2.111-.201-4.323-.201-6.636 8.845-38.457 53.024-41.524 60.261-13.724 2.463 9.502-.201 19.958-6.333 28.303z"/><path fill="#fff" d="M155.135 130.102c2.312-7.993 4.423-12.317.855-12.317-.553 0-.252-.05-7.941 3.067-1.307.502-1.257 1.759-1.659 3.569-2.764-2.865.151-2.966-25.733 7.591-2.111.855-1.056 2.966-.05 7.541.653 2.815 3.669 1.055 5.578.251 4.423 19.455 1.408 10.306 12.716 7.641 0-.352.201.654-2.664-11.713 3.619-1.458 3.871-1.458 4.323-2.011 1.809 1.609 1.859-.452-1.659 11.663-.201.704 0 1.458.503 1.961a17.47 17.47 0 014.322-.402c5.278-2.112 6.031-2.112 6.333-3.469.804-3.318.201-3.067 2.061-1.207.552.604 1.457.754 2.161.453 7.489-3.016 8.293-2.966 8.544-4.474.251-1.458-.151-1.408-7.69-8.144z" opacity=".8"/><path fill="#82D5EA" d="M93.265 137.543c13.269-11.964 19.752 4.575 18.546 23.829-.854 13.775-12.515 47.004-20.003 47.004-5.127 0 8.192-21.566 8.192-25.287 0-5.178-6.634-4.122-6.634-10.707 0-5.178 7.086-18.4 7.086-22.522.051-5.329-8.594-6.485-7.187-12.317z"/><path fill="#A8E5EF" d="M104.724 134.426l7.087 2.312c14.274 5.379 9.348 61.683-17.189 80.988 0 0-5.026-2.011-3.92-7.843 14.022-13.221 17.641-27.247 20.355-46.752 3.167-22.874-6.333-28.705-6.333-28.705zm60.111 17.244s16.435-22.07 1.458-38.76c9.047 6.586 13.671 21.969 4.674 38.307-2.965-.553-4.322-.905-6.132.453z"/><path fill="#82D5EA" d="M132.971 229.088c-6.082-6.485-21.411-16.187-21.411-44.792 0-27.448 17.943-35.894 22.617-35.894 5.478 0 10.806 71.788 10.806 75.91-.051 6.234-6.886 6.083-12.012 4.776z"/><path fill="#1EB8E7" d="M132.016 228.282c5.78 1.056 5.679.553 11.811-.553-4.373-4.022-14.023-10.155-18.697-21.516-3.367-.101-6.584-.905-9.75-2.111 3.216 11.361 8.192 16.137 16.636 24.18z" opacity=".4"/><path fill="#A8E5EF" d="M144.932 227.73c-14.676-8.898-25.883-30.263-25.883-42.982 0-18.399 6.734-38.508 25.28-38.508 9.047 0 25.532 10.859 30.609 27.851-10.002 31.922-4.222 37.402-17.39 47.556-3.418 2.615-8.243 6.737-12.616 6.083z"/><path fill="#fff" d="M131.111 169.465c-.704 10.356-1.709 8.546 4.775 11.21l-1.106 17.143c-.101 1.96 1.357 2.011 7.891 4.574 9.097 3.519 10.705 4.726 11.761 2.564.954-1.91.502-2.262 1.608 1.709.352 1.308.754 1.157 8.293 4.073.703.301 1.558.1 2.111-.403 1.256-1.156.904-.955-3.971-16.489 7.388-13.02 8.293-10.557-2.563-15.131-.955-.403-2.111 0-2.563.955-.604 1.206-.252 1.407-1.106-1.659-.352-1.358.352-.704-22.265-10.306-1.357-.503-2.815.402-2.865 1.76zm14.525 27.247c.854-14.076.05-11.965 2.563-10.959 1.659 5.278 2.111 2.815-2.563 10.959z"/><path fill="#A8E5EF" d="M331.045 99.839c-.201-11.311-16.133-19.656-34.931 2.111-12.062 14.026-16.686 30.314-9.398 39.313 4.774-13.071 5.579-21.919 18.144-19.606 12.565 2.312 22.918-4.575 22.918-4.575 1.357-10.155 3.267-17.243 3.267-17.243z"/><path fill="#fff" d="M229.118 120.601c-.251-1.558-1.005-1.458-8.645-4.222-.704-.252-1.508-.101-2.01.402-1.508 1.357-1.005 1.558-1.81-.905-.402-1.358.553-.905-23.873-9.451-2.865-1.006-3.016 3.368-3.569 5.932-.452 2.262 2.162 2.614 4.825 3.569-1.809 8.647-2.814 10.457-.603 11.261 6.383 2.312 7.187 2.916 8.293 1.96 0 .302.302.956.804 1.308 9.298-2.615 15.078 1.558 22.768 4.323l-3.016-7.742c6.283-4.675 7.087-4.876 6.836-6.435zm-26.487 6.485l1.658-7.54c4.624 1.659 3.619 1.005 4.423 2.915l-6.081 4.625z" opacity=".7"/><path fill="#82D5EA" d="M292.546 142.319c11.208-10.506 24.577-14.779 37.745-11.612 34.328 8.294 34.629 34.235 28.146 44.239-22.215-17.394-24.427 14.729-58.352-5.379-.402-5.178-.804-6.385-.804-6.385 3.97-5.48 2.211-19.857-6.735-20.863z"/><path fill="#77ECFF" d="M283.499 216.519c11.158-38.307-9.097-73.95-31.915-79.831 0 0 17.692.904 26.286 9.501 4.825 4.826 16.485 23.125 17.692 37.05 1.206 13.925-.905 29.308-.905 29.308s-4.473 4.122-11.158 3.972z"/><path fill="#fff" d="M324.21 103.71c0-1.458-1.508-2.413-2.865-1.81-5.931 2.665-6.082 2.514-6.484 3.369-.854 1.709-.301 1.156-1.256.703-.553-.251-1.106-.201-1.608 0-18.898 8.396-18.898 7.792-19.099 9.401-.603 4.726-1.056 5.731.201 6.636 2.312 1.76 3.166-2.312 2.714 1.508 2.613-1.81 5.88-2.011 9.097-1.86.653-4.776-.101-3.72 2.965-5.027l-2.714 5.077c6.836.352 9.449 1.559 16.888-1.709.15-.905 0-.854-2.765-6.535 5.177-9.753 4.926-9.049 4.926-9.753z" opacity=".7"/><path fill="#A8E5EF" d="M288.525 142.318s1.357-.1 4.021 0c25.18-24.331 64.031-11.914 68.856 19.053 8.343-34.134-53.678-52.232-72.877-19.053zm98.208 84.256c-9.248-39.262 4.323-62.085 12.716-69.274 13.52-11.563 28.548 9.501 28.849 30.565-12.967 1.458-13.821 20.662-15.58 27.096-1.76 6.385-12.716 19.103-25.985 11.613z"/><path fill="#3ED8FF" d="M206.3 191.635c-.352-31.319 21.36-65.302 49.606-53.388 33.323 14.076 33.775 62.94 27.643 78.273 0 0-6.383.603-11.559-3.318-9.299-6.988-9.902-.805-21.11-1.508-.05 0-11.559-20.159-44.58-20.059z"/><path fill="#1EB8E7" d="M283.951 209.984c-10.755-4.625-10.856-7.49-29-5.63-18.143 1.86-45.384-13.322-47.948-19.254-2.563 6.686 1.006 19.254 1.006 19.254 42.972 17.544 51.667.955 61.066 7.038 4.875 3.167 10.152 5.58 14.424 5.127 1.357-3.77.452-6.535.452-6.535z" opacity=".4"/><path fill="#fff" d="M338.785 153.528c-.553-.1-1.307.101-1.809.603-2.564 2.816-1.759 2.966-2.915-.301-.553-1.609.552-1.257-30.759-5.983-1.156-.15-2.111.604-2.262 1.609-1.709 8.647-2.362 7.641 5.026 8.798-3.317 16.338-4.875 13.472 7.287 15.332 2.513.403 2.262-1.608 4.775-13.422 4.926.754 5.227 1.005 6.082.402l1.156 2.614-8.193 7.792c-1.206 1.156-.553 3.167 1.056 3.469 11.71 1.81 9.298 2.363 13.118-1.659l.452 1.257c3.669-1.559 7.087-3.368 10.957-4.022l-1.76-4.172c11.611-10.909 12.214-9.803-2.211-12.317z" opacity=".9"/><path fill="#A8E5EF" d="M163.277 228.785s-.904-9.3 6.333-17.846 19.35-23.728 54.733-17.143c18.445 5.48 29.704 16.037 33.423 35.191-7.891-.202-27.492-20.009-50.813-19.556-23.27.402-43.676 19.354-43.676 19.354z"/><path fill="#fff" d="M416.186 189.575c-1.106-15.836-.604-16.489-2.564-16.992-.854-.201-1.759.151-2.211.905-4.524 7.44-4.574 7.239-4.473 8.144.452 4.474.653 2.614-.955 2.614-.654 0-1.357.352-1.709.955-14.978 24.533-14.576 23.226-14.023 24.583 2.714 6.586 2.815 7.742 4.423 7.893 4.775 0-.05-10.507 7.992 9.199.1.201 4.221-1.86 7.689-7.39 0-.452-.15-.754-.452-1.457 4.021 2.01 3.971-16.791 9.801-25.689l-3.518-2.765zm-11.962 14.327c2.915-4.876 2.312-4.323 3.015-3.77 1.307 17.896 2.463 17.293-3.015 3.77z"/><path fill="#82D5EA" d="M163.277 228.785c17.189-34.889 73.531-34.637 91.926-.201-8.896 1.709-14.877-4.927-20.657-4.927-5.629 0-9.147 5.932-22.617 5.932-23.22 0-16.134-3.67-32.569-2.966-6.483.251-15.078 3.217-16.083 2.162z"/><path fill="#fff" d="M216.503 227.428c-12.515-11.16-11.761-10.758-12.465-10.557-.703.201-.402 0-4.121 9.803-.352.955.653 1.357 2.111 2.513 15.48 1.257 21.26-.754 27.995-4.071l-13.52 2.312zm-29.151-52.533c2.714 6.485 8.996 12.97 18.898 12.115.955-3.871 1.156-7.842 1.156-7.842-6.685 1.558-11.812-1.257-15.581-7.088 3.367-3.972 3.769-8.245-.302-8.597-4.071-.301-5.83 4.927-8.041 6.887-2.212 1.961-6.886 4.826-4.574 7.34 2.262 2.514 8.444-2.815 8.444-2.815z"/><path fill="#BFB5F2" d="M216.854 148.753c-1.105 9.903 57.85 31.369 67.902 30.012 3.97-.553 12.112-3.318 10.806-7.843-1.307-4.524-6.735-17.544-9.902-18.751-1.206-.553-2.563-.503-2.563-.503.302 1.911 1.156 2.313-1.809 3.419-2.966 1.106-4.272 1.96-9.399.804-5.126-1.156-26.789-8.546-38.097-14.428-2.111-.955-2.563-2.262.754-3.619-5.629-1.408-8.192.553-11.61 3.418-3.418 2.866-5.83 4.876-6.082 7.491z"/><path fill="#BFB5F2" d="M271.487 141.565c2.161-.201 6.685-3.268 14.877 2.162 1.709-.553 3.619-1.307 5.478-1.307 3.77 0 9.148 4.424 9.148 11.663 0 4.976-1.86 8.797-1.86 9.35 0 .352 1.256 4.826 1.256 9.904 0 4.524-1.96 8.495-3.97 12.417 0-.051-2.413-10.708-2.413-10.758.855-1.106 1.357-2.112 1.357-3.519 0-2.816-6.383-20.662-11.71-19.556-6.031-6.837-9.298-8.496-12.163-10.356z"/><path fill="#fff" d="M291.742 200.684c0 6.083 12.514 7.34 15.932 7.34 8.192 0 7.941-1.458 11.208 2.463 1.86 2.262 3.92 3.066 5.78 5.781.553.855 1.508 3.117 3.719 3.117 1.96 0 2.312-2.011 2.815-2.865 2.865 4.976 7.237 3.418 7.237-.252 0-4.223-1.206-3.167.453-3.167 1.407 0 2.714-1.257 2.714-3.167 0-3.871-5.026-5.329-8.695-6.837 4.423-4.524 1.256-7.189-.603-7.189-2.463 0-6.936 5.027-9.248 5.027-.654 0-1.307-.352-3.016-.352-2.111 0-5.931.252-7.991.202-8.544-.252-13.52-3.972-16.285-3.771-1.759-.05-4.02 1.408-4.02 3.67z"/><path fill="#BFB5F2" d="M260.882 82.394c0 3.469 6.182 5.33 6.182 11.01 0 12.165-26.487 17.896-31.161-2.916-2.262-10.004-6.484-14.227-12.113-14.78-12.967-1.357-14.223 9.451-31.563 9.451-18.697 0-21.411-6.485-31.312-5.128-9.901 1.358-15.128 10.759-25.532 10.759-9.248 0-16.686-6.536-16.686-16.188 0-5.127 3.267-11.613-.252-15.031-3.819-3.72-17.741-.754-17.741-12.316 0-7.44 8.745-10.105 13.117-19.808 4.373-9.702 15.33-20.158 32.468-18.7 19.853 1.709 30.307 6.837 50.964 6.837 26.487 0 28.749-12.568 44.078-12.568 19.199 0 27.14 15.282 40.761 19.656 6.383 2.06 12.565 2.715 17.34 4.072 10.554 3.016 13.218 12.115 4.523 19.304-2.815 2.363-5.478 4.927-6.132 8.144-1.608 8.144 2.463 26.543-15.882 23.728-4.172-1.357-8.243-3.82-12.716-3.82-4.975.05-8.343 2.614-8.343 8.294z"/><path fill="#fff" d="M262.139 109.742c9.398 0 14.927 12.266 1.156 14.73-14.023 2.513-17.24-14.73-1.156-14.73z"/><path fill="#1EB8E7" d="M166.645 222.551c13.57-5.53 35.735 5.731 47.244 3.469 14.978-2.966 16.737-11.462 41.062.402l.252 2.111c-9.047.553-17.038-4.876-20.657-4.926-3.619-.051-15.731 8.043-38.952 4.474-19.35-2.966-23.773-.101-31.864 1.257.904-4.173 2.915-6.787 2.915-6.787zm8.644-48.36c-13.62 15.182-7.036 44.34-36.488 49.065 0 0 2.462 3.821 6.031 5.329 18.043-8.948 20.958-14.88 23.723-29.007 2.764-14.126 4.171-22.018 6.734-25.387zm110.019 35.24s5.177-3.167 6.434-8.747c0 0-.754 3.669 4.121 5.328a223.867 223.867 0 00-1.156 6.636c-4.121 2.916-11.158 3.921-11.158 3.921l1.759-7.138z" opacity=".4"/><path fill="#fff" d="M257.515 132.012c-.402-4.273 5.478-4.273 5.478.151 0 2.815-5.177 3.167-5.478-.151z"/><path fill="#DAEBED" d="M291.742 200.684c11.66 4.575 20.255 4.575 26.386 3.419.151 4.122 3.87 4.876 5.981 7.842 2.111 2.966 2.513 4.876 4.423 4.726 1.86-.151 2.413-1.509 2.413-1.509l-4.926-6.585s3.217-.805 6.182 4.122c3.016 4.927 5.83 3.821 5.478 1.458-.301-1.81-7.539-7.842-7.539-7.842 1.006-1.257 3.468-.201 5.881 1.91 2.412 2.111 5.528 3.268 4.875.352 3.367 3.469-2.312 6.083-2.815 4.424 2.614 6.585-3.819 9.25-6.785 3.519-.301 2.614-2.513 4.574-5.227 1.257-6.785-8.295-9.248-8.144-9.599-10.256-8.344 1.006-25.683.754-24.728-6.837zm42.067 2.262s1.86-1.457 2.162-3.82c.452-3.318-3.117-4.424-4.072-2.413 2.413 0 2.162 1.86.805 2.966-1.357 1.106-2.011 2.363-2.011 2.363l3.116.904zM191.523 172.23c-2.513-3.77.453-4.273.151-7.691 1.508-.101 2.262 1.156 2.262 2.614 0 1.91-1.357 3.519-2.413 5.077zM187 175.297c5.378 10.658 14.475 11.713 19.652 11.713 0 0 .452-1.558.552-4.625-2.864.754-7.388 1.106-11.358-.653-10.706-4.726-7.64-10.859-12.465-7.29-2.261 1.659-4.624 1.76-4.624.604-1.507 1.659.603 6.535 8.243.251z"/><path fill="#A382E5" d="M296.315 184.597c-.05-5.832-1.708-6.133-1.708-8.597 0-1.659 1.055-2.815 1.055-5.178 0-2.915-5.428-12.165-5.428-14.126 0-1.005.503-1.307 1.106-6.284 5.126 4.625 3.769 9.702 4.674 15.232 1.106 6.737 4.121 7.591-.251 14.177" opacity=".6"/><path fill="#A382E5" d="M291.641 151.92c-5.629-2.262-12.112-11.059-20.456-11.311 3.619 3.771 5.278 3.57 10.455 9.602 3.116 3.62 4.623.201 8.795 7.34a8.556 8.556 0 001.206-5.631z" opacity=".6"/><path fill="#A382E5" d="M300.286 159.863c0 1.408-.754 2.816-1.106 4.123-2.613-3.72-4.322-8.999-7.74-11.663 0 0-.352-5.781-5.981-9.2 8.142-.452 14.827 12.317 14.827 16.74z" opacity=".6"/><path fill="#1EB8E7" d="M217.407 152.273c13.369 15.836 61.116 37.955 77.149 25.438l-.553-2.665c-4.623 3.469-8.996 4.676-14.625 3.369-30.759-7.089-55.688-20.964-61.971-26.142z"/><path fill="#1EB8E7" d="M297.421 137.844c8.745 6.334 10.454 18.952 9.751 26.493 18.897 9.3 29.804-4.575 53.727 5.127l-2.412 5.53c-17.189-15.182-28.095 9.652-50.059-1.558-4.222-2.162-8.293-3.821-8.293-3.821a60.157 60.157 0 01-.804-6.384c2.614-7.239 3.066-18.048-6.735-20.863 1.206-1.91 4.825-4.524 4.825-4.524z" opacity=".3"/><path fill="#1EB8E7" d="M181.22 124.924c16.385 1.257 11.359-1.307 21.059-1.307 11.912 0 23.522 8.898 30.809 8.898 7.439 0 7.64-5.932 5.479 3.67-3.921 3.62-17.792-3.519-20.506-4.625-17.29-6.988-30.709 11.562-36.841-6.636z" opacity=".4"/><path fill="#1EB8E7" d="M279.529 117.886l5.327 5.077c7.087-7.691 12.414-8.797 22.115-7.541 9.7 1.257 18.043-.804 21.31-4.172 0 3.62-.503 5.831-.503 5.831-14.877 12.116-30.558-3.72-36.639 12.769-3.619 9.803-4.423 11.412-4.423 11.412-4.926-4.374-11.811-9.149-7.187-23.376z" opacity=".2"/><path fill="#1EB8E7" d="M174.335 144.23l-3.921-3.168c-6.785 4.927-20.104 7.39-20.104 7.39s6.785 2.615 10.102 5.229c3.318-2.765 10.505-2.413 10.505-2.413l3.418-7.038z" opacity=".4"/><path fill="#0DA3E0" d="M172.123 150.562c6.835-15.584 2.563-20.963 1.809-29.459 1.458-.301 2.865-.603 4.273-.804 4.121 3.82 4.322 15.433-6.082 30.263z"/><path fill="#1EB8E7" d="M374.218 215.715l10.706 2.915c8.494-.352 19.551 0 25.733-15.383 6.182-15.383 8.142-20.309 16.686-23.376 1.458 3.62 1.005 8.044 1.005 8.044-20.204 1.709-6.734 39.211-31.613 40.87-10.706.704-20.858-6.233-20.858-6.233l-1.659-6.837z" opacity=".4"/><path fill="#fff" d="M104.574 172.28c-2.262-5.782-2.212-6.536-3.619-6.837-.402-.101-.352.201.05-1.307.201-.754.251-.604-2.312-7.24-4.875 11.814-8.293 18.35-.955 23.427.553-2.212 7.992-5.077 6.836-8.043z"/><path fill="#1EB8E7" d="M105.73 205.811l-6.987-3.971c6.283-10.004 6.032-20.31.905-28.454-5.126-8.144 7.238-22.471 3.267-29.208-3.97-6.736-7.69-8.596-7.69-8.596s-6.03 3.117.905 9.149c6.936 6.033 4.272 9.602.251 17.696-4.07 8.094-4.975 14.327 1.408 18.299 2.412 1.759 2.563 4.977-1.257 11.462-14.424 24.482 1.608 32.073 6.031 22.923.704-2.915 3.167-9.3 3.167-9.3z" opacity=".4"/><path stroke="#163050" stroke-linecap="round" stroke-linejoin="round" stroke-width="2.329" d="M445.588 117.486c-44.38 30.163-54.583 38.307-63.077 39.614 11.962-5.077 5.177-24.784 19.049-34.134l4.925-3.318m59.357-15.787l-10.856 7.39M361.804 157.3c7.941 1.709 15.832 1.357 22.014-.603m-43.274-66.912c-10.655 7.39-14.374 21.567-11.56 35.09m-44.128 54.346c2.312 11.914 2.061 24.784-1.307 36.849m-51.968-76.514c16.837-9.15 34.377-.302 44.63 16.64m-69.71 35.692c.05-13.975 3.719-28.906 11.71-40.117m77.501 54.143a96.906 96.906 0 01-1.105 6.284m-.704-37.1c1.759 6.686 2.664 13.925 2.513 21.466m-44.932-60.125c14.324 2.816 23.019 3.117 32.568 16.691"/><path stroke="#163050" stroke-linecap="round" stroke-linejoin="round" stroke-width="2.329" d="M251.685 211.945c12.062-1.106 13.721-3.72 17.691-.503 8.494 6.887 21.009 7.189 30.458-3.971m-63.278-8.848c8.193-2.412 17.441-.201 17.441-.201m.703-3.016l-.352 5.932m-37.242-51.176c2.965 6.334 31.462 21.265 63.277 28.353 5.981 1.358 16.938-2.765 15.329-7.741-1.658-5.128-7.137-20.159-12.464-19.104.301.403.502.754.703 1.056 1.257 1.76-6.533 4.424-10.001 3.519-7.489-1.91-27.844-7.541-42.771-16.338 1.96-1.257 3.618-1.961 3.618-1.961s-5.88-1.91-10.002 1.76c-4.171 3.72-9.147 7.339-7.689 10.456z"/><path stroke="#163050" stroke-linecap="round" stroke-linejoin="round" stroke-width="2.329" d="M271.638 141.667c5.729-3.268 14.726-.151 18.244 5.982 3.518 6.133.905 9.904.905 9.904m1.307-5.178c6.232 3.117 12.766 22.421 4.422 33.23m2.765-22.172c6.132-13.674-3.518-25.287-12.917-20.209"/><path stroke="#008FDA" stroke-linecap="round" stroke-linejoin="round" stroke-width="2.649" d="M195.796 184.547c-2.312.854-4.323 2.412-5.529 4.322m-12.565 1.309c3.769-3.368 7.489-4.625 7.489-4.625m103.937 39.815c10.454-1.458 15.581-8.697 17.089-10.507m28.447-32.023c4.272 6.183 5.478 14.026 2.563 22.069m-27.945-19.454c6.484 4.525 9.047 11.864 9.5 14.277"/><path stroke="#163050" stroke-linecap="round" stroke-linejoin="round" stroke-width="2.329" d="M317.877 204.656c-4.222 3.419 3.367 5.932 7.79 12.417 2.765 5.078 10.304.956.453-8.345m-9.902-1.106c-32.87 2.715-25.582-12.919-18.897-10.456 18.747 6.937 22.416 1.709 25.884 3.871l-6.987 6.585zm17.24-4.775l.954-1.157c3.167-3.619-.502-7.691-4.422-4.876-3.016 2.162-4.272 3.469-7.489 4.424l10.957 1.609zm3.417 9.3c3.317 3.619 7.439-1.961 3.619-5.027-4.926-3.922-9.248-4.877-9.248-4.776l5.629 9.803zm-5.528 4.122c4.573 7.239 9.599.754 6.282-3.117-1.658-1.91-2.865-3.72-7.489-6.786l1.207 9.903zm-139.572-43.987s4.774-6.284 1.055-8.195c-3.87-1.96-6.936 3.419-9.047 5.882-2.111 2.514-7.137 4.676-4.975 7.34 2.161 2.664 6.081-1.106 8.996-1.86m18.848 11.311c-9.248 0-14.727-3.016-19.3-12.367l19.3 12.367zm-15.681-15.484c4.674 6.133 9.097 9.652 16.284 7.843l-16.284-7.843z"/><path stroke="#008FDA" stroke-linecap="round" stroke-linejoin="round" stroke-width="2.649" d="M327.125 219.336a59.23 59.23 0 01-4.574 3.82"/><path stroke="#163050" stroke-linecap="round" stroke-linejoin="round" stroke-width="2.329" d="M285.962 139.605c-8.796-12.065 6.031-41.021 25.431-49.216 11.259-4.725 19.15-.1 19.803 10.256m-145.704 31.219c-17.742-21.617 1.206-44.44 29.252-34.537 17.993 6.385 31.06 24.985 23.471 39.111m123.539 21.164c.854 5.68-.251 11.411-2.915 16.338m-247.581-37.803c8.896-38.608 53.025-41.424 60.262-13.724 2.463 9.401-.201 19.908-6.333 28.253m-71.57-12.921c24.225-22.673 24.527 51.779-2.915 72.089m296.433 17.142c-6.333-19.806-3.97-47.607 5.981-63.09 13.269-20.612 31.413-7.692 35.333 22.773"/><path stroke="#163050" stroke-linecap="round" stroke-linejoin="round" stroke-width="2.329" d="M144.581 228.435c-39.454-24.13-28.196-96.018 8.845-79.177 9.55 4.373 17.038 13.573 21.662 24.331"/><path stroke="#163050" stroke-linecap="round" stroke-linejoin="round" stroke-width="2.329" d="M128.95 224.966c-14.324-13.322-21.059-37.905-15.279-56.354 4.975-15.836 14.525-17.545 23.32-20.561m-24.527 44.088c-4.071 14.578-17.59 25.437-17.842 25.588m8.745-83.852c7.891 2.363 16.536 2.715 16.134 23.577m46.239-45.747c3.569 3.821 6.132 6.083 8.142 11.16 3.569 8.999 1.91 19.154-2.915 27.499m10.203-45.295c3.066-5.178 5.428-10.557 14.676-13.322 22.617-6.736 51.567 15.685 46.038 36.296-.704 2.564-3.418 7.843-3.367 7.792m49.355 5.73c-5.277-4.223-9.248-6.133-9.399-14.83-.251-16.59 16.485-38.206 32.317-41.474 7.338-1.508 9.751 1.106 15.581 5.279m49.757 132.012c-6.835-26.493 1.458-62.588 17.943-67.967 2.965-.955 13.319-.653 13.269-.653"/><path stroke="#163050" stroke-linecap="round" stroke-linejoin="round" stroke-width="2.329" d="M292.496 142.118c19.4-20.963 62.624-15.835 69.409 19.807 3.819-39.664-56.744-50.372-73.078-19.907M163.88 228.335c13.973-34.888 75.541-35.24 91.373.05m2.463.451c-6.383-48.964-90.92-49.316-94.891.151m-44.681-84.456c2.915 2.112 5.83 4.424 7.79 7.038m-13.369-21.565c-4.021 1.659-5.378 3.268-5.126 4.977m53.677 17.845c7.439-4.373 11.66-.503 18.697-1.408m2.211-24.078c-.15 4.373 4.222 5.63 8.544 5.63 7.69 0 10.806-3.418 17.642-3.418 10.102 0 27.341 13.271 34.981 3.921"/><path stroke="#163050" stroke-linecap="round" stroke-linejoin="round" stroke-width="2.329" d="M327.577 117.385c-13.319 6.032-11.107 5.027-22.516 4.323-12.616-.804-13.269 6.787-17.943 18.651M121.612 216.42c0 21.517 36.489 15.283 45.284-7.942 2.211-5.782 1.106-20.511 9.198-35.593 1.859-3.468 2.663-5.932 2.814-7.641m-15.43 57.006c-8.494 2.212-6.031 6.988-1.407 6.988 1.056 0 11.711-2.614 19.853-2.614 11.911 0 10.755 2.916 29.754 2.916 14.223 0 19.199-5.982 22.717-5.932 2.664 0 12.967 5.479 21.411 5.479 7.338 0 8.393-6.384.251-9.099m170.482-43.534c9.7-.804 12.465 10.255.452 11.21-14.826 1.207-7.991 31.018-24.275 39.262-11.208 5.681-24.929-5.077-32.066-6.032-3.066-.402-6.031 1.609-8.695 3.066"/><path stroke="#163050" stroke-linecap="round" stroke-linejoin="round" stroke-width="2.329" d="M256.007 219.889c8.142 2.714 7.087 9.099-.251 9.099-8.494 0-18.697-5.48-21.411-5.48-3.518 0-8.544 5.983-22.718 5.983-18.948 0-17.842-2.916-29.753-2.916-13.018 0-24.075 5.681-24.075-.252 0-2.312 3.367-3.519 5.629-4.072m197.421-52.784c7.791 1.206 9.449 7.842 3.016 7.842-4.272 0-9.399-7.49-18.144-7.49-14.626 0-16.184 14.93-45.234-.051M96.331 135.281c-1.86.604-3.166 1.71-3.166 3.67 0 5.781 7.589 6.284 7.589 11.613 0 3.569-7.288 16.036-7.288 22.572 0 8.093 6.383 5.63 6.383 11.11 0 4.273-9.298 13.472-9.298 26.442 0 5.43 3.166 7.893 6.283 7.893 10.806 0 3.87-21.416 18.646-13.573"/><path stroke="#163050" stroke-linecap="round" stroke-linejoin="round" stroke-width="2.329" d="M115.48 204.957c-14.827-7.842-7.84 13.573-18.646 13.573-3.117 0-6.283-2.463-6.283-7.892 0-17.042 14.626-25.136 7.187-30.314-10.705-7.39 3.016-23.628 3.016-29.811 0-5.329-7.59-5.781-7.59-11.613 0-1.96 1.307-3.066 3.167-3.67m202.95 28.203c6.132-13.674-3.518-25.287-12.917-20.209"/><path fill="#fff" d="M134.931 29.611v2.061c-.855.05-1.357.553-1.357 1.358h1.508v3.267h-3.569c0-3.016-.201-4.222.955-5.48.603-.703 1.407-1.105 2.463-1.206zm4.423 0v2.061c-.805.05-1.357.553-1.357 1.358h1.507v3.267h-3.568c0-3.016-.201-4.222.955-5.48.603-.703 1.407-1.105 2.463-1.206zm15.53 1.106h4.523l-3.87 12.517h-3.618l-2.061-5.228-2.01 5.228h-3.619l-3.87-12.517h4.473l1.659 6.133 2.613-6.133h1.508l2.664 6.183 1.608-6.183zm13.52 11.411c-2.111 1.91-6.031 1.96-8.142 0-2.111-1.91-2.111-5.53 0-7.49 2.111-1.91 6.031-1.91 8.142 0 2.111 1.96 2.111 5.58 0 7.49zm-5.277-2.463a1.729 1.729 0 002.412 0c.603-.654.653-1.81 0-2.514-.653-.653-1.809-.653-2.412 0-.654.654-.654 1.86 0 2.514zm18.445-6.083h4.222l-3.016 9.652h-3.216l-1.709-3.82-1.609 3.82h-3.266l-3.117-9.652h4.323l1.005 4.424 2.111-4.424h1.055l2.212 4.524 1.005-4.524zm5.177 9.653v-3.268h3.568v3.268h-3.568zm.05-4.173v-8.697h3.418v8.697h-3.418zm13.62 4.525c-2.965 0-5.227-1.358-5.227-4.324 6.132 0 3.77-.2 4.624.654.302.301.905.301 1.207.05.251-.201.301-.653.1-.905-.854-1.106-5.73-.352-5.73-4.725 0-2.765 2.212-3.972 4.976-3.972 2.815 0 4.926 1.257 4.926 4.072-5.68 0-3.72.151-4.373-.553-.251-.301-.804-.251-1.005-.05a.61.61 0 00-.05.804c.452.604 2.362.704 3.97 1.509 2.965 1.508 2.915 7.44-3.418 7.44z"/><path fill="#fff" d="M215.397 42.33c-1.86 1.658-5.378 1.658-7.237 0-1.709-1.56-1.357-2.967-1.357-8.748h4.02v5.48c0 1.458 1.96 1.458 1.96 0v-5.48h4.021c0 5.53.352 7.189-1.407 8.747zm8.042 1.255a5.172 5.172 0 010-10.306c3.015 0 5.076 1.91 5.327 4.575-5.629 0-3.016.201-4.322-.804-.654-.503-1.609-.403-2.161.15-.604.604-.604 1.91 0 2.514.502.553 1.507.654 2.211.1 1.307-1.055-1.307-.904 4.322-.904-.351 2.815-2.462 4.675-5.377 4.675zm16.535-6.081v5.73h-4.021c0-5.58.101-5.881-.251-6.334-.352-.502-1.156-.402-1.508.05-.402.503-.301.755-.301 6.335h-4.021v-13.12h4.021v3.87c2.513-1.81 6.081-.452 6.081 3.469zm12.766-3.922h3.016v9.652h-3.066l-.302-.603c-1.809 1.458-4.825 1.206-6.483-.503-1.86-1.91-1.86-5.58 0-7.49 1.658-1.66 4.624-1.96 6.483-.453l.352-.603zm-4.222 4.826c0 2.463 3.518 2.463 3.518 0 0-2.413-3.518-2.413-3.518 0zM136.74 65.003a5.172 5.172 0 010-10.306c3.016 0 5.076 1.91 5.328 4.575-5.629 0-3.016.201-4.323-.804-.653-.503-1.608-.403-2.161.15-.603.604-.603 1.91 0 2.514.503.553 1.508.654 2.212.1 1.306-1.055-1.307-.904 4.322-.904-.352 2.815-2.463 4.675-5.378 4.675zm13.319-10.056v3.57c-3.367 0-2.815-.302-2.815 6.133h-4.02v-9.652h2.814l.553 1.005c1.056-1.156 2.362-1.056 3.468-1.056zm10.052 8.648c-2.111 1.91-6.031 1.96-8.142 0-2.111-1.91-2.111-5.53 0-7.49 2.111-1.91 6.031-1.91 8.142 0 2.111 1.91 2.111 5.53 0 7.49zm-5.227-2.514a1.729 1.729 0 002.412 0c.604-.653.654-1.81 0-2.513-.653-.654-1.809-.654-2.412 0-.653.653-.653 1.86 0 2.514zm18.395-6.083h4.222l-3.016 9.652h-3.216l-1.659-3.82-1.658 3.82h-3.217l-3.116-9.652h4.322l1.005 4.424 2.061-4.424h1.055l2.212 4.525 1.005-4.525zm11.51-3.468h3.92v13.12h-2.965l-.302-.704c-1.86 1.61-4.925 1.358-6.584-.352-1.86-1.91-1.86-5.58 0-7.49 1.558-1.609 4.222-1.86 5.931-.804v-3.77zm-2.815 9.601c.653.704 1.86.704 2.513 0 .704-.704.704-1.96 0-2.664-.704-.704-1.86-.704-2.513 0-.704.754-.704 1.96 0 2.664zm18.948-.452h-7.237c.452 1.91 2.714 1.659 3.317.653h3.769c-.703 2.363-2.814 3.67-5.377 3.67-5.529 0-7.087-6.032-3.971-8.898 3.317-3.066 10.354-1.206 9.499 4.575zm-5.528-3.117c-.905 0-1.458.402-1.659 1.257h3.418c-.252-.855-.855-1.257-1.759-1.257zm13.62-6.032h3.92v13.12h-2.965l-.302-.704c-1.859 1.61-4.925 1.358-6.584-.352-1.859-1.91-1.859-5.58 0-7.49 1.558-1.609 4.222-1.86 5.931-.804v-3.77zm-2.865 9.601c.653.704 1.86.704 2.513 0 .704-.704.704-1.96 0-2.664-.704-.704-1.86-.704-2.513 0-.653.754-.653 1.96 0 2.664zm18.094-6.435c6.734 0 6.734 10.306 0 10.306-1.106 0-2.111-.352-2.915-1.056l-.302.704h-2.965V51.53h3.92v3.77c.653-.402 1.457-.604 2.262-.604zm-.704 6.988c2.362 0 2.362-3.67 0-3.67s-2.362 3.67 0 3.67z"/><path fill="#fff" d="M234.496 51.53h-4.021v13.12h4.021V51.53zm10.856 12.065c-2.111 1.91-6.031 1.96-8.142 0-2.111-1.91-2.111-5.53 0-7.49 2.111-1.91 6.031-1.91 8.142 0 2.111 1.91 2.111 5.53 0 7.49zm-5.277-2.514a1.729 1.729 0 002.412 0c.603-.653.653-1.81 0-2.513-.653-.654-1.809-.654-2.412 0-.654.653-.654 1.86 0 2.514zm13.117 3.922a5.172 5.172 0 010-10.306c3.016 0 5.077 1.91 5.328 4.575-5.629 0-3.016.201-4.322-.804-.654-.503-1.609-.403-2.161.15-.604.604-.604 1.91 0 2.514.502.553 1.507.654 2.211.1 1.307-1.055-1.307-.904 4.322-.904-.352 2.815-2.462 4.675-5.378 4.675zm16.938-.353h-4.624l-1.809-3.469v3.47h-4.021V51.528h4.021v6.686l1.809-3.217h4.423l-2.865 4.625 3.066 5.027zm.704 0v-3.267h3.568v3.268h-3.568zm.1-4.172v-8.697h3.418v8.697h-3.418zm5.378-1.709v-2.011c.804-.05 1.357-.553 1.357-1.358h-1.508v-3.267h3.569c0 3.016.201 4.223-.955 5.48-.603.653-1.408 1.055-2.463 1.156zm4.423 0v-2.011c.804-.05 1.357-.553 1.357-1.358h-1.508v-3.267h3.569c0 3.016.201 4.223-.955 5.48-.604.653-1.408 1.055-2.463 1.156z"/><path fill="#163050" d="M238.919 179.167c1.708-7.843-7.942-10.96-9.65-3.117-1.709 7.842 7.941 10.959 9.65 3.117zm15.429 5.478c1.709-7.842-7.941-10.959-9.65-3.117-1.708 7.843 7.941 10.96 9.65 3.117z"/><path fill="#fff" d="M236.607 176.453c.552-3.017-2.815-4.223-3.418-1.257-.553 3.016 2.814 4.273 3.418 1.257zm15.882 5.429c.553-3.016-2.815-4.222-3.418-1.256-.553 3.016 2.865 4.273 3.418 1.256zm-2.765-16.942c-.502-.252-.552-.553-.653-1.508-.905 1.055-1.206.653-2.613.05-3.066-1.408-3.016-1.106 1.105-5.379.603-.654-1.859-5.681.402-5.731.201 0 .252 0 1.458.503 2.061.804 2.161.653 2.262 1.81.854-.956 1.156-.453 4.171.653 2.513.955-2.814 4.072-2.664 4.927 1.257 7.54 1.257 6.786-3.468 4.675zm-8.644-3.972c-.252 0-.151.051-2.614-1.106-1.005-.452-.653-.854 1.005-6.133-1.608-.603-1.759-.854-1.105-2.664.904-2.564.553-2.262 4.825-.603 3.97 1.508 3.468 1.256 2.864 3.318-.552 1.91-.703 2.413-2.412 1.659-.452-.202-1.106 5.479-2.563 5.529 0-.653 0-.653 0 0z"/><path fill="#163050" d="M256.308 154.182c-16.032-6.183-17.691-7.541-18.545-4.826-.604 1.961-1.659 4.022.402 4.876.703.302-3.116 5.43-.201 6.737 5.026 2.312 4.523 1.508 6.282-4.273.704.251 1.407.05 1.96-.403.252 1.559.553.855-2.714 4.173-.955 1.005-.653 2.664.603 3.217 0 0 8.343 3.871 8.947 3.871 1.206 0 2.161-1.106 1.96-2.312-1.005-6.083-1.508-4.173 2.01-7.792 1.056-1.006.654-2.715-.704-3.268zm-10.353-1.659c-.955 3.217-.653 3.067-2.413 2.313-.15-.051-.351 0-.402.201-2.06 6.636-1.005 5.982-4.422 4.424-1.056-.503 2.06-5.731 1.206-6.083-1.86-.704-1.508-.352-.603-3.318.05-.252.351-.402.653-.302 5.83 2.262 6.132 2.162 5.981 2.765zm6.785 7.742c1.106 6.887 1.709 6.234-2.764 4.172-.302-.15-.302-.351-.453-1.86-.1-.754-.904.956-1.457.956-.151 0 0 .05-2.915-1.307-1.408-.654 3.267-3.318 3.066-4.575-.905-6.033-1.458-5.379 2.714-3.821.351.101.301.302.402 1.559.05.754.804-.805 1.307-.855.15 0-.101-.05 3.065 1.156 1.558.654-3.216 3.318-2.965 4.575z"/><path stroke="#FFDA7F" stroke-linecap="round" stroke-linejoin="round" stroke-miterlimit="10" stroke-width="1.747" d="M346.726 109.289l8.796-5.077m23.27-13.423l26.688-15.383-26.688 15.383zm-15.581 8.999l-2.563 1.458 2.563-1.458z"/></svg>