<svg xmlns="http://www.w3.org/2000/svg" width="45" height="45" fill="none"><path fill="#A682FF" d="M0 11.25C0 5.037 5.037 0 11.25 0h22.5C39.963 0 45 5.037 45 11.25v22.5C45 39.963 39.963 45 33.75 45h-22.5C5.037 45 0 39.963 0 33.75v-22.5z"/><path fill="#A682FF" d="M21.26 18.98l.292-4.99h6.454l-1.285 4.99h2.278l-5.46 7.91.203-7.91h-2.483z"/><path stroke="#fff" stroke-linecap="round" stroke-linejoin="round" stroke-width="2" d="M25.13 30.33c5.937 0 10.75-4.813 10.75-10.75S31.065 8.83 25.13 8.83c-5.938 0-10.75 4.813-10.75 10.75M6.5 34.605l5.59-5.59-3.01-3.01 10.32-1.29-.86 10.75-2.365-2.365m5.377-19.11l-.293 4.99h2.483l-.204 7.91L29 18.98h-2.278l1.285-4.99h-6.454z"/></svg>