<svg xmlns="http://www.w3.org/2000/svg" fill="none" viewBox="0 0 21 24"><path fill="#163150" fill-rule="evenodd" d="M7.13 6.77V3.293L3.466 6.77H7.13zm.991 1.972H1.985v10.645h7.194v-5.874c0-1.497 1.612-2.449 2.935-1.732l3.765 2.041V1.972H9.114v5.784a.99.99 0 01-.993.986zm9.743 6.156V.986A1 1 0 0016.87 0H8.12a.996.996 0 00-.685.273l-7.13 6.77A.983.983 0 000 7.756v12.617a.99.99 0 00.992.986H9.18v.666c0 1.497 1.612 2.448 2.935 1.731l7.852-4.256c1.379-.747 1.379-2.715 0-3.463l-2.102-1.14zm-6.7 7.127l7.851-4.256-7.852-4.256v8.512z" clip-rule="evenodd"/></svg>