<svg xmlns="http://www.w3.org/2000/svg" fill="none" viewBox="0 0 21 18"><path fill="#fff" d="M19.613.671a1.613 1.613 0 00-1.184-.492H1.675C1.215.179.82.343.492.67A1.613 1.613 0 000 1.854v11.393c0 .46.164.855.492 1.183.328.328.723.492 1.183.492h5.697c0 .265-.056.538-.168.817a7.41 7.41 0 01-.335.733c-.111.21-.167.363-.167.46 0 .182.066.34.199.472.132.133.29.199.47.199h5.362a.644.644 0 00.471-.2.64.64 0 00.2-.47c0-.091-.057-.243-.168-.456a7.702 7.702 0 01-.335-.743 2.208 2.208 0 01-.168-.812h5.697c.46 0 .855-.164 1.183-.492.328-.328.492-.722.492-1.183V1.854c0-.46-.164-.855-.492-1.183zm-.848 9.895c0 .091-.034.17-.1.236a.322.322 0 01-.236.1H1.675a.322.322 0 01-.235-.1.323.323 0 01-.1-.236V1.854c0-.09.033-.17.1-.235a.323.323 0 01.235-.1H18.43a.32.32 0 01.235.1c.066.066.1.144.1.235v8.712z"/></svg>