<svg xmlns="http://www.w3.org/2000/svg" fill="none" viewBox="0 0 21 24"><path fill="#55B6E2" d="M8.293 10.049c-.39.065-.7.227-.927.488a1.299 1.299 0 000 1.756c.228.26.52.39.878.39s.65-.13.878-.39a1.3 1.3 0 000-1.756 1.458 1.458 0 00-.83-.488zm4.39 0c-.325 0-.602.065-.83.195-.227.13-.406.325-.536.585-.13.26-.162.52-.098.78.066.26.18.489.342.684.163.195.374.325.634.39s.52.049.78-.049c.26-.097.472-.26.635-.488.162-.227.244-.504.244-.829a1.3 1.3 0 00-.342-.878 1.063 1.063 0 00-.83-.39zM18.439 0h-16c-.715.065-1.3.341-1.756.83C.228 1.316 0 1.918 0 2.633v16.098c0 .715.244 1.3.732 1.756a2.423 2.423 0 001.707.683H16l-.683-2.244L20.878 24V2.634c0-.715-.228-1.317-.683-1.805C19.74.341 19.155.065 18.44 0zm-4.585 15.707l-.78-.975c.91-.26 1.625-.748 2.146-1.464-.456.26-.944.504-1.464.732a9 9 0 01-1.658.537c-1.041.13-2.082.097-3.122-.098A5.676 5.676 0 017.317 14a15.325 15.325 0 01-1.463-.732c.52.716 1.235 1.171 2.146 1.366l-.78 1.073c-.846-.065-1.561-.26-2.147-.585a3.692 3.692 0 01-1.17-.78l-.39-.488a16.49 16.49 0 011.755-7.025 5.168 5.168 0 013.317-1.17l.098.097c-1.106.26-2.146.78-3.122 1.561l.683-.39a8.433 8.433 0 012.732-.683h.195a10.36 10.36 0 012.439-.098c1.3.195 2.504.586 3.61 1.171a9.118 9.118 0 00-2.927-1.56l.097-.196c1.301.065 2.44.488 3.415 1.268a15.5 15.5 0 011.658 7.025c-.13.26-.39.553-.78.878-.78.585-1.724.91-2.83.975z"/></svg>