<svg xmlns="http://www.w3.org/2000/svg" fill="none" viewBox="0 0 16 16"><g clip-path="url(#clip0)"><path d="M1.254 10.248c.005-.018.02-.03.025-.049.014-.036.037-.068.055-.103a.888.888 0 01.133-.205c.005-.007.007-.016.013-.022l8.342-8.538c.02-.02.045-.026.065-.044.018-.021.025-.049.046-.069C10.71.42 11.677-.02 12.657-.02h.001c.876 0 1.677.349 2.32 1.007.59.603.9 1.335.899 2.12 0 .97-.467 1.956-1.346 2.85-.018.018-.042.025-.061.04-.02.026-.029.056-.051.08L5.887 14.72c-.024.024-.055.034-.08.055a.828.828 0 01-.104.068.831.831 0 01-.206.094c-.019.005-.032.018-.05.023l-4.49 1a.88.88 0 01-.843-.272.924.924 0 01-.2-.88l1.34-4.559zm3.57 2.984l8.34-8.453c.02-.018.043-.025.063-.041.018-.024.027-.052.048-.074.521-.53.82-1.099.821-1.561 0-.298-.123-.568-.377-.829-.307-.313-.664-.473-1.06-.473h-.002c-.494 0-1.027.256-1.462.704-.02.02-.047.029-.07.047-.016.022-.024.048-.043.067L2.893 11l-.837 2.849 2.768-.617z" clip-rule="evenodd"/></g><defs><clipPath id="clip0"><path fill="#fff" d="M0 0h16v16H0V0z"/></clipPath></defs></svg>