<svg xmlns="http://www.w3.org/2000/svg" fill="none" viewBox="0 0 24 24"><path fill="#55B6E2" d="M22.969 0H1.03C.72 0 .47.094.281.281.094.47 0 .72 0 1.031V22.97c0 .312.094.562.281.75.188.187.438.281.75.281h11.813V14.72H9.656v-3.656h3.188V8.437c0-1.562.422-2.75 1.265-3.562.844-.813 1.954-1.219 3.329-1.219 1.187 0 2.125.031 2.812.094v3.281h-1.875c-.688 0-1.156.14-1.406.422-.25.281-.375.734-.375 1.36v2.25h3.562l-.468 3.656h-3.094V24h6.375c.312 0 .562-.094.75-.281.187-.188.281-.438.281-.75V1.03c0-.312-.094-.562-.281-.75-.189-.186-.439-.28-.75-.28z"/></svg>