<svg xmlns="http://www.w3.org/2000/svg" fill="none" viewBox="0 0 25 25"><path fill="#163150" fill-rule="evenodd" d="M7.332.497a1 1 0 000 2h5v1.5h-1a3 3 0 00-3 3 8 8 0 00-8 8v.5a1 1 0 001 1h5a1 1 0 001-1v-.1a1.4 1.4 0 011.4-1.4h13.6v2a1 1 0 102 0v-9.5a1 1 0 10-2 0v.5h-4a3 3 0 00-3-3h-1v-1.5h5a1 1 0 100-2h-12zm15 8.5v3h-13.6a3.401 3.401 0 00-3.28 2.5h-3.1a6 6 0 015.98-5.5h1a1 1 0 001-1v-1a1 1 0 011-1h4a1 1 0 011 1v1a1 1 0 001 1h5zm-20 12a1.5 1.5 0 113 0 1.5 1.5 0 01-3 0zm1.5-3.5a3.5 3.5 0 100 7 3.5 3.5 0 000-7z" clip-rule="evenodd"/></svg>