<svg xmlns="http://www.w3.org/2000/svg" viewBox="0 0 76 76"><g fill="none" fill-rule="evenodd"><g fill-rule="nonzero" stroke="#163150" stroke-linecap="round" stroke-linejoin="round" stroke-width="2.222"><path fill="#CFDBEE" d="M44 13.328v19.585c-.005 3.821-2.917 6.997-6.688 7.295H23L13.308 50v-9.792H9.237C5.244 40.198 2.009 36.93 2 32.896V13.312C2.009 9.277 5.244 6.009 9.237 6h27.461c3.994.009 7.229 3.277 7.237 7.312l.065.016z"/><path fill="#FFF" d="M60 26.225v27.396c0 4.103-3.21 7.429-7.168 7.429H32.8L23.2 71v-9.95h-4.032c-3.955-.009-7.16-3.33-7.168-7.43v-19.9c.009-4.098 3.213-7.42 7.168-7.428h17.04L60 26.225z"/></g><path stroke="#B6BFC7" stroke-linecap="round" stroke-linejoin="round" stroke-width="1.699" d="M49.5 53L19 52.5M37 34H19m18 6.5H19m32.5 6H19" opacity=".4"/><path fill="#1EB8E7" fill-rule="nonzero" stroke="#163150" stroke-width="3" d="M51.5 49c3.456 0 5.316-.689 5.848-3.186l4.12-20.149c.266-1.377.532-2.755.532-4.047V11.63C62 7.24 58.146 5 51.5 5S41 7.239 41 11.63v9.988c0 1.292.266 2.67.532 4.047l4.12 20.15C46.184 48.31 48.044 49 51.5 49zm0 22c4.665 0 8.5-3.835 8.5-8.5S56.165 54 51.5 54 43 57.835 43 62.5s3.835 8.5 8.5 8.5z"/><path stroke="#B6BFC7" stroke-linecap="round" stroke-linejoin="round" stroke-width="1.699" d="M66.5 22L65 38m1.5-26v5" opacity=".4"/></g></svg>