<svg xmlns="http://www.w3.org/2000/svg" fill="none" viewBox="0 0 25 24"><path fill="#55B6E2" d="M12.272 0c-2.237 0-4.299.56-6.184 1.678C4.202 2.796 2.716 4.282 1.63 6.136.543 7.989 0 10.035 0 12.272c0 1.79.352 3.467 1.055 5.033a12.083 12.083 0 002.972 4.075 12.952 12.952 0 004.314 2.588c.32.064.543.032.671-.096s.192-.32.192-.575v-2.013c-.767.128-1.422.143-1.966.048-.543-.096-.974-.272-1.294-.528-.32-.255-.543-.543-.671-.863l-.192-.383a6.314 6.314 0 00-.575-.959 6.25 6.25 0 00-.575-.67l-.288-.097c-.447-.32-.591-.527-.431-.623.16-.096.335-.144.527-.144.383 0 .72.096 1.007.288.287.192.527.415.719.671l.191.288c.448.83 1.087 1.278 1.918 1.342.511.064 1.086-.032 1.726-.288.064-.767.32-1.31.767-1.63-1.662-.191-2.94-.67-3.835-1.438-1.215-.958-1.822-2.524-1.822-4.697 0-1.343.448-2.43 1.342-3.26-.383-1.023-.351-2.11.096-3.26h.288c.32 0 .703.096 1.15.288.576.192 1.215.511 1.918.959a12.607 12.607 0 013.068-.384c1.022 0 2.045.128 3.067.384.96-.64 1.822-1.055 2.59-1.247.383-.064.638-.064.766 0 .32.703.447 1.406.384 2.11-.064.447-.16.83-.288 1.15.895.959 1.342 2.045 1.342 3.26 0 2.173-.607 3.738-1.821 4.697-.895.703-2.174 1.15-3.835 1.343.511.447.767 1.214.767 2.3v3.356c0 .192.08.351.24.48.16.127.399.16.718.095a11.734 11.734 0 004.315-2.492 12.083 12.083 0 002.972-4.075c.703-1.566 1.054-3.244 1.054-5.033 0-2.237-.543-4.283-1.63-6.136-1.086-1.854-2.572-3.34-4.458-4.458C16.57.559 14.51 0 12.272 0z"/></svg>