<svg xmlns="http://www.w3.org/2000/svg" viewBox="0 0 1447.32 1447.32"><path fill="#303b72" d="M1447.32 741.5c-1.42 20.34-1.92 40.81-4.41 61-26.4 214.4-126.4 386.2-301.94 512-131.13 94-279.13 137.87-440.33 132.29-186.41-6.41-347.12-75.79-481.88-204.79-1.24-1.19-1.21-5.94 0-7.21q252.12-252.52 504.71-504.53a22.69 22.69 0 0114.53-5.94q354.69-.44 709.37-.25zM741.26 0c19.88 1.51 39.8 2.39 59.61 4.53q174 18.86 320.5 114.88a22.33 22.33 0 011.9 1.6l-61.74 61.61c-13.44 13.41-26.79 26.91-40.39 40.15a6.27 6.27 0 01-5.85.51q-147.49-84.85-317.52-78.05c-253.61 10.22-474.7 189.83-535.51 436.12-37.64 152.6-16.7 297.57 60.81 434.4.74 1.3.78 4.17-.11 5q-50.47 50.84-101.29 101.42c-.33.33-.74.6-1.51 1.22-3.19-4.94-6.4-9.72-9.42-14.6C27.15 973.67-9.75 826.81 2.19 668.29 27.08 338.76 272.36 68.79 598.74 11.46c33-5.79 66.75-7.26 100.14-10.73L705.7 0zm366.85 436.82a130.15 130.15 0 1138.22 92.38 130.45 130.45 0 01-38.22-92.38z"/></svg>