<svg xmlns="http://www.w3.org/2000/svg" width="194" height="174" fill="none" viewBox="0 0 103 73"><rect width="99" height="69" x="2.281" y="2" fill="#077493" stroke="#005268" stroke-width="3" rx="10"/><mask id="a" style="mask-type:alpha" width="97" height="67" x="3" y="3" maskUnits="userSpaceOnUse"><rect width="95.866" height="65.983" x="3.762" y="3.518" fill="#1EB8E7" rx="8.5"/></mask><g mask="url(#a)"><path fill="#1EB8E7" fill-rule="evenodd" d="M-.106 33.4a3.5 3.5 0 00-3.5 3.5v17.9a3.488 3.488 0 00-.964 2.414v18.145a3.5 3.5 0 003.5 3.5h18.43a3.5 3.5 0 003.5-3.5v-2.054h13.057a3.5 3.5 0 003.5-3.5v-8.061h9.978a3.5 3.5 0 003.5-3.5V42.75a3.5 3.5 0 00-3.5-3.5H31.903a3.5 3.5 0 00-3.5 3.5v5.5H25.78V36.9a3.5 3.5 0 00-3.5-3.5H-.106zm28.51 17.85H25.78v10.054a3.5 3.5 0 01-3.5 3.5h-1.42v5.5h13.057a.5.5 0 00.5-.5v-8.06h-2.515a3.5 3.5 0 01-3.5-3.5V51.25zm6.014 7.494h-2.515a.5.5 0 01-.5-.5V51.25h2.515a.5.5 0 01.5.5v6.993zm3 0V51.75a3.5 3.5 0 00-3.5-3.5h-2.515v-5.5a.5.5 0 01.5-.5h15.493a.5.5 0 01.5.5v15.493a.5.5 0 01-.5.5h-9.978zM22.78 36.9v11.35h-7.87a3.5 3.5 0 00-3.5 3.5v1.964H-.606V36.9a.5.5 0 01.5-.5H22.28a.5.5 0 01.5.5zm-8.37 14.85v1.964h2.951a3.5 3.5 0 013.5 3.5v4.59h1.419a.5.5 0 00.5-.5V51.251h-7.87a.5.5 0 00-.5.5zM-.606 56.715H11.41v5.09H-.106a.5.5 0 01-.5-.5v-4.59zm15.016 0v5.09h3.451v-4.59a.5.5 0 00-.5-.5H14.41zm3.451 8.09H14.41v5a.5.5 0 00.5.5h2.951v-5.5zm-6.451 5v-5H-.106a3.475 3.475 0 01-1.464-.32V75.36a.5.5 0 00.5.5h18.43a.5.5 0 00.5-.5v-2.054h-2.95a3.5 3.5 0 01-3.5-3.5z" clip-rule="evenodd"/></g><rect width="21" height="20" x="11.281" y="29.751" fill="#FFD166" rx="4"/><path fill="#F8A248" fill-rule="evenodd" d="M11.28 35.751h6v3h-6v2h6v3h-6v2h6.171a3.001 3.001 0 002.83 2h3a3.001 3.001 0 002.83-2h6.17v-2h-6v-3h6v-2h-6v-3h6v-2h-6.17a3.001 3.001 0 00-2.83-2h-3a3.001 3.001 0 00-2.83 2h-6.17v2zm9-2a1 1 0 00-1 1v10a1 1 0 001 1h3a1 1 0 001-1v-10a1 1 0 00-1-1h-3z" clip-rule="evenodd"/><path fill="#fff" d="M48.287 8.314h3v2.227h2.227v3h-2.227v2.228h-3V13.54H46.06v-3h2.227V8.314z"/><path fill="#fff" fill-rule="evenodd" d="M23.355 10.48h4.488c1.438 0 2.682.456 3.571 1.277.893.824 1.393 1.986 1.393 3.323 0 1.784-1.037 2.954-1.857 3.526l2.67 3.96h-3.865l-2.017-3.026h-1.122v3.026h-3.261V10.48zm4.698 3.093h-1.437v2.874h1.437c.82 0 1.373-.634 1.373-1.437s-.552-1.437-1.373-1.437z" clip-rule="evenodd"/><path fill="#fff" d="M37.963 10.48h-3.262v12.086h3.262V10.48zm-21.855 3.341a3.1 3.1 0 013.38.886l2.352-2.02c-1.654-1.926-4.403-2.647-6.79-1.78-2.388.868-4.033 3.186-4.065 5.726a6.174 6.174 0 001.052 3.523c1.419 2.107 4.065 3.144 6.537 2.561a6.173 6.173 0 003.165-1.871l-.005-4.642h-3.3v3.3a3.105 3.105 0 01-2.397.066 3.1 3.1 0 01-1.952-2.899 3.1 3.1 0 012.023-2.85zm28.556-3.274v2.984H43.33v6.107h1.896c1.484 0 2.721-1.012 2.996-2.408h3.033a6.038 6.038 0 01-6.003 5.392h-5.005V10.547h4.417z"/><path fill="#1EB8E7" d="M83.022 59.285h9.685v3.006h-9.685v-3.006zm-11.729 0h9.685v3.006h-9.685v-3.006z"/></svg>