<svg xmlns="http://www.w3.org/2000/svg" viewBox="0 0 24 24"><path fill-rule="evenodd" d="M9.075 3a3 3 0 013-3H21a3 3 0 013 3v11c0 .754-.842 1.242-1.496.868L19.234 13H17v5a3 3 0 01-3 3H6.584L1.49 23.871c-.654.37-1.491-.12-1.491-.87V7a3 3 0 013-3h6.075V3zM19.5 11H17V7a3 3 0 00-3-3h-2.925V3a1 1 0 011-1H21a1 1 0 011 1v9.277l-2.004-1.145A1 1 0 0019.5 11zM3 6h11a1 1 0 011 1v11a1 1 0 01-1 1H6.321a1 1 0 00-.49.129L2 21.289V7a1 1 0 011-1zm4.36 4.786c-.657 1.11-2.378.09-1.72-1.02.686-1.157 1.942-1.745 3.101-1.765 1.911-.034 3.54 1.75 2.978 3.654-.335 1.132-1.437 1.56-2.018 2.505-.674 1.1-2.379.053-1.704-1.046.45-.733 2.056-1.598 1.758-2.535-.342-1.079-1.98-.493-2.395.207zm.336 5.496a1 1 0 011-1h.028a1 1 0 110 2h-.028a1 1 0 01-1-1z" clip-rule="evenodd"/></svg>