<svg xmlns="http://www.w3.org/2000/svg" fill="none" viewBox="0 0 30 30"><path fill="#B5BFC7" d="M0 7.5A7.5 7.5 0 017.5 0h15A7.5 7.5 0 0130 7.5v15a7.5 7.5 0 01-7.5 7.5h-15A7.5 7.5 0 010 22.5v-15z"/><path fill="#B5BFC7" d="M14.173 12.653l.195-3.327h4.303l-.857 3.327h1.52l-3.642 5.273.136-5.273h-1.655z"/><path stroke="#fff" stroke-linecap="round" stroke-linejoin="round" stroke-width="1.333" d="M16.753 20.22a7.167 7.167 0 10-7.167-7.167M4.333 23.07l3.727-3.727-2.007-2.006 6.88-.86-.573 7.166-1.576-1.576m3.584-12.74l-.195 3.326h1.655l-.136 5.273 3.641-5.273h-1.519l.857-3.327h-4.303z"/></svg>