<svg xmlns="http://www.w3.org/2000/svg" width="60" height="60" fill="none"><path fill="#D8D8D8" stroke="#163050" stroke-linecap="round" stroke-linejoin="round" stroke-miterlimit="10" stroke-width="2" d="M37.129 51.463V55H22.544v-3.537c1.792 0 1.292-1.958 1.875-5.542h10.835c.583 3.834.083 5.542 1.875 5.542z"/><path fill="#05D5FC" stroke="#163050" stroke-linecap="round" stroke-linejoin="round" stroke-miterlimit="10" stroke-width="2" d="M56.714 11.834v31.462a3.824 3.824 0 01-3.834 3.833H6.834A3.824 3.824 0 013 43.296V11.834A3.824 3.824 0 016.834 8H52.88a3.824 3.824 0 013.833 3.834z"/><path fill="#fff" d="M9.45 32.2l4.6 9c1.4 2.6 5 2.9 6.8.5l7.8-10.7 4.2 3.4c1.6 1.3 3.9.8 4.9-1l6.2-11.8 6.5 2.9-4.4-13.5-13.8 4.1 5.8 3.6-4 4.5c-1 1.1-2.7 1.2-3.7.2l-2.2-2c-1.4-1.3-3.5-1.6-5.3-.7l-11.6 6.1c-2.1 1-2.8 3.4-1.8 5.4z"/><path fill="#E3EDFF" d="M34.45 29l-9-3-15 8 3.6 7.2c1.3 2.6 5 2.9 6.8.5l7.8-10.7 4.2 3.4c1.6 1.3 3.9.8 4.9-1l6.2-11.8-9.5 7.4z" opacity=".6"/><path stroke="#163150" stroke-linecap="round" stroke-linejoin="round" stroke-miterlimit="10" stroke-width="2" d="M9.45 32.2l4.6 9c1.4 2.6 5 2.9 6.8.5l7.8-10.7 4.2 3.4c1.6 1.3 3.9.8 4.9-1l6.2-11.8 6.5 2.9-4.4-13.5-13.8 4.1 5.8 3.6-4 4.5c-1 1.1-2.7 1.2-3.7.2l-2.2-2c-1.4-1.3-3.5-1.6-5.3-.7l-11.6 6.1c-2.1 1-2.8 3.4-1.8 5.4z"/><path fill="#D8D8D8" stroke="#163050" stroke-linecap="round" stroke-linejoin="round" stroke-miterlimit="10" stroke-width="2" d="M56.714 40.92v2.417a3.824 3.824 0 01-3.834 3.834H6.834A3.824 3.824 0 013 43.337V40.92h53.714z"/><path stroke="#163050" stroke-linecap="round" stroke-linejoin="round" stroke-miterlimit="10" stroke-width="2" d="M23.143 51.643H36.57"/><path stroke="#B5BFC7" stroke-linecap="round" stroke-linejoin="round" stroke-miterlimit="10" stroke-width="2" d="M45 4H24m-6 0h2-2zm0 47h-5" opacity=".4"/><path fill="#E3EDFF" stroke="#163150" stroke-linecap="round" stroke-linejoin="round" stroke-miterlimit="10" stroke-width="2" d="M33.233 48.402c-4.37-2.614-5.76-8.267-3.174-12.59.241-.423.556-.867.865-1.19 2.85-3.362 7.799-4.282 11.771-1.957 3.9 2.346 5.458 7.16 3.804 11.265-.194.45-.388.901-.63 1.324-2.633 4.296-8.24 5.714-12.636 3.148z"/><path fill="#003C77" d="M33.233 48.402c-4.37-2.614-5.76-8.267-3.174-12.59.241-.423.556-.867.865-1.19a11.757 11.757 0 019.989.954c3.173 1.87 5.064 5.004 5.586 8.354-.194.45-.388.901-.63 1.325-2.633 4.295-8.24 5.713-12.636 3.147z" opacity=".2"/><path fill="#E3EDFF" d="M53.102 50.136l-18.953.16.038 4.434 18.952-.16-.037-4.434z"/><path fill="#FFD166" d="M55.236 46.316l-18.953.16.038 4.434 18.952-.16-.037-4.434zm-4.911-4.393l-18.953.16.037 4.434 18.953-.16-.038-4.434z"/><path fill="#003C77" d="M43.896 50.213l-9.747.082.038 4.434 9.747-.082-.038-4.434z" opacity=".2"/><path fill="#FA0" d="M46.03 46.394l-9.747.082.038 4.434 9.746-.082-.037-4.434zM41.119 42l-9.747.083.037 4.434 9.747-.082L41.12 42z"/><path stroke="#163150" stroke-linecap="round" stroke-linejoin="round" stroke-miterlimit="10" stroke-width="2" d="M52.87 54.889l-18.952.16-.037-4.435 18.952-.16.038 4.435zm2.092-8.887l-18.953.16.038 4.434 18.952-.16-.037-4.434zm-4.911-4.394l-18.952.16.037 4.434 18.952-.16-.037-4.434z"/><path fill="url(#paint0_radial)" stroke="#163150" stroke-linecap="round" stroke-linejoin="round" stroke-miterlimit="10" stroke-width="2" d="M26.088 51.106A9.422 9.422 0 1041.949 40.93a9.422 9.422 0 00-15.861 10.176z"/><path fill="#FFC835" stroke="#FFAE25" stroke-linecap="round" stroke-linejoin="round" stroke-miterlimit="10" stroke-width="2" d="M31.98 40.635c4.537-1.753 9.076 2.413 7.822 7.078l-5.5-1.554 2.672 5.169c-3.08 1.718-7.05.342-8.388-3.047-1.178-3.04.354-6.468 3.394-7.646z"/><defs><radialGradient id="paint0_radial" cx="0" cy="0" r="1" gradientTransform="rotate(90.31 -1.656 36.823) scale(7.68607)" gradientUnits="userSpaceOnUse"><stop offset=".065" stop-color="#FFEA80"/><stop offset=".109" stop-color="#FFE77D"/><stop offset=".469" stop-color="#FFD76C"/><stop offset=".735" stop-color="#FFD166"/></radialGradient></defs></svg>