<svg xmlns="http://www.w3.org/2000/svg" fill="none" viewBox="0 0 26 26"><path fill="#1EB8E7" fill-rule="evenodd" stroke="#163150" stroke-linecap="round" stroke-linejoin="round" stroke-width="1.371" d="M10.807 21.151H3.95c-1.515 0-2.743-1.211-2.743-2.705V4.24c0-1.495 1.228-2.706 2.743-2.706h7.467a3.638 3.638 0 012.613 1.089l1.947 1.989a3.54 3.54 0 011.015 2.476V9.65l-6.171 3.383-.014 8.117z" clip-rule="evenodd"/><path fill="#163150" fill-rule="evenodd" stroke="#163150" stroke-linecap="round" stroke-linejoin="round" stroke-width="1.371" d="M14.133 2.738l1.72 1.759a.67.67 0 01.142.737.686.686 0 01-.635.413h-2.407V3.21a.676.676 0 01.427-.63.692.692 0 01.753.157z" clip-rule="evenodd"/><path fill="#007FC6" fill-rule="evenodd" d="M3.06 6.797a1.903 1.903 0 01-.652-1.488 1.815 1.815 0 01.652-1.475 2.497 2.497 0 011.68-.555 2.497 2.497 0 011.68.555c.434.364.675.906.651 1.468A1.902 1.902 0 016.42 6.79c-.472.383-1.07.58-1.68.555a2.498 2.498 0 01-1.68-.548zm.891-1.488a.672.672 0 00.22.54.816.816 0 00.562.197.81.81 0 00.576-.196.705.705 0 00.212-.541.672.672 0 00-.212-.521.922.922 0 00-1.139 0 .673.673 0 00-.24.52h.021zm.117 5.215l.946.643 5.465-7.211-.926-.677-5.485 7.245zm4.1.088a1.903 1.903 0 01-.651-1.495 1.816 1.816 0 01.651-1.468 2.47 2.47 0 011.68-.555 2.47 2.47 0 011.68.555c.435.364.675.906.652 1.468.019.57-.22 1.117-.652 1.495a2.47 2.47 0 01-1.68.555 2.47 2.47 0 01-1.7-.562l.02.007zm1.111-.947a.672.672 0 01-.22-.548h-.013a.672.672 0 01.233-.52.922.922 0 011.138 0 .672.672 0 01.213.52.712.712 0 01-.213.548.81.81 0 01-.576.196.816.816 0 01-.562-.196z" clip-rule="evenodd" opacity=".7"/><path fill="url(#paint0_radial)" fill-rule="evenodd" d="M5.769 16.808c.005 2.904 1.699 5.546 4.355 6.795a7.73 7.73 0 008.093-.94 7.486 7.486 0 002.637-7.607l-7.405 1.435 3.874-6.15a7.73 7.73 0 00-7.693-.087 7.519 7.519 0 00-3.868 6.561l.007-.007z" clip-rule="evenodd"/><path fill="#FFC835" fill-rule="evenodd" stroke="#FFAE25" stroke-linecap="round" stroke-linejoin="round" stroke-width="1.097" d="M18.712 15.47c.653 2.499-.575 5.105-2.932 6.225-2.358 1.12-5.188.44-6.762-1.62a5.356 5.356 0 01.289-6.86 5.539 5.539 0 016.875-1.06l-2.914 4.173 5.444-.859z" clip-rule="evenodd"/><path stroke="#163150" stroke-linecap="round" stroke-linejoin="round" stroke-width="1.371" d="M5.769 16.808c.005 2.904 1.699 5.546 4.355 6.795a7.73 7.73 0 008.093-.94 7.486 7.486 0 002.637-7.607l-7.405 1.435 3.874-6.15a7.73 7.73 0 00-7.693-.087 7.519 7.519 0 00-3.868 6.561l.007-.007z" clip-rule="evenodd"/><path fill="url(#paint1_radial)" fill-rule="evenodd" d="M25.001 12.324a7.551 7.551 0 00-3.517-4.736l-3.875 6.15 7.392-1.414z" clip-rule="evenodd"/><path fill="#FFC835" fill-rule="evenodd" stroke="#FFAE25" stroke-linecap="round" stroke-linejoin="round" stroke-width="1.097" d="M22.842 12.757a5.42 5.42 0 00-2.53-3.315l-1.996 3.72 4.526-.405z" clip-rule="evenodd"/><path stroke="#163150" stroke-linecap="round" stroke-linejoin="round" stroke-width="1.371" d="M25.001 12.324a7.551 7.551 0 00-3.517-4.736l-3.875 6.15 7.392-1.414z" clip-rule="evenodd"/><defs><radialGradient id="paint0_radial" cx="0" cy="0" r="1" gradientTransform="matrix(7.64571 0 0 7.5289 13.414 16.808)" gradientUnits="userSpaceOnUse"><stop offset=".06" stop-color="#FFEA80"/><stop offset=".11" stop-color="#FFE77D"/><stop offset=".47" stop-color="#FFD76C"/><stop offset=".73" stop-color="#FFD166"/></radialGradient><radialGradient id="paint1_radial" cx="0" cy="0" r="1" gradientTransform="matrix(3.42171 0 0 2.84639 21.271 10.7)" gradientUnits="userSpaceOnUse"><stop offset=".06" stop-color="#FFEA80"/><stop offset=".11" stop-color="#FFE77D"/><stop offset=".47" stop-color="#FFD76C"/><stop offset=".73" stop-color="#FFD166"/></radialGradient></defs></svg>