<svg xmlns="http://www.w3.org/2000/svg" width="60" height="60" fill="none"><path stroke="#B5BFC7" stroke-linecap="round" stroke-linejoin="round" stroke-miterlimit="10" stroke-width="2" d="M44.573 11.074c.292.435.565.881.818 1.338m-9.793-8.353c1.129.41 2.194.92 3.188 1.515L35.598 4.06zM15.5 9.264C19.117 5.154 24.446 2.83 30 3.01L15.5 9.264zM4.831 22.618a25.92 25.92 0 01.128-3.178M52.787 7.402a26.028 26.028 0 00-3.127-3.776l3.127 3.776zm-43.292-.25a26.361 26.361 0 00-3.838 8.39l3.838-8.39z" opacity=".4"/><path fill="#E3EDFF" stroke="#163150" stroke-linecap="round" stroke-linejoin="round" stroke-miterlimit="10" stroke-width="2" d="M24.841 33.702c-6.884-2.48-10.407-10.07-7.952-16.88.223-.664.545-1.377.891-1.918 3.092-5.529 9.818-8.193 16.063-6.01 6.147 2.232 9.674 8.591 8.475 14.84-.15.688-.299 1.377-.522 2.04-2.53 6.786-10.045 10.334-16.954 7.928z"/><path fill="#003C77" d="M24.841 33.702c-6.884-2.48-10.407-10.07-7.952-16.88.223-.664.545-1.377.891-1.918 4.216-2.523 9.435-3.149 14.353-1.412 4.99 1.76 8.524 5.659 10.185 10.241-.15.689-.299 1.378-.522 2.041-2.53 6.786-10.045 10.334-16.955 7.928z" opacity=".2"/><path fill="#E3EDFF" d="M53.344 30.663L26.656 36.12l1.277 6.244 26.688-5.457-1.277-6.244z"/><path fill="#FFD166" d="M55.299 24.686L28.61 30.143l1.277 6.245 26.688-5.457-1.277-6.245z"/><path fill="#FFD166" d="M47.16 19.845l-26.687 5.457 1.277 6.245 26.687-5.457-1.277-6.245z"/><path fill="#003C77" d="M40.381 33.313l-13.725 2.806 1.277 6.245 13.725-2.807-1.277-6.244z" opacity=".2"/><path fill="#FA0" d="M42.336 27.337l-13.725 2.806 1.277 6.245 13.725-2.807-1.277-6.244z"/><path fill="#FA0" d="M34.198 22.496l-13.725 2.806 1.277 6.245 13.724-2.807-1.276-6.244z"/><path stroke="#163150" stroke-linecap="round" stroke-linejoin="round" stroke-miterlimit="10" stroke-width="2" d="M54.33 37.43l-26.687 5.458-1.277-6.245 26.688-5.457 1.277 6.245zm.497-13.112l-26.688 5.457 1.277 6.245 26.688-5.457-1.277-6.245zm-8.14-4.84L20 24.933l1.277 6.244 26.687-5.457-1.276-6.244z"/><path fill="url(#paint0_radial)" stroke="#163150" stroke-linecap="round" stroke-linejoin="round" stroke-miterlimit="10" stroke-width="2" d="M15.125 37.524c5.173 5.402 13.745 5.588 19.147.416 5.402-5.173 5.588-13.745.416-19.147-5.173-5.402-13.745-5.588-19.147-.416-5.402 5.173-5.588 13.745-.416 19.147z"/><path fill="#FFC835" stroke="#FFAE25" stroke-linecap="round" stroke-linejoin="round" stroke-miterlimit="10" stroke-width="2" d="M20.546 21.128c5.916-3.725 13.467.898 12.986 7.823l-8.187-.673 5.197 6.553c-3.87 3.274-9.85 2.429-12.673-1.981-2.5-3.963-1.286-9.22 2.677-11.722z"/><path fill="#fff" d="M32.449 38.876H5V51.55h6.213a5 5 0 011.373.193l13.61 3.888a5 5 0 003.573-.318l24.624-12.07a3.349 3.349 0 00-2.702-6.124l-13.535 5.333a2.474 2.474 0 01-3.307-1.702 2.474 2.474 0 00-2.4-1.874z"/><path stroke="#163050" stroke-linecap="round" stroke-linejoin="round" stroke-miterlimit="10" stroke-width="2" d="M7.305 38.877h24.547a3.681 3.681 0 01.476 7.33l-10.045 1.31"/><path stroke="#163050" stroke-linecap="round" stroke-linejoin="round" stroke-miterlimit="10" stroke-width="2" d="M7.305 51.55h4.608l13.353 4.292a7 7 0 005.368-.451l24.158-12.544a3.241 3.241 0 00-2.682-5.892l-16.577 6.53"/><path fill="#05D5FC" d="M12 36.996H2v18h10v-18z"/><path fill="#1EB8E7" d="M12 50.087H2v4.909h10v-4.91z"/><path stroke="#163050" stroke-linecap="round" stroke-linejoin="round" stroke-miterlimit="10" stroke-width="2" d="M12 36.996H2v18h10v-18z"/><defs><radialGradient id="paint0_radial" cx="0" cy="0" r="1" gradientTransform="rotate(79.236 1.678 23.535) scale(11.0466)" gradientUnits="userSpaceOnUse"><stop offset=".065" stop-color="#FFEA80"/><stop offset=".109" stop-color="#FFE77D"/><stop offset=".469" stop-color="#FFD76C"/><stop offset=".735" stop-color="#FFD166"/></radialGradient></defs></svg>