<svg xmlns="http://www.w3.org/2000/svg" width="60" height="60" fill="none"><path fill="#0C9FE1" stroke="#163150" stroke-linecap="round" stroke-linejoin="round" stroke-miterlimit="10" stroke-width="2" d="M54 43.4V32.1c0-2.5-2.323-4.6-5.088-4.6H43.16c-2.765 0-5.088 2.1-5.088 4.6v3.7c0 2.5 2.323 4.6 5.088 4.6h6.304c1.77-.1 3.981 1 4.534 3z"/><path fill="#0C9FE1" stroke="#163150" stroke-linecap="round" stroke-linejoin="round" stroke-miterlimit="10" stroke-width="2" d="M10.977 49.6V25.2c0-1.5 1.327-2.8 3.65-2.8h31.3c1.658 0 2.875 1.2 2.985 2.6l.111 18.5c0 1.5-1.327 2.7-2.876 2.7h-31.63c-1.992.1-3.65 1.6-3.54 3.4z"/><path fill="#1EB8E7" d="M48.913 31.5L48.802 50c0 1.5-1.327 2.6-2.986 2.6l-30.526-.1h-1.659c-1.659 0-2.875-1.2-2.875-2.7l.11-24.3c-.11 1.8 1.549 3.2 3.429 3.2h.774l30.857.1c1.77 0 2.986 1.2 2.986 2.7z"/><path fill="#0C9FE1" d="M16.949 28.8l-.332 23.7c-1.88 0-5.64.5-5.64-2.7V25.5c0 3.4 4.534 3.3 5.972 3.3z"/><path stroke="#163150" stroke-linecap="round" stroke-linejoin="round" stroke-miterlimit="10" stroke-width="2" d="M10.977 25.5l-.11 23.8c0 2 1.437 3.3 3.76 3.3h31.3c1.658 0 2.875-1.2 2.985-2.6l.11-18.5c0-1.5-1.343-2.5-2.89-2.5H14.5c-1.991 0-3.634-1.7-3.523-3.5z"/><path fill="#1EB8E7" d="M54 32.9v11.3c0 2.5-2.322 4.6-5.087 4.6h-8.185c-2.765 0-5.087-2.1-5.087-4.6v-3.7c0-2.5 2.322-4.6 5.087-4.6h8.848c1.66.1 3.871-1 4.424-3z"/><path fill="#0C9FE1" d="M48.913 40.7c4.755 2.6.553 9.1-4.314 6.5l-3.76-1.4 3.65-7.2 4.424 2.1z"/><path fill="#B3C1D6" stroke="#163150" stroke-linecap="round" stroke-linejoin="round" stroke-miterlimit="10" stroke-width="2" d="M45.462 43.788c.832-1.223.41-2.825-.943-3.577-1.352-.753-3.123-.371-3.956.852-.832 1.223-.41 2.824.943 3.576 1.352.753 3.124.371 3.956-.852z"/><path stroke="#163150" stroke-linecap="round" stroke-linejoin="round" stroke-miterlimit="10" stroke-width="2" d="M54 32.9v11.3c0 2.5-2.322 4.6-5.087 4.6h-8.185c-2.765 0-5.087-2.1-5.087-4.6v-3.7c0-2.5 2.322-4.6 5.087-4.6h8.848c1.66.1 3.871-1 4.424-3z"/><path stroke="#B5BFC7" stroke-linecap="round" stroke-linejoin="round" stroke-miterlimit="10" stroke-width="2" d="M6 42.5v-4.4m6.636 18.8C8.876 56.4 6 53.4 6 49.9v-2.2" opacity=".4"/><path fill="#fff" d="M33 10v18.5h-4V10a2 2 0 114 0zm-19.627 1.838a2 2 0 012.79-.465l7 5A2 2 0 0124 18v10.5h-4v-9.47l-6.162-4.402a2 2 0 01-.465-2.79zm35.254 0a2 2 0 00-2.79-.465l-7 5A2 2 0 0038 18v10.5h4v-9.47l6.162-4.402a2 2 0 00.465-2.79z"/><path stroke="#163050" stroke-linecap="round" stroke-linejoin="round" stroke-miterlimit="10" stroke-width="2" d="M38 28.5V18a2 2 0 01.838-1.628l7-5a2 2 0 012.325 3.255L42 19.03v9.47m-9 0V10a2 2 0 10-4 0v18.5h4zm-9 0V18a2 2 0 00-.837-1.628l-7-5a2 2 0 00-2.325 3.255L20 19.03v9.47h4z"/><path fill="#FFD267" stroke="#163050" stroke-linecap="round" stroke-linejoin="round" stroke-miterlimit="10" stroke-width="2" d="M50 15a4 4 0 100-8 4 4 0 000 8zm-19-4a4 4 0 100-8 4 4 0 000 8zm-19 4a4 4 0 100-8 4 4 0 000 8z"/><path stroke="#163150" stroke-linecap="round" stroke-linejoin="round" stroke-miterlimit="10" stroke-width="2" d="M46.631 29H15"/></svg>