<svg xmlns="http://www.w3.org/2000/svg" width="60" height="60" fill="none"><path stroke="#B5BFC7" stroke-linecap="round" stroke-linejoin="round" stroke-miterlimit="10" stroke-width="2" d="M43.775 8.5a19.976 19.976 0 015.717 10M50 23a20.06 20.06 0 01-.508 4.5L50 23zM30 3c-11.046 0-20 8.954-20 20a19.952 19.952 0 006.77 15L30 3z" opacity=".4"/><path fill="url(#paint0_radial)" stroke="#163150" stroke-linecap="round" stroke-linejoin="round" stroke-miterlimit="10" stroke-width="2" d="M46 23c0-8.837-7.163-16-16-16s-16 7.163-16 16c0 10 8 13 9 22h14c1-9 9-12 9-22z"/><path fill="#05D5FC" d="M19 47c0-1.105 1.094-2 2.444-2h17.112c1.35 0 2.444.895 2.444 2s-1.094 2-2.444 2h-1.223v2c0 1.105-1.094 2-2.444 2v1c0 1.657-1.642 3-3.667 3h-2.444c-2.025 0-3.667-1.343-3.667-3v-1c-1.35 0-2.444-.895-2.444-2v-2h-1.223C20.094 49 19 48.105 19 47z"/><path fill="#07A9DA" d="M19 47c0-1.105 1.094-2 2.444-2h4.89v4h2.444v4H30v4h-2.444c-1.35 0-2.445-.895-2.445-2v-2c-1.35 0-2.444-.895-2.444-2v-2h-1.223C20.094 49 19 48.105 19 47z"/><path stroke="#163050" stroke-linecap="round" stroke-linejoin="round" stroke-miterlimit="10" stroke-width="2" d="M19 47a2 2 0 012-2h18a2 2 0 110 4H21a2 2 0 01-2-2zm3.667 2h14.667v2a2 2 0 01-2 2H24.667a2 2 0 01-2-2v-2zm2.444 4h9.778v1a3 3 0 01-3 3h-3.778a3 3 0 01-3-3v-1z"/><path stroke="#FFFCBE" stroke-linecap="round" stroke-linejoin="round" stroke-miterlimit="10" stroke-width="2" d="M27.226 15.528c6.28-2.426 12.562 3.34 10.827 9.796l-7.614-2.15 3.7 7.154c-4.262 2.378-9.76.473-11.61-4.217-1.631-4.207.49-8.952 4.697-10.583zM32 12v3m-4-3v3-3zm4 20v3m-4-3v3-3z"/><path stroke="#163050" stroke-linecap="round" stroke-linejoin="round" stroke-miterlimit="10" stroke-width="2" d="M26 44h8"/><path stroke="#B5BFC7" stroke-linecap="round" stroke-linejoin="round" stroke-miterlimit="10" stroke-width="2" d="M8.176 13a23.95 23.95 0 011.646-3M54 23a23.89 23.89 0 00-2.93-11.5L54 23zM6 23c0 2.253.31 4.433.89 6.5L6 23z" opacity=".2"/><defs><radialGradient id="paint0_radial" cx="0" cy="0" r="1" gradientTransform="matrix(20.5 21.49999 -22.76291 21.7042 25.5 18.5)" gradientUnits="userSpaceOnUse"><stop offset=".065" stop-color="#FFEF9F"/><stop offset=".735" stop-color="#FFC744"/></radialGradient></defs></svg>