<svg xmlns="http://www.w3.org/2000/svg" viewBox="0 0 76 76"><g fill="none" fill-rule="evenodd"><g stroke-linejoin="round"><path stroke="#FFF" stroke-linecap="round" stroke-width="2.302" d="M38.5 26.97l4.698 7.472 7.831 2.989"/><path fill="#FFC835" fill-rule="nonzero" stroke="#163150" stroke-width="3" d="M38.429 4.48L25.423 22.45 3.591 28.07l13.983 18.714-.236 22.329 21.43-6.508L60.37 71.04l-.713-22.517L73.353 31.04l-21.935-7.45-12.99-19.11z"/></g><path fill="#FFF" d="M39.5 29C33.15 29 28 34.149 28 40.5 28 46.852 33.149 52 39.5 52S51 46.852 51 40.5A11.5 11.5 0 0039.5 29z"/><path fill="#007896" fill-rule="nonzero" d="M39 27c-7.732 0-14 6.268-14 14s6.268 14 14 14 14-6.268 14-14a13.999 13.999 0 00-14-14zm4.839 18.375l-3.605 3.649a1.75 1.75 0 01-1.225.516 1.75 1.75 0 01-1.226-.516l-3.587-3.649a1.75 1.75 0 010-2.494.954.954 0 011.365 0l1.82 1.847a2.291 2.291 0 003.272 0L42.5 42.88a.954.954 0 011.365 0 1.75 1.75 0 01-.01 2.494h-.016zm3.788-5.836a.936.936 0 01-.664.28.877.877 0 01-.64-.263l-1.75-1.75a2.178 2.178 0 00-1.557-.647 2.248 2.248 0 00-1.61.674l-1.75 1.793a.936.936 0 01-.875.263.871.871 0 01-.49-.254l-1.75-1.75a2.179 2.179 0 00-1.557-.648 2.249 2.249 0 00-1.61.674l-1.75 1.794a.936.936 0 01-1.304 0 1.75 1.75 0 010-2.389l3.5-3.552a1.671 1.671 0 011.199-.508c.43 0 .844.173 1.146.482L39 36.625l2.888-2.922a1.678 1.678 0 011.198-.508 1.6 1.6 0 011.164.481l3.439 3.5a1.75 1.75 0 01-.045 2.371l-.017-.008z"/><path stroke="#B6BFC7" stroke-linecap="round" stroke-linejoin="round" stroke-width="1.699" d="M4.897 37.186l-2.235-2.83M12.73 48.19l-5.756-8.18M65 54l-.405-5.2m.619 20.8l-.428-12.2" opacity=".4"/></g></svg>