<svg xmlns="http://www.w3.org/2000/svg" fill="none" viewBox="0 0 30 28"><path fill="#fff" d="M9 3.81l6-3.054 6 3.054-6 3.054L9 3.81z"/><path fill="#0C9FE1" d="M9 3.81l6 3.054v7.125l-6-3.054V3.81z"/><path fill="#00D7FF" d="M21 3.81l-6 3.054v7.125l6-3.054V3.81z"/><path fill="#fff" d="M1 17.061l6-3.054 6 3.054-6 3.054-6-3.054z"/><path fill="#0C9FE1" d="M1 17.061l6 3.054v7.126l-6-3.054v-7.126z"/><path fill="#00D7FF" d="M13 17.061l-6 3.054v7.126l6-3.054v-7.126z"/><path fill="#fff" d="M17 17.061l6-3.054 6 3.054-6 3.054-6-3.054z"/><path fill="#0C9FE1" d="M17 17.061l6 3.054v7.126l-6-3.054v-7.126z"/><path fill="#00D7FF" d="M29 17.061l-6 3.054v7.126l6-3.054v-7.126z"/><path fill="#163050" fill-rule="evenodd" d="M16.36.326a3 3 0 00-2.72 0l-4 2.036A3 3 0 008 5.036v1.863H5a1 1 0 00-1 1v6.513l-2.36 1.202A3 3 0 000 18.287v4.674a3 3 0 001.64 2.673l4 2.036a3 3 0 002.72 0l4-2.036a3 3 0 001.634-2.483h2.012a3 3 0 001.633 2.483l4 2.036a3 3 0 002.722 0l4-2.036A3 3 0 0030 22.961v-4.674a3 3 0 00-1.64-2.673L25 13.904V7.898a1 1 0 00-1-1h-2V5.036a3 3 0 00-1.64-2.674l-4-2.036zm-10.925 15.6a.968.968 0 00.036-.018l1.075-.548a1 1 0 01.908 0l4 2.036a1 1 0 01.546.891v2.864h-2a1 1 0 100 2h1.982a1 1 0 01-.528.7l-4 2.037a1 1 0 01-.908 0l-4-2.036A1 1 0 012 22.96v-4.674a1 1 0 01.546-.89l2.889-1.471zM6 13.423V8.899h2v.81a3 3 0 001.64 2.674l4 2.036a3 3 0 002.72 0l4-2.036A3 3 0 0022 9.709V8.9h1v4.352c-.467 0-.933.11-1.36.327l-4 2.036A3 3 0 0016 18.287v2.864h-2v-2.864a3 3 0 00-1.64-2.673l-4-2.036A3 3 0 006 13.423zm4-4.524v.81a1 1 0 00.546.892l4 2.035a1 1 0 00.908 0l4-2.035A1 1 0 0020 9.709V5.036a1 1 0 00-.546-.891l-4-2.036a1 1 0 00-.908 0l-4 2.036a1 1 0 00-.546.89V6.9h1.5a1 1 0 110 2H10zm8 14.062v-4.674a1 1 0 01.546-.89l4-2.037a1 1 0 01.454-.109v1.301a1 1 0 102 0v-.405l2.454 1.25a1 1 0 01.546.89v4.674a1 1 0 01-.546.89l-4 2.037a1 1 0 01-.908 0l-4-2.036A1 1 0 0118 22.96z" clip-rule="evenodd"/></svg>