<svg xmlns="http://www.w3.org/2000/svg" width="24" height="29" fill="none"><path fill="#fff" fill-rule="evenodd" d="M9.135 0a.713.713 0 00-.55.244L5.668 3.49a.713.713 0 000 .954l3.21 3.563a.713.713 0 101.06-.954L7.81 4.694h9.469c3.701 0 5.295 2.22 5.295 4.41s-1.594 4.41-5.295 4.41H6.715c-4.302 0-6.711 2.89-6.715 5.812-.004 2.921 2.4 5.813 6.69 5.813h9.532l-1.85 2.057a.713.713 0 101.062.953l2.919-3.247a.714.714 0 00-.001-.954l-3.21-3.563a.714.714 0 10-1.06.954l2.138 2.373H6.69c-3.683 0-5.266-2.207-5.264-4.384.003-2.177 1.593-4.387 5.29-4.387h10.563c4.31 0 6.721-2.903 6.721-5.836 0-2.934-2.412-5.838-6.721-5.838H7.786l1.86-2.07A.713.713 0 009.136 0z" clip-rule="evenodd"/></svg>