<svg xmlns="http://www.w3.org/2000/svg" width="78" height="74" fill="none"><rect width="26.961" height="5.111" x="50.813" y="43.725" fill="#C4C4C4" stroke="#000" rx="2.556" transform="rotate(45.708 50.813 43.725)"/><rect width="9.328" height="35.147" x="43.431" y="46.863" fill="#1EB8E7" stroke="#163150" stroke-width="3" rx="4.664" transform="rotate(-45 43.431 46.863)"/><path fill="#fff" stroke="#1EB8E7" stroke-width="11" d="M29.731 53.463c13.107 0 23.732-10.625 23.732-23.732C53.463 16.625 42.838 6 29.73 6 16.625 6 6 16.625 6 29.731c0 13.107 10.625 23.732 23.731 23.732z"/><path stroke="#6DC5ED" stroke-linecap="square" stroke-width="2" d="M55.414 51L65 60.586"/><path stroke="#6DC5ED" stroke-width="2" d="M31.5 7.5s5.998-1.013 12 3.493c6 4.506 6.999 10.507 6.999 10.507"/><path stroke="#E3EDFF" stroke-width="2" d="M26.555 21.168l12 8m-6.234-9.552L38.5 24"/><path stroke="#163150" stroke-width="3" d="M46.5 30c0 9.703-7.649 17.5-17 17.5-9.351 0-17-7.797-17-17.5s7.649-17.5 17-17.5c9.351 0 17 7.797 17 17.5z"/><circle cx="29.5" cy="29.5" r="28" stroke="#163150" stroke-width="3"/></svg>