<svg xmlns="http://www.w3.org/2000/svg" width="62" height="60" fill="none"><path stroke="#163050" stroke-linecap="round" stroke-linejoin="round" stroke-miterlimit="10" stroke-width="2.071" d="M31 38.25v4.143"/><path stroke="#163150" stroke-linecap="round" stroke-linejoin="round" stroke-miterlimit="10" stroke-width="2.071" d="M15.982 17.018h-3.107L9.25 13.393H7.696m2.59 9.322h5.179M5.108 15.464a2.071 2.071 0 100-4.142 2.071 2.071 0 000 4.142zm2.071 9.322a2.071 2.071 0 100-4.143 2.071 2.071 0 000 4.143zM44.982 16.5l3.625-3.107h4.661m-8.286 9.322h5.179m2.589 2.071a2.071 2.071 0 100-4.143 2.071 2.071 0 000 4.143zm3.108-9.322a2.071 2.071 0 100-4.142 2.071 2.071 0 000 4.142z"/><path fill="#FFD267" d="M45.76 13.365v20.343c0 3.052-2.54 5.578-5.608 5.578H21.849c-3.069 0-5.608-2.526-5.608-5.578V7.578C16.241 4.525 18.781 2 21.85 2h12.378c2.01 0 3.915.842 5.29 2.21l4.126 4.21c1.375 1.157 2.116 3.051 2.116 4.945z"/><path fill="#163150" stroke="#163150" stroke-linecap="round" stroke-linejoin="round" stroke-miterlimit="10" stroke-width="2.071" d="M37.985 3.28l6.592 6.789c.197.196.099.59-.196.59h-4.723a2.184 2.184 0 01-2.165-2.165v-4.92c-.098-.393.295-.491.492-.294z"/><path stroke="#163150" stroke-linecap="round" stroke-linejoin="round" stroke-miterlimit="10" stroke-width="2.071" d="M45.76 13.414v20.362c0 3.05-2.46 5.51-5.61 5.51h-18.3c-3.05 0-5.609-2.46-5.609-5.51V7.608c0-3.05 2.46-5.608 5.609-5.608h12.495c1.968 0 3.838.787 5.314 2.165l4.132 4.132c1.28 1.378 1.968 3.247 1.968 5.117z"/><path stroke="#FFAE25" stroke-linecap="round" stroke-linejoin="round" stroke-miterlimit="10" stroke-width="3.107" d="M25.821 29.964h4.661m-4.66-12.429h9.32-9.32zm0 6.215h9.32-9.32z"/><path fill="#05D5FC" d="M2 46.535V39.98c0-1.608.93-3.07 2.387-3.752l3.07-1.437a7.25 7.25 0 013.072-.683H16.5a3.107 3.107 0 013.107 3.107v6.789a4.143 4.143 0 01-2.086 3.596l-1.9 1.087a7.25 7.25 0 01-3.6.957H5.107A3.107 3.107 0 012 46.535z"/><path fill="#0C9FE1" d="M14.429 46.535c0 1.45-1.381 2.072-2.072 2.072l2.072.518 3.86-3.003c.505-.393.8-.996.8-1.635V35.66l-3.062 1.702a3.106 3.106 0 00-1.598 2.715v6.458z"/><path stroke="#163050" stroke-linecap="round" stroke-linejoin="round" stroke-miterlimit="10" stroke-width="2.071" d="M2 46.535V39.98c0-1.608.93-3.07 2.387-3.752l3.07-1.437a7.25 7.25 0 013.072-.683H16.5a3.107 3.107 0 013.107 3.107v6.789a4.143 4.143 0 01-2.086 3.596l-1.9 1.087a7.25 7.25 0 01-3.6.957H5.107A3.107 3.107 0 012 46.535z"/><path fill="#05D5FC" d="M60 46.535V39.98c0-1.608-.93-3.07-2.387-3.752l-3.07-1.437a7.25 7.25 0 00-3.073-.683H45.5a3.107 3.107 0 00-3.107 3.107v6.789c0 1.486.796 2.858 2.086 3.596l1.9 1.087a7.25 7.25 0 003.6.957h6.914A3.107 3.107 0 0060 46.535z"/><path fill="#0C9FE1" d="M47.572 46.535c0 1.45 1.38 2.072 2.071 2.072l-2.071.518-3.861-3.003a2.071 2.071 0 01-.8-1.635V35.66l3.063 1.702a3.106 3.106 0 011.598 2.715v6.458z"/><path stroke="#163050" stroke-linecap="round" stroke-linejoin="round" stroke-miterlimit="10" stroke-width="2.071" d="M60 46.535V39.98c0-1.608-.93-3.07-2.387-3.752l-3.07-1.437a7.25 7.25 0 00-3.073-.683H45.5a3.107 3.107 0 00-3.107 3.107v6.789c0 1.486.796 2.858 2.086 3.596l1.9 1.087a7.25 7.25 0 003.6.957h6.914A3.107 3.107 0 0060 46.535zm-42.464-4.142l6.214 7.768m21.75-7.768l-6.214 7.768"/><path fill="#05D5FC" d="M22.714 54.822v-7.95c0-.615.183-1.216.525-1.728l.304-.453a5.178 5.178 0 014.303-2.298h6.307a5.18 5.18 0 014.303 2.297l.304.454c.343.512.525 1.113.525 1.729v7.949a3.107 3.107 0 01-3.107 3.107H25.821a3.107 3.107 0 01-3.107-3.107z"/><path stroke="#163050" stroke-linecap="round" stroke-linejoin="round" stroke-miterlimit="10" stroke-width="2.071" d="M22.714 54.822v-7.95c0-.615.183-1.216.525-1.728l.612-.913a4.143 4.143 0 013.442-1.838h7.413c1.382 0 2.673.69 3.442 1.838l.612.913c.343.512.525 1.113.525 1.729v7.949a3.107 3.107 0 01-3.107 3.107H25.821a3.107 3.107 0 01-3.107-3.107z"/></svg>