<svg xmlns="http://www.w3.org/2000/svg" width="38" height="33" fill="none"><path fill="#fff" d="M19.051.176c-.927 0-1.739.473-2.24 1.26L1 28.637a2.607 2.607 0 000 2.603c.464.788 1.314 1.3 2.24 1.261h31.42a2.58 2.58 0 002.24-1.261 2.607 2.607 0 000-2.602l-15.608-27.2C20.79.649 19.978.176 19.05.176zm0 2.714c.348 0 .734.237.889.513l14.38 25.234c.154.276.154.71 0 .985-.155.276-.541.513-.889.513H4.61c-.348 0-.734-.237-.889-.513a1.105 1.105 0 010-.985l7.221-12.617 7.221-12.617c.155-.316.541-.513.889-.513zm.35 7.61c-1.082 0-.901.432-.901 1.536v7.139c0 .867.15 1.325 1 1.325s1-.458 1-1.325v-7.14c0-1.103-.017-1.535-1.1-1.535zm.099 12c-1.082 0-1.5.301-1.5 1.405s.418 1.595 1.5 1.595 1.4-.491 1.4-1.595-.318-1.405-1.4-1.405z"/></svg>