<svg xmlns="http://www.w3.org/2000/svg" width="16" height="25" fill="none"><path fill="#DD4242" d="M8.682 8.758v3.26c0 .346-.017.686-.051 1.02-.034.331-.08.683-.137 1.055h-.952a21.852 21.852 0 01-.137-1.054 10.023 10.023 0 01-.051-1.02V8.757h1.328zm-1.545 7.467c0-.118.021-.23.063-.337a.863.863 0 01.182-.273.935.935 0 01.28-.183.859.859 0 01.342-.068.863.863 0 01.61.25.863.863 0 01.25.61.859.859 0 01-.25.61.79.79 0 01-.274.177.845.845 0 01-.336.069.859.859 0 01-.342-.069.852.852 0 01-.28-.176.88.88 0 01-.182-.268.927.927 0 01-.063-.342z"/><path stroke="#DD544E" stroke-width="1.2" d="M8 20.238c3.866 0 7-3.198 7-7.143s-3.134-7.143-7-7.143-7 3.198-7 7.143 3.134 7.143 7 7.143z" clip-rule="evenodd"/></svg>