<svg xmlns="http://www.w3.org/2000/svg" width="60" height="60" fill="none"><path fill="#05D5FC" d="M39.503 17.4h11v37.403h-11V17.401zM25.202 32.802h11v22.001h-11V32.802zm-14.301-8.8h11.001v30.801h-11V24.002z"/><path fill="#1EB8E7" d="M47.203 17.4h3.3v37.403h-3.3V17.401zM32.902 32.802h3.3v22.001h-3.3V32.802zm-11-8.8h-3.3v6.004c-3.3-2.154-7.7-1.604-7.7-1.604v26.401h6.7c.352-.354.686-.727 1-1.115v1.115h3.3V24.002z"/><path stroke="#163050" stroke-linecap="round" stroke-linejoin="round" stroke-miterlimit="10" stroke-width="2" d="M39.503 17.4h11v37.403h-11V17.401zM25.202 32.802h11v22.001h-11V32.802zm-14.301-8.8h11.001v30.801h-11V24.002zm-6.942-2.276l12.992-8.175 14.3 4.95 9.902-13.75 13.75 5.14"/><path fill="#FFC835" stroke="#163050" stroke-linecap="round" stroke-linejoin="round" stroke-miterlimit="10" stroke-width="2" d="M3.959 24.684a2.959 2.959 0 100-5.917 2.959 2.959 0 000 5.917zm13.201-6.865a2.959 2.959 0 100-5.918 2.959 2.959 0 000 5.918zm14.3 3.299a2.959 2.959 0 100-5.917 2.959 2.959 0 000 5.917zm9.901-13.2a2.959 2.959 0 100-5.918 2.959 2.959 0 000 5.918zm14.301 5.5a2.959 2.959 0 100-5.918 2.959 2.959 0 000 5.918z"/><path fill="url(#paint0_radial)" stroke="#163150" stroke-linecap="round" stroke-linejoin="round" stroke-miterlimit="10" stroke-width="2" d="M13.65 58.103c6.988 0 12.652-5.664 12.652-12.65 0-6.987-5.664-12.651-12.651-12.651S1 38.466 1 45.452c0 6.987 5.664 12.651 12.65 12.651z"/><path fill="#FFC835" stroke="#FFB335" stroke-linecap="round" stroke-linejoin="round" stroke-miterlimit="10" stroke-width="1.6" d="M21.131 42.922c2.2 6.16-3.52 12.211-9.79 10.341l1.28-6.211-6.12 2.25c-2.2-4.18-.22-9.57 4.4-11.22 4.18-1.54 8.8.66 10.23 4.84z"/><defs><radialGradient id="paint0_radial" cx="0" cy="0" r="1" gradientTransform="translate(18.944 37.927) scale(13.1191)" gradientUnits="userSpaceOnUse"><stop offset=".065" stop-color="#FFEA80"/><stop offset=".109" stop-color="#FFE77D"/><stop offset=".469" stop-color="#FFD76C"/><stop offset=".735" stop-color="#FFD166"/></radialGradient></defs></svg>