<svg xmlns="http://www.w3.org/2000/svg" width="32" height="32" fill="none"><path stroke="#fff" stroke-width="2" d="M16 31c8.284 0 15-6.716 15-15 0-8.284-6.716-15-15-15C7.716 1 1 7.716 1 16c0 8.284 6.716 15 15 15z"/><path fill="#fff" d="M17.085 9.386v5.434c0 .285-.006.564-.019.836a18.414 18.414 0 01-.114 1.672 33.96 33.96 0 01-.095.922h-1.15l-.104-.922a38.574 38.574 0 01-.114-1.672c-.006-.272-.01-.55-.01-.836V9.386h1.606zm-2.014 12.569c0-.165.029-.32.085-.465.064-.146.146-.273.247-.38a1.22 1.22 0 01.38-.257c.146-.063.301-.095.466-.095.165 0 .32.032.466.095.145.063.272.149.38.256.107.108.19.235.247.38.063.146.095.301.095.466 0 .171-.032.33-.096.475a1.118 1.118 0 01-.627.617c-.145.064-.3.095-.465.095-.165 0-.32-.031-.465-.095a1.095 1.095 0 01-.38-.247 1.354 1.354 0 01-.248-.37 1.292 1.292 0 01-.085-.475z"/></svg>