<svg xmlns="http://www.w3.org/2000/svg" viewBox="0 0 32 26"><path fill="#2287B4" fill-rule="evenodd" d="M23.296 12.196h2.394l2.523-3.27-.762-.817h-4.292l.137 4.087z" clip-rule="evenodd"/><path fill="#1EB8E7" fill-rule="evenodd" d="M27.653 8.414l2.367 2.147a1.292 1.292 0 010 1.83l-1.05 1.044a1.308 1.308 0 01-1.845 0l-.738-.759a1.292 1.292 0 010-1.83l1.188-1.128a.93.93 0 00.252-1.045.94.94 0 00-.905-.59h-3.528" clip-rule="evenodd"/><path stroke="#163150" stroke-linecap="round" stroke-linejoin="round" stroke-width="1.31" d="M27.653 8.414l2.367 2.147a1.292 1.292 0 010 1.83l-1.05 1.044a1.308 1.308 0 01-1.845 0l-.738-.759a1.292 1.292 0 010-1.83l1.188-1.128a.93.93 0 00.252-1.045.94.94 0 00-.905-.59h-3.528m.254 4.107h2.427"/><path fill="#2287B4" fill-rule="evenodd" d="M8.394 16.218H22.09a1.3 1.3 0 001.304-1.298V5.84a1.3 1.3 0 00-1.304-1.298H9.046A1.859 1.859 0 007.311 5.69L5.603 8.408" clip-rule="evenodd"/><path stroke="#163150" stroke-linecap="round" stroke-linejoin="round" stroke-width="1.31" d="M8.394 16.218H22.09a1.3 1.3 0 001.304-1.298V5.84a1.3 1.3 0 00-1.304-1.298H9.046A1.859 1.859 0 007.311 5.69L5.603 8.408"/><path fill="url(#paint0_radial)" fill-rule="evenodd" stroke="#163150" stroke-linecap="round" stroke-linejoin="round" stroke-width="1.31" d="M16.677 15.27c3.962 0 7.174-3.194 7.174-7.135C23.85 4.195 20.639 1 16.677 1S9.503 4.195 9.503 8.135s3.212 7.135 7.174 7.135z" clip-rule="evenodd"/><path fill="#FFC835" fill-rule="evenodd" stroke="#FFAE25" stroke-linecap="round" stroke-linejoin="round" stroke-width="1.048" d="M11.955 8.33a4.702 4.702 0 012.284-4.374 4.757 4.757 0 014.955.047l-1.721 3.568 3.834-.545a4.695 4.695 0 01-1.623 4.64 4.755 4.755 0 01-4.892.678 4.71 4.71 0 01-2.837-4.02v.006z" clip-rule="evenodd"/><path fill="#1EB8E7" fill-rule="evenodd" d="M20.414 16.659L15.56 24.35a1.31 1.31 0 01-1.8.409L2.23 17.553l-.62-.39a1.291 1.291 0 01-.41-1.79L7.572 5.262a1.537 1.537 0 00.47 2.166l.274.169 11.693 7.271a1.292 1.292 0 01.404 1.79z" clip-rule="evenodd"/><path fill="#0C9FE1" fill-rule="evenodd" d="M9.04 7.908l-6.385 9.957-1.044-.713a1.291 1.291 0 01-.41-1.79L7.572 5.248a1.537 1.537 0 00.47 2.167l.998.492z" clip-rule="evenodd"/><path stroke="#163150" stroke-linecap="round" stroke-linejoin="round" stroke-width="1.31" d="M7.572 5.262L1.201 15.374a1.291 1.291 0 00.41 1.79l12.15 7.59a1.31 1.31 0 001.8-.403l4.853-7.686a1.292 1.292 0 00-.405-1.79L8.042 7.428a1.537 1.537 0 01-.47-2.166v0"/><path fill="#0C9FE1" fill-rule="evenodd" d="M16.35 20.777a1.874 1.874 0 01-1.669.88 1.872 1.872 0 01-1.59-1.015 1.853 1.853 0 01.11-1.876l.606-1.297 3.378 1.868-.835 1.44z" clip-rule="evenodd"/><path fill="#B3C1D6" fill-rule="evenodd" stroke="#163150" stroke-linecap="round" stroke-linejoin="round" stroke-width="1.31" d="M15.372 19.908a1.3 1.3 0 001.305-1.297 1.3 1.3 0 00-1.305-1.297 1.3 1.3 0 00-1.304 1.297 1.3 1.3 0 001.304 1.297z" clip-rule="evenodd"/><defs><radialGradient id="paint0_radial" cx="0" cy="0" r="1" gradientTransform="matrix(5.8558 0 0 5.82415 20.308 3.795)" gradientUnits="userSpaceOnUse"><stop offset=".06" stop-color="#FFEA80"/><stop offset=".11" stop-color="#FFE77D"/><stop offset=".47" stop-color="#FFD76C"/><stop offset=".73" stop-color="#FFD166"/></radialGradient></defs></svg>