<svg xmlns="http://www.w3.org/2000/svg" width="24" height="24" fill="none"><path fill="#1EB8E7" fill-rule="evenodd" d="M19.238 11.07a.75.75 0 01-1.058-.082l-.609-.71v5.847c0 1.926-1.375 3.375-3.16 3.375-1.786 0-3.161-1.449-3.161-3.375v-8.25C11.25 6.695 10.466 6 9.59 6c-.878 0-1.661.695-1.661 1.875v5.848l.609-.711a.75.75 0 111.139.976l-1.929 2.25a.75.75 0 01-1.139 0l-1.928-2.25a.75.75 0 111.138-.976l.61.71V7.876c0-1.926 1.375-3.375 3.16-3.375 1.786 0 3.161 1.449 3.161 3.375v8.25c0 1.18.784 1.875 1.66 1.875.878 0 1.661-.695 1.661-1.875v-5.848l-.609.711a.75.75 0 11-1.139-.976l1.929-2.25a.75.75 0 011.139 0l1.928 2.25a.75.75 0 01-.08 1.057z" clip-rule="evenodd"/></svg>