<svg xmlns="http://www.w3.org/2000/svg" width="45" height="45" fill="none"><path fill="#B3DD87" fill-rule="evenodd" d="M0 12C0 5.373 5.373 0 12 0h21c6.627 0 12 5.373 12 12v21c0 6.627-5.373 12-12 12H12C5.373 45 0 39.627 0 33V12z" clip-rule="evenodd"/><path fill="#fff" d="M19.505 32.621a7.13 7.13 0 01-1.434-14.109.808.808 0 11.317 1.584 5.544 5.544 0 106.663 5.395.792.792 0 111.584 0 7.13 7.13 0 01-7.13 7.13zm.127-3.818a.793.793 0 01-.792-.793v-1.663h-1.672a.793.793 0 010-1.585h1.672v-1.647a.792.792 0 011.584 0v1.671h1.664a.792.792 0 110 1.585h-1.664v1.663a.792.792 0 01-.792.777v-.008zm3.169-5.942a.793.793 0 01-.61-.222.792.792 0 01-.222-.673l1.204-8.437a.793.793 0 011.347-.451l1.703 1.719 6.496-6.52a.792.792 0 111.117 1.117l-7.058 7.082a.792.792 0 01-1.117 0l-1.141-1.149-.792 5.815 5.751-.792-1.061-1.077a.897.897 0 01-.088-.088.792.792 0 01.056-1.061l2.693-2.694a.792.792 0 111.117 1.125l-2.13 2.131 1.631 1.656a.793.793 0 01-.451 1.339l-8.358 1.18H22.8zm4.143 10.069l3.026-3.026a.792.792 0 00-1.117-1.117l-3.018 3.042a8.946 8.946 0 01-12.628-12.675l9.507-9.507a.792.792 0 000-1.117.792.792 0 00-1.117 0l-9.507 9.507A10.517 10.517 0 1026.944 32.93z"/></svg>