<svg xmlns="http://www.w3.org/2000/svg" fill="none" viewBox="0 0 24 24"><path fill="#163150" fill-rule="evenodd" d="M9.886 6.88V3.348L6.214 6.88h3.672zm.995 2.005H4.728v6.538l2.331-1.162c1.323-.66 2.873.31 2.873 1.797v3.646h4.136v-3.646c0-1.487 1.55-2.457 2.873-1.797l1.718.856V2.005h-6.783v5.878a.999.999 0 01-.995 1.002zm9.768 7.225V1.002c0-.542-.45-1.002-.995-1.002H10.88c-.256 0-.503.1-.688.278l-7.148 6.88c-.196.19-.307.451-.307.725v8.533l-1.63.813c-1.477.736-1.477 2.857 0 3.593l5.951 2.967c1.323.66 2.873-.31 2.873-1.796v-.284h4.136v.284c0 1.487 1.55 2.456 2.873 1.796l5.952-2.967c1.476-.736 1.476-2.857 0-3.593l-2.244-1.12zm1.36 2.915l-5.95 2.968v-5.935l5.95 2.967zM7.943 16.058L1.99 19.025l5.952 2.968v-5.935z" clip-rule="evenodd"/></svg>