<svg xmlns="http://www.w3.org/2000/svg" width="126" height="43" fill="none"><path fill="url(#paint0_linear_425_5098)" d="M32.455 0H9.545A9.545 9.545 0 000 9.545v22.91A9.545 9.545 0 009.545 42h22.91A9.545 9.545 0 0042 32.455V9.545A9.545 9.545 0 0032.455 0z"/><path fill="url(#paint1_radial_425_5098)" d="M32.455 0H9.545A9.545 9.545 0 000 9.545v22.91A9.545 9.545 0 009.545 42h22.91A9.545 9.545 0 0042 32.455V9.545A9.545 9.545 0 0032.455 0z"/><path fill="url(#paint2_radial_425_5098)" d="M32.455 0H9.545A9.545 9.545 0 000 9.545v22.91A9.545 9.545 0 009.545 42h22.91A9.545 9.545 0 0042 32.455V9.545A9.545 9.545 0 0032.455 0z"/><path fill="url(#paint3_radial_425_5098)" d="M32.455 0H9.545A9.545 9.545 0 000 9.545v22.91A9.545 9.545 0 009.545 42h22.91A9.545 9.545 0 0042 32.455V9.545A9.545 9.545 0 0032.455 0z"/><path fill="#fff" d="M17.253 32.261V22.52l9.465 9.742h5.267v-.253L21.096 20.912l10.05-10.526v-.125h-5.3l-8.593 9.303V10.26h-4.268v22h4.268z"/><path fill="#0A0718" d="M56.176 32.938V22.896l9.408 10.042h5.242v-.26L60 21.243l9.98-10.853v-.128h-5.27l-8.543 9.59v-9.59h-4.233v22.677h4.243zm21.924.487c2.44 0 5.107-.875 6.808-2.591L82.4 28.34c-.932.94-2.792 1.495-4.238 1.495-2.791 0-4.463-1.426-4.718-3.403h12.353c.033-.516.067-1.003.067-1.495 0-5.572-3.214-8.39-8.062-8.39-5.141 0-8.413 3.496-8.413 8.36.005 5.085 3.248 8.518 8.71 8.518zm3.95-10.269h-8.548c.61-2.075 2.282-3.113 4.425-3.113 2.287 0 3.863 1.038 4.117 3.113h.005zm9.426 17.105V31.06c1.153 1.78 3.565 2.33 5.27 2.33 5.074 0 7.995-3.756 7.995-8.424 0-4.667-3.243-8.36-8.124-8.36-1.797 0-3.887.747-5.136 2.562l-.26-2.203h-3.67v23.287h3.925v.01zm4.847-10.721c-2.7 0-4.497-2.075-4.497-4.569 0-2.493 1.672-4.534 4.498-4.534 2.825 0 4.497 2.04 4.497 4.534 0 2.494-1.802 4.569-4.502 4.569h.004zm14.246 3.403V10.291h-3.892v22.647h3.892v.005zm6.823 0V24.52c0-2.99 1.897-4.058 3.949-4.058 1.288 0 2.023.428 2.825 1.038l1.768-3.438c-.865-.811-2.441-1.495-4.079-1.495s-3.306.29-4.463 2.233l-.289-1.844h-3.632v15.969l3.921.014v.005z"/><defs><radialGradient id="paint1_radial_425_5098" cx="0" cy="0" r="1" gradientTransform="matrix(47.49745 -47.75613 48.47062 48.20806 2.006 40.409)" gradientUnits="userSpaceOnUse"><stop stop-color="#232DE3"/><stop offset="1" stop-color="#232DE3" stop-opacity="0"/></radialGradient><radialGradient id="paint2_radial_425_5098" cx="0" cy="0" r="1" gradientTransform="rotate(-138.45 27.79 13.343) scale(42.1137 64.2116)" gradientUnits="userSpaceOnUse"><stop stop-color="#8B4DFF"/><stop offset="1" stop-color="#8B4DFF" stop-opacity="0"/></radialGradient><radialGradient id="paint3_radial_425_5098" cx="0" cy="0" r="1" gradientTransform="matrix(0 33.1135 -80.3423 0 20.65 .311)" gradientUnits="userSpaceOnUse"><stop stop-color="#24D5FF"/><stop offset="1" stop-color="#1BB8FF" stop-opacity="0"/></radialGradient><linearGradient id="paint0_linear_425_5098" x1="21" x2="21" y1="0" y2="42" gradientUnits="userSpaceOnUse"><stop stop-color="#1FD1FF"/><stop offset="1" stop-color="#1BB8FF"/></linearGradient></defs></svg>