<svg xmlns="http://www.w3.org/2000/svg" xmlns:xlink="http://www.w3.org/1999/xlink" width="126" height="43" version="1.0" viewBox="0 250 1700 600"><path fill="#1d1d1b" d="M756.4 651.4h81.8v39.5H706.6V442.7h49.8v208.7zm296.5-63.3c0 7.1-.5 13.5-1.4 19.2h-144c1.2 14.2 6.2 25.4 14.9 33.4s19.6 12.1 32.4 12.1c18.5 0 31.6-7.9 39.5-23.8h53.7c-5.7 19-16.6 34.6-32.7 46.9-16.1 12.1-35.9 18.1-59.4 18.1-19 0-36-4.1-51.2-12.4-14.9-8.5-26.7-20.5-35.2-35.9-8.3-15.4-12.4-33.2-12.4-53.3 0-20.4 4.1-38.3 12.4-53.7 8.3-15.4 19.9-27.3 34.8-35.6s32.1-12.4 51.6-12.4c18.7 0 35.4 4 50.1 12.1 14.9 8.1 26.4 19.6 34.5 34.5 8.2 14.7 12.4 31.6 12.4 50.8zm-51.6-14.2c-.2-12.8-4.9-23-13.9-30.6-9-7.8-20-11.7-33.1-11.7-12.3 0-22.8 3.8-31.3 11.4-8.3 7.3-13.4 17.7-15.3 30.9h93.6zm75.1 17.8c0-19.9 3.9-37.6 11.7-53 8.1-15.4 18.8-27.3 32.4-35.6 13.7-8.3 29-12.4 45.9-12.4 14.7 0 27.5 3 38.4 8.9 11.1 5.9 20 13.4 26.7 22.4v-28.1h50.1v197h-50.1v-28.8c-6.4 9.2-15.3 16.9-26.7 23.1-11.1 5.9-24.1 8.9-38.8 8.9-16.6 0-31.8-4.3-45.5-12.8-13.5-8.5-24.3-20.5-32.4-35.9-7.8-15.7-11.7-33.6-11.7-53.7zm155 .7c0-12.1-2.4-22.4-7.1-30.9-4.7-8.8-11.1-15.4-19.2-19.9-8.1-4.7-16.7-7.1-26-7.1-9.2 0-17.8 2.3-25.6 6.8-7.8 4.5-14.2 11.1-19.2 19.9-4.7 8.5-7.1 18.7-7.1 30.6 0 11.9 2.4 22.3 7.1 31.3 5 8.8 11.4 15.5 19.2 20.3 8.1 4.7 16.6 7.1 25.6 7.1 9.2 0 17.9-2.3 26-6.8 8.1-4.7 14.5-11.4 19.2-19.9 4.7-8.9 7.1-19.3 7.1-31.4zm148.5-70.1c6.4-9 15.2-16.5 26.3-22.4 11.4-6.2 24.3-9.2 38.8-9.2 16.8 0 32 4.1 45.5 12.4 13.7 8.3 24.5 20.1 32.4 35.6 8.1 15.2 12.1 32.8 12.1 53 0 20.1-4 38-12.1 53.7-7.8 15.4-18.6 27.4-32.4 35.9-13.5 8.5-28.7 12.8-45.5 12.8-14.5 0-27.3-3-38.4-8.9-10.9-5.9-19.8-13.4-26.7-22.4v121.9h-49.8V493.9h49.8v28.4zm104.2 69.4c0-11.9-2.5-22-7.5-30.6-4.7-8.8-11.1-15.4-19.2-19.9-7.8-4.5-16.4-6.8-25.6-6.8-9 0-17.5 2.4-25.6 7.1-7.8 4.5-14.2 11.1-19.2 19.9-4.7 8.8-7.1 19.1-7.1 30.9 0 11.9 2.4 22.2 7.1 30.9 5 8.8 11.4 15.5 19.2 20.3 8.1 4.5 16.6 6.8 25.6 6.8 9.2 0 17.8-2.4 25.6-7.1 8.1-4.7 14.5-11.5 19.2-20.3 5-8.7 7.5-19.1 7.5-31.2z"/><defs><path id="a" d="M180.7 415.5h437v283.9h-437z"/></defs><clipPath id="b"><use overflow="visible" xlink:href="#a"/></clipPath><path fill="#4baf74" d="M574.4 611.5c0 62.5-76.3 87.9-171.1 87.9S231.1 674 231.1 611.5c0-62.5 76.9-113.1 171.6-113.1 94.8 0 171.7 50.7 171.7 113.1z" clip-path="url(#b)"/><path fill="#32da6d" d="M556.9 475.2c0-32.9-26.9-59.7-60-59.7-18.7 0-35.3 8.5-46.3 21.8-15-3.3-31-5.2-47.5-5.2-16.6 0-32.5 1.8-47.5 5.2-11.1-13.3-27.8-21.8-46.3-21.8-33.1 0-60 26.7-60 59.7 0 10.8 2.9 20.9 7.9 29.6-4.8 10.2-7.3 21-7.3 32.3 0 58 68.7 105 153.3 105 84.6 0 153.3-47 153.3-105 0-11.3-2.6-22.1-7.3-32.3 4.8-8.7 7.7-18.8 7.7-29.6z" clip-path="url(#b)"/><path fill="#f1f1e8" d="M304.4 508.3c20.2 0 36.7-16.3 36.7-36.5 0-20.1-16.4-36.5-36.7-36.5-20.2 0-36.7 16.3-36.7 36.5.1 20.2 16.5 36.5 36.7 36.5zm195.6 0c20.2 0 36.7-16.3 36.7-36.5 0-20.1-16.4-36.5-36.7-36.5s-36.7 16.3-36.7 36.5 16.4 36.5 36.7 36.5z" clip-path="url(#b)"/><path fill="#32da6d" d="M284.9 695.1c7.9 0 14.1-6.8 13.2-14.6-3.2-27.4-16.9-86.7-77-122.4-80-47.5-16.7 116-16.7 116l-16.6 9.5c-5.6 3.2-3.2 11.5 3.1 11.5h94zm238.7 0c-7.1 0-12.7-6.8-11.9-14.6 2.8-27.3 15.2-86.7 69.4-122.4 72.3-47.5 15.1 116 15.1 116l15 9.5c5 3.2 2.9 11.5-2.8 11.5h-84.8z" clip-path="url(#b)"/><path fill="#0d0d0d" d="M304.4 478.5c3.7 0 6.7-3 6.7-6.6 0-3.7-3-6.6-6.7-6.6s-6.7 3-6.7 6.6c.1 3.6 3.1 6.6 6.7 6.6zm195.6 0c3.7 0 6.7-3 6.7-6.6 0-3.7-3-6.6-6.7-6.6s-6.7 3-6.7 6.6c0 3.6 3 6.6 6.7 6.6z" clip-path="url(#b)"/></svg>