<svg xmlns="http://www.w3.org/2000/svg" viewBox="0 0 1200 120"><path fill="#fff" d="M0 0h1200v120H0z"/><mask id="a" width="1200" height="120" x="0" y="0" maskUnits="userSpaceOnUse"><path fill="#fff" d="M0 0h1200v120H0z"/></mask><g filter="url(#filter0_d)" mask="url(#a)"><ellipse cx="792.5" cy="60" fill="url(#paint0_linear)" rx="434.5" ry="252"/></g><path fill="#fff" d="M477.225 72.545c1.365 0 2.55-.12 3.555-.36 1.02-.255 1.988-.6 2.903-1.035v-5.918h-4.073c-.39 0-.697-.105-.922-.314a1.105 1.105 0 01-.338-.81v-3.42h10.823V73.85c-.825.6-1.688 1.125-2.588 1.575-.885.435-1.837.795-2.857 1.08a20.666 20.666 0 01-3.24.63c-1.155.15-2.4.225-3.735.225-2.37 0-4.553-.412-6.548-1.237-1.995-.826-3.72-1.973-5.175-3.443-1.455-1.47-2.595-3.225-3.42-5.265-.81-2.04-1.215-4.268-1.215-6.683 0-2.444.398-4.687 1.193-6.727s1.92-3.795 3.375-5.265c1.47-1.47 3.247-2.61 5.332-3.42s4.425-1.215 7.02-1.215c2.655 0 4.95.398 6.885 1.193 1.95.78 3.6 1.8 4.95 3.06l-1.755 2.745c-.345.554-.802.832-1.372.832-.36 0-.728-.12-1.103-.36a65.38 65.38 0 00-1.485-.855 9.45 9.45 0 00-1.665-.742 13.12 13.12 0 00-2.047-.518c-.75-.135-1.62-.203-2.61-.203-1.605 0-3.06.27-4.365.81a9.235 9.235 0 00-3.308 2.318c-.915 1.005-1.62 2.212-2.115 3.623-.495 1.41-.742 2.984-.742 4.724 0 1.876.262 3.548.787 5.018.525 1.455 1.26 2.685 2.205 3.69a9.626 9.626 0 003.375 2.317c1.305.525 2.73.788 4.275.788zm26.805-18.99c1.455 0 2.79.233 4.005.697a8.701 8.701 0 013.172 2.048c.885.885 1.575 1.98 2.07 3.285.495 1.29.743 2.767.743 4.432 0 .42-.023.773-.068 1.058-.03.27-.097.487-.202.653a.84.84 0 01-.383.337c-.165.06-.375.09-.63.09h-14.265c.165 2.37.803 4.11 1.913 5.22 1.11 1.11 2.58 1.665 4.41 1.665.9 0 1.672-.105 2.317-.315.66-.21 1.23-.442 1.71-.697.495-.256.923-.488 1.283-.698.375-.21.735-.315 1.08-.315.225 0 .42.045.585.135a1.3 1.3 0 01.427.382l1.62 2.026a9.51 9.51 0 01-2.07 1.822 12.3 12.3 0 01-2.407 1.17 13.44 13.44 0 01-2.543.608c-.855.12-1.687.18-2.497.18-1.605 0-3.098-.263-4.478-.788a10.224 10.224 0 01-3.6-2.362c-1.02-1.05-1.822-2.34-2.407-3.87-.585-1.546-.878-3.33-.878-5.355 0-1.575.255-3.053.765-4.433.51-1.395 1.238-2.602 2.183-3.623.96-1.034 2.122-1.852 3.487-2.452 1.38-.6 2.933-.9 4.658-.9zm.112 3.983c-1.62 0-2.887.457-3.802 1.372s-1.5 2.213-1.755 3.893h10.44c0-.72-.098-1.395-.293-2.025a4.685 4.685 0 00-.9-1.688 4.149 4.149 0 00-1.53-1.125c-.615-.285-1.335-.428-2.16-.428zM526.11 77.36c-1.995 0-3.532-.563-4.612-1.688-1.08-1.14-1.62-2.707-1.62-4.702V58.078h-2.34c-.3 0-.563-.098-.788-.293-.21-.195-.315-.487-.315-.877v-2.206l3.713-.607 1.17-6.3c.06-.3.195-.532.405-.698.225-.165.502-.247.832-.247h2.88v7.267h6.075v3.96h-6.075v12.51c0 .72.18 1.283.54 1.688.36.405.84.607 1.44.607.345 0 .63-.037.855-.112.24-.09.443-.18.608-.27.18-.09.337-.172.472-.248a.726.726 0 01.405-.134.6.6 0 01.405.135c.105.075.218.195.338.36l1.665 2.7a8.413 8.413 0 01-2.79 1.53c-1.05.344-2.138.517-3.263.517zm36.611-.36h-2.497c-.525 0-.938-.075-1.238-.225-.3-.165-.525-.488-.675-.968l-.495-1.642c-.585.525-1.162.99-1.732 1.395-.555.39-1.133.72-1.733.99a8.89 8.89 0 01-1.912.608c-.675.135-1.425.202-2.25.202-.975 0-1.875-.127-2.7-.382a6.071 6.071 0 01-2.138-1.193 5.427 5.427 0 01-1.372-1.957c-.33-.78-.495-1.688-.495-2.723 0-.87.225-1.725.675-2.565.465-.855 1.23-1.62 2.295-2.295 1.065-.69 2.482-1.26 4.252-1.71 1.77-.45 3.968-.705 6.593-.765v-1.35c0-1.545-.33-2.685-.99-3.42-.645-.75-1.59-1.125-2.835-1.125-.9 0-1.65.105-2.25.315-.6.21-1.125.45-1.575.72-.435.255-.84.488-1.215.698-.375.21-.788.315-1.238.315-.375 0-.697-.098-.967-.293a2.304 2.304 0 01-.653-.72l-1.012-1.777c2.655-2.43 5.857-3.646 9.607-3.646 1.35 0 2.55.225 3.6.675 1.065.435 1.965 1.05 2.7 1.846.735.78 1.29 1.717 1.665 2.812.39 1.095.585 2.295.585 3.6V77zm-10.8-3.465c.57 0 1.095-.052 1.575-.157.48-.106.93-.263 1.35-.473.435-.21.848-.465 1.238-.765.405-.315.81-.683 1.215-1.103v-3.892c-1.62.075-2.978.218-4.073.428-1.08.195-1.95.45-2.61.765-.66.315-1.132.682-1.417 1.102-.27.42-.405.877-.405 1.373 0 .974.285 1.672.855 2.092.585.42 1.342.63 2.272.63zm31.333-1.53h13.028V77h-19.08V44.465h6.052v27.54zm25.585-18.45c1.455 0 2.79.233 4.005.697a8.705 8.705 0 013.173 2.048c.885.885 1.575 1.98 2.07 3.285.495 1.29.742 2.767.742 4.432 0 .42-.022.773-.067 1.058-.03.27-.098.487-.203.653a.838.838 0 01-.382.337c-.165.06-.375.09-.63.09h-14.265c.165 2.37.802 4.11 1.912 5.22 1.11 1.11 2.58 1.665 4.41 1.665.9 0 1.673-.105 2.318-.315.66-.21 1.23-.442 1.71-.697.495-.256.922-.488 1.282-.698.375-.21.735-.315 1.08-.315.225 0 .42.045.585.135.165.09.308.218.428.382l1.62 2.026a9.51 9.51 0 01-2.07 1.822c-.765.48-1.568.87-2.408 1.17a13.43 13.43 0 01-2.542.608c-.855.12-1.688.18-2.498.18-1.605 0-3.097-.263-4.477-.788a10.224 10.224 0 01-3.6-2.362c-1.02-1.05-1.823-2.34-2.408-3.87-.585-1.546-.877-3.33-.877-5.355 0-1.575.255-3.053.765-4.433.51-1.395 1.237-2.602 2.182-3.623.96-1.034 2.123-1.852 3.488-2.452 1.38-.6 2.932-.9 4.657-.9zm.113 3.983c-1.62 0-2.888.457-3.803 1.372s-1.5 2.213-1.755 3.893h10.44c0-.72-.097-1.395-.292-2.025a4.685 4.685 0 00-.9-1.688 4.149 4.149 0 00-1.53-1.125c-.615-.285-1.335-.428-2.16-.428zM639.582 77c-.72 0-1.192-.338-1.417-1.013l-.45-2.227c-.48.54-.983 1.027-1.508 1.462a9.356 9.356 0 01-1.71 1.126c-.6.314-1.252.555-1.957.72-.69.18-1.44.27-2.25.27-1.26 0-2.415-.263-3.465-.788-1.05-.525-1.958-1.282-2.723-2.272-.75-1.006-1.335-2.243-1.755-3.713-.405-1.47-.607-3.15-.607-5.04 0-1.71.232-3.3.697-4.77.465-1.47 1.133-2.745 2.003-3.825a9.219 9.219 0 013.127-2.52c1.215-.615 2.58-.922 4.095-.922 1.29 0 2.393.21 3.308.63a8.473 8.473 0 012.452 1.642V43.565h5.558V77h-3.398zm-7.402-4.073c1.155 0 2.137-.24 2.947-.72s1.575-1.162 2.295-2.047V59.81c-.63-.765-1.32-1.305-2.07-1.62a5.99 5.99 0 00-2.385-.472c-.84 0-1.605.157-2.295.472-.675.315-1.252.795-1.732 1.44-.465.63-.825 1.44-1.08 2.43-.255.975-.383 2.13-.383 3.465 0 1.35.105 2.497.315 3.442.225.93.54 1.695.945 2.296.405.584.9 1.012 1.485 1.282.585.255 1.238.382 1.958.382zm24.809-19.417c.99 0 1.92.105 2.79.315.87.195 1.665.487 2.385.877h6.637v2.07c0 .346-.09.616-.27.81-.18.196-.487.33-.922.405l-2.07.383c.15.39.262.803.337 1.238.09.434.135.892.135 1.372 0 1.14-.232 2.175-.697 3.105a6.79 6.79 0 01-1.89 2.34c-.795.645-1.748 1.148-2.858 1.508-1.095.344-2.287.517-3.577.517-.87 0-1.718-.082-2.543-.248-.72.436-1.08.923-1.08 1.463 0 .465.21.81.63 1.035.435.21.998.36 1.688.45.705.09 1.5.15 2.385.18.885.015 1.792.06 2.722.135.93.075 1.838.21 2.723.405.885.18 1.672.472 2.362.877.705.406 1.268.96 1.688 1.665.435.69.652 1.583.652 2.678 0 1.02-.255 2.01-.765 2.97-.495.96-1.222 1.815-2.182 2.565-.945.75-2.108 1.35-3.488 1.8-1.38.465-2.955.698-4.725.698-1.755 0-3.277-.173-4.567-.518-1.29-.33-2.363-.78-3.218-1.35-.84-.555-1.47-1.2-1.89-1.935-.42-.735-.63-1.5-.63-2.295 0-1.08.33-1.988.99-2.723.66-.735 1.575-1.32 2.745-1.755a3.827 3.827 0 01-1.372-1.26c-.345-.525-.518-1.207-.518-2.047 0-.345.06-.697.18-1.057.12-.376.3-.743.54-1.103.255-.36.57-.698.945-1.013.375-.33.818-.622 1.328-.877-1.17-.63-2.093-1.47-2.768-2.52-.66-1.05-.99-2.28-.99-3.69 0-1.14.225-2.167.675-3.082a6.968 6.968 0 011.913-2.363c.825-.66 1.792-1.162 2.902-1.507 1.125-.346 2.348-.518 3.668-.518zm6.097 24.525c0-.45-.135-.817-.405-1.102-.27-.286-.637-.503-1.102-.653a7.645 7.645 0 00-1.643-.36 25.275 25.275 0 00-1.98-.157 86.12 86.12 0 00-2.16-.113 31.32 31.32 0 01-2.137-.203c-.63.346-1.14.758-1.53 1.238a2.506 2.506 0 00-.563 1.62c0 .405.098.78.293 1.125.21.36.532.667.967.922.45.255 1.028.45 1.733.585.705.15 1.567.225 2.587.225 1.035 0 1.928-.082 2.678-.247.75-.15 1.365-.368 1.845-.653.495-.27.855-.6 1.08-.99a2.36 2.36 0 00.337-1.237zm-6.097-13.14c.69 0 1.29-.09 1.8-.27.51-.195.93-.457 1.26-.788.345-.33.6-.727.765-1.192.18-.465.27-.975.27-1.53 0-1.14-.345-2.04-1.035-2.7-.675-.675-1.695-1.012-3.06-1.012s-2.393.337-3.083 1.012c-.675.66-1.012 1.56-1.012 2.7 0 .54.082 1.042.247 1.508.18.465.435.87.765 1.215.345.33.773.592 1.283.787.525.18 1.125.27 1.8.27zm24.843-11.34c1.455 0 2.79.233 4.005.697a8.705 8.705 0 013.173 2.048c.885.885 1.575 1.98 2.07 3.285.495 1.29.742 2.767.742 4.432 0 .42-.022.773-.067 1.058-.03.27-.098.487-.203.653a.838.838 0 01-.382.337c-.165.06-.375.09-.63.09h-14.265c.165 2.37.802 4.11 1.912 5.22 1.11 1.11 2.58 1.665 4.41 1.665.9 0 1.673-.105 2.318-.315.66-.21 1.23-.442 1.71-.697.495-.256.922-.488 1.282-.698.375-.21.735-.315 1.08-.315.225 0 .42.045.585.135.165.09.308.218.428.382l1.62 2.026a9.51 9.51 0 01-2.07 1.822c-.765.48-1.568.87-2.408 1.17a13.43 13.43 0 01-2.542.608c-.855.12-1.688.18-2.498.18-1.605 0-3.097-.263-4.477-.788a10.224 10.224 0 01-3.6-2.362c-1.02-1.05-1.823-2.34-2.408-3.87-.585-1.546-.877-3.33-.877-5.355 0-1.575.255-3.053.765-4.433.51-1.395 1.237-2.602 2.182-3.623.96-1.034 2.123-1.852 3.488-2.452 1.38-.6 2.932-.9 4.657-.9zm.113 3.983c-1.62 0-2.888.457-3.803 1.372s-1.5 2.213-1.755 3.893h10.44c0-.72-.097-1.395-.292-2.025a4.685 4.685 0 00-.9-1.688 4.149 4.149 0 00-1.53-1.125c-.615-.285-1.335-.428-2.16-.428zM696.33 77V53.915h3.263c.57 0 .967.105 1.192.315.225.21.375.57.45 1.08l.338 2.79c.825-1.425 1.792-2.55 2.902-3.375a6.108 6.108 0 013.735-1.238c1.14 0 2.085.263 2.835.788l-.72 4.163c-.045.27-.142.465-.292.584-.15.105-.353.158-.608.158-.225 0-.532-.053-.922-.157-.39-.106-.908-.158-1.553-.158-1.155 0-2.145.322-2.97.968-.825.63-1.522 1.56-2.092 2.79V77h-5.558zm27.071 0V43.565h5.557v12.848a11.76 11.76 0 012.97-2.07c1.08-.526 2.348-.788 3.803-.788 1.26 0 2.377.218 3.352.653a6.366 6.366 0 012.43 1.8c.66.764 1.155 1.687 1.485 2.767.345 1.065.518 2.242.518 3.532V77h-5.558V62.307c0-1.41-.33-2.497-.99-3.262-.645-.78-1.62-1.17-2.925-1.17-.96 0-1.86.218-2.7.653-.84.434-1.635 1.027-2.385 1.777V77h-5.557zm43.666 0h-2.498c-.525 0-.937-.075-1.237-.225-.3-.165-.525-.488-.675-.968l-.495-1.642c-.585.525-1.163.99-1.733 1.395-.555.39-1.132.72-1.732.99-.6.27-1.238.472-1.913.608-.675.135-1.425.202-2.25.202-.975 0-1.875-.127-2.7-.382a6.067 6.067 0 01-2.137-1.193 5.43 5.43 0 01-1.373-1.957c-.33-.78-.495-1.688-.495-2.723 0-.87.225-1.725.675-2.565.465-.855 1.23-1.62 2.295-2.295 1.065-.69 2.483-1.26 4.253-1.71 1.77-.45 3.967-.705 6.592-.765v-1.35c0-1.545-.33-2.685-.99-3.42-.645-.75-1.59-1.125-2.835-1.125-.9 0-1.65.105-2.25.315-.6.21-1.125.45-1.575.72-.435.255-.84.488-1.215.698-.375.21-.787.315-1.237.315a1.61 1.61 0 01-.968-.293 2.3 2.3 0 01-.652-.72l-1.013-1.777c2.655-2.43 5.858-3.646 9.608-3.646 1.35 0 2.55.225 3.6.675 1.065.435 1.965 1.05 2.7 1.846.735.78 1.29 1.717 1.665 2.812.39 1.095.585 2.295.585 3.6V77zm-10.8-3.465c.57 0 1.095-.052 1.575-.157.48-.106.93-.263 1.35-.473.435-.21.847-.465 1.237-.765.405-.315.81-.683 1.215-1.103v-3.892c-1.62.075-2.977.218-4.072.428-1.08.195-1.95.45-2.61.765-.66.315-1.133.682-1.418 1.102-.27.42-.405.877-.405 1.373 0 .974.285 1.672.855 2.092.585.42 1.343.63 2.273.63zM772.532 77V53.915h3.262c.57 0 .968.105 1.193.315.225.21.375.57.45 1.08l.337 2.79c.825-1.425 1.793-2.55 2.903-3.375a6.108 6.108 0 013.735-1.238c1.14 0 2.085.263 2.835.788l-.72 4.163c-.045.27-.143.465-.293.584-.15.105-.352.158-.607.158-.225 0-.533-.053-.923-.157-.39-.106-.907-.158-1.552-.158-1.155 0-2.145.322-2.97.968-.825.63-1.523 1.56-2.093 2.79V77h-5.557zm34.614 0c-.72 0-1.193-.338-1.418-1.013l-.45-2.227a13.79 13.79 0 01-1.507 1.462 9.356 9.356 0 01-1.71 1.126 8.27 8.27 0 01-1.958.72c-.69.18-1.44.27-2.25.27-1.26 0-2.415-.263-3.465-.788-1.05-.525-1.957-1.282-2.722-2.272-.75-1.006-1.335-2.243-1.755-3.713-.405-1.47-.608-3.15-.608-5.04 0-1.71.233-3.3.698-4.77.465-1.47 1.132-2.745 2.002-3.825a9.222 9.222 0 013.128-2.52c1.215-.615 2.58-.922 4.095-.922 1.29 0 2.392.21 3.307.63a8.478 8.478 0 012.453 1.642V43.565h5.557V77h-3.397zm-7.403-4.073c1.155 0 2.138-.24 2.948-.72s1.575-1.162 2.295-2.047V59.81c-.63-.765-1.32-1.305-2.07-1.62a5.99 5.99 0 00-2.385-.472c-.84 0-1.605.157-2.295.472-.675.315-1.253.795-1.733 1.44-.465.63-.825 1.44-1.08 2.43-.255.975-.382 2.13-.382 3.465 0 1.35.105 2.497.315 3.442.225.93.54 1.695.945 2.296.405.584.9 1.012 1.485 1.282.585.255 1.237.382 1.957.382zm14.009-19.012h4.41c.42 0 .773.098 1.058.293.285.195.465.442.54.742l3.307 12.33c.18.675.323 1.335.428 1.98.12.645.232 1.29.337 1.935.165-.645.338-1.29.518-1.935.195-.645.397-1.305.607-1.98l3.825-12.375c.09-.3.27-.547.54-.742.27-.195.585-.293.945-.293h2.453c.405 0 .742.098 1.012.293.27.195.45.442.54.742l3.78 12.6c.195.645.368 1.275.518 1.89.165.6.322 1.208.472 1.823.105-.645.218-1.29.338-1.936.135-.644.3-1.312.495-2.002l3.42-12.33c.075-.3.255-.547.54-.742a1.71 1.71 0 01.99-.293h4.207L841.72 77h-4.478c-.48 0-.825-.33-1.035-.99l-4.162-13.343a42.84 42.84 0 01-.383-1.305 23.15 23.15 0 01-.27-1.327c-.09.45-.187.9-.292 1.35-.105.435-.225.878-.36 1.328l-4.208 13.297c-.21.66-.615.99-1.215.99h-4.252l-7.313-23.085zM870.25 77h-2.497c-.525 0-.938-.075-1.238-.225-.3-.165-.525-.488-.675-.968l-.495-1.642c-.585.525-1.162.99-1.732 1.395-.555.39-1.133.72-1.733.99a8.89 8.89 0 01-1.912.608c-.675.135-1.425.202-2.25.202-.975 0-1.875-.127-2.7-.382a6.071 6.071 0 01-2.138-1.193 5.427 5.427 0 01-1.372-1.957c-.33-.78-.495-1.688-.495-2.723 0-.87.225-1.725.675-2.565.465-.855 1.23-1.62 2.295-2.295 1.065-.69 2.482-1.26 4.252-1.71 1.77-.45 3.968-.705 6.593-.765v-1.35c0-1.545-.33-2.685-.99-3.42-.645-.75-1.59-1.125-2.835-1.125-.9 0-1.65.105-2.25.315-.6.21-1.125.45-1.575.72-.435.255-.84.488-1.215.698-.375.21-.788.315-1.238.315-.375 0-.697-.098-.967-.293a2.304 2.304 0 01-.653-.72l-1.012-1.777c2.655-2.43 5.857-3.646 9.607-3.646 1.35 0 2.55.225 3.6.675 1.065.435 1.965 1.05 2.7 1.846.735.78 1.29 1.717 1.665 2.812.39 1.095.585 2.295.585 3.6V77zm-10.8-3.465c.57 0 1.095-.052 1.575-.157.48-.106.93-.263 1.35-.473.435-.21.848-.465 1.238-.765.405-.315.81-.683 1.215-1.103v-3.892c-1.62.075-2.978.218-4.073.428-1.08.195-1.95.45-2.61.765-.66.315-1.132.682-1.417 1.102-.27.42-.405.877-.405 1.373 0 .974.285 1.672.855 2.092.585.42 1.342.63 2.272.63zM875.715 77V53.915h3.263c.57 0 .967.105 1.192.315.225.21.375.57.45 1.08l.338 2.79c.825-1.425 1.792-2.55 2.902-3.375a6.108 6.108 0 013.735-1.238c1.14 0 2.085.263 2.835.788l-.72 4.163c-.045.27-.142.465-.292.584-.15.105-.353.158-.608.158-.225 0-.532-.053-.922-.157-.39-.106-.908-.158-1.553-.158-1.155 0-2.145.322-2.97.968-.825.63-1.522 1.56-2.092 2.79V77h-5.558zm27.909-23.445c1.455 0 2.79.233 4.005.697a8.705 8.705 0 013.173 2.048c.885.885 1.575 1.98 2.07 3.285.495 1.29.742 2.767.742 4.432 0 .42-.022.773-.067 1.058-.03.27-.098.487-.203.653a.838.838 0 01-.382.337c-.165.06-.375.09-.63.09h-14.265c.165 2.37.802 4.11 1.912 5.22 1.11 1.11 2.58 1.665 4.41 1.665.9 0 1.673-.105 2.318-.315.66-.21 1.23-.442 1.71-.697.495-.256.922-.488 1.282-.698.375-.21.735-.315 1.08-.315.225 0 .42.045.585.135.165.09.308.218.428.382l1.62 2.026a9.51 9.51 0 01-2.07 1.822c-.765.48-1.568.87-2.408 1.17a13.43 13.43 0 01-2.542.608c-.855.12-1.688.18-2.498.18-1.605 0-3.097-.263-4.477-.788a10.224 10.224 0 01-3.6-2.362c-1.02-1.05-1.823-2.34-2.408-3.87-.585-1.546-.877-3.33-.877-5.355 0-1.575.255-3.053.765-4.433.51-1.395 1.237-2.602 2.182-3.623.96-1.034 2.123-1.852 3.488-2.452 1.38-.6 2.932-.9 4.657-.9zm.113 3.983c-1.62 0-2.888.457-3.803 1.372s-1.5 2.213-1.755 3.893h10.44c0-.72-.097-1.395-.292-2.025a4.685 4.685 0 00-.9-1.688 4.149 4.149 0 00-1.53-1.125c-.615-.285-1.335-.428-2.16-.428zm20.274-3.623h4.41c.42 0 .773.098 1.058.293.285.195.465.442.54.742l3.307 12.33c.18.675.323 1.335.428 1.98.12.645.232 1.29.337 1.935.165-.645.338-1.29.518-1.935.195-.645.397-1.305.607-1.98l3.825-12.375c.09-.3.27-.547.54-.742.27-.195.585-.293.945-.293h2.453c.405 0 .742.098 1.012.293.27.195.45.442.54.742l3.78 12.6c.195.645.368 1.275.518 1.89.165.6.322 1.208.472 1.823.105-.645.218-1.29.338-1.936.135-.644.3-1.312.495-2.002l3.42-12.33c.075-.3.255-.547.54-.742a1.71 1.71 0 01.99-.293h4.207L951.979 77h-4.478c-.48 0-.825-.33-1.035-.99l-4.162-13.343a42.84 42.84 0 01-.383-1.305 23.15 23.15 0 01-.27-1.327c-.09.45-.187.9-.292 1.35-.105.435-.225.878-.36 1.328l-4.208 13.297c-.21.66-.615.99-1.215.99h-4.252l-7.313-23.085zM980.509 77h-2.497c-.525 0-.938-.075-1.238-.225-.3-.165-.525-.488-.675-.968l-.495-1.642c-.585.525-1.162.99-1.732 1.395-.555.39-1.133.72-1.733.99a8.89 8.89 0 01-1.912.608c-.675.135-1.425.202-2.25.202-.975 0-1.875-.127-2.7-.382a6.071 6.071 0 01-2.138-1.193 5.427 5.427 0 01-1.372-1.957c-.33-.78-.495-1.688-.495-2.723 0-.87.225-1.725.675-2.565.465-.855 1.23-1.62 2.295-2.295 1.065-.69 2.482-1.26 4.252-1.71 1.77-.45 3.968-.705 6.593-.765v-1.35c0-1.545-.33-2.685-.99-3.42-.645-.75-1.59-1.125-2.835-1.125-.9 0-1.65.105-2.25.315-.6.21-1.125.45-1.575.72-.435.255-.84.488-1.215.698-.375.21-.788.315-1.238.315-.375 0-.697-.098-.967-.293a2.304 2.304 0 01-.653-.72l-1.012-1.777c2.655-2.43 5.857-3.646 9.607-3.646 1.35 0 2.55.225 3.6.675 1.065.435 1.965 1.05 2.7 1.846.735.78 1.29 1.717 1.665 2.812.39 1.095.585 2.295.585 3.6V77zm-10.8-3.465c.57 0 1.095-.052 1.575-.157.48-.106.93-.263 1.35-.473.435-.21.848-.465 1.238-.765.405-.315.81-.683 1.215-1.103v-3.892c-1.62.075-2.978.218-4.073.428-1.08.195-1.95.45-2.61.765-.66.315-1.132.682-1.417 1.102-.27.42-.405.877-.405 1.373 0 .974.285 1.672.855 2.092.585.42 1.342.63 2.272.63zm22.182-29.97V77h-5.557V43.565h5.557zm12.219 0V77h-5.559V43.565h5.559zm15.84 9.99c1.45 0 2.79.233 4 .697a8.775 8.775 0 013.18 2.048c.88.885 1.57 1.98 2.07 3.285.49 1.29.74 2.767.74 4.432 0 .42-.02.773-.07 1.058-.03.27-.1.487-.2.653a.859.859 0 01-.38.337c-.17.06-.38.09-.63.09h-14.27c.17 2.37.8 4.11 1.91 5.22 1.11 1.11 2.58 1.665 4.41 1.665.9 0 1.68-.105 2.32-.315.66-.21 1.23-.442 1.71-.697.5-.256.92-.488 1.28-.698.38-.21.74-.315 1.08-.315.23 0 .42.045.59.135.16.09.31.218.43.382l1.62 2.026a9.748 9.748 0 01-2.07 1.822c-.77.48-1.57.87-2.41 1.17-.83.285-1.67.487-2.54.608-.86.12-1.69.18-2.5.18-1.61 0-3.1-.263-4.48-.788a10.224 10.224 0 01-3.6-2.362c-1.02-1.05-1.82-2.34-2.41-3.87-.58-1.546-.87-3.33-.87-5.355 0-1.575.25-3.053.76-4.433.51-1.395 1.24-2.602 2.18-3.623.96-1.034 2.13-1.852 3.49-2.452 1.38-.6 2.93-.9 4.66-.9zm.11 3.983c-1.62 0-2.89.457-3.8 1.372-.92.915-1.5 2.213-1.76 3.893h10.44c0-.72-.09-1.395-.29-2.025a4.536 4.536 0 00-.9-1.688c-.4-.48-.91-.855-1.53-1.125-.61-.285-1.33-.428-2.16-.428zm21.97 19.822c-2 0-3.53-.563-4.61-1.688-1.08-1.14-1.62-2.707-1.62-4.702V58.078h-2.34c-.3 0-.57-.098-.79-.293-.21-.195-.32-.487-.32-.877v-2.206l3.72-.607 1.17-6.3c.06-.3.19-.532.4-.698.23-.165.5-.247.83-.247h2.88v7.267h6.08v3.96h-6.08v12.51c0 .72.18 1.283.54 1.688.36.405.84.607 1.44.607.35 0 .63-.037.86-.112.24-.09.44-.18.61-.27.18-.09.33-.172.47-.248a.71.71 0 01.4-.134c.17 0 .3.044.41.135.1.075.22.195.34.36l1.66 2.7a8.413 8.413 0 01-2.79 1.53 10.42 10.42 0 01-3.26.517z"/><path fill="#142533" d="M112.114 35H92.959v25.841h25.862V41.686a6.692 6.692 0 00-1.966-4.735A6.68 6.68 0 00112.114 35zm-25.127 0h-3.3A6.686 6.686 0 0077 41.686v3.301h9.987V35zM77 50.959h9.987v9.987H77V50.96zm31.916 25.861h3.301a6.688 6.688 0 006.686-6.706v-3.197h-9.987v9.904zm-15.957-9.902h9.987v9.987h-9.987v-9.987zm-15.959 0v3.3a6.686 6.686 0 006.686 6.687h3.301v-9.987H77zm67.346-29.248h-3.91v36.565h20.71v-3.49h-16.8V37.67zm29.373 9.693c-7.611 0-12.973 5.656-12.973 13.793v.926a13.355 13.355 0 0013.268 12.867h.504a14.99 14.99 0 009.714-3.595v-.105l-1.766-2.88-.189.105a11.5 11.5 0 01-7.738 3.09 9.675 9.675 0 01-9.22-6.14 9.675 9.675 0 01-.662-3.847h19.764v-2.06c.19-7.423-4.121-12.154-10.702-12.154zm-8.852 10.913a8.662 8.662 0 018.642-7.633c3.301 0 6.917 1.977 7.212 7.633h-15.854zm42.492-7.822v1.367a9.31 9.31 0 00-7.926-4.52h-.484c-7.002 0-11.838 5.55-11.838 13.687s4.626 13.814 11.523 13.814a9.63 9.63 0 008.767-4.752v4.016h3.701V37.67h-3.743v12.784zm-8.032 20.9c-4.836 0-8.031-4.205-8.031-10.303 0-6.097 3.385-10.197 8.137-10.197 3.931 0 7.926 3.196 7.926 10.197 0 7.59-4.205 10.303-8.116 10.303h.084zm34.42-20.395v.21c-.736-1.24-2.986-3.91-8.41-3.91-6.897 0-11.439 5.256-11.439 13.288s4.752 13.477 11.754 13.477a8.747 8.747 0 008.137-4.205v3.617c0 5.046-3.196 7.926-8.873 7.926a15.349 15.349 0 01-7.044-1.66l-.189-.106-1.451 3.196.211.105A19.471 19.471 0 00224.979 85c6.077 0 12.616-3.09 12.616-11.648V48.12h-3.848v2.839zm-7.632 19.785c-5.047 0-8.411-3.91-8.411-9.987s2.881-9.693 7.822-9.693c5.446 0 8.032 3.196 8.032 9.693s-2.502 9.987-7.443 9.987zm27.001-23.381c-7.633 0-12.889 5.656-12.889 13.688v.925A13.392 13.392 0 00253.62 74.95h.526a14.97 14.97 0 009.672-3.617l-1.787-3.07h-.211a11.458 11.458 0 01-7.716 3.091 9.693 9.693 0 01-9.904-9.987h19.933v-2.06c0-7.213-4.331-11.944-11.017-11.944zm-8.768 10.913a8.68 8.68 0 018.662-7.633c3.28 0 6.897 1.977 7.191 7.633h-15.853zm35.846-10.408c-.525 0-.925 0-1.45-.21a8.83 8.83 0 00-8.137 6.076v-5.866h-3.806v26.261h3.911V63.112c.013-1.694.29-3.375.82-4.983 1.24-4.016 4.016-6.581 7.317-6.581a6.146 6.146 0 011.24 0h.211v-3.68h-.106z"/><defs><linearGradient id="paint0_linear" x1="297" x2="1554.5" y1="40.5" y2="125.5" gradientUnits="userSpaceOnUse"><stop stop-color="#6BC9B5"/><stop offset=".805" stop-color="#6BC9B5" stop-opacity="0"/><stop offset=".976" stop-color="#E8EDEA" stop-opacity=".66"/></linearGradient><filter id="filter0_d" width="889" height="524" x="342" y="-199" color-interpolation-filters="sRGB" filterUnits="userSpaceOnUse"><feFlood flood-opacity="0" result="BackgroundImageFix"/><feColorMatrix in="SourceAlpha" values="0 0 0 0 0 0 0 0 0 0 0 0 0 0 0 0 0 0 127 0"/><feOffset dx="-6" dy="3"/><feGaussianBlur stdDeviation="5"/><feColorMatrix values="0 0 0 0 0.733333 0 0 0 0 0.733333 0 0 0 0 0.733333 0 0 0 0.5 0"/><feBlend in2="BackgroundImageFix" result="effect1_dropShadow"/><feBlend in="SourceGraphic" in2="effect1_dropShadow" result="shape"/></filter></defs></svg>