<svg xmlns="http://www.w3.org/2000/svg" fill="none" viewBox="0 0 23 24"><path fill="#424242" fill-rule="evenodd" d="M16.164.034a1 1 0 011.225.707l4.59 17.134.006.02a4.217 4.217 0 01-3.828 5.99H1a1 1 0 01-1-1.001V16.45a1 1 0 011-1h11.176L8.837 3.034a1 1 0 01.707-1.226l6.62-1.774zm-.448 2.191l3.586 13.382a4.219 4.219 0 00-1.145-.157h-3.91L11.028 3.481l4.688-1.256zM2 17.45v4.434h16.157a2.217 2.217 0 100-4.434H2zm16.05 3.596a1.379 1.379 0 100-2.758 1.379 1.379 0 000 2.758z" clip-rule="evenodd"/><path stroke="#424242" stroke-linecap="round" stroke-linejoin="round" stroke-miterlimit="10" stroke-width="2" d="M5.173 19.65h5.001"/></svg>