<svg xmlns="http://www.w3.org/2000/svg" fill="none" viewBox="0 0 24 24"><path fill="#55B6E2" d="M22.969 0H1.03C.72 0 .47.094.281.281.094.47 0 .72 0 1.031V22.97c0 .312.094.562.281.75.188.187.438.281.75.281H22.97c.312 0 .562-.094.75-.281.187-.188.281-.438.281-.75V1.03c0-.312-.094-.562-.281-.75-.19-.186-.44-.28-.751-.28zM7.125 20.438H3.562V9h3.563v11.438zM5.344 7.405a2.069 2.069 0 01-1.453-.562c-.407-.375-.61-.86-.61-1.453 0-.594.203-1.079.61-1.454.406-.374.89-.562 1.453-.562a2.07 2.07 0 011.453.563c.406.374.61.843.61 1.406 0 .562-.204 1.047-.61 1.453-.406.406-.89.61-1.453.61zm15.093 13.032h-3.562v-5.532c0-.937-.063-1.625-.188-2.062-.25-.688-.796-1.031-1.64-1.031-.844 0-1.422.312-1.735.937-.25.438-.374 1.125-.374 2.063v5.624H9.374V9h3.375v1.594h.094c.25-.5.672-.938 1.265-1.313.594-.375 1.266-.562 2.016-.562 1.688 0 2.844.5 3.469 1.5.562.875.843 2.187.843 3.937v6.281z"/></svg>