<svg xmlns="http://www.w3.org/2000/svg" fill="none" viewBox="0 0 24 24"><path fill="#55B6E2" d="M22.969 0H1.03C.72 0 .47.094.281.281.094.47 0 .72 0 1.031V22.97c0 .312.094.562.281.75.188.187.438.281.75.281H22.97c.312 0 .562-.094.75-.281.187-.188.281-.438.281-.75V1.03c0-.312-.094-.562-.281-.75-.19-.186-.44-.28-.751-.28zm-3 5.719l-1.313 1.218c-.125.063-.187.188-.187.375v9c0 .188.062.313.187.375l1.219 1.22v.28h-6.281v-.28l1.312-1.22L15 16.5V9l-3.563 9.188h-.562L6.656 9v6.188a.9.9 0 00.282.656l1.687 2.062v.282H3.844v-.282l1.687-2.062a.651.651 0 00.188-.656V8.061c0-.25-.063-.437-.188-.562l-1.5-1.781v-.282H8.72l3.562 7.875 3.188-7.874h4.5v.28z"/></svg>