<svg xmlns="http://www.w3.org/2000/svg" width="71" height="77" fill="none"><path fill="#4492B5" stroke="#FBAE28" stroke-linecap="round" stroke-linejoin="round" stroke-miterlimit="10" stroke-width="2.039" d="M65.946 52.395L34.162 75 2.784 52.395V2h63.162v50.395z"/><path fill="#55B6E2" d="M6.351 51.18l30.487 21.956 29.108-20.74V2H6.351v49.18z"/><path stroke="#B6BFC7" stroke-linecap="round" stroke-linejoin="round" stroke-miterlimit="10" stroke-width="1.505" d="M5.297 59.2L1 56.042m20.028 14.502L9.19 61.956M70 13.91v17.257M70 2v5.59" opacity=".4"/><path stroke="#153150" stroke-linecap="round" stroke-linejoin="round" stroke-miterlimit="10" stroke-width="2.257" d="M65.946 52.395L34.162 75 2.784 52.395V2h63.162v50.395z"/><path fill="#000" d="M53.933 37.248C53.955 25.12 44.135 15.273 32 15.25c-12.135-.022-21.991 9.79-22.013 21.917-.022 12.126 9.798 21.974 21.933 21.996 12.136.023 21.991-9.79 22.013-21.916z" opacity=".2"/><path fill="#fff" stroke="#153150" stroke-linecap="round" stroke-linejoin="round" stroke-miterlimit="10" stroke-width="1.505" d="M55.892 33.102c.022-11.992-9.69-21.732-21.69-21.753-12.001-.022-21.748 9.682-21.77 21.674-.021 11.992 9.69 21.731 21.69 21.753 12.002.022 21.748-9.682 21.77-21.674z"/><path fill="#fff" d="M56.135 33.102c.022-12.126-9.797-21.974-21.933-21.996-12.135-.023-21.99 9.79-22.013 21.916-.022 12.127 9.798 21.975 21.933 21.997 12.136.022 21.991-9.79 22.013-21.917z"/><path stroke="#153150" stroke-linecap="round" stroke-linejoin="round" stroke-miterlimit="10" stroke-width="2.118" d="M55.892 33.102c.022-11.992-9.69-21.732-21.69-21.753-12.001-.022-21.748 9.682-21.77 21.674-.021 11.992 9.69 21.731 21.69 21.753 12.002.022 21.748-9.682 21.77-21.674z"/><path stroke="#fff" stroke-linecap="round" stroke-linejoin="round" stroke-miterlimit="10" stroke-width="2.039" d="M34.324 27.44l2.19 3.242 3.648 1.296"/><path fill="#55B6E2" d="M42.652 46.725l-8.426-3.327-8.426 2.588.092-8.871-5.463-7.393 8.52-2.218 5.092-7.116 5.093 7.578 8.611 2.957-5.37 6.93.277 8.872z"/><path fill="#4492B5" d="M42.652 47.65c-.093 0-.185 0-.37-.093l-8.149-3.142-8.056 2.495c-.277.093-.555 0-.833-.185-.278-.184-.37-.462-.37-.739l.092-8.594-5.278-7.116c-.185-.277-.277-.554-.092-.831.092-.277.37-.555.648-.555l8.24-2.125 4.816-6.838c.185-.278.463-.37.74-.37.278 0 .556.185.741.37l5 7.3 8.242 2.865c.277.092.462.37.555.646.093.278 0 .555-.185.832l-5.185 6.561.277 8.594c0 .277-.092.647-.37.74-.093.184-.278.184-.463.184zm-8.426-5.176c.092 0 .185 0 .37.093l7.13 2.772-.278-7.577c0-.185.093-.462.185-.555l4.538-5.822-7.315-2.495c-.186-.092-.37-.185-.463-.37l-4.445-6.468-4.26 6.007c-.092.184-.277.277-.555.37l-7.222 1.847 4.63 6.284c.092.185.185.37.185.555v7.67l7.222-2.218c.093 0 .185-.093.278-.093z"/><path fill="#153150" d="M29.254 34.152h1.504v-4.327c0-.168.005-.344.016-.529l-1.068.893a.374.374 0 01-.139.077.45.45 0 01-.323-.02.378.378 0 01-.123-.103l-.4-.549 2.263-1.925h1.042v6.483h1.334v.95h-4.106v-.95zm7.664-6.555c.342 0 .656.052.94.154.284.1.527.242.728.426.202.185.36.407.473.668.113.26.169.549.169.867 0 .274-.041.527-.123.76a3.005 3.005 0 01-.324.667c-.133.212-.29.417-.472.616-.181.198-.371.4-.57.606l-1.673 1.709c.164-.048.325-.084.483-.108.157-.028.308-.041.451-.041h1.905a.44.44 0 01.323.118.39.39 0 01.123.303v.76H34.26v-.422c0-.085.017-.174.05-.267a.78.78 0 01.175-.256l2.254-2.258c.188-.192.355-.375.503-.55a3.44 3.44 0 00.374-.518c.103-.171.18-.344.231-.518a1.89 1.89 0 00.082-.56 1.28 1.28 0 00-.077-.467.916.916 0 00-.22-.344.896.896 0 00-.344-.205 1.27 1.27 0 00-.442-.072c-.304 0-.556.077-.754.23a1.216 1.216 0 00-.41.622.53.53 0 01-.17.282.477.477 0 01-.288.082c-.05 0-.107-.005-.169-.015l-.667-.118a2.72 2.72 0 01.297-.934c.148-.27.33-.495.55-.673.222-.18.475-.316.76-.405.287-.093.595-.139.923-.139zm-6.834 11.745v-2.873h.422c.09 0 .149.042.177.126l.044.213c.05-.056.103-.107.157-.154a.937.937 0 01.616-.23c.181 0 .33.05.445.149a.869.869 0 01.263.39.9.9 0 01.39-.411c.08-.044.165-.076.254-.097a1.287 1.287 0 01.697.042.81.81 0 01.311.213.922.922 0 01.19.342c.045.134.068.288.068.462v1.828h-.692v-1.828c0-.183-.04-.32-.12-.412-.08-.093-.198-.14-.353-.14a.48.48 0 00-.358.143.475.475 0 00-.107.17.67.67 0 00-.039.239v1.828h-.694v-1.828c0-.193-.04-.333-.118-.42-.076-.088-.19-.132-.341-.132a.553.553 0 00-.28.076.922.922 0 00-.241.201v2.103h-.691zm5.94-2.917c.214 0 .408.034.582.103.175.07.324.167.447.294a1.3 1.3 0 01.286.465c.067.183.1.387.1.613 0 .228-.033.433-.1.616a1.239 1.239 0 01-.733.764c-.174.07-.368.104-.583.104-.214 0-.41-.035-.585-.104a1.266 1.266 0 01-.45-.297 1.363 1.363 0 01-.289-.467 1.776 1.776 0 01-.1-.616c0-.226.033-.43.1-.613a1.35 1.35 0 01.288-.465c.125-.127.276-.225.451-.294.175-.069.37-.103.585-.103zm0 2.427c.238 0 .414-.08.528-.24.116-.161.174-.397.174-.706 0-.31-.058-.546-.174-.709-.114-.162-.29-.243-.529-.243-.242 0-.422.082-.537.246-.116.162-.174.398-.174.706 0 .308.058.543.174.705.115.16.295.24.537.24zm1.79.109a.424.424 0 01.12-.3.46.46 0 01.138-.09.421.421 0 01.333 0 .424.424 0 01.224.225.421.421 0 01-.09.465.388.388 0 01-.134.086.421.421 0 01-.333 0 .418.418 0 01-.137-.086.433.433 0 01-.09-.132.455.455 0 01-.03-.168z"/></svg>