<svg xmlns="http://www.w3.org/2000/svg" width="300" height="274" fill="none"><path fill="#fff" d="M70.097 96.207s-24.93-14.17-20.477-41.452c4.452-27.283 7.014-39.87-6.102-40.821-13.116-.952-16.054 33.857-9.344 54.945 6.71 21.088 18.933 34.336 30.053 40.087"/><path fill="#153150" d="M64.078 111.015l-.82-.059c-13.518-6.75-24.803-21.578-31.222-40.997-4.958-16.84-5.044-44.04 3.107-54.161 2.287-3.13 5.275-4.562 8.554-4.324 4.098.298 6.878 1.736 8.779 3.934 4.502 6.095 2.82 17.921-.658 37.446l-.119 1.64c-4.333 25.642 19.396 39.313 19.396 39.313.79.47 1.52 1.759.612 2.929-.47.79-1.758 1.52-2.929.611-.41-.03-26.099-15.078-21.557-43.59l.119-1.64c2.948-17.915 5.04-29.712 1.269-34.518-.76-.879-2.78-1.438-5.65-1.646-1.639-.119-3.338.582-4.716 2.542-6.363 8.19-7.767 33.222-1.99 50.122 6.07 18.57 16.594 32.518 28.913 38.769 1.2.499 1.52 1.758 1.05 2.548-.468.79-1.318 1.14-2.138 1.081z"/><path fill="#fff" d="M125.076 229.984c-6.207.374-18.064-.899-24.241-.935-10.716.046-6.84 14.749 12.953 14.537 6.178.036 14.934-1.388 19.211-3.55 3.018-1.841 5.573-8.66-7.923-10.052z"/><path fill="#153150" d="M110.361 245.396c-8.607-.625-13.698-4.291-15.919-7.748-1.46-2.578-1.692-5.067-.314-7.027.909-1.17 2.727-3.51 7.235-3.183 2.46.178 6.178.036 9.867.304 5.328.387 10.656.773 14.375.631l.41.03c8.987 1.064 11.618 4.551 11.849 7.04.612 2.929-1.236 5.679-3.374 6.76-4.687 2.132-13.443 3.556-20.031 3.49l-4.098-.297zm14.976-13.334c-3.718.142-9.456-.274-14.814-.251-3.689-.268-6.968-.506-9.457-.275-1.64-.119-2.929.612-3.398 1.402-.47.79-.149 2.049.611 2.928 1.842 3.018 6.962 6.274 16.068 5.699 6.178.036 14.524-1.418 18.361-3.2.44-.38 1.349-1.55 1.408-2.37-1.11-1.729-3.451-3.546-8.779-3.933z"/><path fill="#FFD168" d="M132.38 191.784c-2.264 8.488-4.772 26.023-8.593 38.93-.648 3.249 6.201 5.395 6.849 2.145 0 0 9.869-28.125 12.193-37.433 2.323-9.308-8.565-12.57-10.449-3.642z"/><path fill="#153150" d="M127.908 236.37c-1.639-.119-3.249-.647-4.389-1.966-1.14-1.319-1.871-2.608-1.342-4.218 2.234-8.078 4.178-17.826 5.622-26.373 1.207-5.269 1.914-9.338 2.591-12.997 1.237-5.679 5.484-7.431 9.113-6.343 3.63 1.087 7.051 5.044 5.785 11.132-2.324 9.308-11.694 36.234-12.193 37.434-.09 1.229-1.409 2.369-2.668 2.69-1.289.731-2.109.671-2.519.641zm6.492-44.027c-.648 3.249-1.795 7.698-2.562 12.587-1.854 8.518-3.388 18.295-6.032 26.344 0 0-.029.409.38.439 1.2.499 2.02.559 2.43.588.03-.409 9.869-28.125 12.193-37.433.678-3.659-.813-5.827-2.423-6.356-1.229-.089-3.338.582-3.986 3.831z"/><path fill="#fff" d="M168.247 242.593c4.71 3.226 14.689 7.659 19.75 11.734 9.331 7.682-1.22 16.805-18.51 5.249-5.12-3.255-8.69-5.163-11.642-9.909-2.981-4.337-1.917-13.324 10.402-7.074z"/><path fill="#153150" d="M182.976 266.737c-4.099-.298-9.338-1.914-14.808-6.019l-2.37-1.408c-3.92-2.757-7.49-4.664-10.061-8.971-1.842-3.018-2.364-7.176.304-9.867 1.788-1.93 5.625-3.711 13.175.133l.41.029c1.96 1.379 5.12 3.256 8.309 4.724 4.36 2.376 8.72 4.753 11.44 7.01 5.061 4.076 4.734 8.584 3.325 10.954-2.257 2.72-5.215 3.742-9.724 3.415zm-21.316-24.209c-1.23-.089-2.079.262-2.519.642-.909 1.17-.678 3.659.053 4.948 2.221 3.457 4.971 5.305 8.921 7.652l2.37 1.408c9.83 6.481 16.887 5.757 18.705 3.417.909-1.17-.172-3.308-2.512-5.126-2.72-2.258-6.7-4.195-10.65-6.542-3.16-1.877-6.759-3.374-8.69-5.162-2.429-.589-4.449-1.147-5.678-1.237z"/><path fill="#FFD168" d="M169.404 203.947c-2.294 8.898-3.573 26.522-6.604 39.899-.618 2.839 6.231 4.985 6.849 2.145 0 0 8.289-29.064 10.583-37.962 2.294-8.898-8.564-12.57-10.828-4.082z"/><path fill="#153150" d="M166.922 249.501c-1.639-.119-3.659-.678-4.799-1.996-1.141-1.319-1.461-2.579-1.372-3.808 1.735-6.879 2.77-15.456 3.715-22.804.886-6.528 1.742-12.646 2.889-17.095.648-3.249 2.875-5.56 5.394-6.201s4.948-.053 6.878 1.735c2.311 2.228 3.303 5.596 2.215 9.225-2.323 9.308-10.173 37.992-10.613 38.372-.089 1.23-1.408 2.37-2.667 2.691l-1.64-.119zm-2.102-5.097s.38.44 1.17.909c.79.469 1.639.119 1.639.119s8.26-28.654 10.174-37.992c.588-2.429.297-4.098-1.253-5.447-.76-.879-1.99-.968-2.839-.618-1.259.321-2.168 1.491-2.727 3.51-1.117 4.039-1.973 10.158-2.859 16.686-.506 6.967-1.54 15.545-3.305 22.833z"/><path fill="#0DBAEC" d="M91.115 22.331c1.825-8.108 9.12-12.11 17.667-10.666 29.302 5.01 131.63 31.39 171.991 42.971 7.259 2.175 12.931 9.179 10.607 18.487-1.765 7.288-7 28.333-7 28.333l.03-.409-11.298 47.798-202.493-48.481 20.496-78.033z"/><path fill="#153150" d="M284.106 110.913l-4.039-1.117 8.914-37.671c1.854-8.518-3.087-14.233-9.146-15.909-37.552-10.553-141.46-37.872-171.611-42.532-7.728-1.385-13.764 2.298-15.499 9.176-.09 1.23-1.378 1.96-2.578 1.461-1.23-.09-1.96-1.378-1.461-2.578 2.294-8.898 10.498-14.071 19.835-12.157 30.942 5.13 134.849 32.447 172.431 42.591 8.078 2.234 14.511 10.118 12.068 21.065l-8.914 37.671zm-8.082-24.896c-1.61-.528-1.96-1.378-1.871-2.608l1.088-3.629c1.206-5.269-2.096-10.865-7.745-12.51C230.473 55.105 153.17 35.9 111.691 28.356c-3.659-.678-7.086 1.133-7.734 4.383l-1.296 6.498c-.089 1.23-1.378 1.96-2.578 1.46-1.23-.088-1.96-1.377-1.461-2.577l1.706-6.469c1.206-5.269 6.802-8.57 12.51-7.744 41.479 7.542 119.191 26.779 156.215 38.942 7.638 2.615 12.051 9.94 10.256 17.637l-1.087 3.63c-.089 1.23-.968 1.99-2.198 1.9z"/><path fill="#153150" d="M102.347 32.212s121.911 29.037 174.569 41.51c6.849 2.146 11.939 5.811 8.439 19.978 0 0 1.414-8.138-18.461-12.464-19.875-4.327-164.702-41.207-164.702-41.207-17.529-8.276-12.389-22.324 5.11-13.638-5.246 4.152-4.955 5.821-4.955 5.821z" opacity=".1"/><path fill="#0D88CA" d="M273.231 147.207c8.31 4.723 12.921-7.715 16.421-21.881 1.795-7.699-.949-15.314-6.36-20.239l-10.061 42.12z"/><path fill="#153150" d="M275.892 150.284c-1.23-.089-2.429-.588-3.629-1.087-.79-.469-1.141-1.319-1.081-2.139l10.061-42.12c.06-.82.499-1.2 1.349-1.55.849-.35 1.639.119 2.019.559 6.171 5.804 8.855 14.239 7.031 22.347-3.5 14.167-7.344 21.716-12.031 23.848-.82-.059-2.079.261-3.719.142zm-.522-4.158c1.229.089 1.639.119 2.489-.231 3.398-1.402 6.802-8.571 9.774-21.128 1.206-5.269-.017-11.126-3.408-15.492l-8.855 36.851z"/><path fill="#0DBAEC" d="M239.002 227.126c-62.263-10.699-112.402-23.814-171.991-42.972-8.459-2.673-11.552-11.138-10.667-17.667 6.961-44.817 17.528-93.905 34.801-144.566-2.353 9.718 3.758 16.342 10.607 18.487 58.128 16.579 114.795 30.58 171.991 42.971 4.039 1.117 7.17 3.405 8.981 6.832 1.841 3.018 2.773 7.206 1.656 11.245 0 0-20.301 86.7-27.741 115.413-2.175 7.259-9.09 11.701-17.637 10.257z"/><path fill="#153150" d="M240.902 229.326l-2.049-.149c-57.814-9.552-107.573-22.228-171.991-42.972-9.658-3.173-13.103-12.487-12.157-19.835 7.906-52.165 19.173-99.554 34.45-145.416.5-1.2 1.349-1.55 2.579-1.46 1.2.498 1.55 1.348 1.46 2.577-1.854 8.518 3.498 14.263 9.146 15.909 58.129 16.58 114.386 30.55 171.582 42.942 4.449 1.147 7.959 3.874 10.56 7.77 2.192 3.868 3.094 8.466 1.977 12.505-.059.819-20.331 87.109-27.741 115.413-2.264 8.488-9.209 13.34-17.816 12.716zM89.582 32.11c-13.78 42.262-24.02 86.841-31.218 134.938-.826 5.708 1.537 12.884 9.176 15.498 64.008 20.714 113.796 32.98 171.61 42.532 7.318 1.355 13.354-2.327 15.499-9.175 7.411-28.304 27.272-114.624 27.741-115.414.648-3.249.066-6.587-1.365-9.575-1.841-3.018-4.591-4.866-7.811-5.923-57.196-12.392-113.453-26.363-171.991-42.972-4.859-1.177-9.539-4.813-11.641-9.91z"/><path fill="#153150" d="M239.388 221.8l-2.049-.149c-1.23-.089-1.96-1.378-1.461-2.578.089-1.23 1.378-1.96 2.578-1.461 2.02.558 4.099.297 5.827-.813 1.729-1.111 3.078-2.661 3.226-4.711.09-1.229 1.379-1.96 2.579-1.461 1.229.09 1.96 1.379 1.461 2.579-.648 3.249-2.466 5.589-5.044 7.05-2.549 1.051-4.658 1.722-7.117 1.544zm36.586-118.068c-.41-.03-.41-.03 0 0-1.609-.529-1.96-1.378-1.871-2.608 1.118-4.039-1.454-8.346-5.523-9.053-1.229-.09-1.96-1.378-1.461-2.578.089-1.23 1.349-1.55 2.578-1.461 6.059 1.675 10.151 7.74 8.446 14.209-.47.79-1.349 1.551-2.169 1.491z"/><path fill="#153150" d="M271.06 177.127c-5.265 21.455-78.221 16.161-68.808-22.71 10.561-43.321 62.99-10.674 78.251-16.571 0 0-6.591 28.363-9.443 39.281z" opacity=".1"/><path fill="#0DBAEC" d="M254.92 183.784l-20.725-3.976c-27.223-5.272-17.542-47.832 10.091-42.53l20.724 3.976c10.978 2.032 21.789-5.011 24.262-16.369l.089-1.229-9.77 43.789c-2.883 11.328-13.694 18.371-24.671 16.339z"/><path fill="#153150" d="M257.23 186.012l-2.869-.208-20.725-3.976c-15.016-3.15-19.452-15.833-17.419-26.81 2.532-12.177 12.762-22.559 28.188-19.379l20.725 3.976c9.747 1.943 19.709-4.75 22.092-14.878l.09-1.229c.089-1.23 1.378-1.96 2.578-1.461 1.229.089 1.96 1.378 1.461 2.578l-10.56 43.32c-2.063 11.387-12.495 18.87-23.561 18.067zm-15.932-47.302c-11.066-.804-18.659 7.298-20.572 16.635-1.914 9.338 1.88 19.502 14.057 22.034l20.725 3.976c9.747 1.944 19.71-4.75 22.093-14.877l7.09-29.564c-5.305 4.972-12.481 7.335-19.77 5.57l-20.724-3.976c-1.26.32-2.079.261-2.899.202z"/><path fill="#FFD168" d="M250.818 160.825c3.5-14.167-17.225-18.143-20.725-3.976-3.47 13.757 17.254 17.733 20.725 3.976z"/><path fill="#153150" d="M238.918 171.499c-2.869-.208-5.678-1.236-7.989-3.464-3.071-3.107-4.413-7.325-3.266-11.774 1.177-4.859 4.314-8.339 8.941-9.652 4.628-1.312 9.487-.135 12.557 2.972 3.071 3.107 4.413 7.325 3.266 11.774-1.177 4.858-4.313 8.339-8.941 9.651-1.259.321-2.928.612-4.568.493zm2.396-21.664c-1.229-.089-2.049-.148-3.308.172-2.958 1.022-5.186 3.332-5.834 6.581-1.117 4.039.344 6.618 1.894 7.966 2.31 2.228 5.56 2.876 8.518 1.854 2.958-1.021 5.186-3.331 5.834-6.581 1.117-4.039-.344-6.617-1.894-7.965-1.17-.909-3.16-1.878-5.21-2.027zm29.663 22.753c-1.609-.529-1.96-1.378-1.87-2.608l4.058-16.186c.09-1.23 1.379-1.96 2.579-1.461 1.229.089 1.96 1.378 1.461 2.578l-4.059 16.186c-.06.82-.939 1.58-2.169 1.491zm-136.271-69.631c-.409-.03-1.229-.09-1.609-.529-.761-.88-.671-2.109.208-2.87 3.956-3.42 9.404-4.673 14.233-3.087 1.2.5 1.96 1.379 1.461 2.578-.499 1.2-1.379 1.961-2.578 1.462-3.63-1.088-7.408-.126-10.455 2.125 0 0-.85.35-1.26.321z"/><path fill="#1E324D" d="M149.942 112.221a6.575 6.575 0 10-12.617-3.707 6.575 6.575 0 0012.617 3.707z"/><path fill="#153150" d="M143.033 118.806l-1.639-.119c-2.02-.559-3.98-1.937-5.061-4.076-1.081-2.138-1.342-4.217-.754-6.647.559-2.019 1.937-3.98 4.076-5.06 2.138-1.081 4.218-1.342 6.647-.754 2.02.559 3.98 1.937 5.061 4.075 1.08 2.139 1.342 4.218.753 6.647-1.527 4.01-5.394 6.201-9.083 5.934zm.922-12.706c-.82-.06-1.669.291-2.518.641-.85.35-1.759 1.521-2.258 2.72-.499 1.2-.149 2.05.172 3.309.35.85 1.52 1.759 2.72 2.258 2.43.588 4.568-.493 5.157-2.922.499-1.2.148-2.05-.172-3.309-.321-1.259-1.521-1.758-2.721-2.258.03-.409-.38-.439-.38-.439z"/><path fill="#fff" d="M144.677 108.525a2.466 2.466 0 10-4.731-1.39 2.466 2.466 0 004.731 1.39z"/><path fill="#153150" d="M209.282 125.674c-.819-.06-1.609-.529-1.93-1.789-.962-3.778-3.213-6.825-6.842-7.912-1.2-.5-1.521-1.759-1.461-2.579.499-1.2 1.758-1.52 2.578-1.461 4.8 1.997 8.63 5.983 9.503 10.991.321 1.259-.588 2.429-1.818 2.34.38.439-.03.41-.03.41z"/><path fill="#1E324D" d="M202.747 127.987a6.575 6.575 0 10-12.616-3.708 6.575 6.575 0 0012.616 3.708z"/><path fill="#153150" d="M195.863 134.588l-1.64-.119c-2.019-.559-3.979-1.937-5.06-4.076-1.081-2.138-1.342-4.217-.754-6.647 1.147-4.449 5.864-6.991 10.723-5.814 2.019.559 3.979 1.937 5.06 4.075 1.081 2.139 1.342 4.218.754 6.647-.559 2.02-1.937 3.98-4.076 5.061-1.699.701-3.368.992-5.007.873zm.922-12.706c-2.049-.149-3.778.962-4.337 2.981-.499 1.2-.148 2.05.172 3.309.321 1.259 1.521 1.758 2.72 2.258 1.2.499 2.05.148 3.309-.172 1.259-.321 1.759-1.521 2.258-2.721.499-1.2.148-2.049-.172-3.308-.76-.88-1.521-1.759-2.721-2.258l-1.229-.089z"/><path fill="#fff" d="M197.992 124.012a2.466 2.466 0 10-4.733-1.39 2.466 2.466 0 004.733 1.39z"/><path fill="#1E324D" d="M187.95 141.43c-.03.41-5.14 14.048-18.084 16.405-2.928.611-6.207.373-9.456-.275l-1.23-.089c-3.249-.648-5.619-2.056-7.989-3.464-12.99-8.359-9.781-24.195-9.781-24.195l46.54 11.618z"/><path fill="#153150" d="M163.95 159.876c-1.23-.089-2.869-.208-4.069-.707-.41-.03-.82-.06-1.2-.499-3.249-.648-6.029-2.086-8.399-3.494-13.78-8.829-10.891-25.924-10.831-26.744.029-.41.499-1.2.938-1.58.44-.38 1.26-.32 1.669-.291l46.51 12.028c.41.03 1.2.499 1.17.909.38.44.321 1.26.291 1.669-.059.82-5.229 15.278-19.402 17.545-2.168 1.491-4.218 1.342-6.677 1.164zm-20.639-27.867c-.327 4.508.189 14.434 8.849 20.007 1.96 1.378 4.36 2.376 7.199 2.995l1.229.089c3.25.648 6.119.856 9.047.244 8.756-1.424 13.42-8.914 15.357-12.894l-41.681-10.441z"/><path fill="#5BBAE6" d="M173.152 152.304c-.969 1.99-1.907 3.57-3.286 5.53-2.928.612-6.207.374-9.456-.274l-1.23-.089c-3.249-.648-5.619-2.056-7.989-3.464 2.668-2.691 4.955-5.821 6.862-9.391 2.377-4.359 7.414-5.642 11.394-3.705 4.389 1.967 6.081 7.034 3.705 11.393z"/><path fill="#153150" d="M163.95 159.878c-1.23-.089-2.869-.208-4.069-.707-.41-.03-.82-.06-1.2-.499-3.249-.648-6.029-2.086-8.399-3.494-.38-.44-.76-.879-1.111-1.729.06-.82.09-1.229.529-1.61 2.668-2.69 4.955-5.82 6.422-9.01 2.846-5.15 9.173-7.163 14.352-4.727 5.18 2.436 7.163 9.173 4.727 14.352-.968 1.99-2.347 3.95-3.315 5.94-.44.38-.879.76-1.289.73-2.139 1.081-4.188.932-6.647.754zm-9.391-6.862c1.58.939 3.19 1.468 5.239 1.616l1.23.09c2.839.618 5.708.826 7.787.565.939-1.58 1.848-2.75 2.786-4.33.939-1.58 1.058-3.22.357-4.919-.7-1.699-1.431-2.988-3.011-3.926-3.189-1.468-6.967-.506-8.435 2.684-1.877 3.16-3.725 5.91-5.953 8.22z"/><path fill="#153150" d="M160.291 159.2c-.41-.03-.82-.059-1.2-.499-.76-.879-1.081-2.139-.202-2.899 1.379-1.96 2.347-3.95 3.315-5.94.5-1.199 1.759-1.52 2.959-1.021 1.2.499 1.52 1.759 1.021 2.958-1.028 2.81-2.406 4.77-4.224 7.11 0 0-.85.351-1.669.291zM64.425 38.112c-1.23-.09-1.96-1.379-1.871-2.608 5.295-21.865-3.276-28.667-3.246-29.077-.79-.47-.7-1.7-.232-2.49.88-.76 2.139-1.08 2.9-.2.38.439 10.5 8.59 4.617 32.884-.09 1.23-.939 1.58-2.168 1.49zm10.752-6.225c-1.23-.09-1.96-1.378-1.87-2.608 3-12.967.37-16.454.37-16.454-.761-.88-.672-2.109.207-2.87.88-.76 2.11-.67 2.87.209.76.88 4.151 5.246.591 20.232-.06.82-1.348 1.55-2.168 1.49zm-56.532-4.514c-1.23-.09-1.99-.969-1.9-2.198 1.51-15.136 6.287-18.497 7.136-18.847.85-.35 2.079-.262 2.81 1.028.38.44.29 1.669-.999 2.4 0 0-3.926 3.01-4.849 15.716-.089 1.23-.968 1.99-2.198 1.9z"/><path fill="#FFC936" stroke="#FBAE28" stroke-linecap="round" stroke-linejoin="round" stroke-miterlimit="10" stroke-width="1.115" d="M116.846 166.594l-19.989 7.442-13.375-16.382 7.133-26.62 33.363 8.94-7.132 26.62z"/><path fill="#FFD168" d="M85.538 157.517l12.996 15.913 18.311-6.836 7.133-26.62-31.48-8.435-6.96 25.978z"/><path stroke="#B6BFC7" stroke-linecap="round" stroke-linejoin="round" stroke-miterlimit="10" stroke-width=".823" d="M83.846 161.605l-1.823-2.278m8.527 10.496l-5.038-6.212m38.922-16.772l-2.443 9.116m4.129-15.407l-.792 2.953" opacity=".4"/><path stroke="#153150" stroke-linecap="round" stroke-linejoin="round" stroke-miterlimit="10" stroke-width="1.234" d="M116.846 166.594l-19.989 7.442-13.375-16.382 7.133-26.62 33.363 8.94-7.132 26.62z"/><path fill="#000" d="M112.644 156.892c1.728-6.402-2.065-12.994-8.472-14.723-6.407-1.73-13.002 2.059-14.73 8.461-1.728 6.402 2.065 12.994 8.472 14.724 6.407 1.729 13.002-2.06 14.73-8.462z" opacity=".2"/><path fill="#fff" stroke="#153150" stroke-linecap="round" stroke-linejoin="round" stroke-miterlimit="10" stroke-width=".823" d="M114.265 154.979c1.709-6.331-2.042-12.85-8.378-14.56-6.336-1.71-12.858 2.036-14.567 8.368-1.709 6.331 2.042 12.85 8.379 14.56 6.336 1.71 12.857-2.036 14.566-8.368z"/><path fill="#fff" d="M114.394 155.014c1.728-6.402-2.065-12.994-8.472-14.723-6.407-1.729-13.002 2.059-14.73 8.461-1.728 6.403 2.065 12.995 8.472 14.724 6.407 1.729 13.002-2.059 14.73-8.462z"/><path stroke="#153150" stroke-linecap="round" stroke-linejoin="round" stroke-miterlimit="10" stroke-width="1.158" d="M114.265 154.979c1.709-6.331-2.042-12.85-8.378-14.56-6.336-1.71-12.858 2.036-14.567 8.368-1.709 6.331 2.042 12.85 8.379 14.56 6.336 1.71 12.857-2.036 14.566-8.368z"/><path stroke="#fff" stroke-linecap="round" stroke-linejoin="round" stroke-miterlimit="10" stroke-width="1.115" d="M103.674 148.937l.698 2.022 1.744 1.201"/><path fill="#F170BE" stroke="#D1176F" stroke-width=".82" d="M108.866 149.099l.001.001c.852 1.544.316 3.544-1.194 4.456h-.001l-6.128 3.704-3.456-6.275v-.001c-.852-1.544-.316-3.544 1.194-4.456h0a2.632 2.632 0 013.704.993s0 0 0 0l.579 1.05.206.373.365-.219 1.026-.617.001-.001a2.632 2.632 0 013.703.992z"/><path fill="#FFD168" fill-rule="evenodd" d="M102.739 154.338c-.944-.531-1.556-.902-1.882-1.43-.326-.527-.376-1.3-.355-2.467-.61 1.09-1.054 1.751-1.717 2.061-.523.236-1.177.2-2.17.188 1.955 1.097 2.268 1.645 2.243 3.889 1.091-1.951 1.64-2.269 3.881-2.241z" clip-rule="evenodd"/><path fill="#FFBD09" d="M98.765 156.9a.328.328 0 01-.252-.322c.024-2.125-.228-2.562-2.081-3.608a.327.327 0 01.163-.61c2.124.023 2.56-.229 3.606-2.084a.327.327 0 01.38-.153.327.327 0 01.252.322c-.024 2.125.228 2.562 2.081 3.608a.328.328 0 01-.164.61c-2.123-.023-2.56.229-3.606 2.084a.327.327 0 01-.38.153zm-1.052-3.909a2.945 2.945 0 011.435 2.479 2.949 2.949 0 012.487-1.435 2.944 2.944 0 01-1.436-2.489 2.941 2.941 0 01-2.486 1.445z"/><path fill="#FFD168" fill-rule="evenodd" d="M109.621 149.972c-1.299-.728-1.511-1.083-1.492-2.583-.35.625-.612 1.083-.959 1.302-.346.219-.852.199-1.621.189 1.297.731 1.511 1.083 1.488 2.585.342-.61.594-1.057.931-1.276.336-.218.863-.226 1.653-.217z" clip-rule="evenodd"/><path fill="#FFBD09" d="M106.952 151.781a.329.329 0 01-.253-.322c.023-1.349-.13-1.624-1.321-2.296a.325.325 0 01-.151-.367.326.326 0 01.314-.243c1.365.026 1.624-.134 2.293-1.328a.326.326 0 01.379-.152.328.328 0 01.253.321c-.027 1.366.133 1.626 1.324 2.297a.328.328 0 01-.163.611c-1.348-.023-1.627.133-2.296 1.326a.326.326 0 01-.379.153zm-.389-2.629c.413.314.683.782.745 1.298a1.93 1.93 0 011.295-.751 1.914 1.914 0 01-.746-1.295 1.909 1.909 0 01-1.294.748z"/></svg>