<svg xmlns="http://www.w3.org/2000/svg" width="71" height="77" fill="none"><path fill="#C86B32" stroke="#FBAE28" stroke-linecap="round" stroke-linejoin="round" stroke-miterlimit="10" stroke-width="2.039" d="M65.946 52.395L34.162 75 2.784 52.395V2h63.162v50.395z"/><path fill="#FA863F" d="M6.351 51.18l30.487 21.956 29.108-20.74V2H6.351v49.18z"/><path stroke="#B6BFC7" stroke-linecap="round" stroke-linejoin="round" stroke-miterlimit="10" stroke-width="1.505" d="M5.297 59.2L1 56.042m20.027 14.502L9.19 61.956M70 13.91v17.257M70 2v5.59" opacity=".4"/><path stroke="#153150" stroke-linecap="round" stroke-linejoin="round" stroke-miterlimit="10" stroke-width="2.257" d="M65.946 52.395L34.162 75 2.784 52.395V2h63.162v50.395z"/><path fill="#000" d="M53.933 37.248C53.955 25.12 44.135 15.273 32 15.25c-12.135-.022-21.991 9.79-22.013 21.917-.022 12.126 9.798 21.974 21.933 21.996 12.136.023 21.991-9.79 22.013-21.916z" opacity=".2"/><path fill="#fff" stroke="#153150" stroke-linecap="round" stroke-linejoin="round" stroke-miterlimit="10" stroke-width="1.505" d="M55.892 33.102c.022-11.992-9.69-21.732-21.69-21.753-12.001-.022-21.748 9.682-21.77 21.674-.021 11.992 9.69 21.731 21.69 21.753 12.002.022 21.748-9.682 21.77-21.674z"/><path fill="#fff" d="M56.135 33.102c.022-12.126-9.797-21.974-21.933-21.996-12.135-.023-21.99 9.79-22.013 21.916-.022 12.127 9.798 21.975 21.933 21.997 12.136.022 21.991-9.79 22.013-21.917z"/><path stroke="#153150" stroke-linecap="round" stroke-linejoin="round" stroke-miterlimit="10" stroke-width="2.118" d="M55.892 33.102c.022-11.992-9.69-21.732-21.69-21.753-12.001-.022-21.748 9.682-21.77 21.674-.021 11.992 9.69 21.731 21.69 21.753 12.002.022 21.748-9.682 21.77-21.674z"/><path stroke="#fff" stroke-linecap="round" stroke-linejoin="round" stroke-miterlimit="10" stroke-width="2.039" d="M34.324 27.44l2.19 3.242 3.648 1.296"/><path fill="#FA863F" d="M42.652 46.725l-8.426-3.327-8.426 2.588.092-8.871-5.463-7.393 8.519-2.218 5.093-7.116 5.092 7.578 8.612 2.957-5.37 6.93.277 8.872z"/><path fill="#C86B32" d="M42.652 47.65c-.093 0-.185 0-.37-.093l-8.149-3.142-8.056 2.495c-.277.093-.555 0-.833-.185-.278-.184-.37-.462-.37-.739l.092-8.594-5.278-7.116c-.185-.277-.277-.554-.092-.831.092-.277.37-.555.648-.555l8.24-2.125 4.816-6.838c.185-.278.463-.37.74-.37.278 0 .556.185.741.37l5 7.3 8.242 2.865c.277.092.462.37.555.646.093.278 0 .555-.185.832l-5.185 6.561.277 8.594c0 .277-.092.647-.37.74-.093.184-.278.184-.463.184zm-8.426-5.176c.092 0 .185 0 .37.093l7.13 2.772-.278-7.577c0-.185.093-.462.185-.555l4.538-5.822-7.315-2.495c-.186-.092-.37-.185-.463-.37l-4.445-6.468-4.26 6.007c-.092.184-.277.277-.555.37l-7.222 1.847 4.63 6.284c.092.185.185.37.185.555v7.67l7.222-2.218c.093 0 .185-.093.278-.093z"/><path fill="#153150" d="M34.29 30.466c.28 0 .553.047.816.14.267.091.501.232.703.42.202.185.365.416.488.693.123.277.185.6.185.97 0 .346-.064.67-.19.975a2.407 2.407 0 01-1.366 1.324 2.82 2.82 0 01-1.067.195 2.84 2.84 0 01-1.068-.19 2.341 2.341 0 01-.806-.528 2.353 2.353 0 01-.513-.821 3.118 3.118 0 01-.175-1.068c0-.349.07-.707.211-1.073.144-.37.364-.753.662-1.15l1.77-2.376a.737.737 0 01.268-.21.929.929 0 01.41-.087h1.13l-2.202 2.694a8.62 8.62 0 01-.139.164 6.298 6.298 0 00-.123.16 2.25 2.25 0 01.462-.17c.167-.041.349-.061.544-.061zm-1.776 2.305c0 .205.027.394.082.565.058.167.142.311.252.43.113.12.251.215.415.283.165.065.355.098.57.098.202 0 .387-.035.554-.103.172-.068.317-.164.437-.287.123-.124.219-.267.287-.432.069-.167.103-.349.103-.544a1.57 1.57 0 00-.098-.57 1.171 1.171 0 00-.708-.703 1.598 1.598 0 00-.554-.092c-.202 0-.385.034-.55.103a1.267 1.267 0 00-.426.287 1.27 1.27 0 00-.272.431 1.508 1.508 0 00-.092.534zm-2.431 6.571v-2.873h.423c.09 0 .148.042.176.126l.045.213c.05-.056.103-.107.157-.154a.936.936 0 01.616-.23c.18 0 .33.05.445.149a.87.87 0 01.263.39.9.9 0 01.39-.411c.08-.044.165-.076.254-.097a1.245 1.245 0 01.697.042.81.81 0 01.311.213.924.924 0 01.19.342c.045.134.068.288.068.462v1.828h-.692v-1.828c0-.183-.04-.32-.12-.412-.08-.093-.198-.14-.353-.14a.478.478 0 00-.465.314.667.667 0 00-.039.238v1.828h-.694v-1.828c0-.193-.04-.333-.118-.42-.076-.088-.19-.132-.341-.132a.553.553 0 00-.28.076.92.92 0 00-.241.201v2.103h-.692zm5.94-2.917c.215 0 .409.034.582.103.176.07.325.167.448.294a1.3 1.3 0 01.286.465c.067.183.1.387.1.613 0 .228-.033.433-.1.616a1.33 1.33 0 01-.286.467 1.237 1.237 0 01-.448.297 1.54 1.54 0 01-.582.104c-.215 0-.41-.035-.585-.104a1.266 1.266 0 01-.45-.297 1.363 1.363 0 01-.29-.467 1.779 1.779 0 01-.1-.616c0-.226.034-.43.1-.613a1.34 1.34 0 01.29-.465c.124-.127.274-.225.45-.294.175-.069.37-.103.585-.103zm0 2.427c.239 0 .415-.08.53-.24.115-.161.173-.397.173-.706 0-.31-.058-.546-.174-.709-.114-.162-.29-.243-.529-.243-.243 0-.422.082-.538.246-.115.162-.173.398-.173.706 0 .308.058.543.173.705.116.16.295.24.538.24zm1.791.109c0-.058.01-.113.03-.165a.423.423 0 01.09-.135.46.46 0 01.138-.09.422.422 0 01.333 0 .426.426 0 01.224.225.421.421 0 01-.09.465.39.39 0 01-.134.086.422.422 0 01-.333 0 .42.42 0 01-.138-.086.432.432 0 01-.09-.132.453.453 0 01-.03-.168z"/></svg>