<svg xmlns="http://www.w3.org/2000/svg" width="71" height="77" fill="none"><path fill="#806BC6" stroke="#FBAE28" stroke-linecap="round" stroke-linejoin="round" stroke-miterlimit="10" stroke-width="2.039" d="M65.946 52.395L34.162 75 2.784 52.395V2h63.162v50.395z"/><path fill="#A086F7" d="M6.351 51.18l30.487 21.956 29.108-20.74V2H6.351v49.18z"/><path stroke="#B6BFC7" stroke-linecap="round" stroke-linejoin="round" stroke-miterlimit="10" stroke-width="1.505" d="M5.297 59.2L1 56.042m20.027 14.502L9.19 61.956M70 13.91v17.257M70 2v5.59" opacity=".4"/><path stroke="#153150" stroke-linecap="round" stroke-linejoin="round" stroke-miterlimit="10" stroke-width="2.257" d="M65.946 52.395L34.162 75 2.784 52.395V2h63.162v50.395z"/><path fill="#000" d="M53.933 37.248C53.955 25.12 44.135 15.273 32 15.25c-12.135-.022-21.991 9.79-22.013 21.917-.022 12.126 9.798 21.974 21.933 21.996 12.136.023 21.991-9.79 22.013-21.916z" opacity=".2"/><path fill="#fff" stroke="#153150" stroke-linecap="round" stroke-linejoin="round" stroke-miterlimit="10" stroke-width="1.505" d="M55.892 33.102c.022-11.992-9.69-21.732-21.69-21.753-12.001-.022-21.748 9.682-21.77 21.674-.021 11.992 9.69 21.731 21.69 21.753 12.002.022 21.748-9.682 21.77-21.674z"/><path fill="#fff" d="M56.135 33.102c.022-12.126-9.797-21.974-21.933-21.996-12.135-.023-21.99 9.79-22.013 21.916-.022 12.127 9.798 21.975 21.933 21.997 12.136.022 21.991-9.79 22.013-21.917z"/><path stroke="#153150" stroke-linecap="round" stroke-linejoin="round" stroke-miterlimit="10" stroke-width="2.118" d="M55.892 33.102c.022-11.992-9.69-21.732-21.69-21.753-12.001-.022-21.748 9.682-21.77 21.674-.021 11.992 9.69 21.731 21.69 21.753 12.002.022 21.748-9.682 21.77-21.674z"/><path stroke="#fff" stroke-linecap="round" stroke-linejoin="round" stroke-miterlimit="10" stroke-width="2.039" d="M34.324 27.44l2.19 3.242 3.648 1.296"/><path fill="#A086F7" d="M42.652 46.725l-8.426-3.327-8.426 2.588.092-8.871-5.463-7.393 8.519-2.218 5.093-7.116 5.092 7.578 8.612 2.957-5.37 6.93.277 8.872z"/><path fill="#806BC6" d="M42.652 47.65c-.093 0-.185 0-.37-.093l-8.149-3.142-8.056 2.495c-.277.093-.555 0-.833-.185-.278-.184-.37-.462-.37-.739l.092-8.594-5.278-7.116c-.185-.277-.277-.554-.092-.831.092-.277.37-.555.648-.555l8.24-2.125 4.816-6.838c.185-.278.463-.37.74-.37.278 0 .556.185.741.37l5 7.3 8.242 2.865c.277.092.462.37.555.646.093.278 0 .555-.185.832l-5.185 6.561.277 8.594c0 .277-.092.647-.37.74-.093.184-.278.184-.463.184zm-8.426-5.176c.092 0 .185 0 .37.093l7.13 2.772-.278-7.577c0-.185.093-.462.185-.555l4.538-5.822-7.315-2.495c-.186-.092-.37-.185-.463-.37l-4.445-6.468-4.26 6.007c-.092.184-.277.277-.555.37l-7.222 1.847 4.63 6.284c.092.185.185.37.185.555v7.67l7.222-2.218c.093 0 .185-.093.278-.093z"/><path fill="#153150" d="M34.059 27.597c.342 0 .65.05.924.15.277.095.513.23.708.405a1.797 1.797 0 01.606 1.36c0 .236-.028.445-.083.626a1.387 1.387 0 01-.6.806c-.144.092-.308.17-.493.23.445.141.777.355.996.642.219.288.328.649.328 1.083 0 .37-.068.697-.205.98a2.133 2.133 0 01-.554.72 2.436 2.436 0 01-.811.436 3.12 3.12 0 01-.97.148c-.373 0-.698-.042-.976-.128a2.115 2.115 0 01-.723-.38 2.295 2.295 0 01-.524-.616 4.154 4.154 0 01-.37-.841l.56-.231a.735.735 0 01.293-.062.49.49 0 01.236.056.381.381 0 01.164.165c.062.12.128.238.2.354.075.116.164.22.267.313.103.089.223.163.36.22.14.056.306.083.497.083.216 0 .404-.034.565-.103.16-.072.294-.164.4-.277a1.15 1.15 0 00.323-.795c0-.178-.018-.34-.056-.483a.719.719 0 00-.236-.375 1.276 1.276 0 00-.518-.24c-.223-.06-.522-.088-.899-.088v-.903c.312-.004.57-.033.775-.088.206-.055.368-.13.488-.226a.784.784 0 00.257-.354 1.36 1.36 0 00.072-.451c0-.353-.096-.618-.288-.796-.191-.181-.453-.272-.785-.272-.301 0-.551.08-.75.241a1.233 1.233 0 00-.415.611.576.576 0 01-.17.282.454.454 0 01-.282.082 1.06 1.06 0 01-.174-.015l-.668-.118a2.72 2.72 0 01.298-.934c.147-.27.33-.495.55-.673.222-.18.475-.316.759-.405a2.98 2.98 0 01.924-.139zm-3.976 11.745v-2.873h.423c.09 0 .148.042.176.126l.045.213c.05-.056.103-.107.157-.154a.942.942 0 01.616-.23c.18 0 .33.05.445.149a.87.87 0 01.263.389.899.899 0 01.39-.412c.08-.043.165-.074.254-.095a1.251 1.251 0 01.697.042c.123.049.227.12.311.213a.923.923 0 01.19.341c.045.135.068.289.068.462v1.829h-.692v-1.829c0-.182-.04-.32-.12-.411-.08-.093-.198-.14-.353-.14a.478.478 0 00-.465.313.668.668 0 00-.039.238v1.829h-.694v-1.829c0-.192-.04-.332-.118-.42-.076-.087-.19-.131-.341-.131a.554.554 0 00-.28.075.924.924 0 00-.241.202v2.103h-.692zm5.94-2.918c.215 0 .409.035.582.104a1.248 1.248 0 01.734.759c.067.182.1.387.1.613 0 .227-.033.433-.1.616a1.33 1.33 0 01-.286.467 1.237 1.237 0 01-.448.297 1.564 1.564 0 01-.582.103c-.215 0-.41-.034-.585-.103a1.266 1.266 0 01-.45-.297 1.364 1.364 0 01-.29-.467 1.78 1.78 0 01-.1-.616c0-.226.034-.43.1-.613a1.34 1.34 0 01.29-.465c.124-.127.274-.225.45-.294.175-.07.37-.104.585-.104zm0 2.428c.239 0 .415-.08.53-.241.115-.16.173-.396.173-.706 0-.31-.058-.546-.174-.708-.114-.162-.29-.244-.529-.244-.243 0-.422.083-.538.247-.115.162-.173.397-.173.705 0 .308.058.544.173.706.116.16.295.24.538.24zm1.791.109c0-.058.01-.113.03-.165a.426.426 0 01.09-.135.458.458 0 01.306-.123.424.424 0 01.39.258.422.422 0 01-.09.465.39.39 0 01-.135.086.424.424 0 01-.333 0 .421.421 0 01-.138-.087.434.434 0 01-.09-.131.454.454 0 01-.03-.168z"/></svg>