<svg xmlns="http://www.w3.org/2000/svg" fill="none" viewBox="0 0 72 78"><g opacity=".2"><path fill="#C6A85F" stroke="#FBAE28" stroke-linecap="round" stroke-linejoin="round" stroke-miterlimit="10" stroke-width="2.302" d="M66.787 53.086L34.592 76 2.807 53.086V2h63.98v51.086z"/><path fill="#F8D277" d="M6.42 51.853l30.882 22.258 29.485-21.026V2H6.421v49.853z"/><path stroke="#B6BFC7" stroke-linecap="round" stroke-linejoin="round" stroke-miterlimit="10" stroke-width="1.699" d="M5.353 59.984L1 56.781m20.287 14.702L9.296 62.777m61.597-48.704v17.494m0-29.567v5.667" opacity=".4"/><path stroke="#153150" stroke-linecap="round" stroke-linejoin="round" stroke-miterlimit="10" stroke-width="2.548" d="M66.787 53.086L34.592 76 2.807 53.086V2h63.98v51.086z"/><path fill="#000" d="M54.618 37.73c.023-12.292-9.924-22.275-22.217-22.297-12.292-.023-22.276 9.924-22.298 22.217-.022 12.292 9.925 22.275 22.217 22.297 12.293.023 22.276-9.924 22.298-22.217z" opacity=".2"/><path fill="#fff" stroke="#153150" stroke-linecap="round" stroke-linejoin="round" stroke-miterlimit="10" stroke-width="1.699" d="M56.602 33.528c.023-12.157-9.814-22.03-21.97-22.051-12.157-.023-22.03 9.814-22.052 21.97-.022 12.157 9.815 22.03 21.971 22.052 12.157.022 22.03-9.815 22.051-21.971z"/><path fill="#fff" d="M56.85 33.528c.021-12.293-9.925-22.276-22.218-22.298-12.292-.022-22.275 9.925-22.298 22.217-.022 12.293 9.925 22.276 22.217 22.298 12.293.022 22.276-9.924 22.298-22.217z"/><path stroke="#153150" stroke-linecap="round" stroke-linejoin="round" stroke-miterlimit="10" stroke-width="2.392" d="M56.602 33.528c.023-12.157-9.814-22.03-21.97-22.051-12.157-.023-22.03 9.814-22.052 21.97-.022 12.157 9.815 22.03 21.971 22.052 12.157.022 22.03-9.815 22.051-21.971z"/><path stroke="#fff" stroke-linecap="round" stroke-linejoin="round" stroke-miterlimit="10" stroke-width="2.302" d="M34.756 27.79l2.217 3.285 3.696 1.314"/><path fill="#F8D277" d="M43.191 47.338l-8.535-3.372-8.535 2.623.094-8.993-5.534-7.494 8.629-2.248 5.158-7.213 5.159 7.681 8.723 2.998-5.44 7.025.281 8.993z"/><path fill="#C6A85F" d="M43.191 48.275c-.094 0-.187 0-.375-.094l-8.254-3.185-8.16 2.53c-.281.093-.563 0-.844-.188-.281-.187-.375-.468-.375-.75l.094-8.711-5.347-7.213c-.187-.281-.281-.562-.093-.843.093-.281.375-.562.656-.562l8.348-2.155 4.877-6.932c.188-.281.47-.375.75-.375.282 0 .563.188.75.375l5.066 7.4 8.347 2.904c.282.094.47.375.563.656.094.281 0 .562-.188.843l-5.252 6.651.281 8.712c0 .281-.093.656-.375.75-.094.187-.281.187-.469.187zm-8.535-5.246a.71.71 0 01.375.093l7.222 2.81-.281-7.68c0-.188.094-.469.188-.563l4.595-5.901-7.41-2.53c-.187-.093-.374-.187-.468-.374l-4.502-6.557-4.315 6.088c-.094.188-.281.282-.563.375l-7.316 1.874 4.69 6.37c.094.187.188.374.188.562v7.775l7.316-2.248c.093 0 .187-.094.281-.094z"/></g></svg>