<svg xmlns="http://www.w3.org/2000/svg" viewBox="0 0 20 24"><path fill-rule="evenodd" d="M18.976 19.246A2 2 0 0020 17.5V2a2 2 0 00-2-2H2a2 2 0 00-2 2v15.5a2 2 0 001.015 1.74l7.948 4.5a2 2 0 001.961.006l8.052-4.5zM18 4v13.5L9.949 22 2 17.5V2h16v2zm-7.167 1.447a1 1 0 00-1.666 0L7.639 7.75l-2.663.742a1 1 0 00-.515 1.585L6.18 12.24l-.117 2.762a1 1 0 001.348.98l2.59-.966 2.59.965a1 1 0 001.348-.98l-.118-2.76 1.719-2.165a1 1 0 00-.515-1.585L12.36 7.75l-1.528-2.303zM9.1 9.167l.9-1.359.9 1.357a1 1 0 00.566.41l1.57.438-1.014 1.276a1 1 0 00-.216.664l.07 1.628-1.527-.57a1 1 0 00-.698 0l-1.527.57.07-1.628a1 1 0 00-.216-.664l-1.013-1.276 1.57-.437a1 1 0 00.564-.41z" clip-rule="evenodd"/></svg>