<svg xmlns="http://www.w3.org/2000/svg" width="45" height="45" fill="none"><path fill="#A682FF" d="M0 11.25C0 5.037 5.037 0 11.25 0h22.5C39.963 0 45 5.037 45 11.25v22.5C45 39.963 39.963 45 33.75 45h-22.5C5.037 45 0 39.963 0 33.75v-22.5z"/><path fill="#A682FF" d="M13.885 12.217c-.556.165-.885.697-.885 1.276v13.729a3 3 0 001.206 2.404l7.098 5.298a2 2 0 002.392 0l7.098-5.298A3 3 0 0032 27.222V13.523c0-.595-.347-1.138-.919-1.302-4.075-1.169-13.346-1.142-17.196-.004z"/><path fill="#A682FF" d="M17.855 18.673a2.92 2.92 0 000 4.13l4.647 4.646 4.647-4.646a2.92 2.92 0 00-4.13-4.13l-.517.516-.516-.516a2.92 2.92 0 00-4.13 0z"/><path stroke="#fff" stroke-linecap="round" stroke-linejoin="round" stroke-width="2" d="M13.885 12.217c-.556.165-.885.697-.885 1.276v13.729a3 3 0 001.206 2.404l7.098 5.298a2 2 0 002.392 0l7.098-5.298A3 3 0 0032 27.222V13.523c0-.595-.347-1.138-.919-1.302-4.075-1.169-13.346-1.142-17.196-.004z"/><path stroke="#fff" stroke-linecap="round" stroke-linejoin="round" stroke-width="2" d="M17.855 18.673a2.92 2.92 0 000 4.13l4.647 4.646 4.647-4.646a2.92 2.92 0 00-4.13-4.13l-.517.516-.516-.516a2.92 2.92 0 00-4.13 0z"/></svg>