<svg xmlns="http://www.w3.org/2000/svg" width="71" height="77" fill="none"><path fill="#FFC936" stroke="#FBAE28" stroke-linecap="round" stroke-linejoin="round" stroke-miterlimit="10" stroke-width="2.039" d="M65.946 52.395L34.162 75 2.784 52.395V2h63.162v50.395z"/><path fill="#FFD168" d="M6.351 51.18l30.487 21.956 29.108-20.74V2H6.35v49.18z"/><path stroke="#B6BFC7" stroke-linecap="round" stroke-linejoin="round" stroke-miterlimit="10" stroke-width="1.505" d="M5.297 59.2L1 56.042m20.027 14.502L9.19 61.956M70 13.91v17.257M70 2v5.59" opacity=".4"/><path stroke="#153150" stroke-linecap="round" stroke-linejoin="round" stroke-miterlimit="10" stroke-width="2.257" d="M65.946 52.395L34.162 75 2.784 52.395V2h63.162v50.395z"/><path fill="#000" d="M53.933 37.248C53.955 25.12 44.135 15.273 32 15.25c-12.135-.022-21.99 9.79-22.013 21.917-.022 12.126 9.798 21.974 21.933 21.996 12.136.023 21.991-9.79 22.013-21.916z" opacity=".2"/><path fill="#fff" stroke="#153150" stroke-linecap="round" stroke-linejoin="round" stroke-miterlimit="10" stroke-width="1.505" d="M55.892 33.102c.021-11.992-9.69-21.732-21.69-21.753-12.002-.022-21.748 9.682-21.77 21.674-.022 11.992 9.69 21.731 21.69 21.753 12.002.022 21.748-9.682 21.77-21.674z"/><path fill="#fff" d="M56.135 33.102c.022-12.126-9.797-21.974-21.933-21.996-12.135-.023-21.99 9.79-22.013 21.916-.022 12.127 9.798 21.975 21.933 21.997 12.136.022 21.991-9.79 22.013-21.917z"/><path stroke="#153150" stroke-linecap="round" stroke-linejoin="round" stroke-miterlimit="10" stroke-width="2.118" d="M55.892 33.102c.021-11.992-9.69-21.732-21.69-21.753-12.002-.022-21.748 9.682-21.77 21.674-.022 11.992 9.69 21.731 21.69 21.753 12.002.022 21.748-9.682 21.77-21.674z"/><path stroke="#fff" stroke-linecap="round" stroke-linejoin="round" stroke-miterlimit="10" stroke-width="2.039" d="M34.324 27.44l2.19 3.242 3.648 1.296"/><path fill="#F170BE" stroke="#D1176F" stroke-width="1.5" d="M43.572 25.27l.001.001c2.236 2.325 2.236 6.11 0 8.435h0L34.5 43.15l-9.073-9.45h0c-2.236-2.325-2.236-6.111 0-8.436h0c1.939-2.02 5.068-2.02 7.012 0l1.52 1.581.54.562.54-.56 1.521-1.576.001-.002c1.939-2.02 5.073-2.02 7.011 0z"/><path fill="#FFD168" fill-rule="evenodd" d="M35.23 37.424c-1.92-.491-3.177-.856-4.002-1.635-.825-.778-1.28-2.119-1.794-4.19-.562 2.215-1.035 3.592-2.058 4.454-.813.664-1.985.91-3.743 1.359 3.97 1.011 4.784 1.832 5.8 5.806 1.006-3.962 1.825-4.783 5.796-5.794z" clip-rule="evenodd"/><path fill="#FFBD09" d="M29.422 43.829a.598.598 0 01-.598-.45c-.963-3.764-1.615-4.417-5.383-5.387a.599.599 0 010-1.155c3.762-.964 4.414-1.616 5.383-5.388a.598.598 0 01.598-.449.598.598 0 01.598.45c.963 3.765 1.615 4.417 5.383 5.387a.599.599 0 010 1.155c-3.762.964-4.414 1.617-5.383 5.388a.598.598 0 01-.598.449zm-3.708-6.405a5.385 5.385 0 013.708 3.7 5.385 5.385 0 013.714-3.712 5.385 5.385 0 01-3.714-3.718 5.385 5.385 0 01-3.708 3.73z"/><path fill="#FFD168" fill-rule="evenodd" d="M45.318 26.454c-2.638-.67-3.182-1.197-3.858-3.855-.323 1.27-.568 2.203-1.076 2.754-.509.55-1.412.754-2.775 1.101 2.637.677 3.181 1.197 3.851 3.861.317-1.239.55-2.149 1.04-2.693.491-.545 1.418-.808 2.818-1.168z" clip-rule="evenodd"/><path fill="#FFBD09" d="M41.46 30.914a.598.598 0 01-.598-.45c-.598-2.394-.999-2.807-3.42-3.43a.599.599 0 010-1.155c2.421-.598 2.804-1.005 3.42-3.43A.598.598 0 0141.46 22a.598.598 0 01.598.45c.598 2.424 1.005 2.807 3.427 3.43a.598.598 0 010 1.155c-2.392.598-2.81 1.006-3.427 3.43a.598.598 0 01-.598.449zm-1.931-4.46a3.512 3.512 0 011.931 1.94 3.53 3.53 0 011.932-1.94 3.5 3.5 0 01-1.932-1.934 3.482 3.482 0 01-1.931 1.934z"/></svg>