<svg xmlns="http://www.w3.org/2000/svg" width="24" height="24" fill="none"><path fill="#163150" fill-rule="evenodd" d="M7.87 3.48a1.1 1.1 0 01.516-1.222c3.575-2.064 7.016-1.438 9.26.786 1.992 1.975 2.924 5.096 2.29 8.32L22 12.32a1.1 1.1 0 01-.104 2.038l-8.444 2.925a1.1 1.1 0 01-1.398-.673L9.17 8.463a1.1 1.1 0 011.468-1.38l1.879.799c.107-.7.045-1.396-.225-1.958-.363-.757-1.241-1.55-3.388-1.613a1.1 1.1 0 01-1.035-.83zm4.894-.28a4.513 4.513 0 011.512 1.771c.765 1.593.543 3.44-.025 4.829a1.1 1.1 0 01-1.45.595l-.721-.307 1.684 4.759 4.839-1.676-.412-.191a1.1 1.1 0 01-.593-1.305c.826-2.85.05-5.53-1.502-7.068-.857-.85-1.994-1.397-3.332-1.407zM1 10.648a1.1 1.1 0 01.697-.99l5.035-1.985a1.1 1.1 0 11.807 2.048l-2.647 1.043.553.257a1.1 1.1 0 01.594 1.304c-.826 2.851-.05 5.53 1.502 7.069.857.85 1.995 1.397 3.333 1.406a4.733 4.733 0 01-.525-.424c-.995-.93-1.412-2.142-1.472-3.306a1.1 1.1 0 012.198-.114c.038.725.284 1.351.777 1.812.495.463 1.367.877 2.881.921a1.1 1.1 0 01.518 2.053c-3.575 2.064-7.016 1.438-9.26-.785-1.993-1.976-2.924-5.097-2.29-8.32l-2.064-.958A1.1 1.1 0 011 10.65z" clip-rule="evenodd"/></svg>