<svg xmlns="http://www.w3.org/2000/svg" width="24" height="24" fill="none" viewBox="0 0 19 18"><path fill="#A086F7" d="M5.088 15H2.912c-.232 0-.412.196-.412.449v2.102c0 .253.18.449.412.449h2.176c.232 0 .412-.196.412-.449V15.45c0-.239-.18-.449-.412-.449zm4-4H6.912c-.232 0-.412.282-.412.644v5.712c0 .362.18.644.412.644h2.176c.232 0 .412-.282.412-.644v-5.732c0-.342-.18-.624-.412-.624zm8 4h-2.176c-.232 0-.412.12-.412.276v2.448c0 .155.18.276.412.276h2.176c.232 0 .412-.12.412-.276v-2.457c0-.146-.18-.267-.412-.267zm-4-2h-2.176c-.232 0-.412.145-.412.331v4.338c0 .186.18.331.412.331h2.176c.232 0 .412-.145.412-.331V13.33c0-.186-.18-.331-.412-.331z"/><path fill="#A086F7" stroke="#A086F7" stroke-width=".148" d="M10.986 9.181h0a.78.78 0 01-1.072-.258s0 0 0 0L8.62 6.75l-.039-.064-.063.039-4.388 2.66s0 0 0 0a.75.75 0 01-.578.083.338.338 0 01-.051-.02l-.002-.002c-.017-.007-.038-.017-.062-.024a2.252 2.252 0 01-.132-.077.766.766 0 01-.227-.243.822.822 0 01.262-1.082l5.11-3.079a.798.798 0 01.644-.065.761.761 0 01.425.337h0L10.81 7.4l.038.065.064-.039 3.93-2.369.064-.038-.039-.064-.444-.733h0l-.004-.005a.388.388 0 01.005-.437.423.423 0 01.402-.193l2.802.306h.003c.12.008.228.084.307.203a.415.415 0 01.027.371l-1.033 2.606a.429.429 0 01-.357.271h0l-.006.001a.4.4 0 01-.396-.197h0l-.001-.002-.445-.733-.038-.063-.063.038-4.639 2.793z"/><path fill="#A086F7" stroke="#A086F7" stroke-linecap="round" stroke-linejoin="round" d="M4.592 10.223L2.64 7.37 1.5 10.171l3.092.052z"/></svg>