<svg xmlns="http://www.w3.org/2000/svg" viewBox="0 0 76 76"><g fill="none" fill-rule="evenodd"><g fill-rule="nonzero"><path fill="#E4ECF7" d="M39 66c15.464 0 28-12.536 28-28S54.464 10 39 10 11 22.536 11 38s12.536 28 28 28z"/><path fill="#153150" d="M38.5 68C22.313 68 9 54.805 9 38.424 9 22.195 22.162 9 38.5 9S68 22.195 68 38.576C67.849 54.805 54.687 68 38.5 68zm0-55.967c-14.523 0-26.474 11.83-26.474 26.543 0 14.56 11.8 26.542 26.474 26.542s26.474-11.83 26.474-26.542c-.15-14.712-11.95-26.543-26.474-26.543z"/><path fill="#B6BFC7" d="M4.496 31h-.427c-.71-.164-1.278-1.15-.994-1.97.284-1.314.71-2.628 1.136-3.942.285-.82 1.137-1.314 1.847-.985.71.328 1.137 1.314.853 2.135-.426 1.15-.71 2.299-.995 3.612-.284.657-.852 1.15-1.42 1.15zm.77 19c-.653 0-1.306-.454-1.633-1.059C2.49 45.462 2 41.983 2 38.353c0-1.664.163-3.328.327-4.992.163-.756.98-1.361 1.796-1.361.817.151 1.47.908 1.47 1.664-.164 1.513-.327 3.025-.327 4.689 0 3.328.49 6.655 1.633 9.832.327.756-.163 1.664-1.143 1.815h-.49zm58.276 13c-.304 0-.76-.152-1.065-.456a1.629 1.629 0 01-.152-2.13c3.041-3.345 5.322-7.148 6.69-11.406.305-.76 1.217-1.217 1.977-.913.76.304 1.217 1.217.913 1.977-1.673 4.563-4.106 8.822-7.451 12.472 0 .304-.456.456-.912.456zm9.822-18h-.137c-.682-.155-1.227-.931-1.227-1.707.136-1.552.273-3.103.273-4.655v-1.086c0-.931.545-1.552 1.363-1.552.682 0 1.364.62 1.364 1.552v1.241c0 1.707-.136 3.414-.273 5.12-.136.622-.818 1.087-1.363 1.087z" opacity=".4"/><path fill="#FFC936" d="M38.5 61C50.927 61 61 51.15 61 39S50.927 17 38.5 17C26.074 17 16 26.85 16 39s10.074 22 22.5 22z"/><path fill="#FBAE28" d="M39 62c-12.68 0-23-10.545-23-23.5S26.32 15 39 15s23 10.545 23 23.5S51.68 62 39 62zm0-44.138c-11.058 0-20.051 9.19-20.051 20.487 0 11.298 8.993 20.488 20.051 20.488 11.058 0 20.051-9.19 20.051-20.488S50.058 17.862 39 17.862z"/></g><path fill="#25B9E6" d="M41.763 41.831c-.762.881-1.817 1.386-2.922 1.386h-.05c-1.13-.018-2.177-.55-2.93-1.468L21 26v24.32c0 1.065.502 1.68.795 1.68h34.41c.293 0 .795-.606.795-1.68V26.542l-15.237 15.29z"/><path fill="#219ED9" d="M38.043 40.687l.052.061c.18.217.412.252.523.252.12 0 .343-.026.532-.235l.052-.06.06-.053L55 26.078l-16.236.026L23 26l15.043 14.687z"/><path fill="#153150" fill-rule="nonzero" d="M55.899 23.041l-16.907.041L22.085 23h-.009C19.804 23 18 25.136 18 27.808v22.384C18 52.864 19.804 55 22.076 55h33.848C58.196 55 60 52.864 60 50.192V27.808c0-2.672-1.787-4.767-4.101-4.767zm-1.326 3.3L39.469 40.17l-.057.05-.05.057a.674.674 0 01-1.013-.016l-.049-.058-14.436-13.93 15.128.1 15.58-.034zm1.35 25.36H22.077c-.288 0-.782-.544-.782-1.51V28.337L35.92 42.49a3.97 3.97 0 002.899 1.32h.05a3.929 3.929 0 002.865-1.246l14.988-13.74v21.369c-.016.965-.51 1.509-.798 1.509z"/></g></svg>