<svg xmlns="http://www.w3.org/2000/svg" fill="none" viewBox="0 0 24 24"><path fill="#55B6E2" fill-rule="evenodd" d="M2 6a4 4 0 014-4h2.5a1 1 0 100-2H6a6 6 0 00-6 6v12a6 6 0 006 6h12a6 6 0 006-6v-2.5a1 1 0 10-2 0V18a4 4 0 01-4 4H6a4 4 0 01-4-4V6zm12.021-6c-1.707 0-2.605 2.067-1.366 3.294l1.197 1.188-6.32 6.249a1 1 0 001.406 1.422l7.038-6.96a1 1 0 00.001-1.42L14.19 2H22v7.736l-1.796-1.78a1 1 0 00-1.411.002l-4.835 4.835a1 1 0 001.414 1.414l4.13-4.13 1.195 1.184C21.905 12.457 24 11.629 24 9.894V1.928A1.932 1.932 0 0022.063 0h-8.042z" clip-rule="evenodd"/></svg>