<svg xmlns="http://www.w3.org/2000/svg" fill="none" viewBox="0 0 48 48"><circle cx="24" cy="24" r="24" fill="#fff"/><path fill="#2FBCB2" fill-rule="evenodd" d="M16.937 28.09a2.5 2.5 0 00-.518.52 2.49 2.49 0 00-.438 2.004 2.505 2.505 0 10.956-2.524z" clip-rule="evenodd"/><path stroke="#36BDB2" stroke-width=".5" d="M16.937 28.09a2.5 2.5 0 00-.518.52 2.49 2.49 0 00-.438 2.004 2.505 2.505 0 10.956-2.524z" clip-rule="evenodd"/><path fill="#2FBCB2" fill-rule="evenodd" d="M19.305 30.367l1.474 1.47 1.68 1.677.118.117L24 35.051l-.603.605-4.696-4.684c.253-.142.462-.353.604-.605z" clip-rule="evenodd"/><path stroke="#36BDB2" stroke-width=".5" d="M19.305 30.367l1.474 1.47 1.68 1.677.118.117L24 35.051l-.603.605-4.696-4.684c.253-.142.462-.353.604-.605z" clip-rule="evenodd"/><path fill="#2FBCB2" fill-rule="evenodd" d="M13.467 24.543l.328.327 3.342 3.334a1.58 1.58 0 00-.603.606l-3.671-3.662.604-.605z" clip-rule="evenodd"/><path stroke="#36BDB2" stroke-width=".5" d="M13.467 24.543l.328.327 3.342 3.334a1.58 1.58 0 00-.603.606l-3.671-3.662.604-.605z" clip-rule="evenodd"/><path fill="#2FBCB2" fill-rule="evenodd" d="M16.524 30.349a1.6 1.6 0 00.681.66l-1.335.493-1.729.638-.092.034-2.448.903-.296-.802 2.253-.831.301-.112 1.715-.632.95-.351z" clip-rule="evenodd"/><path stroke="#36BDB2" stroke-width=".5" d="M16.524 30.349a1.6 1.6 0 00.681.66l-1.335.493-1.729.638-.092.034-2.448.903-.296-.802 2.253-.831.301-.112 1.715-.632.95-.351z" clip-rule="evenodd"/><path fill="#2FBCB2" fill-rule="evenodd" d="M19.415 30.125l.022.06-.052.018a1.05 1.05 0 00.03-.078z" clip-rule="evenodd"/><path stroke="#36BDB2" stroke-width=".5" d="M19.415 30.125l.022.06-.052.018a1.05 1.05 0 00.03-.078z" clip-rule="evenodd"/><path fill="#2FBCB2" fill-rule="evenodd" d="M18.86 31.226l.009 6.313h-.856l-.007-6.313h.855z" clip-rule="evenodd"/><path stroke="#36BDB2" stroke-width=".5" d="M18.86 31.226l.009 6.313h-.856l-.007-6.313h.855z" clip-rule="evenodd"/><path fill="#2FBCB2" fill-rule="evenodd" d="M23.384 24.531l.605.603-1.43 1.433-1.783 1.788-1.268 1.27v-.039c0-.332-.102-.64-.275-.894l.938-.94 3.213-3.221z" clip-rule="evenodd"/><path stroke="#36BDB2" stroke-width=".5" d="M23.384 24.531l.605.603-1.43 1.433-1.783 1.788-1.268 1.27v-.039c0-.332-.102-.64-.275-.894l.938-.94 3.213-3.221z" clip-rule="evenodd"/><path fill="#2FBCB2" fill-rule="evenodd" d="M18.438 34.76a1.639 1.639 0 11.004 3.278 1.639 1.639 0 01-.004-3.278z" clip-rule="evenodd"/><path stroke="#36BDB2" stroke-width=".5" d="M18.438 34.76a1.639 1.639 0 11.004 3.278 1.639 1.639 0 01-.004-3.278z" clip-rule="evenodd"/><path fill="#2FBCB2" fill-rule="evenodd" d="M23.476 23.26a1.781 1.781 0 11.004 3.562 1.781 1.781 0 01-.004-3.562z" clip-rule="evenodd"/><path stroke="#36BDB2" stroke-width=".5" d="M23.476 23.26a1.781 1.781 0 11.004 3.562 1.781 1.781 0 01-.004-3.562z" clip-rule="evenodd"/><path fill="#2FBCB2" fill-rule="evenodd" d="M13.7 23.718a1.639 1.639 0 11.003 3.277 1.639 1.639 0 01-.004-3.277z" clip-rule="evenodd"/><path stroke="#36BDB2" stroke-width=".5" d="M13.7 23.718a1.639 1.639 0 11.003 3.277 1.639 1.639 0 01-.004-3.277z" clip-rule="evenodd"/><path fill="#2FBCB2" fill-rule="evenodd" d="M12.504 30.619a1.639 1.639 0 11.004 3.277 1.639 1.639 0 01-.004-3.277z" clip-rule="evenodd"/><path stroke="#36BDB2" stroke-width=".5" d="M12.504 30.619a1.639 1.639 0 11.004 3.277 1.639 1.639 0 01-.004-3.277z" clip-rule="evenodd"/><path fill="#2FBCB2" fill-rule="evenodd" d="M23.141 17.825a2.5 2.5 0 00-1.487-1.69 2.52 2.52 0 00-1.227-.165 2.505 2.505 0 102.714 1.855z" clip-rule="evenodd"/><path stroke="#36BDB2" stroke-width=".5" d="M23.141 17.825a2.5 2.5 0 00-1.487-1.69 2.52 2.52 0 00-1.227-.165 2.505 2.505 0 102.714 1.855z" clip-rule="evenodd"/><path fill="#2FBCB2" fill-rule="evenodd" d="M27.73 15.938l-.425.18-4.344 1.85a1.58 1.58 0 00-.336-.786l4.771-2.031.335.787z" clip-rule="evenodd"/><path stroke="#36BDB2" stroke-width=".5" d="M27.73 15.938l-.425.18-4.344 1.85a1.58 1.58 0 00-.336-.786l4.771-2.031.335.787z" clip-rule="evenodd"/><path fill="#2FBCB2" fill-rule="evenodd" d="M26.608 11.87l-.003.099-.056 1.842-.026.847.855-.001.025-.82.056-1.827.01-.32.073-2.4-.854-.027-.08 2.607z" clip-rule="evenodd"/><path stroke="#36BDB2" stroke-width=".5" d="M26.608 11.87l-.003.099-.056 1.842-.026.847.855-.001.025-.82.056-1.827.01-.32.073-2.4-.854-.027-.08 2.607z" clip-rule="evenodd"/><path fill="#2FBCB2" fill-rule="evenodd" d="M20.148 17.803l-1.165-6.205.84-.158 1.166 6.205-.84.158z" clip-rule="evenodd"/><path stroke="#36BDB2" stroke-width=".5" d="M20.148 17.803l-1.165-6.205.84-.158 1.166 6.205-.84.158z" clip-rule="evenodd"/><path fill="#2FBCB2" fill-rule="evenodd" d="M24.025 25.136l-.786.334-.793-1.862-.99-2.323-.702-1.652c.011.006.024.01.036.016.308.124.631.144.933.079l.52 1.222 1.782 4.186z" clip-rule="evenodd"/><path stroke="#36BDB2" stroke-width=".5" d="M24.025 25.136l-.786.334-.793-1.862-.99-2.323-.702-1.652c.011.006.024.01.036.016.308.124.631.144.933.079l.52 1.222 1.782 4.186z" clip-rule="evenodd"/><path fill="#2FBCB2" fill-rule="evenodd" d="M19.916 14.25a1.639 1.639 0 11-.605-3.22 1.639 1.639 0 01.605 3.22z" clip-rule="evenodd"/><path stroke="#36BDB2" stroke-width=".5" d="M19.916 14.25a1.639 1.639 0 11-.605-3.22 1.639 1.639 0 01.605 3.22z" clip-rule="evenodd"/><path fill="#2FBCB2" fill-rule="evenodd" d="M20.067 19.064l-6.14 1.466-.2-.831 6.142-1.466.198.831z" clip-rule="evenodd"/><path stroke="#36BDB2" stroke-width=".5" d="M20.067 19.064l-6.14 1.466-.2-.831 6.142-1.466.198.831z" clip-rule="evenodd"/><path fill="#2FBCB2" fill-rule="evenodd" d="M16.53 19.47a1.638 1.638 0 11-3.188.76 1.638 1.638 0 013.187-.76z" clip-rule="evenodd"/><path stroke="#36BDB2" stroke-width=".5" d="M16.53 19.47a1.638 1.638 0 11-3.188.76 1.638 1.638 0 013.187-.76z" clip-rule="evenodd"/><path fill="#2FBCB2" fill-rule="evenodd" d="M25.169 25.698a1.781 1.781 0 11-3.305-1.332 1.781 1.781 0 013.305 1.332z" clip-rule="evenodd"/><path stroke="#36BDB2" stroke-width=".5" d="M25.169 25.698a1.781 1.781 0 11-3.305-1.332 1.781 1.781 0 013.305 1.332z" clip-rule="evenodd"/><path fill="#2FBCB2" fill-rule="evenodd" d="M28.592 11.308a1.639 1.639 0 11-3.04-1.224 1.639 1.639 0 013.04 1.224z" clip-rule="evenodd"/><path stroke="#36BDB2" stroke-width=".5" d="M28.592 11.308a1.639 1.639 0 11-3.04-1.224 1.639 1.639 0 013.04 1.224z" clip-rule="evenodd"/><path fill="#2FBCB2" fill-rule="evenodd" d="M34.316 17.226l-.053.083-.986 1.556-.453.716.736.435.44-.693.977-1.544.172-.271 1.285-2.028-.722-.458-1.396 2.204z" clip-rule="evenodd"/><path stroke="#36BDB2" stroke-width=".5" d="M34.316 17.226l-.053.083-.986 1.556-.453.716.736.435.44-.693.977-1.544.172-.271 1.285-2.028-.722-.458-1.396 2.204z" clip-rule="evenodd"/><path fill="#2FBCB2" fill-rule="evenodd" d="M29.092 29.572a2.499 2.499 0 002.25.046 2.505 2.505 0 001.315-2.998 2.498 2.498 0 00-1.223-1.476 2.481 2.481 0 00-.69-.244 2.487 2.487 0 00-1.561.198 2.491 2.491 0 00-1.378 1.78 2.49 2.49 0 00.198 1.56c.241.505.63.892 1.09 1.134z" clip-rule="evenodd"/><path stroke="#36BDB2" stroke-width=".5" d="M29.092 29.572a2.499 2.499 0 002.25.046 2.505 2.505 0 001.315-2.998 2.498 2.498 0 00-1.223-1.476 2.481 2.481 0 00-.69-.244 2.487 2.487 0 00-1.561.198 2.491 2.491 0 00-1.378 1.78 2.49 2.49 0 00.198 1.56c.241.505.63.892 1.09 1.134z" clip-rule="evenodd"/><path fill="#2FBCB2" fill-rule="evenodd" d="M30.13 26.455l.694-1.963.79-2.238.055-.157.67-1.896.806.285-2.21 6.254a1.582 1.582 0 00-.805-.285z" clip-rule="evenodd"/><path stroke="#36BDB2" stroke-width=".5" d="M30.13 26.455l.694-1.963.79-2.238.055-.157.67-1.896.806.285-2.21 6.254a1.582 1.582 0 00-.805-.285z" clip-rule="evenodd"/><path fill="#2FBCB2" fill-rule="evenodd" d="M32.264 20.945l-1.572-1.366-1.79-1.557-.126-.109-1.518-1.32.56-.644 5.007 4.351a1.582 1.582 0 00-.56.645z" clip-rule="evenodd"/><path stroke="#36BDB2" stroke-width=".5" d="M32.264 20.945l-1.572-1.366-1.79-1.557-.126-.109-1.518-1.32.56-.644 5.007 4.351a1.581 1.581 0 00-.56.645z" clip-rule="evenodd"/><path fill="#2FBCB2" fill-rule="evenodd" d="M28.418 28.727a3.305 3.305 0 00-.175-.35l-3.345 2.177-.388.252.466.717 3.623-2.359c-.07-.15-.128-.306-.181-.437z" clip-rule="evenodd"/><path stroke="#36BDB2" stroke-width=".5" d="M28.418 28.727a3.305 3.305 0 00-.175-.35l-3.345 2.177-.388.252.466.717 3.623-2.359c-.07-.15-.128-.306-.181-.437z" clip-rule="evenodd"/><path fill="#2FBCB2" fill-rule="evenodd" d="M31.265 29.159a1.59 1.59 0 00.498-.807l.77 1.198.995 1.55.052.084 1.41 2.195-.72.462-1.297-2.021-.173-.27-.987-1.538-.548-.853z" clip-rule="evenodd"/><path stroke="#36BDB2" stroke-width=".5" d="M31.265 29.159a1.59 1.59 0 00.498-.807l.77 1.198.995 1.55.052.084 1.41 2.195-.72.462-1.297-2.021-.173-.27-.987-1.538-.548-.853z" clip-rule="evenodd"/><path fill="#2FBCB2" fill-rule="evenodd" d="M30.425 26.383l.053-.034.03.047a1.068 1.068 0 00-.083-.013z" clip-rule="evenodd"/><path stroke="#36BDB2" stroke-width=".5" d="M30.425 26.383l.053-.034.03.047a1.068 1.068 0 00-.083-.013z" clip-rule="evenodd"/><path fill="#2FBCB2" fill-rule="evenodd" d="M31.096 26.487l5.696-2.723.368.772-5.696 2.722-.368-.771z" clip-rule="evenodd"/><path stroke="#36BDB2" stroke-width=".5" d="M31.096 26.487l5.696-2.723.368.772-5.696 2.722-.368-.771z" clip-rule="evenodd"/><path fill="#2FBCB2" fill-rule="evenodd" d="M23.106 25.283l.285-.806 1.909.675 2.38.84 1.693.598a1.59 1.59 0 00-.724.65l-1.253-.442-4.29-1.515z" clip-rule="evenodd"/><path stroke="#36BDB2" stroke-width=".5" d="M23.106 25.283l.285-.806 1.909.675 2.38.84 1.693.598a1.59 1.59 0 00-.724.65l-1.253-.442-4.29-1.515z" clip-rule="evenodd"/><path fill="#2FBCB2" fill-rule="evenodd" d="M34.468 25.348a1.639 1.639 0 112.957-1.413 1.639 1.639 0 01-2.956 1.413z" clip-rule="evenodd"/><path stroke="#36BDB2" stroke-width=".5" d="M34.468 25.348a1.639 1.639 0 112.957-1.413 1.639 1.639 0 01-2.956 1.413z" clip-rule="evenodd"/><path fill="#2FBCB2" fill-rule="evenodd" d="M21.92 25.746a1.781 1.781 0 113.214-1.536 1.781 1.781 0 01-3.214 1.536z" clip-rule="evenodd"/><path stroke="#36BDB2" stroke-width=".5" d="M21.92 25.746a1.781 1.781 0 113.214-1.536 1.781 1.781 0 01-3.214 1.536z" clip-rule="evenodd"/><path fill="#2FBCB2" fill-rule="evenodd" d="M23.752 30.408a1.639 1.639 0 113.206.678 1.639 1.639 0 01-3.206-.678z" clip-rule="evenodd"/><path stroke="#36BDB2" stroke-width=".5" d="M23.752 30.408a1.639 1.639 0 113.206.678 1.639 1.639 0 01-3.206-.678z" clip-rule="evenodd"/><path fill="#2FBCB2" fill-rule="evenodd" d="M32.394 33.026a1.639 1.639 0 113.2-.71 1.639 1.639 0 01-3.2.71z" clip-rule="evenodd"/><path stroke="#36BDB2" stroke-width=".5" d="M32.394 33.026a1.639 1.639 0 113.2-.71 1.639 1.639 0 01-3.2.71z" clip-rule="evenodd"/><path fill="#2FBCB2" fill-rule="evenodd" d="M22.323 27.142a2.49 2.49 0 002.69-.223 2.505 2.505 0 10-2.69.223z" clip-rule="evenodd"/><path stroke="#36BDB2" stroke-width=".5" d="M22.323 27.142a2.49 2.49 0 002.69-.223 2.505 2.505 0 10-2.69.223z" clip-rule="evenodd"/><path fill="#2FBCB2" fill-rule="evenodd" d="M23.788 33.632a1.638 1.638 0 11.004 3.277 1.638 1.638 0 01-.004-3.277z" clip-rule="evenodd"/><path stroke="#36BDB2" stroke-width=".5" d="M23.788 33.632a1.638 1.638 0 11.004 3.277 1.638 1.638 0 01-.004-3.277z" clip-rule="evenodd"/><path fill="#2FBCB2" fill-rule="evenodd" d="M28.532 16.255a1.639 1.639 0 11-3.04-1.225 1.639 1.639 0 013.04 1.225z" clip-rule="evenodd"/><path stroke="#36BDB2" stroke-width=".5" d="M28.532 16.255a1.639 1.639 0 11-3.04-1.225 1.639 1.639 0 013.04 1.225z" clip-rule="evenodd"/><path fill="#2FBCB2" fill-rule="evenodd" d="M34.26 21.057a1.639 1.639 0 11-3.04-1.224 1.639 1.639 0 013.04 1.224z" clip-rule="evenodd"/><path stroke="#36BDB2" stroke-width=".5" d="M34.26 21.057a1.639 1.639 0 11-3.04-1.224 1.639 1.639 0 013.04 1.224z" clip-rule="evenodd"/><path fill="#2FBCB2" fill-rule="evenodd" d="M37.902 15.504a1.639 1.639 0 11-3.04-1.225 1.639 1.639 0 013.04 1.225z" clip-rule="evenodd"/><path stroke="#36BDB2" stroke-width=".5" d="M37.902 15.504a1.639 1.639 0 11-3.04-1.225 1.639 1.639 0 013.04 1.225z" clip-rule="evenodd"/></svg>