<svg xmlns="http://www.w3.org/2000/svg" width="520" height="250" fill="none"><g clip-path="url(#clip0)"><rect width="520" height="250" fill="#fff" rx="7.923"/><path fill="#C5E8FA" d="M520.911 220.777v24.108c0 4.324-3.344 7.892-7.538 8.108H8.214c-4.353 0-7.962-3.622-7.962-8.108v-6.757C141.338 76.506 152.962 63.155 153.228 62.885h212.637l155.046 157.892z"/><path fill="#B2E1F8" d="M365.918 80.395c-8.227-3.405 4.352-2.378-201.491-2.378-3.874 0-7.802.702-11.359 2.054V29.963c8.599-1.514 203.72-1.46 212.319 0l.531 50.432z"/><path fill="#A4DEF6" d="M380.674 92.45c-14.756-17.838-18.79-14.433-82.326-14.433l66.986-48.054 15.34 62.486z"/><path fill="#93D8FA" d="M520.911 106.341v138.595c0 4.324-3.344 7.892-7.538 8.108C365.918 74.557 375.632 84.395 365.918 80.395l-.531-50.432c13.27 2.27 8.599 1.19 155.524 76.378z"/><path fill="#CFEDFD" d="M153.175 79.585c0 1.459-6.211 1.567-13.164 10L5.401 252.504c-7.272-2.811-5.096 2.162-5.096-147.622 148.039-75.73 139.971-72.703 152.763-74.92.213 46.541.054 27.244.107 49.623z"/><path fill="#A4DEF6" d="M322.18 250.178c0 4.108 18.578 2.811-174.791 2.811 3.344-19.567 23.461-32 27.814-33.297.106-.108 10.828-5.46 37.952-5.46 49.47 0 41.72-3.405 63.218-3.459 31.317-.811 45.807 24.54 45.807 39.405zm-154.302-98.27c-11.996 0-8.812-9.135-23.355-9.135-5.043 0-18.578 3.514-18.578-5.73 0-3.946 4.777-9.135 12.208-9.135 6.37 0 12.261 2.811 18.737 2.811 5.361 0 11.253-1.622 16.773-1.622 21.604 0 13.536 22.811-5.785 22.811zm231.799 2.38c0-16.163-47.666-16.163-47.666 0 0 16.162 47.666 16.162 47.666 0z"/><path fill="#A4DEF6" d="M153.865 242.073c-5.043 0-6.847-3.406-12.421-3.676-4.83.757-9.554-3.243-5.839-7.784.053 0 4.724-5.838 17.039-5.838 15.712.054 14.066 17.298 1.221 17.298zm242.521-11.84c-5.573 0-12.421-2.324-15.818-2.324-3.397 0-5.202 2.054-5.202 3.675 0 2.379 3.238 4.379 3.238 8.217 0 3.297-3.025 5.297-6.051 5.297-8.28 0-16.614-11.892-26.593-11.892-4.724 0-7.856 2.108-11.836 2.108-9.873 0-13.536-12.811 1.857-15.676 8.812-1.675 10.988-5.837 15.393-6.27 10.351-.973 13.164 6.541 23.674 6.541 10.563 0 18.525-8.379 28.079-2.541 7.378 4.541 2.017 12.865-6.741 12.865zm-30.84-28.11c-2.017 0-4.14-.324-6.21-.324-3.715 0-5.52 1.351-8.44 1.351-4.671 0-6.9-3.567-5.838-6.27 1.274-3.189 5.626-2.324 8.705-1.784 7.165 1.298 6.21-3.946 10.616-3.946 8.333 0 12.102 10.973 1.167 10.973zm-2.653-55.241c-1.115-1.027-3.238-1.027-3.238-3.297 0-7.027 15.234-8.432 26.911-7.027 5.733.703 9.289 3.46 15.234 3.46 2.123 0 4.246-.325 6.317-.325 9.872 0 3.98 3.784 28.079 19.46 21.178 13.729 12.898 25.405 7.059 25.405-8.068 0-16.879-14.054-30.574-14.054-4.989 0-9.819 2.541-14.809 2.541-6.741 0-11.465-4.757-19.215-4.757-3.768 0-9.023 2.432-13.535 2.432-3.291 0-6.476-1.783-6.476-4.648 0-5.406 10.616-13.46 4.247-19.19zm6.847-35.786c0 3.514-9.024 4.487-11.306 4.487-5.733 0-6.794-5.514-4.777-7.73 3.078-3.351 16.083-1.838 16.083 3.243zm-134.451-.592c0 2.433-3.875 3.568-6.263 3.568-3.769 0-7.379 1.243-7.379-2.757 0-5.297 13.642-5.675 13.642-.811zm25.054-10.054c0 4.216-4.99 7.135-9.077 7.135-5.255 0-6.847-4.486-15.128-4.919-1.327-.054-11.465 1.514-9.766-4.162 1.804-6.919 33.971-9.027 33.971 1.946z"/><path stroke="#1EB8E7" stroke-linecap="round" stroke-linejoin="round" stroke-width="2.113" d="M73.29 170.342l41.826-50.973M285.927 77.91h21.072m79.514 21.135l26.911 33.081m0-9.947V92.125M134.703 68.343c8.97-4.378 12.739-6.594 19.639-8.216m-2.441.271V46.56m-69.429 55.133v19.514m9.078 8.92v17.189m-47.03-10.595v18.865m13.217-11.297l-42.092 37.027m55.15-40.595v15.513m105.788-88.539h18.79M438.425 86.83v13.243l17.516 12.541V97.749m16.189 32.7l23.355 17.838m-11.996 4.65v-33.73m-17.516 49.568l18.153 17.514M383.381 35.964c-8.811-4.487-18.578-6.92-28.61-6.92M89.691 188.02h27.442m-52.602 26.269h22.24M256.362 78.072v8.973m-24.099.326l-5.255 31.622m-61.413 96.105l-12.633 37.946M211.297 77.91l-3.504 10.487m-97.029 145.621l-9.501 19.027m50.478-101.08l-10.616 21.243m-40.022 2.433l-37.527 56.324m81.743-122.651l-25.585 38.379m300.962 41.623l27.23 40.811M356.629 93.152l15.711 23.568m8.493 74.973l8.281 16.541m-46.551-6.812l13.005 38.973M301.426 77.91l5.096 15.243m-25.956-5.081l1.486 8.703"/><path fill="#1EB8E7" d="M271.542 243.153c.159 19.73 25.213 1.406 25.213-9.297 0-11.622-21.073-.649-25.213 9.297zm-68.26-14.488c-13.854 8.054 1.645 21.46 13.111 21.46 16.773 0-1.699-23.622-13.111-21.46z" opacity=".7"/><path fill="#fff" d="M295.588 231.477c0 12.595-23.621 24.919-23.621 11.622 0-4.811 5.786-10.649 8.864-15.081 4.884-7.135 14.757-5.46 14.757 3.459z"/><path fill="#DAEBED" d="M287.095 242.56c-7.06 2.433-2.707-8.702-8.068-8.432-2.761.162-4.353 5.297-4.353 8.432 0 6.757 10.191 4.379 12.421 0z"/><path fill="#1EB8E7" d="M265.65 31.476h-25.478c0-3.244 1.327-2.433-6.741-2.433 0 50-.371 46.649.849 47.892 2.124 2.108 5.892.703 5.892-2 0-1.784-3.768-1.243 25.478-1.243 0 1.351-.159 2.27.85 3.297 1.804 1.784 5.042 1.135 5.785-1.189.213-.595.107 2.378.107-46.703-8.068-.054-6.742-.865-6.742 2.379zm-25.425 3.513h25.479v9.406h-25.479v-9.406zm0 12.865h25.479v9.406h-25.479v-9.406zm0 22.27V60.72h25.479v9.405h-25.479z" opacity=".3"/><path fill="#DAEBED" d="M239.907 76.397c-4.512 0-3.185-.973-3.185-61.946 0-9.783 7.272-11.351 9.289-6.486.743 1.784.584 3.243.584 11.08a3.23 3.23 0 01-3.503 3.244c0 52.108 1.38 54.108-3.185 54.108z"/><path fill="#C4E4E7" d="M243.092 22.07V11.476c2.123-.973 1.645 7.73 1.645 10.594.053 0-1.008.541-1.645 0z"/><path fill="#DAEBED" d="M273.559 14.397c0 60.865 1.327 62-3.184 62-1.752 0-3.185-1.46-3.185-3.243 0-54.865.159-50.865-.319-50.865-4.193 0-3.184-5.135-3.184-10.81 0-9.244 9.872-8.163 9.872 2.918z"/><path fill="#C4E4E7" d="M267.19 38.288c-.053 0 0 .486 0-9.136h1.964c0 6.27.636 9.136-1.964 9.136zm0 13.89c-.053 0 0 .487 0-9.135h1.964c0 6.27.636 9.135-1.964 9.135zm0 13.785c-.053 0 0 .487 0-9.135h1.964c0 6.27.636 9.135-1.964 9.135zm1.964 4.703v5.46c-1.168-.487-1.964-1.676-1.964-3.027 0-3.081-.531-2.433 1.964-2.433zM267.19 22.07V11.476c-2.123-.973-1.646 7.73-1.646 10.594-.053 0 1.009.541 1.646 0z"/><path fill="#DAEBED" d="M269.313 28.667c0 2.649-1.911 1.838-26.54 1.838-2.442 0-2.442-3.73 0-3.73 25.001.055 26.54-.756 26.54 1.892zm0 13.783c0 2.65-1.911 1.839-26.54 1.839-2.442 0-2.442-3.73 0-3.73 24.948 0 26.54-.757 26.54 1.892zm0 13.731c0 2.649-1.911 1.838-26.54 1.838-2.442 0-2.442-3.73 0-3.73 24.948.054 26.54-.757 26.54 1.892zM267.455 71.8c-24.947 0-26.486.81-26.486-1.892 0-1.027.796-1.838 1.804-1.838 24.948 0 26.487-.81 26.487 1.838.053 1.081-.743 1.892-1.805 1.892z"/><path fill="#C4E4E7" d="M269.154 29.424c-.319.703-.956 1.135-1.699 1.135-26.168 0-25.69.486-26.38-1.135h28.079zm0 13.726a1.824 1.824 0 01-1.699 1.136c-26.221 0-25.69.486-26.38-1.136h28.079zm0 13.788a1.824 1.824 0 01-1.699 1.135c-26.221 0-25.69.486-26.38-1.136h28.079zm0 13.728a1.824 1.824 0 01-1.699 1.135c-26.221 0-25.69.487-26.38-1.135h28.079z"/><path fill="#1EB8E7" d="M169.47 150.287c-11.996 0-8.811-9.135-23.355-9.135-5.043 0-18.578 3.514-18.578-5.73 0-3.946 4.777-9.135 12.208-9.135 6.37 0 12.262 2.811 18.738 2.811 5.361 0 11.252-1.622 16.773-1.622 21.603 0 13.535 22.811-5.786 22.811zm-14.013 90.165c-5.042 0-6.847-3.406-12.42-3.676-4.831.757-9.555-3.243-5.839-7.784.053 0 4.724-5.838 17.038-5.838 15.712.054 14.066 17.298 1.221 17.298zm242.521-11.84c-5.573 0-12.421-2.324-15.818-2.324-3.397 0-5.202 2.054-5.202 3.675 0 2.379 3.238 4.379 3.238 8.217 0 3.297-3.025 5.297-6.051 5.297-8.28 0-16.614-11.892-26.593-11.892-4.724 0-7.855 2.108-11.836 2.108-9.873 0-13.536-12.811 1.857-15.676 8.812-1.675 10.988-5.837 15.393-6.27 10.351-.973 13.164 6.541 23.674 6.541 10.563 0 18.525-8.379 28.079-2.541 7.378 4.541 2.017 12.865-6.741 12.865zm-30.839-28.108c-2.017 0-4.14-.324-6.21-.324-3.716 0-5.521 1.351-8.44 1.351-4.671 0-6.9-3.567-5.839-6.27 1.274-3.189 5.627-2.324 8.705-1.784 7.166 1.298 6.211-3.946 10.616-3.946 8.334 0 12.102 10.973 1.168 10.973zm-2.654-55.243c-1.115-1.027-3.238-.973-3.238-3.297 0-7.027 15.234-8.432 26.911-7.027 5.733.703 9.289 3.459 15.234 3.459 2.123 0 4.247-.324 6.317-.324 9.873 0 3.981 3.784 28.079 19.46 21.179 13.729 12.898 25.405 7.06 25.405-8.069 0-16.88-14.054-30.574-14.054-4.99 0-9.82 2.541-14.81 2.541-6.741 0-11.465-4.757-19.214-4.757-3.769 0-9.024 2.432-13.536 2.432-3.291 0-6.475-1.784-6.475-4.648 0-5.406 10.615-13.46 4.246-19.19z"/><path fill="#0087E8" d="M430.781 172.666c7.909 5.352 13.058 9.838 20.118 2.054.159-.648.318-1.351.318-1.945 1.009 4.54-1.858 10.216-6.423 10.216-8.068 0-16.879-14.054-30.574-14.054-4.989 0-9.819 2.54-14.809 2.54-6.741 0-11.465-4.757-19.215-4.757-3.768 0-9.023 2.433-13.535 2.433-3.291 0-6.476-1.784-6.476-4.649 0-5.459 10.563-13.513 4.247-19.243-1.168-1.027-3.238-1.027-3.238-3.297 0-1.838 1.061-3.352 2.866-4.433-1.274 1.46-1.751 3.784-.265 4.973 9.395 4.595 13.323 13.892 19.162 13.892 3.237 0 8.545-3.189 12.579-3.189 12.156 0-10.456 14.865 7.856 14.865 9.183 0 13.323-4.919 27.389 4.594z" opacity=".3"/><path fill="#fff" d="M399.677 153.315c0-14.865-44.534-14.865-44.534 0s44.534 14.865 44.534 0z"/><path fill="#EAF5F6" d="M399.677 153.316c0 14.865-44.534 14.865-44.534 0 0-8.054 14.703-11.513 22.718-11.243-28.291.271-27.389 21.027.478 21.027 22.346 0 21.338-12.432 21.338-9.784z"/><path fill="#EAF5F6" d="M393.36 153.317c0-10.271-30.255-8.595-30.255 0 0 8.594 30.255 10.27 30.255 0z"/><path fill="#1EB8E7" d="M371.332 109.477c0 3.514-9.023 4.487-11.306 4.487-5.732 0-6.794-5.514-4.777-7.73 3.079-3.351 16.083-1.838 16.083 3.243z"/><path fill="#DAEBED" d="M391.715 153.317c0 8.163-26.965 8.811-28.557.595-1.805-9.243 28.557-9.297 28.557-.595z"/><path fill="#FFDA7F" d="M366.502 53.37c-9.767-5.73-10.244-6.54-10.987-5.19-34.927 60.92-33.335 57.623-31.954 58.433 9.766 5.73 10.244 6.487 10.987 5.19 34.13-60.325 33.281-57.622 31.954-58.433zm-36.678 64.973c-9.183-5.405-7.484-4.378-9.554-5.622-1.274-.756-1.221 0-6.954 10.109-.743 1.297 0 1.351 9.926 7.081a1.019 1.019 0 001.433-.379c5.786-10 6.423-10.432 5.149-11.189z"/><path fill="#1EB8E7" d="M236.881 108.883c0 2.433-3.874 3.568-6.263 3.568-3.769 0-7.378 1.243-7.378-2.757 0-5.297 13.641-5.676 13.641-.811z"/><path fill="#FFC858" d="M324.197 129.963c-.69.325-.318.379-10.509-5.675-1.274-.757-.584-1.136 5.095-11.19.69-1.189 1.858-.162 2.973.487-5.945 8.486-3.557 13.243 2.441 16.378zm6.264-28.486c0-11.622 28.716-37.081 26.168-53.838-1.115-.27 1.168-3.514-33.44 57.513-.743 1.298.053 1.298 9.926 7.082 1.221.702 1.804-.973 2.548-2.271-1.964-2.054-5.202-4.378-5.202-8.486z"/><path fill="#1EB8E7" d="M261.935 98.83c0 4.215-4.99 7.134-9.077 7.134-5.255 0-6.847-4.486-15.127-4.919-1.327-.054-11.466 1.514-9.767-4.162 1.805-6.919 33.971-9.027 33.971 1.946z"/><path fill="#BBC3CC" d="M389.008 157.153c-1.699-5.244-7.485-7.46-13.642-8.757 0-1.568-.053-1.514 0-1.514 12.58-.864 20.914 5.676 13.642 10.271z"/><path fill="#fff" d="M297.445 47.584c-.318.487-.212 1.19.266 1.514 9.235 6.378 9.448 6.919 10.244 5.784 11.359-15.892 27.973-3.784 25.85 8-2.283 12.324-17.623 14.054-29.3 24.324-5.202 4.595-12.421 15.243-9.501 16.27 10.615 3.568 10.934 4.054 11.412 2.811 5.52-14.973 23.673-15.838 33.971-28.27 22.877-27.46-19.481-63.946-42.942-30.433zm5.998 66.757c-11.412-3.729-10.669-3.567-11.147-3.405-.743.216-.424 0-4.034 11.351-.424 1.406.319 1.243 11.147 4.811 1.274.432 1.486-1.135 1.911-2.54 2.866-8.973 3.503-9.784 2.123-10.217zm-31.635 123.192c-.372-.378-3.185-6.486-5.467-9.892-3.238-5.027-5.255-4.811-5.255-7.297 0-3.676 13.27-6.595 18.631 8.54 5.732 15.568-1.858 19.73-7.909 8.649zm-48.993 6.161c0 9.513-22.824 1.297-22.824-10 0-3.676 3.185-5.622 6.847-5.622 9.554 0 15.977 11.027 15.977 15.622z"/><path fill="#DAEBED" d="M222.815 243.694c0 11.244-28.504-2.27-22.081-12.756 3.716 5.189 9.501 14.864 17.676 14.864-2.548-.864-4.724-6.756-1.805-9.783 1.858-2 6.21 4.81 6.21 7.675z"/><path fill="#fff" d="M222.284 215.857c-1.327 6.811-11.146 27.297-4.299 27.297 4.777 0 15.658-22.919 15.658-27.297 0-7.135-9.288-7.784-11.359 0z"/><path fill="#163050" d="M330.832 196.395c-.849-12.108-23.036-18.81-23.408-18.81-.69-.271-.424-.703-.531 3.567 0 .054-.159 10.433-1.114 11.622 9.448 13.946-30.68 18.432-51.965 17.351-20.011-1.027-63.802-10-51.063-23.405-1.964-16.162 4.087-16.054-6.423-12.919-.849 0-18.206 5.081-21.178 14.811-16.72 52.378 159.186 59.243 155.682 7.783z" opacity=".1"/><path fill="#fff" d="M330.567 194.613c-.637-9.46-14.915-16.271-23.673-19.568.106 2.703-.213 8.487-.213 14.27 3.079 12.487-57.379 17.73-93.367 5.676-5.043-1.676-14.597-5.73-11.943-10.811 1.221-2.432.902.487.902-4.486 0-3.892.478-8.108.797-9.514.159-1.351-38.005 9.027-25.479 26.054 22.506 30.595 155.471 30.217 152.976-1.621z"/><path fill="#fff" d="M177.857 205.856c5.361-1.351 10.403 6.486 13.27 11.514-15.606 11.837-23.886-.865-23.886-18.163 0-22.162 11.996-36.054 37.739-36.811l-27.123 43.46z"/><path fill="#fff" d="M202.963 170.016c-8.864 4.216-31.847.973-28.397 32.865.424 3.945 1.698 3.405 3.291 3.027l25.106-35.892zm2.017-7.565c1.858-.054 1.858-.487 1.858 1.838 0 2.811-1.38 4.54-3.875 5.73l2.017-7.568z"/><path fill="#DAEBED" d="M271.967 243.099c0-2.216 1.062-3.513.849-3.837-2.707-4.271-4.565-9.568-8.386-14.271-2.336-2.432 10.987-3.513 15.34 3.892.955 1.568.637.973-1.168 2.162-6.37 4.054-2.442 13.784 2.548 13.784 7.643 0 14.544-12.216 14.384-14.811 1.858 13.19-23.567 26.865-23.567 13.081zm-65.447-76.65c-3.61 10.433-34.661-1.351-30.574 36.325-16.083-28.163 26.115-41.244 30.574-36.325z"/><path fill="#77ECFF" d="M306.947 175.857c0 5.082-.16 11.082-.69 16.217-7.272 12.216-70.65 12.756-96.765 1.513-14.172-26.324 4.087-70.27 44.534-69.243 30.415.757 52.921 22.054 52.921 51.513z"/><path fill="#3ED8FF" d="M298.401 197.045c-20.808 7.405-67.995 5.513-88.909-3.514-6.794-2.919-6.953-3.243-7.166-11.459-.583-10.649 2.23-22.325 8.228-32 31.688-51.352 106.743-12.379 87.847 46.973z"/><path fill="#DAEBED" d="M191.127 217.371c-11.253 8.541-19.427 4.865-22.665-7.676 7.165 11.946 14.066 4.487 19.851 3.244 1.221 1.729 2.177 3.351 2.814 4.432z"/><path fill="#1EB8E7" d="M300.683 173.099c-2.229 1.351-4.671 2.432-6.688 3.459-.584.27.106 19.73-16.189 19.73-15.606 0-8.334-21.297-8.334-26.757 0-4.703-7.378-5.513-11.73-5.513-9.608 0-29.194 6.973-52.496-2.649a52.32 52.32 0 014.246-9.46c3.557-2.378 5.945-2.324 9.13-.973 19.905-8.973 38.642-.81 75.055.649 3.715 6.433 6.157 13.676 7.006 21.514z" opacity=".3"/><path fill="#FFC858" d="M330.832 196.395c-.849-12.108-23.036-18.81-23.408-18.81-.69-.271-.424-.703-.531 3.567 0 .054-.159 10.433-1.114 11.622 9.448 13.946-30.68 18.432-51.965 17.351-19.905-1.027-63.749-10-51.063-23.405-1.964-16.162 4.087-16.054-6.423-12.919-.849 0-18.206 5.081-21.178 14.811-16.72 52.378 159.186 59.243 155.682 7.783z"/><path fill="#FFDA7F" d="M306.946 175.1c.107 2.703-.212 8.487-.212 14.27.956 3.838-5.096 6.703-8.811 7.892-30.892 10.973-109.344-.324-95.544-14.432-.69-14.757 3.981-14.271-5.042-11.406-31.636 9.838-33.122 31.838 19.586 43.406 80.735 17.675 152.339-16.325 90.023-39.73z"/><path fill="#FFC858" d="M193.09 172.88c3.026-1.135 6.423-2.162 10.086-3.081-1.487 8.324-.372 12.432-1.168 13.459-1.327-6.27-1.805-8.865-8.918-10.378z"/><path fill="#BFB5F2" d="M257.105 158.612c-14.81 2.324-30.043 3.189-36.731 3.189-4.088 0-15.287-2.27-15.818-5.892 0-3.243 10.934-25.081 26.115-25.081 6.316 0 15.659 3.406 29.141 3.406 7.219 0 13.057-2.811 19.055-2.811 8.546 0 14.438 8.865 14.438 10.702 0 .865-.212 1.73-.584 2.541 4.565 1.946 10.722 6.757 10.722 11.838 0 5.784-5.626 12.648-10.881 14.54 2.335 12.217-10.351 20.379-16.614 20.379-5.733 0-2.336-14.595-5.786-26.487-1.911-6.919-1.592-4.054-6.051-4.054-2.601.108-4.724-.757-7.006-2.27z"/><path fill="#B699F1" d="M266.447 156.991c-.053-.053-.106-.053 0 0-.053-.053 0 0 0 0zm26.115 14.108c.478 2.487-.425-1.784-1.115-5.243-3.928-8.973-8.652-9.946-8.652-11.514 0-1.513 1.752-1.946 3.238-1.946 5.52 0 10.722 8.541 11.731 15.352-1.646 1.567-3.451 2.757-5.202 3.351z"/><path fill="#1EB8E7" d="M301.638 173.477c0 14.973 6.052 12.379 6.052 6.595 0-6.811-4.672-8.703-6.052-6.595z" opacity=".3"/><path fill="#B699F1" d="M292.031 179.371c-3.132 8.487-13.376 12.108-16.083 12.108-6.104 0-1.858-16.27-6.582-28.973-1.911-2.594-7.59-2.108-9.82-3.567-10.138 2-26.115 2.811-33.599 2.919 4.352-1.676-.213.27 28.344-6.703-1.008-2.919-2.919-5.027-2.919-8.703 0-5.621 4.83-9.73 10.085-11.189-10.616 5.135-6.529 12.378 2.123 19.568 3.981 3.297 10.192 2.486 10.192-.865 0-4.649-9.608-.865-9.608-11.243 0-3.568.849-9.514 4.671-9.514 5.255 0 8.865 9.568 13.748 9.568 2.07 0 6.422-1.514 6.369-.163 1.327-.108 3.079-.702 4.406-.054-.159 2.703-1.274 1.784.212 2.487-4.458 9.838-12.155 15.567-23.089 14.594 6.422 22.163 2.76 28.703 9.023 28.703 2.813.054 8.599-2.811 12.527-8.973z"/><path fill="#fff" d="M323.136 153.478c0 6.703-9.608 26.108-16.827 26.108-1.964 0-3.397-.865-3.981-2.54-3.821-10.433 15.5-9.676 14.279-23.892-1.115-14.217-19.48-10.379-30.362-9.406.584 18.703-9.289 11.784-9.289 8.054 0-2.865.213-3.784.213-6.324-6.635 7.135-11.466 1.622-11.466-5.784 0-13.567 14.12-14.378 22.347-4.27 16.03-4.919 35.086.432 35.086 18.054z"/><path fill="#DAEBED" d="M306.31 179.587c-1.964 0-3.398-.865-3.981-2.54.53-1.135 20.754-8.433 20.541-27.352 1.805 10.973-10.085 29.892-16.56 29.892zm-20.436-28.865c-1.752 8.973-8.918 4.865-8.918 1.027 0-2.865.213-3.784.213-6.324-9.926 10.648-12.686-7.027-11.2-6.865 2.229 6.756 6.953 2.865 10.563 2.865 5.626 0 2.548 10.864 6.529 10.864.584.109 1.911-.324 2.813-1.567zm30.68 2.321c0 1.676 1.539-9.513-13.058-10.486-5.785-.378-12.686.811-17.304 1.189-1.061-6.703 30.362-9.568 30.362 9.297z"/><path fill="#1EB8E7" d="M306.787 183.261c-.318 9.19.266 10.703-8.386 13.784-25.479 9.081-94.004 3.946-95.703-10.324-.637-5.351-1.062-4.108 3.291-1.838 35.616 18.541 93.526 17.784 100.798-1.622z" opacity=".3"/><path fill="#1EB8E7" d="M214.057 195.261c-2.972-.108-6.316-1.567-9.024-4.054 2.23 1.459 5.255 2.811 9.024 4.054z" opacity=".3"/><path fill="#fff" d="M177.326 134.018c-1.168 2.055-3.769 2.541-3.769 3.946 0 3.352 8.758 1.838 8.758-3.189-.053-2.594-3.184-3.946-4.989-.757zm79.513-39.027c1.858 1.838 1.115 4-.212 4-2.654 0-2.866-6.594.212-4zm-25.69 12c.584-1.027 2.76.054 2.76.811 0 1.838-3.716.811-2.76-.811zm136.521 3.026c2.229.757 3.344-3.351-2.017-4.054-1.168-.162-2.23.054-2.283 1.027 0 .703 1.54.703 2.495 1.351 1.327.865.849 1.298 1.805 1.676z"/><path fill="#0087E8" d="M360.08 113.964c-5.733 0-6.795-5.513-4.778-7.73 0 .054-4.405 6.379 7.591 6.379 7.431 0 7.802-2.487 8.386-3.676.956 3.622-7.802 5.027-11.199 5.027z" opacity=".5"/><path fill="#fff" d="M405.091 140.612c7.219-1.513 21.126 13.027 14.119 13.027-3.025 0-4.511-5.135-6.051-6.973-3.822-4.594-9.236-3.027-9.236-4.81 0-.379.372-.811 1.168-1.244zm25.107 17.567c-.797.433-1.699.919-2.601.919-1.168 0-3.132-1.027-3.132-2.162 0-1.946 5.892-2.865 6.21.432-.053 0 .16.216-.477.811zm-30.521 58.272c7.059 0 5.838 8.216-1.327 8.216-5.839 0-4.087-8.216 1.327-8.216zm-237.532 13.082c.053 4.541-7.59 8.108-7.59 4.162 0-1.297 1.964-2.054 1.964-3.513 0-1.73-2.654-3.838-1.38-4.811 1.698-1.189 6.953.378 7.006 4.162z"/><path fill="#DAEBED" d="M391.396 151.965v2.703c-1.698 3.621-8.652 5.027-12.898 5.135v-6.973l12.898-.865z"/><path fill="#BBC3CC" d="M375.366 146.828s-7.325 1.189-8.811 9.027c10.775 1.352 11.253.433 11.253.433l-2.442-9.46z" opacity=".4"/><path fill="#BBC3CC" d="M381.895 159.531c-2.229.324-5.476.432-7.546.27v-12.973c.265.433 7.546 12.649 7.546 12.703z"/><path fill="#DAEBED" d="M378.498 152.828c0 7.838.902 7.243-3.132 6.919-6.528-.432-11.624-2.865-12.208-5.892l15.34-1.027z"/><path fill="#BBC3CC" d="M377.001 159.834c-1.964.108-3.238.054-5.468-.27l5.468-6.703v6.973z" opacity=".4"/><path fill="#BBC3CC" d="M376.958 160.352v-7.354l3.284 6.752-3.284.602z"/><path fill="#BBC3CC" d="M391.715 153.315c0 3.189-4.724 5.081-7.75 5.837 7.537-3.567 7.75-10.108 7.75-5.837z" opacity=".4"/><path fill="#0087E8" d="M378.285 233.099c.531 1.243 1.009 2.433 1.009 3.46 0 2.27-2.707 3.135-4.459 3.135-8.015 0-15.817-12.054-24.841-12.054-4.193 0-11.041 3.675-15.128 3.351-4.936-.108-7.962-4.649-6.316-7.946.584-1.189 1.539-2.054.796-1.351-5.52 5.243.106 12.973 7.803 11.892 4.352 0 8.97-5.244 20.064 1.189 4.352 2.54 9.448 6.703 13.588 8.108 6.051 2 12.527-2 7.484-9.784zm27.549-16.54c1.911 2.919 3.397 9.027-8.971 10.432-5.095.595-9.873-2.649-14.119-2.649-3.291 0-6.794 1.676-5.732 5.406.583-6.919 12.792-1.135 21.019-1.135 8.281 0 13.482-7.514 7.803-12.054zm-38.695-16.056c-2.017 0-4.14-.324-6.21-.324-3.716 0-5.521 1.351-8.44 1.351-4.671 0-6.9-3.567-5.839-6.27 1.486 7.298 10.298 3.135 15.181 3.135 5.149 0 10.085 1.676 11.571-4.432 1.487 3.135-.265 6.54-6.263 6.54zM155.457 240.45c-5.042 0-6.847-3.405-12.42-3.675-4.831.756-9.555-3.244-5.839-7.784-.372.919-.531 1.621-.531 2.216 0 2.27 16.455 7.027 16.826 7.027 8.228 0 8.971-7.676 10.563-11.027 4.459 5.892-1.38 13.243-8.599 13.243zm32.644-103.621c-.69 9.892-17.835 18.108-27.761 10.432-9.448-9.189-15.87-5.405-24.31-5.405-7.856 0-9.979-5.351-7.591-9.622 1.062 12.703 13.748 6.054 22.772 6.054 9.501 0 11.04 9.622 19.268 9.622 10.509 0 14.862-6.54 17.622-11.081zm72.719-34.703c-1.698 2.378-5.095 3.838-7.962 3.838-5.255 0-6.847-4.487-15.127-4.919-2.601-.162-9.873 1.567-9.873-3.514 0-.162.106-.973.106-.54 0 5.081 8.015 2.27 13.482 2.27 5.414 0 7.06 5.351 12.049 5.351 2.654 0 5.202-.648 7.325-2.486zm-30.202 10.27c-3.769 0-7.378 1.243-7.378-2.757 0-.432.212-1.567.212-1.027 0 2.433 1.38 3.027 3.079 3.027 9.13 0 9.926-2.108 10.191-3.459.956 2.756-3.238 4.216-6.104 4.216z" opacity=".5"/><path fill="#FFC858" d="M203.494 190.072c-14.65-10.162-28.079-2.864-28.079 6.865 0 1.514.584 4.162.478 5.081-1.858-4.81-1.752-10.378-.796-13.459.849-10.487 17.994-16.324 28.026-18.811-.69 4-1.009 8.595-.743 13.027.265 6.054.849 2.541-.691 5.297.478.757 1.221 1.568 1.805 2z"/><path fill="#fff" d="M222.231 141.102h20.277c-2.123 6.864-2.177 4.27.69 11.729l-11.253.108c2.919-7.189 2.972-5.243.531-8.81-3.451 5.135-2.814-3.352-3.079 8.864l-5.573-.108c.159-8.216.849-6.81-1.964-6.973l.371-4.81z"/><path fill="#163050" d="M244.1 150.83c-2.919-5.243-2.76-3.297-.743-7.946 1.539-3.568-2.548-2.595-19.852-2.973-3.078-.054-2.76 2.973-2.866 5.081-.053 1.189.902 2.108 2.229 2.108.956 0-2.017 7.297 2.017 7.297 6.688-.054 5.68-.594 5.786-7.351a2.373 2.373 0 001.911-1.189c.743 1.405.849.594-1.539 5.351-.743 1.46.159 3.027 1.751 3.027 0 0 9.714 0 10.298-.324 1.114-.595 1.592-2.054 1.008-3.081zm-2.176 1.189c-.106.054.106 0-3.132.108-.584 0-1.008-2.378-1.274-1.567-.743 2-.053 1.621-3.981 1.675-1.327 0 .797-2.811 1.593-5.189.159-.541.318-.108-1.964-4.595-.531-1.027 1.274-.702 3.291-.648.584 0 .849 2 1.168 1.243.583-1.568 0-1.243 3.503-1.189 1.38 0-1.593 4-1.168 4.973.796 2.378 2.919 4.594 1.964 5.189zm-12.739-6.649c-.531 0-.372.703-.372 2.433-.053 5.351.637 4.486-3.609 4.486-1.38 0 .531-6.919-.584-6.919-2.442 0-1.911.271-1.805-3.189 0-.27.266-.54.637-.54 7.272.054 7.591-.108 7.591.54.053 3.568.318 3.243-1.858 3.189z"/><path fill="#DAEBED" d="M301.373 124.557c-.424 1.352-.637 2.919-1.911 2.541-10.934-3.622-11.624-3.406-11.146-4.811 7.165-22.919.955-5.46 13.057 2.27zm29.459-72.216c2.814 3.405 3.928 7.621 2.654 11.946-4.564 15.243-30.52 13.73-39.172 37.838-.531 1.405.53 1.297 10.722 4.811 1.22.432 1.38-.973 2.07-2.433-1.911-2.432-2.707-4.594-2.707-6.594 0-13.946 31.264-13.568 31.264-35.568.106-5.297-1.964-8.595-4.831-10zm-9.289-18c-7.908-.379-16.879 2.973-24.098 13.243-.849 1.19-.053 1.297 9.077 7.568 1.115.756 1.539-.595 3.185-2.487-9.183-8.81.743-13.675 11.836-18.324z"/><path fill="#fff" d="M326.374 194.072c-.213-3.946-2.601-9.514-6.211-9.352-1.38.054-3.503 1.135-3.397 2.919.106 1.784 1.858 4.054 1.964 6.595.372 7.73-10.722 8-16.083 11.73-1.38.918-1.062 3.945 2.282 3.081 8.706-1.352 21.869-6.108 21.445-14.973zm-37.952 16.756c.159 2.487 4.883 2.054 6.9 0 2.548-3.567-7.113-4.864-6.9 0z"/><path stroke="#DAEBED" stroke-linecap="round" stroke-linejoin="round" stroke-width="2.113" d="M76.156 48.342H20.21m93.739-15.567H71.326M37.09 18.396h9.288m383.023 11.081h37.422M478.5 64.72h32.591"/><path stroke="#163050" stroke-linecap="round" stroke-linejoin="round" stroke-width="2.113" d="M521.813 106.555L407.851 48.771M236.35 29.043h-45.436m107.964 0h-24.947M25.253 91.964l56.53-28.757m164.812-51.732c0 5.513 1.061 10.81-3.185 10.81-.425 0-.319-.756-.319 4.541-2.866 0-2.866 3.73 0 3.73 0 11.135.16 10-.318 10-2.442 0-2.442 3.73 0 3.73.425 0 .318-1.081.318 10-2.866 0-2.866 3.73 0 3.73 0 11.135.16 10-.318 10-2.282 0-2.707 3.73.318 3.73v1.35c0 1.784-1.433 3.244-3.184 3.244-4.512 0-3.185-.973-3.185-61.946 0-11.19 9.873-12.108 9.873-2.92zm26.964 2.918c0 60.865 1.327 62-3.184 62-3.504 0-3.61-4.595-2.867-4.595 2.283 0 2.707-3.73-.318-3.73 0-11.135-.159-10 .318-10 2.442 0 2.442-3.73 0-3.73-.424 0-.318 1.082-.318-10 2.866 0 2.866-3.73 0-3.73 0-11.134-.159-10 .318-10 2.442 0 2.442-3.729 0-3.729-.424 0-.318.703-.318-4.54-1.858.216-3.503-1.298-3.503-3.244 0-7.73-.16-9.297.583-11.08 2.017-5.028 9.289-3.298 9.289 6.378z"/><path stroke="#163050" stroke-linecap="round" stroke-linejoin="round" stroke-width="2.113" d="M269.313 28.665c0 2.649-1.911 1.838-26.54 1.838-2.442 0-2.442-3.73 0-3.73 25.001.055 26.54-.756 26.54 1.892zm0 13.784c0 2.649-1.911 1.838-26.54 1.838-2.442 0-2.442-3.73 0-3.73 24.948 0 26.54-.757 26.54 1.892zm0 13.73c0 2.649-1.911 1.838-26.54 1.838-2.442 0-2.442-3.73 0-3.73 24.948.054 26.54-.757 26.54 1.892zM267.455 71.8c-24.947 0-26.487.81-26.487-1.892 0-1.027.797-1.838 1.805-1.838 24.948 0 26.487-.81 26.487 1.838.053 1.081-.743 1.892-1.805 1.892zm-24.417-48.81c0-7.243-.265-10.27.85-10.703M267.19 22.99c0-7.243.265-10.27-.849-10.703M138.578 91.096c12.898-15.46 16.985-12.92 49.364-12.92m148.305 3.946c-13.748 24.271-13.96 23.73-12.633 24.487 9.766 5.73 10.244 6.486 10.987 5.189 35.829-63.351 33.6-57.46 31.052-58.973-9.448-5.568-8.758-5.19-8.971-5.19-1.114-.27-.637-.323-10.085 16.271l-10.35 18.216zm-6.423 36.217c-9.183-5.406-7.484-4.379-9.554-5.622-1.274-.757-1.221 0-6.954 10.108-.743 1.297 0 1.351 9.926 7.081a1.019 1.019 0 001.433-.378c5.786-10 6.423-10.433 5.149-11.189z"/><path stroke="#163050" stroke-linecap="round" stroke-linejoin="round" stroke-width="2.113" d="M297.445 47.584c-.318.487-.212 1.19.266 1.514 9.235 6.378 9.448 6.919 10.244 5.784 11.359-15.892 27.973-3.784 25.85 8-2.283 12.324-17.623 14.054-29.3 24.324-5.202 4.595-12.421 15.243-9.502 16.27 10.616 3.568 10.935 4.054 11.413 2.811 5.52-14.973 23.673-15.838 33.971-28.27 22.877-27.46-19.481-63.946-42.942-30.433zm5.998 66.757c-11.412-3.729-10.669-3.567-11.147-3.405-.743.216-.424 0-4.034 11.351-.424 1.406.319 1.243 11.147 4.811 1.274.432 1.486-1.135 1.911-2.54 2.866-8.973 3.503-9.784 2.123-10.217zM169.47 150.287c-11.996 0-8.811-9.135-23.355-9.135-5.043 0-18.578 3.514-18.578-5.73 0-3.946 4.777-9.135 12.208-9.135 6.37 0 12.262 2.811 18.738 2.811 5.361 0 11.252-1.622 16.773-1.622 21.603 0 13.535 22.811-5.786 22.811zm-14.013 90.163c-5.043 0-6.847-3.406-12.421-3.676-4.83.757-9.554-3.243-5.838-7.784.053 0 4.724-5.838 17.038-5.838 15.712.054 14.066 17.298 1.221 17.298zm242.521-11.838c-5.573 0-12.421-2.324-15.818-2.324-3.397 0-5.202 2.054-5.202 3.675 0 2.379 3.238 4.379 3.238 8.217 0 3.297-3.025 5.297-6.051 5.297-8.28 0-16.614-11.892-26.593-11.892-4.724 0-7.855 2.108-11.836 2.108-9.873 0-13.536-12.811 1.857-15.676 8.812-1.675 10.988-5.837 15.393-6.27 10.351-.973 13.164 6.541 23.674 6.541 10.563 0 18.525-8.379 28.079-2.541 7.378 4.541 2.017 12.865-6.741 12.865zm-30.839-28.108c-2.017 0-4.14-.324-6.21-.324-3.716 0-5.521 1.351-8.44 1.351-4.671 0-6.9-3.567-5.839-6.27 1.274-3.189 5.627-2.324 8.705-1.784 7.166 1.298 6.211-3.946 10.616-3.946 8.334 0 12.102 10.973 1.168 10.973zm-4.14-56.111c-4.777-1.946-1.115-12.649 25.159-9.46 5.733.703 9.289 3.46 15.234 3.46 2.124 0 4.247-.325 6.317-.325 9.873 0 3.981 3.784 28.079 19.46 21.179 13.729 12.898 25.405 7.06 25.405-8.069 0-16.88-14.054-30.574-14.054-4.99 0-9.82 2.541-14.81 2.541-6.741 0-11.465-4.757-19.214-4.757-3.769 0-9.024 2.432-13.536 2.432-4.458 0-8.015-2.648-5.573-7.838m10.191-51.782c0 3.514-9.023 4.487-11.306 4.487-5.732 0-6.794-5.514-4.777-7.73 3.079-3.351 16.083-1.838 16.083 3.243zm-134.451-.594c0 2.433-3.875 3.568-6.263 3.568-3.769 0-7.378 1.243-7.378-2.757 0-5.297 13.641-5.676 13.641-.811zm25.054-10.056c0 4.216-4.99 7.135-9.077 7.135-5.255 0-6.847-4.486-15.128-4.919-1.327-.054-11.465 1.514-9.766-4.162 1.804-6.919 33.971-9.027 33.971 1.946z"/><path stroke="#163050" stroke-linecap="round" stroke-linejoin="round" stroke-width="2.113" d="M399.677 153.313c0-14.865-44.534-14.865-44.534 0s44.534 14.865 44.534 0z"/><path stroke="#163050" stroke-linecap="round" stroke-linejoin="round" stroke-width="2.084" d="M390.918 153.314c0 8.216-26.221 8.757-27.76.595-1.752-9.298 27.76-9.298 27.76-.595zm-15.711-6.162l5.308 12.217m9.873-7.353l-27.018 1.783"/><path stroke="#163050" stroke-linecap="round" stroke-linejoin="round" stroke-width="2.113" d="M29.127 224.126l33.175-40.433m249.209-6.757c28.026 12.108 21.285 29.73 8.281 39.513-27.549 20.811-93.367 18.757-124.897 3.568-22.399-10.757-34.077-41.135 8.281-50.216"/><path stroke="#163050" stroke-linecap="round" stroke-linejoin="round" stroke-width="2.113" d="M202.751 186.721c-.902.973-2.654 1.729 3.981 5.459 28.451 12.919 82.804 11.568 96.711 2.541m-100.48-8.003c-.318-9.784-.743-19.243 3.981-27.892"/><path stroke="#163050" stroke-linecap="round" stroke-linejoin="round" stroke-width="2.113" d="M257.211 158.612c-39.014 6.27-52.018 1.568-52.602-2.703 0-3.243 10.934-25.081 26.115-25.081 7.166 0 22.24 5.243 35.563 2.757m26.859 10.214c-.319 1.243-.796.757.424 1.351 18.738 9.027 5.945 23.568-1.008 26 2.335 12.216-10.351 20.379-16.614 20.379-6.423 0-1.38-17.838-7.325-30.757m23.939 10.325c-.69-6.757-5.998-12.757-7.537-14.378"/><path stroke="#163050" stroke-linecap="round" stroke-linejoin="round" stroke-width="2.113" d="M261.404 134.232c-9.767 2.433-11.837 12.379-8.28 19.244 1.486 2.865 5.042 9.459 23.355 6.108 7.749-1.406 15.181-6.325 16.295-14.865"/><path stroke="#163050" stroke-linecap="round" stroke-linejoin="round" stroke-width="2.113" d="M323.136 153.474c0 6.703-9.608 26.108-16.826 26.108-1.964 0-3.398-.865-3.981-2.54-3.822-10.433 15.499-9.676 14.278-23.892-1.115-14.217-19.48-10.379-30.362-9.406.584 18.703-9.289 11.784-9.289 8.054 0-2.864.213-3.783.213-6.324-6.635 7.135-11.465 1.622-11.465-5.784 0-13.567 14.119-14.378 22.346-4.27 16.03-4.919 35.086.432 35.086 18.054zm-24.47 14.001c.955 3.027 4.618 17.243.265 29.135m4.353-37.944c1.486 2.865 2.548 5.676 3.132 8.973m-3.45 27.352c5.042-2.703 4.777-9.136 4.777-14.973m-38.961-49.299c-5.626-3.891-22.028-6.108-34.342.055m-4.937-.326c15.712-10.054 33.175-7.784 43.366-1.676m-83.016 89.569c-14.491 10-22.612-1.892-22.612-19.081 0-22.216 12.049-36.108 37.846-36.811m75.267 68.324c4.458 15.46-3.291 16-8.281 7.19-.69-1.081-2.388-4.487-3.184-6.054m-50.48-3.893c-6.581 19.729.478 20.378 10.033 1.567"/><path stroke="#163050" stroke-linecap="round" stroke-linejoin="round" stroke-width="2.113" d="M294.685 227.369c6.635 13.297-22.718 30.649-22.718 15.73 0-1.189.372-2.433.955-3.73m-50.85.919c1.964 4.973-.106 7.567-4.512 7.567-10.138 0-20.489-10.919-16.826-16.919 2.813-4.648 11.147-3.351 16.242 1.568"/></g><defs><clipPath id="clip0"><rect width="520" height="250" fill="#fff" rx="7.923"/></clipPath></defs></svg>