<svg xmlns="http://www.w3.org/2000/svg" width="45" height="45" fill="none"><path fill="#FA873F" fill-rule="evenodd" d="M0 12C0 5.373 5.373 0 12 0h21c6.627 0 12 5.373 12 12v21c0 6.627-5.373 12-12 12H12C5.373 45 0 39.627 0 33V12z" clip-rule="evenodd"/><path fill="#fff" d="M8.922 35a.87.87 0 01-.617-.252.87.87 0 010-1.2l6.625-6.617-1.817-1.834a.87.87 0 01.496-1.47l9.173-1.295a.87.87 0 01.739.243.87.87 0 01.243.73l-1.287 9.234a.869.869 0 01-.582.705.87.87 0 01-.87-.209l-2.478-2.504a.871.871 0 011.235-1.226l1.243 1.252.87-6.382-6.321.87 1.165 1.2a.87.87 0 01.095 1.217l-.07.078-7.225 7.208a.868.868 0 01-.617.252zm17.103-7.182a.87.87 0 01-.192-1.721 6.086 6.086 0 10-7.32-5.965.87.87 0 11-1.74 0 7.824 7.824 0 119.408 7.669.616.616 0 01-.156.017zm.295-6.886h-3.66a.87.87 0 110-1.739h3.66a.87.87 0 010 1.739zm1.374 12.755l5.217-5.217a11.549 11.549 0 10-16.39-16.276l-8.268 8.26a.87.87 0 101.234 1.226l8.26-8.26a9.8 9.8 0 1113.86 13.86l-5.217 5.216a.87.87 0 000 1.226.87.87 0 001.226 0l.078-.035z"/></svg>