<svg xmlns="http://www.w3.org/2000/svg" viewBox="0 0 345 150"><rect width="345" height="150" fill="#fff" rx="3"/><path fill="#163150" d="M37.736 66.832c0 .976-.12 1.856-.36 2.64s-.6 1.452-1.08 2.004a4.637 4.637 0 01-1.776 1.272c-.712.296-1.54.444-2.484.444-.432 0-.856-.028-1.272-.084a10.58 10.58 0 01-1.308-.24l.168-1.92a.627.627 0 01.192-.42c.12-.112.292-.168.516-.168.136 0 .312.028.528.084.224.056.504.084.84.084.456 0 .86-.064 1.212-.192.352-.136.644-.348.876-.636.24-.288.42-.66.54-1.116.12-.464.18-1.024.18-1.68V55.648h3.228v11.184zm8.58-6.336c.92 0 1.753.148 2.497.444a5.384 5.384 0 011.92 1.26c.528.544.936 1.208 1.224 1.992.288.784.432 1.66.432 2.628 0 .976-.144 1.856-.432 2.64a5.7 5.7 0 01-1.224 2.004 5.307 5.307 0 01-1.92 1.272c-.744.296-1.576.444-2.496.444-.92 0-1.756-.148-2.508-.444a5.424 5.424 0 01-1.932-1.272 5.845 5.845 0 01-1.236-2.004c-.288-.784-.432-1.664-.432-2.64 0-.968.144-1.844.432-2.628.296-.784.708-1.448 1.236-1.992a5.504 5.504 0 011.932-1.26c.752-.296 1.588-.444 2.508-.444zm0 10.404c1.025 0 1.78-.344 2.269-1.032.496-.688.744-1.696.744-3.024s-.248-2.34-.744-3.036c-.488-.696-1.244-1.044-2.268-1.044-1.04 0-1.808.352-2.304 1.056-.496.696-.744 1.704-.744 3.024s.248 2.328.744 3.024c.496.688 1.264 1.032 2.304 1.032zm11.541-10.212V73h-2.964V60.688h2.964zm.444-3.588c0 .256-.052.496-.156.72-.104.224-.244.42-.42.588a1.99 1.99 0 01-.6.408c-.232.096-.48.144-.744.144-.256 0-.5-.048-.732-.144a2.036 2.036 0 01-.588-.408 2.036 2.036 0 01-.408-.588 1.808 1.808 0 01-.144-.72c0-.264.048-.512.144-.744a1.99 1.99 0 01.408-.6c.168-.168.364-.3.588-.396a1.77 1.77 0 01.732-.156c.264 0 .512.052.744.156.232.096.432.228.6.396.176.168.316.368.42.6.104.232.156.48.156.744zM61.217 73V60.688h1.812c.384 0 .636.18.756.54l.204.972c.248-.256.508-.488.78-.696.28-.208.572-.388.876-.54.312-.152.644-.268.996-.348.352-.08.736-.12 1.152-.12.672 0 1.268.116 1.788.348.52.224.952.544 1.296.96.352.408.616.9.792 1.476.184.568.276 1.196.276 1.884V73H68.98v-7.836c0-.752-.176-1.332-.528-1.74-.344-.416-.864-.624-1.56-.624-.512 0-.992.116-1.44.348a5.16 5.16 0 00-1.272.948V73h-2.964zm18.281 0V60.688h1.812c.384 0 .636.18.756.54l.204.972c.248-.256.508-.488.78-.696.28-.208.572-.388.876-.54.312-.152.644-.268.996-.348.352-.08.736-.12 1.152-.12.672 0 1.268.116 1.788.348.52.224.952.544 1.296.96.352.408.616.9.792 1.476.184.568.276 1.196.276 1.884V73h-2.964v-7.836c0-.752-.176-1.332-.528-1.74-.344-.416-.864-.624-1.56-.624-.512 0-.992.116-1.44.348a5.16 5.16 0 00-1.272.948V73h-2.964zm18.897-12.504c.92 0 1.752.148 2.496.444a5.384 5.384 0 011.92 1.26c.528.544.936 1.208 1.224 1.992.288.784.432 1.66.432 2.628 0 .976-.144 1.856-.432 2.64a5.7 5.7 0 01-1.224 2.004 5.307 5.307 0 01-1.92 1.272c-.744.296-1.576.444-2.496.444-.92 0-1.756-.148-2.508-.444a5.424 5.424 0 01-1.932-1.272 5.845 5.845 0 01-1.236-2.004c-.288-.784-.432-1.664-.432-2.64 0-.968.144-1.844.432-2.628.296-.784.708-1.448 1.236-1.992a5.504 5.504 0 011.932-1.26c.752-.296 1.588-.444 2.508-.444zm0 10.404c1.024 0 1.78-.344 2.268-1.032.496-.688.744-1.696.744-3.024s-.248-2.34-.744-3.036c-.488-.696-1.244-1.044-2.268-1.044-1.04 0-1.808.352-2.304 1.056-.496.696-.744 1.704-.744 3.024s.248 2.328.744 3.024c.496.688 1.264 1.032 2.304 1.032zm6.884-10.212h2.352c.224 0 .412.052.564.156a.67.67 0 01.288.396l1.764 6.576c.096.36.172.712.228 1.056.064.344.124.688.18 1.032.088-.344.18-.688.276-1.032.104-.344.212-.696.324-1.056l2.04-6.6a.743.743 0 01.288-.396.838.838 0 01.504-.156h1.308c.216 0 .396.052.54.156.144.104.24.236.288.396l2.016 6.72c.104.344.196.68.276 1.008.088.32.172.644.252.972.056-.344.116-.688.18-1.032.072-.344.16-.7.264-1.068l1.824-6.576a.67.67 0 01.288-.396.912.912 0 01.528-.156h2.244L120.195 73h-2.388c-.256 0-.44-.176-.552-.528l-2.22-7.116c-.072-.232-.14-.464-.204-.696-.056-.24-.104-.476-.144-.708a13.439 13.439 0 01-.348 1.428l-2.244 7.092c-.112.352-.328.528-.648.528h-2.268l-3.9-12.312z"/><path fill="#282D32" d="M32.624 100.128c-.64 0-1.133-.179-1.48-.536-.341-.357-.512-.872-.512-1.544v-4.96h-.976a.33.33 0 01-.216-.072c-.059-.053-.088-.133-.088-.24v-.568l1.328-.168.328-2.504a.287.287 0 01.104-.192.32.32 0 01.224-.08h.72v2.792h2.32v1.032h-2.32v4.864c0 .341.083.595.248.76a.866.866 0 00.64.248c.15 0 .277-.019.384-.056.112-.043.208-.088.288-.136.08-.048.147-.09.2-.128.059-.043.11-.064.152-.064.075 0 .141.045.2.136l.416.68c-.245.23-.541.41-.888.544a3.071 3.071 0 01-1.072.192zm3.513-.128V88.216h1.424v4.768a4.3 4.3 0 011.152-.88c.421-.224.906-.336 1.456-.336.442 0 .832.075 1.168.224.341.144.624.352.848.624.23.267.402.59.52.968.117.379.176.797.176 1.256V100h-1.424v-5.16c0-.613-.142-1.088-.424-1.424-.278-.341-.704-.512-1.28-.512a2.41 2.41 0 00-1.184.304 3.913 3.913 0 00-1.008.824V100h-1.424zm12.098-8.232c.486 0 .934.083 1.344.248.411.16.766.395 1.064.704.299.304.531.683.696 1.136.171.448.256.96.256 1.536 0 .224-.024.373-.072.448-.048.075-.138.112-.272.112H45.86c.011.512.08.957.208 1.336.128.379.304.696.528.952.224.25.491.44.8.568a2.8 2.8 0 001.04.184c.358 0 .664-.04.92-.12a4.608 4.608 0 001.136-.536c.128-.085.238-.128.328-.128.118 0 .208.045.272.136l.4.52c-.176.213-.386.4-.632.56a4.03 4.03 0 01-.792.384 4.676 4.676 0 01-.864.224c-.298.053-.594.08-.888.08-.56 0-1.077-.093-1.552-.28A3.513 3.513 0 0145.54 99a3.89 3.89 0 01-.8-1.36c-.192-.539-.288-1.157-.288-1.856 0-.565.086-1.093.256-1.584a3.74 3.74 0 01.752-1.272 3.374 3.374 0 011.192-.848 3.87 3.87 0 011.584-.312zm.032 1.048c-.688 0-1.229.2-1.624.6-.394.395-.64.944-.736 1.648h4.408c0-.33-.045-.632-.136-.904a1.978 1.978 0 00-.4-.712 1.722 1.722 0 00-.648-.464 2.099 2.099 0 00-.864-.168zM56.512 100v-8.104h.848c.202 0 .33.099.384.296l.112.88c.352-.39.744-.704 1.176-.944.437-.24.941-.36 1.512-.36.442 0 .832.075 1.168.224.341.144.624.352.848.624.23.267.402.59.52.968.117.379.176.797.176 1.256V100h-1.424v-5.16c0-.613-.142-1.088-.424-1.424-.278-.341-.704-.512-1.28-.512a2.41 2.41 0 00-1.184.304 3.913 3.913 0 00-1.008.824V100h-1.424zm12.17-8.232c.592 0 1.126.099 1.6.296.48.197.886.477 1.216.84.336.363.592.803.768 1.32a5.11 5.11 0 01.272 1.72c0 .64-.09 1.216-.272 1.728a3.64 3.64 0 01-.768 1.312c-.33.363-.736.643-1.216.84a4.234 4.234 0 01-1.6.288 4.295 4.295 0 01-1.608-.288 3.428 3.428 0 01-1.216-.84 3.74 3.74 0 01-.776-1.312 5.151 5.151 0 01-.272-1.728c0-.635.091-1.208.272-1.72.182-.517.44-.957.776-1.32a3.428 3.428 0 011.216-.84 4.193 4.193 0 011.608-.296zm0 7.232c.8 0 1.398-.267 1.792-.8.395-.539.592-1.288.592-2.248 0-.965-.197-1.717-.592-2.256-.394-.539-.992-.808-1.792-.808a2.5 2.5 0 00-1.056.208 2.01 2.01 0 00-.752.6 2.753 2.753 0 00-.448.968 5.255 5.255 0 00-.144 1.288c0 .48.048.91.144 1.288.102.379.251.699.448.96.203.256.454.453.752.592.299.139.651.208 1.056.208zm5.243-4.4h3.952v1.208h-3.952V94.6zm7.499-6.384V100H80V88.216h1.424zm5.79 3.552a4.14 4.14 0 011.6.296c.48.197.885.477 1.216.84.336.363.592.803.768 1.32.181.512.272 1.085.272 1.72 0 .64-.091 1.216-.272 1.728a3.64 3.64 0 01-.768 1.312 3.331 3.331 0 01-1.216.84 4.233 4.233 0 01-1.6.288 4.295 4.295 0 01-1.608-.288 3.429 3.429 0 01-1.216-.84 3.742 3.742 0 01-.776-1.312 5.154 5.154 0 01-.272-1.728c0-.635.09-1.208.272-1.72a3.73 3.73 0 01.776-1.32 3.429 3.429 0 011.216-.84 4.193 4.193 0 011.608-.296zm0 7.232c.8 0 1.397-.267 1.792-.8.394-.539.592-1.288.592-2.248 0-.965-.198-1.717-.592-2.256-.395-.539-.992-.808-1.792-.808-.406 0-.758.07-1.056.208-.299.139-.55.339-.752.6a2.756 2.756 0 00-.448.968 5.255 5.255 0 00-.144 1.288c0 .48.048.91.144 1.288.101.379.25.699.448.96.202.256.453.453.752.592.298.139.65.208 1.056.208zm10.25-5.768a.316.316 0 01-.296.176c-.08 0-.17-.03-.272-.088a4.781 4.781 0 00-.376-.192 2.87 2.87 0 00-.52-.2 2.402 2.402 0 00-.72-.096c-.24 0-.456.032-.648.096a1.545 1.545 0 00-.496.248 1.165 1.165 0 00-.312.376.996.996 0 00-.104.456.78.78 0 00.176.52c.123.139.283.259.48.36.198.101.422.192.672.272.25.075.507.157.768.248.267.085.526.181.776.288.25.107.475.24.672.4.198.16.355.357.472.592.123.23.184.507.184.832 0 .373-.066.72-.2 1.04-.133.315-.33.59-.592.824-.261.23-.581.41-.96.544a3.95 3.95 0 01-1.312.2 4.152 4.152 0 01-1.536-.272 3.955 3.955 0 01-1.168-.712l.336-.544a.487.487 0 01.152-.16.427.427 0 01.232-.056c.096 0 .198.037.304.112.107.075.235.157.384.248.155.09.339.173.552.248.219.075.49.112.816.112.278 0 .52-.035.728-.104a1.58 1.58 0 00.52-.296c.139-.123.24-.264.304-.424.07-.16.104-.33.104-.512a.822.822 0 00-.184-.552 1.404 1.404 0 00-.472-.376 3.477 3.477 0 00-.68-.272l-.776-.248c-.261-.085-.52-.181-.776-.288a2.849 2.849 0 01-.672-.416 1.924 1.924 0 01-.48-.608c-.117-.245-.176-.541-.176-.888 0-.31.064-.605.192-.888a2.14 2.14 0 01.56-.752c.246-.219.547-.392.904-.52a3.617 3.617 0 011.224-.192c.534 0 1.01.085 1.432.256.427.165.795.395 1.104.688l-.32.52zm6.938 0a.316.316 0 01-.296.176.556.556 0 01-.272-.088 4.946 4.946 0 00-.376-.192 2.888 2.888 0 00-.52-.2 2.405 2.405 0 00-.72-.096c-.24 0-.456.032-.648.096a1.539 1.539 0 00-.496.248 1.15 1.15 0 00-.312.376.997.997 0 00-.104.456c0 .208.058.381.176.52a1.6 1.6 0 00.48.36c.197.101.421.192.672.272.25.075.506.157.768.248.266.085.525.181.776.288.25.107.474.24.672.4.197.16.354.357.472.592.122.23.184.507.184.832 0 .373-.067.72-.2 1.04a2.31 2.31 0 01-.592.824c-.262.23-.582.41-.96.544-.379.133-.816.2-1.312.2a4.148 4.148 0 01-1.536-.272 3.954 3.954 0 01-1.168-.712l.336-.544a.487.487 0 01.152-.16.427.427 0 01.232-.056c.096 0 .197.037.304.112.106.075.234.157.384.248.154.09.338.173.552.248.218.075.49.112.816.112.277 0 .52-.035.728-.104.208-.075.381-.173.52-.296.138-.123.24-.264.304-.424.069-.16.104-.33.104-.512a.825.825 0 00-.184-.552 1.413 1.413 0 00-.472-.376 3.492 3.492 0 00-.68-.272l-.776-.248c-.262-.085-.52-.181-.776-.288a2.842 2.842 0 01-.672-.416 1.924 1.924 0 01-.48-.608c-.118-.245-.176-.541-.176-.888 0-.31.064-.605.192-.888.128-.288.314-.539.56-.752.245-.219.546-.392.904-.52a3.615 3.615 0 011.224-.192c.533 0 1.01.085 1.432.256a3.35 3.35 0 011.104.688l-.32.52zm6.975-5.016V100h-1.424V88.216h1.424zm5.79 3.552a4.14 4.14 0 011.6.296c.48.197.885.477 1.216.84.336.363.592.803.768 1.32.181.512.272 1.085.272 1.72 0 .64-.091 1.216-.272 1.728a3.64 3.64 0 01-.768 1.312 3.339 3.339 0 01-1.216.84 4.235 4.235 0 01-1.6.288 4.295 4.295 0 01-1.608-.288 3.425 3.425 0 01-1.216-.84 3.735 3.735 0 01-.776-1.312c-.182-.512-.272-1.088-.272-1.728 0-.635.09-1.208.272-1.72a3.73 3.73 0 01.776-1.32 3.425 3.425 0 011.216-.84 4.193 4.193 0 011.608-.296zm0 7.232c.8 0 1.397-.267 1.792-.8.394-.539.592-1.288.592-2.248 0-.965-.198-1.717-.592-2.256-.395-.539-.992-.808-1.792-.808-.406 0-.758.07-1.056.208-.299.139-.55.339-.752.6a2.737 2.737 0 00-.448.968 5.255 5.255 0 00-.144 1.288c0 .48.048.91.144 1.288.101.379.25.699.448.96.202.256.453.453.752.592.298.139.65.208 1.056.208zm8.066 1.128c-.64 0-1.133-.179-1.48-.536-.341-.357-.512-.872-.512-1.544v-4.96h-.976a.331.331 0 01-.216-.072c-.058-.053-.088-.133-.088-.24v-.568l1.328-.168.328-2.504a.322.322 0 01.328-.272h.72v2.792h2.32v1.032h-2.32v4.864c0 .341.083.595.248.76a.868.868 0 00.64.248c.15 0 .278-.019.384-.056.112-.043.208-.088.288-.136.08-.048.147-.09.2-.128.059-.043.11-.064.152-.064.075 0 .142.045.2.136l.416.68c-.245.23-.541.41-.888.544a3.068 3.068 0 01-1.072.192zm5.969 0c-.64 0-1.133-.179-1.48-.536-.341-.357-.512-.872-.512-1.544v-4.96h-.976a.331.331 0 01-.216-.072c-.059-.053-.088-.133-.088-.24v-.568l1.328-.168.328-2.504a.287.287 0 01.104-.192.32.32 0 01.224-.08h.72v2.792h2.32v1.032h-2.32v4.864c0 .341.083.595.248.76a.866.866 0 00.64.248c.149 0 .277-.019.384-.056.112-.043.208-.088.288-.136.08-.048.147-.09.2-.128.059-.043.109-.064.152-.064.075 0 .141.045.2.136l.416.68c-.245.23-.541.41-.888.544a3.073 3.073 0 01-1.072.192zm6.721-8.36c.485 0 .933.083 1.344.248.411.16.765.395 1.064.704.299.304.531.683.696 1.136.171.448.256.96.256 1.536 0 .224-.024.373-.072.448-.048.075-.139.112-.272.112h-5.392c.011.512.08.957.208 1.336.128.379.304.696.528.952.224.25.491.44.8.568.309.123.656.184 1.04.184.357 0 .664-.04.92-.12a4.635 4.635 0 001.136-.536c.128-.085.237-.128.328-.128.117 0 .208.045.272.136l.4.52a2.79 2.79 0 01-.632.56 4.008 4.008 0 01-.792.384 4.66 4.66 0 01-.864.224c-.299.053-.595.08-.888.08-.56 0-1.077-.093-1.552-.28a3.52 3.52 0 01-1.224-.832 3.896 3.896 0 01-.8-1.36c-.192-.539-.288-1.157-.288-1.856 0-.565.085-1.093.256-1.584a3.75 3.75 0 01.752-1.272 3.375 3.375 0 011.192-.848 3.867 3.867 0 011.584-.312zm.032 1.048c-.688 0-1.229.2-1.624.6-.395.395-.64.944-.736 1.648h4.408c0-.33-.045-.632-.136-.904a1.982 1.982 0 00-.4-.712 1.722 1.722 0 00-.648-.464 2.1 2.1 0 00-.864-.168zm5.151 7.184v-8.104h.816c.154 0 .261.03.32.088.058.059.098.16.12.304l.096 1.264c.277-.565.618-1.005 1.024-1.32.41-.32.89-.48 1.44-.48.224 0 .426.027.608.08.181.048.349.117.504.208l-.184 1.064c-.038.133-.12.2-.248.2-.075 0-.19-.024-.344-.072-.155-.053-.371-.08-.648-.08-.496 0-.912.144-1.248.432-.331.288-.608.707-.832 1.256V100h-1.424zm8.829 2.392a.724.724 0 01-.184.256c-.07.064-.179.096-.328.096h-1.056l1.48-3.216-3.344-7.632h1.232a.41.41 0 01.288.096c.069.059.12.125.152.2l2.168 5.104c.048.117.088.235.12.352.037.117.069.237.096.36.037-.123.074-.243.112-.36.037-.117.08-.237.128-.36l2.104-5.096a.438.438 0 01.16-.208.424.424 0 01.256-.088h1.136l-4.52 10.496z"/><path fill="#FFB636" fill-rule="evenodd" d="M182.761 59.868c-.085-.781.328-.867.545-.812 0 0 3.588 1.524 10.754 1.65 7.165.124 11.108-1.597 11.108-1.597.218-.053.63.034.541.816-.089.78-.224 3.038-.281 4.069l4.124.01c.506-.017 1.442.274 1.135 1.576a52.34 52.34 0 00-.271 1.3c-.606 2.99-1.9 9.385-3.449 11.063-1.088 1.3-2.555 1.947-3.695 2.215-.95.283-1.94.233-2.283.216a3.25 3.25 0 00-.105-.004c-.762 1.137-2.711 3.596-4.406 4.33-.552.2-.548.4-.544.558v.037c.087 1.466.455 4.744 1.233 6.135.103.208.132.366.152.474.022.118.033.178.118.178l1.031.002c.108 0 .369.001.542.219.092.116.255.113.431.11.237-.004.499-.008.653.272.166.3.131.62.114.785a.882.882 0 00-.007.084l1.628.004c.199 0 .596.099.595.49l-.008 3.255c0 .06-.004.108-.008.148-.015.178-.015.178.442.179l1.41.003c.091 0 .272.012.27.49l-.003 1.464c0 .109-.001.326-.489.325l-19.801-.049c-.488 0-.488-.218-.487-.326l.003-1.465c.001-.478.182-.488.273-.488l1.411.003c.456.001.456.001.442-.177a1.425 1.425 0 01-.008-.147l.008-3.256c.001-.39.4-.487.598-.487l1.628.004c0-.02-.003-.048-.006-.084-.017-.165-.05-.485.117-.784.156-.279.418-.273.654-.268.177.003.339.007.432-.109.174-.217.435-.216.543-.216l1.031.003c.085 0 .096-.06.119-.178.02-.108.05-.266.154-.473.785-1.387 1.169-4.663 1.263-6.128l.001-.038c.004-.158.01-.358-.542-.56-1.691-.743-3.628-3.21-4.385-4.352-.02 0-.055.001-.104.004h-.001c-.343.015-1.333.06-2.282-.227-1.138-.274-2.602-.929-3.684-2.234-1.541-1.684-2.803-8.085-3.394-11.08-.115-.582-.204-1.035-.266-1.3-.3-1.303.637-1.59 1.144-1.571l4.124.01c-.052-1.031-.177-3.289-.262-4.07zm-2.751 5.875c-.635-.011-.484.73-.369 1.295l.041.209c.103.567.583 2.908 1.845 6.673 1.263 3.765 3.703 4.04 4.766 3.706-.728-1.573-2.262-6.606-2.572-8.347-.309-1.741-.693-3.484-1.146-3.491l-2.565-.045zm28.756 1.519c.125-.563.288-1.301-.346-1.301h-2.566c-.452 0-.867 1.735-1.207 3.47-.34 1.736-1.962 6.742-2.717 8.301 1.057.352 3.502.12 4.83-3.622 1.328-3.743 1.848-6.074 1.962-6.64l.044-.208zm-10.885 5.835l-3.698 2.328-3.683-2.353 3.672 5.354v.001h.001v-.001l3.708-5.329zm-3.662-7.881v-.003l-.001.001-.001-.001v.003l-3.736 6.383 3.706 2.324v.001h.002l3.721-2.299-3.691-6.409z" clip-rule="evenodd"/><path fill="#FFD469" d="M205.556 59.223c-.009 1.042-5.05 1.842-11.259 1.788-6.209-.054-11.386-.945-11.377-1.987.009-1.042 5.201-1.84 11.41-1.786 6.209.054 11.236.943 11.226 1.985z"/><path fill="#FFCC4E" d="M202.297 62.937c.555 0 .654 0 1.66-.352-.125.669-.781 5.742-1.006 6.538-.602 2.128-1.282 5.416-2.163 6.051-.167.12-.905 0-1.18-.177-.274-.177.677-2 1.834-5.874.654-4.175.453-5.985.855-6.186z"/><path fill="url(#paint0_linear)" d="M232.317 57.593c6.854 0 12.411 5.649 12.411 12.617v7.255c0 6.969-5.557 12.617-12.411 12.617a12.23 12.23 0 01-3.117-.4v.856c0 5.097-4.084 9.24-9.153 9.322l-.154.001V72.103h.014V70.21c0-6.968 5.556-12.617 12.41-12.617zm55.576 0c6.858 0 12.418 5.681 12.418 12.69v7.296c0 7.008-5.56 12.69-12.418 12.69s-12.417-5.682-12.417-12.69v-7.297c0-7.008 5.559-12.69 12.417-12.69zm-27.791-.6c6.858 0 12.417 5.681 12.417 12.69v7.296c0 7.008-5.559 12.69-12.417 12.69s-12.418-5.682-12.418-12.69v-7.296c0-7.009 5.56-12.69 12.418-12.69zM312.728 48v32.192c0 5.181-4.151 9.392-9.304 9.476h-.157v-32.19c0-5.234 4.236-9.477 9.461-9.477zm-24.835 19.11c-1.714 0-3.104 1.42-3.104 3.172v7.297c0 1.752 1.39 3.172 3.104 3.172 1.715 0 3.105-1.42 3.105-3.172v-7.297c0-1.752-1.39-3.172-3.105-3.172zm-55.576-.054c-1.713 0-3.102 1.412-3.102 3.154v7.255c0 1.742 1.389 3.154 3.102 3.154 1.714 0 3.103-1.412 3.103-3.154V70.21c0-1.742-1.389-3.154-3.103-3.154zm27.785-.546c-1.715 0-3.105 1.42-3.105 3.173v7.296c0 1.752 1.39 3.173 3.105 3.173 1.714 0 3.104-1.42 3.104-3.173v-7.296c0-1.752-1.39-3.173-3.104-3.173z"/><path fill="url(#paint1_linear)" d="M277.975 98.34h-.258c-.256 0-.482-.24-.482-.614V95.96h.551c.256 0 .451-.17.451-.411a.414.414 0 00-.128-.308.468.468 0 00-.323-.118h-.551v-.992a.46.46 0 00-.474-.471.46.46 0 00-.475.471v.992h-.254a.465.465 0 00-.323.118.41.41 0 00-.129.308c0 .24.196.41.452.41h.254v1.768c0 .88.612 1.557 1.431 1.557h.137c.295 0 .543-.186.543-.471 0-.258-.175-.471-.422-.471z"/><path fill="url(#paint2_linear)" fill-rule="evenodd" d="M283.699 97.13c-.007-1.28-.914-2.19-2.182-2.19-.638 0-1.187.226-1.577.615-.389.39-.614.939-.614 1.576 0 .633.225 1.18.614 1.568.39.389.939.614 1.577.614.634 0 1.181-.225 1.569-.614.389-.388.613-.935.613-1.568zm-2.182-1.322c.37 0 .68.137.899.367.218.232.35.562.35.956 0 .393-.132.722-.35.95a1.214 1.214 0 01-.899.365c-.371 0-.683-.135-.904-.365-.22-.229-.353-.557-.353-.95 0-.782.524-1.323 1.257-1.323z" clip-rule="evenodd"/><path fill="url(#paint3_linear)" fill-rule="evenodd" d="M287.006 100.994c-.748 0-1.429-.297-1.882-.864a.413.413 0 01-.095-.336.437.437 0 01.192-.284h.001a.478.478 0 01.651.111c.253.32.641.506 1.148.506.34 0 .65-.124.876-.36.225-.236.373-.59.373-1.06v-.06c-.336.42-.824.666-1.401.666-.595 0-1.107-.227-1.469-.616-.362-.39-.57-.935-.57-1.566 0-.637.225-1.186.614-1.576.39-.39.938-.614 1.577-.614 1.268 0 2.175.91 2.183 2.19v1.628c0 1.239-.897 2.235-2.198 2.235zm.015-2.548c-.371 0-.683-.135-.904-.365-.22-.229-.353-.557-.353-.95 0-.782.524-1.323 1.257-1.323.37 0 .68.137.899.367.218.232.35.562.35.956 0 .393-.132.722-.35.95a1.215 1.215 0 01-.899.365z" clip-rule="evenodd"/><path fill="url(#paint4_linear)" fill-rule="evenodd" d="M294.012 98.204a.484.484 0 00-.595.005c-.19.14-.535.267-.824.267-.689 0-1.197-.4-1.342-.987h2.769a.453.453 0 00.317-.119.415.415 0 00.127-.307c0-.614-.182-1.145-.525-1.524-.345-.38-.844-.598-1.46-.598-.624 0-1.161.225-1.543.615-.381.39-.602.938-.602 1.575 0 .634.233 1.181.635 1.57.402.388.968.612 1.624.612.482 0 1.073-.194 1.433-.48.104-.08.16-.19.156-.31a.447.447 0 00-.168-.318l-.002-.001zm-1.533-2.427c.319 0 .569.107.751.284.162.158.274.376.328.636h-2.299c.065-.26.193-.477.375-.635.206-.178.489-.285.845-.285z" clip-rule="evenodd"/><path fill="url(#paint5_linear)" d="M297.505 98.34h-.258c-.257 0-.482-.24-.482-.614V95.96h.55c.256 0 .452-.17.452-.411a.415.415 0 00-.129-.308.466.466 0 00-.323-.118h-.55v-.992a.46.46 0 00-.475-.471.46.46 0 00-.474.471v.992h-.255c-.127 0-.24.04-.323.118a.415.415 0 00-.129.308c0 .24.196.41.452.41h.255v1.768c0 .88.611 1.557 1.431 1.557h.136c.295 0 .543-.186.543-.471 0-.258-.175-.471-.421-.471z"/><path fill="url(#paint6_linear)" d="M301.229 94.933c-.459 0-.875.142-1.196.39v-1.638a.48.48 0 00-.136-.343.484.484 0 00-.346-.135.485.485 0 00-.347.135.48.48 0 00-.136.343v5.127a.48.48 0 00.136.344c.088.087.21.135.347.135a.484.484 0 00.346-.135.48.48 0 00.136-.344v-2.126c0-.485.436-.87 1.044-.87.328 0 .604.09.797.272.192.18.315.463.315.87v1.854c0 .27.209.479.482.479a.472.472 0 00.482-.479v-1.855c0-.645-.204-1.153-.552-1.5-.348-.347-.831-.524-1.372-.524z"/><path fill="url(#paint7_linear)" fill-rule="evenodd" d="M308.104 97.489h-2.769c.145.586.653.987 1.342.987.289 0 .634-.128.824-.267a.485.485 0 01.595-.005l.002.001c.102.089.164.2.168.318a.373.373 0 01-.156.31c-.36.286-.951.48-1.433.48-.656 0-1.222-.225-1.624-.613-.402-.388-.635-.935-.635-1.57 0-.636.22-1.184.602-1.574.382-.39.919-.615 1.543-.615.616 0 1.115.218 1.46.598.343.38.525.91.525 1.524 0 .122-.045.23-.127.307a.453.453 0 01-.317.119zm-1.541-1.712c.319 0 .569.107.751.284.162.158.274.376.328.636h-2.299c.065-.26.193-.477.375-.635.206-.178.489-.285.845-.285z" clip-rule="evenodd"/><path fill="url(#paint8_linear)" d="M311.856 94.925c-.452 0-.871.165-1.185.437a.436.436 0 00-.119-.268.48.48 0 00-.351-.123.478.478 0 00-.348.125.472.472 0 00-.126.346v3.37c0 .14.039.263.127.349a.48.48 0 00.347.122.476.476 0 00.351-.126.472.472 0 00.124-.345V96.61c0-.308.16-.541.437-.68.281-.142.685-.186 1.156-.095a.49.49 0 00.325-.025.393.393 0 00.205-.27.365.365 0 00-.026-.257.488.488 0 00-.188-.197c-.166-.104-.416-.162-.729-.162z"/><defs><linearGradient id="paint0_linear" x1="266.31" x2="266.31" y1="48" y2="99.861" gradientUnits="userSpaceOnUse"><stop stop-color="#7E46F2"/><stop offset="1" stop-color="#46279A"/></linearGradient><linearGradient id="paint1_linear" x1="294.195" x2="294.195" y1="93.207" y2="100.994" gradientUnits="userSpaceOnUse"><stop stop-color="#7E46F2"/><stop offset="1" stop-color="#46279A"/></linearGradient><linearGradient id="paint2_linear" x1="294.195" x2="294.195" y1="93.207" y2="100.994" gradientUnits="userSpaceOnUse"><stop stop-color="#7E46F2"/><stop offset="1" stop-color="#46279A"/></linearGradient><linearGradient id="paint3_linear" x1="294.196" x2="294.196" y1="93.207" y2="100.994" gradientUnits="userSpaceOnUse"><stop stop-color="#7E46F2"/><stop offset="1" stop-color="#46279A"/></linearGradient><linearGradient id="paint4_linear" x1="294.196" x2="294.196" y1="93.207" y2="100.994" gradientUnits="userSpaceOnUse"><stop stop-color="#7E46F2"/><stop offset="1" stop-color="#46279A"/></linearGradient><linearGradient id="paint5_linear" x1="294.195" x2="294.195" y1="93.207" y2="100.994" gradientUnits="userSpaceOnUse"><stop stop-color="#7E46F2"/><stop offset="1" stop-color="#46279A"/></linearGradient><linearGradient id="paint6_linear" x1="294.196" x2="294.196" y1="93.207" y2="100.994" gradientUnits="userSpaceOnUse"><stop stop-color="#7E46F2"/><stop offset="1" stop-color="#46279A"/></linearGradient><linearGradient id="paint7_linear" x1="294.196" x2="294.196" y1="93.207" y2="100.994" gradientUnits="userSpaceOnUse"><stop stop-color="#7E46F2"/><stop offset="1" stop-color="#46279A"/></linearGradient><linearGradient id="paint8_linear" x1="294.196" x2="294.196" y1="93.207" y2="100.994" gradientUnits="userSpaceOnUse"><stop stop-color="#7E46F2"/><stop offset="1" stop-color="#46279A"/></linearGradient></defs></svg>