<svg xmlns="http://www.w3.org/2000/svg" viewBox="0 0 1200 120"><g clip-path="url(#clip0)"><path fill="#fff" d="M0 0h1200v120H0z"/><mask id="a" width="1200" height="120" x="0" y="0" maskUnits="userSpaceOnUse"><path fill="#fff" d="M0 0h1200v120H0z"/></mask><g filter="url(#filter0_d)" mask="url(#a)"><ellipse cx="792.5" cy="60" fill="url(#paint0_linear)" rx="434.5" ry="252"/></g><path fill="#fff" d="M475.38 65.435c0 1.83-.225 3.48-.675 4.95-.45 1.47-1.125 2.722-2.025 3.757-.885 1.035-1.995 1.83-3.33 2.386-1.335.554-2.887.832-4.657.832-.81 0-1.605-.052-2.386-.157-.779-.09-1.597-.24-2.452-.45l.315-3.6c.03-.33.15-.593.36-.788.225-.21.548-.315.968-.315.255 0 .585.053.99.157.42.106.945.158 1.575.158.855 0 1.612-.12 2.272-.36a3.855 3.855 0 001.643-1.192c.45-.54.787-1.238 1.012-2.093.225-.87.338-1.92.338-3.15V44.465h6.052v20.97zm16.089-11.88c1.725 0 3.285.278 4.68.833 1.41.555 2.61 1.342 3.6 2.362.99 1.02 1.755 2.265 2.295 3.735.54 1.47.81 3.112.81 4.927 0 1.83-.27 3.48-.81 4.95-.54 1.47-1.305 2.723-2.295 3.758-.99 1.035-2.19 1.83-3.6 2.385-1.395.555-2.955.833-4.68.833-1.725 0-3.293-.278-4.703-.833-1.41-.555-2.617-1.35-3.622-2.385-.99-1.035-1.763-2.288-2.318-3.758-.54-1.47-.81-3.12-.81-4.95 0-1.815.27-3.457.81-4.927.555-1.47 1.328-2.715 2.318-3.735 1.005-1.02 2.212-1.807 3.622-2.362 1.41-.555 2.978-.833 4.703-.833zm0 19.508c1.92 0 3.337-.645 4.252-1.936.93-1.29 1.395-3.18 1.395-5.67 0-2.49-.465-4.387-1.395-5.692-.915-1.305-2.332-1.958-4.252-1.958-1.95 0-3.39.66-4.32 1.98-.93 1.306-1.395 3.196-1.395 5.67 0 2.476.465 4.366 1.395 5.67.93 1.29 2.37 1.936 4.32 1.936zm21.638-19.148V77h-5.557V53.915h5.557zm.833-6.727c0 .48-.098.93-.293 1.35-.195.42-.457.787-.787 1.102a3.73 3.73 0 01-1.125.765c-.435.18-.9.27-1.395.27-.48 0-.938-.09-1.373-.27a3.815 3.815 0 01-1.102-.765 3.818 3.818 0 01-.765-1.102 3.39 3.39 0 01-.27-1.35c0-.495.09-.96.27-1.396.195-.434.45-.81.765-1.125a3.481 3.481 0 011.102-.742 3.32 3.32 0 011.373-.292c.495 0 .96.097 1.395.292.435.18.81.428 1.125.742.33.316.592.69.787 1.125.195.435.293.9.293 1.395zM519.407 77V53.915h3.397c.72 0 1.193.337 1.418 1.013l.382 1.822c.465-.48.953-.915 1.463-1.305.525-.39 1.072-.727 1.642-1.013a8.603 8.603 0 011.868-.652c.66-.15 1.38-.225 2.16-.225 1.26 0 2.377.218 3.352.653a6.366 6.366 0 012.43 1.8c.66.764 1.155 1.687 1.485 2.767.345 1.065.518 2.242.518 3.532V77h-5.558V62.307c0-1.41-.33-2.497-.99-3.262-.645-.78-1.62-1.17-2.925-1.17-.96 0-1.86.218-2.7.653-.84.434-1.635 1.027-2.385 1.777V77h-5.557zm41.859.36c-1.995 0-3.532-.563-4.612-1.688-1.08-1.14-1.62-2.707-1.62-4.702V58.078h-2.34c-.3 0-.563-.098-.788-.293-.21-.195-.315-.487-.315-.877v-2.206l3.713-.607 1.17-6.3c.06-.3.195-.532.405-.698.225-.165.502-.247.832-.247h2.88v7.267h6.075v3.96h-6.075v12.51c0 .72.18 1.283.54 1.688.36.405.84.607 1.44.607.345 0 .63-.037.855-.112.24-.09.443-.18.608-.27.18-.09.337-.172.472-.248a.726.726 0 01.405-.134.6.6 0 01.405.135c.105.075.218.195.338.36l1.665 2.7a8.413 8.413 0 01-2.79 1.53c-1.05.344-2.138.517-3.263.517zm9.82-.36V43.565h5.558v12.848a11.76 11.76 0 012.97-2.07c1.08-.526 2.347-.788 3.802-.788 1.26 0 2.378.218 3.353.653a6.366 6.366 0 012.43 1.8c.66.764 1.155 1.687 1.485 2.767.345 1.065.517 2.242.517 3.532V77h-5.557V62.307c0-1.41-.33-2.497-.99-3.262-.645-.78-1.62-1.17-2.925-1.17-.96 0-1.86.218-2.7.653-.84.434-1.635 1.027-2.385 1.777V77h-5.558zm35.116-23.445c1.455 0 2.79.233 4.005.697a8.705 8.705 0 013.173 2.048c.885.885 1.575 1.98 2.07 3.285.495 1.29.742 2.767.742 4.432 0 .42-.022.773-.067 1.058-.03.27-.098.487-.203.653a.838.838 0 01-.382.337c-.165.06-.375.09-.63.09h-14.265c.165 2.37.802 4.11 1.912 5.22 1.11 1.11 2.58 1.665 4.41 1.665.9 0 1.673-.105 2.318-.315.66-.21 1.23-.442 1.71-.697.495-.256.922-.488 1.282-.698.375-.21.735-.315 1.08-.315.225 0 .42.045.585.135.165.09.308.218.428.382l1.62 2.026a9.51 9.51 0 01-2.07 1.822c-.765.48-1.568.87-2.408 1.17a13.43 13.43 0 01-2.542.608c-.855.12-1.688.18-2.498.18-1.605 0-3.097-.263-4.477-.788a10.224 10.224 0 01-3.6-2.362c-1.02-1.05-1.823-2.34-2.408-3.87-.585-1.546-.877-3.33-.877-5.355 0-1.575.255-3.053.765-4.433.51-1.395 1.237-2.602 2.182-3.623.96-1.034 2.123-1.852 3.488-2.452 1.38-.6 2.932-.9 4.657-.9zm.113 3.983c-1.62 0-2.888.457-3.803 1.372s-1.5 2.213-1.755 3.893h10.44c0-.72-.097-1.395-.292-2.025a4.685 4.685 0 00-.9-1.688 4.149 4.149 0 00-1.53-1.125c-.615-.285-1.335-.428-2.16-.428zM629.402 77V53.915h3.397c.72 0 1.193.337 1.418 1.013l.382 1.822c.465-.48.953-.915 1.463-1.305.525-.39 1.072-.727 1.642-1.013a8.603 8.603 0 011.868-.652c.66-.15 1.38-.225 2.16-.225 1.26 0 2.377.218 3.352.653a6.366 6.366 0 012.43 1.8c.66.764 1.155 1.687 1.485 2.767.345 1.065.518 2.242.518 3.532V77h-5.558V62.307c0-1.41-.33-2.497-.99-3.262-.645-.78-1.62-1.17-2.925-1.17-.96 0-1.86.218-2.7.653-.84.434-1.635 1.027-2.385 1.777V77h-5.557zm35.431-23.445c1.725 0 3.285.278 4.68.833 1.41.555 2.61 1.342 3.6 2.362.99 1.02 1.755 2.265 2.295 3.735.54 1.47.81 3.112.81 4.927 0 1.83-.27 3.48-.81 4.95-.54 1.47-1.305 2.723-2.295 3.758-.99 1.035-2.19 1.83-3.6 2.385-1.395.555-2.955.833-4.68.833-1.725 0-3.293-.278-4.703-.833-1.41-.555-2.617-1.35-3.622-2.385-.99-1.035-1.763-2.288-2.318-3.758-.54-1.47-.81-3.12-.81-4.95 0-1.815.27-3.457.81-4.927.555-1.47 1.328-2.715 2.318-3.735 1.005-1.02 2.212-1.807 3.622-2.362 1.41-.555 2.978-.833 4.703-.833zm0 19.508c1.92 0 3.337-.645 4.252-1.936.93-1.29 1.395-3.18 1.395-5.67 0-2.49-.465-4.387-1.395-5.692-.915-1.305-2.332-1.958-4.252-1.958-1.95 0-3.39.66-4.32 1.98-.93 1.306-1.395 3.196-1.395 5.67 0 2.476.465 4.366 1.395 5.67.93 1.29 2.37 1.936 4.32 1.936zm15.001-11.97h11.655v4.635h-11.655v-4.635zm22.809-17.528V77h-5.557V43.565h5.557zm16.155 9.99c1.725 0 3.285.278 4.68.833 1.41.555 2.61 1.342 3.6 2.362.99 1.02 1.755 2.265 2.295 3.735.54 1.47.81 3.112.81 4.927 0 1.83-.27 3.48-.81 4.95-.54 1.47-1.305 2.723-2.295 3.758-.99 1.035-2.19 1.83-3.6 2.385-1.395.555-2.955.833-4.68.833-1.725 0-3.293-.278-4.703-.833-1.41-.555-2.617-1.35-3.622-2.385-.99-1.035-1.763-2.288-2.318-3.758-.54-1.47-.81-3.12-.81-4.95 0-1.815.27-3.457.81-4.927.555-1.47 1.328-2.715 2.318-3.735 1.005-1.02 2.212-1.807 3.622-2.362 1.41-.555 2.978-.833 4.703-.833zm0 19.508c1.92 0 3.337-.645 4.252-1.936.93-1.29 1.395-3.18 1.395-5.67 0-2.49-.465-4.387-1.395-5.692-.915-1.305-2.332-1.958-4.252-1.958-1.95 0-3.39.66-4.32 1.98-.93 1.306-1.395 3.196-1.395 5.67 0 2.476.465 4.366 1.395 5.67.93 1.29 2.37 1.936 4.32 1.936zm29.423-14.648c-.15.24-.307.413-.472.517-.165.09-.375.136-.63.136-.27 0-.563-.075-.878-.225-.3-.15-.652-.316-1.057-.496a8.788 8.788 0 00-1.395-.517c-.51-.15-1.118-.225-1.823-.225-1.095 0-1.957.233-2.587.698-.63.465-.945 1.072-.945 1.822 0 .495.157.915.472 1.26.33.33.758.623 1.283.878.54.255 1.147.487 1.822.697.675.195 1.365.413 2.07.652.705.24 1.395.518 2.07.833.675.3 1.275.69 1.8 1.17.54.465.968 1.028 1.283 1.688.33.66.495 1.454.495 2.385 0 1.11-.203 2.137-.608 3.082a6.881 6.881 0 01-1.777 2.43c-.78.675-1.748 1.207-2.903 1.597-1.14.376-2.452.563-3.937.563-.795 0-1.575-.075-2.34-.225-.75-.135-1.478-.33-2.183-.585a12.717 12.717 0 01-1.935-.9 9.599 9.599 0 01-1.552-1.125l1.282-2.115c.165-.255.36-.45.585-.585.225-.135.51-.203.855-.203s.668.098.968.293c.315.195.675.405 1.08.63.405.225.877.435 1.417.63.555.195 1.253.293 2.093.293.66 0 1.222-.076 1.687-.225.48-.165.87-.375 1.17-.63.315-.255.54-.548.675-.878a2.63 2.63 0 00.225-1.058c0-.54-.165-.982-.495-1.327-.315-.345-.742-.645-1.282-.9a11.084 11.084 0 00-1.823-.675c-.675-.21-1.372-.435-2.092-.675a22.493 22.493 0 01-2.093-.832 7.655 7.655 0 01-1.822-1.238 5.781 5.781 0 01-1.283-1.822c-.315-.72-.472-1.59-.472-2.61 0-.945.187-1.846.562-2.7a6.287 6.287 0 011.643-2.228c.735-.645 1.642-1.155 2.722-1.53 1.095-.39 2.355-.585 3.78-.585 1.59 0 3.038.263 4.343.788 1.305.524 2.392 1.214 3.262 2.07l-1.26 2.002zm19.644 0c-.15.24-.308.413-.473.517-.165.09-.375.136-.63.136-.27 0-.562-.075-.877-.225-.3-.15-.653-.316-1.058-.496a8.788 8.788 0 00-1.395-.517c-.51-.15-1.117-.225-1.822-.225-1.095 0-1.958.233-2.588.698-.63.465-.945 1.072-.945 1.822 0 .495.158.915.473 1.26.33.33.757.623 1.282.878.54.255 1.148.487 1.823.697.675.195 1.365.413 2.07.652.705.24 1.395.518 2.07.833.675.3 1.275.69 1.8 1.17.54.465.967 1.028 1.282 1.688.33.66.495 1.454.495 2.385 0 1.11-.202 2.137-.607 3.082a6.884 6.884 0 01-1.778 2.43c-.78.675-1.747 1.207-2.902 1.597-1.14.376-2.453.563-3.938.563-.795 0-1.575-.075-2.34-.225a13.36 13.36 0 01-2.182-.585 12.717 12.717 0 01-1.935-.9 9.608 9.608 0 01-1.553-1.125l1.283-2.115c.165-.255.36-.45.585-.585.225-.135.51-.203.855-.203s.667.098.967.293c.315.195.675.405 1.08.63.405.225.878.435 1.418.63.555.195 1.252.293 2.092.293.66 0 1.223-.076 1.688-.225.48-.165.87-.375 1.17-.63.315-.255.54-.548.675-.878a2.63 2.63 0 00.225-1.058c0-.54-.165-.982-.495-1.327-.315-.345-.743-.645-1.283-.9a11.071 11.071 0 00-1.822-.675c-.675-.21-1.373-.435-2.093-.675a22.476 22.476 0 01-2.092-.832 7.66 7.66 0 01-1.823-1.238 5.779 5.779 0 01-1.282-1.822c-.315-.72-.473-1.59-.473-2.61 0-.945.188-1.846.563-2.7a6.284 6.284 0 011.642-2.228c.735-.645 1.643-1.155 2.723-1.53 1.095-.39 2.355-.585 3.78-.585 1.59 0 3.037.263 4.342.788 1.305.524 2.393 1.214 3.263 2.07l-1.26 2.002zm20.56-14.85V77h-5.558V43.565h5.558zm16.154 9.99c1.725 0 3.285.278 4.68.833 1.41.555 2.61 1.342 3.6 2.362.99 1.02 1.755 2.265 2.295 3.735.54 1.47.81 3.112.81 4.927 0 1.83-.27 3.48-.81 4.95-.54 1.47-1.305 2.723-2.295 3.758-.99 1.035-2.19 1.83-3.6 2.385-1.395.555-2.955.833-4.68.833-1.725 0-3.293-.278-4.703-.833-1.41-.555-2.617-1.35-3.622-2.385-.99-1.035-1.763-2.288-2.318-3.758-.54-1.47-.81-3.12-.81-4.95 0-1.815.27-3.457.81-4.927.555-1.47 1.328-2.715 2.318-3.735 1.005-1.02 2.212-1.807 3.622-2.362 1.41-.555 2.978-.833 4.703-.833zm0 19.508c1.92 0 3.337-.645 4.252-1.936.93-1.29 1.395-3.18 1.395-5.67 0-2.49-.465-4.387-1.395-5.692-.915-1.305-2.332-1.958-4.252-1.958-1.95 0-3.39.66-4.32 1.98-.93 1.306-1.395 3.196-1.395 5.67 0 2.476.465 4.366 1.395 5.67.93 1.29 2.37 1.936 4.32 1.936zm23.304 4.297c-1.995 0-3.533-.563-4.613-1.688-1.08-1.14-1.62-2.707-1.62-4.702V58.078h-2.34c-.3 0-.562-.098-.787-.293-.21-.195-.315-.487-.315-.877v-2.206l3.712-.607 1.17-6.3c.06-.3.195-.532.405-.698.225-.165.503-.247.833-.247h2.88v7.267h6.075v3.96h-6.075v12.51c0 .72.18 1.283.54 1.688.36.405.84.607 1.44.607.345 0 .63-.037.855-.112.24-.09.442-.18.607-.27.18-.09.338-.172.473-.248a.726.726 0 01.405-.134.6.6 0 01.405.135c.105.075.217.195.337.36l1.665 2.7a8.413 8.413 0 01-2.79 1.53 10.41 10.41 0 01-3.262.517zm17.402 0c-1.995 0-3.533-.563-4.613-1.688-1.08-1.14-1.62-2.707-1.62-4.702V58.078h-2.34c-.3 0-.562-.098-.787-.293-.21-.195-.315-.487-.315-.877v-2.206l3.712-.607 1.17-6.3c.06-.3.195-.532.405-.698.225-.165.503-.247.833-.247h2.88v7.267h6.075v3.96h-6.075v12.51c0 .72.18 1.283.54 1.688.36.405.84.607 1.44.607.345 0 .63-.037.855-.112.24-.09.442-.18.607-.27.18-.09.338-.172.473-.248a.726.726 0 01.405-.134.6.6 0 01.405.135c.105.075.217.195.337.36l1.665 2.7a8.413 8.413 0 01-2.79 1.53 10.41 10.41 0 01-3.262.517zm19.36-23.805c1.455 0 2.79.233 4.005.697a8.701 8.701 0 013.172 2.048c.885.885 1.575 1.98 2.07 3.285.495 1.29.743 2.767.743 4.432 0 .42-.023.773-.068 1.058-.03.27-.097.487-.202.653a.84.84 0 01-.383.337c-.165.06-.375.09-.63.09h-14.265c.165 2.37.803 4.11 1.913 5.22 1.11 1.11 2.58 1.665 4.41 1.665.9 0 1.672-.105 2.317-.315.66-.21 1.23-.442 1.71-.697.495-.256.923-.488 1.283-.698.375-.21.735-.315 1.08-.315.225 0 .42.045.585.135a1.3 1.3 0 01.427.382l1.62 2.026a9.51 9.51 0 01-2.07 1.822 12.3 12.3 0 01-2.407 1.17 13.44 13.44 0 01-2.543.608c-.855.12-1.687.18-2.497.18-1.605 0-3.098-.263-4.478-.788a10.224 10.224 0 01-3.6-2.362c-1.02-1.05-1.822-2.34-2.407-3.87-.585-1.546-.878-3.33-.878-5.355 0-1.575.255-3.053.765-4.433.51-1.395 1.238-2.602 2.183-3.623.96-1.034 2.122-1.852 3.487-2.452 1.38-.6 2.933-.9 4.658-.9zm.112 3.983c-1.62 0-2.887.457-3.802 1.372s-1.5 2.213-1.755 3.893h10.44c0-.72-.098-1.395-.293-2.025a4.685 4.685 0 00-.9-1.688 4.149 4.149 0 00-1.53-1.125c-.615-.285-1.335-.428-2.16-.428zM879.143 77V53.915h3.262c.57 0 .968.105 1.193.315.225.21.375.57.45 1.08l.337 2.79c.825-1.425 1.793-2.55 2.903-3.375a6.108 6.108 0 013.735-1.238c1.14 0 2.085.263 2.835.788l-.72 4.163c-.045.27-.143.465-.293.584-.15.105-.352.158-.607.158-.225 0-.533-.053-.923-.157-.39-.106-.907-.158-1.552-.158-1.155 0-2.145.322-2.97.968-.825.63-1.523 1.56-2.093 2.79V77h-5.557zm26.559 6.345c-.165.39-.383.683-.653.877-.255.21-.652.316-1.192.316h-4.14l4.32-9.248-9.338-21.375h4.86c.45 0 .795.105 1.035.315.24.21.42.45.54.72l4.928 11.97c.165.39.307.795.427 1.215.12.42.225.84.315 1.26.12-.435.248-.855.383-1.26.15-.405.307-.818.472-1.238l4.635-11.947c.12-.3.315-.547.585-.742.285-.195.6-.293.945-.293h4.455l-12.577 29.43zm23.634-38.88v12.87c0 1.365-.067 2.707-.202 4.027a86.26 86.26 0 01-.54 4.163h-3.758a86.26 86.26 0 01-.54-4.163 39.565 39.565 0 01-.202-4.027v-12.87h5.242zm-6.097 29.475c0-.465.082-.907.247-1.328.18-.42.42-.78.72-1.08.315-.3.683-.54 1.103-.72.42-.18.87-.27 1.35-.27.465 0 .907.09 1.327.27.42.18.78.42 1.08.72.3.3.54.66.72 1.08.18.42.27.863.27 1.328 0 .48-.09.93-.27 1.35-.18.405-.42.757-.72 1.057-.3.3-.66.533-1.08.698-.42.18-.862.27-1.327.27-.48 0-.93-.09-1.35-.27a3.367 3.367 0 01-1.103-.698c-.3-.3-.54-.652-.72-1.057a3.658 3.658 0 01-.247-1.35z"/><g clip-path="url(#clip1)"><path fill="#FFB636" fill-rule="evenodd" d="M87.473 37.454c-.125-1.15.481-1.276.8-1.195 0 0 5.277 2.241 15.815 2.425 10.537.184 16.336-2.347 16.336-2.347.32-.079.926.05.795 1.199-.13 1.149-.33 4.468-.413 5.984l6.064.015c.745-.025 2.122.404 1.67 2.318-.092.39-.226 1.055-.4 1.91-.89 4.4-2.793 13.804-5.07 16.27-1.601 1.911-3.758 2.864-5.435 3.259-1.396.415-2.853.342-3.357.317a4.667 4.667 0 00-.154-.007c-1.122 1.673-3.987 5.29-6.48 6.368-.812.293-.806.589-.8.82v.056c.128 2.155.67 6.976 1.813 9.022a2.4 2.4 0 01.224.697c.032.174.048.261.173.261l1.516.004c.16 0 .543.001.798.321.136.171.374.167.634.163.347-.006.733-.012.96.4.244.44.193.91.167 1.153-.006.053-.01.095-.01.124l2.394.006c.292 0 .877.145.876.72l-.012 4.788c0 .087-.007.158-.012.217-.023.261-.023.261.649.263l2.075.005c.133 0 .399.017.397.72l-.005 2.154c-.001.16-.001.478-.72.477l-29.118-.071c-.718-.002-.717-.321-.717-.48l.005-2.155c.002-.703.268-.718.401-.718l2.075.005c.671.002.671.002.65-.26a2.127 2.127 0 01-.01-.217l.01-4.788c.002-.574.588-.716.88-.716l2.394.006c0-.028-.004-.07-.01-.123-.024-.243-.072-.714.173-1.153.23-.41.615-.403.962-.395.26.005.498.01.635-.16.257-.319.64-.317.8-.317l1.515.003c.125.001.142-.086.174-.26.03-.16.074-.391.228-.696 1.154-2.04 1.719-6.858 1.857-9.013l.001-.055c.006-.232.014-.527-.797-.824-2.487-1.092-5.335-4.721-6.448-6.4-.03 0-.082.002-.154.006-.505.023-1.961.089-3.356-.334-1.675-.403-3.827-1.365-5.418-3.284-2.266-2.478-4.123-11.89-4.992-16.295a77.21 77.21 0 00-.39-1.913c-.442-1.916.937-2.338 1.681-2.31l6.065.015c-.076-1.516-.26-4.836-.384-5.985zm-4.047 8.638c-.933-.016-.711 1.075-.543 1.905.022.108.043.21.06.307.153.835.858 4.276 2.715 9.814 1.856 5.537 5.445 5.94 7.008 5.45-1.07-2.313-3.327-9.714-3.781-12.275-.455-2.56-1.02-5.123-1.687-5.135l-3.772-.066zm42.289 2.234c.183-.827.424-1.913-.509-1.913h-3.773c-.666 0-1.276 2.552-1.776 5.104-.499 2.552-2.885 9.913-3.995 12.207 1.554.517 5.149.177 7.102-5.327 1.953-5.504 2.719-8.933 2.885-9.765l.066-.306zm-16.007 8.581l-5.439 3.424-5.416-3.461 5.4 7.874v.002-.001h.001v-.001l5.454-7.837zm-5.386-11.59v-.005l-.002.003-.001-.002v.005l-5.494 9.387 5.45 3.418v.001h.003v-.001l5.473-3.38-5.429-9.425z" clip-rule="evenodd"/><path fill="#FFD469" d="M120.994 36.504c-.013 1.532-7.426 2.71-16.558 2.63-9.13-.08-16.744-1.39-16.73-2.922.013-1.532 7.648-2.706 16.779-2.626 9.131.08 16.523 1.386 16.509 2.918z"/><path fill="#FFCC4E" d="M116.202 41.965c.816 0 .962 0 2.441-.517-.183.984-1.148 8.445-1.479 9.616-.885 3.128-1.885 7.963-3.181 8.898-.246.177-1.331 0-1.735-.26-.404-.26.996-2.943 2.697-8.638.962-6.14.666-8.803 1.257-9.099z"/><path fill="url(#paint1_linear)" d="M160.35 34.107c10.079 0 18.25 8.307 18.25 18.555v10.67c0 10.247-8.171 18.554-18.25 18.554a17.99 17.99 0 01-4.584-.59v1.26c0 7.496-6.006 13.587-13.461 13.709l-.227.001v-40.82l.021-.001.001-2.783c0-10.248 8.171-18.555 18.25-18.555zm81.729 0c10.085 0 18.261 8.355 18.261 18.661v10.73c0 10.307-8.176 18.661-18.261 18.661-10.085 0-18.261-8.355-18.261-18.66v-10.73c0-10.307 8.176-18.662 18.261-18.662zm-40.87-.882c10.085 0 18.261 8.355 18.261 18.661v10.73c0 10.307-8.176 18.662-18.261 18.662-10.085 0-18.261-8.355-18.261-18.662v-10.73c0-10.306 8.176-18.66 18.261-18.66zM278.601 20v47.34c0 7.62-6.105 13.813-13.683 13.936l-.23.002V33.937c0-7.697 6.229-13.937 13.913-13.937zm-36.522 28.103c-2.521 0-4.565 2.089-4.565 4.665v10.73c0 2.577 2.044 4.665 4.565 4.665 2.521 0 4.565-2.088 4.565-4.665v-10.73c0-2.576-2.044-4.665-4.565-4.665zm-81.729-.08c-2.52 0-4.563 2.077-4.563 4.639v10.67c0 2.561 2.043 4.638 4.563 4.638 2.52 0 4.562-2.077 4.562-4.639V52.662c0-2.562-2.042-4.639-4.562-4.639zm40.859-.802c-2.521 0-4.565 2.089-4.565 4.665v10.73c0 2.577 2.044 4.666 4.565 4.666 2.521 0 4.565-2.089 4.565-4.665v-10.73c0-2.577-2.044-4.666-4.565-4.666z"/><path fill="url(#paint2_linear)" d="M227.493 94.03h-.379c-.378 0-.709-.353-.709-.903v-2.6h.809c.377 0 .665-.25.665-.604a.606.606 0 00-.19-.453.683.683 0 00-.475-.174h-.809V87.84a.677.677 0 00-.698-.693.677.677 0 00-.698.693v1.457h-.374a.687.687 0 00-.475.174.605.605 0 00-.189.453c0 .355.287.604.664.604h.374v2.6c0 1.294.899 2.29 2.105 2.29h.201c.434 0 .798-.275.798-.694 0-.38-.257-.692-.62-.692z"/><path fill="url(#paint3_linear)" fill-rule="evenodd" d="M235.912 92.251c-.012-1.882-1.345-3.22-3.21-3.22-.939 0-1.746.33-2.318.904-.573.572-.904 1.38-.904 2.316 0 .931.331 1.735.904 2.307.572.571 1.379.903 2.318.903.933 0 1.737-.332 2.308-.903.571-.572.902-1.376.902-2.307zm-3.21-1.946c.544 0 1.001.202 1.322.541.321.34.515.826.515 1.405 0 .579-.193 1.061-.515 1.399-.321.336-.778.536-1.322.536-.545 0-1.005-.2-1.329-.537-.324-.337-.519-.82-.519-1.398 0-1.15.771-1.946 1.848-1.946z" clip-rule="evenodd"/><path fill="url(#paint4_linear)" fill-rule="evenodd" d="M240.773 97.933c-1.098 0-2.1-.437-2.766-1.271a.604.604 0 01-.14-.495.64.64 0 01.282-.416l.001-.001a.704.704 0 01.958.164c.372.471.943.744 1.687.744.501 0 .958-.183 1.29-.53.331-.348.547-.868.547-1.56v-.088a2.574 2.574 0 01-2.06.98c-.875 0-1.627-.333-2.16-.906-.531-.572-.838-1.375-.838-2.303 0-.937.331-1.744.903-2.316.573-.573 1.38-.905 2.318-.905 1.866 0 3.199 1.339 3.211 3.22v2.396c0 1.821-1.318 3.287-3.233 3.287zm.022-3.747c-.544 0-1.004-.2-1.328-.537-.324-.337-.519-.82-.519-1.398 0-1.15.77-1.946 1.847-1.946.545 0 1.001.202 1.323.541.321.34.514.826.514 1.405 0 .579-.193 1.061-.514 1.399-.321.336-.778.536-1.323.536z" clip-rule="evenodd"/><path fill="url(#paint5_linear)" fill-rule="evenodd" d="M251.077 93.83c-.246-.202-.607-.194-.876.006a2.292 2.292 0 01-1.212.394c-1.012 0-1.759-.59-1.972-1.452h4.072a.67.67 0 00.466-.174.613.613 0 00.187-.453c0-.902-.268-1.683-.773-2.24-.507-.56-1.241-.88-2.147-.88-.917 0-1.708.331-2.269.905-.561.573-.885 1.379-.885 2.315 0 .933.343 1.737.934 2.308.591.571 1.423.902 2.387.902.71 0 1.579-.287 2.108-.706a.548.548 0 00.23-.456.654.654 0 00-.247-.468l-.003-.002zm-2.255-3.57c.469 0 .838.158 1.105.419.238.231.403.551.483.935h-3.381c.095-.384.283-.703.55-.934.304-.262.72-.42 1.243-.42z" clip-rule="evenodd"/><path fill="url(#paint6_linear)" d="M256.212 94.03h-.38c-.377 0-.708-.353-.708-.903v-2.6h.809c.377 0 .664-.25.664-.604a.605.605 0 00-.189-.453.685.685 0 00-.475-.174h-.809V87.84a.677.677 0 00-.698-.693.677.677 0 00-.698.693v1.457h-.374a.683.683 0 00-.475.174.606.606 0 00-.19.453c0 .355.288.604.665.604h.374v2.6c0 1.294.899 2.29 2.104 2.29h.202c.433 0 .798-.275.798-.694 0-.38-.258-.692-.62-.692z"/><path fill="url(#paint7_linear)" d="M261.689 89.02a2.86 2.86 0 00-1.759.574v-2.41a.7.7 0 00-.2-.505.71.71 0 00-.509-.198.71.71 0 00-.509.198.7.7 0 00-.2.505v7.54a.7.7 0 00.2.505.71.71 0 00.509.198.71.71 0 00.509-.198.7.7 0 00.2-.505v-3.127c0-.713.641-1.28 1.535-1.28.483 0 .889.134 1.173.4.282.267.463.681.463 1.28v2.727c0 .397.308.703.709.703a.695.695 0 00.709-.704v-2.727c0-.95-.301-1.697-.813-2.207-.512-.51-1.222-.77-2.017-.77z"/><path fill="url(#paint8_linear)" fill-rule="evenodd" d="M271.8 92.778h-4.072c.213.862.96 1.452 1.973 1.452a2.29 2.29 0 001.211-.394c.269-.2.631-.208.876-.007l.003.003c.15.13.242.294.247.467a.548.548 0 01-.23.456c-.529.42-1.398.706-2.107.706-.965 0-1.797-.33-2.388-.901-.591-.572-.934-1.376-.934-2.309 0-.936.324-1.742.885-2.315.561-.574 1.352-.906 2.269-.906.906 0 1.641.322 2.147.88.505.558.773 1.339.773 2.241 0 .18-.067.339-.187.453a.668.668 0 01-.466.174zm-2.267-2.517c.469 0 .838.157 1.105.418.238.231.403.551.483.935h-3.381c.095-.384.283-.703.55-.934.304-.262.72-.42 1.243-.42z" clip-rule="evenodd"/><path fill="url(#paint9_linear)" d="M277.318 89.008c-.666 0-1.282.241-1.743.642a.638.638 0 00-.176-.395c-.128-.127-.309-.18-.515-.18-.205 0-.384.057-.512.184s-.186.306-.186.509v4.955c0 .208.057.387.186.514.129.126.309.18.512.18.208 0 .389-.058.516-.186s.181-.307.181-.508v-3.237c0-.452.236-.795.644-1 .413-.208 1.007-.273 1.7-.14a.717.717 0 00.477-.036.575.575 0 00.301-.398.538.538 0 00-.037-.377.72.72 0 00-.276-.29c-.245-.152-.612-.237-1.072-.237z"/></g><path stroke="#424242" stroke-linecap="round" stroke-linejoin="round" stroke-miterlimit="10" stroke-width="2.084" d="M1198.28 35.17l28.22-12.095"/><path fill="#FFD166" stroke="#163150" stroke-linecap="round" stroke-linejoin="round" stroke-miterlimit="10" stroke-width="2.084" d="M1201.8 21.254l-53.4 21.448 4.29 10.68 53.4-21.449-4.29-10.679z"/><path fill="#FFD166" stroke="#163150" stroke-linecap="round" stroke-linejoin="round" stroke-miterlimit="10" stroke-width="1.176" d="M1208.09 110.392L1176.08 105l-1.08 6.403 32.02 5.392 1.07-6.403z"/><path fill="#FFAE25" d="M1177.07 32.547l-27.08 10.876 3.37 8.381 27.07-10.876-3.36-8.381zm15.8 76.002l-16.24-2.734-.85 5.025 16.24 2.734.85-5.025z"/><path fill="#FFAE25" stroke="#163150" stroke-linecap="round" stroke-linejoin="round" stroke-miterlimit="10" stroke-width="2.084" d="M1186.07 73.991c-.33 15.454-13.15 27.621-28.44 27.292-1.48 0-3.13-.165-4.44-.493-13.15-2.467-23.02-14.14-22.85-28.114.32-13.81 10.68-25.154 24-26.963 1.48-.164 2.96-.328 4.44-.328 15.29.493 27.45 13.152 27.29 28.606z"/><path fill="#FFD166" d="M1186 74.12c-.33 14.652-13.04 26.186-28.2 25.874-1.47 0-3.1-.156-4.41-.468-7.82-6.39-12.55-15.898-12.39-26.34.17-10.6 5.55-19.796 13.53-25.874 1.47-.156 2.94-.312 4.41-.312 15.16.468 27.22 12.47 27.06 27.12z" opacity=".7"/><path fill="url(#paint10_radial)" stroke="#163150" stroke-linecap="round" stroke-linejoin="round" stroke-miterlimit="10" stroke-width="2.084" d="M1176.54 102.434c15.8 0 28.6-12.808 28.6-28.607 0-15.8-12.8-28.607-28.6-28.607s-28.61 12.808-28.61 28.607 12.81 28.607 28.61 28.607z"/><path fill="url(#paint11_radial)" stroke="#163150" stroke-linecap="round" stroke-linejoin="round" stroke-miterlimit="10" stroke-width="1.291" d="M1096.3 96.424c9.55 2.113 19.01-3.918 21.12-13.472 2.12-9.553-3.91-19.012-13.47-21.125-9.55-2.114-19.01 3.918-21.12 13.472-2.12 9.553 3.92 19.011 13.47 21.125z"/><path fill="url(#paint12_radial)" stroke="#163150" stroke-linecap="round" stroke-linejoin="round" stroke-miterlimit="10" stroke-width=".985" d="M984.204 102.33c7.292 1.613 14.512-2.991 16.126-10.284 1.61-7.292-2.991-14.512-10.284-16.125-7.292-1.613-14.512 2.99-16.125 10.283-1.614 7.293 2.99 14.512 10.283 16.126z"/><path fill="#FFAE25" stroke="#163050" stroke-linecap="round" stroke-linejoin="round" stroke-miterlimit="10" stroke-width="2.084" d="M1165.4 40.536c12.98-8.542 21.02-19.235 17.96-23.883l-6.03-8.238-47.02 30.935 6.04 8.238c3.06 4.647 16.06 1.49 29.05-7.052z"/><path fill="#FFAE25" stroke="#163050" stroke-linecap="round" stroke-linejoin="round" stroke-miterlimit="10" stroke-width="1.366" d="M1154.51 123.851c10.11-1.212 17.96-5.131 17.53-8.752l-1.13-6.598-36.63 4.391 1.13 6.599c.44 3.621 8.99 5.573 19.1 4.36z"/><path fill="#FFD166" d="M1183.22 16.575l-6.04-8.238c1.64 2.232-.2 8.67-6 14.228l6.4 8.068c4.93-5.432 7.49-11.241 5.64-14.058zm-11.24 98.437l-1.13-6.599c.3 1.788-2.66 5.026-7.69 6.591l1.4 6.603c4.48-1.744 7.68-4.401 7.42-6.595z"/><path fill="#FFAE25" stroke="#163050" stroke-linecap="round" stroke-linejoin="round" stroke-miterlimit="10" stroke-width="2.084" d="M1051.62 117.536c12.98-8.542 21.02-19.235 17.97-23.883l-6.04-8.238-47.01 30.935 6.04 8.238c3.05 4.647 16.06 1.49 29.04-7.052z"/><path fill="#FFD166" d="M1068.64 93.225l-5.61-7.644c1.52 2.071-.19 8.045-5.56 13.202l5.93 7.486c4.58-5.041 6.96-10.431 5.24-13.044z"/><ellipse cx="1153.82" cy="23.883" fill="#FFD166" stroke="#163050" stroke-linecap="round" stroke-linejoin="round" stroke-miterlimit="10" stroke-width="2.084" rx="28.138" ry="10.074" transform="rotate(-33.346 1153.82 23.883)"/><ellipse cx="1152.59" cy="110.697" fill="#FFD166" stroke="#163050" stroke-linecap="round" stroke-linejoin="round" stroke-miterlimit="10" stroke-width="1.366" rx="18.443" ry="6.603" transform="rotate(-6.837 1152.59 110.697)"/><ellipse cx="1040.04" cy="100.883" fill="#FFD166" stroke="#163050" stroke-linecap="round" stroke-linejoin="round" stroke-miterlimit="10" stroke-width="2.084" rx="28.138" ry="10.074" transform="rotate(-33.346 1040.04 100.883)"/><path stroke="#163050" stroke-linecap="round" stroke-linejoin="round" stroke-miterlimit="10" stroke-width="2.084" d="M1165.4 40.536c12.98-8.542 21.02-19.235 17.96-23.883l-6.03-8.237"/><path fill="#FFD166" stroke="#163050" stroke-linecap="round" stroke-linejoin="round" stroke-miterlimit="10" stroke-width="1.448" d="M1096.7 21.6c10.21 3.523 17.47 9.341 16.21 12.996l-2.66 6.584-36.96-12.756 2.65-6.584c1.26-3.655 10.56-3.763 20.76-.24z"/><ellipse fill="#FFAE25" stroke="#163050" stroke-linecap="round" stroke-linejoin="round" stroke-miterlimit="10" stroke-width="1.448" rx="19.554" ry="7.001" transform="scale(1 -1) rotate(-19.038 442.11 -3272.914)"/><path fill="#FFD166" stroke="#163050" stroke-linecap="round" stroke-linejoin="round" stroke-miterlimit="10" stroke-width="1.448" d="M1029.48 42.495c-10.21 3.523-17.46 9.341-16.2 12.996l2.65 6.585 36.97-12.757-2.65-6.584c-1.26-3.655-10.56-3.762-20.77-.24z"/><ellipse cx="1034.42" cy="55.697" fill="#FFAE25" stroke="#163050" stroke-linecap="round" stroke-linejoin="round" stroke-miterlimit="10" stroke-width="1.448" rx="19.554" ry="7.001" transform="rotate(160.962 1034.42 55.697)"/><path fill="#FFC524" d="M1176.39 54.603l18.85 18.846-18.85 18.845-18.84-18.845 18.84-18.846z"/><path fill="#FEBE44" d="M1176.39 79.598l-18.86-6.15 18.86-18.845 18.86 18.845-18.86 6.15z"/><path fill="#fff" d="M1164.09 72.218h8.61l3.69-4.1 4.1 4.1h8.61l-12.71-13.736-12.3 13.736z"/><path fill="#D9A547" d="M1176.39 92.293v-37.69l18.85 18.845-18.85 18.845z" opacity=".42"/><path fill="#FFC524" d="M1102.61 67.481l8.87 13.917-13.91 8.875-8.88-13.917 13.92-8.874z"/><path fill="#FEBE44" d="M1099.27 82.596l-10.59-6.242 13.93-8.873 8.88 13.92-12.22 1.195z"/><path fill="#fff" d="M1092.81 76.487l5.21 1.152 2.78-1.985 1.93 3.028 5.21 1.151-5.85-10.006-9.28 6.66z"/><path fill="#D9A547" d="M1097.57 90.273l5.04-22.792 8.88 13.917-13.92 8.875z" opacity=".42"/><path fill="#FFC524" d="M989.021 80.238l6.774 10.623-10.623 6.774-6.774-10.623 10.623-6.774z"/><path fill="#FEBE44" d="M986.47 91.775l-8.078-4.765 10.63-6.773 6.782 10.625-9.334.913z"/><path fill="#fff" d="M981.545 87.112l3.974.88 2.122-1.517 1.474 2.312 3.974.879-4.464-7.638-7.08 5.084z"/><path fill="#D9A547" d="M985.175 97.635l3.848-17.398 6.775 10.623-10.623 6.775z" opacity=".42"/><path fill="#FFC524" d="M1148.83 18.19l10.46 2.697-2.7 10.457-10.46-2.697 2.7-10.457z"/><path fill="#FEBE44" d="M1153.98 26.913l-7.85 1.737 2.7-10.46 10.46 2.693-5.31 6.03z"/><path fill="#fff" d="M1148.16 26.87l3.01-1.773.44-2.19 2.28.586 3-1.773-7.26-2.176-1.47 7.326z"/><path fill="#D9A547" d="M1156.59 31.343l-7.76-13.153 10.46 2.697-2.7 10.456z" opacity=".42"/><path fill="#FFC524" d="M1151.33 105.898l5.35 4.641-4.64 5.344-5.35-4.641 4.64-5.344z"/><path fill="#FEBE44" d="M1151.8 112.52l-5.11-1.278 4.64-5.344 5.35 4.64-4.88 1.982z"/><path fill="#fff" d="M1148.4 110.794l2.28-.161.91-1.155 1.16 1.009 2.28-.16-3.62-3.402-3.01 3.869z"/><path fill="#D9A547" d="M1152.04 115.883l-.71-9.985 5.35 4.641-4.64 5.344z" opacity=".42"/><path fill="#FFC524" d="M1035.05 95.19l10.46 2.697-2.7 10.457-10.45-2.697 2.69-10.457z"/><path fill="#FEBE44" d="M1040.2 103.913l-7.85 1.737 2.7-10.46 10.47 2.693-5.32 6.03z"/><path fill="#fff" d="M1034.38 103.87l3.01-1.773.44-2.19 2.28.586 3-1.773-7.26-2.176-1.47 7.326z"/><path fill="#D9A547" d="M1042.81 108.343l-7.76-13.153 10.46 2.697-2.7 10.456z" opacity=".42"/></g><defs><linearGradient id="paint0_linear" x1="297" x2="1554.5" y1="40.5" y2="125.5" gradientUnits="userSpaceOnUse"><stop stop-color="#47279B"/><stop offset=".458" stop-color="#7440E2"/><stop offset=".76" stop-color="#FFB636"/></linearGradient><linearGradient id="paint1_linear" x1="210.34" x2="210.34" y1="20" y2="96.266" gradientUnits="userSpaceOnUse"><stop stop-color="#7E46F2"/><stop offset="1" stop-color="#46279A"/></linearGradient><linearGradient id="paint2_linear" x1="251.345" x2="251.345" y1="86.481" y2="97.933" gradientUnits="userSpaceOnUse"><stop stop-color="#7E46F2"/><stop offset="1" stop-color="#46279A"/></linearGradient><linearGradient id="paint3_linear" x1="251.346" x2="251.346" y1="86.48" y2="97.933" gradientUnits="userSpaceOnUse"><stop stop-color="#7E46F2"/><stop offset="1" stop-color="#46279A"/></linearGradient><linearGradient id="paint4_linear" x1="251.347" x2="251.347" y1="86.48" y2="97.933" gradientUnits="userSpaceOnUse"><stop stop-color="#7E46F2"/><stop offset="1" stop-color="#46279A"/></linearGradient><linearGradient id="paint5_linear" x1="251.348" x2="251.348" y1="86.48" y2="97.933" gradientUnits="userSpaceOnUse"><stop stop-color="#7E46F2"/><stop offset="1" stop-color="#46279A"/></linearGradient><linearGradient id="paint6_linear" x1="251.345" x2="251.345" y1="86.481" y2="97.933" gradientUnits="userSpaceOnUse"><stop stop-color="#7E46F2"/><stop offset="1" stop-color="#46279A"/></linearGradient><linearGradient id="paint7_linear" x1="251.346" x2="251.346" y1="86.481" y2="97.933" gradientUnits="userSpaceOnUse"><stop stop-color="#7E46F2"/><stop offset="1" stop-color="#46279A"/></linearGradient><linearGradient id="paint8_linear" x1="251.346" x2="251.346" y1="86.48" y2="97.933" gradientUnits="userSpaceOnUse"><stop stop-color="#7E46F2"/><stop offset="1" stop-color="#46279A"/></linearGradient><linearGradient id="paint9_linear" x1="251.347" x2="251.347" y1="86.48" y2="97.933" gradientUnits="userSpaceOnUse"><stop stop-color="#7E46F2"/><stop offset="1" stop-color="#46279A"/></linearGradient><radialGradient id="paint10_radial" cx="0" cy="0" r="1" gradientTransform="rotate(32.993 480.407 1987.369) scale(23.3351)" gradientUnits="userSpaceOnUse"><stop offset=".065" stop-color="#FFEA80"/><stop offset=".109" stop-color="#FFE77D"/><stop offset=".469" stop-color="#FFD76C"/><stop offset=".735" stop-color="#FFD166"/></radialGradient><radialGradient id="paint11_radial" cx="0" cy="0" r="1" gradientTransform="rotate(45.467 465.012 1336.928) scale(14.452)" gradientUnits="userSpaceOnUse"><stop offset=".065" stop-color="#FFEA80"/><stop offset=".109" stop-color="#FFE77D"/><stop offset=".469" stop-color="#FFD76C"/><stop offset=".735" stop-color="#FFD166"/></radialGradient><radialGradient id="paint12_radial" cx="0" cy="0" r="1" gradientTransform="rotate(45.467 394.36 1210.74) scale(11.0315)" gradientUnits="userSpaceOnUse"><stop offset=".065" stop-color="#FFEA80"/><stop offset=".109" stop-color="#FFE77D"/><stop offset=".469" stop-color="#FFD76C"/><stop offset=".735" stop-color="#FFD166"/></radialGradient><clipPath id="clip0"><path fill="#fff" d="M0 0h1200v120H0z"/></clipPath><clipPath id="clip1"><path fill="#fff" d="M0 0h200v79.33H0z" transform="translate(79 20)"/></clipPath><filter id="filter0_d" width="889" height="524" x="342" y="-199" color-interpolation-filters="sRGB" filterUnits="userSpaceOnUse"><feFlood flood-opacity="0" result="BackgroundImageFix"/><feColorMatrix in="SourceAlpha" values="0 0 0 0 0 0 0 0 0 0 0 0 0 0 0 0 0 0 127 0"/><feOffset dx="-6" dy="3"/><feGaussianBlur stdDeviation="5"/><feColorMatrix values="0 0 0 0 0.733333 0 0 0 0 0.733333 0 0 0 0 0.733333 0 0 0 0.5 0"/><feBlend in2="BackgroundImageFix" result="effect1_dropShadow"/><feBlend in="SourceGraphic" in2="effect1_dropShadow" result="shape"/></filter></defs></svg>