<svg xmlns="http://www.w3.org/2000/svg" fill="none" viewBox="0 0 24 24"><path fill="#424242" fill-rule="evenodd" d="M5.293.293A1 1 0 016 0h14.5a1 1 0 011 1v4.669a5.002 5.002 0 012.468 3.76 1.001 1.001 0 01.027.35c.003.073.005.147.005.221v6a5 5 0 01-4.5 4.975V22h1.25a1 1 0 110 2h-4.5a1 1 0 110-2h1.25v-1h-14A3.5 3.5 0 010 17.5V4.176a1 1 0 011-1h4V1a1 1 0 01.293-.707zM18.5 19h.5a3 3 0 003-3v-1.981h-2.375a1 1 0 010-2H22v-1.337h-2.375a1 1 0 010-2h2.07A3 3 0 0019 7h-1a3 3 0 00-3 3v6a3 3 0 003 3h.5zm1-17v3.025A5.06 5.06 0 0019 5h-1a5 5 0 00-5 5v6c0 1.126.372 2.164 1 3H6.663c.216-.455.337-.963.337-1.5V2h12.5zM5 5.176H2V17.5a1.5 1.5 0 003 0V5.176z" clip-rule="evenodd"/></svg>