<svg xmlns="http://www.w3.org/2000/svg" width="345" height="150" fill="none"><rect width="345" height="150" fill="#fff" rx="3"/><path fill="#163150" d="M38.72 56.624c.728 0 1.36-.064 1.896-.192a8.262 8.262 0 001.548-.552v-3.156h-2.172c-.208 0-.372-.056-.492-.168a.59.59 0 01-.18-.432V50.3h5.772v7.02c-.44.32-.9.6-1.38.84-.472.232-.98.424-1.524.576-.536.152-1.112.264-1.728.336a15.5 15.5 0 01-1.992.12c-1.264 0-2.428-.22-3.492-.66a8.297 8.297 0 01-2.76-1.836 8.436 8.436 0 01-1.824-2.808c-.432-1.088-.648-2.276-.648-3.564 0-1.304.212-2.5.636-3.588a8.14 8.14 0 011.8-2.808c.784-.784 1.732-1.392 2.844-1.824 1.112-.432 2.36-.648 3.744-.648 1.416 0 2.64.212 3.672.636 1.04.416 1.92.96 2.64 1.632l-.936 1.464c-.184.296-.428.444-.732.444-.192 0-.388-.064-.588-.192a34.87 34.87 0 00-.792-.456 5.04 5.04 0 00-.888-.396 7.001 7.001 0 00-1.092-.276 7.936 7.936 0 00-1.392-.108c-.856 0-1.632.144-2.328.432-.688.288-1.276.7-1.764 1.236a5.571 5.571 0 00-1.128 1.932c-.264.752-.396 1.592-.396 2.52 0 1 .14 1.892.42 2.676.28.776.672 1.432 1.176 1.968a5.134 5.134 0 001.8 1.236c.696.28 1.456.42 2.28.42zm14.296-10.128a5.93 5.93 0 012.136.372c.656.248 1.22.612 1.692 1.092.472.472.84 1.056 1.104 1.752.264.688.396 1.476.396 2.364 0 .224-.012.412-.036.564a.812.812 0 01-.108.348.448.448 0 01-.204.18.997.997 0 01-.336.048h-7.608c.088 1.264.428 2.192 1.02 2.784.592.592 1.376.888 2.352.888.48 0 .892-.056 1.236-.168a5.52 5.52 0 00.912-.372 15.1 15.1 0 00.684-.372c.2-.112.392-.168.576-.168.12 0 .224.024.312.072a.69.69 0 01.228.204l.864 1.08a5.072 5.072 0 01-1.104.972 6.562 6.562 0 01-1.284.624c-.44.152-.892.26-1.356.324a9.58 9.58 0 01-1.332.096 6.66 6.66 0 01-2.388-.42 5.453 5.453 0 01-1.92-1.26c-.544-.56-.972-1.248-1.284-2.064-.312-.824-.468-1.776-.468-2.856 0-.84.136-1.628.408-2.364a5.672 5.672 0 011.164-1.932 5.546 5.546 0 011.86-1.308c.736-.32 1.564-.48 2.484-.48zm.06 2.124c-.864 0-1.54.244-2.028.732s-.8 1.18-.936 2.076h5.568c0-.384-.052-.744-.156-1.08a2.498 2.498 0 00-.48-.9 2.213 2.213 0 00-.816-.6c-.328-.152-.712-.228-1.152-.228zm11.716 10.572c-1.064 0-1.884-.3-2.46-.9-.576-.608-.864-1.444-.864-2.508v-6.876H60.22c-.16 0-.3-.052-.42-.156-.112-.104-.168-.26-.168-.468v-1.176l1.98-.324.624-3.36a.604.604 0 01.216-.372.73.73 0 01.444-.132h1.536v3.876h3.24v2.112h-3.24v6.672c0 .384.096.684.288.9.192.216.448.324.768.324.184 0 .336-.02.456-.06.128-.048.236-.096.324-.144.096-.048.18-.092.252-.132a.387.387 0 01.216-.072.32.32 0 01.216.072.85.85 0 01.18.192l.888 1.44c-.432.36-.928.632-1.488.816-.56.184-1.14.276-1.74.276zm14.246 3.192a1.075 1.075 0 01-.348.468c-.136.112-.348.168-.636.168h-2.208l2.304-4.932-4.98-11.4h2.592c.24 0 .424.056.552.168.128.112.224.24.288.384l2.628 6.384c.088.208.164.424.228.648.064.224.12.448.168.672.064-.232.132-.456.204-.672.08-.216.164-.436.252-.66l2.472-6.372a.873.873 0 01.816-.552h2.376l-6.708 15.696zm13.286-15.888c.92 0 1.752.148 2.496.444a5.384 5.384 0 011.92 1.26c.528.544.936 1.208 1.224 1.992.288.784.432 1.66.432 2.628 0 .976-.144 1.856-.432 2.64a5.7 5.7 0 01-1.224 2.004 5.307 5.307 0 01-1.92 1.272c-.744.296-1.576.444-2.496.444-.92 0-1.756-.148-2.508-.444a5.424 5.424 0 01-1.932-1.272 5.845 5.845 0 01-1.236-2.004c-.288-.784-.432-1.664-.432-2.64 0-.968.144-1.844.432-2.628.296-.784.708-1.448 1.236-1.992a5.504 5.504 0 011.932-1.26c.752-.296 1.588-.444 2.508-.444zm0 10.404c1.024 0 1.78-.344 2.268-1.032.496-.688.744-1.696.744-3.024s-.248-2.34-.744-3.036c-.488-.696-1.244-1.044-2.268-1.044-1.04 0-1.808.352-2.304 1.056-.496.696-.744 1.704-.744 3.024s.248 2.328.744 3.024c.496.688 1.264 1.032 2.304 1.032zm11.097-10.212v7.824c0 .752.172 1.336.516 1.752.352.408.876.612 1.572.612.512 0 .992-.112 1.44-.336a5.16 5.16 0 001.272-.948v-8.904h2.964V59h-1.812c-.384 0-.636-.18-.756-.54l-.204-.984c-.256.256-.52.492-.792.708a5.154 5.154 0 01-.876.54 4.701 4.701 0 01-.996.336 4.69 4.69 0 01-1.14.132c-.672 0-1.268-.112-1.788-.336a3.642 3.642 0 01-1.296-.972 4.315 4.315 0 01-.804-1.476 6.465 6.465 0 01-.264-1.896v-7.824h2.964zM114.35 59V46.688h1.74c.304 0 .516.056.636.168.12.112.2.304.24.576l.18 1.488c.44-.76.956-1.36 1.548-1.8a3.257 3.257 0 011.992-.66c.608 0 1.112.14 1.512.42l-.384 2.22c-.024.144-.076.248-.156.312a.556.556 0 01-.324.084 2.02 2.02 0 01-.492-.084 3.293 3.293 0 00-.828-.084c-.616 0-1.144.172-1.584.516-.44.336-.812.832-1.116 1.488V59h-2.964zM35.84 75.496c.92 0 1.752.148 2.496.444a5.384 5.384 0 011.92 1.26c.528.544.936 1.208 1.224 1.992.288.784.432 1.66.432 2.628 0 .976-.144 1.856-.432 2.64a5.7 5.7 0 01-1.224 2.004 5.307 5.307 0 01-1.92 1.272c-.744.296-1.576.444-2.496.444-.92 0-1.756-.148-2.508-.444a5.424 5.424 0 01-1.932-1.272 5.845 5.845 0 01-1.236-2.004c-.288-.784-.432-1.664-.432-2.64 0-.968.144-1.844.432-2.628.296-.784.708-1.448 1.236-1.992a5.504 5.504 0 011.932-1.26c.752-.296 1.588-.444 2.508-.444zm0 10.404c1.024 0 1.78-.344 2.268-1.032.496-.688.744-1.696.744-3.024s-.248-2.34-.744-3.036c-.488-.696-1.244-1.044-2.268-1.044-1.04 0-1.808.352-2.304 1.056-.496.696-.744 1.704-.744 3.024s.248 2.328.744 3.024c.496.688 1.264 1.032 2.304 1.032zm6.885-10.212h2.352c.224 0 .412.052.564.156a.67.67 0 01.288.396l1.764 6.576c.096.36.172.712.228 1.056.064.344.124.688.18 1.032.088-.344.18-.688.276-1.032.104-.344.212-.696.324-1.056l2.04-6.6a.743.743 0 01.288-.396.838.838 0 01.504-.156h1.308c.216 0 .396.052.54.156.144.104.24.236.288.396l2.016 6.72c.104.344.196.68.276 1.008.088.32.172.644.252.972.056-.344.116-.688.18-1.032.072-.344.16-.7.264-1.068l1.824-6.576a.67.67 0 01.288-.396.912.912 0 01.528-.156h2.244L57.64 88h-2.388c-.256 0-.44-.176-.552-.528l-2.22-7.116c-.072-.232-.14-.464-.204-.696-.056-.24-.104-.476-.144-.708a13.439 13.439 0 01-.348 1.428l-2.244 7.092c-.112.352-.328.528-.648.528h-2.268l-3.9-12.312zM63.209 88V75.688h1.812c.384 0 .636.18.756.54l.204.972c.248-.256.508-.488.78-.696.28-.208.572-.388.876-.54.312-.152.644-.268.996-.348.352-.08.736-.12 1.152-.12.672 0 1.268.116 1.788.348.52.224.952.544 1.296.96.352.408.616.9.792 1.476.184.568.276 1.196.276 1.884V88h-2.964v-7.836c0-.752-.176-1.332-.528-1.74-.344-.416-.864-.624-1.56-.624-.512 0-.992.116-1.44.348a5.16 5.16 0 00-1.272.948V88h-2.964zm18.281 0V75.688h1.812c.384 0 .636.18.756.54l.204.972c.248-.256.508-.488.78-.696.28-.208.572-.388.876-.54.312-.152.644-.268.996-.348.352-.08.736-.12 1.152-.12.672 0 1.268.116 1.788.348.52.224.952.544 1.296.96.352.408.616.9.792 1.476.184.568.276 1.196.276 1.884V88h-2.964v-7.836c0-.752-.176-1.332-.528-1.74-.344-.416-.864-.624-1.56-.624-.512 0-.992.116-1.44.348a5.16 5.16 0 00-1.272.948V88H81.49zm18.897-12.504c.92 0 1.752.148 2.496.444a5.384 5.384 0 011.92 1.26c.528.544.936 1.208 1.224 1.992.288.784.432 1.66.432 2.628 0 .976-.144 1.856-.432 2.64a5.7 5.7 0 01-1.224 2.004 5.307 5.307 0 01-1.92 1.272c-.744.296-1.576.444-2.496.444-.92 0-1.756-.148-2.508-.444a5.424 5.424 0 01-1.932-1.272 5.845 5.845 0 01-1.236-2.004c-.288-.784-.432-1.664-.432-2.64 0-.968.144-1.844.432-2.628.296-.784.708-1.448 1.236-1.992a5.504 5.504 0 011.932-1.26c.752-.296 1.588-.444 2.508-.444zm0 10.404c1.024 0 1.78-.344 2.268-1.032.496-.688.744-1.696.744-3.024s-.248-2.34-.744-3.036c-.488-.696-1.244-1.044-2.268-1.044-1.04 0-1.808.352-2.304 1.056-.496.696-.744 1.704-.744 3.024s.248 2.328.744 3.024c.496.688 1.264 1.032 2.304 1.032zm17.049 2.1c-.384 0-.636-.18-.756-.54l-.24-1.188a7.36 7.36 0 01-.804.78 4.99 4.99 0 01-.912.6c-.32.168-.668.296-1.044.384a4.744 4.744 0 01-1.2.144c-.672 0-1.288-.14-1.848-.42a4.196 4.196 0 01-1.452-1.212c-.4-.536-.712-1.196-.936-1.98-.216-.784-.324-1.68-.324-2.688 0-.912.124-1.76.372-2.544a6.19 6.19 0 011.068-2.04 4.918 4.918 0 011.668-1.344c.648-.328 1.376-.492 2.184-.492.688 0 1.276.112 1.764.336a4.52 4.52 0 011.308.876v-6.504h2.963V88h-1.811zm-3.948-2.172c.616 0 1.14-.128 1.572-.384.432-.256.84-.62 1.224-1.092v-5.52c-.336-.408-.704-.696-1.104-.864a3.195 3.195 0 00-1.272-.252c-.448 0-.856.084-1.224.252-.36.168-.668.424-.924.768-.248.336-.44.768-.576 1.296-.136.52-.204 1.136-.204 1.848 0 .72.056 1.332.168 1.836.12.496.288.904.504 1.224.216.312.48.54.792.684.312.136.66.204 1.044.204zm14.059-10.332a5.93 5.93 0 012.136.372c.656.248 1.22.612 1.692 1.092.472.472.84 1.056 1.104 1.752.264.688.396 1.476.396 2.364 0 .224-.012.412-.036.564a.812.812 0 01-.108.348.448.448 0 01-.204.18.997.997 0 01-.336.048h-7.608c.088 1.264.428 2.192 1.02 2.784.592.592 1.376.888 2.352.888.48 0 .892-.056 1.236-.168a5.52 5.52 0 00.912-.372 15.1 15.1 0 00.684-.372c.2-.112.392-.168.576-.168.12 0 .224.024.312.072a.69.69 0 01.228.204l.864 1.08a5.072 5.072 0 01-1.104.972 6.562 6.562 0 01-1.284.624c-.44.152-.892.26-1.356.324a9.58 9.58 0 01-1.332.096 6.66 6.66 0 01-2.388-.42 5.453 5.453 0 01-1.92-1.26c-.544-.56-.972-1.248-1.284-2.064-.312-.824-.468-1.776-.468-2.856 0-.84.136-1.628.408-2.364a5.672 5.672 0 011.164-1.932 5.546 5.546 0 011.86-1.308c.736-.32 1.564-.48 2.484-.48zm.06 2.124c-.864 0-1.54.244-2.028.732s-.8 1.18-.936 2.076h5.568c0-.384-.052-.744-.156-1.08a2.498 2.498 0 00-.48-.9 2.213 2.213 0 00-.816-.6c-.328-.152-.712-.228-1.152-.228z"/><path fill="#282D32" d="M32.624 112.128c-.64 0-1.133-.179-1.48-.536-.341-.357-.512-.872-.512-1.544v-4.96h-.976a.33.33 0 01-.216-.072c-.059-.053-.088-.133-.088-.24v-.568l1.328-.168.328-2.504a.287.287 0 01.104-.192.322.322 0 01.224-.08h.72v2.792h2.32v1.032h-2.32v4.864c0 .341.083.595.248.76a.867.867 0 00.64.248c.15 0 .277-.019.384-.056.112-.043.208-.088.288-.136.08-.048.147-.091.2-.128.059-.043.11-.064.152-.064.075 0 .141.045.2.136l.416.68a2.705 2.705 0 01-.888.544 3.071 3.071 0 01-1.072.192zm6.793-8.36a4.14 4.14 0 011.6.296c.48.197.885.477 1.216.84.336.363.592.803.768 1.32.181.512.272 1.085.272 1.72 0 .64-.09 1.216-.272 1.728a3.649 3.649 0 01-.768 1.312c-.33.363-.736.643-1.216.84a4.234 4.234 0 01-1.6.288 4.295 4.295 0 01-1.608-.288 3.42 3.42 0 01-1.216-.84 3.743 3.743 0 01-.776-1.312 5.151 5.151 0 01-.272-1.728c0-.635.09-1.208.272-1.72a3.73 3.73 0 01.776-1.32 3.42 3.42 0 011.216-.84 4.199 4.199 0 011.608-.296zm0 7.232c.8 0 1.397-.267 1.792-.8.394-.539.592-1.288.592-2.248 0-.965-.198-1.717-.592-2.256-.395-.539-.992-.808-1.792-.808-.406 0-.758.069-1.056.208-.299.139-.55.339-.752.6a2.75 2.75 0 00-.448.968 5.257 5.257 0 00-.144 1.288c0 .48.048.909.144 1.288.101.379.25.699.448.96.202.256.453.453.752.592.298.139.65.208 1.056.208zm11.314 1c-.202 0-.33-.099-.384-.296l-.128-.984a4.31 4.31 0 01-1.192 1.016c-.442.251-.952.376-1.528.376-.464 0-.885-.088-1.264-.264a2.651 2.651 0 01-.968-.792c-.266-.347-.472-.779-.616-1.296-.144-.517-.216-1.112-.216-1.784 0-.597.08-1.152.24-1.664.16-.517.39-.965.688-1.344a3.232 3.232 0 011.104-.888c.432-.219.923-.328 1.472-.328.496 0 .92.085 1.272.256.352.165.667.4.944.704v-4.496h1.424V112h-.848zm-2.76-1.04c.464 0 .87-.107 1.216-.32.352-.213.675-.515.968-.904v-3.92c-.261-.352-.549-.597-.864-.736a2.416 2.416 0 00-1.032-.216c-.757 0-1.338.269-1.744.808-.405.539-.608 1.307-.608 2.304 0 .528.046.981.136 1.36.091.373.224.683.4.928.176.24.392.416.648.528.256.112.55.168.88.168zM59.917 112h-.632a.75.75 0 01-.336-.064c-.085-.043-.142-.133-.168-.272l-.16-.752a10.22 10.22 0 01-.624.52 3.962 3.962 0 01-.64.384 3.446 3.446 0 01-.72.232c-.25.053-.53.08-.84.08-.315 0-.61-.043-.888-.128a1.932 1.932 0 01-1.2-1.064 2.409 2.409 0 01-.176-.96c0-.32.088-.627.264-.92.176-.299.459-.563.848-.792.394-.229.91-.416 1.544-.56.635-.149 1.41-.235 2.328-.256v-.632c0-.629-.136-1.104-.408-1.424-.267-.325-.664-.488-1.192-.488-.347 0-.64.045-.88.136-.235.085-.44.184-.616.296-.17.107-.32.205-.448.296a.644.644 0 01-.368.128.463.463 0 01-.256-.072.633.633 0 01-.168-.192l-.256-.456c.448-.432.93-.755 1.448-.968a4.477 4.477 0 011.72-.32c.453 0 .856.075 1.208.224.352.149.648.357.888.624s.421.589.544.968c.123.379.184.795.184 1.248V112zm-3.696-.872c.25 0 .48-.024.688-.072a2.88 2.88 0 00.584-.216c.186-.096.362-.211.528-.344a4.31 4.31 0 00.496-.456v-1.688a11.33 11.33 0 00-1.672.16c-.459.08-.832.187-1.12.32-.288.133-.499.291-.632.472a1.029 1.029 0 00-.192.608c0 .213.034.397.104.552.07.155.162.283.28.384.117.096.256.168.416.216.16.043.333.064.52.064zm7.98 3.264a.717.717 0 01-.185.256c-.07.064-.178.096-.328.096h-1.056l1.48-3.216-3.344-7.632H62c.123 0 .219.032.288.096.07.059.12.125.152.2l2.168 5.104c.048.117.088.235.12.352.038.117.07.237.096.36l.112-.36c.038-.117.08-.237.128-.36l2.104-5.096a.44.44 0 01.16-.208.423.423 0 01.256-.088h1.136l-4.52 10.496zm7.849-10.496h1.12a.442.442 0 01.44.296l1.552 5.216.12.56c.037.176.069.355.096.536.042-.181.09-.36.144-.536l.167-.56 1.713-5.248a.432.432 0 01.135-.2.41.41 0 01.256-.08h.616c.107 0 .195.027.264.08.07.053.118.12.144.2l1.673 5.248a7.9 7.9 0 01.151.552c.048.181.094.36.136.536a8.647 8.647 0 01.24-1.088l1.584-5.216a.395.395 0 01.153-.208.413.413 0 01.263-.088h1.073L81.466 112h-1.128c-.14 0-.235-.091-.288-.272l-1.793-5.496a3.169 3.169 0 01-.104-.368 47.335 47.335 0 00-.08-.376l-.08.376a3.031 3.031 0 01-.103.376l-1.817 5.488c-.058.181-.167.272-.327.272h-1.072l-2.625-8.104zm14.89 0V112h-1.424v-8.104h1.423zm.32-2.544c0 .139-.03.269-.089.392a1.09 1.09 0 01-.224.32 1.015 1.015 0 01-.712.296.978.978 0 01-.391-.08 1.153 1.153 0 01-.32-.216 1.17 1.17 0 01-.216-.32.973.973 0 01-.08-.392c0-.139.026-.269.08-.392a1.01 1.01 0 01.215-.328.978.978 0 01.712-.304.978.978 0 01.713.304c.096.091.17.2.224.328a.897.897 0 01.088.392zm4.645 10.776c-.64 0-1.133-.179-1.48-.536-.341-.357-.512-.872-.512-1.544v-4.96h-.976a.33.33 0 01-.216-.072c-.058-.053-.088-.133-.088-.24v-.568l1.328-.168.328-2.504a.287.287 0 01.104-.192.322.322 0 01.224-.08h.72v2.792h2.32v1.032h-2.32v4.864c0 .341.083.595.248.76a.867.867 0 00.64.248c.15 0 .278-.019.384-.056.112-.043.208-.088.288-.136.08-.048.147-.091.2-.128.059-.043.11-.064.152-.064.075 0 .142.045.2.136l.416.68a2.707 2.707 0 01-.888.544 3.071 3.071 0 01-1.072.192zm3.513-.128v-11.784h1.424v4.768c.347-.368.73-.661 1.152-.88.421-.224.907-.336 1.456-.336.443 0 .832.075 1.168.224.341.144.624.352.848.624.229.267.403.589.52.968.117.379.176.797.176 1.256V112h-1.424v-5.16c0-.613-.141-1.088-.424-1.424-.277-.341-.704-.512-1.28-.512-.421 0-.816.101-1.184.304a3.913 3.913 0 00-1.008.824V112h-1.424z"/><g clip-path="url(#clip0)"><path fill="#11151A" d="M222.353 73.596c0 .747-.078 1.464-.232 2.15a8.588 8.588 0 01-.674 1.906 7.914 7.914 0 01-1.056 1.641 7.658 7.658 0 01-1.428 1.306l4.26 4.623h-2.577c-.371 0-.708-.05-1.01-.15a1.964 1.964 0 01-.812-.555l-2.461-2.704a9.02 9.02 0 01-1.219.243c-.411.053-.84.08-1.289.08-1.269 0-2.43-.211-3.483-.635a8.03 8.03 0 01-2.693-1.791 8.07 8.07 0 01-1.73-2.705c-.41-1.048-.615-2.184-.615-3.41 0-1.224.205-2.357.615-3.397a8.044 8.044 0 011.73-2.716 7.89 7.89 0 012.693-1.78c1.053-.431 2.214-.647 3.483-.647 1.269 0 2.426.216 3.471.647a7.904 7.904 0 012.682 1.792 7.916 7.916 0 011.729 2.704c.411 1.04.616 2.173.616 3.398zm-3.204 0c0-.917-.124-1.738-.372-2.462-.24-.732-.588-1.352-1.045-1.86a4.505 4.505 0 00-1.671-1.168c-.65-.27-1.386-.404-2.206-.404-.82 0-1.56.135-2.217.404a4.627 4.627 0 00-1.684 1.168c-.456.508-.808 1.128-1.056 1.86-.248.724-.372 1.545-.372 2.462 0 .917.124 1.741.372 2.473.248.724.6 1.34 1.056 1.85.465.5 1.026.885 1.684 1.155.657.27 1.397.404 2.217.404.82 0 1.556-.134 2.206-.404a4.568 4.568 0 001.671-1.156c.457-.508.805-1.125 1.045-1.849.248-.732.372-1.556.372-2.473zm7.205-3.502v7.535c0 .724.166 1.287.499 1.688.34.393.847.589 1.521.589.495 0 .959-.108 1.393-.324a4.997 4.997 0 001.23-.913v-8.575h2.868v11.858h-1.753c-.372 0-.615-.174-.732-.52l-.197-.948a9.04 9.04 0 01-.766.682c-.263.2-.546.373-.848.52a4.557 4.557 0 01-.963.323 4.557 4.557 0 01-1.103.127c-.65 0-1.227-.107-1.73-.323a3.531 3.531 0 01-1.254-.936c-.34-.4-.599-.875-.777-1.422a6.176 6.176 0 01-.256-1.826v-7.535h2.868zm12.695 0v11.858h-2.867V70.094h2.867zm.43-3.456c0 .247-.05.478-.151.694-.1.216-.236.404-.406.566a1.928 1.928 0 01-.581.393 1.866 1.866 0 01-.719.139c-.248 0-.484-.046-.709-.139a1.94 1.94 0 01-.963-.96 1.732 1.732 0 01-.139-.693c0-.254.046-.493.139-.716.1-.224.232-.416.395-.578.162-.162.352-.289.568-.381.225-.1.461-.15.709-.15.255 0 .495.05.719.15.225.092.418.22.581.381.17.162.306.355.406.578.101.223.151.462.151.716zm10.263 5.964a1.353 1.353 0 01-.256.254c-.078.062-.193.093-.348.093a.815.815 0 01-.43-.127 7.722 7.722 0 00-.499-.301 3.268 3.268 0 00-.697-.3c-.263-.093-.592-.14-.986-.14-.503 0-.944.093-1.324.278a2.51 2.51 0 00-.952.775 3.584 3.584 0 00-.557 1.236 6.503 6.503 0 00-.186 1.63c0 .632.066 1.194.198 1.687.139.493.336.91.592 1.248.255.331.565.586.929.763.363.17.773.254 1.23.254.457 0 .824-.054 1.103-.162.286-.115.526-.238.72-.37.193-.138.359-.261.499-.37a.769.769 0 01.487-.173c.232 0 .406.089.523.266l.824 1.04a5.35 5.35 0 01-1.033.936 5.961 5.961 0 01-1.161.602c-.395.146-.805.25-1.231.311a8.813 8.813 0 01-1.265.093 5.37 5.37 0 01-2.078-.404 4.971 4.971 0 01-1.706-1.203c-.48-.523-.863-1.163-1.15-1.918-.278-.763-.418-1.63-.418-2.6 0-.87.124-1.676.372-2.416a5.484 5.484 0 011.114-1.93 5.05 5.05 0 011.811-1.283c.72-.308 1.548-.462 2.485-.462.89 0 1.667.143 2.333.428a5.7 5.7 0 011.811 1.225l-.754 1.04zm4.667-7.824v9.835h.533c.194 0 .345-.027.453-.081a1.17 1.17 0 00.348-.3l2.961-3.641a1.61 1.61 0 01.417-.358c.147-.093.341-.139.581-.139h2.624l-3.704 4.403a5.958 5.958 0 01-.406.451c-.139.13-.29.247-.453.347.163.115.306.25.43.404.123.154.248.32.371.497l3.971 5.756h-2.59c-.224 0-.414-.039-.568-.116a1.106 1.106 0 01-.418-.393l-3.03-4.496c-.116-.177-.232-.292-.348-.346-.116-.054-.291-.081-.523-.081h-.649v5.432h-2.868V64.778h2.868zm10.78.462c.14 0 .255.008.349.023a.595.595 0 01.243.07c.078.03.151.08.221.15.07.061.147.146.232.254l8.811 11.176c-.031-.27-.054-.532-.069-.786a23.975 23.975 0 01-.012-.728V65.24h2.751v16.712h-1.613a1.44 1.44 0 01-.616-.116c-.162-.077-.321-.216-.476-.416l-8.776-11.13c.024.247.039.494.047.74.015.239.023.459.023.659v10.263h-2.751V65.24h1.636zm19.905 4.67c.891 0 1.695.142 2.415.427a5.22 5.22 0 011.858 1.213c.51.524.905 1.164 1.184 1.919.278.755.418 1.598.418 2.53 0 .94-.14 1.788-.418 2.543a5.504 5.504 0 01-1.184 1.93 5.143 5.143 0 01-1.858 1.225c-.72.285-1.524.428-2.415.428-.89 0-1.699-.143-2.426-.428a5.248 5.248 0 01-1.869-1.225 5.648 5.648 0 01-1.196-1.93c-.278-.755-.417-1.602-.417-2.542 0-.933.139-1.776.417-2.531a5.523 5.523 0 011.196-1.919 5.328 5.328 0 011.869-1.213c.727-.285 1.536-.428 2.426-.428zm0 10.02c.991 0 1.723-.332 2.195-.995.48-.663.72-1.633.72-2.912 0-1.28-.24-2.254-.72-2.924-.472-.67-1.204-1.006-2.195-1.006-1.005 0-1.748.34-2.228 1.017-.48.67-.72 1.642-.72 2.913s.24 2.242.72 2.912c.48.663 1.223.994 2.228.994zm15.564 2.022c-.371 0-.615-.174-.73-.52l-.233-1.145a7.05 7.05 0 01-.778.752c-.27.223-.564.416-.882.578a4.251 4.251 0 01-1.009.37 4.619 4.619 0 01-1.161.138 3.96 3.96 0 01-1.789-.404 4.054 4.054 0 01-1.404-1.168c-.387-.516-.689-1.152-.906-1.907-.209-.755-.313-1.618-.313-2.588 0-.879.12-1.696.36-2.45a5.933 5.933 0 011.033-1.965 4.76 4.76 0 011.613-1.295c.628-.316 1.332-.474 2.113-.474.666 0 1.235.108 1.707.324.472.208.894.49 1.266.844v-6.264h2.866v17.174h-1.753zm-3.818-2.092c.595 0 1.102-.123 1.52-.37.418-.247.813-.597 1.185-1.052v-5.316c-.326-.393-.682-.67-1.069-.832a3.1 3.1 0 00-1.23-.243c-.434 0-.828.081-1.184.243a2.345 2.345 0 00-.894.74c-.24.323-.426.74-.558 1.248-.131.5-.197 1.094-.197 1.78 0 .693.054 1.282.163 1.768.115.477.278.87.487 1.178.209.301.465.52.766.66.302.13.639.196 1.011.196zm12.674-9.95c.751 0 1.44.118 2.066.357.635.24 1.181.59 1.637 1.052a4.697 4.697 0 011.068 1.687c.255.663.383 1.422.383 2.277 0 .216-.011.397-.034.543a.79.79 0 01-.105.336.428.428 0 01-.198.173.96.96 0 01-.324.046h-7.361c.085 1.217.414 2.111.988 2.681.572.57 1.33.856 2.274.856.465 0 .863-.054 1.197-.162a5.39 5.39 0 00.882-.359c.255-.13.476-.25.662-.358a1.14 1.14 0 01.556-.162.62.62 0 01.302.07.66.66 0 01.221.196l.835 1.04a4.88 4.88 0 01-1.067.936 6.382 6.382 0 01-1.242.602 6.92 6.92 0 01-1.312.311 9.33 9.33 0 01-1.289.093 6.47 6.47 0 01-2.31-.404 5.287 5.287 0 01-1.858-1.214c-.526-.54-.939-1.202-1.242-1.988-.302-.794-.452-1.71-.452-2.75 0-.81.132-1.568.395-2.277a5.449 5.449 0 011.126-1.86 5.364 5.364 0 011.799-1.26c.712-.309 1.513-.463 2.403-.463zm.058 2.045c-.836 0-1.489.235-1.962.705-.472.47-.774 1.136-.905 1.999h5.386c0-.37-.05-.717-.151-1.04a2.38 2.38 0 00-.465-.867 2.133 2.133 0 00-.789-.578 2.642 2.642 0 00-1.114-.22z"/><path fill="#40C6F0" d="M180.058 86.983c-6.884 0-12.454-5.476-12.454-12.243 0-6.768 5.57-12.244 12.454-12.244 9.045 0 14.954 9.12 11.459 17.095l-7.964-2.56L194.8 88.086c3.304-3.52 5.317-8.204 5.317-13.368 0-10.89-8.981-19.719-20.059-19.719C168.981 55 160 63.829 160 74.719s8.981 19.719 20.058 19.719c3.876 0 7.477-1.083 10.548-2.936L199.524 95l-11.247-11.078a12.595 12.595 0 01-8.219 3.061z"/></g><defs><clipPath id="clip0"><path fill="#fff" d="M0 0h154.667v40H0z" transform="translate(160 55)"/></clipPath></defs></svg>