<svg xmlns="http://www.w3.org/2000/svg" width="1200" height="120" fill="none"><path fill="#fff" d="M0 0h1200v120H0z"/><mask id="a" width="1200" height="120" x="0" y="0" maskUnits="userSpaceOnUse"><path fill="#fff" d="M0 0h1200v120H0z"/></mask><g filter="url(#filter0_d)" mask="url(#a)"><ellipse cx="792.5" cy="60" fill="url(#paint0_linear)" rx="434.5" ry="252"/></g><path fill="#fff" d="M477.225 72.545c1.365 0 2.55-.12 3.555-.36 1.02-.255 1.988-.6 2.903-1.035v-5.918h-4.073c-.39 0-.697-.105-.922-.314a1.105 1.105 0 01-.338-.81v-3.42h10.823V73.85c-.825.6-1.688 1.125-2.588 1.575-.885.435-1.837.795-2.857 1.08a20.666 20.666 0 01-3.24.63c-1.155.15-2.4.225-3.735.225-2.37 0-4.553-.412-6.548-1.237-1.995-.826-3.72-1.973-5.175-3.443-1.455-1.47-2.595-3.225-3.42-5.265-.81-2.04-1.215-4.268-1.215-6.683 0-2.444.398-4.687 1.193-6.727s1.92-3.795 3.375-5.265c1.47-1.47 3.247-2.61 5.332-3.42s4.425-1.215 7.02-1.215c2.655 0 4.95.398 6.885 1.193 1.95.78 3.6 1.8 4.95 3.06l-1.755 2.745c-.345.554-.802.832-1.372.832-.36 0-.728-.12-1.103-.36a65.38 65.38 0 00-1.485-.855 9.45 9.45 0 00-1.665-.742 13.12 13.12 0 00-2.047-.518c-.75-.135-1.62-.203-2.61-.203-1.605 0-3.06.27-4.365.81a9.235 9.235 0 00-3.308 2.318c-.915 1.005-1.62 2.212-2.115 3.623-.495 1.41-.742 2.984-.742 4.724 0 1.876.262 3.548.787 5.018.525 1.455 1.26 2.685 2.205 3.69a9.626 9.626 0 003.375 2.317c1.305.525 2.73.788 4.275.788zm26.805-18.99c1.455 0 2.79.233 4.005.697a8.701 8.701 0 013.172 2.048c.885.885 1.575 1.98 2.07 3.285.495 1.29.743 2.767.743 4.432 0 .42-.023.773-.068 1.058-.03.27-.097.487-.202.653a.84.84 0 01-.383.337c-.165.06-.375.09-.63.09h-14.265c.165 2.37.803 4.11 1.913 5.22 1.11 1.11 2.58 1.665 4.41 1.665.9 0 1.672-.105 2.317-.315.66-.21 1.23-.442 1.71-.697.495-.256.923-.488 1.283-.698.375-.21.735-.315 1.08-.315.225 0 .42.045.585.135a1.3 1.3 0 01.427.382l1.62 2.026a9.51 9.51 0 01-2.07 1.822 12.3 12.3 0 01-2.407 1.17 13.44 13.44 0 01-2.543.608c-.855.12-1.687.18-2.497.18-1.605 0-3.098-.263-4.478-.788a10.224 10.224 0 01-3.6-2.362c-1.02-1.05-1.822-2.34-2.407-3.87-.585-1.546-.878-3.33-.878-5.355 0-1.575.255-3.053.765-4.433.51-1.395 1.238-2.602 2.183-3.623.96-1.034 2.122-1.852 3.487-2.452 1.38-.6 2.933-.9 4.658-.9zm.112 3.983c-1.62 0-2.887.457-3.802 1.372s-1.5 2.213-1.755 3.893h10.44c0-.72-.098-1.395-.293-2.025a4.685 4.685 0 00-.9-1.688 4.149 4.149 0 00-1.53-1.125c-.615-.285-1.335-.428-2.16-.428zM526.11 77.36c-1.995 0-3.532-.563-4.612-1.688-1.08-1.14-1.62-2.707-1.62-4.702V58.078h-2.34c-.3 0-.563-.098-.788-.293-.21-.195-.315-.487-.315-.877v-2.206l3.713-.607 1.17-6.3c.06-.3.195-.532.405-.698.225-.165.502-.247.832-.247h2.88v7.267h6.075v3.96h-6.075v12.51c0 .72.18 1.283.54 1.688.36.405.84.607 1.44.607.345 0 .63-.037.855-.112.24-.09.443-.18.608-.27.18-.09.337-.172.472-.248a.726.726 0 01.405-.134.6.6 0 01.405.135c.105.075.218.195.338.36l1.665 2.7a8.413 8.413 0 01-2.79 1.53c-1.05.344-2.138.517-3.263.517zm26.711 5.985c-.165.39-.382.683-.652.877-.255.21-.653.316-1.193.316h-4.14l4.32-9.248-9.337-21.375h4.86c.45 0 .795.105 1.035.315.24.21.42.45.54.72l4.927 11.97c.165.39.308.795.428 1.215.12.42.225.84.315 1.26.12-.435.247-.855.382-1.26.15-.405.308-.818.473-1.238l4.635-11.947c.12-.3.315-.547.585-.742.285-.195.6-.293.945-.293h4.455l-12.578 29.43zm24.912-29.79c1.725 0 3.285.278 4.68.833 1.41.555 2.61 1.342 3.6 2.362.99 1.02 1.755 2.265 2.295 3.735.54 1.47.81 3.112.81 4.927 0 1.83-.27 3.48-.81 4.95-.54 1.47-1.305 2.723-2.295 3.758-.99 1.035-2.19 1.83-3.6 2.385-1.395.555-2.955.833-4.68.833-1.725 0-3.292-.278-4.702-.833-1.41-.555-2.618-1.35-3.623-2.385-.99-1.035-1.762-2.288-2.317-3.758-.54-1.47-.81-3.12-.81-4.95 0-1.815.27-3.457.81-4.927.555-1.47 1.327-2.715 2.317-3.735 1.005-1.02 2.213-1.807 3.623-2.362 1.41-.555 2.977-.833 4.702-.833zm0 19.508c1.92 0 3.338-.645 4.253-1.936.93-1.29 1.395-3.18 1.395-5.67 0-2.49-.465-4.387-1.395-5.692-.915-1.305-2.333-1.958-4.253-1.958-1.95 0-3.39.66-4.32 1.98-.93 1.306-1.395 3.196-1.395 5.67 0 2.476.465 4.366 1.395 5.67.93 1.29 2.37 1.936 4.32 1.936zm20.806-19.148v14.67c0 1.41.323 2.505.968 3.285.66.765 1.642 1.147 2.947 1.147.96 0 1.86-.21 2.7-.63.84-.434 1.635-1.027 2.385-1.777V53.915h5.558V77h-3.398c-.72 0-1.192-.338-1.417-1.013l-.383-1.844c-.48.48-.975.922-1.485 1.327a9.66 9.66 0 01-1.642 1.013 8.82 8.82 0 01-1.868.63 8.791 8.791 0 01-2.137.247c-1.26 0-2.378-.21-3.353-.63a6.83 6.83 0 01-2.43-1.823c-.66-.78-1.162-1.702-1.507-2.767-.33-1.08-.495-2.265-.495-3.555v-14.67h5.557zM619.031 77V53.915h3.262c.57 0 .968.105 1.193.315.225.21.375.57.45 1.08l.337 2.79c.825-1.425 1.793-2.55 2.903-3.375a6.108 6.108 0 013.735-1.238c1.14 0 2.085.263 2.835.788l-.72 4.163c-.045.27-.143.465-.293.584-.15.105-.352.158-.607.158-.225 0-.533-.053-.923-.157-.39-.106-.907-.158-1.552-.158-1.155 0-2.145.322-2.97.968-.825.63-1.523 1.56-2.093 2.79V77h-5.557zm36.925-23.445c1.725 0 3.285.278 4.68.833 1.41.555 2.61 1.342 3.6 2.362.99 1.02 1.755 2.265 2.295 3.735.54 1.47.81 3.112.81 4.927 0 1.83-.27 3.48-.81 4.95-.54 1.47-1.305 2.723-2.295 3.758-.99 1.035-2.19 1.83-3.6 2.385-1.395.555-2.955.833-4.68.833-1.725 0-3.293-.278-4.703-.833-1.41-.555-2.617-1.35-3.622-2.385-.99-1.035-1.763-2.288-2.318-3.758-.54-1.47-.81-3.12-.81-4.95 0-1.815.27-3.457.81-4.927.555-1.47 1.328-2.715 2.318-3.735 1.005-1.02 2.212-1.807 3.622-2.362 1.41-.555 2.978-.833 4.703-.833zm0 19.508c1.92 0 3.337-.645 4.252-1.936.93-1.29 1.395-3.18 1.395-5.67 0-2.49-.465-4.387-1.395-5.692-.915-1.305-2.332-1.958-4.252-1.958-1.95 0-3.39.66-4.32 1.98-.93 1.306-1.395 3.196-1.395 5.67 0 2.476.465 4.366 1.395 5.67.93 1.29 2.37 1.936 4.32 1.936zm12.909-19.148h4.41c.42 0 .772.098 1.057.293.285.195.465.442.54.742l3.308 12.33c.18.675.322 1.335.427 1.98.12.645.233 1.29.338 1.935.165-.645.337-1.29.517-1.935.195-.645.398-1.305.608-1.98l3.825-12.375c.09-.3.27-.547.54-.742.27-.195.585-.293.945-.293h2.452c.405 0 .743.098 1.013.293.27.195.45.442.54.742l3.78 12.6c.195.645.367 1.275.517 1.89.165.6.323 1.208.473 1.823.105-.645.217-1.29.337-1.936.135-.644.3-1.312.495-2.002l3.42-12.33c.075-.3.255-.547.54-.742a1.71 1.71 0 01.99-.293h4.208L696.832 77h-4.477c-.48 0-.825-.33-1.035-.99l-4.163-13.343c-.135-.434-.262-.87-.382-1.305a23.15 23.15 0 01-.27-1.327c-.09.45-.188.9-.293 1.35-.105.435-.225.878-.36 1.328l-4.207 13.297c-.21.66-.615.99-1.215.99h-4.253l-7.312-23.085zM707.273 77V53.915h3.397c.72 0 1.193.337 1.418 1.013l.382 1.822c.465-.48.953-.915 1.463-1.305.525-.39 1.072-.727 1.642-1.013a8.603 8.603 0 011.868-.652c.66-.15 1.38-.225 2.16-.225 1.26 0 2.377.218 3.352.653a6.366 6.366 0 012.43 1.8c.66.764 1.155 1.687 1.485 2.767.345 1.065.518 2.242.518 3.532V77h-5.558V62.307c0-1.41-.33-2.497-.99-3.262-.645-.78-1.62-1.17-2.925-1.17-.96 0-1.86.218-2.7.653-.84.434-1.635 1.027-2.385 1.777V77h-5.557zm34.277 0V53.915h3.398c.72 0 1.192.337 1.417 1.013l.383 1.822a13.2 13.2 0 011.462-1.305c.525-.39 1.073-.727 1.643-1.013a8.595 8.595 0 011.867-.652c.66-.15 1.38-.225 2.16-.225 1.26 0 2.378.218 3.353.653a6.366 6.366 0 012.43 1.8c.66.764 1.155 1.687 1.485 2.767.345 1.065.517 2.242.517 3.532V77h-5.557V62.307c0-1.41-.33-2.497-.99-3.262-.645-.78-1.62-1.17-2.925-1.17-.96 0-1.86.218-2.7.653-.84.434-1.635 1.027-2.385 1.777V77h-5.558zm35.431-23.445c1.725 0 3.285.278 4.68.833 1.41.555 2.61 1.342 3.6 2.362.99 1.02 1.755 2.265 2.295 3.735.54 1.47.81 3.112.81 4.927 0 1.83-.27 3.48-.81 4.95-.54 1.47-1.305 2.723-2.295 3.758-.99 1.035-2.19 1.83-3.6 2.385-1.395.555-2.955.833-4.68.833-1.725 0-3.292-.278-4.702-.833-1.41-.555-2.618-1.35-3.623-2.385-.99-1.035-1.762-2.288-2.317-3.758-.54-1.47-.81-3.12-.81-4.95 0-1.815.27-3.457.81-4.927.555-1.47 1.327-2.715 2.317-3.735 1.005-1.02 2.213-1.807 3.623-2.362 1.41-.555 2.977-.833 4.702-.833zm0 19.508c1.92 0 3.338-.645 4.253-1.936.93-1.29 1.395-3.18 1.395-5.67 0-2.49-.465-4.387-1.395-5.692-.915-1.305-2.333-1.958-4.253-1.958-1.95 0-3.39.66-4.32 1.98-.93 1.306-1.395 3.196-1.395 5.67 0 2.476.465 4.366 1.395 5.67.93 1.29 2.37 1.936 4.32 1.936zM808.947 77c-.72 0-1.192-.338-1.417-1.013l-.45-2.227c-.48.54-.983 1.027-1.508 1.462a9.356 9.356 0 01-1.71 1.126c-.6.314-1.252.555-1.957.72-.69.18-1.44.27-2.25.27-1.26 0-2.415-.263-3.465-.788-1.05-.525-1.958-1.282-2.723-2.272-.75-1.006-1.335-2.243-1.755-3.713-.405-1.47-.607-3.15-.607-5.04 0-1.71.232-3.3.697-4.77.465-1.47 1.133-2.745 2.003-3.825a9.219 9.219 0 013.127-2.52c1.215-.615 2.58-.922 4.095-.922 1.29 0 2.393.21 3.308.63a8.473 8.473 0 012.452 1.642V43.565h5.558V77h-3.398zm-7.402-4.073c1.155 0 2.137-.24 2.947-.72s1.575-1.162 2.295-2.047V59.81c-.63-.765-1.32-1.305-2.07-1.62a5.99 5.99 0 00-2.385-.472c-.84 0-1.605.157-2.295.472-.675.315-1.252.795-1.732 1.44-.465.63-.825 1.44-1.08 2.43-.255.975-.383 2.13-.383 3.465 0 1.35.105 2.497.315 3.442.225.93.54 1.695.945 2.296.405.584.9 1.012 1.485 1.282.585.255 1.238.382 1.958.382zm26.361-19.372c1.455 0 2.79.233 4.005.697a8.705 8.705 0 013.173 2.048c.885.885 1.575 1.98 2.07 3.285.495 1.29.742 2.767.742 4.432 0 .42-.022.773-.067 1.058-.03.27-.098.487-.203.653a.838.838 0 01-.382.337c-.165.06-.375.09-.63.09h-14.265c.165 2.37.802 4.11 1.912 5.22 1.11 1.11 2.58 1.665 4.41 1.665.9 0 1.673-.105 2.318-.315.66-.21 1.23-.442 1.71-.697.495-.256.922-.488 1.282-.698.375-.21.735-.315 1.08-.315.225 0 .42.045.585.135.165.09.308.218.428.382l1.62 2.026a9.51 9.51 0 01-2.07 1.822c-.765.48-1.568.87-2.408 1.17a13.43 13.43 0 01-2.542.608c-.855.12-1.688.18-2.498.18-1.605 0-3.097-.263-4.477-.788a10.224 10.224 0 01-3.6-2.362c-1.02-1.05-1.823-2.34-2.408-3.87-.585-1.546-.877-3.33-.877-5.355 0-1.575.255-3.053.765-4.433.51-1.395 1.237-2.602 2.182-3.623.96-1.034 2.123-1.852 3.488-2.452 1.38-.6 2.932-.9 4.657-.9zm.113 3.983c-1.62 0-2.888.457-3.803 1.372s-1.5 2.213-1.755 3.893h10.44c0-.72-.097-1.395-.292-2.025a4.685 4.685 0 00-.9-1.688 4.149 4.149 0 00-1.53-1.125c-.615-.285-1.335-.428-2.16-.428zm30.669 19.822c-1.995 0-3.532-.563-4.612-1.688-1.08-1.14-1.62-2.707-1.62-4.702V58.078h-2.34c-.3 0-.563-.098-.788-.293-.21-.195-.315-.487-.315-.877v-2.206l3.713-.607 1.17-6.3c.06-.3.195-.532.405-.698.225-.165.502-.247.832-.247h2.88v7.267h6.075v3.96h-6.075v12.51c0 .72.18 1.283.54 1.688.36.405.84.607 1.44.607.345 0 .63-.037.855-.112.24-.09.443-.18.608-.27.18-.09.337-.172.472-.248a.726.726 0 01.405-.134.6.6 0 01.405.135c.105.075.218.195.338.36l1.665 2.7a8.413 8.413 0 01-2.79 1.53c-1.05.344-2.138.517-3.263.517zm19.675-23.805c1.725 0 3.285.278 4.68.833 1.41.555 2.61 1.342 3.6 2.362.99 1.02 1.755 2.265 2.295 3.735.54 1.47.81 3.112.81 4.927 0 1.83-.27 3.48-.81 4.95-.54 1.47-1.305 2.723-2.295 3.758-.99 1.035-2.19 1.83-3.6 2.385-1.395.555-2.955.833-4.68.833-1.725 0-3.292-.278-4.702-.833-1.41-.555-2.618-1.35-3.623-2.385-.99-1.035-1.762-2.288-2.317-3.758-.54-1.47-.81-3.12-.81-4.95 0-1.815.27-3.457.81-4.927.555-1.47 1.327-2.715 2.317-3.735 1.005-1.02 2.213-1.807 3.623-2.362 1.41-.555 2.977-.833 4.702-.833zm0 19.508c1.92 0 3.338-.645 4.253-1.936.93-1.29 1.395-3.18 1.395-5.67 0-2.49-.465-4.387-1.395-5.692-.915-1.305-2.333-1.958-4.253-1.958-1.95 0-3.39.66-4.32 1.98-.93 1.306-1.395 3.196-1.395 5.67 0 2.476.465 4.366 1.395 5.67.93 1.29 2.37 1.936 4.32 1.936zM910.329 77c-.72 0-1.192-.338-1.417-1.013l-.45-2.227c-.48.54-.983 1.027-1.508 1.462a9.356 9.356 0 01-1.71 1.126c-.6.314-1.252.555-1.957.72-.69.18-1.44.27-2.25.27-1.26 0-2.415-.263-3.465-.788-1.05-.525-1.958-1.282-2.723-2.272-.75-1.006-1.335-2.243-1.755-3.713-.405-1.47-.607-3.15-.607-5.04 0-1.71.232-3.3.697-4.77.465-1.47 1.133-2.745 2.003-3.825a9.219 9.219 0 013.127-2.52c1.215-.615 2.58-.922 4.095-.922 1.29 0 2.393.21 3.308.63a8.473 8.473 0 012.452 1.642V43.565h5.558V77h-3.398zm-7.402-4.073c1.155 0 2.137-.24 2.947-.72s1.575-1.162 2.295-2.047V59.81c-.63-.765-1.32-1.305-2.07-1.62a5.99 5.99 0 00-2.385-.472c-.84 0-1.605.157-2.295.472-.675.315-1.252.795-1.732 1.44-.465.63-.825 1.44-1.08 2.43-.255.975-.383 2.13-.383 3.465 0 1.35.105 2.497.315 3.442.225.93.54 1.695.945 2.296.405.584.9 1.012 1.485 1.282.585.255 1.238.382 1.958.382zM937.838 77h-2.497c-.525 0-.938-.075-1.238-.225-.3-.165-.525-.488-.675-.968l-.495-1.642c-.585.525-1.162.99-1.732 1.395-.555.39-1.133.72-1.733.99a8.89 8.89 0 01-1.912.608c-.675.135-1.425.202-2.25.202-.975 0-1.875-.127-2.7-.382a6.071 6.071 0 01-2.138-1.193 5.427 5.427 0 01-1.372-1.957c-.33-.78-.495-1.688-.495-2.723 0-.87.225-1.725.675-2.565.465-.855 1.23-1.62 2.295-2.295 1.065-.69 2.482-1.26 4.252-1.71 1.77-.45 3.968-.705 6.593-.765v-1.35c0-1.545-.33-2.685-.99-3.42-.645-.75-1.59-1.125-2.835-1.125-.9 0-1.65.105-2.25.315-.6.21-1.125.45-1.575.72-.435.255-.84.488-1.215.698-.375.21-.788.315-1.238.315-.375 0-.697-.098-.967-.293a2.304 2.304 0 01-.653-.72l-1.012-1.777c2.655-2.43 5.857-3.646 9.607-3.646 1.35 0 2.55.225 3.6.675 1.065.435 1.965 1.05 2.7 1.846.735.78 1.29 1.717 1.665 2.812.39 1.095.585 2.295.585 3.6V77zm-10.8-3.465c.57 0 1.095-.052 1.575-.157.48-.106.93-.263 1.35-.473.435-.21.848-.465 1.238-.765.405-.315.81-.683 1.215-1.103v-3.892c-1.62.075-2.978.218-4.073.428-1.08.195-1.95.45-2.61.765-.66.315-1.132.682-1.417 1.102-.27.42-.405.877-.405 1.373 0 .974.285 1.672.855 2.092.585.42 1.342.63 2.272.63zm23.664 9.81c-.165.39-.383.683-.653.877-.255.21-.652.316-1.192.316h-4.14l4.32-9.248-9.338-21.375h4.86c.45 0 .795.105 1.035.315.24.21.42.45.54.72l4.928 11.97c.165.39.307.795.427 1.215.12.42.225.84.315 1.26.12-.435.248-.855.383-1.26.15-.405.307-.818.472-1.238l4.635-11.947c.12-.3.315-.547.585-.742.285-.195.6-.293.945-.293h4.455l-12.577 29.43z"/><g clip-path="url(#clip0)"><path fill="#11151A" d="M161.322 58.218c0 1.215-.126 2.38-.378 3.493a13.896 13.896 0 01-1.094 3.1 12.843 12.843 0 01-1.717 2.666 12.429 12.429 0 01-2.32 2.122l6.923 7.512h-4.188c-.603 0-1.15-.081-1.641-.244-.478-.163-.918-.463-1.32-.901l-4-4.395c-.641.175-1.301.307-1.98.394-.667.088-1.365.132-2.094.132-2.063 0-3.949-.344-5.66-1.033-1.698-.701-3.156-1.672-4.376-2.911-1.208-1.24-2.145-2.705-2.811-4.395-.667-1.702-1-3.549-1-5.54 0-1.99.333-3.831 1-5.521.666-1.703 1.603-3.174 2.811-4.414 1.22-1.239 2.678-2.203 4.376-2.892 1.711-.7 3.597-1.051 5.66-1.051 2.062 0 3.942.35 5.64 1.051 1.698.701 3.151 1.672 4.358 2.911 1.207 1.227 2.144 2.692 2.811 4.395.666 1.69 1 3.53 1 5.521zm-5.207 0c0-1.49-.201-2.823-.604-4-.39-1.19-.956-2.197-1.698-3.024a7.332 7.332 0 00-2.716-1.896c-1.056-.439-2.251-.658-3.584-.658-1.333 0-2.535.22-3.604.658a7.519 7.519 0 00-2.735 1.896c-.742.827-1.314 1.835-1.717 3.024-.402 1.177-.603 2.51-.603 4 0 1.49.201 2.83.603 4.02.403 1.176.975 2.178 1.717 3.004a7.627 7.627 0 002.735 1.878c1.069.438 2.271.657 3.604.657 1.333 0 2.528-.219 3.584-.657a7.435 7.435 0 002.716-1.878c.742-.826 1.308-1.828 1.698-3.005.403-1.19.604-2.529.604-4.019zm11.711-5.69v12.244c0 1.177.27 2.091.811 2.742.553.639 1.377.958 2.471.958.805 0 1.559-.175 2.264-.526a8.098 8.098 0 001.999-1.483V52.528h4.66v19.268h-2.849c-.603 0-.999-.281-1.188-.845l-.321-1.54c-.402.4-.817.77-1.245 1.108a8.106 8.106 0 01-1.377.845 7.37 7.37 0 01-1.566.526 7.395 7.395 0 01-1.792.207c-1.056 0-1.993-.175-2.811-.526a5.72 5.72 0 01-2.037-1.521 6.746 6.746 0 01-1.264-2.31c-.277-.902-.415-1.89-.415-2.968V52.528h4.66zm20.631 0v19.268h-4.66V52.528h4.66zm.698-5.615c0 .4-.082.776-.246 1.126a2.984 2.984 0 01-.66.92 3.124 3.124 0 01-.943.64c-.365.15-.755.224-1.17.224a3 3 0 01-1.151-.225 3.2 3.2 0 01-.924-.638 3.178 3.178 0 01-.641-.92 2.819 2.819 0 01-.227-1.127c0-.414.076-.802.227-1.165.163-.363.377-.676.641-.939a2.92 2.92 0 01.924-.62 2.796 2.796 0 011.151-.244c.415 0 .805.082 1.17.244.365.15.679.357.943.62.277.263.497.576.66.94.164.362.246.75.246 1.164zm16.674 9.69a2.149 2.149 0 01-.416.413c-.126.1-.313.15-.565.15-.239 0-.472-.068-.698-.206a12.72 12.72 0 00-.811-.488 5.3 5.3 0 00-1.132-.489c-.428-.15-.962-.225-1.604-.225-.817 0-1.534.15-2.15.45a4.062 4.062 0 00-1.547 1.259c-.403.55-.705 1.22-.906 2.01-.201.776-.301 1.658-.301 2.647 0 1.027.106 1.941.32 2.742.227.802.547 1.478.962 2.029.415.538.918.951 1.509 1.24.592.275 1.258.412 2 .412s1.339-.087 1.792-.263a6.308 6.308 0 001.17-.6c.314-.226.585-.426.811-.602.239-.187.503-.281.792-.281.377 0 .66.144.849.432l1.339 1.69a8.63 8.63 0 01-1.678 1.521 9.72 9.72 0 01-1.887.977 9.746 9.746 0 01-1.999.507c-.692.1-1.378.15-2.057.15a8.72 8.72 0 01-3.376-.657 8.092 8.092 0 01-2.774-1.953c-.779-.852-1.402-1.89-1.867-3.118-.453-1.24-.679-2.648-.679-4.226 0-1.414.201-2.723.603-3.925.415-1.214 1.019-2.26 1.811-3.136.793-.889 1.774-1.584 2.943-2.085 1.17-.5 2.516-.75 4.037-.75 1.447 0 2.711.23 3.792.694a9.252 9.252 0 012.943 1.99l-1.226 1.691zm7.587-12.714V59.87h.866c.315 0 .561-.044.737-.132.176-.087.364-.25.565-.488l4.811-5.916c.214-.25.441-.444.679-.582.238-.15.553-.225.943-.225h4.264l-6.019 7.155a9.13 9.13 0 01-.66.733c-.225.212-.471.4-.735.563.264.188.497.407.698.657.2.25.403.52.603.808l6.453 9.352h-4.208c-.364 0-.673-.062-.924-.188-.252-.125-.478-.338-.679-.638l-4.924-7.306c-.188-.288-.377-.475-.565-.563-.189-.087-.472-.131-.849-.131h-1.056v8.826h-4.66V43.89h4.66zm17.515.751c.226 0 .414.013.566.038a.98.98 0 01.396.112c.125.05.245.132.358.245.114.1.24.237.377.413l14.319 18.16a23.13 23.13 0 01-.113-1.277c-.013-.425-.019-.82-.019-1.183V44.64h4.471v27.156h-2.622c-.403 0-.737-.062-1.001-.188-.263-.125-.521-.35-.773-.676l-14.262-18.085c.039.4.063.801.076 1.202.025.388.038.745.038 1.07v16.677h-4.471V44.64h2.66zm32.348 7.587c1.447 0 2.755.232 3.925.695 1.181.463 2.188 1.12 3.018 1.972.83.852 1.471 1.89 1.924 3.118.453 1.227.679 2.597.679 4.112 0 1.528-.226 2.905-.679 4.132-.453 1.227-1.094 2.272-1.924 3.136-.83.864-1.837 1.528-3.018 1.991-1.17.463-2.478.695-3.925.695-1.446 0-2.76-.232-3.942-.695a8.538 8.538 0 01-3.038-1.99c-.829-.865-1.477-1.91-1.942-3.137-.452-1.227-.679-2.604-.679-4.132 0-1.515.227-2.885.679-4.112.465-1.227 1.113-2.267 1.942-3.118a8.666 8.666 0 013.038-1.972c1.182-.463 2.496-.695 3.942-.695zm0 16.283c1.611 0 2.799-.539 3.566-1.615.78-1.077 1.17-2.655 1.17-4.733s-.39-3.662-1.17-4.751c-.767-1.09-1.955-1.634-3.566-1.634-1.634 0-2.841.55-3.621 1.652-.78 1.09-1.17 2.667-1.17 4.733s.39 3.643 1.17 4.733c.78 1.076 1.987 1.615 3.621 1.615zm25.291 3.286c-.604 0-1-.281-1.187-.845l-.379-1.859c-.401.45-.823.858-1.264 1.22a7.793 7.793 0 01-1.433.94 6.9 6.9 0 01-1.64.6c-.58.15-1.208.226-1.887.226-1.057 0-2.025-.219-2.906-.657a6.587 6.587 0 01-2.282-1.897c-.629-.839-1.12-1.872-1.472-3.099-.34-1.227-.509-2.629-.509-4.206 0-1.428.195-2.755.585-3.982.389-1.227.949-2.291 1.679-3.193a7.721 7.721 0 012.621-2.103c1.02-.513 2.164-.77 3.434-.77 1.082 0 2.006.175 2.773.526a7.118 7.118 0 012.057 1.37V43.89h4.658v27.907h-2.848zm-6.205-3.399c.967 0 1.791-.2 2.47-.6.68-.401 1.321-.971 1.925-1.71v-8.639c-.529-.638-1.108-1.09-1.736-1.352a5.045 5.045 0 00-1.999-.394 4.59 4.59 0 00-1.924.394 3.806 3.806 0 00-1.453 1.202c-.39.526-.692 1.202-.906 2.028-.214.814-.321 1.778-.321 2.892 0 1.127.088 2.085.265 2.874.187.776.452 1.415.791 1.915.34.489.756.846 1.245 1.07.491.214 1.039.32 1.643.32zm20.593-16.17c1.22 0 2.34.194 3.358.583a7.29 7.29 0 012.659 1.709c.743.738 1.322 1.652 1.736 2.741.415 1.077.623 2.31.623 3.7 0 .35-.019.645-.056.883a1.28 1.28 0 01-.171.544.698.698 0 01-.321.282 1.56 1.56 0 01-.527.075h-11.961c.138 1.978.673 3.43 1.605 4.357.93.927 2.162 1.39 3.696 1.39.755 0 1.402-.088 1.944-.263a8.729 8.729 0 001.433-.582c.415-.213.774-.407 1.076-.582.314-.176.615-.263.904-.263.19 0 .353.037.491.112.139.076.258.182.359.32l1.357 1.69a7.95 7.95 0 01-1.734 1.521c-.642.4-1.315.726-2.018.977-.692.238-1.403.407-2.132.507-.718.1-1.416.15-2.095.15-1.346 0-2.597-.219-3.754-.657a8.595 8.595 0 01-3.019-1.972c-.855-.877-1.526-1.953-2.018-3.23-.491-1.29-.735-2.78-.735-4.47 0-1.315.214-2.548.642-3.7.427-1.164 1.037-2.172 1.83-3.023a8.709 8.709 0 012.923-2.048c1.157-.5 2.459-.75 3.905-.75zm.095 3.325c-1.359 0-2.421.381-3.189 1.145-.767.764-1.257 1.847-1.471 3.249h8.753c0-.601-.082-1.164-.245-1.69a3.877 3.877 0 00-.756-1.409 3.474 3.474 0 00-1.282-.939c-.516-.238-1.12-.357-1.81-.357z"/><path fill="#40C6F0" d="M92.595 79.973c-11.186 0-20.239-8.9-20.239-19.896 0-10.997 9.053-19.896 20.239-19.896 14.697 0 24.3 14.82 18.62 27.78l-12.941-4.162 18.276 17.967c5.37-5.718 8.64-13.331 8.64-21.723C125.19 42.347 110.596 28 92.595 28 74.594 28 60 42.347 60 60.043c0 17.697 14.594 32.043 32.595 32.043 6.298 0 12.15-1.76 17.14-4.77L124.226 93l-18.277-18.001c-3.579 3.079-8.26 4.974-13.354 4.974z"/></g><defs><linearGradient id="paint0_linear" x1="358" x2="1348.5" y1="60" y2="60" gradientUnits="userSpaceOnUse"><stop stop-color="#11151A"/><stop offset=".428" stop-color="#11151A" stop-opacity=".45"/><stop offset=".894" stop-color="#40C6F0"/></linearGradient><clipPath id="clip0"><path fill="#fff" d="M0 0h251.333v65H0z" transform="translate(60 28)"/></clipPath><filter id="filter0_d" width="889" height="524" x="342" y="-199" color-interpolation-filters="sRGB" filterUnits="userSpaceOnUse"><feFlood flood-opacity="0" result="BackgroundImageFix"/><feColorMatrix in="SourceAlpha" result="hardAlpha" values="0 0 0 0 0 0 0 0 0 0 0 0 0 0 0 0 0 0 127 0"/><feOffset dx="-6" dy="3"/><feGaussianBlur stdDeviation="5"/><feColorMatrix values="0 0 0 0 0.733333 0 0 0 0 0.733333 0 0 0 0 0.733333 0 0 0 0.5 0"/><feBlend in2="BackgroundImageFix" result="effect1_dropShadow"/><feBlend in="SourceGraphic" in2="effect1_dropShadow" result="shape"/></filter></defs></svg>