<svg xmlns="http://www.w3.org/2000/svg" fill="none" viewBox="0 0 20 21"><path fill="#424242" fill-rule="evenodd" d="M14.81 3.607a8.001 8.001 0 00-12.806 6.13 7.997 7.997 0 006.815 8.172 8.001 8.001 0 004.478-.623l-.173-.173a1 1 0 111.414-1.414l3.595 3.594a1 1 0 11-1.414 1.414l-1.931-1.93A10.002 10.002 0 01.005 9.67 9.998 9.998 0 019.175.034a10.001 10.001 0 0110.63 7.997 9.996 9.996 0 01-.815 6.345l.426.426a1 1 0 11-1.414 1.414l-3.391-3.39a1 1 0 111.414-1.414l1.446 1.446a7.996 7.996 0 00-2.661-9.25z" clip-rule="evenodd"/></svg>