<svg xmlns="http://www.w3.org/2000/svg" viewBox="0 0 24 24"><path fill-rule="evenodd" d="M13.752 21.602l9.95-9.97c.39-.39.39-1.024 0-1.415a.998.998 0 00-1.412 0l-6.252 6.264a8.033 8.033 0 00-.604-3.716l4.207-.97c.752-.174 1.027-1.138.483-1.684l-1.179-1.18 1.933-1.936c.39-.39.39-1.024 0-1.415a.998.998 0 00-1.413 0l-2.64 2.643a1.003 1.003 0 000 1.416l.61.61-5.4 1.246 1.184-5.468.59.59a.998.998 0 001.413 0l4.902-4.909c.39-.39.39-1.024 0-1.415a.998.998 0 00-1.413 0l-4.195 4.202-1.18-1.18c-.548-.55-1.518-.264-1.682.495l-.98 4.524a8.015 8.015 0 00-3.181-.399l1.794-1.797c.39-.39.39-1.025 0-1.415a.998.998 0 00-1.413 0L2.39 10.217a8.148 8.148 0 00-2.172 7.637 7.914 7.914 0 002.116 3.807 7.895 7.895 0 003.935 2.149 8.112 8.112 0 007.483-2.208zm-3.504-11.295a6.062 6.062 0 00-6.45 1.4 6.088 6.088 0 00-1.619 5.75 5.971 5.971 0 001.572 2.781 5.955 5.955 0 003.018 1.63 6.067 6.067 0 005.502-1.674 6.078 6.078 0 001.176-6.97l-2.497.576c-.702.162-1.353-.484-1.2-1.187l.498-2.306zm-3.2 7.99V16.96H5.711c-1.29 0-1.29-2 0-2h1.337v-1.337c0-1.29 2-1.29 2 0v1.337h1.337c1.29 0 1.29 2 0 2H9.048v1.337c0 1.29-2 1.29-2 0z" clip-rule="evenodd"/></svg>