<svg xmlns="http://www.w3.org/2000/svg" fill="none" viewBox="0 0 29 24"><path fill="#55B6E2" d="M28.688 11.72c0-.966-.334-1.785-1.004-2.455-.67-.67-1.489-1.005-2.456-1.005-.744 0-1.451.26-2.121.782-2.084-1.34-4.614-2.084-7.59-2.233l1.45-4.8 4.13 1.005c.075.744.373 1.377.894 1.898.52.52 1.172.781 1.953.781a2.74 2.74 0 002.01-.837 2.74 2.74 0 00.837-2.01 2.74 2.74 0 00-.838-2.009C25.395.28 24.707 0 23.888 0a2.83 2.83 0 00-1.45.39c-.447.261-.82.652-1.117 1.173L16.633.447a.87.87 0 00-.614 0c-.186.074-.317.223-.391.446l-1.786 5.916c-3.126 0-5.88.744-8.26 2.233-.596-.521-1.322-.782-2.177-.782-.856 0-1.638.354-2.345 1.06-.707.708-1.06 1.508-1.06 2.4 0 .596.149 1.136.447 1.62.297.483.67.874 1.116 1.172-.075.223-.112.52-.112.893 0 1.19.335 2.325 1.005 3.404.67 1.08 1.618 2.01 2.846 2.791 1.228.781 2.605 1.377 4.13 1.786 1.526.41 3.145.614 4.856.614 1.712 0 3.33-.205 4.856-.614 1.526-.41 2.903-1.005 4.13-1.786 1.228-.781 2.177-1.712 2.847-2.79.67-1.08 1.005-2.215 1.005-3.405 0-.298-.038-.558-.112-.782.52-.297.93-.707 1.228-1.228a3.32 3.32 0 00.446-1.674zm-4.8-10.269c.372 0 .689.13.95.39.26.261.39.578.39.95s-.13.688-.39.949c-.261.26-.559.39-.894.39-.335 0-.632-.13-.893-.39-.26-.26-.39-.577-.39-.95 0-.371.13-.688.39-.948s.54-.39.837-.39zM8.26 13.841c0-.595.187-1.078.559-1.45a1.827 1.827 0 011.34-.558c.52 0 .967.186 1.339.558.372.372.558.837.558 1.395s-.186 1.023-.558 1.395a1.827 1.827 0 01-1.34.559c-.52 0-.967-.187-1.34-.559a1.827 1.827 0 01-.558-1.34zm10.828 5.694c-.967.967-2.53 1.451-4.688 1.451s-3.72-.484-4.688-1.451a.757.757 0 01-.224-.558c0-.224.075-.41.224-.558a.757.757 0 01.558-.224c.223 0 .41.075.558.224.67.67 1.86 1.004 3.572 1.004s2.902-.335 3.572-1.004a.757.757 0 01.558-.224c.223 0 .41.075.558.224a.757.757 0 01.224.558.758.758 0 01-.224.558zm-.446-3.796c-.521 0-.986-.186-1.395-.558-.41-.372-.614-.818-.614-1.34 0-.52.204-.985.614-1.394.409-.41.874-.614 1.395-.614.52 0 .967.204 1.34.614.372.409.558.874.558 1.395 0 .52-.186.967-.559 1.34a1.827 1.827 0 01-1.34.557z"/></svg>