<svg xmlns="http://www.w3.org/2000/svg" viewBox="0 0 96 96"><g data-name="Layer 2"><g data-name="Layer 1"><circle cx="48" cy="48" r="48" fill="#0e0e21"/><path fill="#fff" d="M74.79 59.15l-5.71-9.68a.73.73 0 00-1-.25l-3.72 2.42a.75.75 0 00-.24 1l3.27 5.53a.38.38 0 01-.12.51l-19 12.37a.36.36 0 01-.4 0l-19-12.37a.38.38 0 01-.12-.51l3.26-5.53a.76.76 0 00-.23-1L28 49.22a.74.74 0 00-1 .25l-5.71 9.68a1.5 1.5 0 00.47 2l25.45 16.61a1.44 1.44 0 001.59 0l25.53-16.59a1.51 1.51 0 00.46-2.02z"/><path fill="#2ae7a8" d="M30.93 44.07l3.72 2.42a.73.73 0 001-.25l12-20.36a.37.37 0 01.63 0l12 20.36a.74.74 0 001 .25L65 44.07a.75.75 0 00.23-1L51 18.73a1.44 1.44 0 00-1.31-.73h-3.38a1.46 1.46 0 00-1.27.73L30.69 43.06a.75.75 0 00.24 1.01z"/></g></g></svg>