<svg xmlns="http://www.w3.org/2000/svg" viewBox="0 0 24 24"><path fill-rule="evenodd" d="M10.242 2.394l-9.95 9.97c-.39.39-.39 1.024 0 1.415a.998.998 0 001.413 0l6.253-6.264a8.033 8.033 0 00.604 3.716l-4.208.971a1 1 0 00-.483 1.683l1.18 1.18-1.934 1.936a1.003 1.003 0 000 1.416.998.998 0 001.414 0l2.639-2.644c.39-.39.39-1.024 0-1.415l-.61-.61 5.4-1.247-1.184 5.469-.59-.591a.998.998 0 00-1.413 0l-4.902 4.91a1 1 0 000 1.414.998.998 0 001.414 0l4.195-4.201 1.178 1.18a.998.998 0 001.683-.495l.98-4.525c1.025.348 2.11.48 3.181.4l-1.793 1.796a1.003 1.003 0 000 1.416.998.998 0 001.412 0l5.484-5.495a8.148 8.148 0 002.222-7.411 7.915 7.915 0 00-2.165-4.032A7.894 7.894 0 0017.68.177a8.112 8.112 0 00-7.438 2.217zm3.505 11.295a6.062 6.062 0 006.451-1.4 6.09 6.09 0 001.658-5.58 5.974 5.974 0 00-1.612-2.95 5.957 5.957 0 00-3.05-1.638 6.067 6.067 0 00-5.47 1.681 6.077 6.077 0 00-1.175 6.97l2.496-.575a.998.998 0 011.2 1.187l-.498 2.305zm-1.139-5.653a1 1 0 011-1h4.674a1 1 0 110 2h-4.674a1 1 0 01-1-1z" clip-rule="evenodd"/></svg>