<svg xmlns="http://www.w3.org/2000/svg" fill="none" viewBox="0 0 24 25"><path d="M14.164 0c.968 0 1.853.693 1.987 1.699l.247 1.68c.027.187.145.373.38.506.245.14.487.147.632.09l1.685-.659.012-.004c.894-.337 1.971.01 2.457.864l2.155 3.631a1.969 1.969 0 01-.491 2.576l-.006.004-1.415 1.077c-.113.087-.218.268-.218.538 0 .271.105.453.22.54l1.415 1.078.006.004c.79.61.986 1.686.505 2.544l-.012.021-2.154 3.631c-.474.83-1.482 1.224-2.451.877a.904.904 0 01-.027-.01l-1.675-.655c-.154-.06-.386-.053-.627.084-.242.137-.365.333-.39.508l-.247 1.673c-.134 1.01-1.015 1.707-1.989 1.707h-4.33c-.966 0-1.853-.692-1.987-1.698l-.247-1.68c-.028-.188-.146-.373-.38-.506-.246-.14-.488-.147-.634-.09l-1.684.658-.01.004c-.23.087-.473.133-.723.133a2 2 0 01-1.736-.996L.268 16.18l-.011-.02a1.973 1.973 0 01.512-2.537l.006-.004 1.414-1.077c.115-.087.22-.269.22-.54 0-.27-.106-.452-.22-.539L.773 10.384.77 10.38a1.974 1.974 0 01-.496-2.567l2.155-3.63c.475-.833 1.49-1.222 2.452-.877l.026.01 1.675.655c.153.06.385.053.627-.085.243-.138.366-.333.391-.509l.247-1.672C7.98.697 8.863 0 9.834 0h4.33zm.255 3.67L14.174 2h-4.34a.05.05 0 00-.01.001L9.578 3.67c-.13.883-.696 1.567-1.383 1.957-.663.376-1.527.526-2.343.208l-1.656-.648a.105.105 0 00-.031-.006H4.16l-.008.015L2.008 8.81l1.393 1.06c.707.54 1.007 1.369 1.007 2.131 0 .763-.3 1.592-1.007 2.131l-1.393 1.06 2.15 3.626.003.006h.013l.007-.001 1.676-.656c.82-.32 1.697-.158 2.352.215.697.397 1.24 1.08 1.368 1.952l.246 1.67a.057.057 0 00.01 0h4.34l.246-1.671c.13-.882.696-1.567 1.383-1.957.664-.377 1.527-.526 2.342-.207l1.656.647c.018.006.03.007.033.007h.002l.009-.015 2.145-3.615-1.392-1.06c-.708-.54-1.008-1.368-1.008-2.13 0-.763.3-1.591 1.007-2.13l1.394-1.061-2.15-3.622-.003-.002a.075.075 0 00-.024-.004h-.003l-1.671.654c-.82.32-1.695.158-2.35-.215-.697-.396-1.241-1.08-1.37-1.953zM15.456 12A3.46 3.46 0 0012 8.547a3.46 3.46 0 00-3.455 3.455A3.46 3.46 0 0012 15.457 3.46 3.46 0 0015.456 12zM12 6.547a5.46 5.46 0 015.455 5.455A5.46 5.46 0 0112 17.456 5.46 5.46 0 016.546 12a5.46 5.46 0 015.455-5.455z" clip-rule="evenodd"/></svg>