<svg xmlns="http://www.w3.org/2000/svg" fill="none" viewBox="0 0 25 25"><path fill="#163150" fill-rule="evenodd" d="M8.717 10.539a1 1 0 00-.287.593l-.432 3.763a1 1 0 001.107 1.108l3.763-.433a1 1 0 00.593-.286l2.038-2.036a.998.998 0 00.027-.027l1.066-1.065 5.124-5.125c.166.29.26.627.26.985v7.993a1.997 1.997 0 01-1.997 1.997H7.62c-.824 0-1.628.254-2.302.73L2 21.072V8.016c0-1.103.894-1.997 1.997-1.997h9.242L11.78 7.477l-3.064 3.062zm6.522-6.52H3.997A3.997 3.997 0 000 8.016v14.986a1 1 0 001.576.817L6.47 20.37a1.997 1.997 0 011.15-.364h12.36a3.997 3.997 0 003.996-3.997V8.016a3.99 3.99 0 00-.823-2.43A3.356 3.356 0 0018.275.984L15.24 4.019zm-.639 7.3l.578-.578 6.427-6.428a1.355 1.355 0 00-1.916-1.916l-6.494 6.494-.53.53c.226.479.482.83.778 1.116.3.288.67.539 1.157.782zm-2.546.657a5.42 5.42 0 01-.864-1.081l-.813.812-.248 2.165 2.165-.249.833-.832a5.971 5.971 0 01-1.073-.815z" clip-rule="evenodd"/></svg>