<svg xmlns="http://www.w3.org/2000/svg" fill="none" viewBox="0 0 25 24"><path fill="#fff" fill-rule="evenodd" d="M6.148 3.224c1.521-1.632 3.956-1.632 5.477 0l1.041 1.118a1 1 0 001.463 0l1.041-1.118c1.521-1.632 3.956-1.632 5.477 0 1.556 1.67 1.559 4.403.009 6.077l-5.563 5.656c-.366-.24-.792-.4-1.257-.451l-3.244-.355-4.439-4.836-.005-.005c-1.559-1.673-1.559-4.413 0-6.086zm1.684 10.878l-3.15-3.431c-2.272-2.442-2.27-6.37.003-8.81 2.312-2.481 6.092-2.481 8.404 0l.309.332.309-.332c2.312-2.481 6.092-2.481 8.404 0 2.274 2.441 2.274 6.371 0 8.812l-.005.005a.633.633 0 01-.014.015l-4.687 4.765 3.559-1.509a2.9 2.9 0 012.675 5.127l-6.402 4.01a5.993 5.993 0 01-3.729.89l-5.538-.507-3.865.485c-.453.057-.886-.2-1.055-.624l-1.983-4.988a1 1 0 01.466-1.255l4.612-2.405a5.992 5.992 0 011.687-.58zm5.843 6.08a2.844 2.844 0 002.597-2.07l5.475-2.321a.9.9 0 01.829 1.59l-6.402 4.01a3.995 3.995 0 01-2.486.593l-5.646-.517a1.003 1.003 0 00-.216.003l-3.204.403-1.363-3.43 3.812-1.987a3.996 3.996 0 012.281-.429l4.27.467a.85.85 0 01-.049 1.69l-2.04.102a.999.999 0 00-.948 1.048c.028.552.498.977 1.05.95l2.04-.101z" clip-rule="evenodd"/></svg>