<svg xmlns="http://www.w3.org/2000/svg" viewBox="0 0 24 24"><path fill-rule="evenodd" d="M13.24 10.971a6.83 6.83 0 01.194 1.726l2.468-.299a.999.999 0 01.925 1.585l-1.203 1.637c2.704 1.016 5.802-.461 6.313-3.586.429-2.626-1.324-5.084-3.884-5.511a4.634 4.634 0 00-1.609.012l.36 2.915a1.001 1.001 0 01-.844 1.113l-2.72.408zM7.49 7.87c2.417.403 4.113 2.615 3.934 5.07l-3.844.465a1 1 0 00-.875 1.088l.277 2.897c-.34.02-.688.002-1.038-.057-2.56-.427-4.31-2.883-3.882-5.508.43-2.625 2.87-4.382 5.429-3.955zM5.622 19.307c.523.087 1.043.11 1.551.076l.354 3.71a1 1 0 001.781.523l1.414-1.801c2.491 1.114 5.153 1.055 7.296.057 2.264-1.055 3.932-3.16 4.143-5.934.874-.906 1.508-2.11 1.749-3.58.603-3.691-1.857-7.196-5.527-7.808a6.634 6.634 0 00-2.184-.002L15.744.876a.998.998 0 00-1.794-.47l-1.362 1.839c-2.536-1.055-5.228-.96-7.37.073-2.348 1.133-4.013 3.396-3.991 6.37A6.818 6.818 0 00.09 11.497c-.604 3.691 1.859 7.198 5.53 7.81zM3.651 6.556c.484-1.082 1.347-1.912 2.433-2.436 1.764-.851 4.134-.89 6.36.264a1 1 0 001.264-.294l.36-.486.633 5.126-2.245.336a6.69 6.69 0 00-4.642-3.17 6.615 6.615 0 00-4.163.66zM17.387 8.74a.996.996 0 011.266-.622c1.47.502 2.378 2.02 2.12 3.594a3.239 3.239 0 01-1.763 2.392 1 1 0 01-1.338-.459 1 1 0 01.454-1.338c.342-.168.607-.5.676-.924.102-.623-.26-1.19-.79-1.372a1.004 1.004 0 01-.625-1.27zm2.352 8.767a6.986 6.986 0 01-6.156-.686 1 1 0 01-.268-1.435l.534-.726-5.062.612.491 5.142.374-.476a1 1 0 011.27-.257c2.166 1.201 4.488 1.198 6.251.377 1.142-.532 2.057-1.407 2.566-2.552zm-14.052-7.15a.999.999 0 10-1.446 1.38l.79.828-.682.714a1 1 0 001.445 1.381l2.786-2.92a1 1 0 00-1.446-1.38l-.722.757-.725-.76z" clip-rule="evenodd"/></svg>