<svg xmlns="http://www.w3.org/2000/svg" width="45" height="45" fill="none"><path fill="#FFD166" fill-rule="evenodd" d="M0 12.273C0 5.495 5.495 0 12.273 0h20.454C39.505 0 45 5.495 45 12.273v20.454C45 39.505 39.505 45 32.727 45H12.273C5.495 45 0 39.505 0 32.727V12.273z" clip-rule="evenodd"/><path stroke="#fff" stroke-linecap="round" stroke-linejoin="round" stroke-width="1.7" d="M23.569 26.322c.07-.436.104-.877.103-1.319a8.052 8.052 0 10-8.476 8.04"/><path stroke="#fff" stroke-linecap="round" stroke-linejoin="round" stroke-width="1.7" d="M25.85 13.192V8.72a.663.663 0 00-1.174-.418l-2.367 2.796C16.105 7.937 6.778 12.774 8.48 21.335m6.31 5.725l.784 11.56a.664.664 0 001.163.439l2.358-2.776c8.493 3.09 15.2-2.713 14.286-8.306m-21.558-2.405c-.601-4.21 5.316-5.923 7.21-2.343m14.292-1.795l-.647-4.407a.905.905 0 00-1.452-.565l-2.744 2.156-.753.592a.894.894 0 00.224 1.53l.92.365 3.21 1.275a.893.893 0 001.242-.946z"/><circle cx="30.843" cy="19.628" r="8.069" stroke="#fff" stroke-linecap="round" stroke-linejoin="round" stroke-width="1.7"/></svg>