<svg xmlns="http://www.w3.org/2000/svg" width="1200" height="120" fill="none"><path fill="#fff" d="M0 0h1200v120H0z"/><mask id="a" width="1200" height="120" x="0" y="0" maskUnits="userSpaceOnUse"><path fill="#fff" d="M0 0h1200v120H0z"/></mask><g filter="url(#filter0_d)" mask="url(#a)"><ellipse cx="843.5" cy="60" fill="url(#paint0_linear)" rx="434.5" ry="252"/></g><path fill="#fff" d="M493.723 50.383c-.165.33-.36.562-.585.697-.21.135-.465.203-.765.203s-.638-.113-1.013-.338c-.375-.24-.817-.502-1.327-.788-.51-.284-1.11-.54-1.8-.764-.675-.24-1.478-.36-2.408-.36-.84 0-1.575.105-2.205.314a4.637 4.637 0 00-1.575.833c-.42.36-.735.795-.945 1.305a4.164 4.164 0 00-.315 1.642c0 .765.21 1.403.63 1.913.435.51 1.005.945 1.71 1.305.705.36 1.508.683 2.408.968.9.284 1.815.592 2.745.922.945.315 1.867.69 2.767 1.125.9.42 1.703.96 2.408 1.62.705.645 1.267 1.44 1.687 2.385.435.945.653 2.092.653 3.443 0 1.47-.255 2.85-.765 4.14a9.456 9.456 0 01-2.205 3.352c-.96.945-2.138 1.695-3.533 2.25-1.395.54-2.992.81-4.792.81a14.92 14.92 0 01-3.06-.315 15.784 15.784 0 01-2.903-.855 15.667 15.667 0 01-2.587-1.35 12.952 12.952 0 01-2.138-1.755l1.755-2.902c.165-.21.36-.383.585-.518.24-.15.503-.225.788-.225.375 0 .78.157 1.215.472.435.3.945.638 1.53 1.013.6.375 1.297.72 2.092 1.035.81.3 1.778.45 2.903.45 1.725 0 3.06-.405 4.005-1.215.945-.825 1.417-2.002 1.417-3.532 0-.855-.217-1.553-.652-2.093-.42-.54-.983-.99-1.688-1.35a12.197 12.197 0 00-2.407-.945c-.9-.255-1.815-.532-2.745-.832-.93-.3-1.845-.66-2.745-1.08a8.895 8.895 0 01-2.408-1.643c-.705-.675-1.275-1.515-1.71-2.52-.42-1.02-.63-2.273-.63-3.758 0-1.184.233-2.34.697-3.465a9.107 9.107 0 012.071-2.992c.915-.87 2.032-1.568 3.352-2.093 1.32-.525 2.828-.787 4.523-.787 1.92 0 3.69.3 5.31.9 1.62.6 3 1.44 4.14 2.52l-1.485 2.858zm3.56 3.532h4.41c.42 0 .773.098 1.058.293.285.195.465.442.54.742l3.307 12.33c.18.675.323 1.335.428 1.98.12.645.232 1.29.337 1.935.165-.645.338-1.29.518-1.935.195-.645.397-1.305.607-1.98l3.825-12.375c.09-.3.27-.547.54-.742.27-.195.585-.293.945-.293h2.453c.405 0 .742.098 1.012.293.27.195.45.442.54.742l3.78 12.6c.195.645.368 1.275.518 1.89.165.6.322 1.208.472 1.823.105-.645.218-1.29.338-1.936.135-.644.3-1.312.495-2.002l3.42-12.33c.075-.3.255-.547.54-.742a1.71 1.71 0 01.99-.293h4.207L525.251 77h-4.478c-.48 0-.825-.33-1.035-.99l-4.162-13.343a42.84 42.84 0 01-.383-1.305 23.15 23.15 0 01-.27-1.327c-.09.45-.187.9-.292 1.35-.105.435-.225.878-.36 1.328l-4.208 13.297c-.21.66-.615.99-1.215.99h-4.252l-7.313-23.085zM553.782 77h-2.498c-.525 0-.937-.075-1.237-.225-.3-.165-.525-.488-.675-.968l-.495-1.642c-.585.525-1.163.99-1.733 1.395-.555.39-1.132.72-1.732.99-.6.27-1.238.472-1.913.608-.675.135-1.425.202-2.25.202-.975 0-1.875-.127-2.7-.382a6.067 6.067 0 01-2.137-1.193 5.43 5.43 0 01-1.373-1.957c-.33-.78-.495-1.688-.495-2.723 0-.87.225-1.725.675-2.565.465-.855 1.23-1.62 2.295-2.295 1.065-.69 2.483-1.26 4.253-1.71 1.77-.45 3.967-.705 6.592-.765v-1.35c0-1.545-.33-2.685-.99-3.42-.645-.75-1.59-1.125-2.835-1.125-.9 0-1.65.105-2.25.315-.6.21-1.125.45-1.575.72-.435.255-.84.488-1.215.698-.375.21-.787.315-1.237.315a1.61 1.61 0 01-.968-.293 2.3 2.3 0 01-.652-.72l-1.013-1.777c2.655-2.43 5.858-3.646 9.608-3.646 1.35 0 2.55.225 3.6.675 1.065.435 1.965 1.05 2.7 1.846.735.78 1.29 1.717 1.665 2.812.39 1.095.585 2.295.585 3.6V77zm-10.8-3.465c.57 0 1.095-.052 1.575-.157.48-.106.93-.263 1.35-.473.435-.21.847-.465 1.237-.765.405-.315.81-.683 1.215-1.103v-3.892c-1.62.075-2.977.218-4.072.428-1.08.195-1.95.45-2.61.765-.66.315-1.133.682-1.418 1.102-.27.42-.405.877-.405 1.373 0 .974.285 1.672.855 2.092.585.42 1.343.63 2.273.63zm16.264 11.002V53.915h3.398c.36 0 .667.083.922.248.255.165.42.42.495.765l.45 2.137a11.716 11.716 0 013.195-2.587c1.215-.66 2.633-.99 4.253-.99 1.26 0 2.407.262 3.442.787 1.05.525 1.95 1.29 2.7 2.295.765.99 1.35 2.22 1.755 3.69.42 1.455.63 3.128.63 5.018 0 1.724-.232 3.322-.697 4.792-.465 1.47-1.133 2.745-2.003 3.825a9.175 9.175 0 01-3.127 2.543c-1.215.6-2.58.9-4.095.9-1.305 0-2.415-.195-3.33-.585-.9-.406-1.71-.96-2.43-1.665v9.45h-5.558zm10.8-26.662c-1.155 0-2.145.248-2.97.742-.81.48-1.567 1.163-2.272 2.048v10.35c.63.78 1.312 1.328 2.047 1.642.75.3 1.553.45 2.408.45.84 0 1.597-.157 2.272-.472a4.33 4.33 0 001.733-1.44c.48-.645.847-1.455 1.102-2.43.255-.99.383-2.153.383-3.487 0-1.35-.113-2.49-.338-3.42-.21-.945-.517-1.71-.922-2.295-.405-.586-.9-1.013-1.485-1.283-.57-.27-1.223-.405-1.958-.405zm31.536 25.47c-.165.39-.383.683-.653.877-.255.21-.652.316-1.192.316h-4.14l4.32-9.248-9.338-21.375h4.86c.45 0 .795.105 1.035.315.24.21.42.45.54.72l4.928 11.97c.165.39.307.795.427 1.215.12.42.225.84.315 1.26.12-.435.248-.855.383-1.26.15-.405.307-.818.472-1.238l4.635-11.947c.12-.3.315-.547.585-.742.285-.195.6-.293.945-.293h4.455l-12.577 29.43zm24.912-29.79c1.725 0 3.285.278 4.68.833 1.41.555 2.61 1.342 3.6 2.362.99 1.02 1.755 2.265 2.295 3.735.54 1.47.81 3.112.81 4.927 0 1.83-.27 3.48-.81 4.95-.54 1.47-1.305 2.723-2.295 3.758-.99 1.035-2.19 1.83-3.6 2.385-1.395.555-2.955.833-4.68.833-1.725 0-3.293-.278-4.703-.833-1.41-.555-2.617-1.35-3.622-2.385-.99-1.035-1.763-2.288-2.318-3.758-.54-1.47-.81-3.12-.81-4.95 0-1.815.27-3.457.81-4.927.555-1.47 1.328-2.715 2.318-3.735 1.005-1.02 2.212-1.807 3.622-2.362 1.41-.555 2.978-.833 4.703-.833zm0 19.508c1.92 0 3.337-.645 4.252-1.936.93-1.29 1.395-3.18 1.395-5.67 0-2.49-.465-4.387-1.395-5.692-.915-1.305-2.332-1.958-4.252-1.958-1.95 0-3.39.66-4.32 1.98-.93 1.306-1.395 3.196-1.395 5.67 0 2.476.465 4.366 1.395 5.67.93 1.29 2.37 1.936 4.32 1.936zM647.3 53.915v14.67c0 1.41.323 2.505.968 3.285.66.765 1.642 1.147 2.947 1.147.96 0 1.86-.21 2.7-.63.84-.434 1.635-1.027 2.385-1.777V53.915h5.558V77h-3.398c-.72 0-1.192-.338-1.417-1.013l-.383-1.844c-.48.48-.975.922-1.485 1.327a9.66 9.66 0 01-1.642 1.013 8.82 8.82 0 01-1.868.63 8.791 8.791 0 01-2.137.247c-1.26 0-2.378-.21-3.353-.63a6.83 6.83 0 01-2.43-1.823c-.66-.78-1.162-1.702-1.507-2.767-.33-1.08-.495-2.265-.495-3.555v-14.67h5.557zM667.791 77V53.915h3.263c.57 0 .967.105 1.192.315.225.21.375.57.45 1.08l.338 2.79c.825-1.425 1.792-2.55 2.902-3.375a6.108 6.108 0 013.735-1.238c1.14 0 2.085.263 2.835.788l-.72 4.163c-.045.27-.142.465-.292.584-.15.105-.353.158-.608.158-.225 0-.532-.053-.922-.157-.39-.106-.908-.158-1.553-.158-1.155 0-2.145.322-2.97.968-.825.63-1.522 1.56-2.092 2.79V77h-5.558zm45.161 0h-2.498c-.525 0-.937-.075-1.237-.225-.3-.165-.525-.488-.675-.968l-.495-1.642c-.585.525-1.163.99-1.733 1.395-.555.39-1.132.72-1.732.99-.6.27-1.238.472-1.913.608-.675.135-1.425.202-2.25.202-.975 0-1.875-.127-2.7-.382a6.067 6.067 0 01-2.137-1.193 5.43 5.43 0 01-1.373-1.957c-.33-.78-.495-1.688-.495-2.723 0-.87.225-1.725.675-2.565.465-.855 1.23-1.62 2.295-2.295 1.065-.69 2.483-1.26 4.253-1.71 1.77-.45 3.967-.705 6.592-.765v-1.35c0-1.545-.33-2.685-.99-3.42-.645-.75-1.59-1.125-2.835-1.125-.9 0-1.65.105-2.25.315-.6.21-1.125.45-1.575.72-.435.255-.84.488-1.215.698-.375.21-.787.315-1.237.315a1.61 1.61 0 01-.968-.293 2.3 2.3 0 01-.652-.72l-1.013-1.777c2.655-2.43 5.858-3.646 9.608-3.646 1.35 0 2.55.225 3.6.675 1.065.435 1.965 1.05 2.7 1.846.735.78 1.29 1.717 1.665 2.812.39 1.095.585 2.295.585 3.6V77zm-10.8-3.465c.57 0 1.095-.052 1.575-.157.48-.106.93-.263 1.35-.473.435-.21.847-.465 1.237-.765.405-.315.81-.683 1.215-1.103v-3.892c-1.62.075-2.977.218-4.072.428-1.08.195-1.95.45-2.61.765-.66.315-1.133.682-1.418 1.102-.27.42-.405.877-.405 1.373 0 .974.285 1.672.855 2.092.585.42 1.343.63 2.273.63zm29.967-15.12c-.15.24-.308.413-.473.517-.165.09-.375.136-.63.136-.27 0-.562-.075-.877-.225-.3-.15-.653-.316-1.058-.496a8.788 8.788 0 00-1.395-.517c-.51-.15-1.117-.225-1.822-.225-1.095 0-1.958.233-2.588.698-.63.465-.945 1.072-.945 1.822 0 .495.158.915.473 1.26.33.33.757.623 1.282.878.54.255 1.148.487 1.823.697.675.195 1.365.413 2.07.652.705.24 1.395.518 2.07.833.675.3 1.275.69 1.8 1.17.54.465.967 1.028 1.282 1.688.33.66.495 1.454.495 2.385 0 1.11-.202 2.137-.607 3.082a6.884 6.884 0 01-1.778 2.43c-.78.675-1.747 1.207-2.902 1.597-1.14.376-2.453.563-3.938.563-.795 0-1.575-.075-2.34-.225a13.36 13.36 0 01-2.182-.585 12.717 12.717 0 01-1.935-.9 9.608 9.608 0 01-1.553-1.125l1.283-2.115c.165-.255.36-.45.585-.585.225-.135.51-.203.855-.203s.667.098.967.293c.315.195.675.405 1.08.63.405.225.878.435 1.418.63.555.195 1.252.293 2.092.293.66 0 1.223-.076 1.688-.225.48-.165.87-.375 1.17-.63.315-.255.54-.548.675-.878a2.63 2.63 0 00.225-1.058c0-.54-.165-.982-.495-1.327-.315-.345-.743-.645-1.283-.9a11.071 11.071 0 00-1.822-.675c-.675-.21-1.373-.435-2.093-.675a22.476 22.476 0 01-2.092-.832 7.66 7.66 0 01-1.823-1.238 5.779 5.779 0 01-1.282-1.822c-.315-.72-.473-1.59-.473-2.61 0-.945.188-1.846.563-2.7a6.284 6.284 0 011.642-2.228c.735-.645 1.643-1.155 2.723-1.53 1.095-.39 2.355-.585 3.78-.585 1.59 0 3.037.263 4.342.788 1.305.524 2.393 1.214 3.263 2.07l-1.26 2.002zm19.643 0c-.15.24-.307.413-.472.517-.165.09-.375.136-.63.136-.27 0-.563-.075-.878-.225-.3-.15-.652-.316-1.057-.496a8.788 8.788 0 00-1.395-.517c-.51-.15-1.118-.225-1.823-.225-1.095 0-1.957.233-2.587.698-.63.465-.945 1.072-.945 1.822 0 .495.157.915.472 1.26.33.33.758.623 1.283.878.54.255 1.147.487 1.822.697.675.195 1.365.413 2.07.652.705.24 1.395.518 2.07.833.675.3 1.275.69 1.8 1.17.54.465.968 1.028 1.283 1.688.33.66.495 1.454.495 2.385 0 1.11-.203 2.137-.608 3.082a6.881 6.881 0 01-1.777 2.43c-.78.675-1.748 1.207-2.903 1.597-1.14.376-2.452.563-3.937.563-.795 0-1.575-.075-2.34-.225-.75-.135-1.478-.33-2.183-.585a12.717 12.717 0 01-1.935-.9 9.599 9.599 0 01-1.552-1.125l1.282-2.115c.165-.255.36-.45.585-.585.225-.135.51-.203.855-.203s.668.098.968.293c.315.195.675.405 1.08.63.405.225.877.435 1.417.63.555.195 1.253.293 2.093.293.66 0 1.222-.076 1.687-.225.48-.165.87-.375 1.17-.63.315-.255.54-.548.675-.878a2.63 2.63 0 00.225-1.058c0-.54-.165-.982-.495-1.327-.315-.345-.742-.645-1.282-.9a11.084 11.084 0 00-1.823-.675c-.675-.21-1.372-.435-2.092-.675a22.493 22.493 0 01-2.093-.832 7.655 7.655 0 01-1.822-1.238 5.781 5.781 0 01-1.283-1.822c-.315-.72-.472-1.59-.472-2.61 0-.945.187-1.846.562-2.7a6.287 6.287 0 011.643-2.228c.735-.645 1.642-1.155 2.722-1.53 1.095-.39 2.355-.585 3.78-.585 1.59 0 3.038.263 4.343.788 1.305.524 2.392 1.214 3.262 2.07l-1.26 2.002zm15.481-4.86c1.455 0 2.79.233 4.005.697a8.705 8.705 0 013.173 2.048c.885.885 1.575 1.98 2.07 3.285.495 1.29.742 2.767.742 4.432 0 .42-.022.773-.067 1.058-.03.27-.098.487-.203.653a.838.838 0 01-.382.337c-.165.06-.375.09-.63.09h-14.265c.165 2.37.802 4.11 1.912 5.22 1.11 1.11 2.58 1.665 4.41 1.665.9 0 1.673-.105 2.318-.315.66-.21 1.23-.442 1.71-.697.495-.256.922-.488 1.282-.698.375-.21.735-.315 1.08-.315.225 0 .42.045.585.135.165.09.308.218.428.382l1.62 2.026a9.51 9.51 0 01-2.07 1.822c-.765.48-1.568.87-2.408 1.17a13.43 13.43 0 01-2.542.608c-.855.12-1.688.18-2.498.18-1.605 0-3.097-.263-4.477-.788a10.224 10.224 0 01-3.6-2.362c-1.02-1.05-1.823-2.34-2.408-3.87-.585-1.546-.877-3.33-.877-5.355 0-1.575.255-3.053.765-4.433.51-1.395 1.237-2.602 2.182-3.623.96-1.034 2.123-1.852 3.488-2.452 1.38-.6 2.932-.9 4.657-.9zm.113 3.983c-1.62 0-2.888.457-3.803 1.372s-1.5 2.213-1.755 3.893h10.44c0-.72-.097-1.395-.292-2.025a4.685 4.685 0 00-.9-1.688 4.149 4.149 0 00-1.53-1.125c-.615-.285-1.335-.428-2.16-.428zm21.968 19.822c-1.995 0-3.533-.563-4.613-1.688-1.08-1.14-1.62-2.707-1.62-4.702V58.078h-2.34c-.3 0-.562-.098-.787-.293-.21-.195-.315-.487-.315-.877v-2.206l3.712-.607 1.17-6.3c.06-.3.195-.532.405-.698.225-.165.503-.247.833-.247h2.88v7.267h6.075v3.96h-6.075v12.51c0 .72.18 1.283.54 1.688.36.405.84.607 1.44.607.345 0 .63-.037.855-.112.24-.09.442-.18.607-.27.18-.09.338-.172.473-.248a.726.726 0 01.405-.134.6.6 0 01.405.135c.105.075.217.195.337.36l1.665 2.7a8.413 8.413 0 01-2.79 1.53 10.41 10.41 0 01-3.262.517zm23.522-18.945c-.15.24-.307.413-.472.517-.165.09-.375.136-.63.136-.27 0-.563-.075-.878-.225-.3-.15-.652-.316-1.057-.496a8.788 8.788 0 00-1.395-.517c-.51-.15-1.118-.225-1.823-.225-1.095 0-1.957.233-2.587.698-.63.465-.945 1.072-.945 1.822 0 .495.157.915.472 1.26.33.33.758.623 1.283.878.54.255 1.147.487 1.822.697.675.195 1.365.413 2.07.652.705.24 1.395.518 2.07.833.675.3 1.275.69 1.8 1.17.54.465.968 1.028 1.283 1.688.33.66.495 1.454.495 2.385 0 1.11-.203 2.137-.608 3.082a6.881 6.881 0 01-1.777 2.43c-.78.675-1.748 1.207-2.903 1.597-1.14.376-2.452.563-3.937.563-.795 0-1.575-.075-2.34-.225-.75-.135-1.478-.33-2.183-.585a12.717 12.717 0 01-1.935-.9 9.599 9.599 0 01-1.552-1.125l1.282-2.115c.165-.255.36-.45.585-.585.225-.135.51-.203.855-.203s.668.098.968.293c.315.195.675.405 1.08.63.405.225.877.435 1.417.63.555.195 1.253.293 2.093.293.66 0 1.222-.076 1.687-.225.48-.165.87-.375 1.17-.63.315-.255.54-.548.675-.878a2.63 2.63 0 00.225-1.058c0-.54-.165-.982-.495-1.327-.315-.345-.742-.645-1.282-.9a11.084 11.084 0 00-1.823-.675c-.675-.21-1.372-.435-2.092-.675a22.493 22.493 0 01-2.093-.832 7.655 7.655 0 01-1.822-1.238 5.781 5.781 0 01-1.283-1.822c-.315-.72-.472-1.59-.472-2.61 0-.945.187-1.846.562-2.7a6.287 6.287 0 011.643-2.228c.735-.645 1.642-1.155 2.722-1.53 1.095-.39 2.355-.585 3.78-.585 1.59 0 3.038.263 4.343.788 1.305.524 2.392 1.214 3.262 2.07l-1.26 2.002zm22.225 18.945c-1.995 0-3.532-.563-4.612-1.688-1.08-1.14-1.62-2.707-1.62-4.702V58.078h-2.34c-.3 0-.563-.098-.788-.293-.21-.195-.315-.487-.315-.877v-2.206l3.713-.607 1.17-6.3c.06-.3.195-.532.405-.698.225-.165.502-.247.832-.247h2.88v7.267h6.075v3.96h-6.075v12.51c0 .72.18 1.283.54 1.688.36.405.84.607 1.44.607.345 0 .63-.037.855-.112.24-.09.443-.18.608-.27.18-.09.337-.172.472-.248a.726.726 0 01.405-.134.6.6 0 01.405.135c.105.075.218.195.338.36l1.665 2.7a8.413 8.413 0 01-2.79 1.53c-1.05.344-2.138.517-3.263.517zm19.675-23.805c1.725 0 3.285.278 4.68.833 1.41.555 2.61 1.342 3.6 2.362.99 1.02 1.755 2.265 2.295 3.735.54 1.47.81 3.112.81 4.927 0 1.83-.27 3.48-.81 4.95-.54 1.47-1.305 2.723-2.295 3.758-.99 1.035-2.19 1.83-3.6 2.385-1.395.555-2.955.833-4.68.833-1.725 0-3.293-.278-4.703-.833-1.41-.555-2.617-1.35-3.622-2.385-.99-1.035-1.763-2.288-2.318-3.758-.54-1.47-.81-3.12-.81-4.95 0-1.815.27-3.457.81-4.927.555-1.47 1.328-2.715 2.318-3.735 1.005-1.02 2.212-1.807 3.622-2.362 1.41-.555 2.978-.833 4.703-.833zm0 19.508c1.92 0 3.337-.645 4.252-1.936.93-1.29 1.395-3.18 1.395-5.67 0-2.49-.465-4.387-1.395-5.692-.915-1.305-2.332-1.958-4.252-1.958-1.95 0-3.39.66-4.32 1.98-.93 1.306-1.395 3.196-1.395 5.67 0 2.476.465 4.366 1.395 5.67.93 1.29 2.37 1.936 4.32 1.936zM886.712 77c-.72 0-1.192-.338-1.417-1.013l-.45-2.227c-.48.54-.983 1.027-1.508 1.462a9.356 9.356 0 01-1.71 1.126c-.6.314-1.252.555-1.957.72-.69.18-1.44.27-2.25.27-1.26 0-2.415-.263-3.465-.788-1.05-.525-1.958-1.282-2.723-2.272-.75-1.006-1.335-2.243-1.755-3.713-.405-1.47-.607-3.15-.607-5.04 0-1.71.232-3.3.697-4.77.465-1.47 1.133-2.745 2.003-3.825a9.219 9.219 0 013.127-2.52c1.215-.615 2.58-.922 4.095-.922 1.29 0 2.393.21 3.308.63a8.473 8.473 0 012.452 1.642V43.565h5.558V77h-3.398zm-7.402-4.073c1.155 0 2.137-.24 2.947-.72s1.575-1.162 2.295-2.047V59.81c-.63-.765-1.32-1.305-2.07-1.62a5.99 5.99 0 00-2.385-.472c-.84 0-1.605.157-2.295.472-.675.315-1.252.795-1.732 1.44-.465.63-.825 1.44-1.08 2.43-.255.975-.383 2.13-.383 3.465 0 1.35.105 2.497.315 3.442.225.93.54 1.695.945 2.296.405.584.9 1.012 1.485 1.282.585.255 1.238.382 1.958.382zM914.221 77h-2.497c-.525 0-.938-.075-1.238-.225-.3-.165-.525-.488-.675-.968l-.495-1.642c-.585.525-1.162.99-1.732 1.395-.555.39-1.133.72-1.733.99a8.89 8.89 0 01-1.912.608c-.675.135-1.425.202-2.25.202-.975 0-1.875-.127-2.7-.382a6.071 6.071 0 01-2.138-1.193 5.427 5.427 0 01-1.372-1.957c-.33-.78-.495-1.688-.495-2.723 0-.87.225-1.725.675-2.565.465-.855 1.23-1.62 2.295-2.295 1.065-.69 2.482-1.26 4.252-1.71 1.77-.45 3.968-.705 6.593-.765v-1.35c0-1.545-.33-2.685-.99-3.42-.645-.75-1.59-1.125-2.835-1.125-.9 0-1.65.105-2.25.315-.6.21-1.125.45-1.575.72-.435.255-.84.488-1.215.698-.375.21-.788.315-1.238.315-.375 0-.697-.098-.967-.293a2.304 2.304 0 01-.653-.72l-1.012-1.777c2.655-2.43 5.857-3.646 9.607-3.646 1.35 0 2.55.225 3.6.675 1.065.435 1.965 1.05 2.7 1.846.735.78 1.29 1.717 1.665 2.812.39 1.095.585 2.295.585 3.6V77zm-10.8-3.465c.57 0 1.095-.052 1.575-.157.48-.106.93-.263 1.35-.473.435-.21.848-.465 1.238-.765.405-.315.81-.683 1.215-1.103v-3.892c-1.62.075-2.978.218-4.073.428-1.08.195-1.95.45-2.61.765-.66.315-1.132.682-1.417 1.102-.27.42-.405.877-.405 1.373 0 .974.285 1.672.855 2.092.585.42 1.342.63 2.272.63zm23.664 9.81c-.165.39-.383.683-.653.877-.255.21-.652.316-1.192.316h-4.14l4.32-9.248-9.338-21.375h4.86c.45 0 .795.105 1.035.315.24.21.42.45.54.72l4.928 11.97c.165.39.307.795.427 1.215.12.42.225.84.315 1.26.12-.435.248-.855.383-1.26.15-.405.307-.818.472-1.238l4.635-11.947c.12-.3.315-.547.585-.742.285-.195.6-.293.945-.293h4.455l-12.577 29.43z"/><mask id="b" width="64" height="64" x="28" y="22" maskUnits="userSpaceOnUse"><path fill="#fff" fill-rule="evenodd" d="M28 22h64v64H28V22z" clip-rule="evenodd"/></mask><g fill-rule="evenodd" clip-rule="evenodd" mask="url(#b)"><path fill="#fff" d="M59.948 27.164c-14.705 0-26.626 11.936-26.626 26.66s11.921 26.66 26.626 26.66c14.705 0 26.626-11.936 26.626-26.66s-11.92-26.66-26.626-26.66z"/><path fill="#007A99" d="M60 21.831c-17.673 0-32 14.327-32 32 0 17.672 14.327 31.998 32 31.998 17.673 0 32-14.326 32-31.999 0-17.672-14.327-31.998-32-31.998zm20.23 29.12c-1.094 1.108-2.85 1.127-3.924.041l-3.978-4.022c-1.726-1.745-4.55-1.715-6.307.065l-4.053 4.107a2.794 2.794 0 01-2.298.824 2.69 2.69 0 01-1.697-.793l-3.98-4.023c-1.724-1.744-4.548-1.715-6.305.066l-4.053 4.107c-1.094 1.107-2.85 1.126-3.923.04-1.726-1.744-1.7-4.602.057-6.383l8.013-8.117c1.757-1.781 4.58-1.81 6.306-.066l5.963 6.029 6.064-6.145c1.758-1.78 4.581-1.81 6.307-.065l7.866 7.953c1.725 1.744 1.699 4.602-.059 6.383zM71.57 64.29l-8.232 8.341a4.588 4.588 0 01-6.543.004l-8.24-8.332a4.723 4.723 0 01-.004-6.623 2.854 2.854 0 014.07-.002l4.169 4.215a4.587 4.587 0 006.543-.003l4.164-4.22a2.854 2.854 0 014.07-.002 4.723 4.723 0 01.004 6.622z"/></g><path fill="#007A99" d="M146.077 62.4c.181.341.347.699.496 1.072.16.363.315.73.464 1.104.149-.384.304-.763.464-1.136.16-.373.331-.73.512-1.072l6.848-12.816c.085-.16.171-.288.256-.384a.909.909 0 01.304-.208 1.4 1.4 0 01.384-.08c.139-.01.304-.016.496-.016h3.248V72h-3.792V57.056c0-.277.005-.581.016-.912.021-.33.048-.667.08-1.008l-6.992 13.12a1.91 1.91 0 01-.624.704c-.256.16-.555.24-.896.24h-.592c-.341 0-.64-.08-.896-.24a1.91 1.91 0 01-.624-.704l-7.088-13.168c.043.352.069.699.08 1.04.021.33.032.64.032.928V72h-3.792V48.864h3.248c.192 0 .357.005.496.016.139.01.261.037.368.08a.875.875 0 01.32.208c.096.096.187.224.272.384l6.912 12.848zm23.734 14.112c-.117.277-.272.485-.464.624-.181.15-.464.224-.848.224h-2.944l3.072-6.576-6.64-15.2h3.456c.32 0 .565.075.736.224.171.15.299.32.384.512l3.504 8.512c.117.277.219.565.304.864.085.299.16.597.224.896.085-.31.176-.608.272-.896.107-.288.219-.581.336-.88l3.296-8.496a1.163 1.163 0 011.088-.736h3.168l-8.944 20.928zm27.367-9.968c.234 0 .437.09.608.272l1.696 1.84a9.302 9.302 0 01-3.472 2.672c-1.366.619-3.008.928-4.928.928-1.718 0-3.264-.293-4.64-.88a10.216 10.216 0 01-3.504-2.448c-.971-1.045-1.718-2.293-2.24-3.744-.512-1.45-.768-3.035-.768-4.752 0-1.739.288-3.328.864-4.768.576-1.45 1.386-2.699 2.432-3.744 1.045-1.045 2.293-1.856 3.744-2.432 1.461-.587 3.072-.88 4.832-.88 1.717 0 3.216.277 4.496.832 1.29.544 2.394 1.27 3.312 2.176l-1.44 2c-.086.128-.198.24-.336.336-.128.096-.31.144-.544.144-.246 0-.496-.096-.752-.288a9.38 9.38 0 00-.976-.624c-.395-.224-.896-.432-1.504-.624-.598-.192-1.36-.288-2.288-.288-1.088 0-2.091.192-3.008.576a6.668 6.668 0 00-2.352 1.616c-.651.704-1.163 1.563-1.536 2.576-.363 1.003-.544 2.133-.544 3.392 0 1.301.181 2.459.544 3.472.373 1.013.874 1.867 1.504 2.56a6.47 6.47 0 002.224 1.6c.853.363 1.77.544 2.752.544.586 0 1.114-.032 1.584-.096.48-.064.917-.165 1.312-.304a5.793 5.793 0 001.135-.528 7.302 7.302 0 001.073-.816c.106-.096.218-.17.336-.224a.787.787 0 01.384-.096zm5.34 5.456V55.584h2.32c.406 0 .688.075.848.224.16.15.267.405.32.768l.24 1.984c.587-1.013 1.275-1.813 2.064-2.4a4.345 4.345 0 012.656-.88c.811 0 1.483.187 2.016.56l-.512 2.96c-.032.192-.101.33-.208.416-.106.075-.25.112-.432.112-.16 0-.378-.037-.656-.112-.277-.075-.645-.112-1.104-.112-.821 0-1.525.23-2.112.688-.586.448-1.082 1.11-1.488 1.984V72h-3.952zm18.887 4.512c-.118.277-.272.485-.464.624-.182.15-.464.224-.848.224h-2.944l3.072-6.576-6.64-15.2h3.456c.32 0 .565.075.736.224.17.15.298.32.384.512l3.504 8.512a7.7 7.7 0 01.304.864c.085.299.16.597.224.896.085-.31.176-.608.272-.896.106-.288.218-.581.336-.88l3.296-8.496a1.16 1.16 0 011.088-.736h3.168l-8.944 20.928zm11.238.848V55.584h2.416c.256 0 .475.059.656.176.182.117.299.299.352.544l.32 1.52a8.346 8.346 0 012.272-1.84c.864-.47 1.872-.704 3.024-.704.896 0 1.712.187 2.448.56a5.382 5.382 0 011.92 1.632c.544.704.96 1.579 1.248 2.624.299 1.035.448 2.224.448 3.568 0 1.227-.165 2.363-.496 3.408-.33 1.045-.805 1.952-1.424 2.72a6.522 6.522 0 01-2.224 1.808c-.864.427-1.834.64-2.912.64-.928 0-1.717-.139-2.368-.416a5.937 5.937 0 01-1.728-1.184v6.72h-3.952zm7.68-18.96c-.821 0-1.525.176-2.112.528-.576.341-1.114.827-1.616 1.456v7.36c.448.555.934.944 1.456 1.168a4.57 4.57 0 001.712.32c.598 0 1.136-.112 1.616-.336a3.071 3.071 0 001.232-1.024c.342-.459.603-1.035.784-1.728.182-.704.272-1.53.272-2.48 0-.96-.08-1.77-.24-2.432-.149-.672-.368-1.216-.656-1.632a2.609 2.609 0 00-1.056-.912c-.405-.192-.869-.288-1.392-.288zm15.806 13.856c-1.419 0-2.512-.4-3.28-1.2-.768-.81-1.152-1.925-1.152-3.344v-9.168h-1.664c-.213 0-.4-.07-.56-.208-.149-.139-.224-.347-.224-.624v-1.568l2.64-.432.832-4.48a.81.81 0 01.288-.496.973.973 0 01.592-.176h2.048v5.168h4.32v2.816h-4.32v8.896c0 .512.128.912.384 1.2.256.288.597.432 1.024.432.245 0 .448-.027.608-.08a3.38 3.38 0 00.432-.192c.128-.064.24-.123.336-.176a.516.516 0 01.288-.096c.117 0 .213.032.288.096.075.053.155.139.24.256l1.184 1.92a5.979 5.979 0 01-1.984 1.088 7.387 7.387 0 01-2.32.368zm13.991-16.928c1.227 0 2.336.197 3.328.592a7.176 7.176 0 012.56 1.68c.704.725 1.248 1.61 1.632 2.656.384 1.045.576 2.213.576 3.504 0 1.301-.192 2.475-.576 3.52-.384 1.045-.928 1.936-1.632 2.672a7.073 7.073 0 01-2.56 1.696c-.992.395-2.101.592-3.328.592-1.227 0-2.341-.197-3.344-.592a7.232 7.232 0 01-2.576-1.696c-.704-.736-1.253-1.627-1.648-2.672-.384-1.045-.576-2.219-.576-3.52 0-1.29.192-2.459.576-3.504.395-1.045.944-1.93 1.648-2.656a7.34 7.34 0 012.576-1.68c1.003-.395 2.117-.592 3.344-.592zm0 13.872c1.365 0 2.373-.459 3.024-1.376.661-.917.992-2.261.992-4.032 0-1.77-.331-3.12-.992-4.048-.651-.928-1.659-1.392-3.024-1.392-1.387 0-2.411.47-3.072 1.408-.661.928-.992 2.272-.992 4.032 0 1.76.331 3.104.992 4.032.661.917 1.685 1.376 3.072 1.376zm29.991-16.128c-.117.235-.256.4-.416.496a.985.985 0 01-.544.144c-.213 0-.453-.08-.72-.24a19.41 19.41 0 00-.944-.56 7.21 7.21 0 00-1.28-.544c-.48-.17-1.051-.256-1.712-.256-.597 0-1.12.075-1.568.224a3.298 3.298 0 00-1.12.592 2.412 2.412 0 00-.672.928 2.967 2.967 0 00-.224 1.168c0 .544.149.997.448 1.36.309.363.715.672 1.216.928a11.2 11.2 0 001.712.688c.64.203 1.291.421 1.952.656.672.224 1.328.49 1.968.8.64.299 1.211.683 1.712 1.152a5.046 5.046 0 011.2 1.696c.309.672.464 1.488.464 2.448a7.927 7.927 0 01-.544 2.944 6.729 6.729 0 01-1.568 2.384c-.683.672-1.52 1.205-2.512 1.6-.992.384-2.128.576-3.408.576-.736 0-1.461-.075-2.176-.224a11.205 11.205 0 01-2.064-.608 11.136 11.136 0 01-1.84-.96 9.218 9.218 0 01-1.52-1.248l1.248-2.064c.117-.15.256-.272.416-.368.171-.107.357-.16.56-.16.267 0 .555.112.864.336.309.213.672.453 1.088.72a9.21 9.21 0 001.488.736c.576.213 1.264.32 2.064.32 1.227 0 2.176-.288 2.848-.864.672-.587 1.008-1.424 1.008-2.512 0-.608-.155-1.104-.464-1.488-.299-.384-.699-.704-1.2-.96a8.665 8.665 0 00-1.712-.672 56.543 56.543 0 01-1.952-.592 16.844 16.844 0 01-1.952-.768 6.32 6.32 0 01-1.712-1.168c-.501-.48-.907-1.077-1.216-1.792-.299-.725-.448-1.616-.448-2.672 0-.843.165-1.664.496-2.464a6.46 6.46 0 011.472-2.128c.651-.619 1.445-1.115 2.384-1.488.939-.373 2.011-.56 3.216-.56 1.365 0 2.624.213 3.776.64 1.152.427 2.133 1.024 2.944 1.792l-1.056 2.032zm2.612-4.208h3.616c.374 0 .683.09.928.272.256.17.427.405.512.704l3.936 13.84c.096.341.182.715.256 1.12.086.395.166.816.24 1.264.086-.448.176-.87.272-1.264.107-.405.219-.779.336-1.12l4.544-13.84a1.54 1.54 0 01.496-.672 1.45 1.45 0 01.928-.304h1.264c.374 0 .683.09.928.272.246.17.416.405.512.704l4.512 13.84c.235.683.438 1.44.608 2.272.075-.416.15-.816.224-1.2.086-.384.171-.741.256-1.072l3.936-13.84c.075-.267.24-.496.496-.688.256-.192.566-.288.928-.288h3.376L328.643 72h-3.888l-5.056-15.808-.208-.656a25.343 25.343 0 01-.192-.752c-.064.267-.133.517-.208.752-.064.235-.128.453-.192.656L313.795 72h-3.888l-7.184-23.136zM356.828 72H353.5c-.373 0-.682-.09-.928-.272a1.68 1.68 0 01-.512-.704l-1.728-4.72h-9.584l-1.728 4.72c-.085.245-.256.47-.512.672-.245.203-.549.304-.912.304h-3.344l9.088-23.136h4.4L356.828 72zm-14.976-8.736h7.376l-2.816-7.696a55.861 55.861 0 01-.432-1.2c-.149-.47-.298-.976-.448-1.52-.149.544-.298 1.05-.448 1.52-.138.47-.277.88-.416 1.232l-2.816 7.664zm21.807.592V72h-4.304V48.864h7.536c1.547 0 2.885.181 4.016.544 1.131.363 2.064.87 2.8 1.52.736.65 1.28 1.43 1.632 2.336.352.907.528 1.899.528 2.976 0 1.12-.187 2.15-.56 3.088a6.397 6.397 0 01-1.68 2.4c-.747.672-1.68 1.195-2.8 1.568-1.12.373-2.432.56-3.936.56h-3.232zm0-3.36h3.232c.789 0 1.477-.096 2.064-.288.587-.203 1.072-.485 1.456-.848.384-.373.672-.821.864-1.344a5.212 5.212 0 00.288-1.776c0-.619-.096-1.179-.288-1.68a3.321 3.321 0 00-.864-1.28c-.384-.352-.869-.619-1.456-.8-.587-.192-1.275-.288-2.064-.288h-3.232v8.304z"/><circle cx="98" cy="75" r="24" fill="#fff"/><path fill="#007A99" fill-rule="evenodd" d="M99.653 73.628c.18.741.27 1.513.258 2.3l3.291-.398a1.332 1.332 0 011.233 2.114l-1.603 2.183c3.604 1.353 7.735-.616 8.416-4.781.573-3.502-1.764-6.78-5.178-7.35a6.177 6.177 0 00-2.145.017l.481 3.887a1.335 1.335 0 01-1.127 1.484l-3.626.544zm-7.665-4.135c3.221.537 5.483 3.486 5.244 6.76l-5.126.62a1.333 1.333 0 00-1.166 1.45l.369 3.863a6.21 6.21 0 01-1.384-.076c-3.412-.569-5.747-3.844-5.175-7.344.572-3.5 3.826-5.843 7.238-5.273zm-2.493 15.249c.697.116 1.39.147 2.068.101l.472 4.948a1.333 1.333 0 002.374.696l1.885-2.401c3.322 1.485 6.87 1.407 9.728.076 3.019-1.407 5.243-4.213 5.523-7.912 1.167-1.208 2.012-2.812 2.333-4.774.804-4.92-2.477-9.593-7.37-10.41a8.843 8.843 0 00-2.911-.002l-.605-4.896a1.33 1.33 0 00-2.393-.628l-1.815 2.453c-3.381-1.407-6.971-1.28-9.826.098-3.132 1.51-5.35 4.527-5.323 8.493a9.09 9.09 0 00-1.514 3.743c-.804 4.922 2.479 9.598 7.374 10.415zM86.868 67.74c.645-1.442 1.796-2.55 3.244-3.248 2.352-1.135 5.512-1.187 8.48.352.581.3 1.295.135 1.684-.391l.48-.649.846 6.834-2.995.45a8.918 8.918 0 00-6.19-4.228 8.82 8.82 0 00-5.549.88zm18.314 2.914a1.328 1.328 0 011.689-.83c1.959.67 3.17 2.693 2.827 4.792a4.321 4.321 0 01-2.352 3.19c-.66.323-1.458.05-1.784-.612a1.332 1.332 0 01.606-1.785 1.66 1.66 0 00.901-1.232c.136-.831-.347-1.587-1.053-1.83a1.338 1.338 0 01-.834-1.693zm3.136 11.688a9.312 9.312 0 01-8.207-.914 1.332 1.332 0 01-.357-1.914l.71-.967-6.748.816.655 6.855.498-.634a1.332 1.332 0 011.693-.343c2.888 1.602 5.984 1.597 8.335.502 1.522-.71 2.742-1.875 3.421-3.401zm-18.736-9.535a1.332 1.332 0 10-1.927 1.842l1.052 1.103-.91.952a1.334 1.334 0 001.928 1.842l3.715-3.893a1.334 1.334 0 00-1.928-1.842l-.963 1.01-.967-1.014z" clip-rule="evenodd"/><g filter="url(#filter1_d)"><circle cx="1001.11" cy="54.111" r="29.111" fill="#fff"/></g><path fill="#8247E5" d="M1009.65 48.17c-.62-.357-1.42-.357-2.13 0l-4.95 2.937-3.359 1.87-4.864 2.937c-.619.356-1.415.356-2.122 0l-3.803-2.315a2.172 2.172 0 01-1.061-1.869v-4.451c0-.712.353-1.424 1.061-1.87l3.803-2.225c.619-.356 1.415-.356 2.122 0l3.803 2.315a2.173 2.173 0 011.061 1.869v2.938l3.359-1.959v-3.026c0-.713-.35-1.425-1.06-1.87l-7.075-4.184c-.619-.356-1.415-.356-2.122 0l-7.252 4.273c-.707.356-1.061 1.068-1.061 1.78v8.368c0 .713.354 1.425 1.061 1.87l7.164 4.184c.619.356 1.415.356 2.122 0l4.864-2.849 3.359-1.958 4.87-2.849c.61-.356 1.41-.356 2.12 0l3.8 2.226a2.17 2.17 0 011.06 1.869v4.451c0 .712-.35 1.424-1.06 1.87l-3.71 2.225c-.62.356-1.42.356-2.13 0l-3.8-2.226a2.17 2.17 0 01-1.06-1.869v-2.849l-3.361 1.959v2.938c0 .712.354 1.424 1.061 1.869l7.16 4.184c.62.356 1.42.356 2.13 0l7.16-4.184a2.17 2.17 0 001.06-1.87v-8.456c0-.713-.35-1.425-1.06-1.87l-7.16-4.184z"/><g filter="url(#filter2_d)"><circle cx="1100.11" cy="54.111" r="29.111" fill="#fff"/></g><g fill="#F3BA2F" clip-path="url(#clip0)"><path d="M1092.78 52.355l6.3-6.293 6.29 6.296 3.67-3.662-9.96-9.958-9.96 9.955 3.66 3.662zm-9.9 2.586l3.66-3.663 3.66 3.662-3.66 3.662-3.66-3.661zm9.9 2.585l6.3 6.293 6.29-6.296 3.67 3.66v.002l-9.96 9.958-9.96-9.955v-.005l3.66-3.657zm15.18-2.584l3.66-3.662 3.66 3.662-3.66 3.662-3.66-3.662z"/><path d="M1102.79 54.938l-3.71-3.716-2.75 2.746-.31.315-.66.651v.01l3.72 3.713 3.71-3.715v-.004"/></g><g filter="url(#filter3_d)"><circle cx="1050.37" cy="65.111" r="29.111" fill="#fff"/></g><g clip-path="url(#clip1)"><path fill="#343434" d="M1049.72 46.126l-.26.871v25.272l.26.256 11.91-6.934-11.91-19.465z"/><path fill="#8C8C8C" d="M1049.72 46.126l-11.91 19.465 11.91 6.934V46.126z"/><path fill="#3C3C3B" d="M1049.72 74.747l-.14.176v9.003l.14.421 11.91-16.53-11.91 6.93z"/><path fill="#8C8C8C" d="M1049.72 84.347v-9.6l-11.91-6.93 11.91 16.53z"/><path fill="#141414" d="M1049.73 72.525l11.9-6.934-11.9-5.333v12.267z"/><path fill="#393939" d="M1037.81 65.59l11.91 6.935V60.258l-11.91 5.333z"/></g><defs><filter id="filter0_d" width="889" height="524" x="393" y="-199" color-interpolation-filters="sRGB" filterUnits="userSpaceOnUse"><feFlood flood-opacity="0" result="BackgroundImageFix"/><feColorMatrix in="SourceAlpha" result="hardAlpha" values="0 0 0 0 0 0 0 0 0 0 0 0 0 0 0 0 0 0 127 0"/><feOffset dx="-6" dy="3"/><feGaussianBlur stdDeviation="5"/><feColorMatrix values="0 0 0 0 0.733333 0 0 0 0 0.733333 0 0 0 0 0.733333 0 0 0 0.5 0"/><feBlend in2="BackgroundImageFix" result="effect1_dropShadow"/><feBlend in="SourceGraphic" in2="effect1_dropShadow" result="shape"/></filter><filter id="filter1_d" width="71.53" height="71.53" x="966.297" y="19.297" color-interpolation-filters="sRGB" filterUnits="userSpaceOnUse"><feFlood flood-opacity="0" result="BackgroundImageFix"/><feColorMatrix in="SourceAlpha" result="hardAlpha" values="0 0 0 0 0 0 0 0 0 0 0 0 0 0 0 0 0 0 127 0"/><feOffset dx=".951" dy=".951"/><feGaussianBlur stdDeviation="3.327"/><feColorMatrix values="0 0 0 0 0.709804 0 0 0 0 0.74902 0 0 0 0 0.780392 0 0 0 0.49 0"/><feBlend in2="BackgroundImageFix" result="effect1_dropShadow"/><feBlend in="SourceGraphic" in2="effect1_dropShadow" result="shape"/></filter><filter id="filter2_d" width="71.53" height="71.53" x="1065.3" y="19.297" color-interpolation-filters="sRGB" filterUnits="userSpaceOnUse"><feFlood flood-opacity="0" result="BackgroundImageFix"/><feColorMatrix in="SourceAlpha" result="hardAlpha" values="0 0 0 0 0 0 0 0 0 0 0 0 0 0 0 0 0 0 127 0"/><feOffset dx=".951" dy=".951"/><feGaussianBlur stdDeviation="3.327"/><feColorMatrix values="0 0 0 0 0.709804 0 0 0 0 0.74902 0 0 0 0 0.780392 0 0 0 0.49 0"/><feBlend in2="BackgroundImageFix" result="effect1_dropShadow"/><feBlend in="SourceGraphic" in2="effect1_dropShadow" result="shape"/></filter><filter id="filter3_d" width="71.53" height="71.53" x="1015.55" y="30.297" color-interpolation-filters="sRGB" filterUnits="userSpaceOnUse"><feFlood flood-opacity="0" result="BackgroundImageFix"/><feColorMatrix in="SourceAlpha" result="hardAlpha" values="0 0 0 0 0 0 0 0 0 0 0 0 0 0 0 0 0 0 127 0"/><feOffset dx=".951" dy=".951"/><feGaussianBlur stdDeviation="3.327"/><feColorMatrix values="0 0 0 0 0.709804 0 0 0 0 0.74902 0 0 0 0 0.780392 0 0 0 0.49 0"/><feBlend in2="BackgroundImageFix" result="effect1_dropShadow"/><feBlend in="SourceGraphic" in2="effect1_dropShadow" result="shape"/></filter><clipPath id="clip0"><path fill="#fff" d="M0 0h34.43v34.43H0z" transform="translate(1082.81 36.814)"/></clipPath><clipPath id="clip1"><path fill="#fff" d="M0 0h26.666v38.221H0z" transform="translate(1037.12 46.126)"/></clipPath><linearGradient id="paint0_linear" x1="24.5" x2="1399.5" y1="60" y2="60" gradientUnits="userSpaceOnUse"><stop stop-color="#007A99"/><stop offset=".628" stop-color="#006077"/><stop offset="1" stop-color="#55B6E2"/></linearGradient></defs></svg>