<svg xmlns="http://www.w3.org/2000/svg" width="345" height="150" fill="none"><rect width="345" height="150" fill="#fff" rx="3"/><path fill="#163150" d="M40.052 57.804c-.088.176-.192.3-.312.372a.739.739 0 01-.408.108c-.16 0-.34-.06-.54-.18-.2-.128-.436-.268-.708-.42a5.41 5.41 0 00-.96-.408c-.36-.128-.788-.192-1.284-.192-.448 0-.84.056-1.176.168a2.473 2.473 0 00-.84.444 1.814 1.814 0 00-.504.696 2.22 2.22 0 00-.168.876c0 .408.112.748.336 1.02.232.272.536.504.912.696.376.192.804.364 1.284.516.48.152.968.316 1.464.492.504.168.996.368 1.476.6.48.224.908.512 1.284.864.376.344.676.768.9 1.272.232.504.348 1.116.348 1.836a5.95 5.95 0 01-.408 2.208 5.043 5.043 0 01-1.176 1.788c-.512.504-1.14.904-1.884 1.2-.744.288-1.596.432-2.556.432a7.958 7.958 0 01-1.632-.168 8.415 8.415 0 01-1.548-.456c-.488-.2-.948-.44-1.38-.72a6.905 6.905 0 01-1.14-.936l.936-1.548a1.14 1.14 0 01.312-.276.777.777 0 01.42-.12c.2 0 .416.084.648.252.232.16.504.34.816.54.32.2.692.384 1.116.552.432.16.948.24 1.548.24.92 0 1.632-.216 2.136-.648.504-.44.756-1.068.756-1.884 0-.456-.116-.828-.348-1.116a2.634 2.634 0 00-.9-.72 6.508 6.508 0 00-1.284-.504c-.48-.136-.968-.284-1.464-.444-.496-.16-.984-.352-1.464-.576a4.743 4.743 0 01-1.284-.876 4.071 4.071 0 01-.912-1.344c-.224-.544-.336-1.212-.336-2.004 0-.632.124-1.248.372-1.848.256-.6.624-1.132 1.104-1.596a5.52 5.52 0 011.788-1.116c.704-.28 1.508-.42 2.412-.42 1.024 0 1.968.16 2.832.48.864.32 1.6.768 2.208 1.344l-.792 1.524zm1.9 1.884h2.351c.224 0 .412.052.564.156a.67.67 0 01.288.396l1.764 6.576c.096.36.172.712.228 1.056.064.344.124.688.18 1.032.088-.344.18-.688.276-1.032.104-.344.212-.696.324-1.056l2.04-6.6a.743.743 0 01.288-.396.838.838 0 01.504-.156h1.308c.216 0 .396.052.54.156.144.104.24.236.288.396l2.016 6.72c.104.344.196.68.276 1.008.088.32.172.644.252.972.056-.344.116-.688.18-1.032.072-.344.16-.7.264-1.068l1.824-6.576a.67.67 0 01.288-.396.912.912 0 01.528-.156h2.244L56.867 72H54.48c-.256 0-.44-.176-.552-.528l-2.22-7.116c-.072-.232-.14-.464-.204-.696-.056-.24-.104-.476-.144-.708a13.439 13.439 0 01-.348 1.428l-2.244 7.092c-.112.352-.328.528-.648.528h-2.268l-3.9-12.312zM72.083 72h-1.332c-.28 0-.5-.04-.66-.12-.16-.088-.28-.26-.36-.516l-.264-.876c-.312.28-.62.528-.924.744a5.607 5.607 0 01-.924.528c-.32.144-.66.252-1.02.324-.36.072-.76.108-1.2.108-.52 0-1-.068-1.44-.204a3.237 3.237 0 01-1.14-.636 2.895 2.895 0 01-.732-1.044c-.176-.416-.264-.9-.264-1.452 0-.464.12-.92.36-1.368.248-.456.656-.864 1.224-1.224.568-.368 1.324-.672 2.268-.912.944-.24 2.116-.376 3.516-.408v-.72c0-.824-.176-1.432-.528-1.824-.344-.4-.848-.6-1.512-.6-.48 0-.88.056-1.2.168-.32.112-.6.24-.84.384-.232.136-.448.26-.648.372-.2.112-.42.168-.66.168a.858.858 0 01-.516-.156 1.228 1.228 0 01-.348-.384l-.54-.948c1.416-1.296 3.124-1.944 5.124-1.944.72 0 1.36.12 1.92.36a3.98 3.98 0 011.44.984c.392.416.688.916.888 1.5.208.584.312 1.224.312 1.92V72zm-5.76-1.848c.304 0 .584-.028.84-.084a3.07 3.07 0 00.72-.252c.232-.112.452-.248.66-.408.216-.168.432-.364.648-.588v-2.076c-.864.04-1.588.116-2.172.228-.576.104-1.04.24-1.392.408-.352.168-.604.364-.756.588a1.327 1.327 0 00-.216.732c0 .52.152.892.456 1.116.312.224.716.336 1.212.336zm8.674 5.868V59.688h1.812c.192 0 .356.044.492.132a.617.617 0 01.264.408l.24 1.14a6.248 6.248 0 011.704-1.38c.648-.352 1.404-.528 2.268-.528a4 4 0 011.836.42c.56.28 1.04.688 1.44 1.224.408.528.72 1.184.936 1.968.224.776.336 1.668.336 2.676 0 .92-.124 1.772-.372 2.556a6.19 6.19 0 01-1.068 2.04 4.894 4.894 0 01-1.668 1.356c-.648.32-1.376.48-2.184.48-.696 0-1.288-.104-1.776-.312a4.452 4.452 0 01-1.296-.888v5.04h-2.964zm5.76-14.22c-.616 0-1.144.132-1.584.396-.432.256-.836.62-1.212 1.092v5.52c.336.416.7.708 1.092.876.4.16.828.24 1.284.24.448 0 .852-.084 1.212-.252.368-.168.676-.424.924-.768.256-.344.452-.776.588-1.296.136-.528.204-1.148.204-1.86 0-.72-.06-1.328-.18-1.824-.112-.504-.276-.912-.492-1.224a1.957 1.957 0 00-.792-.684 2.411 2.411 0 00-1.044-.216zM108.63 72h-2.496c-.28 0-.512-.068-.696-.204a1.254 1.254 0 01-.384-.528l-1.296-3.54H96.57l-1.296 3.54a1.123 1.123 0 01-.384.504 1.038 1.038 0 01-.684.228h-2.508l6.816-17.352h3.3L108.629 72zm-11.232-6.552h5.532l-2.112-5.772a41.994 41.994 0 01-.324-.9 29.708 29.708 0 01-.336-1.14c-.112.408-.224.788-.336 1.14-.104.352-.208.66-.312.924l-2.112 5.748zm20.159-3.36a.858.858 0 01-.252.276.697.697 0 01-.336.072c-.144 0-.3-.04-.468-.12a13.91 13.91 0 00-.564-.264 4.687 4.687 0 00-.744-.276 3.47 3.47 0 00-.972-.12c-.584 0-1.044.124-1.38.372-.336.248-.504.572-.504.972a.96.96 0 00.252.672c.176.176.404.332.684.468.288.136.612.26.972.372.36.104.728.22 1.104.348.376.128.744.276 1.104.444.36.16.68.368.96.624.288.248.516.548.684.9.176.352.264.776.264 1.272a4.13 4.13 0 01-.324 1.644 3.67 3.67 0 01-.948 1.296c-.416.36-.932.644-1.548.852-.608.2-1.308.3-2.1.3-.424 0-.84-.04-1.248-.12a6.782 6.782 0 01-2.196-.792 5.122 5.122 0 01-.828-.6l.684-1.128a.967.967 0 01.312-.312.875.875 0 01.456-.108.93.93 0 01.516.156c.168.104.36.216.576.336.216.12.468.232.756.336.296.104.668.156 1.116.156.352 0 .652-.04.9-.12.256-.088.464-.2.624-.336.168-.136.288-.292.36-.468.08-.184.12-.372.12-.564 0-.288-.088-.524-.264-.708a2.162 2.162 0 00-.684-.48 5.908 5.908 0 00-.972-.36c-.36-.112-.732-.232-1.116-.36a11.992 11.992 0 01-1.116-.444 4.084 4.084 0 01-.972-.66 3.083 3.083 0 01-.684-.972c-.168-.384-.252-.848-.252-1.392 0-.504.1-.984.3-1.44.2-.456.492-.852.876-1.188.392-.344.876-.616 1.452-.816.584-.208 1.256-.312 2.016-.312.848 0 1.62.14 2.316.42.696.28 1.276.648 1.74 1.104l-.672 1.068zm10.477 0a.858.858 0 01-.252.276.697.697 0 01-.336.072c-.144 0-.3-.04-.468-.12a13.91 13.91 0 00-.564-.264 4.687 4.687 0 00-.744-.276 3.47 3.47 0 00-.972-.12c-.584 0-1.044.124-1.38.372-.336.248-.504.572-.504.972a.96.96 0 00.252.672c.176.176.404.332.684.468.288.136.612.26.972.372.36.104.728.22 1.104.348.376.128.744.276 1.104.444.36.16.68.368.96.624.288.248.516.548.684.9.176.352.264.776.264 1.272a4.13 4.13 0 01-.324 1.644 3.67 3.67 0 01-.948 1.296c-.416.36-.932.644-1.548.852-.608.2-1.308.3-2.1.3-.424 0-.84-.04-1.248-.12a6.782 6.782 0 01-2.196-.792 5.122 5.122 0 01-.828-.6l.684-1.128a.967.967 0 01.312-.312.875.875 0 01.456-.108.93.93 0 01.516.156c.168.104.36.216.576.336.216.12.468.232.756.336.296.104.668.156 1.116.156.352 0 .652-.04.9-.12.256-.088.464-.2.624-.336.168-.136.288-.292.36-.468.08-.184.12-.372.12-.564 0-.288-.088-.524-.264-.708a2.162 2.162 0 00-.684-.48 5.908 5.908 0 00-.972-.36c-.36-.112-.732-.232-1.116-.36a11.992 11.992 0 01-1.116-.444 4.084 4.084 0 01-.972-.66 3.083 3.083 0 01-.684-.972c-.168-.384-.252-.848-.252-1.392 0-.504.1-.984.3-1.44.2-.456.492-.852.876-1.188.392-.344.876-.616 1.452-.816.584-.208 1.256-.312 2.016-.312.848 0 1.62.14 2.316.42.696.28 1.276.648 1.74 1.104l-.672 1.068zm8.256-2.592a5.93 5.93 0 012.136.372c.656.248 1.22.612 1.692 1.092.472.472.84 1.056 1.104 1.752.264.688.396 1.476.396 2.364 0 .224-.012.412-.036.564a.812.812 0 01-.108.348.448.448 0 01-.204.18.997.997 0 01-.336.048h-7.608c.088 1.264.428 2.192 1.02 2.784.592.592 1.376.888 2.352.888.48 0 .892-.056 1.236-.168a5.52 5.52 0 00.912-.372 15.1 15.1 0 00.684-.372c.2-.112.392-.168.576-.168.12 0 .224.024.312.072a.69.69 0 01.228.204l.864 1.08a5.072 5.072 0 01-1.104.972 6.562 6.562 0 01-1.284.624c-.44.152-.892.26-1.356.324a9.58 9.58 0 01-1.332.096 6.66 6.66 0 01-2.388-.42 5.453 5.453 0 01-1.92-1.26c-.544-.56-.972-1.248-1.284-2.064-.312-.824-.468-1.776-.468-2.856 0-.84.136-1.628.408-2.364a5.672 5.672 0 011.164-1.932 5.546 5.546 0 011.86-1.308c.736-.32 1.564-.48 2.484-.48zm.06 2.124c-.864 0-1.54.244-2.028.732s-.8 1.18-.936 2.076h5.568c0-.384-.052-.744-.156-1.08a2.498 2.498 0 00-.48-.9 2.213 2.213 0 00-.816-.6c-.328-.152-.712-.228-1.152-.228zm11.717 10.572c-1.064 0-1.884-.3-2.461-.9-.575-.608-.863-1.444-.863-2.508v-6.876h-1.248c-.16 0-.3-.052-.42-.156-.112-.104-.168-.26-.168-.468v-1.176l1.98-.324.624-3.36a.604.604 0 01.216-.372.73.73 0 01.444-.132h1.536v3.876h3.24v2.112h-3.24v6.672c0 .384.096.684.288.9.192.216.448.324.768.324.184 0 .336-.02.455-.06.129-.048.237-.096.325-.144.096-.048.18-.092.252-.132a.387.387 0 01.216-.072.32.32 0 01.216.072.85.85 0 01.18.192l.888 1.44c-.432.36-.928.632-1.488.816-.56.184-1.14.276-1.74.276zm12.545-10.104a.858.858 0 01-.252.276.697.697 0 01-.336.072c-.144 0-.3-.04-.468-.12a13.91 13.91 0 00-.564-.264 4.687 4.687 0 00-.744-.276 3.47 3.47 0 00-.972-.12c-.584 0-1.044.124-1.38.372-.336.248-.504.572-.504.972a.96.96 0 00.252.672c.176.176.404.332.684.468.288.136.612.26.972.372.36.104.728.22 1.104.348.376.128.744.276 1.104.444.36.16.68.368.96.624.288.248.516.548.684.9.176.352.264.776.264 1.272a4.13 4.13 0 01-.324 1.644 3.67 3.67 0 01-.948 1.296c-.416.36-.932.644-1.548.852-.608.2-1.308.3-2.1.3-.424 0-.84-.04-1.248-.12a6.782 6.782 0 01-2.196-.792 5.122 5.122 0 01-.828-.6l.684-1.128a.967.967 0 01.312-.312.875.875 0 01.456-.108.93.93 0 01.516.156c.168.104.36.216.576.336.216.12.468.232.756.336.296.104.668.156 1.116.156.352 0 .652-.04.9-.12.256-.088.464-.2.624-.336.168-.136.288-.292.36-.468.08-.184.12-.372.12-.564 0-.288-.088-.524-.264-.708a2.162 2.162 0 00-.684-.48 5.908 5.908 0 00-.972-.36c-.36-.112-.732-.232-1.116-.36a11.992 11.992 0 01-1.116-.444 4.084 4.084 0 01-.972-.66 3.083 3.083 0 01-.684-.972c-.168-.384-.252-.848-.252-1.392 0-.504.1-.984.3-1.44.2-.456.492-.852.876-1.188.392-.344.876-.616 1.452-.816.584-.208 1.256-.312 2.016-.312.848 0 1.62.14 2.316.42.696.28 1.276.648 1.74 1.104l-.672 1.068z"/><path fill="#282D32" d="M41.304 90.896L38.68 99h-1.128c-.139 0-.235-.09-.288-.272l-1.792-5.496a3.169 3.169 0 01-.104-.368 44.656 44.656 0 00-.08-.376l-.08.376a3.623 3.623 0 01-.104.376l-1.824 5.488c-.048.181-.155.272-.32.272h-1.072l-2.624-8.104h1.12a.44.44 0 01.28.088c.08.059.133.128.16.208l1.552 5.216c.09.384.163.747.216 1.088l.144-.536c.053-.181.11-.365.168-.552l1.712-5.248a.434.434 0 01.136-.2.395.395 0 01.248-.08h.624a.42.42 0 01.264.08c.07.053.117.12.144.2l1.672 5.248c.059.187.112.37.16.552.048.181.093.36.136.536a9.76 9.76 0 01.096-.528c.043-.181.088-.368.136-.56l1.584-5.216a.395.395 0 01.152-.208.415.415 0 01.264-.088h1.072zm2.89 0V99H42.77v-8.104h1.424zm.304-2.544c0 .139-.029.27-.087.392a1.086 1.086 0 01-.224.32c-.091.09-.2.163-.328.216a.973.973 0 01-.392.08.973.973 0 01-.704-.296 1.166 1.166 0 01-.216-.32.973.973 0 01-.08-.392c0-.139.026-.27.08-.392a.996.996 0 01.216-.328.989.989 0 01.312-.224.973.973 0 01.392-.08c.138 0 .269.027.392.08a.944.944 0 01.328.224c.096.09.17.2.224.328a.897.897 0 01.087.392zm4.524 10.776c-.64 0-1.133-.179-1.48-.536-.341-.357-.512-.872-.512-1.544v-4.96h-.976a.33.33 0 01-.216-.072c-.058-.053-.088-.133-.088-.24v-.568l1.328-.168.328-2.504a.34.34 0 01.104-.192.32.32 0 01.224-.08h.72v2.792h2.344v1.032h-2.344v4.864c0 .341.083.595.248.76a.866.866 0 00.64.248c.15 0 .278-.019.384-.056.112-.043.208-.088.288-.136.08-.048.147-.09.2-.128.059-.043.11-.064.152-.064.075 0 .142.045.2.136l.416.68c-.245.23-.541.41-.888.544a3.071 3.071 0 01-1.072.192zm4.679-7.152c.346-.368.73-.661 1.152-.88.421-.219.906-.328 1.456-.328.442 0 .832.075 1.168.224.341.144.624.352.848.624.229.267.402.59.52.968.117.379.176.797.176 1.256V99h-1.432v-5.16c0-.613-.142-1.088-.424-1.424-.278-.341-.702-.512-1.272-.512a2.41 2.41 0 00-1.184.304 3.916 3.916 0 00-1.008.824V99h-1.432V87.216H53.7v4.76z"/><mask id="a" width="75" height="76" x="203" y="29" maskUnits="userSpaceOnUse"><path fill="#fff" fill-rule="evenodd" d="M203 29.447h74.894v74.893H203V29.447z" clip-rule="evenodd"/></mask><g fill-rule="evenodd" clip-rule="evenodd" mask="url(#a)"><path fill="#fff" d="M240.386 35.49c-17.208 0-31.158 13.967-31.158 31.197 0 17.23 13.95 31.199 31.158 31.199 17.208 0 31.158-13.968 31.158-31.199 0-17.23-13.95-31.198-31.158-31.198z"/><path fill="#007A99" d="M240.447 29.25C219.766 29.25 203 46.014 203 66.695c0 20.68 16.766 37.446 37.447 37.446 20.681 0 37.447-16.765 37.447-37.446 0-20.68-16.766-37.445-37.447-37.445zm23.672 34.077c-1.279 1.296-3.335 1.317-4.591.047l-4.656-4.707c-2.019-2.041-5.323-2.007-7.38.076l-4.742 4.806a3.27 3.27 0 01-2.69.964 3.147 3.147 0 01-1.985-.927l-4.657-4.707c-2.019-2.042-5.323-2.008-7.38.076l-4.742 4.806c-1.28 1.296-3.335 1.317-4.591.047-2.019-2.041-1.989-5.385.068-7.47l9.376-9.499c2.057-2.083 5.361-2.118 7.38-.077l6.977 7.055 7.097-7.19c2.057-2.083 5.361-2.118 7.38-.076l9.204 9.306c2.019 2.042 1.989 5.386-.068 7.47zm-10.132 15.607l-9.634 9.761a5.369 5.369 0 01-7.657.004l-9.643-9.75a5.527 5.527 0 01-.004-7.75 3.34 3.34 0 014.763-.002l4.878 4.932a5.368 5.368 0 007.657-.004l4.873-4.938a3.34 3.34 0 014.763-.002 5.528 5.528 0 01.004 7.75z"/></g><circle cx="284.915" cy="91.468" r="28.085" fill="#fff"/><path fill="#007A99" fill-rule="evenodd" d="M286.849 89.862c.212.868.317 1.771.302 2.693l3.851-.466a1.559 1.559 0 011.443 2.473l-1.876 2.554c4.218 1.584 9.052-.72 9.849-5.595.67-4.097-2.065-7.933-6.06-8.6a7.234 7.234 0 00-2.51.02l.563 4.548a1.562 1.562 0 01-1.318 1.737l-4.244.636zm-8.97-4.839c3.77.63 6.416 4.08 6.137 7.911l-5.998.726a1.56 1.56 0 00-1.365 1.697l.432 4.52a7.28 7.28 0 01-1.62-.088c-3.993-.667-6.725-4.5-6.056-8.595.67-4.096 4.477-6.837 8.47-6.17zm-2.917 17.845c.816.136 1.627.173 2.42.119l.553 5.789a1.558 1.558 0 002.778.816l2.205-2.811c3.888 1.738 8.04 1.647 11.384.089 3.533-1.646 6.135-4.929 6.464-9.258 1.365-1.414 2.354-3.29 2.729-5.587.942-5.758-2.898-11.226-8.624-12.182a10.347 10.347 0 00-3.406-.003l-.709-5.728a1.557 1.557 0 00-2.799-.735l-2.125 2.87c-3.957-1.646-8.158-1.497-11.499.114-3.664 1.768-6.261 5.298-6.228 9.94a10.647 10.647 0 00-1.772 4.38c-.941 5.76 2.9 11.231 8.629 12.187zm-3.074-19.895c.754-1.687 2.102-2.983 3.797-3.8 2.752-1.328 6.449-1.39 9.923.411a1.56 1.56 0 001.971-.457l.561-.759.989 7.997-3.504.526c-1.529-2.542-4.102-4.424-7.242-4.947a10.324 10.324 0 00-6.495 1.03zm21.431 3.41a1.554 1.554 0 011.976-.971c2.293.784 3.71 3.151 3.309 5.608a5.053 5.053 0 01-2.753 3.732 1.56 1.56 0 01-2.086-.716 1.558 1.558 0 01.708-2.088 1.944 1.944 0 001.055-1.441c.159-.973-.406-1.859-1.233-2.141a1.566 1.566 0 01-.976-1.983zm3.671 13.678c-3.044 1.12-6.626.832-9.605-1.07a1.558 1.558 0 01-.418-2.24l.832-1.132-7.897.956.766 8.021.582-.742a1.56 1.56 0 011.983-.401c3.378 1.875 7.002 1.869 9.753.588 1.781-.83 3.208-2.194 4.004-3.98zm-21.926-11.158a1.56 1.56 0 00-2.255 2.155l1.231 1.29-1.064 1.115a1.56 1.56 0 102.256 2.155l4.346-4.555a1.56 1.56 0 00-2.255-2.155l-1.128 1.181-1.131-1.186z" clip-rule="evenodd"/></svg>