<svg xmlns="http://www.w3.org/2000/svg" fill="none" viewBox="0 0 24 24"><path fill="#424242" fill-rule="evenodd" d="M6.332 2C4.914 2 3.777 3.139 3.777 4.528c0 .93.509 1.748 1.275 2.188a1 1 0 01-.3 1.848A3.419 3.419 0 002 11.905v1.646h2a1 1 0 110 2H1a1 1 0 01-1-1v-2.646a5.399 5.399 0 012.685-4.664 4.49 4.49 0 01-.908-2.713C1.777 2.02 3.824 0 6.332 0c.627 0 1.228.127 1.775.357A1 1 0 017.33 2.2a2.566 2.566 0 00-1-.2zM17.5 6.21a1 1 0 011-1c2.192 0 4 1.751 4 3.948a3.9 3.9 0 01-.937 2.54c1.45.798 2.437 2.324 2.437 4.092V18a1 1 0 01-1 1h-2.5a1 1 0 110-2H22v-1.21c0-1.466-1.215-2.685-2.75-2.685h-1.5a1 1 0 110-2h.76c1.117-.005 1.99-.891 1.99-1.947 0-1.059-.879-1.947-2-1.947a1 1 0 01-1-1zM8.5 8a3 3 0 116 0 3 3 0 01-6 0zm3-5a5 5 0 100 10 5 5 0 000-10zm-1 11a6 6 0 00-6 6v3a1 1 0 001 1h12a1 1 0 001-1v-3a6 6 0 00-6-6h-2zm-4 6a4 4 0 014-4h2a4 4 0 014 4v2h-10v-2z" clip-rule="evenodd"/></svg>