<svg xmlns="http://www.w3.org/2000/svg" viewBox="0 0 76 76"><g fill="none"><path fill="#E4ECF7" d="M39 66c15.464 0 28-12.536 28-28S54.464 10 39 10 11 22.536 11 38s12.536 28 28 28z"/><path fill="#153150" d="M38.5 68C22.313 68 9 54.805 9 38.424 9 22.195 22.162 9 38.5 9S68 22.195 68 38.576C67.849 54.805 54.687 68 38.5 68zm0-55.967c-14.523 0-26.474 11.83-26.474 26.543 0 14.56 11.8 26.542 26.474 26.542s26.474-11.83 26.474-26.542c-.15-14.712-11.95-26.543-26.474-26.543z"/><path fill="#B6BFC7" d="M4.496 31h-.427c-.71-.164-1.278-1.15-.994-1.97.284-1.314.71-2.628 1.136-3.942.285-.82 1.137-1.314 1.847-.985.71.328 1.137 1.314.853 2.135-.426 1.15-.71 2.299-.995 3.612-.284.657-.852 1.15-1.42 1.15zm.77 19c-.653 0-1.306-.454-1.633-1.059C2.49 45.462 2 41.983 2 38.353c0-1.664.163-3.328.327-4.992.163-.756.98-1.361 1.796-1.361.817.151 1.47.908 1.47 1.664-.164 1.513-.327 3.025-.327 4.689 0 3.328.49 6.655 1.633 9.832.327.756-.163 1.664-1.143 1.815h-.49zm58.276 13c-.304 0-.76-.152-1.065-.456a1.629 1.629 0 01-.152-2.13c3.041-3.345 5.322-7.148 6.69-11.406.305-.76 1.217-1.217 1.977-.913.76.304 1.217 1.217.913 1.977-1.673 4.563-4.106 8.822-7.451 12.472 0 .304-.456.456-.912.456zm9.822-18h-.137c-.682-.155-1.227-.931-1.227-1.707.136-1.552.273-3.103.273-4.655v-1.086c0-.931.545-1.552 1.363-1.552.682 0 1.364.62 1.364 1.552v1.241c0 1.707-.136 3.414-.273 5.12-.136.622-.818 1.087-1.363 1.087z" opacity=".4"/><path fill="#FFC936" d="M38.5 61C50.927 61 61 51.15 61 39S50.927 17 38.5 17C26.074 17 16 26.85 16 39s10.074 22 22.5 22z"/><path fill="#FBAE28" d="M39 62c-12.68 0-23-10.545-23-23.5S26.32 15 39 15s23 10.545 23 23.5S51.68 62 39 62zm0-44.138c-11.058 0-20.051 9.19-20.051 20.487 0 11.298 8.993 20.488 20.051 20.488 11.058 0 20.051-9.19 20.051-20.488S50.058 17.862 39 17.862z"/><path fill="#000" d="M53.743 19.004a5.09 5.09 0 00-1.58.372h-.006c-.483.19-2.776 1.141-6.263 2.584l-12.496 5.193c-8.966 3.725-17.78 7.393-17.78 7.393l.105-.04s-.608.197-1.243.627a3.39 3.39 0 00-.991.947c-.312.45-.562 1.14-.47 1.854.153 1.206.945 1.929 1.514 2.328a5.048 5.048 0 001.124.593h.013l8.266 2.748c.37 1.174 2.519 8.143 3.035 9.748.305.959.6 1.558.972 2.016.179.234.389.43.641.586.131.075.271.135.416.177l-.084-.02c.025.007.046.027.064.034.068.018.114.025.2.038 1.308.39 2.36-.41 2.36-.41l.059-.048 4.88-4.384 8.179 6.192.186.078c1.705.738 3.431.328 4.344-.397a4.364 4.364 0 001.276-1.664l.06-.15 6.32-31.952c.179-.788.225-1.527.027-2.243a3.022 3.022 0 00-1.322-1.749 3.202 3.202 0 00-1.806-.451zm-.171 3.424c-.007.105.013.094-.034.296v.018l-6.262 31.62c-.027.044-.072.143-.198.242-.132.103-.237.168-.787-.047l-10.004-7.568-6.042 5.435 1.27-8.001L47.858 29.39c.673-.618.448-.748.448-.748.048-.759-1.017-.222-1.017-.222L26.68 41.019l-.007-.034-9.879-3.282v-.006l-.025-.005a.46.46 0 00.05-.02l.055-.027.052-.019s8.821-3.668 17.787-7.392c4.49-1.866 9.012-3.745 12.49-5.195 3.48-1.442 6.05-2.499 6.196-2.556.139-.053.073-.053.173-.053v-.002z"/><path fill="#25B9E6" d="M53.572 22.428c-.007.105.013.094-.034.296v.018l-6.262 31.62c-.027.044-.072.143-.198.242-.132.103-.237.168-.787-.047l-10.004-7.568-6.042 5.435 1.27-8.001L47.858 29.39c.673-.618.448-.748.448-.748.048-.759-1.017-.222-1.017-.222L26.68 41.019l-.007-.034-9.879-3.282v-.006l-.025-.005a.46.46 0 00.05-.02l.055-.027.052-.019s8.821-3.668 17.787-7.392c4.49-1.866 9.012-3.745 12.49-5.195 3.48-1.442 6.05-2.499 6.196-2.556.139-.053.073-.053.173-.053v-.002z"/></g></svg>