<svg xmlns="http://www.w3.org/2000/svg" viewBox="0 0 24 24"><path fill-rule="evenodd" d="M20.566 2.237l-2.974 2.974a.979.979 0 001.383 1.384l2.902-2.902c.496-.495 1.364-.323 1.632.325a6.5 6.5 0 01-7.305 8.852l-3.333 3.334a6.5 6.5 0 01-8.853 7.305 1.01 1.01 0 01-.325-1.631l2.683-2.684a.979.979 0 00-1.383-1.384l-2.755 2.756a1.01 1.01 0 01-1.61-.278 6.5 6.5 0 017.473-9.09l3.098-3.097a6.5 6.5 0 019.09-7.474 1.01 1.01 0 01.277 1.61zm-2.613-.215c-3.184-.317-5.787 2.988-4.682 6.019a1 1 0 01-.233 1.049L9.09 13.037a1 1 0 01-1.05.233c-3-1.093-6.34 1.444-6.017 4.682l1.555-1.555a2.979 2.979 0 014.213 4.211l-1.39 1.39c3.004.066 5.266-2.978 4.405-5.81a1 1 0 01.25-.997l4.134-4.135a1 1 0 01.999-.25c2.831.86 5.874-1.401 5.81-4.406l-1.61 1.609a2.979 2.979 0 01-4.212-4.211l1.776-1.776z" clip-rule="evenodd"/></svg>