<svg xmlns="http://www.w3.org/2000/svg" width="45" height="45" fill="none"><path fill="#55B6E2" d="M0 11.25C0 5.037 5.037 0 11.25 0h22.5C39.963 0 45 5.037 45 11.25v22.5C45 39.963 39.963 45 33.75 45h-22.5C5.037 45 0 39.963 0 33.75v-22.5z"/><path stroke="#fff" stroke-linecap="round" stroke-linejoin="round" stroke-width="1.76" d="M29.93 22.028h3.97v3.747l7.303-5.674L33.9 14v2.943m-18.927 9.071h-3.671v-3.746L4 27.942l7.302 6.1V31.1"/><path stroke="#fff" stroke-linecap="round" stroke-linejoin="round" stroke-width=".855" d="M21.797 16.65c.622-2.047 3.858-1.464 3.959.57M20 15c.3-.81 1.46-1.61 2.212-1.883a4.049 4.049 0 014.72 6.099M15.5 21.5c-1 0-.885-.162-1.192-.902a4.049 4.049 0 117.738-.886m-5.906-.377c-.303-2.118 2.672-2.979 3.625-1.179"/><path fill="#55B6E2" d="M14.618 24.21A3.027 3.027 0 0117 20.657l8.912-1.644A3.022 3.022 0 0129.46 21.4l1.165 5.94a3.027 3.027 0 01-2.383 3.554l-8.912 1.644a3.022 3.022 0 01-3.548-2.387l-1.165-5.94z"/><path fill="#55B6E2" d="M25.596 25.245a1.513 1.513 0 011.19-1.777l2.966-.583.583 2.97-2.966.584a1.511 1.511 0 01-1.773-1.194z"/><path stroke="#fff" stroke-linecap="round" stroke-linejoin="round" stroke-width="1.496" d="M14.618 24.21A3.027 3.027 0 0117 20.657l8.912-1.644A3.022 3.022 0 0129.46 21.4l1.165 5.94a3.027 3.027 0 01-2.383 3.554l-8.912 1.644a3.022 3.022 0 01-3.548-2.387l-1.165-5.94z"/><path stroke="#fff" stroke-linecap="round" stroke-linejoin="round" stroke-width="1.496" d="M25.596 25.245a1.513 1.513 0 011.19-1.777l2.966-.583.583 2.97-2.966.584a1.511 1.511 0 01-1.773-1.194z"/></svg>