<svg xmlns="http://www.w3.org/2000/svg" fill="none" viewBox="0 0 24 24"><path fill="#424242" fill-rule="evenodd" d="M20.139 7.293a1 1 0 00-1.415 0l-3.535 3.535a1 1 0 000 1.415l3.568 3.568a1 1 0 001.415 0l1.112-1.113.095.095a1 1 0 010 1.414l-2.922 2.922a1 1 0 01-1.414 0l-.6-.6a3 3 0 00-4.345.11l-2.824 3.12A.732.732 0 018 21.27v-.402a3 3 0 001.335-.849l3.885-4.273a3 3 0 00.78-2.018V3a3 3 0 00-3-3H3a3 3 0 00-3 3v10.727a3 3 0 00.78 2.018l3.885 4.273A3 3 0 006 20.867v.401a2.732 2.732 0 004.757 1.833l2.824-3.121a1 1 0 011.449-.036l.599.599a3 3 0 004.242 0l2.922-2.922a3 3 0 000-4.242l-.095-.095 1.01-1.008a1 1 0 000-1.415l-3.57-3.568zM7.115 19h-.23a1 1 0 01-.74-.327L2.26 14.4a1 1 0 01-.26-.673V3a1 1 0 011-1h8a1 1 0 011 1v10.727a1 1 0 01-.26.672l-3.885 4.274a1 1 0 01-.74.327zm10.195-7.464l2.121-2.122 2.155 2.155-2.121 2.12-2.155-2.153zM11 5a1 1 0 00-1-1H4a1 1 0 00-1 1v4a1 1 0 001 1h6a1 1 0 001-1V5zM5 6h4v2H5V6z" clip-rule="evenodd"/></svg>