<svg xmlns="http://www.w3.org/2000/svg" viewBox="0 0 345 150"><rect width="345" height="150" fill="#fff" rx="3"/><path fill="#163150" d="M38.72 69.624c.728 0 1.36-.064 1.896-.192a8.262 8.262 0 001.548-.552v-3.156h-2.172c-.208 0-.372-.056-.492-.168a.59.59 0 01-.18-.432V63.3h5.772v7.02c-.44.32-.9.6-1.38.84-.472.232-.98.424-1.524.576-.536.152-1.112.264-1.728.336a15.5 15.5 0 01-1.992.12c-1.264 0-2.428-.22-3.492-.66a8.297 8.297 0 01-2.76-1.836 8.436 8.436 0 01-1.824-2.808c-.432-1.088-.648-2.276-.648-3.564 0-1.304.212-2.5.636-3.588a8.14 8.14 0 011.8-2.808c.784-.784 1.732-1.392 2.844-1.824 1.112-.432 2.36-.648 3.744-.648 1.416 0 2.64.212 3.672.636 1.04.416 1.92.96 2.64 1.632l-.936 1.464c-.184.296-.428.444-.732.444-.192 0-.388-.064-.588-.192a34.87 34.87 0 00-.792-.456 5.04 5.04 0 00-.888-.396 7.001 7.001 0 00-1.092-.276 7.936 7.936 0 00-1.392-.108c-.856 0-1.632.144-2.328.432-.688.288-1.276.7-1.764 1.236a5.571 5.571 0 00-1.128 1.932c-.264.752-.396 1.592-.396 2.52 0 1 .14 1.892.42 2.676.28.776.672 1.432 1.176 1.968a5.134 5.134 0 001.8 1.236c.696.28 1.456.42 2.28.42zm14.296-10.128a5.93 5.93 0 012.136.372c.656.248 1.22.612 1.692 1.092.472.472.84 1.056 1.104 1.752.264.688.396 1.476.396 2.364 0 .224-.012.412-.036.564a.812.812 0 01-.108.348.448.448 0 01-.204.18.997.997 0 01-.336.048h-7.608c.088 1.264.428 2.192 1.02 2.784.592.592 1.376.888 2.352.888.48 0 .892-.056 1.236-.168a5.52 5.52 0 00.912-.372 15.1 15.1 0 00.684-.372c.2-.112.392-.168.576-.168.12 0 .224.024.312.072a.69.69 0 01.228.204l.864 1.08a5.072 5.072 0 01-1.104.972 6.562 6.562 0 01-1.284.624c-.44.152-.892.26-1.356.324a9.58 9.58 0 01-1.332.096 6.66 6.66 0 01-2.388-.42 5.453 5.453 0 01-1.92-1.26c-.544-.56-.972-1.248-1.284-2.064-.312-.824-.468-1.776-.468-2.856 0-.84.136-1.628.408-2.364a5.672 5.672 0 011.164-1.932 5.546 5.546 0 011.86-1.308c.736-.32 1.564-.48 2.484-.48zm.06 2.124c-.864 0-1.54.244-2.028.732s-.8 1.18-.936 2.076h5.568c0-.384-.052-.744-.156-1.08a2.498 2.498 0 00-.48-.9 2.213 2.213 0 00-.816-.6c-.328-.152-.712-.228-1.152-.228zm11.716 10.572c-1.064 0-1.884-.3-2.46-.9-.576-.608-.864-1.444-.864-2.508v-6.876H60.22c-.16 0-.3-.052-.42-.156-.112-.104-.168-.26-.168-.468v-1.176l1.98-.324.624-3.36a.604.604 0 01.216-.372.73.73 0 01.444-.132h1.536v3.876h3.24v2.112h-3.24v6.672c0 .384.096.684.288.9.192.216.448.324.768.324.184 0 .336-.02.456-.06.128-.048.236-.096.324-.144.096-.048.18-.092.252-.132a.387.387 0 01.216-.072.32.32 0 01.216.072.85.85 0 01.18.192l.888 1.44c-.432.36-.928.632-1.488.816-.56.184-1.14.276-1.74.276zm14.246 3.192a1.075 1.075 0 01-.348.468c-.136.112-.348.168-.636.168h-2.208l2.304-4.932-4.98-11.4h2.592c.24 0 .424.056.552.168.128.112.224.24.288.384l2.628 6.384c.088.208.164.424.228.648.064.224.12.448.168.672.064-.232.132-.456.204-.672.08-.216.164-.436.252-.66l2.472-6.372a.873.873 0 01.816-.552h2.376l-6.708 15.696zm13.286-15.888c.92 0 1.752.148 2.496.444a5.384 5.384 0 011.92 1.26c.528.544.936 1.208 1.224 1.992.288.784.432 1.66.432 2.628 0 .976-.144 1.856-.432 2.64a5.7 5.7 0 01-1.224 2.004 5.307 5.307 0 01-1.92 1.272c-.744.296-1.576.444-2.496.444-.92 0-1.756-.148-2.508-.444a5.424 5.424 0 01-1.932-1.272 5.845 5.845 0 01-1.236-2.004c-.288-.784-.432-1.664-.432-2.64 0-.968.144-1.844.432-2.628.296-.784.708-1.448 1.236-1.992a5.504 5.504 0 011.932-1.26c.752-.296 1.588-.444 2.508-.444zm0 10.404c1.024 0 1.78-.344 2.268-1.032.496-.688.744-1.696.744-3.024s-.248-2.34-.744-3.036c-.488-.696-1.244-1.044-2.268-1.044-1.04 0-1.808.352-2.304 1.056-.496.696-.744 1.704-.744 3.024s.248 2.328.744 3.024c.496.688 1.264 1.032 2.304 1.032zm11.097-10.212v7.824c0 .752.172 1.336.516 1.752.352.408.876.612 1.572.612.512 0 .992-.112 1.44-.336a5.16 5.16 0 001.272-.948v-8.904h2.964V72h-1.812c-.384 0-.636-.18-.756-.54l-.204-.984c-.256.256-.52.492-.792.708a5.154 5.154 0 01-.876.54 4.701 4.701 0 01-.996.336 4.69 4.69 0 01-1.14.132c-.672 0-1.268-.112-1.788-.336a3.642 3.642 0 01-1.296-.972 4.315 4.315 0 01-.804-1.476 6.465 6.465 0 01-.264-1.896v-7.824h2.964zM114.35 72V59.688h1.74c.304 0 .516.056.636.168.12.112.2.304.24.576l.18 1.488c.44-.76.956-1.36 1.548-1.8a3.257 3.257 0 011.992-.66c.608 0 1.112.14 1.512.42l-.384 2.22c-.024.144-.076.248-.156.312a.556.556 0 01-.324.084 2.02 2.02 0 01-.492-.084 3.293 3.293 0 00-.828-.084c-.616 0-1.144.172-1.584.516-.44.336-.812.832-1.116 1.488V72h-2.964z"/><path fill="#282D32" d="M30.168 99V87.216h1.424v4.768c.347-.368.73-.661 1.152-.88.421-.224.907-.336 1.456-.336.443 0 .832.075 1.168.224.341.144.624.352.848.624.23.267.403.59.52.968.117.379.176.797.176 1.256V99h-1.424v-5.16c0-.613-.141-1.088-.424-1.424-.277-.341-.704-.512-1.28-.512-.421 0-.816.101-1.184.304a3.913 3.913 0 00-1.008.824V99h-1.424zm14.843 0h-.632a.754.754 0 01-.336-.064c-.086-.043-.142-.133-.168-.272l-.16-.752c-.214.192-.422.365-.624.52-.203.15-.416.277-.64.384a3.446 3.446 0 01-.72.232c-.251.053-.531.08-.84.08-.315 0-.611-.043-.888-.128a1.938 1.938 0 01-1.2-1.064 2.41 2.41 0 01-.176-.96c0-.32.088-.627.264-.92.176-.299.458-.563.848-.792.394-.23.909-.416 1.544-.56.634-.15 1.41-.235 2.328-.256v-.632c0-.63-.136-1.104-.408-1.424-.267-.325-.664-.488-1.192-.488a2.5 2.5 0 00-.88.136c-.235.085-.44.184-.616.296-.171.107-.32.205-.448.296a.641.641 0 01-.368.128.463.463 0 01-.256-.072.642.642 0 01-.168-.192l-.256-.456c.448-.432.93-.755 1.448-.968a4.472 4.472 0 011.72-.32c.453 0 .856.075 1.208.224.352.15.648.357.888.624s.421.59.544.968c.122.379.184.795.184 1.248V99zm-3.696-.872c.25 0 .48-.024.688-.072.208-.053.402-.125.584-.216.186-.096.362-.21.528-.344a4.36 4.36 0 00.496-.456v-1.688c-.656.021-1.214.075-1.672.16-.459.08-.832.187-1.12.32-.288.133-.499.29-.632.472a1.03 1.03 0 00-.192.608c0 .213.034.397.104.552.069.155.162.283.28.384.117.096.256.168.416.216.16.043.333.064.52.064zm5.853.872v-8.104h.816c.155 0 .261.03.32.088.059.059.099.16.12.304l.096 1.264c.277-.565.619-1.005 1.024-1.32.41-.32.89-.48 1.44-.48.224 0 .427.027.608.08.181.048.35.117.504.208l-.184 1.064c-.037.133-.12.2-.248.2-.075 0-.19-.024-.344-.072-.155-.053-.37-.08-.648-.08-.496 0-.912.144-1.248.432-.33.288-.608.707-.832 1.256V99h-1.424zm12.157 0c-.203 0-.33-.099-.384-.296l-.128-.984a4.3 4.3 0 01-1.192 1.016c-.443.25-.952.376-1.528.376-.464 0-.885-.088-1.264-.264a2.659 2.659 0 01-.968-.792c-.267-.347-.472-.779-.616-1.296-.144-.517-.216-1.112-.216-1.784 0-.597.08-1.152.24-1.664.16-.517.39-.965.688-1.344a3.214 3.214 0 012.576-1.216c.496 0 .92.085 1.272.256.352.165.667.4.944.704v-4.496h1.424V99h-.848zm-2.76-1.04c.464 0 .87-.107 1.216-.32.352-.213.675-.515.968-.904v-3.92c-.261-.352-.55-.597-.864-.736a2.416 2.416 0 00-1.032-.216c-.757 0-1.339.27-1.744.808-.405.539-.608 1.307-.608 2.304 0 .528.046.981.136 1.36.09.373.224.683.4.928.176.24.392.416.648.528.256.112.55.168.88.168zm4.938-7.064h1.12a.44.44 0 01.44.296l1.552 5.216.12.56c.037.176.069.355.096.536.042-.181.09-.36.144-.536.053-.181.109-.368.168-.56l1.712-5.248a.434.434 0 01.136-.2.408.408 0 01.256-.08h.616a.42.42 0 01.264.08c.069.053.117.12.144.2l1.672 5.248c.058.187.109.37.152.552.048.181.093.36.136.536a8.702 8.702 0 01.24-1.088l1.584-5.216a.395.395 0 01.152-.208.415.415 0 01.264-.088h1.072L70.919 99H69.79c-.139 0-.235-.09-.288-.272l-1.792-5.496a3.189 3.189 0 01-.104-.368 41.018 41.018 0 00-.08-.376 49 49 0 00-.08.376 3 3 0 01-.104.376l-1.816 5.488c-.059.181-.168.272-.328.272h-1.072l-2.624-8.104zM80.76 99h-.632a.754.754 0 01-.336-.064c-.086-.043-.142-.133-.168-.272l-.16-.752c-.214.192-.422.365-.624.52-.203.15-.416.277-.64.384a3.446 3.446 0 01-.72.232c-.251.053-.531.08-.84.08-.315 0-.611-.043-.888-.128a1.938 1.938 0 01-1.2-1.064 2.41 2.41 0 01-.176-.96c0-.32.088-.627.264-.92.176-.299.458-.563.848-.792.394-.23.909-.416 1.544-.56.634-.15 1.41-.235 2.328-.256v-.632c0-.63-.136-1.104-.408-1.424-.267-.325-.664-.488-1.192-.488a2.5 2.5 0 00-.88.136c-.235.085-.44.184-.616.296-.171.107-.32.205-.448.296a.641.641 0 01-.368.128.463.463 0 01-.256-.072.642.642 0 01-.168-.192l-.256-.456c.448-.432.93-.755 1.448-.968a4.472 4.472 0 011.72-.32c.453 0 .856.075 1.208.224.352.15.648.357.888.624s.421.59.544.968c.122.379.184.795.184 1.248V99zm-3.696-.872c.25 0 .48-.024.688-.072.208-.053.402-.125.584-.216.186-.096.362-.21.528-.344a4.36 4.36 0 00.496-.456v-1.688c-.656.021-1.214.075-1.672.16-.459.08-.832.187-1.12.32-.288.133-.499.29-.632.472a1.03 1.03 0 00-.192.608c0 .213.034.397.104.552.069.155.162.283.28.384.117.096.256.168.416.216.16.043.333.064.52.064zm5.853.872v-8.104h.816c.155 0 .261.03.32.088.059.059.099.16.12.304l.096 1.264c.277-.565.619-1.005 1.024-1.32.41-.32.89-.48 1.44-.48.224 0 .427.027.608.08.181.048.35.117.504.208l-.184 1.064c-.037.133-.12.2-.248.2-.075 0-.19-.024-.344-.072-.155-.053-.37-.08-.648-.08-.496 0-.912.144-1.248.432-.33.288-.608.707-.832 1.256V99h-1.424zm9.661-8.232c.486 0 .934.083 1.344.248.41.16.766.395 1.064.704.299.304.53.683.696 1.136.17.448.256.96.256 1.536 0 .224-.024.373-.072.448-.048.075-.139.112-.272.112h-5.392c.01.512.08.957.208 1.336.128.379.304.696.528.952.224.25.49.44.8.568a2.8 2.8 0 001.04.184c.358 0 .664-.04.92-.12a4.598 4.598 0 001.136-.536c.128-.085.238-.128.328-.128.118 0 .208.045.272.136l.4.52c-.176.213-.386.4-.632.56-.245.155-.51.283-.792.384a4.672 4.672 0 01-.864.224c-.298.053-.594.08-.888.08-.56 0-1.077-.093-1.552-.28A3.515 3.515 0 0189.883 98a3.892 3.892 0 01-.8-1.36c-.192-.539-.288-1.157-.288-1.856 0-.565.085-1.093.256-1.584a3.75 3.75 0 01.752-1.272 3.376 3.376 0 011.192-.848 3.87 3.87 0 011.584-.312zm.032 1.048c-.688 0-1.23.2-1.624.6-.394.395-.64.944-.736 1.648h4.408c0-.33-.045-.632-.136-.904a1.976 1.976 0 00-.4-.712 1.722 1.722 0 00-.648-.464 2.098 2.098 0 00-.864-.168zm7.188-.92h1.121c.117 0 .213.03.288.088a.447.447 0 01.152.208l1.552 5.216.12.56c.037.176.069.355.096.536.042-.181.09-.36.144-.536.053-.181.109-.368.168-.56l1.712-5.248a.429.429 0 01.136-.2.406.406 0 01.256-.08h.616c.106 0 .194.027.264.08.069.053.117.12.144.2l1.672 5.248c.058.187.109.37.152.552.048.181.093.36.136.536a7.65 7.65 0 01.104-.552c.042-.192.088-.37.136-.536l1.584-5.216a.39.39 0 01.152-.208.412.412 0 01.264-.088h1.072L109.216 99h-1.128c-.139 0-.235-.09-.288-.272l-1.792-5.496a2.983 2.983 0 01-.104-.368l-.08-.376a24.4 24.4 0 00-.08.376 3.2 3.2 0 01-.104.376l-1.816 5.488c-.059.181-.168.272-.328.272h-1.072l-2.625-8.104zM119.058 99h-.632a.752.752 0 01-.336-.064c-.086-.043-.142-.133-.168-.272l-.16-.752a10.48 10.48 0 01-.624.52c-.203.15-.416.277-.64.384a3.446 3.446 0 01-.72.232c-.251.053-.531.08-.84.08-.315 0-.611-.043-.889-.128a2.07 2.07 0 01-.711-.4 1.924 1.924 0 01-.488-.664 2.398 2.398 0 01-.176-.96c0-.32.088-.627.264-.92.176-.299.458-.563.848-.792.394-.23.909-.416 1.544-.56.634-.15 1.41-.235 2.328-.256v-.632c0-.63-.136-1.104-.408-1.424-.267-.325-.664-.488-1.192-.488a2.5 2.5 0 00-.88.136 3.14 3.14 0 00-.616.296c-.171.107-.32.205-.448.296a.644.644 0 01-.368.128.461.461 0 01-.256-.072.624.624 0 01-.168-.192l-.256-.456a4.62 4.62 0 011.448-.968 4.468 4.468 0 011.72-.32c.453 0 .856.075 1.208.224.352.15.648.357.888.624s.421.59.544.968c.122.379.184.795.184 1.248V99zm-3.696-.872c.25 0 .48-.024.687-.072.209-.053.403-.125.585-.216.186-.096.362-.21.528-.344a4.36 4.36 0 00.496-.456v-1.688c-.656.021-1.214.075-1.672.16-.459.08-.832.187-1.12.32-.288.133-.499.29-.632.472a1.03 1.03 0 00-.192.608c0 .213.034.397.104.552.069.155.162.283.28.384.117.096.256.168.416.216.16.043.333.064.52.064zm7.437-10.912V99h-1.424V87.216h1.424zm4.094 0V99h-1.424V87.216h1.424zm5.717 3.552c.486 0 .934.083 1.344.248.411.16.766.395 1.064.704.299.304.531.683.696 1.136.171.448.256.96.256 1.536 0 .224-.024.373-.072.448-.048.075-.138.112-.272.112h-5.392c.011.512.08.957.208 1.336.128.379.304.696.528.952.224.25.491.44.8.568.31.123.656.184 1.04.184.358 0 .664-.04.92-.12.262-.085.486-.176.672-.272a5.17 5.17 0 00.464-.264c.128-.085.238-.128.328-.128.118 0 .208.045.272.136l.4.52a2.77 2.77 0 01-.632.56 4.008 4.008 0 01-.792.384 4.66 4.66 0 01-.864.224c-.298.053-.594.08-.888.08-.56 0-1.077-.093-1.552-.28a3.52 3.52 0 01-1.224-.832 3.896 3.896 0 01-.8-1.36c-.192-.539-.288-1.157-.288-1.856 0-.565.086-1.093.256-1.584a3.75 3.75 0 01.752-1.272 3.384 3.384 0 011.192-.848c.47-.208.998-.312 1.584-.312zm.032 1.048c-.688 0-1.229.2-1.624.6-.394.395-.64.944-.736 1.648h4.408c0-.33-.045-.632-.136-.904a1.968 1.968 0 00-.4-.712 1.722 1.722 0 00-.648-.464 2.094 2.094 0 00-.864-.168zm7.607 7.312c-.64 0-1.133-.179-1.48-.536-.341-.357-.512-.872-.512-1.544v-4.96h-.976a.331.331 0 01-.216-.072c-.059-.053-.088-.133-.088-.24v-.568l1.328-.168.328-2.504a.287.287 0 01.104-.192.32.32 0 01.224-.08h.72v2.792h2.32v1.032h-2.32v4.864c0 .341.083.595.248.76a.866.866 0 00.64.248c.149 0 .277-.019.384-.056.112-.043.208-.088.288-.136.08-.048.147-.09.2-.128.059-.043.109-.064.152-.064.075 0 .141.045.2.136l.416.68c-.245.23-.541.41-.888.544a3.073 3.073 0 01-1.072.192z"/><path d="M192.507 55.504c-5.386 0-9.752 4.367-9.752 9.753v3.646c-1.891.338-3.798.805-3.798 1.402V89.41s0 .536.584.768c2.154.858 10.614 3.856 12.555 4.543.256.09.31.088.399.088.093 0 .141.003.395-.087 1.938-.685 10.427-3.691 12.568-4.539.556-.22.572-.765.572-.765V70.306c0-.597-1.881-1.065-3.771-1.403v-3.646c0-5.386-4.366-9.753-9.752-9.753zm0 4.661c3.168 0 5.095 1.924 5.095 5.092v3.176a66.584 66.584 0 00-10.194 0v-3.176c0-3.168 1.931-5.092 5.099-5.092zm-.013 12.958c4.432.007 8.158.337 8.158.968v11.904c0 .174-.028.203-.193.266-.164.062-7.576 2.741-7.576 2.741s-.305.101-.388.101c-.095 0-.4-.105-.4-.105s-7.409-2.676-7.575-2.74c-.167-.062-.188-.094-.188-.27V74.092c0-.648 3.731-.975 8.162-.968zm26.098 13.04V73.121h-4.754v-4.675h14.849v4.675h-4.729v13.042h-5.366zm22.129 0l-2.444-5.578h-1.939v5.578h-5.365V68.445h9.456c4.143 0 6.375 2.763 6.375 6.083 0 3.056-1.78 4.675-3.187 5.366l3.214 6.269h-6.11zm.637-11.662c0-.955-.85-1.381-1.753-1.381h-3.267v2.79h3.267c.903-.001 1.753-.425 1.753-1.409zm8.257 11.662V68.445h13.441v4.676h-8.075v1.753h7.89v4.675h-7.89v1.939h8.075v4.675h-13.441zm16.233.003v-4.25l6.746-8.792h-6.746v-4.675h13.839v4.223l-6.774 8.82h6.959v4.674h-14.024zm15.338-8.845c0-5.445 4.223-9.164 9.695-9.164 5.471 0 9.696 3.719 9.696 9.164s-4.225 9.164-9.696 9.164c-5.472 0-9.695-3.719-9.695-9.164zm13.945 0c0-2.47-1.673-4.436-4.25-4.436s-4.251 1.966-4.251 4.436c0 2.47 1.674 4.436 4.251 4.436 2.576 0 4.25-1.966 4.25-4.436zm17.483 8.845l-2.443-5.578h-1.94v5.579h-5.366V68.448h9.457c4.144 0 6.376 2.762 6.376 6.082 0 3.056-1.78 4.676-3.188 5.367l3.214 6.269h-6.11zm.638-11.661c0-.956-.85-1.381-1.754-1.381h-3.267v2.788h3.267c.903 0 1.754-.424 1.754-1.407z"/></svg>