<svg xmlns="http://www.w3.org/2000/svg" viewBox="0 0 1200 120"><path fill="#fff" d="M0 0h1200v120H0z"/><mask id="a" width="1200" height="120" x="0" y="0" maskUnits="userSpaceOnUse"><path fill="#fff" d="M0 0h1200v120H0z"/></mask><g filter="url(#filter0_d)" mask="url(#a)"><ellipse cx="792.5" cy="60" fill="url(#paint0_linear)" rx="434.5" ry="252"/></g><path fill="#fff" d="M477.225 72.545c1.365 0 2.55-.12 3.555-.36 1.02-.255 1.988-.6 2.903-1.035v-5.918h-4.073c-.39 0-.697-.105-.922-.314a1.105 1.105 0 01-.338-.81v-3.42h10.823V73.85c-.825.6-1.688 1.125-2.588 1.575-.885.435-1.837.795-2.857 1.08a20.666 20.666 0 01-3.24.63c-1.155.15-2.4.225-3.735.225-2.37 0-4.553-.412-6.548-1.237-1.995-.826-3.72-1.973-5.175-3.443-1.455-1.47-2.595-3.225-3.42-5.265-.81-2.04-1.215-4.268-1.215-6.683 0-2.444.398-4.687 1.193-6.727s1.92-3.795 3.375-5.265c1.47-1.47 3.247-2.61 5.332-3.42s4.425-1.215 7.02-1.215c2.655 0 4.95.398 6.885 1.193 1.95.78 3.6 1.8 4.95 3.06l-1.755 2.745c-.345.554-.802.832-1.372.832-.36 0-.728-.12-1.103-.36a65.38 65.38 0 00-1.485-.855 9.45 9.45 0 00-1.665-.742 13.12 13.12 0 00-2.047-.518c-.75-.135-1.62-.203-2.61-.203-1.605 0-3.06.27-4.365.81a9.235 9.235 0 00-3.308 2.318c-.915 1.005-1.62 2.212-2.115 3.623-.495 1.41-.742 2.984-.742 4.724 0 1.876.262 3.548.787 5.018.525 1.455 1.26 2.685 2.205 3.69a9.626 9.626 0 003.375 2.317c1.305.525 2.73.788 4.275.788zm26.805-18.99c1.455 0 2.79.233 4.005.697a8.701 8.701 0 013.172 2.048c.885.885 1.575 1.98 2.07 3.285.495 1.29.743 2.767.743 4.432 0 .42-.023.773-.068 1.058-.03.27-.097.487-.202.653a.84.84 0 01-.383.337c-.165.06-.375.09-.63.09h-14.265c.165 2.37.803 4.11 1.913 5.22 1.11 1.11 2.58 1.665 4.41 1.665.9 0 1.672-.105 2.317-.315.66-.21 1.23-.442 1.71-.697.495-.256.923-.488 1.283-.698.375-.21.735-.315 1.08-.315.225 0 .42.045.585.135a1.3 1.3 0 01.427.382l1.62 2.026a9.51 9.51 0 01-2.07 1.822 12.3 12.3 0 01-2.407 1.17 13.44 13.44 0 01-2.543.608c-.855.12-1.687.18-2.497.18-1.605 0-3.098-.263-4.478-.788a10.224 10.224 0 01-3.6-2.362c-1.02-1.05-1.822-2.34-2.407-3.87-.585-1.546-.878-3.33-.878-5.355 0-1.575.255-3.053.765-4.433.51-1.395 1.238-2.602 2.183-3.623.96-1.034 2.122-1.852 3.487-2.452 1.38-.6 2.933-.9 4.658-.9zm.112 3.983c-1.62 0-2.887.457-3.802 1.372s-1.5 2.213-1.755 3.893h10.44c0-.72-.098-1.395-.293-2.025a4.685 4.685 0 00-.9-1.688 4.149 4.149 0 00-1.53-1.125c-.615-.285-1.335-.428-2.16-.428zM526.11 77.36c-1.995 0-3.532-.563-4.612-1.688-1.08-1.14-1.62-2.707-1.62-4.702V58.078h-2.34c-.3 0-.563-.098-.788-.293-.21-.195-.315-.487-.315-.877v-2.206l3.713-.607 1.17-6.3c.06-.3.195-.532.405-.698.225-.165.502-.247.832-.247h2.88v7.267h6.075v3.96h-6.075v12.51c0 .72.18 1.283.54 1.688.36.405.84.607 1.44.607.345 0 .63-.037.855-.112.24-.09.443-.18.608-.27.18-.09.337-.172.472-.248a.726.726 0 01.405-.134.6.6 0 01.405.135c.105.075.218.195.338.36l1.665 2.7a8.413 8.413 0 01-2.79 1.53c-1.05.344-2.138.517-3.263.517zm36.611-.36h-2.497c-.525 0-.938-.075-1.238-.225-.3-.165-.525-.488-.675-.968l-.495-1.642c-.585.525-1.162.99-1.732 1.395-.555.39-1.133.72-1.733.99a8.89 8.89 0 01-1.912.608c-.675.135-1.425.202-2.25.202-.975 0-1.875-.127-2.7-.382a6.071 6.071 0 01-2.138-1.193 5.427 5.427 0 01-1.372-1.957c-.33-.78-.495-1.688-.495-2.723 0-.87.225-1.725.675-2.565.465-.855 1.23-1.62 2.295-2.295 1.065-.69 2.482-1.26 4.252-1.71 1.77-.45 3.968-.705 6.593-.765v-1.35c0-1.545-.33-2.685-.99-3.42-.645-.75-1.59-1.125-2.835-1.125-.9 0-1.65.105-2.25.315-.6.21-1.125.45-1.575.72-.435.255-.84.488-1.215.698-.375.21-.788.315-1.238.315-.375 0-.697-.098-.967-.293a2.304 2.304 0 01-.653-.72l-1.012-1.777c2.655-2.43 5.857-3.646 9.607-3.646 1.35 0 2.55.225 3.6.675 1.065.435 1.965 1.05 2.7 1.846.735.78 1.29 1.717 1.665 2.812.39 1.095.585 2.295.585 3.6V77zm-10.8-3.465c.57 0 1.095-.052 1.575-.157.48-.106.93-.263 1.35-.473.435-.21.848-.465 1.238-.765.405-.315.81-.683 1.215-1.103v-3.892c-1.62.075-2.978.218-4.073.428-1.08.195-1.95.45-2.61.765-.66.315-1.132.682-1.417 1.102-.27.42-.405.877-.405 1.373 0 .974.285 1.672.855 2.092.585.42 1.342.63 2.272.63zm48.208-29.07v4.972h-9.787V77h-6.053V49.437h-9.832v-4.972h25.672zM600.046 77V53.915h3.263c.57 0 .967.105 1.192.315.225.21.375.57.45 1.08l.338 2.79c.825-1.425 1.792-2.55 2.902-3.375a6.108 6.108 0 013.735-1.238c1.14 0 2.085.263 2.835.788l-.72 4.163c-.045.27-.142.465-.292.584-.15.105-.353.158-.608.158-.225 0-.532-.053-.922-.157-.39-.106-.908-.158-1.553-.158-1.155 0-2.145.322-2.97.968-.825.63-1.522 1.56-2.092 2.79V77h-5.558zm27.909-23.445c1.455 0 2.79.233 4.005.697a8.705 8.705 0 013.173 2.048c.885.885 1.575 1.98 2.07 3.285.495 1.29.742 2.767.742 4.432 0 .42-.022.773-.067 1.058-.03.27-.098.487-.203.653a.838.838 0 01-.382.337c-.165.06-.375.09-.63.09h-14.265c.165 2.37.802 4.11 1.912 5.22 1.11 1.11 2.58 1.665 4.41 1.665.9 0 1.673-.105 2.318-.315.66-.21 1.23-.442 1.71-.697.495-.256.922-.488 1.282-.698.375-.21.735-.315 1.08-.315.225 0 .42.045.585.135.165.09.308.218.428.382l1.62 2.026a9.51 9.51 0 01-2.07 1.822c-.765.48-1.568.87-2.408 1.17a13.43 13.43 0 01-2.542.608c-.855.12-1.688.18-2.498.18-1.605 0-3.097-.263-4.477-.788a10.224 10.224 0 01-3.6-2.362c-1.02-1.05-1.823-2.34-2.408-3.87-.585-1.546-.877-3.33-.877-5.355 0-1.575.255-3.053.765-4.433.51-1.395 1.237-2.602 2.182-3.623.96-1.034 2.123-1.852 3.488-2.452 1.38-.6 2.932-.9 4.657-.9zm.113 3.983c-1.62 0-2.888.457-3.803 1.372s-1.5 2.213-1.755 3.893h10.44c0-.72-.097-1.395-.292-2.025a4.685 4.685 0 00-.9-1.688 4.149 4.149 0 00-1.53-1.125c-.615-.285-1.335-.428-2.16-.428zm31.08-1.328c0 .39-.075.773-.225 1.148-.135.36-.3.667-.495.922l-10.98 14.445h11.385V77h-17.842v-2.317c0-.256.06-.556.18-.9.12-.36.307-.698.562-1.013l11.07-14.602h-11.16v-4.253h17.505v2.295zm14.298-2.655c1.725 0 3.285.278 4.68.833 1.41.555 2.61 1.342 3.6 2.362.99 1.02 1.755 2.265 2.295 3.735.54 1.47.81 3.112.81 4.927 0 1.83-.27 3.48-.81 4.95-.54 1.47-1.305 2.723-2.295 3.758-.99 1.035-2.19 1.83-3.6 2.385-1.395.555-2.955.833-4.68.833-1.725 0-3.292-.278-4.702-.833-1.41-.555-2.618-1.35-3.623-2.385-.99-1.035-1.762-2.288-2.317-3.758-.54-1.47-.81-3.12-.81-4.95 0-1.815.27-3.457.81-4.927.555-1.47 1.327-2.715 2.317-3.735 1.005-1.02 2.213-1.807 3.623-2.362 1.41-.555 2.977-.833 4.702-.833zm0 19.508c1.92 0 3.338-.645 4.253-1.936.93-1.29 1.395-3.18 1.395-5.67 0-2.49-.465-4.387-1.395-5.692-.915-1.305-2.333-1.958-4.253-1.958-1.95 0-3.39.66-4.32 1.98-.93 1.306-1.395 3.196-1.395 5.67 0 2.476.465 4.366 1.395 5.67.93 1.29 2.37 1.936 4.32 1.936zM689.167 77V53.915h3.263c.57 0 .967.105 1.192.315.225.21.375.57.45 1.08l.338 2.79c.825-1.425 1.792-2.55 2.902-3.375a6.108 6.108 0 013.735-1.238c1.14 0 2.085.263 2.835.788l-.72 4.163c-.045.27-.142.465-.292.584-.15.105-.353.158-.608.158-.225 0-.532-.053-.922-.157-.39-.106-.908-.158-1.553-.158-1.155 0-2.145.322-2.97.968-.825.63-1.522 1.56-2.092 2.79V77h-5.558zm27.071 0V43.565h5.557v12.848a11.76 11.76 0 012.97-2.07c1.08-.526 2.348-.788 3.803-.788 1.26 0 2.377.218 3.352.653a6.366 6.366 0 012.43 1.8c.66.764 1.155 1.687 1.485 2.767.345 1.065.518 2.242.518 3.532V77h-5.558V62.307c0-1.41-.33-2.497-.99-3.262-.645-.78-1.62-1.17-2.925-1.17-.96 0-1.86.218-2.7.653-.84.434-1.635 1.027-2.385 1.777V77h-5.557zm43.666 0h-2.498c-.525 0-.937-.075-1.237-.225-.3-.165-.525-.488-.675-.968l-.495-1.642c-.585.525-1.163.99-1.733 1.395-.555.39-1.132.72-1.732.99-.6.27-1.238.472-1.913.608-.675.135-1.425.202-2.25.202-.975 0-1.875-.127-2.7-.382a6.067 6.067 0 01-2.137-1.193 5.43 5.43 0 01-1.373-1.957c-.33-.78-.495-1.688-.495-2.723 0-.87.225-1.725.675-2.565.465-.855 1.23-1.62 2.295-2.295 1.065-.69 2.483-1.26 4.253-1.71 1.77-.45 3.967-.705 6.592-.765v-1.35c0-1.545-.33-2.685-.99-3.42-.645-.75-1.59-1.125-2.835-1.125-.9 0-1.65.105-2.25.315-.6.21-1.125.45-1.575.72-.435.255-.84.488-1.215.698-.375.21-.787.315-1.237.315a1.61 1.61 0 01-.968-.293 2.3 2.3 0 01-.652-.72l-1.013-1.777c2.655-2.43 5.858-3.646 9.608-3.646 1.35 0 2.55.225 3.6.675 1.065.435 1.965 1.05 2.7 1.846.735.78 1.29 1.717 1.665 2.812.39 1.095.585 2.295.585 3.6V77zm-10.8-3.465c.57 0 1.095-.052 1.575-.157.48-.106.93-.263 1.35-.473.435-.21.847-.465 1.237-.765.405-.315.81-.683 1.215-1.103v-3.892c-1.62.075-2.977.218-4.072.428-1.08.195-1.95.45-2.61.765-.66.315-1.133.682-1.418 1.102-.27.42-.405.877-.405 1.373 0 .974.285 1.672.855 2.092.585.42 1.343.63 2.273.63zM765.368 77V53.915h3.263c.57 0 .967.105 1.192.315.225.21.375.57.45 1.08l.338 2.79c.825-1.425 1.792-2.55 2.902-3.375a6.108 6.108 0 013.735-1.238c1.14 0 2.085.263 2.835.788l-.72 4.163c-.045.27-.142.465-.292.584-.15.105-.353.158-.608.158-.225 0-.532-.053-.922-.157-.39-.106-.908-.158-1.553-.158-1.155 0-2.145.322-2.97.968-.825.63-1.522 1.56-2.092 2.79V77h-5.558zm34.615 0c-.72 0-1.193-.338-1.418-1.013l-.45-2.227a13.79 13.79 0 01-1.507 1.462 9.356 9.356 0 01-1.71 1.126 8.27 8.27 0 01-1.958.72c-.69.18-1.44.27-2.25.27-1.26 0-2.415-.263-3.465-.788-1.05-.525-1.957-1.282-2.722-2.272-.75-1.006-1.335-2.243-1.755-3.713-.405-1.47-.608-3.15-.608-5.04 0-1.71.233-3.3.698-4.77.465-1.47 1.132-2.745 2.002-3.825a9.222 9.222 0 013.128-2.52c1.215-.615 2.58-.922 4.095-.922 1.29 0 2.392.21 3.307.63a8.478 8.478 0 012.453 1.642V43.565h5.557V77h-3.397zm-7.403-4.073c1.155 0 2.138-.24 2.948-.72s1.575-1.162 2.295-2.047V59.81c-.63-.765-1.32-1.305-2.07-1.62a5.99 5.99 0 00-2.385-.472c-.84 0-1.605.157-2.295.472-.675.315-1.253.795-1.733 1.44-.465.63-.825 1.44-1.08 2.43-.255.975-.382 2.13-.382 3.465 0 1.35.105 2.497.315 3.442.225.93.54 1.695.945 2.296.405.584.9 1.012 1.485 1.282.585.255 1.237.382 1.957.382zm14.009-19.012h4.41c.42 0 .773.098 1.058.293.285.195.465.442.54.742l3.307 12.33c.18.675.323 1.335.428 1.98.12.645.232 1.29.337 1.935.165-.645.338-1.29.518-1.935.195-.645.397-1.305.607-1.98l3.825-12.375c.09-.3.27-.547.54-.742.27-.195.585-.293.945-.293h2.453c.405 0 .742.098 1.012.293.27.195.45.442.54.742l3.78 12.6c.195.645.368 1.275.518 1.89.165.6.322 1.208.472 1.823.105-.645.218-1.29.338-1.936.135-.644.3-1.312.495-2.002l3.42-12.33c.075-.3.255-.547.54-.742a1.71 1.71 0 01.99-.293h4.207L834.557 77h-4.478c-.48 0-.825-.33-1.035-.99l-4.162-13.343a42.84 42.84 0 01-.383-1.305 23.15 23.15 0 01-.27-1.327c-.09.45-.187.9-.292 1.35-.105.435-.225.878-.36 1.328l-4.208 13.297c-.21.66-.615.99-1.215.99h-4.252l-7.313-23.085zM863.087 77h-2.497c-.525 0-.938-.075-1.238-.225-.3-.165-.525-.488-.675-.968l-.495-1.642c-.585.525-1.162.99-1.732 1.395-.555.39-1.133.72-1.733.99a8.89 8.89 0 01-1.912.608c-.675.135-1.425.202-2.25.202-.975 0-1.875-.127-2.7-.382a6.071 6.071 0 01-2.138-1.193 5.427 5.427 0 01-1.372-1.957c-.33-.78-.495-1.688-.495-2.723 0-.87.225-1.725.675-2.565.465-.855 1.23-1.62 2.295-2.295 1.065-.69 2.482-1.26 4.252-1.71 1.77-.45 3.968-.705 6.593-.765v-1.35c0-1.545-.33-2.685-.99-3.42-.645-.75-1.59-1.125-2.835-1.125-.9 0-1.65.105-2.25.315-.6.21-1.125.45-1.575.72-.435.255-.84.488-1.215.698-.375.21-.788.315-1.238.315-.375 0-.697-.098-.967-.293a2.304 2.304 0 01-.653-.72l-1.012-1.777c2.655-2.43 5.857-3.646 9.607-3.646 1.35 0 2.55.225 3.6.675 1.065.435 1.965 1.05 2.7 1.846.735.78 1.29 1.717 1.665 2.812.39 1.095.585 2.295.585 3.6V77zm-10.8-3.465c.57 0 1.095-.052 1.575-.157.48-.106.93-.263 1.35-.473.435-.21.848-.465 1.238-.765.405-.315.81-.683 1.215-1.103v-3.892c-1.62.075-2.978.218-4.073.428-1.08.195-1.95.45-2.61.765-.66.315-1.132.682-1.417 1.102-.27.42-.405.877-.405 1.373 0 .974.285 1.672.855 2.092.585.42 1.342.63 2.272.63zM868.552 77V53.915h3.263c.57 0 .967.105 1.192.315.225.21.375.57.45 1.08l.338 2.79c.825-1.425 1.792-2.55 2.902-3.375a6.108 6.108 0 013.735-1.238c1.14 0 2.085.263 2.835.788l-.72 4.163c-.045.27-.142.465-.292.584-.15.105-.353.158-.608.158-.225 0-.532-.053-.922-.157-.39-.106-.908-.158-1.553-.158-1.155 0-2.145.322-2.97.968-.825.63-1.522 1.56-2.092 2.79V77h-5.558zm27.909-23.445c1.455 0 2.79.233 4.005.697a8.705 8.705 0 013.173 2.048c.885.885 1.575 1.98 2.07 3.285.495 1.29.742 2.767.742 4.432 0 .42-.022.773-.067 1.058-.03.27-.098.487-.203.653a.838.838 0 01-.382.337c-.165.06-.375.09-.63.09h-14.265c.165 2.37.802 4.11 1.912 5.22 1.11 1.11 2.58 1.665 4.41 1.665.9 0 1.673-.105 2.318-.315.66-.21 1.23-.442 1.71-.697.495-.256.922-.488 1.282-.698.375-.21.735-.315 1.08-.315.225 0 .42.045.585.135.165.09.308.218.428.382l1.62 2.026a9.51 9.51 0 01-2.07 1.822c-.765.48-1.568.87-2.408 1.17a13.43 13.43 0 01-2.542.608c-.855.12-1.688.18-2.498.18-1.605 0-3.097-.263-4.477-.788a10.224 10.224 0 01-3.6-2.362c-1.02-1.05-1.823-2.34-2.408-3.87-.585-1.546-.877-3.33-.877-5.355 0-1.575.255-3.053.765-4.433.51-1.395 1.237-2.602 2.182-3.623.96-1.034 2.123-1.852 3.488-2.452 1.38-.6 2.932-.9 4.657-.9zm.113 3.983c-1.62 0-2.888.457-3.803 1.372s-1.5 2.213-1.755 3.893h10.44c0-.72-.097-1.395-.292-2.025a4.685 4.685 0 00-.9-1.688 4.149 4.149 0 00-1.53-1.125c-.615-.285-1.335-.428-2.16-.428zm20.274-3.623h4.41c.42 0 .772.098 1.057.293.285.195.465.442.54.742l3.308 12.33c.18.675.322 1.335.427 1.98.12.645.233 1.29.338 1.935.165-.645.337-1.29.517-1.935.195-.645.398-1.305.608-1.98l3.825-12.375c.09-.3.27-.547.54-.742.27-.195.585-.293.945-.293h2.452c.405 0 .743.098 1.013.293.27.195.45.442.54.742l3.78 12.6c.195.645.367 1.275.517 1.89.165.6.323 1.208.473 1.823.105-.645.217-1.29.337-1.936.135-.644.3-1.312.495-2.002l3.42-12.33c.075-.3.255-.547.54-.742a1.71 1.71 0 01.99-.293h4.208L944.815 77h-4.477c-.48 0-.825-.33-1.035-.99l-4.163-13.343c-.135-.434-.262-.87-.382-1.305a23.15 23.15 0 01-.27-1.327c-.09.45-.188.9-.293 1.35-.105.435-.225.878-.36 1.328l-4.207 13.297c-.21.66-.615.99-1.215.99h-4.253l-7.312-23.085zM973.346 77h-2.497c-.525 0-.938-.075-1.238-.225-.3-.165-.525-.488-.675-.968l-.495-1.642c-.585.525-1.162.99-1.732 1.395-.555.39-1.133.72-1.733.99a8.89 8.89 0 01-1.912.608c-.675.135-1.425.202-2.25.202-.975 0-1.875-.127-2.7-.382a6.071 6.071 0 01-2.138-1.193 5.427 5.427 0 01-1.372-1.957c-.33-.78-.495-1.688-.495-2.723 0-.87.225-1.725.675-2.565.465-.855 1.23-1.62 2.295-2.295 1.065-.69 2.482-1.26 4.252-1.71 1.77-.45 3.968-.705 6.593-.765v-1.35c0-1.545-.33-2.685-.99-3.42-.645-.75-1.59-1.125-2.835-1.125-.9 0-1.65.105-2.25.315-.6.21-1.125.45-1.575.72-.435.255-.84.488-1.215.698-.375.21-.788.315-1.238.315-.375 0-.697-.098-.967-.293a2.304 2.304 0 01-.653-.72l-1.012-1.777c2.655-2.43 5.857-3.646 9.607-3.646 1.35 0 2.55.225 3.6.675 1.065.435 1.965 1.05 2.7 1.846.735.78 1.29 1.717 1.665 2.812.39 1.095.585 2.295.585 3.6V77zm-10.8-3.465c.57 0 1.095-.052 1.575-.157.48-.106.93-.263 1.35-.473.435-.21.848-.465 1.238-.765.405-.315.81-.683 1.215-1.103v-3.892c-1.62.075-2.978.218-4.073.428-1.08.195-1.95.45-2.61.765-.66.315-1.132.682-1.417 1.102-.27.42-.405.877-.405 1.373 0 .974.285 1.672.855 2.092.585.42 1.342.63 2.272.63zm22.182-29.97V77h-5.557V43.565h5.557zm12.217 0V77h-5.557V43.565h5.557zm15.835 9.99c1.46 0 2.79.233 4.01.697a8.652 8.652 0 013.17 2.048c.89.885 1.58 1.98 2.07 3.285.5 1.29.74 2.767.74 4.432 0 .42-.02.773-.06 1.058-.03.27-.1.487-.21.653a.809.809 0 01-.38.337c-.16.06-.37.09-.63.09h-14.26c.16 2.37.8 4.11 1.91 5.22 1.11 1.11 2.58 1.665 4.41 1.665.9 0 1.67-.105 2.32-.315.66-.21 1.23-.442 1.71-.697.49-.256.92-.488 1.28-.698.37-.21.73-.315 1.08-.315a1.184 1.184 0 011.01.517l1.62 2.026c-.61.72-1.3 1.327-2.07 1.822-.76.48-1.57.87-2.41 1.17-.82.285-1.67.487-2.54.608-.85.12-1.69.18-2.5.18-1.6 0-3.09-.263-4.47-.788a10.224 10.224 0 01-3.6-2.362c-1.02-1.05-1.83-2.34-2.41-3.87-.59-1.546-.88-3.33-.88-5.355 0-1.575.26-3.053.77-4.433.51-1.395 1.23-2.602 2.18-3.623.96-1.034 2.12-1.852 3.49-2.452 1.38-.6 2.93-.9 4.65-.9zm.12 3.983c-1.62 0-2.89.457-3.81 1.372-.91.915-1.5 2.213-1.75 3.893h10.44c0-.72-.1-1.395-.29-2.025-.2-.645-.5-1.208-.9-1.688-.41-.48-.92-.855-1.53-1.125-.62-.285-1.34-.428-2.16-.428zm21.97 19.822c-2 0-3.54-.563-4.62-1.688-1.08-1.14-1.62-2.707-1.62-4.702V58.078h-2.34c-.3 0-.56-.098-.78-.293-.21-.195-.32-.487-.32-.877v-2.206l3.71-.607 1.17-6.3c.06-.3.2-.532.41-.698.22-.165.5-.247.83-.247h2.88v7.267h6.08v3.96h-6.08v12.51c0 .72.18 1.283.54 1.688.36.405.84.607 1.44.607.35 0 .63-.037.85-.112.25-.09.45-.18.61-.27.18-.09.34-.172.48-.248a.71.71 0 01.4-.134c.17 0 .3.044.41.135.1.075.21.195.33.36l1.67 2.7a8.413 8.413 0 01-2.79 1.53 10.42 10.42 0 01-3.26.517z"/><g clip-path="url(#clip0)"><path d="M92.495 31.569c-7.855 0-14.223 6.368-14.223 14.222v5.318c-2.756.493-5.538 1.174-5.538 2.044v27.862s0 .782.851 1.12c3.143 1.25 15.48 5.623 18.311 6.624.373.132.452.129.581.129.136 0 .206.004.576-.127 2.826-.999 15.206-5.382 18.329-6.619.811-.32.834-1.115.834-1.115V53.155c0-.87-2.743-1.553-5.5-2.046V45.79c.001-7.854-6.367-14.222-14.221-14.222zm0 6.797c4.62 0 7.43 2.805 7.43 7.425v4.633c-5.216-.38-9.649-.38-14.866 0V45.79c0-4.62 2.815-7.425 7.436-7.425zm-.019 18.897c6.463.01 11.896.492 11.896 1.412v17.36c0 .253-.04.296-.28.387-.24.091-11.05 3.998-11.05 3.998s-.443.147-.565.147c-.139 0-.583-.153-.583-.153S81.09 76.51 80.847 76.419c-.243-.091-.275-.138-.275-.394v-17.35c0-.946 5.442-1.422 11.904-1.412zm38.059 19.017V57.259h-6.933v-6.818h21.654v6.818h-6.896v19.02h-7.825zm32.269 0l-3.563-8.135h-2.828v8.135h-7.825V50.44h13.79c6.043 0 9.298 4.029 9.298 8.871 0 4.456-2.596 6.818-4.649 7.825l4.688 9.142h-8.911zm.93-17.007c0-1.394-1.24-2.015-2.557-2.015h-4.765v4.068h4.765c1.317 0 2.557-.619 2.557-2.053zm12.041 17.007V50.44h19.602v6.818H183.6v2.557h11.506v6.819H183.6v2.826h11.777v6.819h-19.602zm23.672.004v-6.197l9.839-12.823h-9.839v-6.818h20.182v6.16l-9.878 12.86H219.9v6.819h-20.453zm22.371-12.899c0-7.942 6.159-13.365 14.139-13.365 7.98 0 14.14 5.423 14.14 13.365 0 7.941-6.16 13.364-14.14 13.364s-14.139-5.423-14.139-13.364zm20.338 0c0-3.603-2.441-6.47-6.199-6.47-3.757 0-6.198 2.867-6.198 6.47 0 3.603 2.44 6.469 6.198 6.469 3.758 0 6.199-2.867 6.199-6.469zm25.492 12.899l-3.562-8.134h-2.829v8.134h-7.825V50.446h13.791c6.044 0 9.298 4.029 9.298 8.87 0 4.457-2.596 6.819-4.65 7.827l4.688 9.142h-8.911zm.93-17.006c0-1.394-1.239-2.015-2.557-2.015h-4.765v4.068h4.765c1.317 0 2.557-.619 2.557-2.053z"/></g><defs><linearGradient id="paint0_linear" x1="155.5" x2="1600.5" y1="52" y2="60" gradientUnits="userSpaceOnUse"><stop stop-color="#01B757"/><stop offset=".936" stop-color="#fff" stop-opacity=".57"/><stop offset="1" stop-color="#E8EDEA" stop-opacity=".66"/></linearGradient><clipPath id="clip0"><path fill="#fff" d="M0 0h228.661v70H0z" transform="translate(59.867 25)"/></clipPath><filter id="filter0_d" width="889" height="524" x="342" y="-199" color-interpolation-filters="sRGB" filterUnits="userSpaceOnUse"><feFlood flood-opacity="0" result="BackgroundImageFix"/><feColorMatrix in="SourceAlpha" values="0 0 0 0 0 0 0 0 0 0 0 0 0 0 0 0 0 0 127 0"/><feOffset dx="-6" dy="3"/><feGaussianBlur stdDeviation="5"/><feColorMatrix values="0 0 0 0 0.733333 0 0 0 0 0.733333 0 0 0 0 0.733333 0 0 0 0.5 0"/><feBlend in2="BackgroundImageFix" result="effect1_dropShadow"/><feBlend in="SourceGraphic" in2="effect1_dropShadow" result="shape"/></filter></defs></svg>