<svg xmlns="http://www.w3.org/2000/svg" fill="none" viewBox="0 0 30 24"><path fill="#55B6E2" d="M29.825 2.796c-1.01.466-2.174.777-3.495.932 1.32-.777 2.214-1.903 2.68-3.378a14.413 14.413 0 01-3.962 1.514 5.119 5.119 0 00-1.98-1.398A6.527 6.527 0 0020.621 0c-1.708 0-3.165.583-4.369 1.748-1.203 1.165-1.805 2.602-1.805 4.31 0 .466.077.932.233 1.398a17.837 17.837 0 01-7.05-1.922C5.417 4.408 3.573 2.913 2.097 1.049c-.544 1.01-.815 2.019-.815 3.029 0 1.01.233 1.96.699 2.854a5.565 5.565 0 001.98 2.155 5.745 5.745 0 01-2.796-.699v.117c0 1.476.466 2.777 1.398 3.903.932 1.126 2.097 1.806 3.495 2.039-.466.155-1.01.233-1.63.233-.234 0-.622-.04-1.166-.117.466 1.243 1.204 2.252 2.214 3.03 1.01.776 2.174 1.164 3.495 1.164-2.253 1.787-4.777 2.68-7.573 2.68-.621 0-1.087-.039-1.398-.117C2.874 23.107 6.02 24 9.437 24c3.495 0 6.64-.893 9.437-2.68 2.485-1.63 4.466-3.805 5.942-6.524 1.32-2.64 1.98-5.36 1.98-8.155v-.816c1.243-.854 2.253-1.864 3.03-3.029z"/></svg>