<svg xmlns="http://www.w3.org/2000/svg" viewBox="0 0 76 76"><g fill="none"><path fill="#E4ECF7" d="M39 66c15.464 0 28-12.536 28-28S54.464 10 39 10 11 22.536 11 38s12.536 28 28 28z"/><path fill="#153150" d="M38.5 68C22.313 68 9 54.805 9 38.424 9 22.195 22.162 9 38.5 9S68 22.195 68 38.576C67.849 54.805 54.687 68 38.5 68zm0-55.967c-14.523 0-26.474 11.83-26.474 26.543 0 14.56 11.8 26.542 26.474 26.542s26.474-11.83 26.474-26.542c-.15-14.712-11.95-26.543-26.474-26.543z"/><path fill="#B6BFC7" d="M4.496 31h-.427c-.71-.164-1.278-1.15-.994-1.97.284-1.314.71-2.628 1.136-3.942.285-.82 1.137-1.314 1.847-.985.71.328 1.137 1.314.853 2.135-.426 1.15-.71 2.299-.995 3.612-.284.657-.852 1.15-1.42 1.15zm.77 19c-.653 0-1.306-.454-1.633-1.059C2.49 45.462 2 41.983 2 38.353c0-1.664.163-3.328.327-4.992.163-.756.98-1.361 1.796-1.361.817.151 1.47.908 1.47 1.664-.164 1.513-.327 3.025-.327 4.689 0 3.328.49 6.655 1.633 9.832.327.756-.163 1.664-1.143 1.815h-.49zm58.276 13c-.304 0-.76-.152-1.065-.456a1.629 1.629 0 01-.152-2.13c3.041-3.345 5.322-7.148 6.69-11.406.305-.76 1.217-1.217 1.977-.913.76.304 1.217 1.217.913 1.977-1.673 4.563-4.106 8.822-7.451 12.472 0 .304-.456.456-.912.456zm9.822-18h-.137c-.682-.155-1.227-.931-1.227-1.707.136-1.552.273-3.103.273-4.655v-1.086c0-.931.545-1.552 1.363-1.552.682 0 1.364.62 1.364 1.552v1.241c0 1.707-.136 3.414-.273 5.12-.136.622-.818 1.087-1.363 1.087z" opacity=".4"/><path fill="#FFC936" d="M38.5 61C50.927 61 61 51.15 61 39S50.927 17 38.5 17C26.074 17 16 26.85 16 39s10.074 22 22.5 22z"/><path fill="#FBAE28" d="M39 62c-12.68 0-23-10.545-23-23.5S26.32 15 39 15s23 10.545 23 23.5S51.68 62 39 62zm0-44.138c-11.058 0-20.051 9.19-20.051 20.487 0 11.298 8.993 20.488 20.051 20.488 11.058 0 20.051-9.19 20.051-20.488S50.058 17.862 39 17.862z"/><path fill="#153150" d="M30.433 60c-5.528 0-10.906-1.525-15.537-4.575l-.896-.61 1.046.153c4.183.762 10.756-1.525 13.445-4.727-4.332-.152-8.067-3.05-9.412-7.32v-.304h5.677c-2.54-1.067-9.113-4.574-9.262-10.064v-.152l4.93-.458c-1.345-.915-4.93-4.117-4.93-8.844 0-1.677.448-3.507 1.195-5.032l.15-.305.149.305c4.183 7.015 12.25 11.284 21.363 11.284h1.045c-.15-.61-.15-1.22-.15-1.83 0-5.794 4.632-10.369 10.16-10.369 2.24 0 4.63.763 6.423 2.288L63 17l-.15.305c0 .152-1.045 3.05-3.435 4.88L63 21.726l-3.287 5.032v3.202c0 16.621-13.146 30.04-29.28 30.04zm-14.49-4.422c4.331 2.592 9.41 3.965 14.49 3.965 15.985 0 28.982-13.266 28.982-29.582v-3.202l3.137-4.27-4.482.61.598-.457c2.091-1.373 3.286-3.812 3.734-4.727l-6.722 2.287h-.15c-1.792-1.525-3.884-2.287-6.274-2.287-5.378 0-9.86 4.574-9.86 10.064 0 .61 0 1.22.15 1.83v.152h-1.494c-9.113 0-17.03-4.117-21.512-11.131-.747 1.372-1.046 2.897-1.046 4.574 0 5.642 5.229 8.844 5.229 8.844l.448.305-5.677.458c.299 6.251 9.86 9.91 9.86 9.91l1.045.306h-7.32c1.345 4.117 5.08 6.862 9.412 6.862h.299l-.15.305c-1.942 3.05-8.366 5.489-12.698 5.184z"/><path fill="#25B9E6" stroke="#163150" stroke-linejoin="round" stroke-width="2" d="M58.95 23.326C61.65 21.652 63 18 63 18l-7.05 2.283c-1.8-1.37-3.9-2.283-6.3-2.283-5.55 0-10.05 4.565-10.05 10.196 0 .608 0 1.37.15 1.978H38.4c-9 0-17.1-4.109-21.6-11.413-.75 1.522-1.2 3.196-1.2 4.87 0 5.782 5.4 8.978 5.4 8.978l-5.4.456c.15 6.544 10.05 10.196 10.05 10.196H19.2c1.2 4.26 5.1 7.304 9.6 7.304-2.4 3.348-9.6 5.935-13.8 5.022C19.5 58.478 24.75 60 30.45 60c16.2 0 29.25-13.24 29.25-29.674V27.13l3.3-4.565-4.05.761z"/><path fill="#219ED9" d="M56.926 34c0 12.5-11.678 21.412-26.174 21.412-2.014 0-3.893-.231-5.638-.579-2.416.81-5.1 1.158-7.114.81C22.027 57.843 26.725 59 31.825 59 46.322 59 58 48.93 58 36.43V34h-1.074z"/><path stroke="#163150" stroke-linejoin="round" stroke-width="2" d="M58.95 23.326C61.65 21.652 63 18 63 18l-7.05 2.283c-1.8-1.37-3.9-2.283-6.3-2.283-5.55 0-10.05 4.565-10.05 10.196 0 .608 0 1.37.15 1.978H38.4c-9 0-17.1-4.109-21.6-11.413-.75 1.522-1.2 3.196-1.2 4.87 0 5.782 5.4 8.978 5.4 8.978l-5.4.456c.15 6.544 10.05 10.196 10.05 10.196H19.2c1.2 4.26 5.1 7.304 9.6 7.304-2.4 3.348-9.6 5.935-13.8 5.022C19.5 58.478 24.75 60 30.45 60c16.2 0 29.25-13.24 29.25-29.674V27.13l3.3-4.565-4.05.761z"/></g></svg>