<svg xmlns="http://www.w3.org/2000/svg" width="492" height="251" fill="none"><g clip-path="url(#clip0)"><rect width="492" height="250" y=".218" fill="#F0FAFF" rx="15"/><path fill="#ADE1FB" d="M491.79 207.086v36.624a7.536 7.536 0 01-7.546 7.546H132.999l185.432-65.853c35.668-12.677 52.27-4.074 173.359 21.683z"/><path fill="#ADE1FB" fill-rule="evenodd" d="M289.706 184.145l-62.633 15.294c-42.71-21.331-56.545-28.877-56.495-28.826 23.997-2.767 106.954-6.742 119.128 13.532z" clip-rule="evenodd" opacity=".3"/><path fill="#8BD8FF" d="M491.79 207.085v36.623a7.536 7.536 0 01-7.546 7.546H347.609v-71.536c17.004-.755 13.684-.403 144.181 27.367z"/><path fill="#1EB8E7" d="M491.79 233.548v10.162a7.536 7.536 0 01-7.546 7.546c-288.663 0-288.764.604-277.143-.855 30.235-3.823 22.739-19.72 54.835-19.72 37.529 0 27.72-10.967 45.377-19.268 14.489-6.842 21.28 11.42 39.894-7.798 7.949 22.588 27.87 7.345 54.684 12.678 13.382 2.666 29.53 19.519 47.138 19.519 18.261 0 26.109-17.557 42.761-2.264z"/><path fill="#0DA3E0" d="M419.096 230.48c-2.515 14.287-14.488 4.93-23.292 4.93-6.943 0-6.842 5.785-10.665 8.602-2.968 2.214-6.691 1.107-9.357 3.874-4.377 4.528 3.119 3.371-21.834 3.371 3.572-15.495 18.513-11.319 23.192-14.288 4.628-2.968 3.018-9.306 10.162-9.306 4.729 0 8.502 4.276 13.231 4.276 5.735 0 4.477-5.886 9.307-5.886 2.163 0 7.797 1.71 9.256 4.427z" opacity=".5"/><path fill="#ADE1FB" d="M160.265 169.757c71.839 37.178 76.216 37.932 70.33 39.944-50.458 17.155-58.86 28.022-71.235 19.972-77.825-50.76-40.548-41.956-106.5-49.603l9.256-36.674 77.674 9.458 20.475 16.903z" opacity=".3"/><path fill="#0DA3E0" d="M462.511 244.013c-.654 3.672-1.861 5.936-3.421 7.244h-13.029c-4.93-1.358-10.967-3.27-14.841 0-16.752 0-15.142 0-15.042-.05 5.182-3.22 3.32-10.313 11.219-10.313 5.232 0 9.357 4.779 14.639 4.779 7.798 0 3.874-9.911 15.243-5.383 2.113.855 4.075 1.56 5.232 3.723z" opacity=".5"/><path fill="#fff" d="M236.431 190.687c-71.889 24.349-60.118 25.003-83.812 9.558-37.429-24.399-41.051-25.254-46.233-34.51l-39.24-85.774 54.785-11.973c3.472-.755 6.993.955 8.502 4.125l40.9 84.113c64.393 30.487 71.386 32.298 65.098 34.461z"/><path fill="#DAEBED" d="M162.429 206.635l-9.81-6.39c-1.359-4.376-1.107-9.759-5.534-12.174-2.868-1.559-25.003-4.88-25.003-12.627 0-17.708 47.138 2.063 54.684 19.972.906 2.364 6.54 16.048-14.337 11.219z"/><path fill="#fff" d="M191.053 157.935c0 3.169-2.112 5.785-5.835 5.232-8.804-1.157-1.208-16.601-14.489-16.601-3.773 0-5.735-2.164-5.735-4.93 0-5.685 6.792-5.735 10.716-5.735 10.615-.051 15.343 13.331 15.343 22.034z"/><path fill="#82D5EA" d="M137.174 178.31c-17.959 1.711-36.774-19.217-40.9-47.188-5.835-39.692 24.047-50.66 30.034-53.577l29.832 93.471-18.966 7.294z"/><path fill="#A8E5EF" d="M171.434 152.553c-13.03 39.139-56.143 20.425-63.186-26.059-3.975-26.26 6.691-48.798 24.198-50.508 27.266-2.616 50.005 43.415 38.988 76.567z"/><path fill="#1EB8E7" d="M171.434 152.554c-9.358 15.042-25.707 11.822-25.707 1.056 0-4.175 3.42-8.703 3.42-13.482 0-4.326-4.527-9.76-4.477-12.979.403-2.616 2.465-1.761 7.898-1.761 1.409 0 15.998-2.465 21.129-.05 1.208 10.111.302 19.469-2.263 27.216z" opacity=".2"/><path fill="#DAEBED" d="M202.322 170.917c-33.605 16.802-31.895-3.27-22.185-10.515l22.185 10.515z"/><path fill="#ADE1FB" d="M173.295 149.837c0 2.766-10.464 5.231-15.947 4.074-5.735-1.157-1.61-4.879 6.64-5.936 2.515-.302 9.307-.503 9.307 1.862z"/><path fill="#1EB8E7" d="M166.805 112.107c0 5.081-12.929 10.363-22.688.604-1.509-1.509-4.025-.704-4.478 1.358-1.76 8.653-4.527 27.82-18.563 27.82-8.904 0-12.677-15.947-12.677-20.928 0-3.32 47.49-23.594 48.697-23.594 10.363 0 9.709 17.658 9.709 14.74z" opacity=".2"/><path fill="#1EB8E7" d="M168.113 147.776c-.05.251-4.829 1.458-4.829 4.326 0 1.358.905 1.861.654 1.912-15.294 1.861-9.961-6.792 4.175-6.238z" opacity=".4"/><path fill="#fff" d="M204.938 164.677c0 5.534-7.646 6.239-13.18 6.239-4.427 0-11.923 1.056-11.923-5.685 0-6.238 9.256-8.251 15.193-8.251 6.389.051 9.91 3.623 9.91 7.697z"/><path fill="#BFB5F2" d="M161.171 92.437c-10.263 5.231-46.232 24.851-61.073 23.493-6.741-.604-.805-15.847 2.817-21.984 2.063-3.522 2.666-3.723 4.427-3.824l-1.056 1.157c12.325-.653 30.788-2.364 37.026-13.683a19.048 19.048 0 00-2.817-.855c.251-.705 11.369-1.51 21.581 12.677.956 1.258-.905 3.019-.905 3.019z"/><path fill="#fff" d="M172.138 144.404c-6.238 7.093-16.652 7.647-19.117 1.559-2.465-6.036 1.057-9.256 3.27-7.998 10.414 5.835 20.827-13.684 16.3-19.318l-3.019-10.766c12.728 2.666 20.727 15.847 2.566 36.523z"/><path fill="#fff" d="M175.156 124.231c-7.194 11.47-3.873 6.791-2.113 1.911.956-2.565.051-2.515 2.113-1.911z"/><path fill="#A382E5" d="M144.117 97.92c-.453 3.873-5.132 5.835-6.289 6.388 0 0-27.317 12.527-37.73 11.571-6.741-.604-.805-15.847 2.817-21.984 2.063-3.522 2.666-3.723 4.427-3.824l-1.056 1.157c7.194-.402 6.54-.503 6.439-.251-4.276 7.445-7.747 20.827.805 18.865 2.817-.654 4.125-3.672 9.81-5.634 8.955-3.119 11.42-.403 20.777-6.289z" opacity=".6"/><path fill="#39587E" d="M168.667 107.73c0 14.74-21.481 6.842-25.858-1.257-7.999 2.918 7.345 1.962-9.156 25.103-2.717 3.823-15.243 10.917-21.23-9.055-3.773 0-15.042-1.51-15.042-5.081 0-4.93 11.42-2.013 17.407-5.886 4.024-2.566 15.997-8.301 20.626-7.094.352-.301 6.54-3.722 6.59-3.722 1.71-5.232 11.068-9.91 16.601-9.91 7.043 0 10.062 11.469 10.062 16.902z"/><path fill="#C9DADF" d="M173.295 211.01c0 16.148.704 14.388-1.71 13.985-3.522-.503-6.088-1.66-8.905-3.572-67.563-45.93-48.898-25.606-95.634-114.549l4.98-3.975c41.806 73.399 38.938 70.179 45.478 74.455 51.917 33.907 49.603 33.454 55.791 33.656z"/><path fill="#fff" d="M107.242 142.292c-.503 7.043-14.086 2.314-20.576-.352-5.886-2.415-2.264-12.074 7.093-9.559 10.414 2.817 13.935 4.83 13.483 9.911z"/><path fill="#ADE1FB" d="M175.156 124.231c-4.376 6.942-9.961 18.462-18.915 13.734-.051-.051-11.068-9.81-11.118-9.861.1 0 12.225-9.055 30.033-3.873z"/><path fill="#ADE1FB" d="M175.508 123.174c0 5.735-25.908 10.012-30.284 4.981-.453-.201-1.258-1.761 1.106-3.622 7.194-5.484 29.178-6.641 29.178-1.359z"/><path fill="#1EB8E7" d="M175.508 123.173c0 4.578-17.506 5.886-20.072 2.163 8.451-.754 9.256-3.32 9.961-5.584 5.886-.05 10.111 1.258 10.111 3.421z" opacity=".4"/><path fill="#BFB5F2" d="M172.842 126.242c-5.483 3.32-17.004 5.03-23.745 3.622-3.421-4.427 16.4-7.446 23.745-3.622z"/><path fill="#DAEBED" d="M238.04 200.395c0 3.421 3.069.956-56.243 23.544-2.515.956-5.484 1.459-8.502 1.308V211.01c1.861.05 3.723-.201 5.534-.805 61.274-20.475 59.211-19.72 59.262-21.33v11.52h-.051z"/><path fill="#fff" d="M117.706 123.174l3.119 1.157 3.018-11.57-3.773-.956-2.364 11.369zm9.306-3.874l3.874.855 2.817-8.25-5.031-1.509-1.66 8.904zm21.431-15.042l2.415 1.006 2.767-6.288-3.572-1.51-1.61 6.792z"/><path fill="#DAEBED" d="M476.698 189.128c-.101 3.974 1.459 14.79-13.281 11.168l-.705 42.51c-.1 5.986-14.639 4.93-14.538-1.057.704-43.213-2.113-60.72 10.715-70.027 8.2-6.087 18.262-2.214 17.809 17.406zm-43.667-8.25c-.1 4.276 1.509 14.791-13.281 11.168l-.654 38.083c-.05 4.377-7.697 4.88-11.772 2.767-3.823-1.962-3.27 1.207-2.062-47.44.654-26.713 28.473-36.573 27.769-4.578z"/><path fill="#DAEBED" d="M448.828 201.703l-.151 9.105-32.146-10.061c-4.679-1.71-2.063-9.005 3.169-7.345l29.128 8.301zm-.352 21.482l-29.128-8.251c-5.232-1.71-7.798 5.635-3.17 7.345l32.147 10.061.151-9.155z"/><path fill="#C9DADF" d="M463.618 188.021l-.201 12.275c2.264.553 4.175.704 5.785.604l.201-12.175c.101-7.848-5.785-.704-5.785-.704zm-43.717-8.249l-.201 12.275c2.264.553 4.175.704 5.785.604l.201-12.175c.151-7.898-5.785-.704-5.785-.704zm-5.836 17.556s-.15 8.351-6.439 14.086l-.05 3.974s8.854-.855 11.973-13.683l-5.484-4.377zm5.132 25.555c-1.862 7.546-5.937 10.112-8.804 11.017a11.56 11.56 0 01-3.069-1.006l.051-2.566c6.238-4.577 6.389-11.57 6.389-11.57l5.433 4.125zm39.541-51.01c-8.401 6.339-6.992 26.411-7.797 73.75-3.824-1.962-3.321 1.711-1.962-51.866.251-10.263 4.628-18.01 9.759-21.884z"/><path fill="#C9DADF" d="M415.021 163.723c-8.401 6.338-6.993 26.964-7.697 69.222-3.773-1.962-3.27 1.208-2.062-47.339.251-10.262 4.628-18.01 9.759-21.883zm33.706 43.314l-.05 3.773-32.146-10.062c-2.214-.805-2.918-3.119-2.063-3.723l34.259 10.012zm-.352 21.48l-.05 3.773-32.147-10.061c-2.213-.805-2.917-3.119-2.062-3.723l34.259 10.011z"/><path fill="#FFC858" d="M289.706 184.146l-15.847-5.786V16.874h23.192l-7.345 167.272z"/><path fill="#FFDA7F" d="M309.074 1.078l-1.911 176.83-17.457 6.238V22.257L73.888 60.088v179.278c0 13.035-7.922 8.97-10.158 5.394-2.235-3.576-6.156-7.674-11.726-2.939V30.507C305.754-3.65 257.61 1.077 309.074 1.077z"/><path fill="#FFC858" d="M52.004 30.508v211.13c-6.337 4.399-18.966 5.513-18.966-7.473V52.845l-19.717-5.17c-18.7-4.959-14.708-28.18 0-26.942l38.683 9.775z"/><path fill="#FFE4A0" d="M270.489 1.079L52.004 30.509l-35.113-8.762c4.207.963 7.201-3.142 3.572-4.076-3.629-.934-3.171-5.602 7.377-3.428l24.114 4.695C252.68-2.493 205.944 1.078 270.489 1.078z"/><path fill="#BFB5F2" d="M289.138 22.523v155.903c0 9.96-15.897 6.791-24.198 3.622-11.168-4.226-3.269-31.04 7.496-44.975.604-.805.705-.453-.503-.906-4.578-1.509-6.137-4.728-1.911-8.552-16.803-12.929-37.429-50.76-39.592-94.779l58.708-10.313z"/><path fill="#A382E5" d="M275.606 53.512c-6.037.15-5.937 19.972-2.314 31.392 5.433 17.154 1.358 24.097 7.244 30.939.05 0 1.157-62.482-4.93-62.331zm-21.33-13.582c7.797 17.507 8.401 37.881 11.57 56.394-3.974-10.464-12.828-23.192-12.828-33.756 0-7.546 4.326-15.193 1.258-22.638zm12.777 125.566c.353-4.326 3.421-7.194 3.421-10.011 0-1.308-.855-2.062-1.811-2.062-3.27 0-3.018 6.69-4.226 9.91-7.194 19.469 5.937 15.394 5.987 20.425a48.84 48.84 0 01-5.484-1.711c-11.168-4.225-3.269-31.039 7.496-44.974.604-.805.705-.453-.503-.906 10.514 1.711 9.307.201 17.155-.704v42.761c0 3.874-3.169 6.892-6.741 6.892-.604 0-3.874-5.785-3.874-10.564 0-9.559 8.452-27.569 1.409-27.518-6.842.05-4.779 27.266-11.168 27.266-3.472.05-2.516-5.483-1.661-8.804z" opacity=".6"/><path fill="#DAEBED" d="M86.666 141.937c-2.717-1.107-3.421-3.722-2.465-6.037 5.634 1.409 12.225 6.389 22.839 6.54.403.101.956 8.15-20.374-.503z" opacity=".4"/><path fill="#A382E5" d="M289.138 22.523v78.731c-5.936-8.15-.302-9.558-1.861-24.7-.654-29.48-1.057-47.24-6.138-47.088-3.471.1-2.716 8.25-8.652 10.212-5.937 1.962-19.52-10.967-28.625.855-6.49 8.402 2.716 66.104 31.794 87.384-5.584 2.767-5.936 5.584-4.125 8.1-2.415-1.007-6.792-3.623-1.509-8.402-13.634-10.514-37.178-46.03-39.592-94.779l58.708-10.313z" opacity=".6"/><path fill="#BFB5F2" d="M80.73 193.051c9.457 6.942 7.998 15.092 5.785 19.468-1.76 3.472-1.912.252 1.258 7.194 14.94 32.726-13.935 36.731-13.935 17.008V59.334l31.341-4.98c.05 34.812-8.25 91.609-24.45 138.697z"/><path fill="#A382E5" d="M105.229 54.353c0 .101 0 3.874-.302 10.515a4.481 4.481 0 01-1.006-.956c-2.314-2.918-6.842-2.264-8.35.654-1.711 3.37-2.717 5.936-5.987 3.873-1.862-1.156-4.427-1.006-6.087.453-9.005 8.15-8 25.305-9.66 35.618V59.233l31.392-4.88z" opacity=".6"/><path fill="#A382E5" d="M81.937 132.833c0-.051-.503-46.132 3.37-48.446 6.59-3.975.856 18.462.856 37.982 0 2.263 1.409 17.909-2.616 17.909-3.421-.05-1.61-7.395-1.61-7.445z" opacity=".6"/><path fill="#DAEBED" d="M491.79 84.437v98.149c-152.934-12.426-243.185-103.431 0-98.15z" opacity=".4"/><path fill="#fff" d="M491.79 45.047v100.414C338.655 126.797 328.09 39.514 363.406 8.625L491.79 45.047z"/><path fill="#F3F8FB" fill-rule="evenodd" d="M491.79 55.662v21.745c0 7.709-6.555 13.798-14.182 12.678-41.222-6.055-102.937-26.197-127.081-61.136 2.516-7.144 6.138-13.18 9.961-17.457l131.302 44.17z" clip-rule="evenodd"/><path fill="#F3F8FB" fill-rule="evenodd" d="M390.22 113.817c-4.276-2.667-8.2-5.383-11.772-8.15-4.981-20.023 3.219-33.958 17.909-46.233 0 0 5.383-.352 9.659 5.031-21.179 15.595-20.123 35.718-15.796 49.352z" clip-rule="evenodd"/><path fill="#D2EFFD" fill-rule="evenodd" d="M434.44 133.638c-18.463 7.798-48.195-4.93-47.692-36.674.654-40.296 42.359-53.929 62.885-27.317-36.171-33.404-88.038 44.673-15.193 63.991z" clip-rule="evenodd"/><path fill="#fff" d="M491.79 8.623v70.38C448.526 73.771 353.395 43.99 346.553 1.077h137.691a7.536 7.536 0 017.546 7.546z"/><path fill="#F3F8FB" fill-rule="evenodd" d="M394.697 49.021c.302.956.604 1.258-.855-.402-12.577-14.539-8.653-33.454-2.717-47.49h15.193c-12.023 11.62-16.048 32.951-11.621 47.892z" clip-rule="evenodd"/><path fill="#D2EFFD" fill-rule="evenodd" d="M409.182 11.193c-8.822 11.964-12.81 34.683 17.16 51.843-42.296-3.383-41.571-43.988-27.967-58.676 5.888-7.331 14.746 1.002 10.807 6.833z" clip-rule="evenodd"/><path fill="#1EB8E7" d="M169.17 133.688c-3.321 4.427-7.999 6.741-12.929 4.276-14.841-13.18-10.816-8.804-7.144-8.099 2.717.553 6.49.654 10.665.201-.805 6.54 4.478 6.389 9.408 3.622z" opacity=".4"/><path fill="#DAEBED" d="M181.545 129.865c-1.811 5.182-5.483 10.062-9.407 14.539-7.043 7.999-19.972 7.999-19.972-2.314 1.509 2.968 3.823 4.125 6.439 4.125 9.609.05 18.312-10.715 22.94-16.35z" opacity=".4"/><path fill="#fff" d="M178.074 195.968c0 12.325-16.249 13.633-16.249-4.528 0-17.557 16.249-11.822 16.249 4.528z"/><path fill="#fff" d="M171.182 185.205c.201 2.465-4.628 7.344-10.263 1.71-3.471-3.471-5.634-8.904-12.325-8.904-10.464 0-24.147 4.628-24.147-6.44-.051-12.023 44.874-8.099 46.735 13.634z"/><path fill="#A382E5" d="M87.773 219.714c-2.516 4.78-10.062 10.967-13.885 12.678v-12.829c2.515.101 10.766-3.672 11.319-4.879.805 1.509 1.66 3.018 2.566 5.03z" opacity=".6"/><path fill="#fff" d="M153.575 31.917c3.924 1.509 3.37 8.35-2.767 9.306l-8.1 1.309V25.326c8.1-1.056 9.76-1.66 11.571-.301 2.062 1.509 1.761 4.93-.704 6.892zm-3.17-3.17c-.453-.352-.905-.2-2.666.05 0 3.07-.503 2.516 1.71 2.214 1.359-.251 1.61-1.71.956-2.264zM149.6 37.3c1.862-.302 1.862-2.868 0-2.566-2.314.352-1.811-.403-1.811 2.867l1.811-.301zm14.74-3.221l5.031-.755v4.93l-10.212 1.66V23.163l5.181-.704V34.08zm15.093 3.019c-11.219 1.81-11.169-15.646 0-17.105 10.866-1.408 10.966 15.344 0 17.105zm-2.264-5.584c1.207 1.207 3.421.754 4.527-.705 1.107-1.459 1.208-4.024 0-5.181-1.207-1.208-3.421-.805-4.527.654-1.157 1.459-1.208 4.075 0 5.232z"/><path fill="#fff" d="M197.141 34.23c-6.44 1.057-9.257-5.936-6.54-11.62 3.169-6.641 12.677-7.094 13.633 1.156-6.943 1.007-3.27.805-5.484-.905-1.106-.855-2.666-.403-3.521.805-2.314 3.37.805 7.999 3.572 4.779 2.163-2.465-1.61-1.61 5.483-2.666-.402 4.225-3.069 7.797-7.143 8.451zm21.581-3.873l-4.879.805c-3.572-6.691-2.868-7.244-2.868.453l-4.276.704V16.925l4.276-.554c0 7.396-.855 7.496 2.616-.352l4.88-.654-3.924 7.949 4.175 7.043z"/><path fill="#163050" d="M129.226 103.302c-.403 0-.252.101-2.566-6.44-4.427 2.013-3.37 2.617-4.578-2.766-.151-.654-.654-.302 13.885-5.785.101-.05.252 0 .352.05 1.711 1.157 1.258 1.409 1.811-.654.101-.302.051-.201 3.17-1.409 1.006-.402.201 1.862-.554 4.88 4.93 3.421 4.88 2.516.654 5.03a.43.43 0 01-.352 0c-2.012-1.408-1.358-1.71-2.113 1.309-.05.302 0 .15-3.471 2.213-1.358.805.302-3.873 1.006-6.59-1.006-.654-.352-.251-3.874-2.566 1.862 3.572 2.164 2.617-1.811 4.427 2.616 5.937 2.516 5.585 2.465 5.886-.201.353-3.873 2.415-4.024 2.415z"/><path fill="#F3F8FB" d="M129.88 101.542c-.101.05-.302 0-.352-.151-2.314-6.64-1.761-6.64-4.276-5.332-.654.352-1.308.503-1.51-.202-.151-.603-.452-1.257.101-1.459 7.345-3.22 7.596-3.37 7.999-2.666.553.956.704 1.107-.453 1.61-1.66.654-1.811.704-1.912 1.056-.301.906 1.811 4.428 2.264 5.836.101.252.051.252-1.861 1.308zm4.678-11.017c-.553-.403 1.258-.906 1.308-.906.202 0 1.459 1.057 2.063 1.057.604 0 .704-.705 1.056-2.013.101-.352 1.51-1.106 1.308-.402-.905 3.471-1.358 3.37 1.459 5.081 1.258.805 1.308.503-.452 1.51-.101.05-.151.05-.252 0-2.264-1.41-2.213-2.315-3.119 1.76-.101.352-1.66 1.459-1.459.654 1.56-5.685 1.711-4.125-1.912-6.741z"/><path fill="#DAEBED" d="M164.944 189.38c-6.389-1.51-7.445-11.37-16.35-11.37-10.464 0-24.147 4.628-24.147-6.439 0-2.264 1.76-3.974 4.628-5.132-.252 8.301 9.709 6.842 18.312 6.842 11.621 0 18.261 11.47 17.557 16.099zm31.643-18.666c-1.61.202-3.32.252-4.829.252-4.427 0-11.923 1.056-11.923-5.685 0-1.76.704-3.119 1.761-4.226-3.069-4.527-.202-14.538-10.917-14.538a8.003 8.003 0 01-1.61-.151c.654-2.163 2.063-4.075 4.83-5.333 16.853 2.666 1.861 28.826 22.688 29.681z" opacity=".5"/><path stroke="#C9DADF" stroke-linecap="round" stroke-linejoin="round" stroke-width="2.012" d="M354.854 19.592c-.235.427-5.717 11.095-6.974 26.024m41.988 69.409c-23.711-13.244-34.892-29.32-39.49-44.474m-1.968-8.635c.086.55.179 1.104.281 1.66m53.804-9.02c-22.436-11.98-41.854-21.773-52.275-43.72"/><path stroke="#83D8F2" stroke-linecap="round" stroke-linejoin="round" stroke-width="2.012" d="M427.95 63.51c-21.481.151-38.183-16.4-38.183-35.466 0-9.596 2.982-15.726 7.573-21.335"/><path stroke="#C9DADF" stroke-linecap="round" stroke-linejoin="round" stroke-width="2.012" d="M427.397 63.158c14.265 7.117 32.429 11.14 47.988 13.267"/><path stroke="#83D8F2" stroke-linecap="round" stroke-linejoin="round" stroke-width="2.012" d="M427.397 63.16c-27.025-13.476-28.509-34.241-20.082-49.62m2.021 45.745c-15.142 7.144-22.537 22.538-22.738 36.372-.503 31.493 26.964 44.472 46.836 38.485"/><path stroke="#C9DADF" stroke-linecap="round" stroke-linejoin="round" stroke-width="2.012" d="M433.182 133.689c8.921 3.166 19.818 5.708 30.336 7.558"/><path stroke="#83D8F2" stroke-linecap="round" stroke-linejoin="round" stroke-width="2.012" d="M415.927 66.127c-23.947 15.998-31.342 50.307 17.255 67.563"/><path stroke="#163050" stroke-linecap="round" stroke-linejoin="round" stroke-width="2.012" d="M476.698 189.128c-.101 3.974 1.459 14.79-13.281 11.168l-.705 42.51c-.1 5.986-14.639 4.93-14.538-1.057.704-43.213-2.113-60.72 10.715-70.027 8.2-6.087 18.262-2.214 17.809 17.406zm-57.149 12.677l-.201 12.979m-.151 8.604l-.101 6.741c-.101 5.987-14.639 4.93-14.539-1.056l.705-43.617c.905-26.713 28.473-36.573 27.769-4.578-.151 5.635.654 11.219-7.546 11.772-6.339.453-5.735-2.012-5.785.654"/><path stroke="#163050" stroke-linecap="round" stroke-linejoin="round" stroke-width="2.012" d="M448.828 201.703l-.151 9.105-32.147-10.061c-4.678-1.71-2.062-9.005 3.17-7.345l29.128 8.301zm-.352 21.482l-29.128-8.251c-5.232-1.71-7.798 5.635-3.17 7.345l32.147 10.061.151-9.155zM419.7 192.047v-7.395c0-7.596 5.785-10.062 5.785-3.773m37.932 20.07v-7.395c0-7.596 5.785-10.061 5.785-3.773M138.382 18.889l115.037-15.08M52.004 95.758V30.51l61.627-8.301M52.004 137.513v-27.015m0 133.071v-97.202"/><path stroke="#163050" stroke-linecap="round" stroke-linejoin="round" stroke-width="2.012" d="M309.651 8l-2.489 169.909-17.456 6.238m0 0V22.259L73.888 60.039v177.777m215.818-53.669l-2.552-1.215M33.038 226.037V52.846l-14.794-4.158m33.76-18.178l-38.188-9.378m24.234-4.675l13.954 2.482 140.293-14.78"/><path stroke="#163050" stroke-linecap="round" stroke-linejoin="round" stroke-width="2.012" d="M230.43 32.838s3.723 63.337 39.592 94.779c-6.037 5.181.251 8.15 2.867 8.854-13.281 19.67-20.676 44.22-2.465 47.238 15.545 2.616 15.646 1.66 18.664-5.533m-16.35-41.705c7.597 2.566 15.193-.503 16.098-.805m-19.217-8.352c2.817 2.264 12.174 1.962 16.501-.151M105.229 54.355c-1.811 50.156-16.953 140.005-29.178 142.47m4.679-3.774c9.508 6.59 11.872 24.147-6.842 26.512m11.571-4.426c5.522 8.488 8.157 18.916 5.885 26.871M104.927 71.71c20.777-4.527 21.884-6.891 27.116 3.874m69.776 95.081c31.593 14.991 40.648 17.959 34.612 19.972-65.148 22.085-62.13 23.694-74.002 15.997-60.671-39.44-50.408-28.524-65.3-60.972"/><path stroke="#163050" stroke-linecap="round" stroke-linejoin="round" stroke-width="2.012" d="M238.04 188.876c0 8.854 1.057 13.382-3.119 14.941-53.778 20.123-59.714 25.456-71.486 17.356-59.413-40.849-58.004-36.573-70.984-66.405m2.465-9.961c2.868.804 11.923 2.817 12.326-2.315.503-6.137-6.641-8.401-10.716-9.306"/><path stroke="#163050" stroke-linecap="round" stroke-linejoin="round" stroke-width="2.012" d="M124.396 171.57c0 11.017 13.583 6.439 24.148 6.439 6.64 0 8.854 5.433 12.325 8.905 5.685 5.684 10.464.704 10.263-1.711-1.862-21.833-46.736-25.656-46.736-13.633z"/><path stroke="#163050" stroke-linecap="round" stroke-linejoin="round" stroke-width="2.012" d="M170.226 180.879c8.1 2.566 12.577 24.248-.151 24.248-6.187 0-9.156-10.212-7.948-17.004m10.866-41.403c10.464 1.811 3.371 16.501 13.281 16.501 2.717 0 4.729-2.214 4.729-5.333 0-.604-1.006-19.72-13.08-21.833"/><path stroke="#163050" stroke-linecap="round" stroke-linejoin="round" stroke-width="2.012" d="M181.596 161.056c-1.057 1.056-1.761 2.465-1.761 4.226 0 6.69 7.546 5.684 11.923 5.684 5.534 0 13.18-.704 13.18-6.238 0-6.238-6.59-8.401-13.583-7.345m-16.199-33.153c-4.376 6.943-9.961 18.463-18.915 13.734-.051-.05.251.202-10.565-9.357"/><path stroke="#163050" stroke-linecap="round" stroke-linejoin="round" stroke-width="2.012" d="M175.508 123.175c0 5.735-25.908 10.012-30.284 4.981-.453-.201-1.258-1.761 1.106-3.622 7.194-5.484 29.178-6.641 29.178-1.359zm-26.713 5.634c.453-4.025 17.507-5.987 24.098-2.566m-15.747 23.547c-6.338 3.018.856 5.383 6.943 4.175 9.709-1.207 13.13-5.986 3.572-6.188"/><path stroke="#163050" stroke-linecap="round" stroke-linejoin="round" stroke-width="2.012" d="M155.486 137.261c-3.974 1.459-5.332 10.464 2.063 12.627 15.545 4.578 40.346-37.328 12.023-42.006m-56.545-17.205c7.093-13.533 19.117-17.406 30.436-13.03m-14.489 88.843c-12.375-10.213-19.67-27.871-21.179-44.12m63.94 29.327c-2.213 7.043-6.137 13.935-12.224 18.161m9.759-62.379c1.56 4.025 2.767 8.351 3.623 12.879m-66.356-29.38c7.546-8.35 16.702-11.922 19.771-13.381m-.654 98.855c-10.514-4.377-20.123-15.646-25.556-30.436"/><path stroke="#163050" stroke-linecap="round" stroke-linejoin="round" stroke-width="2.012" d="M102.06 95.506c2.666-5.132 3.521-5.282 5.282-5.433-1.258 1.358-2.515 1.408 5.433.754 9.911-.855 25.104-3.42 30.537-13.28a18.927 18.927 0 00-2.817-.856c.251-.704 11.369-1.51 21.581 12.677.503.705.202 1.51-.201 2.163"/><path stroke="#163050" stroke-linecap="round" stroke-linejoin="round" stroke-width="2.012" d="M99.595 114.825c3.622-1.258 10.816-.453 15.193-3.27 4.829-3.069 16.4-8.2 20.626-7.094 1.76-2.314 5.382-3.722 6.59-3.722 1.71-5.232 11.067-9.91 16.601-9.91 7.043 0 10.062 11.519 10.062 16.902 0 14.237-19.922 7.345-25.255-.201-1.056-1.509-3.622-.151-2.817 1.459 1.962 3.974 2.013 10.061-6.992 22.638-2.717 3.824-15.244 10.917-21.23-9.055-2.817 0-9.86-.855-13.23-2.767m82.805 41.906l-11.319-5.986m-33.907-12.176s6.64 7.244 16.852 4.125m-18.412-2.062s1.157-3.22 2.415-4.477m117.855-98.437c6.138 17.608 7.446 35.567 9.458 54.03m15.042 17.206c-.604-18.513-.956-36.876-2.364-55.338M84.503 87.91c-.654 16.45-3.522 32.447-3.17 48.998"/><path stroke="#14AEE3" stroke-linecap="round" stroke-linejoin="round" stroke-width="2.012" d="M270.036 243.56c7.093-7.093 14.287-5.533 23.896-3.722m22.437-10.916c20.575-11.37 12.476 2.213 33.152-1.158m65.45 17.607c-6.289-.503-11.822-5.986-17.96-5.986-9.055 0-12.124 9.508-22.94 5.282"/></g><defs><clipPath id="clip0"><rect width="492" height="250" y=".218" fill="#fff" rx="15"/></clipPath></defs></svg>