<svg xmlns="http://www.w3.org/2000/svg" width="493" height="250" fill="none"><path fill="#ADE1FB" d="M59.76 95.768c3.718-9.35 12.765-15.433 22.817-15.433h330.108c10.303 0 19.5 6.435 23.069 16.087l36.187 97.979c4.172 11.261-4.171 23.175-16.133 23.175H36.388c-12.163 0-20.506-12.316-15.982-23.628l39.353-98.18z"/><path fill="#1EB8E7" d="M456.662 217.123H36.589c.754-16.64 0-32.073 14.425-44.138 14.424-12.065 11.66-25.036 13.168-34.688 3.217-20.51 17.742-26.644 35.584-24.934 63.127 6.233 48.551-16.44 106.652-3.117 19.299 4.424 35.232 6.133 52.622 0s38.851-11.764 61.568 0c40.912 21.214 50.662-4.374 75.642-.503 14.223 2.212 20.707 14.227 22.818 28.504 4.171 28.353 42.922 37.503 37.594 78.876z"/><path stroke="#008FDA" stroke-linecap="round" stroke-linejoin="round" stroke-width="2.649" d="M63.428 185.501c6.785 3.921 1.76 10.507-7.539 10.507-8.343 0-13.62-5.48-8.795-9.602m23.974 7.943c2.211-3.72 1.005-8.646-5.127-11.763m-21.21 15.634c6.082 3.67 15.53 3.821 21.813.302l-21.813-.302z"/><path stroke="#008FDA" stroke-linecap="round" stroke-linejoin="round" stroke-width="2.522" d="M73.43 153.229c4.071 3.468.603 7.792-5.428 8.898"/><path fill="#DAEBED" fill-rule="evenodd" d="M39.605 108.386v4.273c0 5.932-8.946 5.932-8.946 0v-4.273c0-11.16 9.046-20.21 20.154-20.21 11.158 0 20.154 9.05 20.154 20.21v46.099c0 5.932-8.946 5.932-8.946 0v-46.099c-.05-14.83-22.416-14.88-22.416 0z" clip-rule="evenodd"/><path fill="#163050" fill-rule="evenodd" d="M62.121 117.937v-8.294c0-9.552-9.6-15.836-17.29-10.809-5.83 3.67-5.377 9.351-5.477 13.724l-3.87.151v-3.519c0-9.149 6.885-16.489 15.329-16.489 8.494 0 15.33 7.39 15.33 16.539v4.223c-2.212 0-3.368 1.76-4.022 4.474zm0 17.344s-.904 14.679.654 11.613c1.558-3.067 2.16-1.76 2.16-1.76v-8.043c3.971-12.669 3.419-9.451 3.57-20.31l-6.384 18.5zm3.97 23.879c2.263 0 2.212-3.72 2.212-3.72v-7.239s-4.473 10.959-2.211 10.959z" clip-rule="evenodd" opacity=".1"/><path stroke="#163050" stroke-linecap="round" stroke-linejoin="round" stroke-width="2.329" d="M39.605 108.386v4.273c0 5.932-8.946 5.932-8.946 0v-4.273c0-11.16 9.046-20.21 20.154-20.21 11.158 0 20.154 9.05 20.154 20.21v46.099c0 5.932-8.946 5.932-8.946 0v-46.099c-.05-14.83-22.416-14.88-22.416 0z"/><path fill="#DAEBED" fill-rule="evenodd" d="M68.504 150.011l-11.208 33.078c-1.558 4.776-7.74 1.81-6.232-2.915l11.208-33.079c1.558-4.776 7.74-1.81 6.232 2.916zm-.201-31.27L57.095 151.82c-1.558 4.776-7.74 1.81-6.232-2.916l11.208-33.079c1.608-4.775 7.79-1.809 6.232 2.916z" clip-rule="evenodd"/><path stroke="#163050" stroke-linecap="round" stroke-linejoin="round" stroke-width="2.329" d="M68.203 149.156l-11.208 33.079c-1.558 4.776-6.936 2.413-5.428-2.262l11.208-33.079c1.457-3.921 6.785-1.357 5.428 2.262zm-.05-30.867l-11.208 33.079c-1.558 4.776-7.288 2.564-5.73-2.162l11.208-33.079c1.558-4.775 7.288-2.563 5.73 2.162z"/><path fill="#DBEBED" fill-rule="evenodd" d="M60.865 134.628v55.349c-2.212 2.715-8.142 2.413-9.851 0v-55.349c0-8.144-7.69-13.573-14.777-12.015-1.507.302-3.266 1.106-3.417 1.257-11.861 6.284-1.508 20.41-11.359 20.41-5.73 0-4.925-6.284-4.925-9.602 0-12.216 9.9-22.119 22.114-22.119 12.314-.05 22.215 9.853 22.215 22.069z" clip-rule="evenodd"/><path fill="#163050" fill-rule="evenodd" d="M55.336 134.476v57.41c-1.81-.1-3.518-.804-4.272-1.91v-55.047c0-9.552-10.353-15.836-18.646-10.809-10.907 6.435-1.458 18.752-10.102 20.059v-9.703c0-9.149 7.388-16.489 16.535-16.489 9.097 0 16.485 7.39 16.485 16.489z" clip-rule="evenodd" opacity=".1"/><path stroke="#163050" stroke-linecap="round" stroke-linejoin="round" stroke-width="2.329" d="M60.865 134.628v55.349c-2.212 2.715-8.142 2.413-9.851 0v-55.349c0-8.144-7.69-13.573-14.777-12.015-1.507.302-3.266 1.106-3.417 1.257-11.861 6.284-1.508 20.41-11.359 20.41-5.73 0-4.925-6.284-4.925-9.602 0-12.216 9.9-22.119 22.114-22.119 12.314-.05 22.215 9.853 22.215 22.069z"/><path stroke="#008FDA" stroke-linecap="round" stroke-linejoin="round" stroke-width="2.329" d="M114.392 130.205c7.891-2.011 8.041-8.496 20.958-5.379m124.595 18.398c4.623-5.982 23.974-5.63 18.545-12.165m-79.511 34.184c10.756-1.106 19.149-.352 28.095 7.239"/><path fill="#A8E5EF" d="M183.65 130.555c-3.82-14.881-.804-35.19 7.338-47.205 8.846-13.07 20.355-11.512 25.733 3.519 4.322 12.115 3.367 29.308-1.809 42.328-13.47 6.536-23.472 6.134-31.262 1.358z"/><path fill="#C6F2F9" d="M209.886 105.52c-3.669 7.541-2.815 7.089-5.529 5.48.704 4.424.754 4.323.603 4.675-2.814 5.781-2.714 5.832-3.267 5.932-.402.101-.854-.201-.904-.603l-1.709-10.959-3.317-1.559c1.306 2.413 1.507 2.564 1.256 3.067l-1.608 3.619 4.975 9.15c.252.452.252.301-2.161 5.178a.812.812 0 01-.703.452c-.654.051-.402.151-5.127-8.144-1.005 2.212-1.055 2.765-1.709 2.765-.653.05-.553-.1-2.915-4.172-.301-.503-.703.804 8.193-20.008.251-.553.804-.704 1.256-.453l1.307.805-.754-4.072c-.101-.453-.05-.252 2.814-7.089.403-.905 1.559-.804 1.659.151l1.608 11.864 5.629 2.765c.453.201.604.704.403 1.156z"/><path fill="#008FDA" d="M182.243 121.205c3.367 3.921 6.684 6.334 13.62 6.334 12.314 0 19.35-5.278 20.959-6.032l-1.86 7.691c-7.79 5.53-24.326 7.491-31.262 1.358-1.106-4.927-1.457-9.351-1.457-9.351z" opacity=".1"/><path fill="#8BD8FF" d="M438.367 169.365l3.669-68.621-26.788-16.288-27.492 61.884 50.611 23.025z"/><path fill="#008FDA" d="M283.667 187.06l26.035 9.552c3.468 1.256 3.769 4.072.452 4.574l-17.892 2.765c-5.026.754-11.158-1.759-12.415-5.127l-3.367-9.301c-.905-2.513 3.217-3.921 7.187-2.463z" opacity=".5"/><path fill="#0DA3E0" d="M315.633 182.436l16.083 5.127c2.513.805 2.714 3.017.251 3.57l-12.917 2.915c-3.468.805-7.086-1.005-7.338-3.468l-.552-6.133c-.151-1.609 2.362-2.715 4.473-2.011z"/><path fill="#fff" d="M279.847 172.23l24.929 9.552c3.318 1.257 3.619 5.882.453 7.541l-17.139 8.998c-4.825 2.514-10.705-.201-11.861-5.53l-3.217-14.679c-.854-3.971 3.016-7.34 6.835-5.882zm17.491-21.767l17.641 9.2c2.362 1.206 2.161 4.675-.301 5.63l-13.47 5.228c-3.769 1.458-7.891-1.056-8.343-5.077l-1.156-11.161c-.302-3.066 2.915-5.228 5.629-3.82z"/><path stroke="#163050" stroke-linecap="round" stroke-linejoin="round" stroke-width="2.329" d="M279.847 172.23l24.929 9.552c3.318 1.257 3.619 5.882.453 7.541l-17.139 8.998c-4.825 2.514-10.705-.201-11.861-5.53l-3.217-14.679c-.854-3.971 3.016-7.34 6.835-5.882z"/><path fill="#0DA3E0" d="M217.274 128.796c10.404-1.809 13.369 2.162 22.768 2.162 9.398 0 4.623-12.216-14.526-15.685-5.729 5.782-8.242 13.523-8.242 13.523z"/><path stroke="#163050" stroke-linecap="round" stroke-linejoin="round" stroke-width="2.329" d="M297.338 150.463l17.641 9.2c2.362 1.206 2.161 4.675-.301 5.63l-13.47 5.228c-3.769 1.458-7.891-1.056-8.343-5.077l-1.156-11.161c-.302-3.066 2.915-5.228 5.629-3.82z"/><path fill="#0DA3E0" d="M149.021 178.213c-43.374-11.563-82.175 1.206-56.241 21.064 21.712 16.69 56.241-21.064 56.241-21.064z"/><path fill="#82D5EA" d="M205.563 74.302s3.921.754 8.645 1.86 17.49 17.595 7.891 51.88c-3.77.352-7.187 1.156-7.187 1.156 6.533-16.64 8.695-47.858-9.349-54.896z"/><path fill="#A8E5EF" d="M130.374 201.891c15.832-3.067 22.919-3.871 31.865-.252 2.865-5.681 3.167-21.566-.05-32.224-7.539-24.834-28.799-33.933-43.073-27.348-25.08 11.613-22.918 45.496-14.324 61.633-.05-.1-.1-.151-.1-.251-.051.05 7.488 1.961 25.682-1.558z"/><path fill="#fff" d="M127.962 202.846l3.719-2.715c.402-.302.503-.804.302-1.257l-7.64-16.992 4.021-2.915c.251-.101.503-.553.352-1.106 0-.051.151.301-1.96-4.324l7.589 6.133.754 16.087c.05.805.905 1.257 1.508.805l6.684-4.877c.603-.452.453-.352-.201-7.239l3.971 3.519a.958.958 0 001.357-.1c7.287-5.329 6.584-4.776 6.634-4.877a1.08 1.08 0 00-.201-1.407l-10.856-8.597c-.905-15.584-.654-14.98-1.357-15.332-.302-.151-.654-.101-.955.05l-6.383 4.575c-.603.402-.402.402.201 6.384l-3.418-3.117c-.301-.301-.804-.301-1.156-.05l-21.712 15.685c-.352.251-.503.754-.302 1.206l3.066 7.139c.101.251.352.452.603.553.604.201.553 0 4.574-2.866l6.936 15.886" opacity=".7"/><path fill="#008FDA" d="M102.983 198.874c27.542 0 28.799-9.049 52.974-9.049 2.865 0 5.679.201 8.443.553 0 0-.703 6.988-2.161 11.261-11.409-3.016-15.279-2.212-30.105.302-13.018 2.212-23.17 3.267-27.995 1.206-1.257-2.815-1.156-4.273-1.156-4.273z" opacity=".1"/><path fill="#82D5EA" d="M93.986 199.226c-7.89-20.209-.251-38.658 4.624-45.244 6.283-8.496 14.475-10.456 24.829-13.221-11.761 4.977-15.732 8.998-20.054 17.896-4.323 8.898-5.63 20.159-3.72 30.063 1.961 9.903 5.429 15.634 5.429 15.634-6.082-.503-9.801-2.564-11.108-5.128z"/><path fill="#0DA3E0" d="M438.367 169.365c-9.85-1.961-18.294 3.418-35.483 11.261-18.345 8.395-27.14-1.207-42.319-.805-68.705 1.81 2.614-46.953 2.815-47.104 12.766-9.2 27.341-13.523 42.419-14.529 2.463.403 4.775 1.056 6.886 2.062 3.015 4.474 5.227 10.456 6.332 18.047 1.91 12.668 10.706 21.516 19.35 31.068z"/><path fill="#0DA3E0" d="M214.912 129.198c3.267-8.244 4.221-17.444 4.221-17.444l6.936-.855s-1.256 8.898-3.97 17.093c-4.373.452-7.187 1.206-7.187 1.206z" opacity=".3"/><path stroke="#163050" stroke-linecap="round" stroke-linejoin="round" stroke-width="2.329" d="M204.96 74.553l6.433.754c13.721 1.608 18.597 30.464 10.706 52.735"/><path stroke="#163050" stroke-linecap="round" stroke-linejoin="round" stroke-width="2.329" d="M183.901 131.409c-.1-.301-.151-.553-.251-.854m0 0c-3.82-14.881-.804-35.19 7.338-47.205 8.846-13.07 20.355-11.512 25.733 3.519 4.322 12.115 3.367 29.308-1.809 42.328l-31.262 1.358z"/><path fill="#A8E5EF" d="M404.743 213.352c13.721-16.539 17.491-48.964 1.609-57.913-15.882-8.948-39.354 2.011-51.014 29.309 9.75 7.993 12.766-.252 23.069 9.903 7.087 6.988 16.938 18.45 26.336 18.701z"/><path fill="#fff" d="M369.21 188.819l2.01-4.675-4.071-1.156a.977.977 0 01-.653-1.357l3.417-7.843a.998.998 0 011.207-.553l24.376 6.787c.452.151.754.553.754 1.056l-.402 4.826 3.618-4.173c.553-.653.453-.452 8.243 1.709.704.201 1.005 1.106.452 1.659l-10.755 11.362-.352 13.674c-4.624-1.458-6.986-5.279-6.986-5.279l.251-3.569c.05-.955-1.106-1.458-1.759-.754l-1.86 2.061s-3.367-2.665-4.473-4.675l4.524-4.776.251-10.205c-1.86 4.273-1.81 4.725-2.714 4.725-.201 0 .151.05-4.624-1.257l-2.764 6.335" opacity=".7"/><path fill="#008FDA" d="M356.343 182.285c4.373.453 8.042 2.514 12.314 3.368 33.021 7.038 12.515 17.093 40.962 21.919 2.362.402 4.523 1.809 6.785 2.564l-.804 3.468s-11.259 3.62-21.763-5.077c-10.504-8.697-16.887-17.444-22.064-18.651-5.227-1.257-13.57-1.407-16.335-5.128.453-.854.905-2.463.905-2.463z" opacity=".1"/><path fill="#0DA3E0" d="M416.806 213.403c13.068-3.67 27.794-21.466 6.333-31.923-6.484 27.398-6.333 31.923-6.333 31.923z"/><path fill="#82D5EA" d="M408.362 156.797c12.465 12.467 10.756 38.005-3.618 56.555 4.473 1.71 10.856.252 10.856.252 19.651-35.844.502-52.886-1.96-54.042l-5.278-2.765z"/><path fill="#0DA3E0" d="M423.641 192.239c-2.261 11.361-8.092 21.315-8.092 21.315-6.785 2.212-10.856-.251-10.856-.251 5.83-8.697 8.896-16.389 10.505-23.326l8.443 2.262zm-332.972-8.094l8.444-.956c.301 10.155 5.579 20.31 5.579 20.31-5.026-.151-10.656-4.273-10.656-4.273-2.261-4.776-3.367-15.081-3.367-15.081z" opacity=".3"/><path stroke="#163050" stroke-linecap="round" stroke-linejoin="round" stroke-width="2.329" d="M419.168 211.744c3.066-2.363 4.122-6.083 2.111-10.205m-316.638 1.96c-10.504-20.661-6.383-47.707 10.052-58.817 15.48-10.457 35.635-2.062 44.983 18.751 5.529 12.266 6.031 26.141 2.362 37.603"/><path stroke="#163050" stroke-linecap="round" stroke-linejoin="round" stroke-width="2.329" d="M94.388 199.778c-7.79-20.309-2.965-49.165 17.491-55.499l9.247-2.866m234.614 42.078c9.801-21.214 29.704-34.838 45.033-30.565 19.802 5.53 20.908 36.347 4.373 59.723"/><path stroke="#163050" stroke-linecap="round" stroke-linejoin="round" stroke-width="2.329" d="M405.347 212.296c14.424-20.611 15.832-48.462-.151-57.561l7.79 4.475c15.732 8.948 14.023 34.888 2.563 53.891m-191.691-90.288c10.605 2.313 7.489 7.038 2.664 5.681-12.716-2.111-16.687 5.53-29.201 5.53-6.836 0-14.073-2.262-19.702-5.681m-4.021 77.468c-8.243-3.72-12.565-6.485-25.884-6.284-9.047.151-48.149 12.267-56.593-3.468-1.206-2.263-.251-4.977.604-5.58"/><path stroke="#163050" stroke-linecap="round" stroke-linejoin="round" stroke-width="2.329" d="M347.146 186.356c2.01-1.106 4.071-1.86 6.181-1.86 5.077 0 4.323 4.273 13.721 4.273 9.097 0 17.089 12.769 28.046 20.26 9.85 6.736 19.4 6.384 24.124 2.714"/><path fill="#FFC858" d="M326.991 86.668c-6.131 3.77-12.967 6.837-14.575 18.098-1.608 11.211 1.005 30.465 7.74 37.201 15.631 15.634 40.359 21.064 60.664 6.585 8.192-5.881 83.582-55.952 83.582-55.952s-8.745-9.25 5.076-19.254c13.772-10.004 4.423-44.691-24.225-25.99-28.648 18.65-26.487-14.177-61.267 6.133l-56.995 33.18z"/><path fill="#FFA965" d="M355.74 150.916c-2.513 1.357-3.317 5.228-7.639 5.228-7.389 0-10.103-.453-10.404-5.53-.352-5.681-2.614-13.624-15.078-14.931-16.988-1.759-10.957-7.892-.654-7.641 4.021-11.864-8.544-25.136 11.409-25.136 13.42 0 48.099 17.796 48.099 32.476 0 5.831-6.534 11.009-13.017 13.673-4.976 2.011-9.348.051-12.716 1.861z"/><path fill="#4FD7ED" d="M333.324 64.7c-6.232 8.093-22.466 51.93 5.83 75.206 5.529 4.072 20.758 7.189 32.87-11.261 4.071-6.234 12.314-26.242 8.595-43.837-3.468-16.489-9.148-29.358-19.903-32.374-10.756-3.067-19.652 2.262-27.392 12.266z"/><path fill="#00BBEA" d="M361.319 52.483l-.603-.1c.05 0 .251 0 .603.1z"/><path fill="#00BBEA" d="M389.816 104.665c-2.261 17.394-10.554 30.666-20.556 36.196-5.78 3.217-13.068 2.463-15.631 2.061 18.395-8.144 25.985-22.17 27.593-42.681.804-15.785-2.061-30.514-9.7-39.764-5.278-6.385-8.846-7.793-10.203-8.094l7.288 1.005c6.734 1.86 19.852 10.658 21.611 35.442.402 5.58.252 10.858-.402 15.835z"/><path fill="#0DA3E0" d="M389.816 104.665c-2.261 17.394-10.554 30.666-20.556 36.195-5.78 3.218-13.068 2.464-15.631 2.062a104.632 104.632 0 003.468-1.659 15.43 15.43 0 005.629-3.369c8.042-5.63 15.581-15.031 17.993-32.877 1.609-1.056 3.468-1.709 5.78-1.709 1.307.05 2.362.553 3.317 1.357z"/><path fill="#FFDA7F" d="M447.716 103.358l-12.615 8.597 12.615-8.597z"/><path fill="#00BBEA" d="M332.721 66.208c9.348 12.367 32.267 20.611 48.752 22.873l-.804-4.273s-33.322-9.35-46.541-20.26c-.804 1.107-1.407 1.66-1.407 1.66z"/><path fill="#FFDA7F" d="M435.101 111.954c-58.654 39.966-59.759 41.123-67.198 42.681 4.473-3.821 5.328-6.837 7.288-15.634 1.96-8.798 3.82-13.373 11.409-18.802s84.839-56.053 89.664-59.773c4.825-3.72 11.258 3.117 4.573 8.798-6.735 5.68 2.111 10.657-8.242 17.796l-37.494 24.934z"/><path fill="#BFB5F2" d="M409.368 76.915c-1.508 3.218-4.976 5.932-4.976 5.932 5.026 10.055-4.725 17.595-13.972 17.444.653-7.691-.302-15.181-1.056-17.695-5.679 6.133-25.884-.453-35.383-4.977-9.449-4.575-22.516-11.562-21.109-14.88 1.407-3.318 10.856-12.518 13.671-10.608-1.156 2.011.703 3.318 3.669 4.273 2.965.956 15.731 6.385 19.802 6.837 4.021.453 8.997.604 10.303-3.77 1.759.352 4.222 4.223 4.222 4.223 5.177-2.564 7.539-.754 8.645.603 6.735-1.206 20.908 2.212 16.184 12.618z"/><path fill="#fff" d="M328.499 73.447c-1.156 4.675-2.211 7.692-2.211 7.692-.905-.956-2.564-2.966-2.513-3.017-3.77-5.027-5.881-10.707-6.785-15.232-5.428.352-7.992-2.865-11.158-7.49-1.508-1.81-2.463-4.374-.704-5.882.201-.201-1.809-1.91-.854-3.921.653-1.408 2.513-2.112 4.071-2.112-.754-3.87 3.87-4.222 5.227-1.86 1.357 2.313 4.071 8.647 4.071 8.647 2.061-2.564 2.513-3.117 4.021-3.62 1.508-.502 5.277 1.76 3.015 5.882-2.261 4.123-5.076 6.234-5.076 6.234 1.81 6.183 5.73 12.517 8.896 14.68zm29.503 1.96c-.503-.251-.553-.553-.654-1.508-.955 1.005-1.206.653-2.613 0-3.066-1.508-2.965-1.207 1.206-5.379.654-.654-1.759-5.731.503-5.731.201 0 .251 0 1.457.503 2.011.854 2.111.703 2.262 1.86.854-.955 1.156-.453 4.121.754 2.513 1.005-2.865 4.022-2.764 4.826 1.156 7.641 1.156 6.887-3.518 4.675zm-8.544-4.122c-.252 0-.151 0-2.564-1.156-1.005-.503-.653-.855 1.156-6.134-1.608-.653-1.708-.854-1.055-2.714.955-2.564.603-2.212 4.825-.553 3.92 1.558 3.418 1.357 2.814 3.368-.603 1.86-.753 2.413-2.462 1.609-.553-.151-1.257 5.58-2.714 5.58-.051-.704 0-.654 0 0zm4.322 67.415c-1.055 6.736-3.066 11.311-6.232 15.835-2.312 3.217-6.031 6.837-9.148 4.474-3.166-2.312-1.156-7.189-.201-9.652 1.659-4.323-.05-18.801 7.238-20.36 4.121-.905 9.75.402 8.343 9.703zm-39.756-5.078c-1.809.352-4.774 1.709-7.237-6.837-2.262-7.892-3.719-11.16-3.719-11.16-2.815-8.898 7.388-11.663 10.152-4.022 1.759 4.877 3.418 7.692 3.619 13.674.05 2.916 0 7.842-2.815 8.345zm117.659-27.348c-.352 1.659-1.809 3.318-6.584 4.223-.603 0 .502.151 1.206 1.257.654.301 1.106 3.921-4.372 4.273-5.127.301-10.002-.05-12.063-.754s-3.418-1.961-3.066-3.017c-3.87 1.106-12.565 2.564-20.104.905-2.412-.251-3.468-3.217-3.015-5.63 1.357-6.938 10.102-.151 22.014-2.363 1.608-.301 3.266-.553 3.266-.553s1.76-4.022 2.312-8.043c.553-4.072 4.876-5.63 6.032-.905.402 1.558.955 4.725 0 5.982 4.573-2.413 4.825-2.312 6.634-3.418 3.116-1.86 6.634 1.508 2.764 5.178 1.458-.302 3.368-.352 4.473.703.553.503.704 1.358.503 2.162z"/><path fill="#fff" d="M332.068 133.019c-3.87.855-9.047 1.207-18.948-2.363-4.222-1.508-2.413-7.389 1.809-5.932 0 0 5.026 2.916 13.47 2.464l3.669 5.831z"/><path fill="#DAEBED" d="M316.035 131.761c-.503 1.157-1.207 1.71-2.061 1.861-1.809.351-4.775 1.709-7.237-6.837-2.262-7.893-3.72-11.161-3.72-11.161-1.558-4.977.905-8.043 3.921-8.445-.805 1.608-1.81 2.513-1.81 5.479 0 1.408 2.614 15.031 7.439 17.394l3.468 1.709zm37.443 8.446c-1.256 6.737-3.568 10.909-5.981 14.328-2.312 3.217-6.031 6.836-9.147 4.474-3.166-2.313-1.156-7.189-.201-9.652 1.206-3.117.704-8.396 1.91-13.272.402 1.106.352 3.519.352 9.702 0 3.469-1.257 8.245 2.915 8.245 4.222 0 6.885-5.932 10.152-13.825zm64.082-39.312c-1.056.201-2.262.201-2.965.654.301-4.273 2.11-6.686-.704-8.345 0-.151.05-.302.1-.453 3.519-.905 4.172 6.184 3.569 8.144z"/><path fill="#A382E5" d="M394.541 89.835c0 3.268 1.005 6.686.352 9.954-1.207.302-2.463.452-3.669.503-1.408-4.776-1.86-16.791-1.86-17.545.101-5.63 4.172-1.558 6.333-8.395.904 0 1.608.1 2.764 1.005-.05 8.797-3.92 7.893-3.92 14.478z" opacity=".6"/><path fill="#DAEBED" d="M315.532 51.428c-1.91 3.72-5.931-3.972-7.489-7.893h.252c-.402-1.96 1.306-3.117 2.563-3.368-.201.503-.804.855-.804 1.408.05 4.273 4.171 7.64 5.478 9.853zm-5.076 3.067c-2.463-1.659-6.333-4.675-6.333-7.842 0-3.218 2.413-2.162 2.764-2.463-2.513 1.709.453 4.675 3.569 10.305z"/><path fill="#DAEBED" d="M328.147 76.464c-.301.905-1.507 3.066-1.96 3.921-4.473-2.866-8.594-11.864-9.65-17.042-1.206.251-2.362-.302-3.468-.855-1.658-.904-3.618-2.362-4.071-2.815-1.055-1.106-2.965-3.368-4.121-5.077-1.407-1.71-.704-3.268-.352-4.525.955 2.564 2.111 3.77 4.524 6.335 3.769 3.97 5.277 3.418 6.282 3.418 4.624 0 2.463 9.4 12.816 16.64z"/><path fill="#A382E5" d="M406.302 80.987c-.804-7.59-12.716-16.84-12.766-16.84.603 2.965 2.01 4.373 2.613 10.054 0 0 4.926 3.066 8.595 8.898.502-.754 1.055-1.458 1.558-2.112z" opacity=".6"/><path fill="#DAEBED" d="M421.932 116.027c-5.126.302-10.001-.05-12.062-.754s-3.418-1.961-3.066-3.016c-3.87 1.106-12.565 2.564-20.104.905-2.412-.252-3.468-3.218-3.015-5.631 4.523 1.609 7.89 2.916 12.615 2.916 3.217 0 9.801-.855 12.716-2.312-.302 3.368 3.066 5.177 11.258 5.177 2.111 0 4.222-.402 5.679-1.86 1.558 1.358.603 4.274-4.021 4.575z"/><path fill="#DAEBED" d="M431.683 106.274c-.352 1.659-1.809 3.318-6.584 4.223-1.156 0 .754-.502-9.097-.704 5.126-2.01 13.972-.904 15.078-5.731.653.553.804 1.408.603 2.212zm-5.026-2.915c1.407-.302-2.262.905-9.298 2.111 3.367-3.921 9.65-2.463 9.197-6.837-.1 0 0-.452.201-.804 1.709.704 2.463 3.016-.1 5.53z"/><path fill="#A382E5" d="M388.409 71.587c3.569-.2 5.78-.904 6.484-4.574 1.708 2.563 1.507 11.713-3.368 11.713-1.156 0-1.307-1.408-1.709-2.463-.603-1.559-1.005-3.117-1.407-4.676z" opacity=".6"/><path fill="#0DA3E0" d="M381.172 84.757s4.925.604 8.192-1.96c.905 2.212 1.106 4.172 1.106 4.172l-9.047 2.062-.251-4.274z"/><path fill="#DAEBED" d="M310.958 127.187c2.815 1.156 9.349 4.122 19.954 2.966l2.06 3.016c-4.272 1.81-16.636-.151-21.31-3.368-.905-.805-1.307-2.212-.704-2.614z"/><path stroke="#163050" stroke-linecap="round" stroke-linejoin="round" stroke-width="2.329" d="M385.193 63.493c6.986-3.067 10.252 2.01 10.252 9.5 0 3.67-1.256 5.28-4.724 5.682"/><path stroke="#163050" stroke-linecap="round" stroke-linejoin="round" stroke-width="2.329" d="M393.134 64.297c.05 0 17.138-1.608 17.138 9.05 0 3.82-2.412 6.836-5.227 9.35m-9.198-9.251c16.084 10.608 10.756 26.242-5.478 26.845m-73.681-38.607c2.513 12.467 9.198 18.902 9.198 18.902"/><path stroke="#163050" stroke-linecap="round" stroke-linejoin="round" stroke-width="2.329" d="M316.939 62.89c-3.87.805-6.383-.653-11.559-7.741-1.81-2.514-1.759-4.474-.402-5.279m4.925 4.975c-2.513-2.815-4.171-4.323-5.378-6.837-1.206-2.513.453-4.524 3.167-4.474m5.076 8.095c-1.608-2.162-3.619-5.279-4.272-7.641-1.156-4.072 3.468-5.58 5.729-.956 2.865 5.882 2.815 6.134 3.418 7.29"/><path stroke="#163050" stroke-linecap="round" stroke-linejoin="round" stroke-width="2.329" d="M316.085 51.227s1.759-.553 4.071-3.368c2.614-3.218 6.685.251 4.574 4.172-2.111 3.922-5.177 6.787-5.177 6.787 3.418 10.457 8.946 14.63 8.946 14.63m51.517-12.518c-6.735-7.843-13.219-7.843-22.517-9.25m16.134 11.562c-6.534-10.054-16.837-14.78-27.442-9.703m7.036 89.383c11.711-2.111 22.567-15.282 26.638-34.285 1.659-7.691 2.01-15.433 1.256-22.672m-48.048-20.311c-15.48 23.477-12.163 62.186 6.081 74.201m50.662-35.139c1.056-7.39.955-14.629-.15-21.265m-4.373 37.754c1.005-2.363 1.86-4.826 2.614-7.44"/><path stroke="#163050" stroke-linecap="round" stroke-linejoin="round" stroke-width="2.329" d="M408.915 104.565c-3.518.955-10.806 1.759-21.109-.252-5.127-1.005-6.132 7.692-1.106 8.798 4.976 1.106 12.264.804 19.3-.805m2.714-6.535c.955-3.921 1.709-5.379 2.513-9.954.754-4.323 5.83-4.826 6.182.654.251 3.117.251 4.424.251 4.424"/><path stroke="#163050" stroke-linecap="round" stroke-linejoin="round" stroke-width="2.329" d="M414.997 102.001s4.925-1.81 8.896-3.821c4.523-2.313 6.935 3.821 2.01 5.178m-.955 7.139c.754-.202 1.508-.453 2.513-.704 6.936-1.961 4.373-8.044-.301-6.737-2.463.704-4.524 1.358-9.701 2.665m-64.383 37.604c9.148.201 14.877.603 22.668-7.29"/><path stroke="#163050" stroke-linecap="round" stroke-linejoin="round" stroke-width="2.329" d="M407.206 110.999c-1.357 2.112 0 3.972 3.519 4.474 5.176.754 8.142.453 11.911.403 4.926-.051 4.875-5.731.352-5.581-2.262.051-5.127 0-6.835-.05"/><path stroke="#163050" stroke-linecap="round" stroke-linejoin="round" stroke-width="2.058" d="M331.967 133.22c-4.372.503-10.957.252-18.797-2.564-4.222-1.508-2.413-7.389 1.809-5.932 0 0 5.83 3.168 13.721 2.514"/><path stroke="#163050" stroke-linecap="round" stroke-linejoin="round" stroke-width="2.058" d="M316.185 131.812c-.904 2.564-6.734 4.676-8.996-3.468-.704-2.514-1.659-5.882-3.418-10.306-3.92-9.954 2.564-10.607 3.619-10.607 5.931 0 8.243 8.546 9.399 17.796"/><path stroke="#163050" stroke-linecap="round" stroke-linejoin="round" stroke-width="2.329" d="M336.541 154.133c-1.005 4.223 3.568 8.044 8.494 3.519 5.076-4.675 9.047-15.785 9.147-21.817.151-7.792-8.695-9.954-12.665-3.57-1.81 2.916-2.111 6.184-2.363 10.105-.251 4.776-1.709 8.194-2.613 11.763zm9.599-101.046c-1.859 1.76 13.52 7.29 22.969 9.954 4.373 1.206 13.168 0 10.354-3.52 2.764-1.005 8.946 8.296 10.957 19.305 2.362 12.97-36.288 4.173-56.593-13.422-1.156-1.006-1.307-2.665-.402-3.871 7.488-9.954 13.319-10.758 15.58-9.602"/><path fill="#163050" d="M346.913 89.393c.356-3.369-1.481-6.325-4.104-6.602-2.622-.278-5.037 2.228-5.393 5.597-.356 3.368 1.481 6.324 4.103 6.602 2.623.277 5.037-2.229 5.394-5.597zm14.055 7.292c.356-3.369-1.481-6.325-4.103-6.602-2.623-.278-5.038 2.228-5.394 5.597-.356 3.368 1.481 6.324 4.103 6.602 2.623.277 5.038-2.229 5.394-5.597z"/><path fill="#fff" d="M343.778 85.059c-2.061-1.106-3.367 3.318-1.307 4.424 2.011 1.055 3.317-3.368 1.307-4.424zm14.475 7.29c-2.061-1.106-3.367 3.318-1.307 4.424 2.061 1.056 3.368-3.368 1.307-4.424z"/><path fill="#163050" d="M364.787 64.8c-8.394-3.418-8.142-3.468-8.997-3.267-.452-.654-.452-.503-6.785-3.117-1.055-.452-2.312.1-2.664 1.207l-.804 2.362c-.352 1.006.151 2.061 1.106 2.514.101.05.251-.453-1.357 4.273-.302.955.101 2.01 1.005 2.463 2.413 1.157 2.513 1.307 3.116 1.307.905 0 1.659-.603 1.91-1.357l1.357-4.072c.704.251 1.407.1 1.96-.352.201 1.559.503.855-2.764 4.122-1.005.956-.704 2.615.553 3.218 0 0 8.243 4.072 8.846 4.072 1.206 0 2.161-1.056 2.01-2.313l-.653-4.524c-.101-.553.05-.553 2.814-3.268 1.056-.955.704-2.714-.653-3.267zm-10.303-1.86c-1.006 3.218-.704 3.067-2.463 2.263-.151-.05-.352 0-.402.15-1.759 5.33-1.659 5.43-2.161 5.43-.151 0-.051.05-2.363-1.106-.502-.251-.301-.453 1.458-5.68.05-.152 0-.302-.151-.353-1.809-.754-1.508-.352-.553-3.318a.504.504 0 01.654-.301c5.83 2.413 6.131 2.312 5.981 2.916zm9.8 4.223c-3.166 3.117-3.317 3.117-3.216 3.67l.703 5.027c.051.302-.201.553-.502.553-.151 0 .1.05-3.116-1.458-.302-.15-.302-.352-.403-1.86 0-.15-.201-.2-.301-.1-1.307 1.458-.603 1.357-4.071-.352-.302-.15-.352-.553-.151-.754 3.217-3.218 3.368-3.167 3.267-3.72l-.553-4.324c-.05-.301.201-.553.503-.553.1 0-.101-.05 2.865 1.157.301.15.301.352.402 1.558 0 .15.201.201.301.1.654-.753.754-.904 1.005-.904.151 0-.1-.05 3.066 1.206.402.1.453.503.201.754z"/><path stroke="#163050" stroke-linecap="round" stroke-linejoin="round" stroke-width="2.329" d="M404.794 132.616c-20.255 13.774-30.86 21.868-38.801 23.075 5.378-2.263 7.187-7.139 10.203-20.913 2.061-9.451 8.142-12.719 13.771-16.54m59.357-15.784l-10.856 7.39m-91.775 46.4c7.238 1.306 14.576 1.005 20.607-.905m-52.019-21.918c3.87 9.501 12.012 16.137 21.26 19.907m-12.565-64.9c-5.78 3.971-11.661 6.786-12.113 20.963"/><path stroke="#E2E7E9" stroke-linecap="round" stroke-linejoin="round" stroke-width="2.329" d="M359.409 43.536l26.688-17.947"/><path stroke="#F5F5F5" stroke-linecap="round" stroke-linejoin="round" stroke-width="2.329" d="M474.354 41.423l6.433-4.322"/><path stroke="#FFDA7F" stroke-linecap="round" stroke-linejoin="round" stroke-width="2.329" d="M439.021 63.795l19.4-13.02"/><path stroke="#E2E7E9" stroke-linecap="round" stroke-linejoin="round" stroke-width="2.329" d="M418.113 45.697l44.882-30.163"/><path stroke="#FFDA7F" stroke-linecap="round" stroke-linejoin="round" stroke-width="2.329" d="M403.035 55.852l7.388-4.977"/><path stroke="#E2E7E9" stroke-linecap="round" stroke-linejoin="round" stroke-width="2.329" d="M375.995 40.419l6.735-4.524"/><path fill="#163050" d="M339.858 114.77c-1.307-2.916-.452-6.133 1.206-6.888 2.061-.904 3.217.805 7.589.905 5.378.101 9.148-1.558 10.806 1.71 3.519 7.138-14.676 15.534-19.601 4.273z"/><path fill="#FFA5C3" d="M357.549 116.729c-6.483 5.832-15.379 3.368-17.691-1.96.352-.352 4.322-5.832 7.941-1.71 0-.05 5.529-3.77 9.75 3.67z"/><path fill="#FA6D9C" d="M353.126 112.658c1.056 7.29-12.313 5.329-6.584.855-3.618 1.407-5.076-.302-5.076-.302-.603-.05-1.759.905-1.859 1.358 1.105 4.423 12.766 8.194 17.389 2.01.151-2.413-3.467-3.72-3.87-3.921z"/><path stroke="#163050" stroke-linecap="round" stroke-linejoin="round" stroke-miterlimit="10" stroke-width="3.053" d="M341.064 107.882c2.061-.904 3.217.805 7.589.905 5.378.101 9.148-1.558 10.806 1.71 1.96 3.921-4.774 11.26-13.319 9.099-8.443-2.061-7.79-10.507-5.076-11.714z"/><path stroke="#163050" stroke-linecap="round" stroke-linejoin="round" stroke-miterlimit="10" stroke-width="3.053" d="M345.236 114.97c.804-.855 1.759-1.458 2.714-2.061m9.7 3.469c-4.473-7.089-9.549-3.519-9.851-3.369-3.719-3.971-7.489 1.257-7.79 1.559l17.641 1.81z"/><path fill="#163050" d="M408.312 207.923l7.891 4.122-.654 1.559s-5.377 1.256-10.856-.252c2.362-3.167 3.619-5.429 3.619-5.429z" opacity=".2"/><path fill="#fff" d="M316.638 135.029l11.308 7.29c1.508.955 1.156 3.116-.603 3.519l-9.449 2.111c-2.664.603-5.277-1.357-5.277-3.921v-7.088c0-1.961 2.312-3.017 4.021-1.911z"/><path stroke="#163050" stroke-linecap="round" stroke-linejoin="round" stroke-width="2.329" d="M316.638 135.029l11.308 7.29c1.508.955 1.156 3.116-.603 3.519l-9.449 2.111c-2.664.603-5.277-1.357-5.277-3.921v-7.088c0-1.961 2.312-3.017 4.021-1.911z"/></svg>