<svg xmlns="http://www.w3.org/2000/svg" fill="none" viewBox="0 0 24 21"><path fill="#163150" fill-rule="evenodd" d="M0 1a1 1 0 011-1h13.2a1 1 0 011 1v3.942a1 1 0 01-2 0V2H2v16.381l.553-.276a1 1 0 01.895 0l1.544.772 1.473-.765a1 1 0 01.896-.014l1.631.788 1.56-.781a1 1 0 01.896 0l1.552.777V15a1 1 0 112 0v4.5a1 1 0 01-.552.894l-1 .5a1 1 0 01-.896 0L11 20.117l-1.552.777a1 1 0 01-.883.007l-1.622-.784-1.482.77a1 1 0 01-.909.007L3 20.117l-1.552.777A1 1 0 010 20V1zm4 5a1 1 0 011-1h5a1 1 0 110 2H5a1 1 0 01-1-1zm0 4.5a1 1 0 011-1h.5a1 1 0 010 2H5a1 1 0 01-1-1zM4 15a1 1 0 011-1h3a1 1 0 110 2H5a1 1 0 01-1-1zm15.606-8.447a1 1 0 011.762-.05l2 3.5a1 1 0 11-1.736.993l-1.073-1.878-2.665 5.33a1 1 0 01-1.773.029l-1.716-3.164H11a1 1 0 010-2h4a1 1 0 01.879.523l1.085 2 2.642-5.283z" clip-rule="evenodd"/></svg>