<svg xmlns="http://www.w3.org/2000/svg" viewBox="0 0 345 150"><rect width="345" height="150" fill="#fff" rx="3"/><path fill="#163150" d="M30.752 72V54.648h5.988c1.136 0 2.104.108 2.904.324.808.216 1.468.524 1.98.924.52.4.9.884 1.14 1.452.24.568.36 1.208.36 1.92 0 .408-.06.8-.18 1.176a3.41 3.41 0 01-.564 1.044c-.248.32-.568.612-.96.876a5.683 5.683 0 01-1.38.672c2.384.536 3.576 1.824 3.576 3.864 0 .736-.14 1.416-.42 2.04a4.555 4.555 0 01-1.224 1.62c-.536.448-1.196.8-1.98 1.056s-1.68.384-2.688.384h-6.552zm3.228-7.608v5.088h3.276c.6 0 1.1-.072 1.5-.216.408-.144.732-.336.972-.576.248-.24.424-.52.528-.84.112-.32.168-.66.168-1.02 0-.376-.06-.712-.18-1.008a1.85 1.85 0 00-.564-.768c-.256-.216-.584-.38-.984-.492-.4-.112-.884-.168-1.452-.168H33.98zm0-2.232h2.58c1.096 0 1.928-.2 2.496-.6.568-.4.852-1.036.852-1.908 0-.904-.256-1.548-.768-1.932-.512-.384-1.312-.576-2.4-.576h-2.76v5.016zm14.949-2.472v7.824c0 .752.172 1.336.516 1.752.352.408.876.612 1.572.612.512 0 .992-.112 1.44-.336a5.16 5.16 0 001.272-.948v-8.904h2.964V72H54.88c-.384 0-.636-.18-.756-.54l-.204-.984c-.256.256-.52.492-.792.708a5.154 5.154 0 01-.876.54 4.701 4.701 0 01-.996.336 4.69 4.69 0 01-1.14.132c-.672 0-1.268-.112-1.788-.336a3.642 3.642 0 01-1.296-.972 4.315 4.315 0 01-.804-1.476 6.465 6.465 0 01-.264-1.896v-7.824h2.964zm15.296 15.696a1.075 1.075 0 01-.348.468c-.136.112-.348.168-.636.168h-2.208l2.304-4.932-4.98-11.4h2.592c.24 0 .424.056.552.168.128.112.224.24.288.384l2.628 6.384c.088.208.164.424.228.648.064.224.12.448.168.672.064-.232.132-.456.204-.672.08-.216.164-.436.252-.66l2.472-6.372a.873.873 0 01.816-.552h2.376l-6.708 15.696zM86.943 72H85.61c-.28 0-.5-.04-.66-.12-.16-.088-.28-.26-.36-.516l-.264-.876c-.312.28-.62.528-.924.744a5.607 5.607 0 01-.924.528c-.32.144-.66.252-1.02.324-.36.072-.76.108-1.2.108-.52 0-1-.068-1.44-.204a3.237 3.237 0 01-1.14-.636 2.895 2.895 0 01-.732-1.044c-.176-.416-.264-.9-.264-1.452 0-.464.12-.92.36-1.368.248-.456.656-.864 1.224-1.224.568-.368 1.324-.672 2.268-.912.944-.24 2.116-.376 3.516-.408v-.72c0-.824-.176-1.432-.528-1.824-.344-.4-.848-.6-1.512-.6-.48 0-.88.056-1.2.168-.32.112-.6.24-.84.384-.232.136-.448.26-.648.372-.2.112-.42.168-.66.168a.858.858 0 01-.516-.156 1.228 1.228 0 01-.348-.384l-.54-.948c1.416-1.296 3.124-1.944 5.124-1.944.72 0 1.36.12 1.92.36a3.98 3.98 0 011.44.984c.392.416.688.916.888 1.5.208.584.312 1.224.312 1.92V72zm-5.76-1.848c.304 0 .584-.028.84-.084a3.07 3.07 0 00.72-.252c.232-.112.452-.248.66-.408.216-.168.432-.364.648-.588v-2.076c-.864.04-1.588.116-2.172.228-.576.104-1.04.24-1.392.408-.352.168-.604.364-.756.588a1.327 1.327 0 00-.216.732c0 .52.152.892.456 1.116.312.224.716.336 1.212.336zm12.607.216c0-.248.044-.484.132-.708.096-.224.224-.416.384-.576.168-.16.364-.288.588-.384.224-.096.464-.144.72-.144.248 0 .484.048.708.144.224.096.416.224.576.384.16.16.288.352.384.576.096.224.144.46.144.708 0 .256-.048.496-.144.72a1.854 1.854 0 01-.384.564c-.16.16-.352.284-.576.372-.224.096-.46.144-.708.144-.256 0-.496-.048-.72-.144a1.794 1.794 0 01-.588-.372 1.854 1.854 0 01-.384-.564 1.951 1.951 0 01-.132-.72zm14.751-8.076c-.088.112-.176.2-.264.264-.08.064-.2.096-.36.096a.841.841 0 01-.444-.132 7.894 7.894 0 00-.516-.312c-.2-.12-.44-.224-.72-.312-.272-.096-.612-.144-1.02-.144-.52 0-.976.096-1.368.288a2.59 2.59 0 00-.984.804c-.256.352-.448.78-.576 1.284a6.79 6.79 0 00-.192 1.692c0 .656.068 1.24.204 1.752.144.512.348.944.612 1.296.264.344.584.608.96.792.376.176.8.264 1.272.264s.852-.056 1.14-.168c.296-.12.544-.248.744-.384.2-.144.372-.272.516-.384.152-.12.32-.18.504-.18.24 0 .42.092.54.276l.852 1.08a5.52 5.52 0 01-1.068.972 6.12 6.12 0 01-1.2.624c-.408.152-.832.26-1.272.324-.44.064-.876.096-1.308.096-.76 0-1.476-.14-2.148-.42a5.143 5.143 0 01-1.764-1.248c-.496-.544-.892-1.208-1.188-1.992-.288-.792-.432-1.692-.432-2.7 0-.904.128-1.74.384-2.508a5.698 5.698 0 011.152-2.004 5.22 5.22 0 011.872-1.332c.744-.32 1.6-.48 2.568-.48.92 0 1.724.148 2.412.444.696.296 1.32.72 1.872 1.272l-.78 1.08zM111.326 72V59.688h1.74c.304 0 .516.056.636.168.12.112.2.304.24.576l.18 1.488c.44-.76.956-1.36 1.548-1.8a3.257 3.257 0 011.992-.66c.608 0 1.112.14 1.512.42l-.384 2.22c-.024.144-.076.248-.156.312a.556.556 0 01-.324.084 2.02 2.02 0 01-.492-.084 3.293 3.293 0 00-.828-.084c-.616 0-1.144.172-1.584.516-.44.336-.812.832-1.116 1.488V72h-2.964zm14.165 3.384a1.075 1.075 0 01-.348.468c-.136.112-.348.168-.636.168h-2.208l2.304-4.932-4.98-11.4h2.592c.24 0 .424.056.552.168.128.112.224.24.288.384l2.628 6.384c.088.208.164.424.228.648.064.224.12.448.168.672.064-.232.132-.456.204-.672.08-.216.164-.436.252-.66l2.472-6.372a.873.873 0 01.816-.552h2.376l-6.708 15.696zm8.429.636V59.688h1.812c.192 0 .356.044.492.132a.617.617 0 01.264.408l.24 1.14a6.248 6.248 0 011.704-1.38c.648-.352 1.404-.528 2.268-.528a4 4 0 011.836.42c.56.28 1.04.688 1.44 1.224.408.528.72 1.184.936 1.968.224.776.336 1.668.336 2.676 0 .92-.124 1.772-.372 2.556a6.19 6.19 0 01-1.068 2.04 4.894 4.894 0 01-1.668 1.356c-.648.32-1.376.48-2.184.48-.696 0-1.288-.104-1.776-.312a4.452 4.452 0 01-1.296-.888v5.04h-2.964zm5.76-14.22c-.616 0-1.144.132-1.584.396-.432.256-.836.62-1.212 1.092v5.52c.336.416.7.708 1.092.876.4.16.828.24 1.284.24.448 0 .852-.084 1.212-.252.368-.168.676-.424.924-.768.256-.344.452-.776.588-1.296.136-.528.204-1.148.204-1.86 0-.72-.06-1.328-.18-1.824-.112-.504-.276-.912-.492-1.224a1.957 1.957 0 00-.792-.684 2.411 2.411 0 00-1.044-.216zm11.854 10.392c-1.064 0-1.884-.3-2.46-.9-.576-.608-.864-1.444-.864-2.508v-6.876h-1.248c-.16 0-.3-.052-.42-.156-.112-.104-.168-.26-.168-.468v-1.176l1.98-.324.624-3.36a.604.604 0 01.216-.372.73.73 0 01.444-.132h1.536v3.876h3.24v2.112h-3.24v6.672c0 .384.096.684.288.9.192.216.448.324.768.324.184 0 .336-.02.456-.06.128-.048.236-.096.324-.144.096-.048.18-.092.252-.132a.387.387 0 01.216-.072.32.32 0 01.216.072.85.85 0 01.18.192l.888 1.44c-.432.36-.928.632-1.488.816-.56.184-1.14.276-1.74.276zm10.494-12.696c.92 0 1.752.148 2.496.444a5.384 5.384 0 011.92 1.26c.528.544.936 1.208 1.224 1.992.288.784.432 1.66.432 2.628 0 .976-.144 1.856-.432 2.64a5.7 5.7 0 01-1.224 2.004 5.307 5.307 0 01-1.92 1.272c-.744.296-1.576.444-2.496.444-.92 0-1.756-.148-2.508-.444a5.424 5.424 0 01-1.932-1.272 5.845 5.845 0 01-1.236-2.004c-.288-.784-.432-1.664-.432-2.64 0-.968.144-1.844.432-2.628.296-.784.708-1.448 1.236-1.992a5.504 5.504 0 011.932-1.26c.752-.296 1.588-.444 2.508-.444zm0 10.404c1.024 0 1.78-.344 2.268-1.032.496-.688.744-1.696.744-3.024s-.248-2.34-.744-3.036c-.488-.696-1.244-1.044-2.268-1.044-1.04 0-1.808.352-2.304 1.056-.496.696-.744 1.704-.744 3.024s.248 2.328.744 3.024c.496.688 1.264 1.032 2.304 1.032z"/><path fill="#282D32" d="M35.872 99c-.203 0-.33-.099-.384-.296l-.128-.984c-.347.421-.744.76-1.192 1.016-.443.25-.952.376-1.528.376-.464 0-.885-.088-1.264-.264a2.658 2.658 0 01-.968-.792c-.267-.347-.472-.779-.616-1.296-.144-.517-.216-1.112-.216-1.784 0-.597.08-1.152.24-1.664.16-.517.39-.965.688-1.344a3.214 3.214 0 012.576-1.216c.496 0 .92.085 1.272.256.352.165.667.4.944.704v-4.496h1.424V99h-.848zm-2.76-1.04c.464 0 .87-.107 1.216-.32.352-.213.675-.515.968-.904v-3.92c-.261-.352-.55-.597-.864-.736a2.416 2.416 0 00-1.032-.216c-.757 0-1.339.27-1.744.808-.405.539-.608 1.307-.608 2.304 0 .528.045.981.136 1.36.09.373.224.683.4.928.176.24.392.416.648.528.256.112.55.168.88.168zm9.273-7.192c.593 0 1.126.099 1.6.296.48.197.886.477 1.217.84.336.363.592.803.767 1.32.182.512.273 1.085.273 1.72 0 .64-.091 1.216-.273 1.728-.175.512-.431.95-.767 1.312a3.331 3.331 0 01-1.216.84 4.234 4.234 0 01-1.6.288 4.295 4.295 0 01-1.608-.288 3.428 3.428 0 01-1.216-.84 3.74 3.74 0 01-.776-1.312 5.154 5.154 0 01-.273-1.728c0-.635.091-1.208.273-1.72.18-.517.44-.957.776-1.32a3.428 3.428 0 011.216-.84 4.193 4.193 0 011.608-.296zm0 7.232c.8 0 1.398-.267 1.793-.8.394-.539.592-1.288.592-2.248 0-.965-.198-1.717-.593-2.256-.394-.539-.992-.808-1.791-.808-.406 0-.758.07-1.056.208a2.01 2.01 0 00-.752.6 2.754 2.754 0 00-.449.968 5.255 5.255 0 00-.143 1.288c0 .48.047.91.144 1.288.1.379.25.699.447.96.203.256.454.453.753.592.298.139.65.208 1.056.208zm5.611 1v-8.104h.848c.203 0 .33.099.384.296l.104.832c.299-.368.632-.67 1-.904a2.384 2.384 0 011.296-.352c.55 0 .992.152 1.328.456.341.304.587.715.736 1.232.112-.293.259-.547.44-.76a2.652 2.652 0 011.352-.832 3.32 3.32 0 01.792-.096c.427 0 .805.07 1.136.208.336.133.619.33.848.592.235.261.413.584.536.968.123.379.184.813.184 1.304V99h-1.424v-5.16c0-.635-.139-1.115-.416-1.44-.277-.33-.68-.496-1.208-.496-.235 0-.459.043-.672.128-.208.08-.392.2-.552.36-.16.16-.288.363-.384.608-.09.24-.136.52-.136.84V99h-1.424v-5.16c0-.65-.13-1.136-.392-1.456-.261-.32-.642-.48-1.144-.48-.352 0-.68.096-.984.288a3.175 3.175 0 00-.824.768V99h-1.424zm19.093 0h-.632a.754.754 0 01-.336-.064c-.086-.043-.142-.133-.168-.272l-.16-.752c-.214.192-.422.365-.624.52-.203.15-.416.277-.64.384a3.446 3.446 0 01-.72.232c-.25.053-.53.08-.84.08-.315 0-.61-.043-.888-.128a1.935 1.935 0 01-1.2-1.064 2.409 2.409 0 01-.176-.96c0-.32.088-.627.264-.92.176-.299.458-.563.848-.792.394-.23.91-.416 1.544-.56.634-.15 1.41-.235 2.328-.256v-.632c0-.63-.136-1.104-.408-1.424-.267-.325-.664-.488-1.192-.488a2.5 2.5 0 00-.88.136c-.235.085-.44.184-.616.296-.17.107-.32.205-.448.296a.642.642 0 01-.368.128.463.463 0 01-.256-.072.64.64 0 01-.168-.192l-.256-.456c.448-.432.93-.755 1.448-.968a4.471 4.471 0 011.72-.32c.453 0 .856.075 1.208.224.352.15.648.357.888.624s.421.59.544.968c.122.379.184.795.184 1.248V99zm-3.696-.872c.25 0 .48-.024.688-.072.208-.053.402-.125.584-.216.186-.096.362-.21.528-.344a4.36 4.36 0 00.496-.456v-1.688a11.33 11.33 0 00-1.672.16c-.459.08-.832.187-1.12.32-.288.133-.499.29-.632.472a1.03 1.03 0 00-.192.608c0 .213.034.397.104.552.07.155.162.283.28.384.117.096.256.168.416.216.16.043.333.064.52.064zm7.437-7.232V99h-1.424v-8.104h1.424zm.32-2.544c0 .139-.03.27-.088.392a1.086 1.086 0 01-.224.32 1.024 1.024 0 01-.712.296.973.973 0 01-.392-.08 1.166 1.166 0 01-.32-.216 1.17 1.17 0 01-.216-.32.973.973 0 01-.08-.392c0-.139.027-.27.08-.392.053-.128.126-.237.216-.328a.973.973 0 01.712-.304.973.973 0 01.712.304c.096.09.17.2.224.328a.897.897 0 01.088.392zM73.34 99v-8.104h.848c.203 0 .33.099.384.296l.112.88c.352-.39.744-.704 1.176-.944.437-.24.941-.36 1.512-.36.442 0 .832.075 1.168.224.341.144.624.352.848.624.23.267.402.59.52.968.117.379.176.797.176 1.256V99H78.66v-5.16c0-.613-.141-1.088-.424-1.424-.278-.341-.704-.512-1.28-.512a2.41 2.41 0 00-1.184.304 3.913 3.913 0 00-1.008.824V99H73.34zm10.928-8.104h1.12a.44.44 0 01.44.296l1.552 5.216c.043.192.083.379.12.56.038.176.07.355.096.536a8.7 8.7 0 01.144-.536l.168-.56 1.712-5.248a.433.433 0 01.136-.2.407.407 0 01.256-.08h.616a.42.42 0 01.264.08c.07.053.118.12.144.2l1.672 5.248c.059.187.11.37.152.552.048.181.094.36.136.536a8.63 8.63 0 01.24-1.088l1.584-5.216a.394.394 0 01.152-.208.414.414 0 01.264-.088h1.072L93.684 99h-1.128c-.138 0-.234-.09-.288-.272l-1.792-5.496a3.149 3.149 0 01-.104-.368 49 49 0 00-.08-.376l-.08.376a3.034 3.034 0 01-.104.376l-1.816 5.488c-.058.181-.168.272-.328.272h-1.072l-2.624-8.104zm14.89 0V99h-1.424v-8.104h1.424zm.32-2.544c0 .139-.03.27-.088.392a1.088 1.088 0 01-.224.32 1.02 1.02 0 01-.32.216.973.973 0 01-.392.08.973.973 0 01-.392-.08 1.164 1.164 0 01-.32-.216 1.166 1.166 0 01-.216-.32.971.971 0 01-.08-.392c0-.139.027-.27.08-.392.054-.128.126-.237.216-.328a.973.973 0 01.712-.304.973.973 0 01.712.304c.096.09.17.2.224.328a.898.898 0 01.088.392zm4.646 10.776c-.64 0-1.133-.179-1.48-.536-.341-.357-.512-.872-.512-1.544v-4.96h-.976a.331.331 0 01-.216-.072c-.059-.053-.088-.133-.088-.24v-.568l1.328-.168.328-2.504a.287.287 0 01.104-.192.32.32 0 01.224-.08h.72v2.792h2.32v1.032h-2.32v4.864c0 .341.083.595.248.76a.866.866 0 00.64.248c.149 0 .277-.019.384-.056.112-.043.208-.088.288-.136.08-.048.147-.09.2-.128.059-.043.109-.064.152-.064.075 0 .141.045.2.136l.416.68c-.245.23-.541.41-.888.544a3.073 3.073 0 01-1.072.192zm3.513-.128V87.216h1.424v4.768c.346-.368.73-.661 1.152-.88.421-.224.906-.336 1.456-.336.442 0 .832.075 1.168.224.341.144.624.352.848.624.229.267.402.59.52.968.117.379.176.797.176 1.256V99h-1.424v-5.16c0-.613-.142-1.088-.424-1.424-.278-.341-.704-.512-1.28-.512a2.41 2.41 0 00-1.184.304 3.903 3.903 0 00-1.008.824V99h-1.424z"/><path fill="#010617" d="M233.977 72.747c-1.135 0-2.017-.31-2.646-.928-.63-.619-.944-1.495-.944-2.63v-4.235h2.161v4.17c0 1.222.484 1.833 1.451 1.833.961 0 1.441-.611 1.441-1.834v-4.17h2.128v4.236c0 1.135-.315 2.011-.944 2.63-.629.618-1.511.928-2.647.928zm12.322-7.793v7.64h-1.779l-3.372-4.071v4.07h-2.117v-7.64h1.779l3.372 4.072v-4.071h2.117zm4.213 7.793a7.072 7.072 0 01-1.801-.23c-.582-.152-1.055-.356-1.418-.61l.709-1.594c.342.225.739.407 1.19.545.451.139.895.208 1.331.208.83 0 1.244-.208 1.244-.622 0-.219-.118-.38-.354-.486-.237-.105-.617-.216-1.141-.333a10.9 10.9 0 01-1.441-.398 2.432 2.432 0 01-.993-.682c-.276-.313-.414-.735-.414-1.266 0-.466.127-.886.382-1.261.254-.375.634-.671 1.14-.89.506-.218 1.126-.327 1.861-.327.502 0 .997.056 1.484.17a4.54 4.54 0 011.288.496l-.666 1.604c-.727-.393-1.433-.59-2.117-.59-.429 0-.742.065-.939.192-.196.127-.294.293-.294.496 0 .204.116.357.349.459.233.102.608.207 1.124.316a10.55 10.55 0 011.446.399c.382.142.713.367.993.676.281.31.421.73.421 1.261 0 .458-.128.873-.382 1.244-.255.371-.637.668-1.146.89-.51.222-1.128.333-1.856.333zm6.003-6.08h-2.347v-1.713h6.844v1.713h-2.336v5.927h-2.161v-5.927zm9.157 6.08c-.808 0-1.534-.171-2.177-.513a3.86 3.86 0 01-1.518-1.42 3.852 3.852 0 01-.551-2.04c0-.757.184-1.437.551-2.041a3.86 3.86 0 011.518-1.419c.643-.342 1.369-.513 2.177-.513s1.533.171 2.177.513a3.85 3.85 0 011.517 1.419c.368.604.551 1.284.551 2.04 0 .758-.183 1.438-.551 2.042a3.85 3.85 0 01-1.517 1.419c-.644.342-1.369.513-2.177.513zm0-1.79c.386 0 .735-.091 1.048-.273.313-.182.56-.439.742-.77.182-.33.273-.71.273-1.14 0-.43-.091-.81-.273-1.14a1.962 1.962 0 00-.742-.77 2.047 2.047 0 00-1.048-.273c-.386 0-.735.091-1.048.273-.313.182-.56.438-.742.77a2.329 2.329 0 00-.273 1.14c0 .43.091.81.273 1.14.182.331.429.588.742.77.313.182.662.273 1.048.273zm8.873-6.003c.691 0 1.292.115 1.801.344.509.229.902.556 1.179.982.276.426.414.926.414 1.5 0 .576-.138 1.074-.414 1.496-.277.422-.67.748-1.179.977-.509.229-1.11.344-1.801.344h-1.332v1.997h-2.16v-7.64h3.492zm-.131 3.94c.444 0 .779-.097 1.004-.29.226-.192.338-.467.338-.823 0-.357-.112-.633-.338-.83-.225-.196-.56-.294-1.004-.294h-1.201v2.237h1.201zm8.175-3.94c.691 0 1.291.115 1.801.344.509.229.902.556 1.178.982.277.426.415.926.415 1.5 0 .576-.138 1.074-.415 1.496-.276.422-.669.748-1.178.977-.51.229-1.11.344-1.801.344h-1.332v1.997h-2.161v-7.64h3.493zm-.131 3.94c.444 0 .778-.097 1.004-.29.225-.192.338-.467.338-.823 0-.357-.113-.633-.338-.83-.226-.196-.56-.294-1.004-.294h-1.201v2.237h1.201zm9.801 2.215h-3.231l-.6 1.485h-2.205l3.373-7.64h2.128l3.383 7.64h-2.248l-.6-1.485zm-.633-1.593l-.983-2.445-.982 2.445h1.965zm9.964-.906c.437.153.779.391 1.026.715.247.324.371.715.371 1.173 0 .67-.269 1.186-.808 1.55-.538.364-1.317.546-2.335.546h-4.126v-7.64h3.908c.975 0 1.717.18 2.226.54.509.36.764.846.764 1.457 0 .364-.089.69-.267.977a1.878 1.878 0 01-.759.682zm-3.733-2.095v1.473h1.485c.727 0 1.091-.247 1.091-.742 0-.488-.364-.731-1.091-.731h-1.485zm1.812 4.518c.757 0 1.135-.258 1.135-.775 0-.516-.378-.775-1.135-.775h-1.812v1.55h1.812zm4.442-6.08h2.161v5.927h3.645v1.714h-5.806v-7.64zm12.791 5.97v1.67h-6.133v-7.64h5.992v1.67h-3.853v1.289h3.394v1.615h-3.394v1.397h3.994zm-86.45 5.937h3.613c.837 0 1.579.157 2.226.47.648.312 1.15.756 1.506 1.331.357.575.535 1.248.535 2.02 0 .77-.178 1.443-.535 2.018a3.53 3.53 0 01-1.506 1.332c-.647.313-1.389.469-2.226.469h-3.613v-7.64zm3.525 5.916c.655 0 1.181-.186 1.578-.557.396-.371.594-.884.594-1.539 0-.655-.198-1.168-.594-1.539-.397-.37-.923-.556-1.578-.556h-1.364v4.19h1.364zm9.343 1.877c-.808 0-1.534-.171-2.177-.513a3.86 3.86 0 01-1.518-1.419 3.852 3.852 0 01-.551-2.04c0-.758.184-1.438.551-2.042a3.86 3.86 0 011.518-1.419c.643-.342 1.369-.513 2.177-.513s1.533.171 2.177.513a3.85 3.85 0 011.517 1.42c.368.603.551 1.283.551 2.04 0 .757-.183 1.437-.551 2.041a3.85 3.85 0 01-1.517 1.419c-.644.342-1.369.513-2.177.513zm0-1.79c.386 0 .735-.091 1.048-.273.313-.182.56-.438.742-.77.182-.33.273-.71.273-1.14 0-.43-.091-.81-.273-1.14a1.962 1.962 0 00-.742-.77 2.046 2.046 0 00-1.048-.273c-.386 0-.735.091-1.048.273-.313.182-.56.439-.742.77a2.328 2.328 0 00-.273 1.14c0 .43.091.81.273 1.14.182.332.429.588.742.77.313.182.662.273 1.048.273zm12.278 1.637l-.022-4.05-1.964 3.297h-.961l-1.953-3.187v3.94h-1.997v-7.64h1.779l2.684 4.41 2.62-4.41h1.779l.022 7.64h-1.987zm8.633-1.484h-3.23L260.4 84.5h-2.204l3.372-7.64h2.128l3.384 7.64h-2.248l-.601-1.484zm-.633-1.594l-.982-2.444-.982 2.444h1.964zm4.093-4.562h2.161v7.64h-2.161v-7.64zm10.969 0v7.64h-1.779l-3.373-4.07v4.07h-2.117v-7.64h1.779l3.372 4.071v-4.07h2.118zm4.212 7.793a7.059 7.059 0 01-1.8-.23c-.582-.152-1.055-.356-1.419-.61l.709-1.594c.342.226.739.407 1.19.546.451.138.895.207 1.331.207.83 0 1.245-.207 1.245-.622 0-.218-.119-.38-.355-.486-.237-.105-.617-.216-1.141-.333a10.879 10.879 0 01-1.44-.398 2.428 2.428 0 01-.994-.682c-.276-.313-.414-.735-.414-1.266 0-.466.127-.886.382-1.26.254-.375.635-.672 1.14-.89.506-.218 1.126-.328 1.861-.328.502 0 .997.057 1.484.17a4.54 4.54 0 011.288.496l-.665 1.605c-.728-.393-1.434-.59-2.118-.59-.429 0-.742.064-.938.191-.197.128-.295.293-.295.497 0 .204.116.356.349.458.233.102.608.207 1.124.317a10.53 10.53 0 011.446.398 2.5 2.5 0 01.994.677c.28.309.42.73.42 1.26 0 .459-.128.873-.382 1.244-.255.371-.637.668-1.146.89-.509.222-1.128.333-1.856.333z"/><path fill="#2FE9FF" fill-rule="evenodd" d="M221.75 60.688v10.914L190 84.5l31.75-23.813z" clip-rule="evenodd"/><path fill="#4C47F7" fill-rule="evenodd" d="M215.797 60.191v18.852c0 5.48-4.442 9.922-9.922 9.922s-9.922-4.442-9.922-9.922v-7.938l5.953-3.274v11.212a3.473 3.473 0 006.946 0V64.011l6.945-3.82z" clip-rule="evenodd"/></svg>