<svg xmlns="http://www.w3.org/2000/svg" viewBox="0 0 1200 120"><path fill="#fff" d="M0 0h1200v120H0z"/><mask id="a" width="1200" height="120" x="0" y="0" maskUnits="userSpaceOnUse"><path fill="#fff" d="M0 0h1200v120H0z"/></mask><g filter="url(#filter0_d)" mask="url(#a)"><ellipse cx="792.5" cy="60" fill="url(#paint0_linear)" rx="434.5" ry="252"/></g><path fill="#fff" d="M462.285 77V44.465h11.228c2.13 0 3.945.202 5.445.607 1.515.405 2.752.983 3.712 1.733.975.75 1.688 1.657 2.138 2.723.45 1.065.675 2.264.675 3.6 0 .764-.113 1.5-.338 2.205a6.391 6.391 0 01-1.057 1.957c-.465.6-1.065 1.148-1.8 1.642-.72.495-1.583.915-2.588 1.26 4.47 1.005 6.705 3.42 6.705 7.245 0 1.38-.262 2.656-.787 3.826a8.54 8.54 0 01-2.295 3.037c-1.005.84-2.243 1.5-3.713 1.98-1.47.48-3.15.72-5.04.72h-12.285zm6.053-14.265v9.54h6.142c1.125 0 2.063-.135 2.813-.405.765-.27 1.372-.63 1.822-1.08.465-.45.795-.975.99-1.575.21-.6.315-1.237.315-1.913 0-.705-.112-1.335-.337-1.89a3.469 3.469 0 00-1.058-1.44c-.48-.404-1.095-.712-1.845-.922-.75-.21-1.657-.315-2.722-.315h-6.12zm0-4.185h4.837c2.055 0 3.615-.375 4.68-1.125 1.065-.75 1.598-1.942 1.598-3.578 0-1.694-.48-2.902-1.44-3.622-.96-.72-2.46-1.08-4.5-1.08h-5.175v9.405zm28.029-4.635v14.67c0 1.41.322 2.505.967 3.285.66.765 1.643 1.147 2.948 1.147.96 0 1.86-.21 2.7-.63.84-.434 1.635-1.027 2.385-1.777V53.915h5.557V77h-3.397c-.72 0-1.193-.338-1.418-1.013l-.382-1.844c-.48.48-.975.922-1.485 1.327a9.67 9.67 0 01-1.643 1.013 8.81 8.81 0 01-1.867.63 8.8 8.8 0 01-2.138.247c-1.26 0-2.377-.21-3.352-.63a6.83 6.83 0 01-2.43-1.823c-.66-.78-1.163-1.702-1.508-2.767-.33-1.08-.495-2.265-.495-3.555v-14.67h5.558zm28.681 29.43c-.165.39-.383.683-.653.877-.255.21-.652.316-1.192.316h-4.14l4.32-9.248-9.338-21.375h4.86c.45 0 .795.105 1.035.315.24.21.42.45.54.72l4.928 11.97c.165.39.307.795.427 1.215.12.42.225.84.315 1.26.12-.435.248-.855.383-1.26.15-.405.307-.818.472-1.238l4.635-11.947c.12-.3.315-.547.585-.742.285-.195.6-.293.945-.293h4.455l-12.577 29.43zM567.643 77h-2.497c-.525 0-.938-.075-1.238-.225-.3-.165-.525-.488-.675-.968l-.495-1.642c-.585.525-1.162.99-1.732 1.395-.555.39-1.133.72-1.733.99a8.89 8.89 0 01-1.912.608c-.675.135-1.425.202-2.25.202-.975 0-1.875-.127-2.7-.382a6.071 6.071 0 01-2.138-1.193 5.427 5.427 0 01-1.372-1.957c-.33-.78-.495-1.688-.495-2.723 0-.87.225-1.725.675-2.565.465-.855 1.23-1.62 2.295-2.295 1.065-.69 2.482-1.26 4.252-1.71 1.77-.45 3.968-.705 6.593-.765v-1.35c0-1.545-.33-2.685-.99-3.42-.645-.75-1.59-1.125-2.835-1.125-.9 0-1.65.105-2.25.315-.6.21-1.125.45-1.575.72-.435.255-.84.488-1.215.698-.375.21-.788.315-1.238.315-.375 0-.697-.098-.967-.293a2.304 2.304 0 01-.653-.72l-1.012-1.777c2.655-2.43 5.857-3.646 9.607-3.646 1.35 0 2.55.225 3.6.675 1.065.435 1.965 1.05 2.7 1.846.735.78 1.29 1.717 1.665 2.812.39 1.095.585 2.295.585 3.6V77zm-10.8-3.465c.57 0 1.095-.052 1.575-.157.48-.106.93-.263 1.35-.473.435-.21.848-.465 1.238-.765.405-.315.81-.683 1.215-1.103v-3.892c-1.62.075-2.978.218-4.073.428-1.08.195-1.95.45-2.61.765-.66.315-1.132.682-1.417 1.102-.27.42-.405.877-.405 1.373 0 .974.285 1.672.855 2.092.585.42 1.342.63 2.272.63zm23.638.405c0-.465.083-.907.248-1.328.18-.42.42-.78.72-1.08.315-.3.682-.54 1.102-.72.42-.18.87-.27 1.35-.27.465 0 .908.09 1.328.27.42.18.78.42 1.08.72.3.3.54.66.72 1.08.18.42.27.863.27 1.328 0 .48-.09.93-.27 1.35-.18.405-.42.757-.72 1.057-.3.3-.66.533-1.08.698-.42.18-.863.27-1.328.27-.48 0-.93-.09-1.35-.27a3.362 3.362 0 01-1.102-.698c-.3-.3-.54-.652-.72-1.057a3.659 3.659 0 01-.248-1.35zm27.658-15.142a2.56 2.56 0 01-.495.494c-.15.12-.375.18-.675.18-.285 0-.563-.082-.833-.247-.27-.18-.592-.375-.967-.585a6.292 6.292 0 00-1.35-.585c-.51-.18-1.148-.27-1.913-.27-.975 0-1.83.18-2.565.54a4.855 4.855 0 00-1.845 1.508c-.48.66-.84 1.462-1.08 2.407-.24.93-.36 1.988-.36 3.172 0 1.23.128 2.325.383 3.285.27.96.652 1.77 1.147 2.43a5.04 5.04 0 001.8 1.486c.705.33 1.5.495 2.385.495.885 0 1.598-.106 2.138-.316a7.506 7.506 0 001.395-.72c.375-.27.697-.51.967-.72.285-.225.6-.337.945-.337.45 0 .788.172 1.013.517l1.597 2.026a10.346 10.346 0 01-2.002 1.822c-.72.48-1.47.87-2.25 1.17a11.59 11.59 0 01-2.385.608c-.825.12-1.643.18-2.453.18-1.425 0-2.767-.263-4.027-.788a9.646 9.646 0 01-3.308-2.34c-.93-1.02-1.672-2.265-2.227-3.735-.54-1.485-.81-3.172-.81-5.063 0-1.695.24-3.262.72-4.702.495-1.455 1.215-2.708 2.16-3.758.945-1.064 2.115-1.897 3.51-2.497 1.395-.6 3-.9 4.815-.9 1.725 0 3.232.278 4.522.833a11.04 11.04 0 013.51 2.385l-1.462 2.024zM613.362 77V53.915h3.262c.57 0 .968.105 1.193.315.225.21.375.57.45 1.08l.337 2.79c.825-1.425 1.793-2.55 2.903-3.375a6.108 6.108 0 013.735-1.238c1.14 0 2.085.263 2.835.788l-.72 4.163c-.045.27-.143.465-.293.584-.15.105-.352.158-.607.158-.225 0-.533-.053-.923-.157-.39-.106-.907-.158-1.552-.158-1.155 0-2.145.322-2.97.968-.825.63-1.523 1.56-2.093 2.79V77h-5.557zm26.559 6.345c-.165.39-.383.683-.653.877-.255.21-.652.316-1.192.316h-4.14l4.32-9.248-9.338-21.375h4.86c.45 0 .795.105 1.035.315.24.21.42.45.54.72l4.928 11.97c.165.39.307.795.427 1.215.12.42.225.84.315 1.26.12-.435.248-.855.383-1.26.15-.405.307-.818.472-1.238l4.635-11.947c.12-.3.315-.547.585-.742.285-.195.6-.293.945-.293h4.455l-12.577 29.43zm15.804 1.192V53.915h3.397c.36 0 .668.083.923.248.255.165.42.42.495.765l.45 2.137a11.716 11.716 0 013.195-2.587c1.215-.66 2.632-.99 4.252-.99 1.26 0 2.408.262 3.443.787 1.05.525 1.95 1.29 2.7 2.295.765.99 1.35 2.22 1.755 3.69.42 1.455.63 3.128.63 5.018 0 1.724-.233 3.322-.698 4.792-.465 1.47-1.132 2.745-2.002 3.825a9.179 9.179 0 01-3.128 2.543c-1.215.6-2.58.9-4.095.9-1.305 0-2.415-.195-3.33-.585-.9-.406-1.71-.96-2.43-1.665v9.45h-5.557zm10.8-26.662c-1.155 0-2.145.248-2.97.742-.81.48-1.568 1.163-2.273 2.048v10.35c.63.78 1.313 1.328 2.048 1.642.75.3 1.552.45 2.407.45.84 0 1.598-.157 2.273-.472a4.327 4.327 0 001.732-1.44c.48-.645.848-1.455 1.103-2.43.255-.99.382-2.153.382-3.487 0-1.35-.112-2.49-.337-3.42-.21-.945-.518-1.71-.923-2.295-.405-.586-.9-1.013-1.485-1.283-.57-.27-1.222-.405-1.957-.405zm22.227 19.485c-1.995 0-3.533-.563-4.613-1.688-1.08-1.14-1.62-2.707-1.62-4.702V58.078h-2.34c-.3 0-.562-.098-.787-.293-.21-.195-.315-.487-.315-.877v-2.206l3.712-.607 1.17-6.3c.06-.3.195-.532.405-.698.225-.165.503-.247.833-.247h2.88v7.267h6.075v3.96h-6.075v12.51c0 .72.18 1.283.54 1.688.36.405.84.607 1.44.607.345 0 .63-.037.855-.112.24-.09.442-.18.607-.27.18-.09.338-.172.473-.248a.726.726 0 01.405-.134.6.6 0 01.405.135c.105.075.217.195.337.36l1.665 2.7a8.413 8.413 0 01-2.79 1.53 10.41 10.41 0 01-3.262.517zm19.675-23.805c1.725 0 3.285.278 4.68.833 1.41.555 2.61 1.342 3.6 2.362.99 1.02 1.755 2.265 2.295 3.735.54 1.47.81 3.112.81 4.927 0 1.83-.27 3.48-.81 4.95-.54 1.47-1.305 2.723-2.295 3.758-.99 1.035-2.19 1.83-3.6 2.385-1.395.555-2.955.833-4.68.833-1.725 0-3.293-.278-4.703-.833-1.41-.555-2.617-1.35-3.622-2.385-.99-1.035-1.763-2.288-2.318-3.758-.54-1.47-.81-3.12-.81-4.95 0-1.815.27-3.457.81-4.927.555-1.47 1.328-2.715 2.318-3.735 1.005-1.02 2.212-1.807 3.622-2.362 1.41-.555 2.978-.833 4.703-.833zm0 19.508c1.92 0 3.337-.645 4.252-1.936.93-1.29 1.395-3.18 1.395-5.67 0-2.49-.465-4.387-1.395-5.692-.915-1.305-2.332-1.958-4.252-1.958-1.95 0-3.39.66-4.32 1.98-.93 1.306-1.395 3.196-1.395 5.67 0 2.476.465 4.366 1.395 5.67.93 1.29 2.37 1.936 4.32 1.936zM749.094 77c-.72 0-1.193-.338-1.418-1.013l-.45-2.227a13.79 13.79 0 01-1.507 1.462 9.356 9.356 0 01-1.71 1.126 8.27 8.27 0 01-1.958.72c-.69.18-1.44.27-2.25.27-1.26 0-2.415-.263-3.465-.788-1.05-.525-1.957-1.282-2.722-2.272-.75-1.006-1.335-2.243-1.755-3.713-.405-1.47-.608-3.15-.608-5.04 0-1.71.233-3.3.698-4.77.465-1.47 1.132-2.745 2.002-3.825a9.222 9.222 0 013.128-2.52c1.215-.615 2.58-.922 4.095-.922 1.29 0 2.392.21 3.307.63a8.478 8.478 0 012.453 1.642V43.565h5.557V77h-3.397zm-7.403-4.073c1.155 0 2.138-.24 2.948-.72s1.575-1.162 2.295-2.047V59.81c-.63-.765-1.32-1.305-2.07-1.62a5.99 5.99 0 00-2.385-.472c-.84 0-1.605.157-2.295.472-.675.315-1.253.795-1.733 1.44-.465.63-.825 1.44-1.08 2.43-.255.975-.382 2.13-.382 3.465 0 1.35.105 2.497.315 3.442.225.93.54 1.695.945 2.296.405.584.9 1.012 1.485 1.282.585.255 1.237.382 1.957.382zm26.677-19.372c1.725 0 3.285.278 4.68.833 1.41.555 2.61 1.342 3.6 2.362.99 1.02 1.755 2.265 2.295 3.735.54 1.47.81 3.112.81 4.927 0 1.83-.27 3.48-.81 4.95-.54 1.47-1.305 2.723-2.295 3.758-.99 1.035-2.19 1.83-3.6 2.385-1.395.555-2.955.833-4.68.833-1.725 0-3.293-.278-4.703-.833-1.41-.555-2.617-1.35-3.622-2.385-.99-1.035-1.763-2.288-2.318-3.758-.54-1.47-.81-3.12-.81-4.95 0-1.815.27-3.457.81-4.927.555-1.47 1.328-2.715 2.318-3.735 1.005-1.02 2.212-1.807 3.622-2.362 1.41-.555 2.978-.833 4.703-.833zm0 19.508c1.92 0 3.337-.645 4.252-1.936.93-1.29 1.395-3.18 1.395-5.67 0-2.49-.465-4.387-1.395-5.692-.915-1.305-2.332-1.958-4.252-1.958-1.95 0-3.39.66-4.32 1.98-.93 1.306-1.395 3.196-1.395 5.67 0 2.476.465 4.366 1.395 5.67.93 1.29 2.37 1.936 4.32 1.936zM784.089 77V53.915h3.398c.72 0 1.192.337 1.417 1.013l.36 1.71c.405-.45.825-.863 1.26-1.238.45-.375.923-.697 1.418-.968.51-.27 1.05-.48 1.62-.63a7.021 7.021 0 011.912-.247c1.455 0 2.648.398 3.578 1.193.945.78 1.65 1.822 2.115 3.127.36-.765.81-1.417 1.35-1.958a7.236 7.236 0 011.777-1.35 8.212 8.212 0 012.048-.764 10.04 10.04 0 012.205-.248c1.275 0 2.407.195 3.397.585.99.39 1.823.96 2.498 1.71.675.75 1.185 1.665 1.53 2.745.36 1.08.54 2.318.54 3.712V77h-5.558V62.307c0-1.47-.322-2.572-.967-3.307-.645-.75-1.59-1.125-2.835-1.125-.57 0-1.103.097-1.598.292-.48.195-.907.48-1.282.855-.36.36-.645.818-.855 1.373-.21.555-.315 1.192-.315 1.912V77h-5.58V62.307c0-1.544-.315-2.67-.945-3.375-.615-.705-1.53-1.057-2.745-1.057-.795 0-1.545.203-2.25.608-.69.39-1.335.93-1.935 1.62V77h-5.558zm55.971 0h-2.497c-.525 0-.938-.075-1.238-.225-.3-.165-.525-.488-.675-.968l-.495-1.642c-.585.525-1.162.99-1.732 1.395-.555.39-1.133.72-1.733.99a8.89 8.89 0 01-1.912.608c-.675.135-1.425.202-2.25.202-.975 0-1.875-.127-2.7-.382a6.071 6.071 0 01-2.138-1.193 5.427 5.427 0 01-1.372-1.957c-.33-.78-.495-1.688-.495-2.723 0-.87.225-1.725.675-2.565.465-.855 1.23-1.62 2.295-2.295 1.065-.69 2.482-1.26 4.252-1.71 1.77-.45 3.968-.705 6.593-.765v-1.35c0-1.545-.33-2.685-.99-3.42-.645-.75-1.59-1.125-2.835-1.125-.9 0-1.65.105-2.25.315-.6.21-1.125.45-1.575.72-.435.255-.84.488-1.215.698-.375.21-.788.315-1.238.315-.375 0-.697-.098-.967-.293a2.304 2.304 0 01-.653-.72l-1.012-1.777c2.655-2.43 5.857-3.646 9.607-3.646 1.35 0 2.55.225 3.6.675 1.065.435 1.965 1.05 2.7 1.846.735.78 1.29 1.717 1.665 2.812.39 1.095.585 2.295.585 3.6V77zm-10.8-3.465c.57 0 1.095-.052 1.575-.157.48-.106.93-.263 1.35-.473.435-.21.848-.465 1.238-.765.405-.315.81-.683 1.215-1.103v-3.892c-1.62.075-2.978.218-4.073.428-1.08.195-1.95.45-2.61.765-.66.315-1.132.682-1.417 1.102-.27.42-.405.877-.405 1.373 0 .974.285 1.672.855 2.092.585.42 1.342.63 2.272.63zm22.182-19.62V77h-5.557V53.915h5.557zm.833-6.727c0 .48-.098.93-.293 1.35-.195.42-.457.787-.787 1.102a3.73 3.73 0 01-1.125.765c-.435.18-.9.27-1.395.27-.48 0-.938-.09-1.373-.27a3.815 3.815 0 01-1.102-.765 3.818 3.818 0 01-.765-1.102 3.39 3.39 0 01-.27-1.35c0-.495.09-.96.27-1.396.195-.434.45-.81.765-1.125a3.481 3.481 0 011.102-.742 3.32 3.32 0 011.373-.292c.495 0 .96.097 1.395.292.435.18.81.428 1.125.742.33.316.592.69.787 1.125.195.435.293.9.293 1.395zM857.741 77V53.915h3.398c.72 0 1.192.337 1.417 1.013l.383 1.822a13.2 13.2 0 011.462-1.305c.525-.39 1.073-.727 1.643-1.013a8.595 8.595 0 011.867-.652c.66-.15 1.38-.225 2.16-.225 1.26 0 2.378.218 3.353.653a6.366 6.366 0 012.43 1.8c.66.764 1.155 1.687 1.485 2.767.345 1.065.517 2.242.517 3.532V77h-5.557V62.307c0-1.41-.33-2.497-.99-3.262-.645-.78-1.62-1.17-2.925-1.17-.96 0-1.86.218-2.7.653-.84.434-1.635 1.027-2.385 1.777V77h-5.558zm41.86.36c-1.995 0-3.532-.563-4.612-1.688-1.08-1.14-1.62-2.707-1.62-4.702V58.078h-2.34c-.3 0-.563-.098-.788-.293-.21-.195-.315-.487-.315-.877v-2.206l3.713-.607 1.17-6.3c.06-.3.195-.532.405-.698.225-.165.502-.247.832-.247h2.88v7.267h6.075v3.96h-6.075v12.51c0 .72.18 1.283.54 1.688.36.405.84.607 1.44.607.345 0 .63-.037.855-.112.24-.09.443-.18.608-.27.18-.09.337-.172.472-.248a.726.726 0 01.405-.134.6.6 0 01.405.135c.105.075.218.195.338.36l1.665 2.7a8.413 8.413 0 01-2.79 1.53c-1.05.344-2.138.517-3.263.517zm19.675-23.805c1.725 0 3.285.278 4.68.833 1.41.555 2.61 1.342 3.6 2.362.99 1.02 1.755 2.265 2.295 3.735.54 1.47.81 3.112.81 4.927 0 1.83-.27 3.48-.81 4.95-.54 1.47-1.305 2.723-2.295 3.758-.99 1.035-2.19 1.83-3.6 2.385-1.395.555-2.955.833-4.68.833-1.725 0-3.292-.278-4.702-.833-1.41-.555-2.618-1.35-3.623-2.385-.99-1.035-1.762-2.288-2.317-3.758-.54-1.47-.81-3.12-.81-4.95 0-1.815.27-3.457.81-4.927.555-1.47 1.327-2.715 2.317-3.735 1.005-1.02 2.213-1.807 3.623-2.362 1.41-.555 2.977-.833 4.702-.833zm0 19.508c1.92 0 3.338-.645 4.253-1.936.93-1.29 1.395-3.18 1.395-5.67 0-2.49-.465-4.387-1.395-5.692-.915-1.305-2.333-1.958-4.253-1.958-1.95 0-3.39.66-4.32 1.98-.93 1.306-1.395 3.196-1.395 5.67 0 2.476.465 4.366 1.395 5.67.93 1.29 2.37 1.936 4.32 1.936zM951.242 77c-.72 0-1.192-.338-1.417-1.013l-.45-2.227c-.48.54-.983 1.027-1.508 1.462a9.356 9.356 0 01-1.71 1.126c-.6.314-1.252.555-1.957.72-.69.18-1.44.27-2.25.27-1.26 0-2.415-.263-3.465-.788-1.05-.525-1.958-1.282-2.723-2.272-.75-1.006-1.335-2.243-1.755-3.713-.405-1.47-.607-3.15-.607-5.04 0-1.71.232-3.3.697-4.77.465-1.47 1.133-2.745 2.003-3.825a9.219 9.219 0 013.127-2.52c1.215-.615 2.58-.922 4.095-.922 1.29 0 2.393.21 3.308.63a8.473 8.473 0 012.452 1.642V43.565h5.558V77h-3.398zm-7.402-4.073c1.155 0 2.137-.24 2.947-.72s1.575-1.162 2.295-2.047V59.81c-.63-.765-1.32-1.305-2.07-1.62a5.99 5.99 0 00-2.385-.472c-.84 0-1.605.157-2.295.472-.675.315-1.252.795-1.732 1.44-.465.63-.825 1.44-1.08 2.43-.255.975-.383 2.13-.383 3.465 0 1.35.105 2.497.315 3.442.225.93.54 1.695.945 2.296.405.584.9 1.012 1.485 1.282.585.255 1.238.382 1.958.382zM978.751 77h-2.497c-.525 0-.938-.075-1.238-.225-.3-.165-.525-.488-.675-.968l-.495-1.642c-.585.525-1.162.99-1.732 1.395-.555.39-1.133.72-1.733.99a8.89 8.89 0 01-1.912.608c-.675.135-1.425.202-2.25.202-.975 0-1.875-.127-2.7-.382a6.071 6.071 0 01-2.138-1.193 5.427 5.427 0 01-1.372-1.957c-.33-.78-.495-1.688-.495-2.723 0-.87.225-1.725.675-2.565.465-.855 1.23-1.62 2.295-2.295 1.065-.69 2.482-1.26 4.252-1.71 1.77-.45 3.968-.705 6.593-.765v-1.35c0-1.545-.33-2.685-.99-3.42-.645-.75-1.59-1.125-2.835-1.125-.9 0-1.65.105-2.25.315-.6.21-1.125.45-1.575.72-.435.255-.84.488-1.215.698-.375.21-.788.315-1.238.315-.375 0-.697-.098-.967-.293a2.304 2.304 0 01-.653-.72l-1.012-1.777c2.655-2.43 5.857-3.646 9.607-3.646 1.35 0 2.55.225 3.6.675 1.065.435 1.965 1.05 2.7 1.846.735.78 1.29 1.717 1.665 2.812.39 1.095.585 2.295.585 3.6V77zm-10.8-3.465c.57 0 1.095-.052 1.575-.157.48-.106.93-.263 1.35-.473.435-.21.848-.465 1.238-.765.405-.315.81-.683 1.215-1.103v-3.892c-1.62.075-2.978.218-4.073.428-1.08.195-1.95.45-2.61.765-.66.315-1.132.682-1.417 1.102-.27.42-.405.877-.405 1.373 0 .974.285 1.672.855 2.092.585.42 1.342.63 2.272.63zm23.664 9.81c-.165.39-.382.683-.652.877-.255.21-.653.316-1.193.316h-4.14l4.32-9.248-9.337-21.375h4.86c.45 0 .795.105 1.035.315.24.21.42.45.54.72l4.927 11.97c.165.39.308.795.428 1.215.12.42.225.84.315 1.26.12-.435.247-.855.382-1.26.15-.405.308-.818.473-1.238l4.635-11.947c.12-.3.315-.547.585-.742.285-.195.6-.293.945-.293h4.452l-12.575 29.43z"/><path fill="#010617" d="M148.646 56.308c-2.288 0-4.066-.623-5.335-1.87-1.268-1.247-1.903-3.014-1.903-5.302V40.6h4.356v8.404c0 2.464.976 3.696 2.926 3.696 1.936 0 2.904-1.232 2.904-3.696V40.6h4.29v8.536c0 2.288-.634 4.055-1.903 5.302-1.268 1.247-3.047 1.87-5.335 1.87zM173.484 40.6V56h-3.586l-6.798-8.206V56h-4.268V40.6h3.586l6.798 8.206V40.6h4.268zm8.492 15.708c-1.246 0-2.456-.154-3.63-.462-1.173-.308-2.126-.719-2.86-1.232l1.43-3.212c.69.455 1.489.821 2.398 1.1a9.13 9.13 0 002.684.418c1.672 0 2.508-.418 2.508-1.254 0-.44-.238-.766-.715-.979-.476-.213-1.243-.436-2.299-.671-1.158-.25-2.126-.517-2.904-.803a4.894 4.894 0 01-2.002-1.375c-.557-.63-.836-1.481-.836-2.552 0-.939.257-1.786.77-2.541.514-.755 1.28-1.353 2.299-1.793 1.02-.44 2.27-.66 3.751-.66 1.012 0 2.01.114 2.992.341.983.227 1.848.561 2.596 1.001l-1.342 3.234c-1.466-.792-2.889-1.188-4.268-1.188-.865 0-1.496.128-1.892.385-.396.257-.594.59-.594 1.001 0 .41.235.719.704.924.47.205 1.225.418 2.266.638 1.174.25 2.145.517 2.915.803a5.03 5.03 0 012.002 1.364c.565.623.847 1.47.847 2.541 0 .924-.256 1.76-.77 2.508-.513.748-1.283 1.346-2.31 1.793-1.026.447-2.273.671-3.74.671zm12.1-12.254h-4.73V40.6h13.794v3.454h-4.708V56h-4.356V44.054zm18.458 12.254c-1.628 0-3.091-.345-4.389-1.034-1.298-.69-2.317-1.643-3.058-2.86-.74-1.217-1.111-2.589-1.111-4.114s.371-2.897 1.111-4.114c.741-1.217 1.76-2.17 3.058-2.86 1.298-.69 2.761-1.034 4.389-1.034 1.628 0 3.091.345 4.389 1.034 1.298.69 2.318 1.643 3.058 2.86.741 1.217 1.111 2.589 1.111 4.114s-.37 2.897-1.111 4.114c-.74 1.217-1.76 2.17-3.058 2.86-1.298.69-2.761 1.034-4.389 1.034zm0-3.608a4.12 4.12 0 002.112-.55 3.95 3.95 0 001.496-1.551c.367-.667.55-1.434.55-2.299s-.183-1.632-.55-2.299a3.95 3.95 0 00-1.496-1.551 4.12 4.12 0 00-2.112-.55c-.777 0-1.481.183-2.112.55a3.963 3.963 0 00-1.496 1.551c-.366.667-.55 1.434-.55 2.299s.184 1.632.55 2.299a3.963 3.963 0 001.496 1.551c.631.367 1.335.55 2.112.55zm17.886-12.1c1.394 0 2.604.231 3.63.693 1.027.462 1.819 1.122 2.376 1.98.558.858.836 1.866.836 3.025 0 1.159-.278 2.163-.836 3.014-.557.85-1.349 1.507-2.376 1.969-1.026.462-2.236.693-3.63.693h-2.684V56h-4.356V40.6h7.04zm-.264 7.942c.895 0 1.57-.194 2.024-.583.455-.389.682-.942.682-1.661 0-.719-.227-1.276-.682-1.672-.454-.396-1.129-.594-2.024-.594h-2.42v4.51h2.42zm16.478-7.942c1.394 0 2.604.231 3.63.693 1.027.462 1.819 1.122 2.376 1.98.558.858.836 1.866.836 3.025 0 1.159-.278 2.163-.836 3.014-.557.85-1.349 1.507-2.376 1.969-1.026.462-2.236.693-3.63.693h-2.684V56h-4.356V40.6h7.04zm-.264 7.942c.895 0 1.57-.194 2.024-.583.455-.389.682-.942.682-1.661 0-.719-.227-1.276-.682-1.672-.454-.396-1.129-.594-2.024-.594h-2.42v4.51h2.42zm19.756 4.466h-6.512L258.404 56h-4.444l6.798-15.4h4.29l6.82 15.4h-4.532l-1.21-2.992zm-1.276-3.212l-1.98-4.928-1.98 4.928h3.96zm20.086-1.826c.88.308 1.57.788 2.068 1.441.499.653.748 1.441.748 2.365 0 1.35-.542 2.39-1.628 3.124-1.085.733-2.654 1.1-4.708 1.1H273.1V40.6h7.876c1.966 0 3.462.363 4.488 1.089 1.027.726 1.54 1.705 1.54 2.937 0 .733-.179 1.39-.539 1.969-.359.58-.869 1.038-1.529 1.375zm-7.524-4.224v2.97h2.992c1.467 0 2.2-.499 2.2-1.496 0-.983-.733-1.474-2.2-1.474h-2.992zm3.652 9.108c1.526 0 2.288-.52 2.288-1.562 0-1.041-.762-1.562-2.288-1.562h-3.652v3.124h3.652zm8.954-12.254h4.356v11.946h7.348V56h-11.704V40.6zm25.784 12.034V56h-12.364V40.6h12.078v3.366h-7.766v2.596h6.842v3.256h-6.842v2.816h8.052zM141.54 64.6h7.282c1.687 0 3.183.315 4.488.946 1.306.63 2.318 1.525 3.036 2.684.719 1.159 1.078 2.515 1.078 4.07 0 1.555-.359 2.911-1.078 4.07-.718 1.159-1.73 2.053-3.036 2.684-1.305.63-2.801.946-4.488.946h-7.282V64.6zm7.106 11.924c1.32 0 2.38-.374 3.179-1.122.8-.748 1.199-1.782 1.199-3.102 0-1.32-.399-2.354-1.199-3.102-.799-.748-1.859-1.122-3.179-1.122h-2.75v8.448h2.75zm18.832 3.784c-1.628 0-3.091-.345-4.389-1.034-1.298-.69-2.317-1.643-3.058-2.86-.74-1.217-1.111-2.589-1.111-4.114s.371-2.897 1.111-4.114c.741-1.217 1.76-2.17 3.058-2.86 1.298-.69 2.761-1.034 4.389-1.034 1.628 0 3.091.345 4.389 1.034 1.298.69 2.318 1.643 3.058 2.86.741 1.217 1.111 2.589 1.111 4.114s-.37 2.897-1.111 4.114c-.74 1.217-1.76 2.17-3.058 2.86-1.298.69-2.761 1.034-4.389 1.034zm0-3.608a4.12 4.12 0 002.112-.55 3.95 3.95 0 001.496-1.551c.367-.667.55-1.434.55-2.299s-.183-1.632-.55-2.299a3.95 3.95 0 00-1.496-1.551 4.12 4.12 0 00-2.112-.55c-.777 0-1.481.183-2.112.55a3.963 3.963 0 00-1.496 1.551c-.366.667-.55 1.434-.55 2.299s.184 1.632.55 2.299a3.963 3.963 0 001.496 1.551c.631.367 1.335.55 2.112.55zm24.75 3.3l-.044-8.162-3.96 6.644h-1.936l-3.938-6.424V80h-4.026V64.6h3.586l5.412 8.888 5.28-8.888h3.586l.044 15.4h-4.004zm17.402-2.992h-6.512L201.908 80h-4.444l6.798-15.4h4.29l6.82 15.4h-4.532l-1.21-2.992zm-1.276-3.212l-1.98-4.928-1.98 4.928h3.96zm8.25-9.196h4.356V80h-4.356V64.6zm22.11 0V80h-3.586l-6.798-8.206V80h-4.268V64.6h3.586l6.798 8.206V64.6h4.268zm8.492 15.708c-1.246 0-2.456-.154-3.63-.462-1.173-.308-2.126-.719-2.86-1.232l1.43-3.212c.69.455 1.489.821 2.398 1.1a9.13 9.13 0 002.684.418c1.672 0 2.508-.418 2.508-1.254 0-.44-.238-.766-.715-.979-.476-.213-1.243-.436-2.299-.671-1.158-.25-2.126-.517-2.904-.803a4.894 4.894 0 01-2.002-1.375c-.557-.63-.836-1.481-.836-2.552 0-.939.257-1.786.77-2.541.514-.755 1.28-1.353 2.299-1.793 1.02-.44 2.27-.66 3.751-.66 1.012 0 2.01.114 2.992.341.983.227 1.848.561 2.596 1.001l-1.342 3.234c-1.466-.792-2.889-1.188-4.268-1.188-.865 0-1.496.128-1.892.385-.396.257-.594.59-.594 1.001 0 .41.235.719.704.924.47.205 1.225.418 2.266.638 1.174.25 2.145.517 2.915.803a5.03 5.03 0 012.002 1.364c.565.623.847 1.47.847 2.541 0 .924-.256 1.76-.77 2.508-.513.748-1.283 1.346-2.31 1.793-1.026.447-2.273.671-3.74.671z"/><path fill="#2FE9FF" fill-rule="evenodd" d="M124 32v22L60 80l64-48z" clip-rule="evenodd"/><path fill="#4C47F7" fill-rule="evenodd" d="M112 31v38c0 11.046-8.954 20-20 20s-20-8.954-20-20V53l12-6.6V69a7 7 0 1014 0V38.7l14-7.7z" clip-rule="evenodd"/><defs><linearGradient id="paint0_linear" x1="155.5" x2="1208.5" y1="52" y2="60" gradientUnits="userSpaceOnUse"><stop stop-color="#4A4DEE"/><stop offset=".896" stop-color="#71E6FC"/><stop offset="1" stop-color="#71E6FC"/></linearGradient><filter id="filter0_d" width="889" height="524" x="342" y="-199" color-interpolation-filters="sRGB" filterUnits="userSpaceOnUse"><feFlood flood-opacity="0" result="BackgroundImageFix"/><feColorMatrix in="SourceAlpha" values="0 0 0 0 0 0 0 0 0 0 0 0 0 0 0 0 0 0 127 0"/><feOffset dx="-6" dy="3"/><feGaussianBlur stdDeviation="5"/><feColorMatrix values="0 0 0 0 0.733333 0 0 0 0 0.733333 0 0 0 0 0.733333 0 0 0 0.5 0"/><feBlend in2="BackgroundImageFix" result="effect1_dropShadow"/><feBlend in="SourceGraphic" in2="effect1_dropShadow" result="shape"/></filter></defs></svg>