<svg xmlns="http://www.w3.org/2000/svg" fill="none" viewBox="0 0 24 24"><path fill="#424242" fill-rule="evenodd" d="M20.5 1a1 1 0 00-1.514-.857l-5 3A1 1 0 0013.5 4v6.48l-3 2.455V7a1 1 0 00-1.514-.857l-5 3A1 1 0 003.5 10v5.5c0 .974.164 1.91.466 2.782l-3.6 2.944a1 1 0 001.013 1.7l4.29-1.755A8.5 8.5 0 0020.5 15.5v-.398l2.878-1.178A1 1 0 0024 13V4a1 1 0 00-1.633-.774L20.5 4.753V1zm-2 5.856a.4.4 0 000 .016V15.5a6.5 6.5 0 01-13 0v-4.934l3-1.8V15.5a3.5 3.5 0 007 0V4.566l3-1.8v4.09zm-8 8.663a1.5 1.5 0 003-.019v-2.435l-3 2.454zm10-2.577V7.338L22 6.11v6.219l-1.5.613z" clip-rule="evenodd"/></svg>