<svg xmlns="http://www.w3.org/2000/svg" fill="none" viewBox="0 0 24 23"><path fill="#163150" fill-rule="evenodd" d="M4 2.061h13.436c1.021-.756 2.146-1.53 3.34-1.996.87-.339 1.644.72 1.168 1.479a56.43 56.43 0 00-.456.739A3.796 3.796 0 0124 5.855v8.169a4 4 0 01-4 4h-5.885c-.427 1.23-1.694 1.986-2.962 1.982-1.416-.005-2.422-.808-3.089-1.982-.568 0-1.103.023-1.59.364l-4.899 3.443A1 1 0 010 21.013V6.061a4 4 0 014-4zm10.85 13.963c1.002-2.605 2.934-7.258 5.587-11.948A1.795 1.795 0 0122 5.856v8.168a2 2 0 01-2 2h-5.15zM3.946 12.19c1.088 1.362 2.056 2.633 2.914 3.907a4.004 4.004 0 00-1.534.654L2 19.088V6.061a2 2 0 012-2h11.078a25.567 25.567 0 00-4.168 5.252 28.645 28.645 0 00-2.358-1.97c-1.43-1.071-3.28-.78-4.4.194-1.433 1.244-1.322 3.227-.214 4.646l.007.008zM18.192 4c-1.898 1.484-4.271 3.857-6.175 7.415-.327.61-1.168.694-1.63.191-.917-.983-1.96-1.86-3.033-2.664-1.389-1.04-2.877.675-1.841 2.005 1.751 2.193 3.258 4.23 4.503 6.461.4.718 1.784.87 2.175.058v-.001l.003-.007.015-.04c.263-.766 2.426-6.926 5.983-13.419z" clip-rule="evenodd"/></svg>