<svg xmlns="http://www.w3.org/2000/svg" stroke="#1A334F" viewBox="0 0 26 26"><path stroke-linecap="round" stroke-linejoin="round" stroke-width="1.4" d="M1 6.455v17.454A1.09 1.09 0 002.09 25h21.82A1.09 1.09 0 0025 23.91V6.454m-24 0V2.09C1 1.488 1.488 1 2.09 1h21.82c.602 0 1.09.488 1.09 1.09v4.365m-24 0h24m-11.454 5.454h7.636m-7.636 3.818h7.636m-7.636 3.819h3.818m-12 1.09h4.363a.545.545 0 00.546-.545v-7.637a.545.545 0 00-.546-.545H5.364a.545.545 0 00-.546.545v7.637c0 .301.244.545.546.545z"/></svg>