<svg xmlns="http://www.w3.org/2000/svg" width="154" height="154" fill="none"><circle cx="77.001" cy="76.999" r="76.999" fill="url(#paint0_linear_204_349)"/><circle cx="77.001" cy="76.999" r="76.999" fill="url(#paint1_linear_204_349)"/><path fill="#004DB2" fill-rule="evenodd" d="M77 153.999c42.525 0 76.999-34.474 76.999-77 0-42.525-34.474-76.999-77-76.999C34.474 0 0 34.474 0 77c0 42.525 34.474 76.999 77 76.999zm0-5.867c37.867 0 68.566-30.698 68.566-68.566S114.867 11 76.999 11C39.131 11 8.433 41.698 8.433 79.566S39.131 148.132 77 148.132z" clip-rule="evenodd"/><path fill="#EAFDFF" fill-rule="evenodd" d="M107.863 6.435A76.514 76.514 0 0084.385.35L.349 84.386a76.515 76.515 0 006.085 23.478L107.863 6.435zM29.065 137.263a77.352 77.352 0 01-19.736-23.494L113.768 9.329a77.34 77.34 0 0123.494 19.736L29.065 137.263zm33.227 15.333a76.46 76.46 0 01-8.812-2.255l96.86-96.86a76.46 76.46 0 012.255 8.812l-90.303 90.303z" clip-rule="evenodd" opacity=".2"/><path fill="#004DB2" fill-rule="evenodd" d="M116.751 80.107c2.167 1.813 3.783 4.734 4.1 8.708 1.553 6.58-2.138 15.528-8.149 17.522-1.949 1.145-4.197 1.726-6.452 1.478a40.8 40.8 0 01-8.81 7.108c9.156 3.159 21.303 9.098 23.032 18.133 2.004 1.567 3.201 3.162 3.866 4.676-13.059 10.194-29.49 16.267-47.34 16.267-15.25 0-29.465-4.433-41.425-12.082 2.273-1.227 4.896-2.08 7.736-2.542l1.207-2.577c-3.297-2.987-.766-8.462 3.634-7.878.078-.172.155-.345.23-.518-8.053-.31-17.46-4.078-25.899-7.741-2.615-1.134-5.106-1.436-7.15-1.683-1.308-.159-2.433-.295-3.289-.614a76.311 76.311 0 01-1.767-2.909c.218-1.336 1.522-2.3 3.135-2.834-.759-.536-2.168-1.343-4.763-2.404a12.89 12.89 0 01-1.467-.705 76.53 76.53 0 01-2.492-5.994c.892-1.184 2.684-2.112 5.31-2.435 10.352-1.273 19.906 2.556 28.543 6.017 4.523 1.812 8.795 3.524 12.798 4.35-11.107-9.039-17.456-23.651-14.545-38.484 4.48-22.823 29.75-38.736 53.309-30.374 12.792 4.539 26.053 18.035 26.648 37.515z" clip-rule="evenodd"/><path fill="#fff" d="M22.758 63.438l1.584.578.367-1.565 1.942.456-.427 1.812 1.72.637-.487 2.069-1.72-.637-.3 1.27 1.72.637-.49 2.068-1.719-.637-.367 1.566-1.942-.457.427-1.812-1.584-.576-.368 1.566-1.938-.459.426-1.81-1.72-.636.49-2.068 1.718.637.299-1.271-1.72-.637.486-2.069 1.72.635.37-1.563 1.939.457-.426 1.809zm-.487 2.071l-.298 1.27 1.584.58.298-1.272-1.584-.578zM32.559 54.24l-3.816-1.871 2.143 3.324-.609 1.24-3.813.355 3.661 1.827-1.275 2.554-8.332-4.154 1.151-2.306 5.786-.498-3.117-4.85 1.149-2.308 8.338 4.129-1.266 2.558zm1.871-14.782l3.862 7.004c.493.895.71 1.682.648 2.362-.15 1.624-1.698 3.052-2.771 3.278L35.2 50.03c.634-.152 1.327-.72 1.213-1.343l-7.638-2.277 1.945-2.39 3.975 1.293-2.055-3.64 1.79-2.214zm7.715 2.243a4.64 4.64 0 01-4.66-1.634c-3.337-3.986 1.165-9.223 5.241-8.305l-.382 2.627c-.909-.189-1.662-.034-2.258.465-.977.816-1.118 2.059-.178 3.18.94 1.123 2.186 1.206 3.165.386.596-.5.88-1.213.854-2.141l2.654.086a4.53 4.53 0 01-.458 2.184 6.156 6.156 0 01-3.966 3.156l-.012-.004zm7.371-13.652l1.349 2.291c-1.253.507-1.831 1.24-1.132 2.423l1.637 2.783-2.58 1.524-3.698-6.267 2.461-1.448.397.676c.163-.794.689-1.453 1.579-1.979l-.013-.003zm9.946-4.068l-.062 7.993c-.006 1.023-.204 1.814-.591 2.376-.926 1.343-2.975 1.833-4.02 1.502l.17-2.282c.627.17 1.501.03 1.716-.576l-5.545-5.727 2.868-1.132 2.826 3.073-.008-4.183 2.646-1.044zm9.94 4.985c-.942.808-2.584 1.187-3.574.522l.584 3.013-2.946.57-1.87-9.665 2.804-.544.11.587c.333-.56.94-.925 1.819-1.096 3.85-.74 5.605 4.453 3.087 6.616l-.013-.003zm-2.024-1.905a1.53 1.53 0 00.128-1.093 1.565 1.565 0 00-.53-.975c-.74-.575-2.085-.087-1.794 1.423.049.377.236.722.526.968a1.15 1.15 0 001.682-.317l-.012-.006zm10.541 1.497a3.74 3.74 0 01-1.836.438c-2.022.054-3.202-.874-3.254-2.862l-.053-1.86-.995.03-.06-2.194.996-.026-.056-2.033 2.997-.082.055 2.03 1.487-.04.065 2.18-1.488.04.041 1.832c.011.406.24.698.643.687.24-.003.475-.079.67-.218l.788 2.078zm2.722.105a3.584 3.584 0 01-1.61-3.527 3.567 3.567 0 012.463-2.988 5.184 5.184 0 014.336.583 3.558 3.558 0 011.594 3.521 3.567 3.567 0 01-2.44 2.996 5.107 5.107 0 01-4.331-.579l-.012-.006zm3.282-1.809a1.56 1.56 0 00.468-1.002 1.53 1.53 0 00-.193-1.086c-.52-.761-1.96-.748-2.148.766-.189 1.514 1.18 1.94 1.888 1.316l-.015.006zm21.38-.236l-6.188 7.555-3.124-1.237.43-5.175-3.298 4.04-3.125-1.236.683-9.755L93.683 22l-.436 5.511 3.539-4.286 2.684 1.063-.46 5.575 3.56-4.348 2.733 1.103zm1.382 3.777l2.494 1.673-4.047 6.038-2.494-1.673 4.047-6.038zm3.274-2.187c2.085 1.397.238 3.837-1.701 2.538-1.991-1.355-.296-3.892 1.717-2.545l-.016.007zm6.474 10.832c.042.765-.303 1.552-1.036 2.36l-2.787 3.068-2.222-2.018 2.437-2.686c.561-.614.621-1.122.18-1.522a1.036 1.036 0 00-.84-.288c-.39.078-.737.296-.979.611l-2.293 2.528-2.224-2.019 4.884-5.38 2.113 1.93-.483.53a3.023 3.023 0 012.203.848 2.93 2.93 0 011.063 2.031l-.016.007zm.809 10.83a3.76 3.76 0 01-1.45-1.207c-1.26-1.585-1.217-3.09.33-4.32l1.455-1.159-.62-.78 1.724-1.363.62.78 1.59-1.267 1.871 2.35-1.593 1.266.929 1.165-1.724 1.363-.926-1.164-1.434 1.142a.621.621 0 00-.285.69.62.62 0 00.121.236c.147.192.349.334.579.407l-1.187 1.861zm6.802 6.183l-2.517-4.375c-.181.218-.28.492-.282.775.05.598.329 1.153.778 1.55.212.17.448.308.699.41l-.586 2.148c-1.02-.225-1.886-.948-2.599-2.17-2.517-4.381 1.884-7.567 4.929-5.584a4.844 4.844 0 012.089 3.545c.097 1.328-.511 2.584-1.89 3.376-.014.02-.224.128-.6.318l-.021.007zm-1.288-5.143l1.165 2.027a1.133 1.133 0 00.26-1.498 1.118 1.118 0 00-1.416-.54l-.009.01zm8.031 10.162l-2.476.946c-.299-1.322-.929-2.006-2.208-1.51l-3.02 1.157-1.081-2.799 6.78-2.617 1.028 2.665-.731.282c.776.279 1.353.901 1.729 1.868l-.021.008zm-2.068 15.17l-2.41.307-.957-7.395 1.911-.244 3.525 2.941c.406.336.839.63 1.358.563.412-.052.691-.352.61-.988a1.515 1.515 0 00-1.031-1.247l.871-2.496a3.868 3.868 0 011.76 1.34c.878 1.172 1.141 3.062.781 4.362-.317 1.162-1.135 1.967-2.301 2.117-1.277.162-2.157-.36-3.14-1.206l-1.37-1.164.393 3.11zm-2.079 3.394c.965-1.405 2.677-1.882 4.388-1.777 2.193.12 3.537 1.081 4.165 2.256a4.398 4.398 0 01-.239 4.365c-.966 1.407-2.677 1.881-4.385 1.778-1.708-.104-3.362-.753-4.168-2.258a4.41 4.41 0 01.255-4.373l-.016.009zm4.1 3.477c1.567.087 2.372-.222 2.417-.928.045-.705-.719-1.102-2.29-1.19-1.565-.086-2.371.223-2.417.928-.046.705.722 1.098 2.306 1.18l-.016.01zm-4.382 11.726l-2.366-.565 1.733-7.25 1.873.448 2.245 3.99c.258.455.569.89 1.077 1.011.4.11.772-.086.921-.708a1.51 1.51 0 00-.523-1.533l1.702-2.024a3.87 3.87 0 011.169 1.877c.404 1.406-.018 3.268-.815 4.354-.713.968-1.745 1.44-2.901 1.166-1.253-.302-1.89-1.1-2.512-2.24l-.866-1.573-.737 3.047zm4.197 8.02l-8.638-3.44 1.162-2.911 6.441 2.569.594-1.482 2.197.87-1.756 4.394z"/><path fill="url(#paint2_linear_204_349)" fill-rule="evenodd" d="M153.999 77c0 42.525-34.474 76.999-77 76.999a77.716 77.716 0 01-8.224-.434 76.549 76.549 0 01-35.207-12.973l.002-.001c-12.456-8.523-22.28-20.61-28.003-34.792a.023.023 0 01-.005-.005A76.59 76.59 0 014.146 102l.002-.005A76.9 76.9 0 010 77C0 34.474 34.474 0 77 0c42.525 0 76.999 34.474 76.999 77zM11.82 98.343a68.508 68.508 0 01-3.387-21.344C8.433 39.131 39.131 8.433 77 8.433S145.566 39.131 145.566 77c0 21.408-9.811 40.524-25.181 53.097-2.163-9.532-15.934-15.553-25.09-18.447-11.701 4.767-28.254 4.814-42.5-2.503-4.421-.671-9.182-2.578-14.259-4.613-8.127-3.257-17.065-6.838-26.716-6.19zm10.123 19.53a68.904 68.904 0 0021.39 18.873l1.178-2.514c-3.297-2.987-.766-8.463 3.634-7.879.078-.172.155-.344.23-.517-8.053-.311-17.459-4.079-25.899-7.742a18.626 18.626 0 00-.533-.221z" clip-rule="evenodd"/><path fill="#fff" fill-rule="evenodd" d="M49.885 139.996a67.722 67.722 0 01-2.624-1.197c-1.612-1.466-.378-4.189-.028-4.962a4.29 4.29 0 00.075-.169c.41-1.051.775-2.003 1.104-2.863 2.929-7.652 3.066-8.009 7.911-6.175l12.071 4.569c2.444 1.563 1.562 3.769-.625 9.243a234.826 234.826 0 00-1.629 4.163c-.305.8-.907 1.45-1.678 1.817a68.071 68.071 0 01-8.85-2.258l-5.727-2.168zm20.292 5.235a69.533 69.533 0 01-3.624-.456c.771-.831 1.158-1.902 1.616-3.17.106-.294.217-.599.336-.914-.104 1.82.383 3.186 2.068 3.888-.052-.02-.11.097-.203.284a6.494 6.494 0 01-.193.368zm2.521.202a73.03 73.03 0 01-.816-.055c.038-.071.075-.143.112-.217.234.092.469.183.704.272zm19.872-1.643a68.627 68.627 0 01-12.883 1.724c-3.912-.878-7.416-2.193-8.43-2.724-2.017-.862-.268-5.446 1.82-4.808 2.498 1.313 10.271 4.829 17.234 3.431.023-.004.062-.014.113-.028.655-.167 3.38-.863 2.35 1.945a3.96 3.96 0 01-.204.46zm4.207-1.12c-.661.199-1.326.388-1.996.567.056-.272.09-.547.1-.823l1.896.256zm8.038-2.982a67.872 67.872 0 01-4.327 1.748c.002-1.339 1.13-3.13 3.836-5.119 2.115-1.564 2.992-3.168 3.708-4.476.699-1.277 1.244-2.273 2.638-2.675 1.198-.344 4.675.642 7.525 2.648a68.603 68.603 0 01-6.451 4.308c-1.565-.572-3.092-1.148-1.574-5.132.326-.855-1.243-1.478-2.098 2.199-.444 2.15.344 3.255 1.666 4.07-.973.53-1.96 1.036-2.96 1.52a4.098 4.098 0 00-1.418-.387c-1.893-.187-1.475 1.208-.766 1.269.075.006.149.015.221.027zm-94.637-39.036c-4.798.592-5.337 2.858-.766 4.728.857.35 1.832 1.024 2.848 1.726 1.914 1.323 3.97 2.744 5.638 2.275.785-.221 1.865 1.263-2.615 2.404-.687.11-3.026.537-2.794 1.595.288.269 1.562.426 3.027.606.705.087 1.453.179 2.157.291 3.302.527 5.437 1.45 8.439 2.747 2.314 1 5.144 2.223 9.423 3.659 1.812-3.983 2.464-9.586 2.489-13.981l-.532-.212c-8.851-3.539-17.593-7.035-27.314-5.838zm27.193 20.622c1.795-4.058 2.479-9.406 2.567-13.81 8.784 3.479 12.612 4.863 15.428 4.735 13.028 8.067 26.95 6.05 39.417 1.65 3.542 1.026 5.983 1.901 10.137 3.721-5.796 2.32-6.892 9.077-6.06 15.259-2.668-1.15-5.557-1.58-8.497-1.503-1.495.039-1.488 2.308.059 2.298.35-.007.693-.007 1.028 0a54.484 54.484 0 01-.177 5.591c-.077.014-.19.043-.34.081-1.538.394-6.884 1.762-15.789-2.445l.001-.003c.06-.123 2.772-5.661-2.306-7.602-3.768-1.442-6.78-2.614-9.209-3.559-9.712-3.78-10.085-3.925-12.089-3.098 1.237-4.072 1.297-4.536.701-4.725-.529-.172-.605.009-1.58 2.327-.335.798-.778 1.85-1.382 3.228-3.937 0-8.177-.992-11.909-2.145zm63.612 12.658c.405.25.789.51 1.153.781 1.532-1.082 2.564-2.605 3.543-4.05 2.278-3.362 4.274-6.308 11.619-2.332-2.005-4.619-6.143-7.601-9.766-9.508-6.797 1.168-7.815 8.393-6.549 15.109zm-3.055 7.35l-3.386-.459a3.057 3.057 0 00-1.016-1.126c.093-.864.258-3.383.217-5.898 2.767.371 4.932 1.293 6.617 2.428-1.513 1.555-2.384 3.342-2.432 5.055zm-26.574-10.968c1.174.401 4.508 1.541 2.403 5.876-1.579-.551-3.155.329-4.104 1.461.236-.622.455-1.178.653-1.682v-.002c1.06-2.69 1.536-3.898.82-5.733.061.023.138.049.228.08z" clip-rule="evenodd"/><path fill="url(#paint3_linear_204_349)" fill-rule="evenodd" d="M105.8 5.567A76.606 76.606 0 0081.664.139L73.27 8.533a69.9 69.9 0 013.73-.1c7.786 0 15.27 1.298 22.245 3.69l6.555-6.556zM13.085 98.282c-.42.012-.841.032-1.264.061a68.508 68.508 0 01-3.387-21.344c0-1.251.033-2.495.1-3.73L.14 81.663a76.688 76.688 0 005.424 24.128v.001l.004.007 7.517-7.517zM8.32 111.848l12.913-12.913c6.111 1.11 11.891 3.426 17.31 5.598 5.077 2.035 9.838 3.942 14.258 4.613.321.165.644.326.967.483l-14.652 14.652c-5.538-1.498-11.28-3.864-16.633-6.187a18.73 18.73 0 00-.54-.224 68.979 68.979 0 0011.5 12.085l-5.989 5.988A77.322 77.322 0 018.32 111.848zm48.011 39.345a76.198 76.198 0 01-8.255-2.812l33.585-33.585c4.932-.406 9.58-1.492 13.642-3.147l.434.139-39.406 39.405zm92.052-103.119a76.422 76.422 0 012.812 8.256l-6.992 6.992a67.936 67.936 0 00-2.37-8.698l6.55-6.55zM111.848 8.318a77.314 77.314 0 0124.096 19.135l-5.989 5.988a68.792 68.792 0 00-24.422-18.807l6.315-6.316z" clip-rule="evenodd"/><path fill="url(#paint4_linear_204_349)" d="M120.476 86.953c-.317-3.974-1.932-6.895-4.099-8.708-.595-19.48-13.856-32.976-26.648-37.516-23.56-8.362-48.829 7.552-53.309 30.375-4.472 22.78 11.81 46.275 34.715 48.626 11.9 1.222 25.513-1.49 35.941-12.477 2.255.248 3.302-1.633 5.251-2.778 6.012-1.994 9.702-10.943 8.149-17.522z"/><path fill="url(#paint5_linear_204_349)" d="M55.76 72.898c1.497 4.875 1.921 7.18 4.056 8.08 2.633 1.142 6.11-2.36 8.415-2.564 3.724-.377 4.674 6.01.543 8.457-13.986 7.536-11.922 8.907-18.156-9.585-1.557-5.01 3.746-8.942 5.142-4.388zm-4-9.95c3.003-1.522 7.076-4.224 8.45.425 1.415 4.819 1.655 7.799 5.11 6.195 9.667-4.35 9.043-3.37 12.226 5.676 1.839 4.823 8.238.496 6.49-4.582-5.319-15.59-3.152-14.905-17.15-9.35-1.998-6.465-2.062-10.816-7.173-8.648-9.638 4.288-9.65 4.477-10.513 5.279-2.13 2.148-1.949 7.435 2.56 5.005z" opacity=".6"/><path fill="#fff" d="M100.613 102.396a9.6 9.6 0 002.516 1.826 39.589 39.589 0 01-21.584 10.792c7.458-2.063 14.23-6.57 19.068-12.618zm-2.157-3.144c-9.082 12.108-25.428 17.306-41.515 10.792 13.302 8.5 32.096 4.087 42.427-9.169a11.333 11.333 0 01-.912-1.623zm7.11-7.928c2.595 5.753 9.756 3.798 13.214-1.063.686-10.557-10.074-11.575-13.214 1.067v-.004zM67.527 42.09c23.378-6.069 44.519 10.778 46.289 33.749-1.81-.633-3.8-.677-5.745-.131-2.33-19.313-21.063-33.907-40.544-33.618zm35.698 48.735c-1.881.559-2.729-.42-2.99-.673 1.236-8.749 9.355-15.304 14.89-10.269-2.44-.536-4.89.36-6.805 1.943-2.68 2.218-4.271 5.638-5.095 8.999zm-51.75-40.239a40.024 40.024 0 018.427-5.635c20.76-4.981 43.994 10.037 46.321 31.457-.518.25-1.016.537-1.491.86-2.345-23.284-31.02-40.935-53.256-26.682z"/><path fill="#001D42" d="M97.278 95.88c-9.12 14.265-29.938 20.945-49.772 5.521-1.527-1.578-10.06-13.482-8.023-27.403 7.605 19.48 36.225 32.752 57.59 19.962.032.643.1 1.285.205 1.92z" opacity=".2"/><path fill="#94E2EE" d="M96.176 81.037c-2.97 6.936-10.855 3.662-9.292-2.769 2.426-7.999 11.782-4.292 9.292 2.769zm-5.837 10.734c-1.287 2.585-4.764 1.222-3.623-1.723 1.289-2.582 4.764-1.218 3.623 1.723z" opacity=".2"/><defs><linearGradient id="paint0_linear_204_349" x1="36.851" x2="117.15" y1="10.633" y2="144.282" gradientUnits="userSpaceOnUse"><stop stop-color="#289DFD"/><stop offset="1" stop-color="#0B3DF3"/></linearGradient><linearGradient id="paint1_linear_204_349" x1="36.851" x2="117.15" y1="10.633" y2="144.282" gradientUnits="userSpaceOnUse"><stop stop-color="#3086CD"/><stop offset="1" stop-color="#2440A4"/></linearGradient><linearGradient id="paint2_linear_204_349" x1="36.3" x2="70.546" y1="27.867" y2="161.747" gradientUnits="userSpaceOnUse"><stop stop-color="#C9EEF2"/><stop offset="1" stop-color="#1FC5E4"/></linearGradient><linearGradient id="paint3_linear_204_349" x1="51.215" x2="131.916" y1="37.727" y2="120.507" gradientUnits="userSpaceOnUse"><stop stop-color="#fff" stop-opacity=".69"/><stop offset="1" stop-color="#fff" stop-opacity="0"/></linearGradient><linearGradient id="paint4_linear_204_349" x1="48.789" x2="96.461" y1="18.613" y2="114.516" gradientUnits="userSpaceOnUse"><stop stop-color="#0065EA"/><stop offset="1" stop-color="#004DB2"/></linearGradient><linearGradient id="paint5_linear_204_349" x1="61.873" x2="68.107" y1="91.417" y2="45.313" gradientUnits="userSpaceOnUse"><stop stop-color="#0159CC"/><stop offset="1" stop-color="#fff"/></linearGradient></defs></svg>