<svg xmlns="http://www.w3.org/2000/svg" width="1201" height="202" fill="none"><g clip-path="url(#clip0_285_4835)"><path fill="url(#paint0_linear_285_4835)" d="M0 0h1201v202H0z"/><g opacity=".2"><path fill="#FF8935" d="M779.815 152.935c23.7-10.28 39.28 25.561 15.55 35.851s-39.28-25.561-15.55-35.851z"/><path fill="#FF5815" d="M800.205 171.705c-.31 1.94-.31 4.34-.63 6.28 1.67-.16 2.37-3.28 2-5.67-2.5-17.84-20.79-22.21-27.77-12.32 3.53-4.21 7.88-.14 8.68.07 2.47.65 5.34-3.67 7.29-1.25-.18 1.92-4.06 1.47-4.12 3.39.043.421.245.81.564 1.087.32.276.733.421 1.156.403 1.66 0 3.79-2.18 6.67-1.92 8.7.76-4.45 14.08 6.16 9.93z"/><path fill="#FF5815" d="M781.195 163.695c-.29-2.9-8.95-1.24-5.58.89 1.36.87 5.82 1.54 5.58-.89zm9.14 5.27c3.45 2.25 5.59-1.58 3.77-2.84-2.22-1.54-6.96.76-3.77 2.84zm4.83 7.65c.41 1.46 2 1.55 2.41.58.47-1.2-1.53-2.18-2.41-.58zm-23.34-4.9c2.77 2.94 5.38-3.3 1.34-3.37a2 2 0 00-1.34 3.37zm22.89 10.94a1.487 1.487 0 00-.602 1.331 1.473 1.473 0 00.832 1.199 1.47 1.47 0 10-.23-2.53zm-4.06-9.65a1.454 1.454 0 001.271 1.647 1.461 1.461 0 001.083-.318 1.452 1.452 0 00-.753-2.563 1.453 1.453 0 00-1.601 1.234zm-6.77-6.42c-1.81-.76-1.65 2.09 0 2.37 1.21.22 2.09-1.47 0-2.37zm7.91 12.631c-1.25-2.68-7.17-3.16-4.25 2.08 1.9 3.41 5.65.91 4.25-2.08zm-22.91-5.681a.77.77 0 001.45.5.8.8 0 00-1.45-.5zm4.26-7.89c.23-1.73-2.63-1.499-2.12.181a1.088 1.088 0 001.132.759 1.087 1.087 0 00.988-.94z"/><path fill="#FF5815" d="M793.745 151.385c11.2 3.24 21.25 26.06 4.12 36.79-11.82 7.41-23.4-.48-27.46-8a16.148 16.148 0 0020.47 6.84c19.57-8.49 6.75-38.07-12.83-29.58a16.138 16.138 0 00-8.92 19.81c-3.49-10 2.56-21.55 8-23.81 4.34-1.83 13.03-3.09 16.62-2.05z"/><path fill="#fff" d="M790.445 190.125c8.12-13.45-3.79-31.67-18.82-30.49-9.94 14.03 1.98 33.08 18.82 30.49z" opacity=".15"/><path fill="#F02B00" d="M793.745 151.386c14.78 4.27 19.51 27.159 4.12 36.789.3-2.15 3.6-6.5 4.38-9.22 3-10.48-1.87-20.73-13.14-24-3.51-1-7.83-1.22-11.39-1.4-3.32.04 10.57-3.749 16.03-2.169z"/></g><g opacity=".2"><path fill="#CFD4D2" d="M911.51 174.52c-10.95-1.25-22.18-8.58-25.66-7.59-8.87 2.54-17.68-1.64-19.59-5.76-7.21-15.57-7-5.94-18.19-24.67-5.6-9.36-8.57-15.35-10-21.67-5.42-19.23-6.07-11.88-6.07-19.46 0-11.81 4.52-10.69 6.25-15.11 8.05-20.46-1.51-10.57 21.79-38.34 5-4.74 10-9.51 16.29-13.65 6.29-4.14 27-8.24 32.12-8.24 3.06 0 7.73.32 10.79.32 6.69 0 6.38-3.73 13.53-3 14.88 1.51 7.38 6.45 18.16 11.72 11.2 5.46 20.07 7.24 30.44 26.35 8.36 21 16.1 13.9 16.1 37.76 0 14.37-3.24 7.41-7.46 30.42-3.39 9.92-12.27 20.45-19.63 27.87-20.99 16.27-32.51 27.46-58.87 23.05z"/><path fill="#E3E2E2" d="M884.41 33.49c-15.58 2.28-23.43 34.68-8.36 34.68 18.09 0 37.14-38.89 8.36-34.68zm27.601 91.22c-26.56-1.62-29.89 32.34 4.34 32.34 33.25 0 22.55-30.72-4.34-32.34zM978.5 99.96c-11.41-4.06-30.07 33-11.15 33 12.79-.02 28.4-26.83 11.15-33zm-121.49 7.59c-3.69-3-7.65-2-9.54 1.71-3.37 6.54 1.23 18.46 8.14 18.46 7.19 0 11.78-11.91 1.4-20.17zm115.071-29.6c18 0 8.91-30.49-4.17-30.49-16.77 0-12.54 30.49 4.17 30.49zm-43.94-46.61c12.22 4.23 25.7-9.06 7.69-13.83-12.37-3.26-18.69 10.02-7.69 13.83zm26 114.88c-7.11 0-14.79 6.61-13.44 13.61a5.075 5.075 0 005.089 4.41c9.4 0 19.691-18.02 8.351-18.02zM854.14 87.53c7.28-1.15 12.56-35-2.63-24.1-6.37 4.52-4.55 25.22 2.63 24.1zm21.49 64.78c-11.72-5-14.85 15.42 2 15.42 9.01 0 13.51-8.77-2-15.42zm28.08-48.04c22.82 17.64 56.76-5.88 38.41-30.21-7.05-9.35-18.72-13.23-31.25-7.76-11.06 4.82-20.79 27.51-7.16 37.97z"/><path fill="#EAEAE9" d="M949.141 43.47c-14.43-10.35-53.71-14.85-58.84 15.42-5.13 30.27 44.55 56 67.4 44 22.85-12 17.7-40.57-8.56-59.42z"/><path fill="#fff" d="M938.31 42.93c-4.28-2.45-15.29-2.57-15.84 6-.55 8.57 13.93 14.22 19.91 10.24 5.98-3.98 3.76-11.77-4.07-16.24zm25.76 35.99c-1.87-2-7.7-3.94-9.44.5-1.74 4.44 5 9.92 8.89 8.81 3.89-1.11 3.96-5.62.55-9.31z"/><path fill="#49525A" d="M884.771 35.96c-13.68 2-21 33.72-6.08 29.3 14.92-4.42 28.75-32.62 6.08-29.3z"/><path fill="#5E6A76" d="M887.53 39.64c4.11-.6 7.001-.16 8.941 1-.95-3.57-4.461-5.72-11.701-4.66-11.75 1.71-18.819 25.38-11.109 29.2-2.29-7.88 4.209-24.13 13.869-25.54z"/><path fill="#9AA3A1" d="M888.07 31.07c-12.32-4.19-23.67 10.63-21.22 21.43.68-9.48 8.48-21.43 21.22-21.43z"/><path fill="#49525A" d="M911.861 127.19c-12.4-.75-23.22 9.4-15.48 19.9 7.74 10.5 33.18 8.85 37.05 1.66 3.87-7.19-3.29-20.46-21.57-21.56z"/><path fill="#5E6A76" d="M894.14 137.37c-5.45 20 44.69 24.2 40 4.48-2.87 10.42-35.93 11.27-40-4.48z"/><path fill="#49525A" d="M977.661 102.31c-7.08-2.53-22.67 23.22-12.71 27.64 9.96 4.42 28.19-22.14 12.71-27.64z"/><path fill="#5E6A76" d="M977.6 102.29c7.89 7.81-5.73 27.17-14.82 25.88 8.17 11.98 32.41-21.81 14.82-25.88z"/><path fill="#49525A" d="M855.46 109.5c-5.87-4.7-9.4 5.53-3.87 13.26 5.53 7.73 14.93-4.42 3.87-13.26z"/><path fill="#5E6A76" d="M852.95 108.33c-4.23-.46-6 7.88-1.36 14.43 2.69 3.76 6.27 2.83 8-.14-5.03.65-8.72-9.17-6.64-14.29z"/><path fill="#49525A" d="M974.9 54.2c-8-11.14-21 1.66-12.72 14.93s26.54 4.42 12.72-14.93z"/><path fill="#5E6A76" d="M963.391 51.63c7.91-.57 17.21 17.52 9.56 23.78 15.34-1.6 1.79-32.92-9.56-23.78z"/><path fill="#49525A" d="M935.191 19.92c-9-2.39-14.35 6.26-6.23 9.07 8.12 2.81 21.28-5.09 6.23-9.07z"/><path fill="#5E6A76" d="M924.981 25c4.82-3.82 13.89-.1 15 2.59 9.45-6.21-15.94-12.97-15-2.59z"/><path fill="#49525A" d="M949.461 149.86c-8.74 3.5-8.29 16 0 10.5s11.06-14.92 0-10.5z"/><path fill="#5E6A76" d="M954.891 148.81c-.35 4.22-8.19 11.53-11.75 10.46 1.5 9.13 19.55-9.21 11.75-10.46z"/><path fill="#49525A" d="M852.9 65.45c-5.75 4.13-1.55 25.45 2.32 18.11s6.73-24.58-2.32-18.11z"/><path fill="#5E6A76" d="M857.35 64.32c-.95-.58-2.39-.34-4.45 1.13-5.74 4.12-1.57 25.35 2.3 18.16-2.14-3.47-3.98-16.09 2.15-19.29z"/><path fill="#49525A" d="M874.65 154.6c-6.82-2.92-9.4 7.19-1.11 10 8.29 2.81 16.6-3.36 1.11-10z"/><path fill="#5E6A76" d="M870.66 154.43c-3.44 1.58-3.47 8 2.88 10.12 5 1.68 10.07.1 9.79-2.89-5.12 2.15-13.86-1.2-12.67-7.23z"/><path fill="#49525A" d="M911.86 68.58c-9.13 4-18.8 24.33-6.63 33.73 15.68 12.12 35.61 2.81 39.26-10 3.31-11.57-11.06-33.13-32.63-23.73z"/><path fill="#5E6A76" d="M938.19 73.27c17.28 23.17-17.64 43.21-36.19 25.61 15.28 22.78 60.23-.52 36.19-25.61z"/><path fill="#BDC0BF" d="M880.08 87.43c-6.43-2.14-14.62 2.09-12.53 14.4s29.941 20.66 29.941 10.44-8.351-21.82-17.411-24.84z"/><path fill="#AFB2B1" d="M941.75 123.25c4.19-4.56 14.42-2.85 9.5 3.17s-18.38 6.5-9.5-3.17zm-35.14-79.56c4.05-3.52 12.09.69 7.14 5.46s-15.72 2.01-7.14-5.46zm-23.64 98.61c4.12-.66 7.7 5.42 2.47 6.54s-11.2-5.15-2.47-6.54zm-6.36-69.95c4.13-.66 7.7 5.43 2.47 6.54-5.23 1.11-11.2-5.14-2.47-6.54z"/><path fill="#BDC0BF" d="M907.35 165.71c8.2-1.29 16.72 2.07 10 4.46-6.72 2.39-25.09-2.07-10-4.46z"/><path fill="#C5C9C7" d="M863.71 136.2c-7-4.74-11.149 6-3.719 9.28 7.43 3.28 14.629-1.85 3.719-9.28zm-15.79-44.34c-1.71-6-6.26-.7-6 10 .26 10.7 9.22 1.37 6-10z"/><path fill="#E3E2E2" d="M901.31 24.3c5.95-3.36 19.74-2.32 12.77 2.79-6.97 5.11-25.07 4.17-12.77-2.79zm55.261 12.51c-7-4.86-10.22 2.56-3.49 6.27 6.73 3.71 16.95 3.04 3.49-6.27z"/><path fill="#F9FAFA" d="M878.33 126.96c-7.05-4.86-10.22 2.56-3.48 6.27 6.74 3.71 16.94 3.02 3.48-6.27zm52.05 36.9c-6.27 1.17-4 6.74 1.48 5.14 5.48-1.6 10.51-7.36-1.48-5.14zm39.6-23.83c-7.07 6-3.86 11.88 2.28 5.87 6.14-6.01 11.23-17.28-2.28-5.87z"/><path fill="#E3E2E2" d="M860.14 93.32c-2.62-8-9.08-1-6.07 5.63s11.07 9.68 6.07-5.63zm125-9.36c-.34-4.66-6.26-4.64-6.5 6.27-.24 10.91 7.64 9.29 6.5-6.27z"/><path fill="#AAADAC" d="M900.811 106.73c6.35 4.7 23.49 12.16 38.42 1.66-12.99 14.65-33.73 10.23-38.42-1.66zM850.01 61.75c-2.52 3.56-6.74 13.29-2 22.23-6.87-7.93-4-19.83 2-22.23zm-5.619 49.72c-.2 4.36 1.5 14.83 10.3 19.8-10.03-2.98-14.07-14.53-10.3-19.8zm135.199 18.34c3.6-3.72 10.54-14.45 7.47-26.07 5.62 10.83-.3 24.42-7.47 26.07zm-84.869 25c6.36 3.15 23.5 8.15 38.43 1.11-13.01 9.89-33.73 6.89-38.43-1.11z"/></g><g opacity=".2"><path fill="#32B6CC" d="M682.858 110.383c-1.842 1.41-14.982 11.958-14.119 14.101-1.911.208-3.097-3.946 6.414-11.629 8.076-6.551 6.563-4.812 7.705-2.472zm67.104-37.437c.514-2.39-15.663 6.357-18.996 8.12-2.224-2.36-3.057-1.242 1.926-4.013 6.56-3.674 19.906-11.037 17.07-4.107z"/><path fill="#006FAB" d="M732.959 80.02c-2.709 1.408-1.364 1.297-3.957-.764 4.793-2.778 3.837-2.97 3.957.763zm3.898-2.04c-2.383 1.208-2.004 1.532-1.932-.974.038-1.37-.336-.944 1.921-2.154.056 1.09.057 2.133.011 3.129zm2.337-1.12c-1.815.912-1.575 1.153-1.474-.663.124-2.126-.294-1.603 1.627-2.578l-.153 3.242zm-56.336 33.523c-4.5 3.441-3.572 3.82-4.231-.18 2.253-1.606 1.863-1.478 2.022-.67-.066-.847-.3-.547 1.204-1.521.29.809.626 1.6 1.005 2.371zm-5.292 4.212c-2.132 1.8-1.703 2.151-2.232-.478-.285-1.575-.623-1.066 1.617-2.752.345 1.567.346 1.88.615 3.23zm-2.783 2.517c-1.789 1.655-1.382 1.898-1.923-.665-.355-1.668-.493-1.261 1.146-2.651.24 1.18.41 1.954.777 3.316z"/><path fill="#57EDFF" d="M712.31 72.567a27.47 27.47 0 0124.284 32.161c-4.021 23.137-34.236 31.037-48.933 11.803-14.446-18.881.549-46.433 24.649-43.965z"/><path fill="#0B41B5" d="M704.239 72.047c13.297-2.764 27.937 4.5 11.147 9.087-5.795 1.564-12.796 8.147-15.65 10.05-8.963 5.961-15.855 2.415-16.165 2.393-.309-.022-.515.092-.786-.046a6.407 6.407 0 01-.886-1.279c-.08-.268.372.16.412-.123.883-6.374 10.465-17.712 21.928-20.082zm8.114 18.383c.365.935 1.136 2.321-1.311 3.454-1.149.522-1.459 1.92-1.007 2.14.452.22-1.964.413-2.025.212-1.413-4.703 4.519-5.88 4.343-5.806z"/><path fill="#3096D6" d="M703.699 71.082c8.178-1.695 17.599 1.613 18.338 3.344 1.619 4.066-8.939 5.902-11.253 7.412-11.324 7.486-12.42 10.478-20.029 11.669-5.745.932-5.826-.902-7.808-.964-4.689-.418 5.803-18.388 20.752-21.46z"/><path fill="#0B41B5" d="M726.047 77.731c11.304 5.75 3.892 10.724 2.154 10.64-9.297-.463-7.165 3.783-7.817 5.817-.484 1.482-10.056 9.621-11.91 8.351-1.135-.787-.441-3.345-2.793-3.212-2.881.176-4.171 4.814-7.037 4.067-5.422-1.503-3.398 5.302-8.6 8.422-9.289 5.538-8.95-10.29-8.024-11.967.171-.96 9.331 3.252 14.748-.684 1.801-1.303 3.901-4.389 6.567-3.613 3.9 1.198 2.709-1.618 5.602-3.667a4.508 4.508 0 013.321-1.145c.086-.026-.449 1.18-.516 1.2-.837 1.525-3.256 3.067-1.584 4.527 1.671 1.461 8.61-3.14 6.899-8.035-1.942-5.87 8.06-2.747 8.99-10.7z"/><path fill="#3096D6" d="M725.5 77.019c1.848.938 7.648 4.603 6.375 6.97-3.464 4.56-4.319 3.658-6.206 3.462-3.181-.37-5.603 1.611-5.671 4.096-.058 2.9-.294 2.668-3.242 5.089-11.018 8.96-8.231 4.718-10.118 2.539-2.105-2.385-6.02 3.177-7.264 3.624-1.027.371-4.11-1.897-5.529 1.996-3.012 7.838-11.509 11.948-12.745-.159-.803-7.36 1.051-5.536 3.889-5.021 9.811 1.896 11.061-1.414 14.117-3.752 3.057-2.339 4.12-.434 5.345-.562 1.596-.177 2.004-3.13 4.842-4.734.897-.49 3.118-1.021 3.094.114-.038 1.714-4.958 3.724-2.605 5.23 1.379.87 6.771-2.034 6.974-6.397.073-1.703-.571-2.282-.654-3.113-.357-3.83 8.092-1.879 9.398-9.382z"/><path fill="#0B41B5" d="M734.342 88.134c.096-.029.877-.107.906-.01.221.528 1.5 4.122 1.319 4.667-.234.75-4.43 5.446-6.24 6.825-9.572 7.168-4.627 3.677-8.845 9.967-5.578 8.37-14.038 9.44-15.78 10.036-9.635 3.345-4.449 10.244-15.086.702-.129-.118-.525-.009-.554-.105-1.246-2.758 4.19 1.258 7.979-3.609 5.974-7.57 10.925-3.847 7.913-4.143-1.93 1.499.686 3.188 6.993-.671 3.38-2.06 3.323-4.716 2.206-3.983a15.99 15.99 0 01-4.598 2.071c-.638.901-.433.819-.823.529-1.006-.742 1.173-2.284 2.243-2.961 5.774-3.719 7.945-6.711 10.309-8.747 2.058-1.767 12.274-6.341 12.058-10.568z"/><path fill="#3096D6" d="M735.239 88.094c.32.614 2.206 4.422 1.991 5.166-.215.743-4.432 5.508-6.233 6.812-9.645 7.274-4.376 3.403-8.855 9.971-5.657 8.487-14.334 9.528-15.779 10.036-10.147 3.519-4.227 10.845-16.312.098-.144-.478 5.609.769 8.66-3.114 5.428-6.852 8.078-4.39 8.567-4.537-3.101 1.6-.552 3.966 6.317-.28 2.742-1.68 4.291-5.143 1.4-3.47-4.651 2.661-6.845 1.995-2.35-.871 6.745-4.345 8.471-7.704 11.767-9.801.113-.076 11.356-5.992 10.827-10.01z"/><path fill="#0B41B5" d="M737.563 95.791c-.013.13-.165 12.653-4.434 17.768-9.555 16.676-32.312 14.681-28.184 13.441 6.614-1.236 12.858-3.008 15.628-9.532 1.722-4.067-3.388 2.626-5.396 3.449a1.594 1.594 0 01-.765 1.275c-1.594.186 1.31-5.125 3.138-6.165 8.078-4.599 7.609-8.906 10.955-11.217 6.8-4.717 6.884-6.246 8.233-8.74a6.67 6.67 0 01.825-.279z"/><path fill="#3096D6" d="M737.563 95.791c4.311 14.66-14.264 36.657-32.143 32.026a27.303 27.303 0 009.129-2.597c5.085-2.259 7.913-9.249 6.024-7.752-1.652 1.175-3.513 4.502-6.148 4.699-.575.173 1.954-4.305 3.503-5.23 8.021-4.582 7.554-8.984 10.945-11.215 3.392-2.23 7.817-5.92 8.69-9.93z"/><path fill="#2FB5EB" d="M717.543 72.049c-3.447 2.706-8.879 1.728-11.482 5.225-2.049 2.704-.742 4.17-5.245 6.349-8.123 3.892-5.416-7.008-12.421 1.06-14.886 17.348.939-21.72 29.148-12.634zm-8.711 18.791c.872-.574.53.823-.422 1.548-1.972 1.5-1.424 3.289-2.743 4.04-1.32.752-4.025-.398-6.137 1.364-1.212 1.043-2.017 3.436-5.464 3.918-1.082.326-3.145-.631-4.213 1.026-.944 1.516-6.093 4.359-6.236 4.37-3.174.349-2.839-5.276-2.075-8.293 17.918 4.691 15.674-5.557 21.246-3.973 4.035 1.126 2.674-1.733 6.044-4zm19.132-12.359c-2.371 6.007-8.033 6.591-8.658 6.978-.783.486-1.135 1.886-1.548 2.7-1.254 2.464-.817.756-1.234-.424-1.971-5.933 7.794-2.624 8.975-10.716.855.43 1.679.918 2.465 1.462zm-20.661 34.058c.134-.04-2.283 1.334-3.007 1.948-3.27 2.81-1.731 6.367-8.115 8.161a9.275 9.275 0 00-2.024.838c-8.953-7.344-.741.348 4.586-6.422 2.258-2.84 5.091-5.644 8.56-4.525zm29.804-20.14c-4.606.1-4.364 4.59-8.351 5.778-6.885 2.069-5.002 4.792-8.307 7.101-10.781 7.49-12.344 5.589-7.729 2.636 9.279-5.921 3.507-4.489 15.837-12.069 3.013-1.855 6.922-6.257 6.726-7.743a36.96 36.96 0 011.824 4.297zm.542 10.905a30.143 30.143 0 01-17.681 22.888c.756-1.272.013-3.429 2.296-6.016 5.933-6.837 2.82-4.513 5.475-8.255 2.484-3.514 8.034-5.129 9.91-8.617z"/><path fill="#3096D6" d="M733.047 87.229a267.61 267.61 0 01-45.415 29.311c3.185 4.17 46.869-28.192 46.702-28.435-.779-1.687-.59-1.44-1.287-.876z" opacity=".46"/><path fill="#fff" d="M708.541 91.054c-2.182 1.773-1.433 4.753-5.516 4.717-4.643-.025-9.703 8.815-20.793 3.22 12.281 3.097 13.661-.617 16.912-3.14 2.908-2.242 4.151-.433 5.344-.562 1.451-.175 1.906-2.588 4.053-4.235zm11.409-7.24c-4.01 1.56-3.893 3.895-3.86 2.34.043-2.29 3.865-2.498 6.733-4.457 1.863-1.27 2.449-3.942 2.6-4.029 0 0-.093 4.07-5.473 6.145z"/><path fill="#6532D4" d="M699.709 72.26c-9.337 6.597-13.1 13.252-6.593 27.575 8.705 19.166 29.12 28.724 42.251 11.058-9.724 22.438-34.253 17.258-30.422 16.107-5.101-.817-4.621-1.828-6.479-1.269-3.831 1.151-13.388-13.279-14.764-14.035-.813-.654-3.802-6.396-2.171-12.922.998.264.088-.506 1.242-5.28-4.174-1.973 5.047-16.668 16.936-21.233z" opacity=".22"/><path fill="#B4F3FF" d="M747.594 69.93c21.463-.572-92.035 75.952-78.874 49.004-17.452 17.326-.724 26.427 49.053-6.785 55.761-36.545 49.414-49.987 29.821-42.22z"/></g><g fill="#fff" opacity=".2"><path d="M503.078 109.694a4.12 4.12 0 011.92 1.432 4.127 4.127 0 01-.87 5.759 4.134 4.134 0 01-4.581.215 4.118 4.118 0 01-.921-6.306 4.13 4.13 0 014.452-1.1zm65.163-148.318c.73.34 1.345.885 1.769 1.569v-.023a4.071 4.071 0 01.279 3.842 4.138 4.138 0 01-1.608 1.847l-.225.132a4.131 4.131 0 01-5.872-2.334 4.122 4.122 0 015.657-5.033zM483.7-17.783v.047c-.031.737.011 1.475.125 2.204a11.514 11.514 0 00-1.92-1.11h-.054a10.428 10.428 0 00-2.269.117 10.48 10.48 0 001.127-1.972 10.36 10.36 0 00-.117-2.266c.613.445 1.272.822 1.966 1.125.758.044 1.519.005 2.269-.116a10.48 10.48 0 00-1.127 1.971zM191.805 204.048a2.07 2.07 0 011.305 1.445 2.08 2.08 0 01-.235 1.563 2.073 2.073 0 01-2.837.703c-.35-.211-.63-.52-.804-.89-.174-.369-.235-.782-.174-1.186a2.061 2.061 0 011.546-1.696 2.07 2.07 0 011.199.061zm-32.279-45.967a4.125 4.125 0 012.134 6.004 4.126 4.126 0 01-7.27-.375 4.116 4.116 0 01.684-4.529 4.13 4.13 0 014.452-1.1zm-10.282 38.085a2.054 2.054 0 01.523 3.592 2.059 2.059 0 01-2.743-3.042 2.066 2.066 0 012.22-.55zm18.728-1.554c.186.068.348.19.467.349v-.031a1.03 1.03 0 01-.218 1.444 1.034 1.034 0 01-1.647-.854 1.023 1.023 0 01.816-.947c.194-.044.396-.03.582.039zM9.258 91.614a4.124 4.124 0 012.285 4.704 4.122 4.122 0 01-4.171 3.157 4.128 4.128 0 01-3.711-2.69 4.118 4.118 0 011.069-4.454 4.128 4.128 0 014.528-.717zm19.823-15.648a2.058 2.058 0 01.81 3.077 2.058 2.058 0 11-3.067-2.715 2.06 2.06 0 012.257-.362zm34.392-7.903a10.463 10.463 0 00-1.134 1.972c-.054.495-.046.996.023 1.49.04.427.093.776.093.776s-.225-.155-.536-.35a6.064 6.064 0 00-1.437-.775 10.426 10.426 0 00-2.269.116c.446-.615.824-1.276 1.127-1.972.044-.757.005-1.517-.117-2.266.616.445 1.277.823 1.974 1.126.76.043 1.524.004 2.276-.117zm43.505 157.053a10.455 10.455 0 00-1.127 1.971h-.008c-.043.758-.003 1.518.117 2.267a10.474 10.474 0 00-1.974-1.126 10.561 10.561 0 00-2.268.109c.447-.614.825-1.275 1.126-1.972.046-.757.009-1.517-.109-2.266.615.448 1.277.828 1.974 1.133.758.044 1.519.005 2.269-.116zm58.127 14.126c-.446.612-.823 1.27-1.126 1.964h-.008c-.043.76-.004 1.522.117 2.274a10.23 10.23 0 00-1.974-1.133 10.447 10.447 0 00-2.269.116c.449-.614.829-1.275 1.135-1.971.044-.758.004-1.518-.117-2.267.615.446 1.277.823 1.974 1.126.758.045 1.518.009 2.268-.109zm5.929-103.535a10.55 10.55 0 00-1.127 1.972h-.007c-.042.758 0 1.518.124 2.266a10.525 10.525 0 00-1.974-1.125 10.508 10.508 0 00-2.276.116c.449-.614.829-1.275 1.134-1.971.044-.758.005-1.518-.116-2.267.615.445 1.277.823 1.973 1.126.758.044 1.519.005 2.269-.117zm87.261 46.614c.268.122.494.32.649.57a1.498 1.498 0 01-.489 2.057 1.488 1.488 0 01-1.655-.065 1.498 1.498 0 01-.523-.688 1.495 1.495 0 01.383-1.609 1.492 1.492 0 011.635-.265zm15.869 19.671a2.985 2.985 0 011.171 4.472 2.993 2.993 0 01-5.329-2.453 2.987 2.987 0 012.438-2.255 2.992 2.992 0 011.72.236zm14.379-11.351c.269.122.495.321.65.571h.031a1.49 1.49 0 01-.521 2.057 1.497 1.497 0 01-2.177-.754 1.492 1.492 0 012.017-1.874zm-14.027 1.306c.08.089.139.197.17.313a.773.773 0 01-.248 1.024.776.776 0 01-1.026-.248.773.773 0 01.12-1.235.772.772 0 01.984.146zm39.02-7.045a7.65 7.65 0 00-.777 1.428h-.046a7.39 7.39 0 00.124 1.653 7.331 7.331 0 00-1.43-.823 7.765 7.765 0 00-1.647.086c.311-.449.572-.931.777-1.436.036-.55.01-1.102-.077-1.646.443.328.923.604 1.429.823.551.03 1.103.002 1.647-.085zm-99.868 30.814a7.618 7.618 0 00-.816 1.428 7.368 7.368 0 00.047 1.646 7.304 7.304 0 00-1.43-.815 7.695 7.695 0 00-1.647.085c.324-.447.598-.928.816-1.436a7.308 7.308 0 00-.078-1.645 2.915 2.915 0 003.108.737zm177.864 18.271a7.322 7.322 0 00-.777 1.429 7.34 7.34 0 00.031 1.676 2.954 2.954 0 00-3.108-.737 2.912 2.912 0 00.777-3.105c.446.323.925.596 1.43.815.55.036 1.103.01 1.647-.078zM292.003 22.758c.271-.124.572-.165.865-.117h-.039a1.491 1.491 0 01.908 2.487 1.502 1.502 0 01-2.607-.948 1.493 1.493 0 01.873-1.422zM255.57 65.44a2.995 2.995 0 011.719-.249h-.039a2.986 2.986 0 012.493 2.227 2.99 2.99 0 11-4.173-1.978zM317.889 5a1.5 1.5 0 01.861-.126h-.039a1.512 1.512 0 011.265 1.116c.05.193.061.394.033.592a1.5 1.5 0 11-2.767-1c.154-.254.379-.457.647-.583zm-8.138 11.892a.776.776 0 01.452-.212.773.773 0 01.457.828.78.78 0 01-.682.654.773.773 0 01-.457-.827.774.774 0 01.23-.443zm160.188-27.367c.27.129.495.336.645.594a1.496 1.496 0 01-.771 2.166 1.5 1.5 0 01-.86.054 1.552 1.552 0 01-1.111-1.801 1.485 1.485 0 011.228-1.141c.296-.045.599 0 .869.128zm-27.372-5.515a3.002 3.002 0 011.739-.1v-.024a2.994 2.994 0 012.27 2.459c.059.39.041.79-.055 1.174a2.993 2.993 0 01-2.447 2.262 3 3 0 01-3.467-3.077 2.99 2.99 0 011.96-2.693zm-1.089 20.998a1.5 1.5 0 01.87-.049v-.023a1.493 1.493 0 011.135 1.235 1.48 1.48 0 01-.032.59 1.496 1.496 0 01-2.086 1.015 1.498 1.498 0 01.113-2.768zm82.735 48.527a.779.779 0 01.716.956.782.782 0 01-.724.594.775.775 0 11.008-1.55zm-94.243-28.34c.089.531.235 1.052.436 1.552.369.412.78.784 1.227 1.11a7.823 7.823 0 00-1.554.427 3.74 3.74 0 00-.583.559c-.279.333-.528.667-.528.667s-.07-.38-.163-.776a3.287 3.287 0 00-.272-.776 7.392 7.392 0 00-1.22-1.102 7.51 7.51 0 001.554-.435c.411-.368.781-.78 1.103-1.226zM326.994-33.128c.085.532.229 1.052.428 1.553.38.414.805.786 1.266 1.11a7.872 7.872 0 00-1.593.427c-.411.367-.78.779-1.103 1.226a7.533 7.533 0 00-.435-1.552 7.75 7.75 0 00-1.228-1.103 7.51 7.51 0 001.554-.434c.413-.369.785-.78 1.111-1.227zM289.916-10.58a7.82 7.82 0 00.427 1.553c.38.415.805.787 1.266 1.11a7.498 7.498 0 00-1.592.434 7.663 7.663 0 00-1.104 1.219 7.408 7.408 0 00-.435-1.552 7.433 7.433 0 00-1.228-1.11 7.475 7.475 0 001.554-.435 7.543 7.543 0 001.112-1.219zm50.132 56.157a7.88 7.88 0 00.427 1.552 7.68 7.68 0 001.189 1.103 7.51 7.51 0 00-1.554.434c-.411.368-.781.78-1.103 1.227a7.474 7.474 0 00-.436-1.553 7.428 7.428 0 00-1.227-1.11 7.872 7.872 0 001.593-.427 7.88 7.88 0 001.111-1.226zM58.068-17.057a4.13 4.13 0 015.067 1.27 4.118 4.118 0 01-2.295 6.454 4.13 4.13 0 01-4.327-1.536 4.12 4.12 0 011.555-6.188zm155.328 2.495c.117.75.315 1.483.591 2.19a10.791 10.791 0 001.694 1.552 10.6 10.6 0 00-2.192.597 10.832 10.832 0 00-1.554 1.685c-.12-.75-.32-1.483-.598-2.19a10.453 10.453 0 00-1.686-1.552c.75-.12 1.484-.32 2.191-.597a10.194 10.194 0 001.554-1.684zM89.456 13.583c.117.75.317 1.484.599 2.189a10.462 10.462 0 001.686 1.544c-.752.121-1.49.321-2.2.598a10.46 10.46 0 00-1.553 1.684 10.078 10.078 0 00-.598-2.188 10.227 10.227 0 00-1.686-1.553 10.61 10.61 0 002.198-.59 10.809 10.809 0 001.554-1.684zm14.119 85.764a1.035 1.035 0 011.375 1.199 1.032 1.032 0 01-1.431.706 1.035 1.035 0 01-.608-.972 1.034 1.034 0 01.664-.933zm377.06 120.948a3.112 3.112 0 011.799-.124v.024a3.103 3.103 0 012.331 3.71 3.118 3.118 0 01-2.519 2.356 3.112 3.112 0 01-3.145-1.421 3.098 3.098 0 01.107-3.445 3.11 3.11 0 011.427-1.1zM56.389 156.43a3.115 3.115 0 011.591.855l-.023.008a3.103 3.103 0 01.023 4.37 3.115 3.115 0 01-3.39.681 3.104 3.104 0 011.799-5.914zM447.896-4.665a2.056 2.056 0 01.679 2.031 2.063 2.063 0 01-2.295 1.59 2.067 2.067 0 01-1.785-2.146 2.065 2.065 0 011.984-1.963 2.07 2.07 0 011.417.488zm28.226 18.398a4.127 4.127 0 013.653 3.744 4.121 4.121 0 01-5.358 4.28 4.123 4.123 0 01-2.366-5.918 4.122 4.122 0 014.071-2.106zm13.9-21.08c.405.045.787.208 1.099.47a2.066 2.066 0 01.248 2.903 2.055 2.055 0 01-2.197.632 2.057 2.057 0 01.85-4.005zM471.96.561a1.033 1.033 0 11-.232 2.054A1.033 1.033 0 01471.96.56zM88.39 49.995c.401.08.77.276 1.059.565h-.031a2.063 2.063 0 01.03 2.919 2.066 2.066 0 01-3.18-2.607 2.067 2.067 0 012.122-.877zm474.214-36.67c.401.08.769.278 1.058.568h-.031a2.064 2.064 0 01.031 2.911 2.07 2.07 0 01-3.184-.307 2.06 2.06 0 010-2.297 2.066 2.066 0 012.126-.875zm-18.137 176.788l.041-.026h-.031l-.01.026zm0 0a4.055 4.055 0 01-4.317-.026c.29.701.504 1.433.637 2.181a10.478 10.478 0 01-.637 2.173 4.052 4.052 0 014.358 0 10.478 10.478 0 01-.637-2.173c.122-.738.321-1.46.596-2.155zM486.808 56.242a10.474 10.474 0 00-.629 2.18c.082.6.239 1.187.466 1.747.036.104.072.195.1.267.033.082.055.14.055.16l-.427-.155a7.617 7.617 0 00-1.748-.474c-.749.133-1.481.347-2.184.637a10.49 10.49 0 00.638-2.181 10.492 10.492 0 00-.638-2.181 4.023 4.023 0 004.367 0zm-267.607-87.68a1.5 1.5 0 011.264 1.944 1.47 1.47 0 01-.286.511 1.496 1.496 0 01-1.601.461 1.503 1.503 0 01-1.039-1.301 1.5 1.5 0 011.662-1.615zm21.251 13.708a2.991 2.991 0 012.551 3.864 2.999 2.999 0 01-3.748 1.961 2.987 2.987 0 011.197-5.825zm10.125-15.315a1.498 1.498 0 11-1.34 2.423 1.497 1.497 0 011.34-2.423zm-13.119 5.722c.154.022.299.09.414.195h-.008a.772.772 0 01-.741 1.316.776.776 0 01.335-1.51zm149.864 59.939c.291.058.558.2.768.41h-.008a1.494 1.494 0 01-1.626 2.444 1.5 1.5 0 01-.926-1.384 1.496 1.496 0 01.926-1.384 1.5 1.5 0 01.866-.086zm-19.466-18.331c.58.116 1.113.4 1.531.82a2.956 2.956 0 01.881 2.11 2.973 2.973 0 01-.881 2.112 2.991 2.991 0 01-4.604-3.772 2.992 2.992 0 013.073-1.27zM355.923 31.6c.291.057.558.2.768.41v-.04a1.504 1.504 0 01.459 1.08 1.495 1.495 0 01-.459 1.078 1.501 1.501 0 01-2.56-1.06 1.496 1.496 0 01.926-1.383c.274-.113.576-.143.866-.085zm13.247-3.165c.152.035.29.115.396.23v-.04a.774.774 0 010 1.095.776.776 0 11-.396-1.285zm-33.617 14.317l.019-.008v-.039l-.019.047zm0 0a7.5 7.5 0 01-1.535.458 7.61 7.61 0 01-1.554-.466c.211.5.367 1.02.466 1.552a7.446 7.446 0 01-.466 1.553 7.729 7.729 0 011.554-.458 7.59 7.59 0 011.554.458 7.567 7.567 0 01-.458-1.553 7.672 7.672 0 01.439-1.544zm89.951-53.162l.022-.014v-.04l-.022.053z"/><path d="M425.504-10.41a2.97 2.97 0 01-3.148-.014c.211.499.367 1.02.466 1.552a7.642 7.642 0 01-.466 1.552 2.93 2.93 0 013.17 0 7.58 7.58 0 01-.466-1.552 7.426 7.426 0 01.444-1.539zm-178.79 23.977a7.61 7.61 0 001.554-.465 7.58 7.58 0 00-.466 1.552 7.58 7.58 0 00.466 1.552 7.61 7.61 0 00-1.554-.465 7.51 7.51 0 00-1.554.465c.207-.5.361-1.02.459-1.552a7.709 7.709 0 00-.459-1.552c.5.21 1.021.367 1.554.465zM389.26 196.213a1.507 1.507 0 011.901.024 1.487 1.487 0 01.526 1.014 1.5 1.5 0 01-.8 1.463 1.5 1.5 0 01-2.134-.913 1.503 1.503 0 01.507-1.588zm-21.476-47.509c.571.516.92 1.232.974 1.999a2.982 2.982 0 01-1.841 3.022 2.995 2.995 0 01-3.409-.819 2.991 2.991 0 01-.71-1.698 1.694 1.694 0 010-.334 2.98 2.98 0 012.898-2.939 2.988 2.988 0 012.088.769zm.443 70.804a1.48 1.48 0 01.803-.322 1.477 1.477 0 011.092.341 1.488 1.488 0 01.344 1.863 1.483 1.483 0 01-.62.603 1.495 1.495 0 01-2.119-.907 1.49 1.49 0 01.5-1.578zm6.052-12.054a.775.775 0 01.941-.181.773.773 0 01.232 1.2.777.777 0 01-1.173-1.019zm57.855-111.246c.247-.164.538-.25.836-.249a1.492 1.492 0 011.491 1.49 1.495 1.495 0 01-.922 1.39 1.5 1.5 0 01-2.048-1.092 1.489 1.489 0 01.643-1.539zM248.211 248.095a1.5 1.5 0 01.834-.253 1.495 1.495 0 011.385.918 1.503 1.503 0 01-.806 1.962 1.495 1.495 0 01-1.636-.32 1.49 1.49 0 01-.329-1.633c.113-.274.305-.509.552-.674zm43.915-152.021a.775.775 0 011.208.646.77.77 0 01-.479.717.779.779 0 01-1.016-1.014.778.778 0 01.287-.349zM256.38 223.85c.205.511.466.998.777 1.452.448.31.927.573 1.43.784a7.912 7.912 0 00-1.445.776 7.47 7.47 0 00-.777 1.444 7.524 7.524 0 00-.777-1.444 7.768 7.768 0 00-1.446-.776 2.914 2.914 0 002.238-2.236zm144.538 2.213c.209.506.469.99.777 1.443v.008c.457.308.943.568 1.453.776a7.912 7.912 0 00-1.445.776 8.009 8.009 0 00-.777 1.452 2.882 2.882 0 00-2.238-2.236c.51-.207.997-.468 1.453-.776.309-.452.57-.936.777-1.443zm-61.834-42.962c.209.507.469.99.777 1.444.458.314.948.579 1.461.791a7.516 7.516 0 00-1.453.777c-.309.452-.57.936-.777 1.443a2.91 2.91 0 00-2.238-2.235 7.98 7.98 0 001.453-.776c.309-.453.57-.937.777-1.444zm125.9 60.735a2.066 2.066 0 012.867 2.864 2.066 2.066 0 01-3.18.312 2.061 2.061 0 01.313-3.176zm12.353-31.419c.324.26.679.479 1.056.652v.008c.49.241.94.411.94.411-.703.292-1.373.659-1.996 1.095-.438.62-.806 1.286-1.096 1.987 0 0-.202-.466-.451-.955a4.515 4.515 0 00-.637-1.032 10.523 10.523 0 00-2.02-1.056 4.029 4.029 0 003.108-3.104c.292.702.659 1.371 1.096 1.994zm-361.975 9.485c.288.703.653 1.372 1.088 1.995a10.51 10.51 0 002.035 1.11c-.703.288-1.373.652-1.997 1.087a10.388 10.388 0 00-1.087 1.994 10.499 10.499 0 00-1.135-2.01c-.62-.436-1.287-.8-1.989-1.087.702-.29 1.369-.657 1.989-1.094a10.46 10.46 0 001.096-1.995zm474.865-67.652a10.46 10.46 0 001.096 1.995v.016c.623.427 1.29.786 1.989 1.071-.7.29-1.367.654-1.989 1.086a10.49 10.49 0 00-1.096 1.995 10.366 10.366 0 00-1.087-1.995 10.843 10.843 0 00-1.997-1.086 10.847 10.847 0 001.997-1.087c.434-.623.799-1.292 1.087-1.995zM1.84 19.35a4.13 4.13 0 015.206.519 4.12 4.12 0 01-1.343 6.72 4.13 4.13 0 01-4.497-.897 4.12 4.12 0 01.633-6.342zm150.437-43.032c.292.702.656 1.37 1.088 1.995.624.434 1.293.799 1.997 1.087-.704.291-1.373.658-1.997 1.094a10.532 10.532 0 00-1.088 1.987c-.29-.7-.655-1.365-1.088-1.987a10.486 10.486 0 00-1.997-1.094 10.329 10.329 0 001.997-1.087c.432-.625.797-1.293 1.088-1.995zm3.76 79.604a3.11 3.11 0 011.469 1.383 3.094 3.094 0 01.255 2.513 3.095 3.095 0 01-1.698 1.87 3.114 3.114 0 01-3.571-.771 3.104 3.104 0 01-.642-1.12 2.908 2.908 0 01-.202-1.08 3.1 3.1 0 012.378-2.985 3.113 3.113 0 012.011.19zm-106.69 66.939c1.701 0 6.55-1.917 6.55-1.917s-1.88 4.828-1.88 6.543c0 1.716 1.88 6.544 1.88 6.544s-4.84-1.918-6.55-1.918-6.55 1.918-6.55 1.918 1.919-4.844 1.919-6.544c0-1.699-1.92-6.543-1.92-6.543s4.85 1.917 6.55 1.917zm-18.564 51.067l.003-.001.084-.032-.012.031-.017.045c-.183.486-1.114 2.958-1.114 3.844 0 .878.913 3.277 1.109 3.791l.022.058.012.032-.037-.014-.041-.015c-.492-.185-2.953-1.112-3.846-1.112-.884 0-3.274.909-3.793 1.106l-.001.001-.091.034c.062-.14 1.142-2.887 1.142-3.881 0-.915-.916-3.325-1.11-3.833l-.02-.055-.012-.032c.14.062 2.89 1.141 3.885 1.141.916 0 3.329-.915 3.837-1.108zm553.993-59.987l.097-.037.031-.039a5.623 5.623 0 01-.035.093c-.201.527-1.138 2.989-1.138 3.866 0 .877.912 3.276 1.108 3.791l.021.054.013.036c-.132-.062-2.921-1.149-3.885-1.149-.88 0-3.253.908-3.786 1.111l-.099.038c.062-.132 1.142-2.887 1.142-3.881 0-.915-.915-3.323-1.109-3.832v-.001l-.017-.046-.016-.041c.14.062 2.929 1.149 3.885 1.149.875 0 3.259-.91 3.788-1.112zm-217.29-56.038l.083-.031-.031.08c-.213.557-1.352 3.545-1.352 4.662 0 1.115 1.135 4.088 1.351 4.652l.032.083-.032-.012-.048-.018h-.001c-.559-.213-3.549-1.352-4.667-1.352-1.116 0-4.09 1.135-4.656 1.35l-.084.032.032-.083c.216-.564 1.351-3.537 1.351-4.652 0-1.117-1.139-4.105-1.352-4.662l-.031-.08.085.032h.001c.571.218 3.533 1.35 4.654 1.35 1.124 0 4.1-1.136 4.665-1.35zm-50.943-1.731a13.585 13.585 0 002.851-.838h.024c-.391.915-.681 1.87-.863 2.848.175.978.456 1.933.839 2.849a13.585 13.585 0 00-2.851-.838 13.75 13.75 0 00-2.852.838c.383-.916.665-1.871.839-2.849a13.535 13.535 0 00-.839-2.848 13.83 13.83 0 002.852.838zm74.794-58.866a13.69 13.69 0 002.852-.83c-.38.916-.659 1.871-.832 2.848.174.975.453 1.927.832 2.841a13.69 13.69 0 00-2.852-.83 13.8 13.8 0 00-2.851.83c.382-.913.663-1.866.839-2.84a13.595 13.595 0 00-.839-2.85c.917.38 1.874.658 2.851.831zm-56.993 244.086s1.5 3.47 2.37 4.339v-.008c.909.877 4.343 2.383 4.343 2.383s-3.473 1.506-4.343 2.375c-.87.87-2.37 4.339-2.37 4.339s-1.5-3.462-2.378-4.339c-.878-.877-4.343-2.375-4.343-2.375s3.465-1.506 4.343-2.375c.878-.869 2.378-4.339 2.378-4.339zm-94.499-93.165c.38.919.859 1.793 1.429 2.608a13.739 13.739 0 002.627 1.42c-.918.379-1.791.858-2.603 1.429a13.423 13.423 0 00-1.43 2.6 13.696 13.696 0 00-1.422-2.6 13.644 13.644 0 00-2.611-1.429 13.994 13.994 0 002.588-1.42 13.994 13.994 0 001.422-2.608zm201.112 10.424s2.066 4.781 3.271 5.985c1.204 1.203 5.99 3.267 5.99 3.267s-4.786 2.073-5.99 3.276c-1.205 1.203-3.271 5.976-3.271 5.976s-2.059-4.765-3.272-5.976c-1.212-1.211-5.99-3.276-5.99-3.276s4.786-2.064 5.99-3.267c1.205-1.204 3.272-5.985 3.272-5.985zM77.311 193.68s1.243 2.864 1.966 3.586c.723.722 3.59 1.964 3.59 1.964s-2.867 1.234-3.59 1.956c-.723.722-1.966 3.594-1.966 3.594s-1.235-2.872-1.958-3.594c-.722-.722-3.597-1.956-3.597-1.956s2.875-1.242 3.597-1.964c.723-.722 1.958-3.586 1.958-3.586zm403.871-13.156s1.243 2.864 1.966 3.586c.722.722 3.59 1.964 3.59 1.964s-2.868 1.242-3.59 1.963c-.723.722-1.966 3.586-1.966 3.586s-1.243-2.864-1.966-3.586c-.722-.721-3.59-1.963-3.59-1.963s2.86-1.242 3.59-1.964c.731-.722 1.966-3.586 1.966-3.586zM188.205 59.184s2.067 4.773 3.271 5.984c1.205 1.203 5.991 3.268 5.991 3.268s-4.786 2.056-5.991 3.267c-1.204 1.211-3.271 5.985-3.271 5.985s-2.074-4.782-3.279-5.985c-1.204-1.203-5.983-3.267-5.983-3.267s4.771-2.057 5.983-3.268c1.212-1.211 3.279-5.985 3.279-5.985zm-19.782-47.666s1.235 2.864 1.965 3.586c.723.683 3.59 1.964 3.59 1.964s-2.859 1.242-3.59 1.964c-.73.721-1.965 3.586-1.965 3.586s-1.244-2.864-1.966-3.586c-.723-.722-3.59-1.964-3.59-1.964s2.867-1.242 3.59-1.964c.722-.722 1.966-3.586 1.966-3.586zm942.347 98.176a4.19 4.19 0 011.92 1.432c.64.88.91 1.979.75 3.059a4.14 4.14 0 01-1.62 2.7 4.146 4.146 0 01-4.59.215 4.182 4.182 0 01-1.6-1.777 4.111 4.111 0 01-.35-2.368c.13-.806.48-1.559 1.03-2.161a4.141 4.141 0 014.46-1.1zm-19.38-127.477v.047c-.03.737.01 1.475.12 2.204-.6-.43-1.24-.802-1.92-1.11h-.05a10.43 10.43 0 00-2.27.117c.45-.615.82-1.276 1.13-1.972.04-.757 0-1.517-.12-2.266.61.445 1.27.822 1.97 1.125.75.044 1.51.005 2.26-.116-.44.614-.82 1.276-1.12 1.971zM799.492 204.048a2.068 2.068 0 011.344 2.25 2.075 2.075 0 01-.816 1.354 2.073 2.073 0 01-2.294.107 2.06 2.06 0 01-.804-.89c-.174-.369-.235-.782-.174-1.186a2.061 2.061 0 012.744-1.635zm-32.278-45.967a4.125 4.125 0 012.134 6.004c-.28.463-.648.866-1.085 1.187a4.136 4.136 0 01-4.58.216 4.126 4.126 0 01-1.951-4.146 4.121 4.121 0 013.089-3.386 4.13 4.13 0 012.393.125zm-10.282 38.085a2.052 2.052 0 011.301 1.439 2.07 2.07 0 01-.235 1.559 2.067 2.067 0 01-1.669.992 2.064 2.064 0 01-1.958-1.181 2.052 2.052 0 01.341-2.259 2.063 2.063 0 012.22-.55zm18.728-1.554c.186.068.348.19.467.349v-.031a1.034 1.034 0 01-1.663 1.226 1.067 1.067 0 01-.202-.636c.008-.152.05-.301.123-.435a.984.984 0 01.693-.512c.193-.044.396-.03.582.039zM616.946 91.614a4.12 4.12 0 01-1.887 7.861 4.118 4.118 0 01-2.641-7.144 4.126 4.126 0 014.528-.717zm19.823-15.648a2.062 2.062 0 011.176 1.544 2.05 2.05 0 01-.366 1.533 2.055 2.055 0 01-1.746.848 2.063 2.063 0 01-1.852-1.34 2.061 2.061 0 01.53-2.223 2.065 2.065 0 012.258-.362zm34.392-7.903a10.418 10.418 0 00-1.134 1.972c-.054.495-.046.996.023 1.49.039.427.093.776.093.776s-.225-.155-.536-.35a6.064 6.064 0 00-1.437-.775 10.428 10.428 0 00-2.269.116 10.55 10.55 0 001.127-1.972 10.36 10.36 0 00-.117-2.266 10.53 10.53 0 001.974 1.126c.76.043 1.524.004 2.276-.117zm43.505 157.053a10.455 10.455 0 00-1.127 1.971h-.008c-.043.758-.004 1.518.117 2.267a10.474 10.474 0 00-1.974-1.126 10.574 10.574 0 00-2.269.109c.448-.614.826-1.275 1.127-1.972.046-.757.009-1.517-.109-2.266.615.448 1.277.828 1.974 1.133.758.044 1.519.005 2.269-.116zm58.127 14.126a10.34 10.34 0 00-1.126 1.964h-.008a10.62 10.62 0 00.116 2.274c-.613-.45-1.275-.83-1.973-1.133a10.447 10.447 0 00-2.269.116c.449-.614.829-1.275 1.134-1.971.044-.758.005-1.518-.116-2.267.615.446 1.277.823 1.973 1.126a10.57 10.57 0 002.269-.109zm5.929-103.535a10.494 10.494 0 00-1.127 1.972h-.008c-.041.758.001 1.518.125 2.266a10.525 10.525 0 00-1.974-1.125 10.508 10.508 0 00-2.276.116c.448-.614.829-1.275 1.134-1.971.044-.758.005-1.518-.117-2.267.616.445 1.277.823 1.974 1.126.758.044 1.519.005 2.269-.117zm87.261 46.614c.268.122.494.32.649.57a1.5 1.5 0 01-.489 2.057 1.49 1.49 0 01-1.655-.065 1.498 1.498 0 01-.523-.688 1.495 1.495 0 01.383-1.609 1.488 1.488 0 011.635-.265zm15.869 19.671a2.99 2.99 0 011.66 3.411 2.993 2.993 0 01-5.818-1.392 2.994 2.994 0 014.158-2.019zm14.379-11.351c.269.122.495.321.65.571h.031a1.49 1.49 0 01-.521 2.057 1.494 1.494 0 01-2.177-.754 1.487 1.487 0 011.16-1.989c.291-.047.589-.007.857.115zm-14.027 1.306c.08.089.139.197.17.313a.778.778 0 01-.248 1.024.776.776 0 01-1.026-.248.773.773 0 01.12-1.235.772.772 0 01.984.146zm39.02-7.045c-.309.447-.57.925-.777 1.428h-.046a7.39 7.39 0 00.124 1.653 7.331 7.331 0 00-1.43-.823 7.765 7.765 0 00-1.647.086c.311-.449.572-.931.777-1.436.036-.55.01-1.102-.078-1.646a7.26 7.26 0 001.43.823c.551.03 1.103.002 1.647-.085zm-99.868 30.814a7.618 7.618 0 00-.816 1.428 7.309 7.309 0 00.047 1.646 7.304 7.304 0 00-1.43-.815 7.695 7.695 0 00-1.647.085c.324-.447.598-.928.816-1.436a7.308 7.308 0 00-.078-1.645 2.915 2.915 0 003.108.737zm177.864 18.271a7.322 7.322 0 00-.777 1.429 7.284 7.284 0 00.031 1.676 2.952 2.952 0 00-3.108-.737 2.912 2.912 0 00.777-3.105c.446.323.925.596 1.43.815.55.036 1.103.01 1.647-.078zM899.691 22.758c.27-.124.572-.165.865-.117h-.039a1.491 1.491 0 01.908 2.487 1.502 1.502 0 01-2.607-.948 1.493 1.493 0 01.873-1.422zM863.258 65.44a2.995 2.995 0 011.719-.249h-.039a2.986 2.986 0 012.492 2.227 2.989 2.989 0 01-3.916 3.539 2.99 2.99 0 01-1.547-4.355 3 3 0 011.291-1.162zM925.577 5a1.5 1.5 0 01.861-.126h-.039a1.512 1.512 0 011.265 1.116c.05.193.061.394.033.592a1.5 1.5 0 11-2.767-1c.154-.254.379-.457.647-.583zm-8.138 11.892a.776.776 0 01.452-.212.778.778 0 01.227 1.27.776.776 0 01-.452.212.773.773 0 01-.457-.827.774.774 0 01.23-.443zm160.191-27.367a1.533 1.533 0 01.85 1.43c-.02.293-.12.575-.29.811a1.505 1.505 0 01-1.55.573 1.56 1.56 0 01-.91-.682 1.517 1.517 0 01-.2-1.119c.07-.291.22-.556.44-.76.22-.203.49-.336.79-.381.29-.045.6 0 .87.128zm-27.37-5.515a2.97 2.97 0 011.73-.1v-.024c.39.091.75.258 1.07.49.32.232.6.526.8.864.21.338.34.713.4 1.105.06.39.04.79-.05 1.174a3.055 3.055 0 01-.88 1.502c-.44.402-.98.667-1.57.76-.58.093-1.18.01-1.72-.238s-1-.65-1.31-1.155a3.022 3.022 0 01-.44-1.684c.03-.592.23-1.164.58-1.644.34-.48.83-.845 1.39-1.05zm-1.09 20.998c.27-.102.58-.119.87-.049v-.023a1.51 1.51 0 01.93.68c.1.17.17.359.2.555.03.197.02.397-.03.59a1.51 1.51 0 01-1.22 1.134c-.3.046-.6.005-.87-.12a1.521 1.521 0 01-.65-.578 1.557 1.557 0 01-.22-.843c.01-.297.11-.583.29-.822.17-.24.42-.422.7-.524zm82.73 48.527c.12.006.24.04.34.099.15.083.27.211.33.366.07.155.09.327.05.491a.795.795 0 01-.73.594.78.78 0 01-.35-.067.795.795 0 01-.44-.534.853.853 0 01.01-.356.663.663 0 01.16-.317.706.706 0 01.28-.213c.11-.048.23-.07.35-.063zm-94.24-28.34c.09.531.23 1.052.43 1.552.37.412.78.784 1.23 1.11-.53.088-1.05.231-1.55.427a3.76 3.76 0 00-.59.559c-.28.333-.52.667-.52.667s-.07-.38-.17-.776c-.06-.27-.15-.53-.27-.776a7.084 7.084 0 00-1.22-1.102 7.49 7.49 0 001.55-.435c.42-.368.79-.78 1.11-1.226zM934.682-33.128a7.39 7.39 0 00.427 1.553c.381.414.806.786 1.267 1.11a7.854 7.854 0 00-1.593.427 7.598 7.598 0 00-1.103 1.226 7.533 7.533 0 00-.435-1.552 7.75 7.75 0 00-1.228-1.103 7.51 7.51 0 001.554-.434c.413-.369.785-.78 1.111-1.227zM897.603-10.58c.089.531.232 1.051.428 1.553.38.415.805.787 1.266 1.11a7.523 7.523 0 00-1.593.434c-.41.366-.78.775-1.103 1.219a7.408 7.408 0 00-.435-1.552 7.433 7.433 0 00-1.228-1.11 7.51 7.51 0 001.554-.435 7.491 7.491 0 001.111-1.219zm50.133 56.157c.088.53.232 1.051.427 1.552a7.68 7.68 0 001.189 1.103 7.51 7.51 0 00-1.554.434c-.411.368-.781.78-1.103 1.227a7.474 7.474 0 00-.436-1.553 7.428 7.428 0 00-1.227-1.11 7.872 7.872 0 001.593-.427 7.88 7.88 0 001.111-1.226zm-294.21 210.128a2.994 2.994 0 011.606-.66v-.008a2.99 2.99 0 013.263 2.702 2.991 2.991 0 11-5.838-.595c.173-.565.51-1.066.969-1.439zm-22.64-273.508a2.062 2.062 0 012.532.633 2.058 2.058 0 11-2.532-.633zm34.87.746a4.132 4.132 0 015.067 1.27 4.117 4.117 0 01-.242 5.214 4.125 4.125 0 01-6.38-.296 4.117 4.117 0 011.555-6.188zm-10.442-9.01c.183-.087.387-.119.587-.09v-.032a1.038 1.038 0 01.69.418 1.021 1.021 0 01.18.785 1.02 1.02 0 01-.768.838 1.027 1.027 0 01-1.27-.943 1.029 1.029 0 01.581-.976zm165.77 11.505c.117.75.315 1.483.591 2.19a10.784 10.784 0 001.693 1.552c-.749.12-1.484.32-2.191.597a10.832 10.832 0 00-1.554 1.685c-.12-.75-.32-1.483-.598-2.19a10.453 10.453 0 00-1.686-1.552c.75-.12 1.484-.32 2.191-.597a10.194 10.194 0 001.554-1.684zm-123.94 28.145c.117.75.317 1.484.599 2.189a10.42 10.42 0 001.686 1.544c-.752.121-1.49.321-2.199.598-.578.503-1.1 1.068-1.554 1.684a10.069 10.069 0 00-.599-2.188 10.202 10.202 0 00-1.686-1.553c.752-.117 1.49-.315 2.199-.59a10.784 10.784 0 001.554-1.684zm14.119 85.764a1.035 1.035 0 011.375 1.199 1.032 1.032 0 01-.837.783 1.03 1.03 0 01-1.202-1.049 1.034 1.034 0 01.664-.933zm377.057 120.948c.58-.218 1.2-.261 1.8-.124v.024c.8.185 1.5.679 1.93 1.374.44.695.58 1.535.4 2.336-.14.597-.45 1.14-.9 1.559a3.12 3.12 0 01-1.62.797c-.6.1-1.22.018-1.78-.235a3.079 3.079 0 01-1.36-1.186 3.088 3.088 0 01.11-3.445 3.08 3.08 0 011.42-1.1zM664.077 156.43a3.116 3.116 0 011.591.855l-.023.008a3.103 3.103 0 01.023 4.37 3.108 3.108 0 01-4.787-3.916 3.108 3.108 0 013.196-1.317zM1055.58-4.665c.19.157.34.343.46.55.26.45.34.978.22 1.481a2.05 2.05 0 01-.83 1.24 2.072 2.072 0 01-3.25-1.797c.03-.515.25-1.003.61-1.366a2.08 2.08 0 011.38-.596c.51-.02 1.02.154 1.41.488zm28.23 18.398c.81.09 1.58.419 2.2.944a4.09 4.09 0 011.45 2.8c.1 1.09-.25 2.17-.95 3.006a4.169 4.169 0 01-2.01 1.305c-.78.226-1.62.216-2.4-.03a4.152 4.152 0 01-1.97-1.355 4.122 4.122 0 01-.89-2.223c-.07-.812.1-1.627.5-2.34a4.114 4.114 0 014.07-2.107zm13.9-21.08c.4.045.79.208 1.1.47.42.352.68.856.72 1.4a2.05 2.05 0 01-.47 1.503 2.073 2.073 0 01-2.2.632 2.018 2.018 0 01-.98-.676 2.06 2.06 0 01-.45-1.109 2.063 2.063 0 012.28-2.22zM1079.65.561c.2.023.39.106.55.238a1.029 1.029 0 01.12 1.451 1.033 1.033 0 01-1.1.32c-.19-.06-.37-.178-.5-.338-.12-.16-.2-.353-.22-.557a1.05 1.05 0 01.56-1.005c.18-.094.38-.131.59-.109zM696.078 49.995c.401.08.77.276 1.059.565h-.032a2.062 2.062 0 01.032 2.919 2.07 2.07 0 01-3.181-.312 2.064 2.064 0 012.122-3.172zm474.212-36.67c.4.08.77.278 1.06.568h-.03c.39.383.61.904.61 1.45.01.545-.2 1.07-.58 1.461-.29.29-.66.488-1.06.569-.4.08-.82.04-1.19-.116a2.02 2.02 0 01-.93-.76c-.23-.34-.35-.74-.35-1.148 0-.41.12-.809.35-1.149.22-.34.55-.604.93-.76a2.04 2.04 0 011.19-.115zm-18.13 176.788l.04-.026h-.03l-.01.026zm0 0c-.65.398-1.39.61-2.14.61-.78 0-1.53-.221-2.18-.636.29.701.5 1.433.63 2.181a10.28 10.28 0 01-.63 2.173 4.06 4.06 0 014.36 0c-.29-.699-.51-1.428-.64-2.173.12-.738.32-1.46.6-2.155zM1094.5 56.242c-.29.702-.5 1.433-.63 2.18.08.6.24 1.187.46 1.747.04.102.07.192.1.262v.004c.04.083.06.14.06.161l-.43-.155a7.592 7.592 0 00-1.75-.474c-.75.133-1.48.347-2.18.637.29-.702.5-1.433.64-2.181-.14-.748-.35-1.48-.64-2.181a4.02 4.02 0 004.37 0zm-267.611-87.68a1.5 1.5 0 011.264 1.944 1.503 1.503 0 01-.286.511 1.496 1.496 0 01-1.601.461 1.503 1.503 0 01-1.039-1.301 1.492 1.492 0 01.806-1.457 1.5 1.5 0 01.856-.158zM848.14-17.73a2.991 2.991 0 012.55 3.864 2.98 2.98 0 01-2.013 1.976 2.993 2.993 0 01-3.821-2.593 2.982 2.982 0 011.582-2.916 2.992 2.992 0 011.702-.33zm10.124-15.315a1.5 1.5 0 011.262 1.944 1.503 1.503 0 01-1.884.972 1.498 1.498 0 01.622-2.916zm-13.118 5.722c.154.022.299.09.414.195h-.008a.772.772 0 01-.741 1.316.776.776 0 01.335-1.51zM995.01 32.616c.291.058.558.2.768.41h-.008a1.494 1.494 0 01-1.626 2.444 1.5 1.5 0 01-.926-1.384 1.496 1.496 0 01.926-1.384 1.5 1.5 0 01.866-.086zm-19.466-18.331c.58.116 1.113.4 1.531.82a2.972 2.972 0 010 4.222 2.991 2.991 0 01-4.604-3.772 2.992 2.992 0 013.073-1.27zM963.611 31.6c.291.057.558.2.768.41v-.04a1.504 1.504 0 01.459 1.08 1.495 1.495 0 01-.459 1.078 1.501 1.501 0 01-2.56-1.06 1.496 1.496 0 01.926-1.383 1.5 1.5 0 01.866-.085zm13.246-3.165a.774.774 0 01.397.23v-.04a.774.774 0 010 1.095.775.775 0 01-.853.195.776.776 0 01.456-1.48zm-33.616 14.317l.019-.008v-.039l-.019.047zm0 0a7.5 7.5 0 01-1.535.458 7.61 7.61 0 01-1.554-.466c.211.5.367 1.02.466 1.552a7.446 7.446 0 01-.466 1.553 7.71 7.71 0 011.554-.458 7.59 7.59 0 011.554.458 7.567 7.567 0 01-.458-1.553 7.672 7.672 0 01.439-1.544zm89.949-53.162l.02-.014v-.04l-.02.053z"/><path d="M1033.19-10.41a2.967 2.967 0 01-3.15-.014c.21.499.37 1.02.47 1.552-.1.533-.26 1.053-.47 1.552a2.972 2.972 0 011.59-.465c.56 0 1.11.161 1.58.465a7.627 7.627 0 01-.46-1.552c.09-.527.24-1.043.44-1.539zM854.402 13.567a7.61 7.61 0 001.554-.465 7.58 7.58 0 00-.466 1.552 7.58 7.58 0 00.466 1.552 7.61 7.61 0 00-1.554-.465 7.51 7.51 0 00-1.554.465c.207-.5.361-1.02.458-1.552a7.642 7.642 0 00-.458-1.552c.5.21 1.021.367 1.554.465zm142.546 182.646a1.507 1.507 0 011.901.024 1.483 1.483 0 01.526 1.014 1.5 1.5 0 01-.8 1.463 1.5 1.5 0 01-2.134-.913 1.503 1.503 0 01.507-1.588zm-21.476-47.509c.57.516.919 1.232.974 1.999a2.987 2.987 0 01-1.841 3.022 2.995 2.995 0 01-3.409-.819 2.991 2.991 0 01-.71-1.698 1.694 1.694 0 010-.334 2.98 2.98 0 012.898-2.939 2.99 2.99 0 012.088.769zm.442 70.804c.231-.185.51-.297.804-.322a1.477 1.477 0 011.092.341 1.488 1.488 0 01.344 1.863 1.483 1.483 0 01-.62.603 1.495 1.495 0 01-2.119-.907 1.49 1.49 0 01.499-1.578zm6.053-12.054a.775.775 0 01.941-.181.773.773 0 01.231 1.2.77.77 0 01-.855.218.773.773 0 01-.508-.721.78.78 0 01.191-.516zm57.853-111.246c.25-.164.54-.25.84-.249a1.492 1.492 0 011.49 1.49c0 .297-.09.588-.25.835a1.494 1.494 0 01-1.54.643c-.29-.058-.56-.2-.77-.41-.21-.21-.35-.478-.41-.77-.06-.29-.03-.593.09-.867.11-.274.3-.508.55-.672zM855.899 248.095a1.5 1.5 0 01.834-.253 1.495 1.495 0 011.385.918 1.503 1.503 0 01-.806 1.962 1.496 1.496 0 01-1.637-.32 1.495 1.495 0 01.224-2.307zm43.915-152.021a.775.775 0 011.208.646.77.77 0 01-.479.717.78.78 0 01-1.06-.566.778.778 0 01.331-.797zM864.068 223.85c.205.511.466.998.777 1.452.448.31.927.573 1.43.784a7.92 7.92 0 00-1.446.776 7.524 7.524 0 00-.777 1.444 7.47 7.47 0 00-.777-1.444 7.729 7.729 0 00-1.445-.776 2.914 2.914 0 002.238-2.236zm144.542 2.213c.2.506.47.99.77 1.443v.008c.46.308.95.568 1.46.776-.51.208-1 .468-1.45.776-.31.456-.57.943-.78 1.452a2.823 2.823 0 00-.78-1.452c-.4-.397-.9-.67-1.45-.784.51-.207.99-.468 1.45-.776.31-.452.57-.936.78-1.443zm-61.838-42.962c.209.507.469.99.777 1.444.458.314.948.579 1.461.791a7.487 7.487 0 00-1.453.777 7.69 7.69 0 00-.777 1.443 2.91 2.91 0 00-2.238-2.235 7.98 7.98 0 001.453-.776c.309-.453.57-.937.777-1.444zm125.898 60.735a2.07 2.07 0 013.22 1.717c0 .408-.12.807-.35 1.147a2.076 2.076 0 01-2.12.877 2.073 2.073 0 01-1.63-1.622c-.08-.4-.04-.815.12-1.193.16-.377.42-.699.76-.926zm12.35-31.419c.33.26.68.479 1.06.652v.008c.49.241.94.411.94.411-.7.292-1.37.659-2 1.095-.43.62-.8 1.286-1.09 1.987 0 0-.2-.466-.45-.955a4.634 4.634 0 00-.64-1.032c-.63-.424-1.31-.778-2.02-1.056.76-.161 1.46-.54 2.02-1.091.55-.551.93-1.251 1.09-2.013.29.702.66 1.371 1.09 1.994zm-361.97 9.485c.288.703.653 1.372 1.087 1.995.636.444 1.319.816 2.036 1.11-.703.288-1.373.652-1.997 1.087a10.392 10.392 0 00-1.088 1.994 10.494 10.494 0 00-1.134-2.01c-.62-.436-1.287-.8-1.989-1.087.701-.29 1.369-.657 1.989-1.094a10.46 10.46 0 001.096-1.995zm474.87-67.652c.29.703.65 1.372 1.09 1.995v.016c.62.427 1.29.786 1.99 1.071-.7.29-1.37.654-1.99 1.086-.44.624-.8 1.292-1.09 1.995-.29-.703-.66-1.372-1.09-1.995-.63-.431-1.3-.795-2-1.086.7-.291 1.37-.656 2-1.087.43-.623.8-1.292 1.09-1.995zM609.527 19.35a4.131 4.131 0 015.207.519 4.12 4.12 0 01-3.728 6.953 4.122 4.122 0 01-1.479-7.472zm-2.842-51.357a2.068 2.068 0 013.21 1.72 2.066 2.066 0 11-3.21-1.72zm153.28 8.325c.291.702.656 1.37 1.088 1.995.623.434 1.293.799 1.997 1.087-.704.291-1.373.658-1.997 1.094a10.532 10.532 0 00-1.088 1.987c-.29-.7-.655-1.365-1.088-1.987a10.486 10.486 0 00-1.997-1.094 10.329 10.329 0 001.997-1.087c.432-.625.797-1.293 1.088-1.995zm3.76 79.604a3.11 3.11 0 011.469 1.383 3.094 3.094 0 01.255 2.513 3.095 3.095 0 01-1.698 1.87 3.114 3.114 0 01-3.571-.771 3.104 3.104 0 01-.642-1.12 2.908 2.908 0 01-.202-1.08 3.1 3.1 0 012.378-2.985 3.113 3.113 0 012.011.19zm-106.69 66.939c1.701 0 6.55-1.917 6.55-1.917s-1.88 4.828-1.88 6.543c0 1.716 1.88 6.544 1.88 6.544s-4.841-1.918-6.55-1.918c-1.71 0-6.55 1.918-6.55 1.918s1.919-4.844 1.919-6.544c0-1.699-1.919-6.543-1.919-6.543s4.848 1.917 6.55 1.917zm-18.564 51.067l.087-.033-.009.023-.02.054c-.184.488-1.114 2.957-1.114 3.843 0 .877.911 3.272 1.108 3.79v.001l.035.09-.078-.029c-.492-.185-2.953-1.112-3.846-1.112-.885 0-3.275.909-3.794 1.106l-.091.035c.062-.14 1.142-2.887 1.142-3.881 0-.915-.916-3.325-1.11-3.833l-.004-.01v-.001l-.028-.076c.14.062 2.89 1.141 3.885 1.141.916 0 3.33-.916 3.837-1.108zm553.989-59.987c.05-.019.09-.031.1-.037l.03-.039-.02.049-.01.044c-.2.527-1.14 2.989-1.14 3.866 0 .877.91 3.272 1.11 3.79v.002l.03.089c-.13-.062-2.92-1.149-3.88-1.149-.88 0-3.26.908-3.79 1.111-.05.02-.08.033-.1.038.06-.132 1.14-2.887 1.14-3.881 0-.915-.91-3.326-1.11-3.833l-.02-.062-.01-.025c.14.062 2.93 1.149 3.89 1.149.87 0 3.25-.91 3.78-1.112zM975.174 57.903l.083-.031-.031.08c-.213.56-1.352 3.546-1.352 4.662s1.136 4.09 1.351 4.652l.032.083-.081-.03c-.559-.214-3.549-1.352-4.667-1.352-1.116 0-4.092 1.135-4.657 1.35l-.083.032.032-.084c.217-.568 1.351-3.537 1.351-4.65 0-1.117-1.138-4.101-1.352-4.662l-.031-.081.028.01.058.022c.57.218 3.532 1.35 4.654 1.35 1.123 0 4.1-1.135 4.665-1.35zm-50.943-1.731a13.585 13.585 0 002.851-.838h.024c-.392.915-.681 1.87-.863 2.848.175.978.456 1.933.839 2.849a13.585 13.585 0 00-2.851-.838 13.69 13.69 0 00-2.852.838c.383-.916.665-1.871.839-2.849a13.535 13.535 0 00-.839-2.848c.917.381 1.874.662 2.852.838zm74.794-58.866a13.805 13.805 0 002.855-.83c-.38.916-.66 1.871-.83 2.848.17.975.45 1.927.83 2.841a13.74 13.74 0 00-2.855-.83c-.978.173-1.934.452-2.852.83.383-.913.664-1.866.84-2.84a13.538 13.538 0 00-.84-2.85c.918.38 1.874.658 2.852.831zm-56.993 244.086s1.5 3.47 2.37 4.339v-.008c.909.877 4.343 2.383 4.343 2.383s-3.473 1.506-4.343 2.375c-.87.87-2.37 4.339-2.37 4.339s-1.5-3.462-2.378-4.339c-.878-.877-4.343-2.375-4.343-2.375s3.465-1.506 4.343-2.375c.878-.869 2.378-4.339 2.378-4.339zm-94.499-93.165c.38.919.859 1.793 1.429 2.608a13.739 13.739 0 002.627 1.42c-.918.379-1.791.858-2.603 1.429a13.37 13.37 0 00-1.43 2.6 13.696 13.696 0 00-1.422-2.6 13.644 13.644 0 00-2.611-1.429 13.994 13.994 0 002.588-1.42 13.994 13.994 0 001.422-2.608zm201.107 10.424s2.07 4.781 3.28 5.985c1.2 1.203 5.99 3.267 5.99 3.267s-4.79 2.073-5.99 3.276c-1.21 1.203-3.28 5.976-3.28 5.976s-2.05-4.765-3.27-5.976c-1.21-1.211-5.99-3.276-5.99-3.276s4.79-2.064 5.99-3.267c1.21-1.204 3.27-5.985 3.27-5.985zM684.999 193.68s1.243 2.864 1.966 3.586c.723.722 3.59 1.964 3.59 1.964s-2.867 1.234-3.59 1.956c-.723.722-1.966 3.594-1.966 3.594s-1.235-2.872-1.958-3.594c-.723-.722-3.597-1.956-3.597-1.956s2.874-1.242 3.597-1.964c.723-.722 1.958-3.586 1.958-3.586zm403.871-13.156s1.24 2.864 1.97 3.586c.72.722 3.59 1.964 3.59 1.964s-2.87 1.242-3.59 1.963c-.73.722-1.97 3.586-1.97 3.586s-1.24-2.864-1.97-3.586c-.72-.721-3.59-1.963-3.59-1.963s2.86-1.242 3.59-1.964 1.97-3.586 1.97-3.586zM795.893 59.184s2.067 4.773 3.271 5.984c1.205 1.203 5.991 3.268 5.991 3.268s-4.786 2.056-5.991 3.267c-1.204 1.211-3.271 5.985-3.271 5.985s-2.075-4.782-3.279-5.985c-1.204-1.203-5.983-3.267-5.983-3.267s4.771-2.057 5.983-3.268c1.212-1.211 3.279-5.985 3.279-5.985zm-19.782-47.666s1.235 2.864 1.965 3.586c.723.683 3.59 1.964 3.59 1.964s-2.859 1.242-3.59 1.964c-.73.721-1.965 3.586-1.965 3.586s-1.244-2.864-1.966-3.586c-.723-.722-3.59-1.964-3.59-1.964s2.867-1.242 3.59-1.964c.722-.722 1.966-3.586 1.966-3.586z"/></g><g opacity=".4"><path fill="url(#paint1_linear_285_4835)" d="M435.94 128.423c-3.7.26-8.909 3.92-12.219.78-3.74-3.55 25.22-13.37 30.27-19.74.93-1.17-.491-3-7.281.92-5.57 3.18-18.12 9-17 7.65.58-.73 5-4.22 10-8.42.44-.37-.65-1-2.67.56-10.15 8-42 24.57-36.63 20.26 31.36-25.36-3.3-.85-63.59 27.67-12.58 6-18.16 17.83-6.22 20.8 1.84.46 7.501.23 10.851-2.86 6.27-5.77 86.639-31.14 73.549-32.1a16.694 16.694 0 00-6 .64 1.053 1.053 0 01-1.129-.359 1.064 1.064 0 01-.091-1.181c1.21-1.89 33.3-14.99 28.16-14.62z"/><path fill="url(#paint2_linear_285_4835)" d="M431.161 134.763c-1.91-.36-4.43 2.61-13.51 4.62-.84.19-2.18.58-2.41 1.41-1.58 5.67 18.91-5.45 15.92-6.03z"/><path fill="url(#paint3_linear_285_4835)" d="M433.86 110.843c3.48-2.68-18.91 6.73-19.57 9.86-1.07 5.06 19.21-9.6 19.57-9.86z"/><path fill="#A38BFF" d="M341.921 171.083c-2.05 2.12 1.14 2.14-1.81 4.53-2.34 2-3.73 1.74-7 1.76-2.32 0-2.76.65-4 0-7.53-4.16-3.25-9.94-.08-11.93 2.33-1.45 2.61-4.09 3.49-4.52.88-.43 4.46-.85 5.34 1.91.88 2.76 2.74 1.54 4.4 3.27 1.66 1.73 1.51 2.97-.34 4.98z"/><path fill="#7D67E3" d="M341.921 171.083c-2 2.09 1 2.12-1.55 4.31-1.86-1.24-1.43-2.51-.78-2.82.65-.31.72 0 .95-.81.14-.52.81-.72 1.38-.68z"/><path fill="#7D67E3" d="M339.081 172.633c-1.63.78.67 3.32 1.29 2.76 2.54-2.19-.47-2.22 1.55-4.31-2.42-.16-1.18.76-2.84 1.55zm-8.11-2.78c-.55-1.68-2.001-.75-2.401-.94-.4-.19-.8-1.38-1.44-.06a2.676 2.676 0 00.3 2.48c.43.56 1.31.12 2 .59 1.57 1 1.811-1.27 1.541-2.07zm1.719 7.54c-1.89.08-4.27.91-3-.79.45-.59 2.31-.54 3 .79zm5.73-10.34c-1.42-1.63-.2-2.55-1.64-2.82-3.68-.69-3.679 6 .511 5.1 1.32-.27 1.749-1.57 1.129-2.28z"/><path fill="#7D67E3" d="M335.141 168.873c1.83.7 3.999-.76 2.279-2.51-.75-.78-.09-1.54-.64-2.13 1.45.28.4 1.58 1.27 2.47 1.89 1.95-.999 3.54-2.909 2.17zm6.36 2.21c-1.13.21-.941.79-1.081 1.05s-2.069.45-1.259 2.09c.4.82 1.259 1.12 1.159 1.19-.45.39-1.48-.76-1.67-1.13-.82-1.67 1.07-1.7 1.27-2.09.2-.39-.049-1.02 1.581-1.11zm-12.001.84c-.73-.47-1.6 0-2-.59-.62-.81 2.411.55 2.641.47 1.16-.41.259-3.9.899-2 .24.96-.11 3.08-1.54 2.12zm3.19 5.47c-.67 0-2.55-1.31-3.29-.31a1.197 1.197 0 011.301-.81 2 2 0 011.989 1.12z" opacity=".46"/><path fill="#7D67E3" d="M341.73 171.283c-1.62-4.2-3.199-1.07-7.379-1.43a6.151 6.151 0 01-5.241-4.41c2.33-1.45 2.611-4.09 3.491-4.52.88-.43 4.459-.85 5.339 1.91 1.11 3.44 9.02 2.29 3.79 8.45z" opacity=".46"/><path style="mix-blend-mode:color-dodge" fill="url(#paint4_radial_285_4835)" d="M345.86 161.043a2.09 2.09 0 01-3.391 1.855 2.086 2.086 0 01-.768-1.405 2.088 2.088 0 011.855-2.305 2.094 2.094 0 012.304 1.855z"/></g></g><defs><linearGradient id="paint0_linear_285_4835" x1="756.743" x2="755.586" y1="184.006" y2="22.097" gradientUnits="userSpaceOnUse"><stop stop-color="#551BDF"/><stop offset="1" stop-color="#9F2DF5"/></linearGradient><linearGradient id="paint1_linear_285_4835" x1="340.782" x2="428.541" y1="179.085" y2="137.13" gradientUnits="userSpaceOnUse"><stop stop-color="#B62EC4" stop-opacity=".69"/><stop offset="1" stop-color="#1C2026" stop-opacity="0"/></linearGradient><linearGradient id="paint2_linear_285_4835" x1="340.782" x2="428.541" y1="179.085" y2="137.13" gradientUnits="userSpaceOnUse"><stop stop-color="#B62EC4" stop-opacity=".69"/><stop offset="1" stop-color="#1C2026" stop-opacity="0"/></linearGradient><linearGradient id="paint3_linear_285_4835" x1="340.782" x2="428.541" y1="179.085" y2="137.13" gradientUnits="userSpaceOnUse"><stop stop-color="#B62EC4" stop-opacity=".69"/><stop offset="1" stop-color="#1C2026" stop-opacity="0"/></linearGradient><radialGradient id="paint4_radial_285_4835" cx="0" cy="0" r="1" gradientTransform="matrix(2.19173 -.2859 .28592 2.1919 261.461 101.18)" gradientUnits="userSpaceOnUse"><stop stop-color="#fff"/><stop offset=".01" stop-color="#F9F9F9"/><stop offset=".13" stop-color="silver"/><stop offset=".25" stop-color="#8C8C8C"/><stop offset=".37" stop-color="#616161"/><stop offset=".49" stop-color="#3E3E3E"/><stop offset=".62" stop-color="#232323"/><stop offset=".74" stop-color="#0F0F0F"/><stop offset=".87" stop-color="#040404"/><stop offset="1"/></radialGradient><clipPath id="clip0_285_4835"><path fill="#fff" d="M0 0h1201v202H0z"/></clipPath></defs></svg>