<svg xmlns="http://www.w3.org/2000/svg" width="24" height="24" fill="none" viewBox="0 0 18 18"><mask id="a" width="24" height="24" x="0" y="0" maskUnits="userSpaceOnUse"><path fill="#fff" d="M13.5 0h-9A4.5 4.5 0 000 4.5v9A4.5 4.5 0 004.5 18h9a4.5 4.5 0 004.5-4.5v-9A4.5 4.5 0 0013.5 0z"/></mask><g mask="url(#a)"><path fill="url(#paint0_linear)" d="M13.5 0h-9A4.5 4.5 0 000 4.5v9A4.5 4.5 0 004.5 18h9a4.5 4.5 0 004.5-4.5v-9A4.5 4.5 0 0013.5 0z"/></g><path fill="#fff" fill-rule="evenodd" d="M4.558 6.107l8.2-.04-1.963 2.96 4.633-.022-1.964 2.91-8.252.054 1.994-2.94-4.617-.002 1.97-2.92z" clip-rule="evenodd"/><defs><linearGradient id="paint0_linear" x1="18" x2="0" y1="0" y2="18" gradientUnits="userSpaceOnUse"><stop stop-color="#4F3EFF"/><stop offset="1" stop-color="#A160FE"/></linearGradient></defs></svg>